<svg width="14" height="14" fill="none" xmlns="http://www.w3.org/2000/svg"><path d="M12.747 9.682l-.92-.92V6.3A4.829 4.829 0 007.92 1.56V.946a.92.92 0 00-1.84 0v.613A4.83 4.83 0 002.172 6.3v2.464l-.92.92v1.225H.334v.92h13.334v-.92h-.92V9.682zM7 13.973c.856 0 1.594-.5 1.939-1.226H5.06A2.146 2.146 0 007 13.973zm6.097-8.84L14 4.96a7.172 7.172 0 00-1.247-2.864 7.187 7.187 0 00-2.332-2.05l-.442.806a6.195 6.195 0 013.118 4.281zM4.021.852L3.58.046a7.188 7.188 0 00-2.332 2.05A7.172 7.172 0 000 4.96l.903.173A6.195 6.195 0 014.021.853z" fill="#1D1D1B"/></svg>