<svg width="49" height="49" fill="none" xmlns="http://www.w3.org/2000/svg"><circle cx="24.5" cy="24.825" r="24" fill="url(#paint0_linear_216_2285)"/><path d="M32.992 18.065c-1.934-3.547-4.827-5.24-8.52-5.24-4.44 0-9.307 2.48-9.307 10.28 0 6.427 9.307 13.72 9.307 13.72s9.346-7.44 9.346-13.827c.014 0 .174-3.08-.826-4.933z" stroke="#fff" stroke-width="2" stroke-miterlimit="10" stroke-linecap="round" stroke-linejoin="round"/><path d="M24.498 26.425a4.017 4.017 0 01-4.014-4.013c0-2.214 1.8-4.014 4.014-4.014 2.213 0 4.013 1.8 4.013 4.014 0 2.213-1.8 4.013-4.013 4.013z" stroke="#fff" stroke-width="2" stroke-miterlimit="10" stroke-linecap="round" stroke-linejoin="round"/><defs><linearGradient id="paint0_linear_216_2285" x1="48.5" y1="30.508" x2=".5" y2="30.56" gradientUnits="userSpaceOnUse"><stop stop-color="#3ABEBB"/><stop offset="1" stop-color="#79E7CC"/></linearGradient></defs></svg>