<svg width="40" height="38" fill="none" xmlns="http://www.w3.org/2000/svg"><path opacity=".8" d="M40 20.166v8.01c0 .745-.574.89-.972.89h-4.924c-.972 1.263-2.216 2.38-3.65 3.35v4.403A1.18 1.18 0 0129.291 38h-4.24a1.18 1.18 0 01-1.163-1.181v-1.57c-1.753.42-3.633.647-5.577.647-2.136 0-4.175-.275-6.072-.777v1.7A1.18 1.18 0 0111.076 38H6.82a1.18 1.18 0 01-1.164-1.181v-4.742C2.183 29.552 0 26.008 0 22.092c0-5.05 3.602-9.452 8.972-11.863h.048c1.211 3.577 4.558 6.166 8.494 6.166 4.127 0 7.633-2.848 8.685-6.732.909.323 1.77.695 2.582 1.132.813-1.78 3.538-3.738 7.378-2.913a.72.72 0 01.494.988l-2.613 6.198c1.068 1.343 1.833 2.848 2.23 4.434h2.901c.526 0 .829.194.829.664zM10.438 7.332c-.032-4.078 3.203-7.396 7.235-7.331 3.825.065 6.949 3.237 7.012 7.12.064 4.144-3.283 7.494-7.362 7.364-3.793-.113-6.853-3.285-6.885-7.153zm8.048 1.618c0 .502-.398.858-1.211.858-.765 0-1.482-.275-1.928-.502l-.367 1.473c.414.243 1.275.47 2.12.47v1.1h.988v-1.133c1.45-.323 2.12-1.197 2.12-2.33s-.622-1.829-1.977-2.33c-.988-.405-1.45-.6-1.45-1.101 0-.372.398-.728 1.115-.728a3.7 3.7 0 011.578.372l.398-1.424c-.43-.243-1.02-.405-1.848-.405V2.137h-.988v1.198c-1.323.275-2.04 1.133-2.04 2.233 0 1.198.813 1.861 2.12 2.33.988.34 1.37.55 1.37 1.052z" fill="url(#paint0_linear_216_2542)"/><defs><linearGradient id="paint0_linear_216_2542" x1="20" y1="0" x2="20" y2="38" gradientUnits="userSpaceOnUse"><stop stop-color="#79E7CC"/><stop offset="0" stop-color="#3ABEBB"/></linearGradient></defs></svg>