<svg width="44" height="56" fill="none" xmlns="http://www.w3.org/2000/svg"><path d="M9.589 0c.126.102.28.183.373.309 2.196 2.947 4.402 5.887 6.57 8.854 1.235 1.694 2.018 3.594 2.275 5.684.464 3.788-1.148 7.107-4.414 9.07-4.356 2.618-10 1.387-12.884-2.796-1.112-1.61-1.573-3.418-1.502-5.364.082-2.264.804-4.331 2.073-6.181 1.176-1.715 2.452-3.36 3.688-5.033A678.324 678.324 0 018.861.388c.114-.152.286-.26.432-.388h.296zm6.622 16.954c.01-.375-.184-.622-.48-.669-.33-.05-.593.128-.678.464-.015.056-.018.114-.034.169-.12.425-.2.868-.373 1.272-.534 1.248-1.463 2.123-2.673 2.716-.369.181-.489.516-.323.834.158.304.495.397.849.226 1.112-.537 2.028-1.304 2.715-2.335a6.118 6.118 0 00.997-2.677z" fill="#016F9F"/><path d="M33.893 0c.126.102.28.183.374.309 2.195 2.947 4.402 5.887 6.569 8.854 1.236 1.694 2.019 3.594 2.276 5.684.464 3.788-1.149 7.107-4.414 9.07-4.356 2.618-10 1.387-12.884-2.796-1.112-1.61-1.573-3.418-1.502-5.364.081-2.264.804-4.331 2.073-6.181 1.176-1.715 2.452-3.36 3.688-5.033A672.183 672.183 0 0133.166.388c.114-.152.286-.26.432-.388h.295zm6.623 16.954c.01-.375-.184-.622-.48-.669-.33-.05-.593.128-.679.464-.014.056-.018.114-.033.169-.12.425-.2.868-.374 1.272-.533 1.248-1.462 2.123-2.672 2.716-.369.181-.49.516-.323.834.158.304.495.397.848.226 1.112-.537 2.03-1.304 2.716-2.335a6.118 6.118 0 00.997-2.677z" fill="#F29200"/><path d="M22.234 30.71c.126.101.28.182.373.308 2.196 2.947 4.402 5.888 6.57 8.855 1.236 1.693 2.018 3.594 2.275 5.684.464 3.788-1.148 7.106-4.414 9.07-4.356 2.618-10 1.386-12.884-2.796-1.111-1.61-1.572-3.418-1.502-5.365.082-2.263.804-4.33 2.073-6.18 1.176-1.715 2.453-3.36 3.689-5.033a676.548 676.548 0 013.092-4.155c.114-.152.287-.26.432-.388h.296zm6.623 16.954c.009-.375-.184-.623-.481-.669-.33-.051-.593.128-.678.464-.015.055-.018.114-.033.169-.12.425-.201.868-.374 1.271-.534 1.248-1.463 2.123-2.673 2.717-.368.18-.488.515-.323.834.158.304.495.397.849.226 1.112-.538 2.029-1.305 2.715-2.336a6.116 6.116 0 00.998-2.676z" fill="#2BB5B8"/></svg>