<svg width="36" height="37" fill="none" xmlns="http://www.w3.org/2000/svg"><path d="M18 36.398c9.941 0 18-8.06 18-18 0-9.942-8.059-18-18-18s-18 8.058-18 18c0 9.94 8.059 18 18 18z" fill="#F29100"/><path d="M19 26v-.247c0-1.666-.004-3.334.004-5 .002-.37.026-.743.077-1.108.143-1.004.652-1.548 1.58-1.66 1.024-.124 1.741.25 1.942 1.355.067.363.1.736.102 1.105.011 1.765.007 3.53.008 5.293v.23h3.316c.004-.047.01-.084.01-.122-.002-2.057.004-4.115-.01-6.172-.005-.743-.082-1.481-.298-2.198-.324-1.073-.969-1.845-2.065-2.19a5.167 5.167 0 00-2.05-.198c-.795.073-1.51.36-2.094.912-.237.223-.43.493-.661.763v-1.43h-3.173V26H19zm-5.421-.004V15.33h-3.3v10.665h3.3zm.269-14.083A1.924 1.924 0 0011.91 10 1.936 1.936 0 0010 11.925c.002 1.064.883 1.943 1.941 1.936 1.052-.007 1.914-.888 1.907-1.948z" fill="#fff"/><path d="M19 26h-3.312V15.332h3.173v1.43c.232-.27.425-.539.662-.762.584-.552 1.298-.84 2.093-.912a5.182 5.182 0 012.05.198c1.096.345 1.741 1.118 2.065 2.19.216.717.294 1.455.298 2.198.015 2.057.01 4.115.01 6.172 0 .038-.005.075-.01.123h-3.316v-.23c-.001-1.765.004-3.53-.007-5.294a6.389 6.389 0 00-.102-1.105c-.202-1.105-.918-1.479-1.943-1.355-.928.112-1.437.656-1.58 1.66a8.12 8.12 0 00-.076 1.108c-.008 1.666-.004 3.333-.004 5V26zm-5.421-.004h-3.3V15.33h3.3v10.665zm.269-14.083c.007 1.06-.855 1.941-1.907 1.948A1.947 1.947 0 0110 11.924 1.936 1.936 0 0111.91 10c1.06-.01 1.93.848 1.938 1.913z" fill="#fff"/></svg>