<svg width="32" height="33" fill="none" xmlns="http://www.w3.org/2000/svg"><g clip-path="url(#clip0_246_4070)"><path d="M31.467.997H.533A.533.533 0 000 1.53v30.933c0 .295.239.534.533.534h30.934a.533.533 0 00.533-.534V1.53a.533.533 0 00-.533-.533zM9.966 28.105l-2.003-1.053-2.004 1.053.383-2.231-1.62-1.58 2.24-.326 1-2.03 1.002 2.03 2.24.326-1.62 1.58.382 2.23zm-.383-10.467l.382 2.23-2.003-1.053L5.96 19.87l.382-2.231-1.62-1.58 2.24-.326 1.001-2.03 1.002 2.03 2.24.325-1.621 1.58zm0-8.045l.382 2.231-2.003-1.053-2.003 1.053.382-2.23-1.62-1.58 2.24-.326 1.001-2.03 1.002 2.03 2.24.325-1.621 1.58zm15.484 17.004h-12.8v-2.134h12.8v2.134zm0-8h-12.8v-2.134h12.8v2.134zm0-8h-12.8V8.463h12.8v2.134z" fill="#C4C4C4"/></g><defs><clipPath id="clip0_246_4070"><rect y=".997" width="32" height="32" rx="3" fill="#fff"/></clipPath></defs></svg>