<svg width="21" height="26" fill="none" xmlns="http://www.w3.org/2000/svg"><path d="M6.522 5.5c0-1.5 1.304-4 3.913-4m3.913 4c0-1.5-1.304-4-3.913-4" stroke="#F29100" stroke-width="2" stroke-linecap="round"/><path d="M2.18 7.435a1 1 0 01.998-.935h14.513a1 1 0 01.998.935l1.044 16a1 1 0 01-.998 1.065h-16.6a1 1 0 01-.998-1.065l1.043-16z" stroke="#F29100" stroke-width="2"/><path d="M14.348 9.5c0 2.209-1.752 4-3.913 4-2.161 0-3.913-1.791-3.913-4" stroke="#F29100" stroke-width="2" stroke-linecap="round"/></svg>