<svg width="67" height="62" fill="none" xmlns="http://www.w3.org/2000/svg"><g clip-path="url(#clip0_236_468)" fill="#424242"><path d="M4.581 19.5c-2.38 0-4.318 1.784-4.318 3.98v15.917c0 2.196 1.938 3.98 4.318 3.98S8.9 41.593 8.9 39.397V23.48c0-2.196-1.937-3.98-4.318-3.98zM62.155 7.562c-2.382 0-4.318 1.784-4.318 3.98v39.794c0 2.195 1.936 3.979 4.318 3.979 2.383 0 4.319-1.784 4.319-3.98V11.543c0-2.196-1.936-3.98-4.319-3.98zM13.217 22.797V40.08l4.318 1.194v3.521c0 2.654 1.856 4.951 4.618 5.713l12.954 3.583c1.914.54 4.03.235 5.726-.929 1.64-1.122 2.582-2.847 2.603-4.727l10.083 2.39V12.053L13.217 22.797zm25.909 25.577c0 1.291-1.332 2.293-2.78 1.908L23.394 46.7c-.92-.256-1.54-1.022-1.54-1.904v-2.328l17.273 4.776v1.131z"/></g><defs><clipPath id="clip0_236_468"><path fill="#fff" transform="translate(.263 .93)" d="M0 0h66.21v61.017H0z"/></clipPath></defs></svg>