<svg width="33" height="33" fill="none" xmlns="http://www.w3.org/2000/svg"><path d="M2.745 4.436v24.146h14.077c9.286 0 13.313-5.2 13.313-12.097 0-6.869-4.027-12.049-13.313-12.049H2.745z" fill="#fff"/><path d="M4.267 5.96h12.557c8.523 0 11.79 4.654 11.79 10.525 0 7.04-4.562 10.573-11.79 10.573H4.267V5.96zm1.217 1.217v18.665h11.34c6.847 0 10.572-3.19 10.572-9.357 0-6.337-4.038-9.309-10.572-9.309H5.484z" fill="#000"/><path d="M7.005 17.858h3.63v6.46h-3.63v-6.46zm1.815-1a2.256 2.256 0 100-4.512 2.256 2.256 0 000 4.512z" fill="#000"/><path d="M18.248 15.658v1.046h-2.586v-4.198h2.504v1.046h-1.459v.486h1.38v1.046h-1.38v.574h1.541zm.453 1.047l1.266-4.2h1.488l1.265 4.2h-1.089l-.237-.813h-1.368l-.238.813h-1.087zm1.631-1.858h.758l-.348-1.186h-.063l-.346 1.186zm2.914-2.342h1.047v3.153h1.549C25.416 9.936 20.916 8.7 16.823 8.7h-4.36v3.807h.645c1.177 0 1.907.798 1.907 2.082 0 1.325-.713 2.116-1.907 2.116h-.645v7.617h4.36c6.65 0 8.966-3.089 9.048-7.618h-2.626v-4.2zm-10.783 1.048v2.105h.646c.448 0 .862-.13.862-1.07 0-.918-.46-1.035-.862-1.035h-.646z" fill="#D50072"/></svg>