<svg width="1600" height="224" fill="none" xmlns="http://www.w3.org/2000/svg"><path d="M1450.59-228l223.9 190.111-139.01 74.441-205.11 23.32L1450.59-228z" fill="#45BABA"/><path d="M1523.01 340L1330.37 59.873l344-96.935L2267 249.784 1523.01 340z" fill="#89CBBE"/><path d="M1232.43 338.396l97.94-278.523 193.68 278.523h-291.62z" fill="#72C4BB"/><path d="M1330.37 59.873L674.413-47.871l775.577-178.525-119.62 286.269z" fill="#21A6B3"/><path d="M573.315 152.818L675.588-47.87 1330.37 59.873l-757.055 92.945z" fill="#29ADB6"/><path d="M979.801 338.396L573.315 152.819l757.055-92.946-96.67 278.523H979.801z" fill="#2BB5B8"/><path d="M623.301 338.396l-49.986-185.577 406.833 185.577H623.301z" fill="#3FB9BB"/><path d="M236.872-141.548L675.588-47.87 573.315 152.818 236.872-141.548z" fill="#0F7FA6"/><path d="M236.873-141.549l336.442 294.367-439.618 118.417 103.176-412.784z" fill="#1D9DB1"/><path d="M251.78 338.396l-118.083-67.16 439.619-118.417 50.403 185.577H251.78z" fill="#27AAB6"/><path d="M-77.285 148.872L-129 65.167l365.872-206.716-103.175 412.784-210.982-122.363z" fill="#0986AA"/><path d="M-77.57 219.996v-70.934l211.267 122.173-211.267-51.239z" fill="#1995AD"/><path d="M-77.57 338.396V219.661l211.267 51.575 3.98 67.16H-77.57z" fill="#1D9DB1"/><path d="M2002.79 121.836l19.84 157.399-499.61 59.996 479.77-217.395z" fill="#68C5B9"/></svg>