<svg width="110" height="512" fill="none" xmlns="http://www.w3.org/2000/svg"><g clip-path="url(#clip0_308_275)"><mask id="mask0_308_275" style="mask-type:alpha" maskUnits="userSpaceOnUse" x="-8" y="-341" width="84" height="853"><path transform="matrix(0 -1 -1 0 76 512)" fill="#C4C4C4" d="M0 0h853v84H0z"/></mask><g mask="url(#mask0_308_275)"><path d="M68.997 448.22L2.122 512.001-24.064 472.4l-7.97-58.635L68.998 448.22z" fill="#45BABA"/><path d="M-130.218 469.052l97.942-55.527L2.11 512l-132.329-39.839v-3.109z" fill="#89CBBE"/><path d="M-32.033 413.765L22.35 225.337 68.584 448.22l-100.617-34.455z" fill="#21A6B3"/><path d="M-64.931 199.15l87.281 26.186-54.384 188.428L-64.93 199.15z" fill="#29ADB6"/><path d="M38.449 104.081L22.35 225.336l-87.281-26.185 103.38-95.07z" fill="#0F7FA6"/><path d="M38.449 104.081l-103.38 95.07-41.778-124.937 145.158 29.867z" fill="#1D9DB1"/><path d="M-63.567 14.718L-34.216 0 38.45 104.08l-145.158-29.867 43.142-59.495z" fill="#0986AA"/></g></g><defs><clipPath id="clip0_308_275"><path fill="#fff" transform="matrix(0 -1 -1 0 110 512)" d="M0 0h512v178H0z"/></clipPath></defs></svg>