<svg version="1.1" id="Layer_1" xmlns="http://www.w3.org/2000/svg" x="0" y="0" viewBox="0 0 2500 540" xml:space="preserve"><style>.st0{fill:#1d9db1}.st1{fill:none;stroke:#fff;stroke-miterlimit:10}</style><path class="st0" d="M2275.3 278.7L2016 78.3l-.2-.1-896 189-.3-.1-1-.2.8.8-.1.2-.6-.6-503.5-98-.7-.6-.3 1L-.3 534.8l22.5 4.6 227 .1v-65L371 539.6l139.3.1 248.4.1.5-.1h1741.1v-160z"/><path class="st0" d="M249.3 539.7h121.9l-121.9-65z"/><path class="st1" d="M1119.5 267.1l-1-.2.8.8z"/><path fill="#0f7fa6" d="M1119.4 268l-.8-.7-503.5-98L1001.2 480z"/><path fill="#29adb6" d="M1001.3 479.7l875-100-757-112z"/><path fill="#21aab3" d="M1876.3 379.7L2016 78.3l-.2-.1-896 189-.3-.1-.2.6z"/><path fill="#33bfbb" d="M2275.3 278.7L2016 78.3l-139.7 301.4z"/><path fill="#2bb5b8" d="M1001.3 479.7l145.6 60h669.7l59.7-160z"/><path fill="#0986aa" d="M-.3 534.8l22.5 4.6 227 .1v-65L371 539.6l139.3.1 103.8-370z"/><path fill="#72c4bb" d="M1816.6 539.7h181.6l-121.9-160z"/><path fill="#25b2b6" d="M2275.3 278.7l-399 101 121.9 160h428.6l73-30.1-73 30.1h73.5v-160z"/><path fill="#27aab6" d="M758.8 539.7h261.3l-18.8-60z"/><path fill="#3fb9bb" d="M1020.1 539.7h126.8l-145.6-60z"/><path fill="#1995ad" d="M249.3 539.7h121.9l-121.9-65z"/><path class="st1" d="M615.1 169.3l-.7-.6-.3 1 .8-.5z"/><path class="st0" d="M615.1 169.3l-.2-.1-.8.5-103.8 370 248.4.1 242.5-59.8z"/></svg>