<svg xmlns="http://www.w3.org/2000/svg" width="528.567" height="546.321"><defs><style>.a{fill:#2cb5b5}.b{fill:#23b2b6}.c{fill:#26abb4}.d{fill:#1881a6}.e{fill:#2198ac}.f{fill:#23a0b0}.g{fill:#1b8aaa}.h{fill:#1a7fa7}.i{fill:#7ec7bb}.j{fill:#26afb5}.k{fill:#6bc2b9}.l{fill:#41b9b8}.m{fill:#1cb3b0}</style></defs><path class="a" d="M476.575 546.321L331.597 512.74l-80.709 29.955-92.103-68.482-22.218.07v-41.212h392v90.501l-51.992 22.749z"/><path class="b" d="M459.947 493.543l-128.35 19.197-12.581-63.184 140.931 43.987z"/><path class="c" d="M476.575 546.321L331.597 512.74l128.35-19.198 16.628 52.779z"/><path class="d" d="M331.597 512.74l-80.71 29.954 68.129-93.138 12.581 63.184z"/><path class="e" d="M136.568 457.693v-24.621h68.269l-46.051 41.141-22.218-16.52z"/><path class="f" d="M319.016 449.556l-68.128 93.139-9.723-109.623h48.381l.38.305 29.09 16.179z"/><path class="g" d="M158.785 474.213l46.051-41.141h36.329l9.723 109.623-92.103-68.482z"/><path class="h" d="M136.568 474.283v-16.59l22.218 16.52-22.218.07z"/><path class="i" d="M487.859 433.072h40.708v79.703l-68.62-19.232 27.912-60.471z"/><path class="j" d="M289.926 433.377l-.38-.306h35.335l-5.865 16.485-29.09-16.179z"/><path class="k" d="M439.073 433.072h48.786l-27.912 60.471-20.874-60.471z"/><path class="l" d="M476.575 546.321l-16.628-52.779 68.62 19.234v10.796l-51.992 22.749z"/><path class="m" d="M324.881 433.072h23.135l-29 16.484 5.865-16.484z"/><path class="a" d="M319.016 449.556l29-16.484h91.057l20.874 60.471-140.931-43.987zM0 80.094l61.095 167.593-13.93 101.062 85.275 98.948 4.222 26.516 16.349-2.647 24.263-3.929-13.186-81.441-7.017-43.339-9.345-57.716-6.825-42.153-4.468-27.599-17.588-108.627-9.423-58.199L101.559 0 23.015 12.717 12.376 14.44 0 80.094z"/><path class="b" d="M55.222 91.509l5.873 156.178 64.694 4.927L55.222 91.509z"/><path class="c" d="M0 80.094l61.095 167.593-5.873-156.178L0 80.094z"/><path class="d" d="M61.095 247.687L47.166 348.749l78.623-96.134-64.694-4.928z"/><path class="e" d="M153.011 471.565l24.263-3.928-13.186-81.442-31.648 61.501 20.571 23.869z"/><path class="f" d="M125.789 252.615l-78.624 96.134 109.906-5.892-9.345-57.716-.375-.404-21.562-32.122z"/><path class="g" d="M132.44 447.696l31.647-61.5-7.016-43.339-109.906 5.892 85.275 98.947z"/><path class="h" d="M136.645 474.262l18.236-2.953-22.458-23.61 4.222 26.563z"/><path class="i" d="M109.422 48.563L101.559 0 23.016 12.717l32.206 78.792 54.2-42.946z"/><path class="j" d="M147.352 284.736l.374.405-6.825-42.153-15.111 9.627 21.562 32.121z"/><path class="k" d="M118.845 106.762l-9.423-58.199-54.2 42.946 63.623 15.253z"/><path class="l" d="M0 80.094l55.222 11.415-32.207-78.792-10.639 1.723L0 80.094z"/><path class="m" d="M140.901 242.988l-4.468-27.599-10.644 37.226 15.112-9.627z"/><path class="a" d="M125.789 252.615l10.643-37.226-17.587-108.627L55.222 91.51l70.567 161.105z"/></svg>