<svg width="84" height="560" fill="none" xmlns="http://www.w3.org/2000/svg"><path d="M.841 488.731l43.066 70.074 17.71-42.973 6-63.873L.84 488.731z" fill="#45BABA"/><path d="M131.348 513.018L67.779 451.7 43.914 558.805l87.393-42.396.041-3.391z" fill="#89CBBE"/><path d="M132.27 423.07l-64.653 28.889 63.569 61.318 1.084-90.207z" fill="#72C4BB"/><path d="M67.617 451.96l-33.23-205.888L1.111 488.735l66.505-36.775z" fill="#21A6B3"/><path d="M92.028 218.208l-57.642 27.864 33.231 205.889 24.41-233.753z" fill="#29ADB6"/><path d="M133.214 344.565L92.028 218.207l-24.41 233.752 64.652-28.889.944-78.505z" fill="#2BB5B8"/><path d="M25.407 113.729l8.98 132.343 57.64-27.864-66.62-104.479z" fill="#0F7FA6"/><path d="M25.407 113.729l66.62 104.479 29.064-135.9-95.684 31.421z" fill="#1D9DB1"/><path d="M93.55 17.096L74.475.815 25.407 113.729l95.684-31.42L93.55 17.096z" fill="#0986AA"/></svg>