<svg width="40" height="84" fill="none" xmlns="http://www.w3.org/2000/svg"><path d="M-4.927 2L9.181 18.09a4.512 4.512 0 003.869 1.505l21.233-2.501c3.674-.43 6.263 3.543 4.346 6.737L27.731 42.139c-.769 1.268-.819 2.807-.222 4.172l8.945 19.414c1.55 3.373-1.44 7.04-5.038 6.202L10.559 67.21a4.54 4.54 0 00-4.01 1.075L-9.153 82.797c-2.697 2.525-7.133.803-7.465-2.852l-1.96-21.285c-.111-1.449-.978-2.788-2.279-3.502l-18.658-10.48c-3.214-1.82-3-6.544.396-8.008l19.693-8.42a4.512 4.512 0 002.599-3.237l4.172-20.988C-11.916.407-7.346-.817-4.926 2z" fill="url(#paint0_linear_216_2175)"/><defs><linearGradient id="paint0_linear_216_2175" x1="41.279" y1="28.425" x2="-39.679" y2="49.3" gradientUnits="userSpaceOnUse"><stop stop-color="#06688F"/><stop offset="1" stop-color="#0C87A9"/></linearGradient></defs></svg>