<svg width="168" height="220" fill="none" xmlns="http://www.w3.org/2000/svg"><g filter="url(#filter0_d_216_2134)"><path d="M124.903 124.497c-.052.052-.131.105-.183.183l.052.052-39.006 38.98L53.478 196v-53.119l-17.706-17.707c-.235-.234-.495-.442-.755-.677-24.816-24.815-24.816-65.07 0-89.886 24.815-24.815 65.071-24.815 89.886 0 24.815 24.815 24.815 65.071 0 89.886z" fill="#fff"/><path d="M124.304 124.402l-.18.271-38.711 38.685h0l-31.435 31.435v-52.119l-.146-.147-17.707-17.706c-.164-.165-.354-.329-.53-.482-.082-.071-.162-.14-.234-.205-24.61-24.62-24.607-64.553.01-89.17 24.619-24.619 64.558-24.619 89.178 0 24.62 24.62 24.62 64.56 0 89.18l-.017.015-.009.007-.046.041a1.09 1.09 0 00-.173.195z" stroke="#F2F2F2"/></g><path d="M56.508 59.655a54.235 54.235 0 002.88-1.296 44.21 44.21 0 002.976-1.632 45.447 45.447 0 002.736-1.872 19.502 19.502 0 002.4-2.112h4.992v33.264h-7.153V62.055c-.96.64-2.032 1.232-3.215 1.776a47.69 47.69 0 01-3.457 1.344l-2.16-5.52zm49.553 9.648c0 5.6-1.072 9.904-3.216 12.912-2.112 2.976-5.04 4.464-8.784 4.464-3.744 0-6.688-1.488-8.832-4.464-2.112-3.008-3.168-7.312-3.168-12.912 0-2.784.272-5.248.816-7.392.576-2.144 1.392-3.952 2.448-5.424 1.056-1.472 2.32-2.592 3.792-3.36 1.472-.768 3.12-1.152 4.944-1.152 3.744 0 6.672 1.504 8.784 4.512 2.144 2.976 3.216 7.248 3.216 12.816zm-7.296 0c0-1.664-.08-3.168-.24-4.512-.16-1.376-.416-2.56-.768-3.552-.352-.992-.832-1.76-1.44-2.304-.608-.544-1.36-.816-2.256-.816-.896 0-1.648.272-2.256.816-.576.544-1.056 1.312-1.44 2.304-.352.992-.608 2.176-.768 3.552-.16 1.344-.24 2.848-.24 4.512 0 1.664.08 3.184.24 4.56.16 1.376.416 2.56.768 3.552.384.992.864 1.76 1.44 2.304.608.544 1.36.816 2.256.816.896 0 1.648-.272 2.256-.816.608-.544 1.088-1.312 1.44-2.304.352-.992.608-2.176.768-3.552.16-1.376.24-2.896.24-4.56zM55.2 104.791c0-1.12.168-2.096.504-2.928.352-.848.808-1.552 1.368-2.112a5.67 5.67 0 011.92-1.272 6.142 6.142 0 012.256-.432c1.792 0 3.208.552 4.248 1.656 1.04 1.088 1.56 2.696 1.56 4.824 0 .208-.008.44-.024.696-.016.24-.032.456-.048.648h-8.112c.08.736.424 1.32 1.032 1.752.608.432 1.424.648 2.448.648.656 0 1.296-.056 1.92-.168.64-.128 1.16-.28 1.56-.456l.48 2.904a4.938 4.938 0 01-.768.288c-.32.096-.68.176-1.08.24-.384.08-.8.144-1.248.192-.448.048-.896.072-1.344.072-1.136 0-2.128-.168-2.976-.504-.832-.336-1.528-.792-2.088-1.368a5.808 5.808 0 01-1.224-2.088 8.46 8.46 0 01-.384-2.592zm8.4-1.368a3.353 3.353 0 00-.168-.888 1.98 1.98 0 00-.408-.768 2.011 2.011 0 00-.696-.552c-.272-.144-.616-.216-1.032-.216-.4 0-.744.072-1.032.216a2.005 2.005 0 00-.72.528 2.567 2.567 0 00-.456.792 5.53 5.53 0 00-.216.888H63.6zm16.992 7.152c-.608.176-1.392.336-2.352.48-.96.16-1.968.24-3.024.24-1.072 0-1.968-.144-2.688-.432-.704-.288-1.264-.688-1.68-1.2a4.837 4.837 0 01-.888-1.872 10.004 10.004 0 01-.264-2.376v-7.032h3.576v6.6c0 1.152.152 1.984.456 2.496.304.512.872.768 1.704.768.256 0 .528-.008.816-.024.288-.032.544-.064.768-.096v-9.744h3.576v12.192zm10.965-9.024c-.32-.08-.696-.16-1.128-.24a6.41 6.41 0 00-1.392-.144 5.64 5.64 0 00-.816.072 4.05 4.05 0 00-.696.12v9.648h-3.576V99.055c.64-.224 1.392-.432 2.256-.624.88-.208 1.856-.312 2.928-.312.192 0 .424.016.696.048.272.016.544.048.816.096.272.032.544.08.816.144.272.048.504.112.696.192l-.6 2.952zm14.09 3.12c0 .992-.144 1.904-.432 2.736a6.06 6.06 0 01-1.248 2.112 5.668 5.668 0 01-1.968 1.344c-.752.32-1.6.48-2.544.48-.928 0-1.776-.16-2.544-.48a5.723 5.723 0 01-1.944-1.344 6.367 6.367 0 01-1.272-2.112c-.304-.832-.456-1.744-.456-2.736 0-.992.152-1.896.456-2.712.32-.816.752-1.512 1.296-2.088a5.982 5.982 0 011.968-1.344c.768-.32 1.6-.48 2.496-.48.912 0 1.744.16 2.496.48.768.32 1.424.768 1.968 1.344a6.105 6.105 0 011.272 2.088c.304.816.456 1.72.456 2.712zm-3.648 0c0-1.104-.224-1.968-.672-2.592-.432-.64-1.056-.96-1.872-.96-.816 0-1.448.32-1.896.96-.448.624-.672 1.488-.672 2.592s.224 1.984.672 2.64c.448.64 1.08.96 1.896.96.816 0 1.44-.32 1.872-.96.448-.656.672-1.536.672-2.64z" fill="#68C5B9"/><defs><filter id="filter0_d_216_2134" x=".405" y="0" width="167.108" height="220" filterUnits="userSpaceOnUse" color-interpolation-filters="sRGB"><feFlood flood-opacity="0" result="BackgroundImageFix"/><feColorMatrix in="SourceAlpha" values="0 0 0 0 0 0 0 0 0 0 0 0 0 0 0 0 0 0 127 0" result="hardAlpha"/><feOffset dx="4" dy="4"/><feGaussianBlur stdDeviation="10"/><feColorMatrix values="0 0 0 0 0.0431373 0 0 0 0 0.196078 0 0 0 0 0.278431 0 0 0 0.2 0"/><feBlend in2="BackgroundImageFix" result="effect1_dropShadow_216_2134"/><feBlend in="SourceGraphic" in2="effect1_dropShadow_216_2134" result="shape"/></filter></defs></svg>