<svg width="207" height="104" fill="none" xmlns="http://www.w3.org/2000/svg"><path d="M21.072 30.232c.32.224.4.608.24 1.152-.128.512-.432 1.072-.912 1.68-.448.608-1.04 1.2-1.776 1.776a9.424 9.424 0 01-2.448 1.296c-.768.288-1.568.544-2.4.768-.832.192-1.696.304-2.592.336A11.737 11.737 0 018.448 37c-.96-.192-1.936-.56-2.928-1.104-2.08-1.088-3.456-2.384-4.128-3.888-.672-1.504-.88-3.056-.624-4.656.288-1.6.912-3.136 1.872-4.608.96-1.504 2.032-2.768 3.216-3.792-1.728-.768-2.928-1.728-3.6-2.88-.672-1.184-.976-2.416-.912-3.696.064-1.312.416-2.608 1.056-3.888a15.26 15.26 0 012.448-3.504c.992-1.056 2.048-1.888 3.168-2.496 1.152-.64 2.24-.928 3.264-.864.96.064 1.936.304 2.928.72 1.024.384 1.92.832 2.688 1.344.768.512 1.328 1.04 1.68 1.584.352.512.368.928.048 1.248-.192.192-.512.208-.96.048a26.79 26.79 0 00-1.632-.672 20.002 20.002 0 00-2.4-.72c-.896-.224-1.904-.304-3.024-.24-1.728.096-2.96.704-3.696 1.824-.704 1.088-1.12 2.496-1.248 4.224-.064 1.056.048 1.952.336 2.688.32.736.672 1.328 1.056 1.776.416.448.8.768 1.152.96.384.16.624.208.72.144a17.26 17.26 0 013.648-2.352c1.312-.608 2.544-.976 3.696-1.104 1.152-.16 2.144-.048 2.976.336.832.352 1.344 1.04 1.536 2.064-.032.544-.288 1.04-.768 1.488-.48.448-1.088.848-1.824 1.2s-1.536.672-2.4.96c-.864.288-1.664.528-2.4.72-.736.192-1.36.352-1.872.48-.512.096-.784.16-.816.192A28.366 28.366 0 008.208 22.6c-.8.768-1.392 1.744-1.776 2.928-.352 1.088-.368 2.064-.048 2.928a4.62 4.62 0 001.728 2.112c.832.512 1.84.864 3.024 1.056 1.184.16 2.464.096 3.84-.192A6.958 6.958 0 0016.56 31a18.225 18.225 0 011.728-.576 8.691 8.691 0 011.584-.384c.512-.096.912-.032 1.2.192zM17.28 15.688c-.736-.448-1.472-.464-2.208-.048-.736.416-1.552 1.04-2.448 1.872.416-.032.928-.112 1.536-.24.608-.16 1.168-.336 1.68-.528.544-.192.96-.384 1.248-.576.32-.224.384-.384.192-.48zm5.412 8.736c.096-.768.224-1.504.384-2.208.16-.704.352-1.36.576-1.968.256-.608.528-1.12.816-1.536.288-.448.608-.768.96-.96.352-.16.8-.32 1.344-.48.576-.192 1.104-.256 1.584-.192.512.032.896.256 1.152.672.256.384.24 1.072-.048 2.064a18.55 18.55 0 00-.336 2.064c-.096.8-.16 1.68-.192 2.64 0 .928.032 1.872.096 2.832.064.928.176 1.792.336 2.592.192.8.432 1.488.72 2.064.32.544.704.896 1.152 1.056.928.32 1.728.288 2.4-.096.672-.384 1.296-.976 1.872-1.776.224-.352.496-.64.816-.864.32-.256.576-.368.768-.336.224.032.336.24.336.624s-.208 1.024-.624 1.92a8.91 8.91 0 01-1.728 2.448 7.902 7.902 0 01-2.304 1.68 7.556 7.556 0 01-2.688.672c-.96.064-1.92-.08-2.88-.432-.96-.32-1.744-.768-2.352-1.344-.608-.608-1.088-1.408-1.44-2.4-.32-.992-.544-2.192-.672-3.6-.096-1.44-.112-3.152-.048-5.136zm2.16-17.136c.352-.704.88-1.136 1.584-1.296a4.275 4.275 0 012.112.048 3.917 3.917 0 011.776 1.008c.512.448.72.976.624 1.584-.128.736-.544 1.376-1.248 1.92-.672.512-1.696.704-3.072.576a1.917 1.917 0 01-1.056-.432 3.363 3.363 0 01-.72-.912 3.285 3.285 0 01-.336-1.248c0-.448.112-.864.336-1.248zM35.153 19.48c.192-.32.464-.608.816-.864a7.566 7.566 0 011.152-.72 5.215 5.215 0 011.2-.48c.416-.128.752-.192 1.008-.192.128 0 .224.128.288.384.096.256.176.592.24 1.008.096.416.16.896.192 1.44l.096 1.584c.064 1.28.08 2.736.048 4.368.416-.832.864-1.648 1.344-2.448.416-.672.896-1.36 1.44-2.064a12.17 12.17 0 011.68-1.872 6.095 6.095 0 011.776-1.104 4.422 4.422 0 012.016-.288c.672.032 1.312.272 1.92.72.64.448 1.2 1.12 1.68 2.016.32.608.56 1.376.72 2.304.16.896.272 1.856.336 2.88.096.992.176 2 .24 3.024.096 1.024.24 1.968.432 2.832.224.864.512 1.6.864 2.208a2.52 2.52 0 001.632 1.152c.576.16 1.136.176 1.68.048.576-.16 1.104-.352 1.584-.576a39.99 39.99 0 011.296-.624c.384-.192.656-.24.816-.144.128.128.048.48-.24 1.056-.256.576-.704 1.168-1.344 1.776-.608.608-1.392 1.12-2.352 1.536-.928.448-2 .592-3.216.432-2.4-.32-4.128-1.552-5.184-3.696C48.257 33 47.65 30.168 47.49 26.68c-.064-1.248-.224-2.176-.48-2.784-.224-.608-.528-.928-.912-.96-.384-.032-.832.192-1.344.672-.48.448-1.008 1.104-1.584 1.968-.672.992-1.168 1.984-1.488 2.976-.32.992-.544 1.92-.672 2.784-.096.864-.16 1.632-.192 2.304-.032.672-.112 1.168-.24 1.488-.16.352-.496.592-1.008.72a6.92 6.92 0 01-1.68.192 7.944 7.944 0 01-1.728-.192c-.544-.128-.928-.288-1.152-.48-.128-.128-.24-.576-.336-1.344-.064-.8-.112-1.744-.144-2.832-.032-1.12-.048-2.304-.048-3.552.032-1.28.064-2.48.096-3.6.064-1.152.144-2.144.24-2.976.096-.832.208-1.36.336-1.584zm36.096.528c.192-2.144.352-4.16.48-6.048.096-1.632.176-3.248.24-4.848.064-1.6.064-2.816 0-3.648-.064-.8.112-1.536.528-2.208a8.02 8.02 0 011.536-1.728A7.446 7.446 0 0175.761.424c.576-.256.992-.384 1.248-.384s.4.64.432 1.92c.064 1.28.064 2.944 0 4.992a321.174 321.174 0 01-.192 6.864c-.064 2.56-.08 5.136-.048 7.728.032 2.4.176 4.352.432 5.856.256 1.504.576 2.688.96 3.552.416.832.848 1.424 1.296 1.776.448.352.88.592 1.296.72.416.096.768.16 1.056.192.288.032.48.144.576.336.128.288.016.656-.336 1.104-.32.448-.816.832-1.488 1.152-.64.32-1.408.496-2.304.528-.896 0-1.84-.272-2.832-.816-.832-.448-1.456-1.04-1.872-1.776-.416-.768-.704-1.52-.864-2.256a9.907 9.907 0 01-.24-2.592 14.804 14.804 0 01-2.496 3.36c-.416.416-.88.816-1.392 1.2a9.738 9.738 0 01-1.68 1.008 9.5 9.5 0 01-1.968.672 7.455 7.455 0 01-2.256.144c-.864-.064-1.648-.4-2.352-1.008-.672-.64-1.248-1.424-1.728-2.352a13.603 13.603 0 01-1.008-3.168 16.216 16.216 0 01-.192-3.504 11.61 11.61 0 01.672-3.36c.384-1.088.944-2.016 1.68-2.784.544-.544 1.12-.96 1.728-1.248a5.623 5.623 0 011.824-.528 6.119 6.119 0 011.872 0 9.72 9.72 0 011.776.336c1.28.384 2.576 1.024 3.888 1.92zm-7.488 4.32a10.13 10.13 0 00-.576 2.448c-.064.832-.08 1.6-.048 2.304.064.704.176 1.296.336 1.776.16.48.352.736.576.768.448.128.912.032 1.392-.288.512-.32 1.184-.976 2.016-1.968.384-.512.768-1.136 1.152-1.872.416-.736.752-1.456 1.008-2.16.288-.704.464-1.328.528-1.872s-.016-.864-.24-.96c-.256-.096-.672-.192-1.248-.288a6.494 6.494 0 00-1.776-.048 5.037 5.037 0 00-1.824.576c-.576.288-1.008.816-1.296 1.584zm21.134-5.664a7.6 7.6 0 011.776-2.256 9.562 9.562 0 012.4-1.536c.897-.416 1.825-.72 2.785-.912a15.148 15.148 0 012.88-.288c.96.064 1.775.384 2.447.96.704.544 1.2 1.264 1.488 2.16.288.864.336 1.84.144 2.928-.16 1.088-.623 2.192-1.391 3.312-.833 1.216-1.729 2.128-2.689 2.736-.927.608-1.791 1.04-2.591 1.296-.928.32-1.84.464-2.737.432-.031 1.216.097 2.256.385 3.12.127.384.272.752.431 1.104.192.32.433.608.72.864.288.256.64.448 1.056.576.416.096.897.096 1.44 0 1.153-.192 2.08-.608 2.785-1.248.736-.672 1.343-1.344 1.823-2.016.48-.672.865-1.248 1.153-1.728.32-.512.623-.704.912-.576.352.16.528.56.528 1.2.032.64-.112 1.392-.432 2.256-.32.864-.8 1.76-1.44 2.688a8.497 8.497 0 01-2.353 2.304c-.96.64-2.064 1.072-3.312 1.296-1.247.256-2.64.144-4.175-.336-1.248-.384-2.288-.992-3.12-1.824a9.404 9.404 0 01-1.969-2.88c-.48-1.088-.8-2.256-.96-3.504a17.91 17.91 0 01-.096-3.696c.129-1.248.368-2.432.72-3.552.385-1.12.849-2.08 1.392-2.88zm4.465 5.232a7.09 7.09 0 001.391-.384c.448-.16.928-.4 1.44-.72.544-.32 1.12-.768 1.728-1.344.577-.544.96-1.072 1.153-1.584.224-.512.352-.944.383-1.296a2.31 2.31 0 00-.192-1.152c-.448-.128-.928-.128-1.44 0-.447.128-.944.384-1.487.768-.544.384-1.105.992-1.68 1.824-.449.64-.769 1.216-.96 1.728-.192.48-.32.88-.385 1.2-.064.384-.048.704.048.96zm27.395 4.416c-.16.192-.224.592-.192 1.2.064.608.16 1.328.288 2.16.128.832.256 1.728.384 2.688.16.96.24 1.888.24 2.784 0 .896-.032 1.664-.096 2.304a11.06 11.06 0 01-.24 1.872 9.955 9.955 0 01-.432 1.68c-.16.576-.368 1.216-.624 1.92a19.362 19.362 0 01-1.152 2.448 9.095 9.095 0 01-1.488 1.968 7.192 7.192 0 01-1.92 1.44c-.704.384-1.536.672-2.496.864-1.856.256-3.264.08-4.224-.528-.96-.608-1.632-1.472-2.016-2.592-.352-1.088-.48-2.336-.384-3.744.128-1.408.32-2.768.576-4.08a19.494 19.494 0 012.352-6.96c1.248-2.176 2.944-3.984 5.088-5.424a14.845 14.845 0 00-1.056-3.648 58.832 58.832 0 00-1.44-3.36 66.826 66.826 0 01-1.2-2.784c-.32-.8-.384-1.424-.192-1.872.352-.256.768-.4 1.248-.432a4.228 4.228 0 011.536.192 7.24 7.24 0 011.584.576c.512.224.944.464 1.296.72.448.448.832.992 1.152 1.632.32.608.592 1.264.816 1.968.256.704.464 1.424.624 2.16.192.736.384 1.408.576 2.016.128-.064.432-.16.912-.288.48-.16 1.04-.32 1.68-.48.672-.192 1.36-.352 2.064-.48.736-.16 1.408-.256 2.016-.288.64-.032 1.152.016 1.536.144.416.128.624.368.624.72s-.32.672-.96.96c-.64.256-1.392.528-2.256.816-.832.256-1.664.528-2.496.816-.8.256-1.376.56-1.728.912zm-9.552 17.664c.704.096 1.328-.032 1.872-.384a4.807 4.807 0 001.392-1.392 6.533 6.533 0 00.864-1.92 11.73 11.73 0 00.48-1.968c.096-.352.16-.912.192-1.68.064-.736.064-1.504 0-2.304-.032-.832-.128-1.6-.288-2.304-.128-.736-.32-1.232-.576-1.488-.704.416-1.376 1.024-2.016 1.824-.64.8-1.2 1.68-1.68 2.64-.48.928-.88 1.904-1.2 2.928-.288 1.024-.464 1.952-.528 2.784-.064.864.016 1.584.24 2.16.256.608.672.976 1.248 1.104zm2.496-33.552a3.626 3.626 0 00-.96-.192 12.533 12.533 0 01-1.056-.24 4.486 4.486 0 01-.96-.48 1.6 1.6 0 01-.576-.864c-.128-.832-.096-1.456.096-1.872.192-.416.464-.688.816-.816.384-.128.8-.128 1.248 0 .48.096.944.272 1.392.528.48.256.896.544 1.248.864.384.32.672.624.864.912.192.256.256.528.192.816a1.547 1.547 0 01-.432.768c-.224.224-.512.4-.864.528-.32.128-.656.144-1.008.048zm25.587 4.272c-.096.416-.368.768-.816 1.056-.448.256-.96.528-1.536.816a33.06 33.06 0 00-1.776.96 4.912 4.912 0 00-1.536 1.392c-.64.928-1.088 2.032-1.344 3.312a18.843 18.843 0 00-.384 3.696c.032 1.152.176 2.16.432 3.024.288.832.64 1.248 1.056 1.248.512 0 1.04-.24 1.584-.72a9.287 9.287 0 001.536-1.632c.448-.64.816-1.28 1.104-1.92.288-.672.432-1.184.432-1.536 0-.352-.016-.832-.048-1.44a18.261 18.261 0 010-1.872c.064-.608.16-1.136.288-1.584.16-.448.416-.688.768-.72a7.638 7.638 0 001.248-.24c.512-.128.992-.144 1.44-.048.448.096.8.416 1.056.96.288.512.4 1.408.336 2.688-.096 2.592.032 4.56.384 5.904.352 1.312 1.04 2.08 2.064 2.304.704.128 1.328-.032 1.872-.48a10.253 10.253 0 001.536-1.584 47.77 47.77 0 001.152-1.536c.32-.48.576-.672.768-.576.224.096.304.496.24 1.2s-.304 1.504-.72 2.4c-.416.864-1.04 1.744-1.872 2.64-.8.864-1.84 1.536-3.12 2.016-.672.256-1.296.384-1.872.384-.576 0-1.104-.08-1.584-.24a4.005 4.005 0 01-1.2-.672 6.805 6.805 0 01-.96-.96c-.64-.8-1.152-1.792-1.536-2.976a6.184 6.184 0 01-1.344 2.016c-.48.512-1.104.992-1.872 1.44-.768.416-1.712.656-2.832.72-1.12.032-2.176-.32-3.168-1.056s-1.792-1.728-2.4-2.976c-.576-1.248-.896-2.688-.96-4.32-.032-1.664.336-3.408 1.104-5.232.512-1.184 1.184-2.192 2.016-3.024a11.816 11.816 0 012.64-2.016c.96-.544 1.904-.928 2.832-1.152.96-.256 1.808-.4 2.544-.432.768-.032 1.376.032 1.824.192.48.128.688.32.624.576zm23.531 0c-.096.416-.368.768-.816 1.056-.448.256-.96.528-1.536.816a33.06 33.06 0 00-1.776.96 4.912 4.912 0 00-1.536 1.392c-.64.928-1.088 2.032-1.344 3.312a18.843 18.843 0 00-.384 3.696c.032 1.152.176 2.16.432 3.024.288.832.64 1.248 1.056 1.248.512 0 1.04-.24 1.584-.72a9.287 9.287 0 001.536-1.632c.448-.64.816-1.28 1.104-1.92.288-.672.432-1.184.432-1.536 0-.352-.016-.832-.048-1.44a18.261 18.261 0 010-1.872c.064-.608.16-1.136.288-1.584.16-.448.416-.688.768-.72a7.638 7.638 0 001.248-.24c.512-.128.992-.144 1.44-.048.448.096.8.416 1.056.96.288.512.4 1.408.336 2.688-.096 2.592.032 4.56.384 5.904.352 1.312 1.04 2.08 2.064 2.304.704.128 1.328-.032 1.872-.48a10.253 10.253 0 001.536-1.584 47.77 47.77 0 001.152-1.536c.32-.48.576-.672.768-.576.224.096.304.496.24 1.2s-.304 1.504-.72 2.4c-.416.864-1.04 1.744-1.872 2.64-.8.864-1.84 1.536-3.12 2.016-.672.256-1.296.384-1.872.384-.576 0-1.104-.08-1.584-.24a4.005 4.005 0 01-1.2-.672 6.805 6.805 0 01-.96-.96c-.64-.8-1.152-1.792-1.536-2.976a6.184 6.184 0 01-1.344 2.016c-.48.512-1.104.992-1.872 1.44-.768.416-1.712.656-2.832.72-1.12.032-2.176-.32-3.168-1.056s-1.792-1.728-2.4-2.976c-.576-1.248-.896-2.688-.96-4.32-.032-1.664.336-3.408 1.104-5.232.512-1.184 1.184-2.192 2.016-3.024a11.816 11.816 0 012.64-2.016c.96-.544 1.904-.928 2.832-1.152.96-.256 1.808-.4 2.544-.432.768-.032 1.376.032 1.824.192.48.128.688.32.624.576zm8.64 1.536c-.352-.192-.672-.304-.96-.336a7.04 7.04 0 00-.768-.048 3.29 3.29 0 01-.624-.048c-.192-.064-.352-.224-.48-.48-.096-.224.064-.528.48-.912.384-.384.912-.704 1.584-.96s1.424-.352 2.256-.288c.832.032 1.632.352 2.4.96.672.576 1.216 1.136 1.632 1.68.448.512.8.976 1.056 1.392.288.48.496.944.624 1.392a15.553 15.553 0 012.784-2.16c.832-.512 1.76-.928 2.784-1.248a5.29 5.29 0 013.072-.048c.256.096.368.304.336.624 0 .288-.128.608-.384.96-.224.352-.544.688-.96 1.008-.416.32-.912.544-1.488.672-1.12.256-2.016.736-2.688 1.44a7.506 7.506 0 00-1.488 2.496 11.286 11.286 0 00-.672 3.024 33.945 33.945 0 00-.144 3.072c.032 2.08-.256 3.632-.864 4.656-.608.992-1.424 1.52-2.448 1.584-1.184.064-2.064-.48-2.64-1.632-.576-1.152-.864-3.104-.864-5.856.032-1.728.048-3.232.048-4.512 0-1.28-.048-2.352-.144-3.216-.096-.896-.256-1.6-.48-2.112-.224-.512-.544-.88-.96-1.104zm28.356-4.608c.128.256.112.464-.048.624-.16.128-.4.272-.72.432-.288.128-.624.304-1.008.528-.384.192-.752.48-1.104.864-.352.384-.656.88-.912 1.488-.224.608-.336 1.376-.336 2.304a5.355 5.355 0 00.624 2.688c.48.864 1.056 1.712 1.728 2.544.672.8 1.408 1.6 2.208 2.4.8.768 1.52 1.568 2.16 2.4.64.8 1.136 1.632 1.488 2.496.384.832.512 1.696.384 2.592-.16.896-.672 1.648-1.536 2.256-.832.64-1.856 1.12-3.072 1.44-1.216.352-2.528.544-3.936.576a16.047 16.047 0 01-3.984-.384c-1.216-.256-2.272-.672-3.168-1.248-.896-.576-1.456-1.312-1.68-2.208-.352-1.312-.448-2.416-.288-3.312.128-.896.384-1.632.768-2.208.384-.608.816-1.072 1.296-1.392.48-.352.896-.624 1.248-.816.736-.416 1.216-.416 1.44 0 .256.416.112 1.072-.432 1.968-.256.448-.32.96-.192 1.536.128.544.416 1.072.864 1.584.48.48 1.072.896 1.776 1.248.736.352 1.568.544 2.496.576a6.315 6.315 0 001.728-.144c.608-.16 1.104-.384 1.488-.672.384-.32.608-.688.672-1.104.096-.448-.064-.944-.48-1.488s-1.136-1.232-2.16-2.064a73.65 73.65 0 01-3.168-2.736 26.473 26.473 0 01-2.832-3.216c-.8-1.152-1.2-2.304-1.2-3.456 0-2.272.4-3.936 1.2-4.992.832-1.056 2.16-1.744 3.984-2.064.896-.16 1.632-.224 2.208-.192.576 0 1.024.064 1.344.192.352.128.608.288.768.48.16.16.288.32.384.48zM22.224 79.48c.704-.288 1.248-.416 1.632-.384.384.032.624.16.72.384.096.192.048.448-.144.768-.16.32-.432.624-.816.912-.32.224-.72.528-1.2.912-.448.384-.928.8-1.44 1.248l-1.44 1.248c-.448.416-.832.752-1.152 1.008.224 1.504.352 3.024.384 4.56a25.133 25.133 0 01-.288 4.464c-.224 1.44-.592 2.752-1.104 3.936-.512 1.216-1.2 2.208-2.064 2.976-1.216 1.088-2.448 1.712-3.696 1.872-1.248.16-2.352-.048-3.312-.624s-1.712-1.472-2.256-2.688c-.544-1.184-.704-2.592-.48-4.224.256-1.664.768-3.136 1.536-4.416.8-1.28 1.632-2.352 2.496-3.216a18.462 18.462 0 013.312-2.64 13.159 13.159 0 00-.192-1.056 14.463 14.463 0 00-.336-1.44c-.16-.608-.368-1.376-.624-2.304a8.126 8.126 0 00-.624-1.536 9.608 9.608 0 00-.672-1.296c-.288-.416-.56-.784-.816-1.104a14.228 14.228 0 01-1.584 1.536c-.448.384-.944.736-1.488 1.056-.544.288-1.056.432-1.536.432-.512 0-1.088-.272-1.728-.816-.64-.544-1.216-1.264-1.728-2.16-.48-.896-.864-1.92-1.152-3.072a9.445 9.445 0 01-.096-3.552c.224-1.216.512-2.192.864-2.928.352-.736.736-1.312 1.152-1.728.416-.448.864-.768 1.344-.96a8.21 8.21 0 011.44-.432c.704-.128 1.536-.032 2.496.288.992.32 1.92.736 2.784 1.248.896.48 1.648.992 2.256 1.536.64.512.944.912.912 1.2-.032.288-.384.4-1.056.336l-2.256-.336a16.392 16.392 0 00-2.496-.192c-.8 0-1.36.256-1.68.768-.32.512-.576 1.12-.768 1.824A12.22 12.22 0 004.944 73c-.032.704.016 1.36.144 1.968.128.576.368 1.008.72 1.296.192.16.448.112.768-.144a69.32 69.32 0 001.2-1.008c.448-.416.944-.8 1.488-1.152a3.623 3.623 0 011.728-.672c.64-.096 1.296.064 1.968.48.672.384 1.36 1.152 2.064 2.304a29.93 29.93 0 011.296 2.352c.48.864.896 2.112 1.248 3.744.832-.512 1.616-.992 2.352-1.44.736-.48 1.504-.896 2.304-1.248zm-9.888 17.616c.192-.544.304-1.248.336-2.112.064-.832.096-1.664.096-2.496-.032-.96-.08-1.968-.144-3.024a13.588 13.588 0 00-1.776 1.824 9.35 9.35 0 00-1.2 1.92 4.873 4.873 0 00-.384 2.352c.064.8.24 1.376.528 1.728.288.384.592.592.912.624.352.064.672 0 .96-.192.32-.16.544-.368.672-.624zm8.669-30.432a7.6 7.6 0 011.776-2.256 9.562 9.562 0 012.4-1.536c.896-.416 1.824-.72 2.784-.912a15.148 15.148 0 012.88-.288c.96.064 1.776.384 2.448.96.704.544 1.2 1.264 1.488 2.16.288.864.336 1.84.144 2.928-.16 1.088-.624 2.192-1.392 3.312-.832 1.216-1.728 2.128-2.688 2.736-.928.608-1.792 1.04-2.592 1.296-.928.32-1.84.464-2.736.432-.032 1.216.096 2.256.384 3.12.128.384.272.752.432 1.104.192.32.432.608.72.864s.64.448 1.056.576c.416.096.896.096 1.44 0 1.152-.192 2.08-.608 2.784-1.248.736-.672 1.344-1.344 1.824-2.016.48-.672.864-1.248 1.152-1.728.32-.512.624-.704.912-.576.352.16.528.56.528 1.2.032.64-.112 1.392-.432 2.256-.32.864-.8 1.76-1.44 2.688a8.497 8.497 0 01-2.352 2.304c-.96.64-2.064 1.072-3.312 1.296-1.248.256-2.64.144-4.176-.336-1.248-.384-2.288-.992-3.12-1.824a9.404 9.404 0 01-1.968-2.88c-.48-1.088-.8-2.256-.96-3.504a17.91 17.91 0 01-.096-3.696c.128-1.248.368-2.432.72-3.552.384-1.12.848-2.08 1.392-2.88zm4.464 5.232a7.09 7.09 0 001.392-.384c.448-.16.928-.4 1.44-.72.544-.32 1.12-.768 1.728-1.344.576-.544.96-1.072 1.152-1.584.224-.512.352-.944.384-1.296a2.31 2.31 0 00-.192-1.152c-.448-.128-.928-.128-1.44 0-.448.128-.944.384-1.488.768s-1.104.992-1.68 1.824c-.448.64-.768 1.216-.96 1.728-.192.48-.32.88-.384 1.2-.064.384-.048.704.048.96zm24.515-10.272c.128.256.112.464-.047.624-.16.128-.4.272-.72.432-.288.128-.624.304-1.008.528-.385.192-.753.48-1.105.864s-.655.88-.911 1.488c-.224.608-.337 1.376-.337 2.304a5.355 5.355 0 00.624 2.688c.48.864 1.056 1.712 1.729 2.544.671.8 1.407 1.6 2.207 2.4.8.768 1.52 1.568 2.16 2.4.64.8 1.136 1.632 1.489 2.496.384.832.512 1.696.384 2.592-.16.896-.672 1.648-1.536 2.256-.832.64-1.856 1.12-3.072 1.44-1.217.352-2.529.544-3.937.576a16.047 16.047 0 01-3.984-.384c-1.215-.256-2.272-.672-3.168-1.248-.896-.576-1.456-1.312-1.68-2.208-.352-1.312-.448-2.416-.288-3.312.129-.896.385-1.632.769-2.208.384-.608.816-1.072 1.296-1.392.48-.352.896-.624 1.248-.816.736-.416 1.215-.416 1.44 0 .255.416.111 1.072-.432 1.968-.256.448-.32.96-.192 1.536.128.544.416 1.072.864 1.584.48.48 1.072.896 1.776 1.248.736.352 1.568.544 2.495.576a6.315 6.315 0 001.728-.144c.608-.16 1.104-.384 1.488-.672.384-.32.608-.688.672-1.104.096-.448-.063-.944-.48-1.488-.416-.544-1.136-1.232-2.16-2.064a73.65 73.65 0 01-3.167-2.736 26.473 26.473 0 01-2.832-3.216c-.8-1.152-1.2-2.304-1.2-3.456 0-2.272.4-3.936 1.2-4.992.832-1.056 2.16-1.744 3.984-2.064.895-.16 1.632-.224 2.208-.192.576 0 1.024.064 1.344.192.352.128.608.288.767.48.16.16.288.32.384.48zm18.077 5.28c-.096.16-.4.208-.912.144-.512-.096-1.104-.112-1.776-.048-.672.032-1.344.24-2.016.624-.672.352-1.216 1.04-1.632 2.064a15.236 15.236 0 00-.816 3.264 14.324 14.324 0 000 3.312c.16 1.024.432 1.92.816 2.688.416.768.96 1.296 1.632 1.584.96.384 1.824.512 2.592.384a7.797 7.797 0 002.064-.624 8.513 8.513 0 001.536-1.008c.448-.352.8-.576 1.056-.672.608-.192.88.048.816.72-.064.64-.512 1.472-1.344 2.496a10.41 10.41 0 01-1.68 1.68 9.071 9.071 0 01-2.256 1.248c-.832.32-1.744.496-2.736.528-.96.032-1.984-.16-3.072-.576-1.024-.384-1.952-1.008-2.784-1.872a11.5 11.5 0 01-2.064-2.976 15.473 15.473 0 01-1.104-3.696 12.494 12.494 0 01.048-3.936 12.192 12.192 0 011.44-3.792c.736-1.248 1.744-2.352 3.024-3.312 1.216-.864 2.4-1.312 3.552-1.344 1.184-.032 2.208.128 3.072.48.896.352 1.584.816 2.064 1.392.48.544.64.96.48 1.248zm3.79 12.768a367.376 367.376 0 01-.144-10.608c.032-2.24.08-4.528.144-6.864.064-2.368.176-4.528.336-6.48.192-1.952.448-3.584.768-4.896.32-1.312.736-2.064 1.248-2.256.896-.32 1.776-.336 2.64-.048a6.831 6.831 0 012.4 1.344 7.42 7.42 0 011.728 2.016c.48.736.752 1.408.816 2.016.352 1.984.352 3.776 0 5.376-.32 1.6-.784 3.072-1.392 4.416a36.123 36.123 0 01-1.92 3.696c-.672 1.12-1.152 2.208-1.44 3.264.8-1.44 1.696-2.656 2.688-3.648.416-.416.864-.8 1.344-1.152.48-.352.992-.624 1.536-.816a5.012 5.012 0 011.68-.288c.576 0 1.168.16 1.776.48a5.187 5.187 0 012.256 2.208c.544.928.928 1.984 1.152 3.168.256 1.152.416 2.368.48 3.648.064 1.28.128 2.512.192 3.696.096 1.184.24 2.288.432 3.312.192.992.544 1.792 1.056 2.4.736.864 1.376 1.456 1.92 1.776.544.352 1.008.56 1.392.624.384.096.688.128.912.096.256 0 .448.064.576.192.096.096.16.192.192.288.064.128.064.24 0 .336-.032.128-.16.256-.384.384-.224.16-.56.32-1.008.48-.864.288-1.984.32-3.36.096-1.344-.192-2.784-.848-4.32-1.968-.768-.544-1.36-1.312-1.776-2.304a18.877 18.877 0 01-.912-3.216 45.333 45.333 0 01-.528-3.552 41.339 41.339 0 00-.384-3.312c-.16-.992-.4-1.792-.72-2.4-.288-.64-.72-.976-1.296-1.008-.576-.032-1.088.192-1.536.672-.448.448-.832 1.072-1.152 1.872a16.11 16.11 0 00-.816 2.64 50.618 50.618 0 00-.48 2.928c-.128.96-.224 1.872-.288 2.736a189.06 189.06 0 00-.144 2.064c-.032.8-.224 1.36-.576 1.68-.352.32-.768.48-1.248.48-.448 0-.928-.096-1.44-.288a7.316 7.316 0 01-1.248-.672c-.352-.256-.608-.64-.768-1.152a8.804 8.804 0 01-.336-1.536 12.375 12.375 0 01-.048-1.92zm4.56-12.912l.384-1.2c.288-.832.592-1.84.912-3.024.32-1.184.608-2.416.864-3.696.256-1.28.368-2.4.336-3.36-.064-.96-.192-1.776-.384-2.448-.192-.704-.416-1.168-.672-1.392-.256-.256-.512-.224-.768.096s-.464 1.008-.624 2.064c-.16 1.056-.256 2.336-.288 3.84a95.037 95.037 0 000 4.272c.064 1.344.112 2.496.144 3.456l.096 1.392zm19.266-.096a7.6 7.6 0 011.776-2.256 9.562 9.562 0 012.4-1.536c.896-.416 1.824-.72 2.784-.912a15.148 15.148 0 012.88-.288c.96.064 1.776.384 2.448.96.704.544 1.2 1.264 1.488 2.16.288.864.336 1.84.144 2.928-.16 1.088-.624 2.192-1.392 3.312-.832 1.216-1.728 2.128-2.688 2.736-.928.608-1.792 1.04-2.592 1.296-.928.32-1.84.464-2.736.432-.032 1.216.096 2.256.384 3.12.128.384.272.752.432 1.104.192.32.432.608.72.864s.64.448 1.056.576c.416.096.896.096 1.44 0 1.152-.192 2.08-.608 2.784-1.248.736-.672 1.344-1.344 1.824-2.016.48-.672.864-1.248 1.152-1.728.32-.512.624-.704.912-.576.352.16.528.56.528 1.2.032.64-.112 1.392-.432 2.256-.32.864-.8 1.76-1.44 2.688a8.497 8.497 0 01-2.352 2.304c-.96.64-2.064 1.072-3.312 1.296-1.248.256-2.64.144-4.176-.336-1.248-.384-2.288-.992-3.12-1.824a9.404 9.404 0 01-1.968-2.88c-.48-1.088-.8-2.256-.96-3.504a17.91 17.91 0 01-.096-3.696c.128-1.248.368-2.432.72-3.552.384-1.12.848-2.08 1.392-2.88zm4.464 5.232a7.09 7.09 0 001.392-.384c.448-.16.928-.4 1.44-.72.544-.32 1.12-.768 1.728-1.344.576-.544.96-1.072 1.152-1.584.224-.512.352-.944.384-1.296a2.31 2.31 0 00-.192-1.152c-.448-.128-.928-.128-1.44 0-.448.128-.944.384-1.488.768s-1.104.992-1.68 1.824c-.448.64-.768 1.216-.96 1.728-.192.48-.32.88-.384 1.2-.064.384-.048.704.048.96zm13.715-4.416c.192-.32.464-.608.816-.864a7.566 7.566 0 011.152-.72 5.215 5.215 0 011.2-.48c.416-.128.752-.192 1.008-.192.128 0 .224.128.288.384.096.256.176.592.24 1.008.096.416.16.896.192 1.44l.096 1.584c.064 1.28.08 2.736.048 4.368.416-.832.864-1.648 1.344-2.448.416-.672.896-1.36 1.44-2.064a12.17 12.17 0 011.68-1.872 6.095 6.095 0 011.776-1.104 4.422 4.422 0 012.016-.288c.672.032 1.312.272 1.92.72.64.448 1.2 1.12 1.68 2.016.32.608.56 1.376.72 2.304.16.896.272 1.856.336 2.88.096.992.176 2 .24 3.024.096 1.024.24 1.968.432 2.832.224.864.512 1.6.864 2.208a2.52 2.52 0 001.632 1.152c.576.16 1.136.176 1.68.048.576-.16 1.104-.352 1.584-.576a39.99 39.99 0 011.296-.624c.384-.192.656-.24.816-.144.128.128.048.48-.24 1.056-.256.576-.704 1.168-1.344 1.776-.608.608-1.392 1.12-2.352 1.536-.928.448-2 .592-3.216.432-2.4-.32-4.128-1.552-5.184-3.696-1.056-2.176-1.664-5.008-1.824-8.496-.064-1.248-.224-2.176-.48-2.784-.224-.608-.528-.928-.912-.96-.384-.032-.832.192-1.344.672-.48.448-1.008 1.104-1.584 1.968-.672.992-1.168 1.984-1.488 2.976-.32.992-.544 1.92-.672 2.784-.096.864-.16 1.632-.192 2.304-.032.672-.112 1.168-.24 1.488-.16.352-.496.592-1.008.72a6.92 6.92 0 01-1.68.192 7.944 7.944 0 01-1.728-.192c-.544-.128-.928-.288-1.152-.48-.128-.128-.24-.576-.336-1.344-.064-.8-.112-1.744-.144-2.832-.032-1.12-.048-2.304-.048-3.552.032-1.28.064-2.48.096-3.6.064-1.152.144-2.144.24-2.976.096-.832.208-1.36.336-1.584zm30.192 2.352c.128-.288.48-.736 1.056-1.344a14.525 14.525 0 012.112-1.728 13.668 13.668 0 012.64-1.344c.928-.384 1.792-.48 2.592-.288 1.12.256 2.048.688 2.784 1.296.736.576 1.2 1.504 1.392 2.784.096.704 0 1.424-.288 2.16a6.595 6.595 0 01-1.2 2.016 9.987 9.987 0 01-1.92 1.728c-.704.512-1.44.88-2.208 1.104-.096.032-.096.272 0 .72.128.416.336.912.624 1.488.32.544.72 1.088 1.2 1.632.512.544 1.104.96 1.776 1.248.736.32 1.44.432 2.112.336a5.552 5.552 0 001.872-.72 7.284 7.284 0 001.536-1.248c.48-.48.88-.944 1.2-1.392.352-.448.624-.816.816-1.104.224-.32.368-.48.432-.48.288.064.432.368.432.912 0 .512-.128 1.136-.384 1.872-.224.736-.592 1.52-1.104 2.352-.48.832-1.056 1.6-1.728 2.304a8.367 8.367 0 01-2.304 1.632c-.832.416-1.744.576-2.736.48-1.216-.096-2.224-.4-3.024-.912-.8-.48-1.456-1.056-1.968-1.728a9.72 9.72 0 01-1.152-2.112 15.689 15.689 0 01-.576-2.064 100.35 100.35 0 00-.24-1.536c-.064-.416-.128-.608-.192-.576a7.296 7.296 0 01-1.2.288c-.384.032-.736.048-1.056.048h-1.008c-.064 1.248-.128 2.4-.192 3.456a252.58 252.58 0 00-.144 2.544c0 .608-.224 1.072-.672 1.392a1.973 1.973 0 01-1.44.48c-.544 0-1.104-.208-1.68-.624-.544-.416-.96-1.072-1.248-1.968-.16-.512-.288-1.44-.384-2.784a89.425 89.425 0 01-.192-4.704 320.746 320.746 0 01-.048-5.712c.032-2.048.08-4 .144-5.856.064-1.888.144-3.6.24-5.136s.224-2.688.384-3.456c.256-1.44.656-2.64 1.2-3.6.576-.96 1.216-1.712 1.92-2.256.704-.544 1.44-.88 2.208-1.008.768-.16 1.488-.128 2.16.096 1.472.48 2.464 1.264 2.976 2.352.544 1.056.784 2.288.72 3.696-.064 1.376-.368 2.848-.912 4.416a50.1 50.1 0 01-1.824 4.464 52.631 52.631 0 01-2.016 3.84 96.52 96.52 0 00-1.488 2.544zm.672 4.896c.64-.832 1.28-1.472 1.92-1.92a3.542 3.542 0 011.776-.576c.672-.032 1.312.384 1.92 1.248.864-.832 1.296-1.616 1.296-2.352.032-.736-.272-1.28-.912-1.632-.544-.32-1.136-.368-1.776-.144-.64.224-1.248.608-1.824 1.152a8.74 8.74 0 00-1.536 1.968 7.81 7.81 0 00-.864 2.256zm-1.344-9.408c-.032-.032.08-.384.336-1.056s.56-1.504.912-2.496a50.154 50.154 0 001.104-3.312c.384-1.216.672-2.352.864-3.408.224-1.056.32-1.968.288-2.736 0-.8-.208-1.28-.624-1.44-.512-.192-.928.032-1.248.672-.32.64-.592 1.504-.816 2.592a43.732 43.732 0 00-.48 3.552 211.818 211.818 0 00-.24 3.696c-.032 1.12-.064 2.064-.096 2.832v1.104zm18.254 1.344a7.6 7.6 0 011.776-2.256 9.562 9.562 0 012.4-1.536c.896-.416 1.824-.72 2.784-.912a15.148 15.148 0 012.88-.288c.96.064 1.776.384 2.448.96.704.544 1.2 1.264 1.488 2.16.288.864.336 1.84.144 2.928-.16 1.088-.624 2.192-1.392 3.312-.832 1.216-1.728 2.128-2.688 2.736-.928.608-1.792 1.04-2.592 1.296-.928.32-1.84.464-2.736.432-.032 1.216.096 2.256.384 3.12.128.384.272.752.432 1.104.192.32.432.608.72.864s.64.448 1.056.576c.416.096.896.096 1.44 0 1.152-.192 2.08-.608 2.784-1.248.736-.672 1.344-1.344 1.824-2.016.48-.672.864-1.248 1.152-1.728.32-.512.624-.704.912-.576.352.16.528.56.528 1.2.032.64-.112 1.392-.432 2.256-.32.864-.8 1.76-1.44 2.688a8.497 8.497 0 01-2.352 2.304c-.96.64-2.064 1.072-3.312 1.296-1.248.256-2.64.144-4.176-.336-1.248-.384-2.288-.992-3.12-1.824a9.404 9.404 0 01-1.968-2.88c-.48-1.088-.8-2.256-.96-3.504a17.91 17.91 0 01-.096-3.696c.128-1.248.368-2.432.72-3.552.384-1.12.848-2.08 1.392-2.88zm4.464 5.232a7.09 7.09 0 001.392-.384c.448-.16.928-.4 1.44-.72.544-.32 1.12-.768 1.728-1.344.576-.544.96-1.072 1.152-1.584.224-.512.352-.944.384-1.296a2.31 2.31 0 00-.192-1.152c-.448-.128-.928-.128-1.44 0-.448.128-.944.384-1.488.768s-1.104.992-1.68 1.824c-.448.64-.768 1.216-.96 1.728-.192.48-.32.88-.384 1.2-.064.384-.048.704.048.96zm13.716-4.416c.192-.32.464-.608.816-.864a7.566 7.566 0 011.152-.72 5.215 5.215 0 011.2-.48c.416-.128.752-.192 1.008-.192.128 0 .224.128.287.384.097.256.177.592.241 1.008.096.416.16.896.192 1.44l.096 1.584c.064 1.28.08 2.736.048 4.368.416-.832.864-1.648 1.344-2.448.416-.672.896-1.36 1.44-2.064a12.17 12.17 0 011.68-1.872 6.095 6.095 0 011.776-1.104 4.422 4.422 0 012.016-.288c.672.032 1.312.272 1.92.72.64.448 1.2 1.12 1.68 2.016.32.608.56 1.376.72 2.304.16.896.272 1.856.336 2.88.096.992.176 2 .24 3.024.096 1.024.24 1.968.432 2.832.224.864.512 1.6.864 2.208a2.52 2.52 0 001.632 1.152 3.33 3.33 0 001.679.048 10.17 10.17 0 001.585-.576 39.99 39.99 0 011.296-.624c.384-.192.656-.24.816-.144.128.128.048.48-.24 1.056-.256.576-.704 1.168-1.344 1.776-.608.608-1.392 1.12-2.352 1.536-.928.448-2 .592-3.216.432-2.4-.32-4.128-1.552-5.184-3.696-1.056-2.176-1.664-5.008-1.824-8.496-.064-1.248-.224-2.176-.48-2.784-.224-.608-.528-.928-.912-.96-.384-.032-.832.192-1.344.672-.48.448-1.008 1.104-1.584 1.968-.672.992-1.168 1.984-1.488 2.976-.32.992-.544 1.92-.672 2.784-.096.864-.16 1.632-.192 2.304-.032.672-.112 1.168-.24 1.488-.16.352-.496.592-1.008.72a6.92 6.92 0 01-1.68.192 7.944 7.944 0 01-1.728-.192c-.544-.128-.928-.288-1.152-.48-.128-.128-.24-.576-.336-1.344-.064-.8-.112-1.744-.144-2.832-.032-1.12-.048-2.304-.048-3.552.032-1.28.064-2.48.096-3.6.064-1.152.144-2.144.24-2.976.096-.832.208-1.36.336-1.584z" fill="#fff"/></svg>