<svg width="40" height="23" fill="none" xmlns="http://www.w3.org/2000/svg"><path d="M23.581 10.11l.07-.097.071-.093.055-.063h-.257l.038.287.023-.035zm12.079 3.535v.037l-.08.412.08-.412v-.037zm-.13.141l-.067.06.067-.06.066-.067.032-.037-.032.037-.066.067zm-.404-3.666l-.162.008-.078.011.078-.01.162-.008zm.737.204l-.07-.04-.078-.041.078.041.07.04z" fill="#fff"/><path d="M39.22 10.747l-.043-.556-.074-.55L39 9.104l-.13-.53-.157-.52-.184-.512-.208-.497-.236-.485-.255-.475-.283-.457-.302-.449-.326-.43-.346-.412-.365-.4-.389-.383-.404-.363-.423-.345-.44-.326-.456-.308-.475-.286-.486-.263-.503-.241-.518-.223-.53-.196-.541-.175L30.49.68l-.56-.123-.577-.097-.581-.07-.593-.04-.602-.017-.597.015-.592.04-.582.071-.573.097-.56.122-.554.148-.537.175-.53.196-.514.223-.5.241-.486.263-.471.286-.456.308-.44.326-.392.323.027.023.405.363.385.382.017.02h3.987v.597h-3.46l.166.196.322.43.07.104h2.901v.598h-2.515l.125.204.26.475.022.048h2.108v.597H22.78l.142.337.138.394h1.553v.597h-1.366l.012.042.13.53.029.156h1.195v.014l.043-.018.113-.04.122-.038.122-.03.125-.027.134-.022.133-.02.142-.014.14-.008.15-.003.126.003.122.008.118.011.117.015.11.015.106.023.102.019.094.022.09.023.08.022.074.023.063.022.054.019.047.015.036.015.023.008-.196 1.027-.05-.026-.052-.023-.054-.026-.06-.026-.058-.023-.067-.022-.067-.023-.07-.022-.074-.02-.075-.014-.082-.015-.083-.011-.09-.008-.09-.008h-.291l-.102.008-.106.011-.11.019-.11.03-.11.04-.11.052-.11.067-.106.082-.102.096-.098.119-.094.137-.086.163-.083.185-.074.208-.063.237-.023.134-.004.034h.286v.6h-.262l.034.108.043.112.06.1.07.097.083.085.093.078.107.067.12.055.134.048.15.034.05.011.06.012.07.007.079.008.086.007h.189l.098-.007.102-.012.102-.018.098-.027.098-.03.098-.04.09-.048.082-.06.08-.066-.177.991-.024.019-.023.022-.031.027-.036.022-.043.03-.056.027-.063.026-.07.023-.09.026-.103.019-.117.015-.137.015-.153.007-.177.004-.2-.004-.22-.011-.18-.019-.18-.037-.18-.055-.181-.074-.173-.09-.165-.111-.076-.063h-.327l-.107.438-.087.289h1.461v.597h-1.659l-.052.149-.209.5-.038.082h1.958v.597H22.38l-.156.286-.268.441h2.678v.598h-3.088l-.225.3-.345.416-.01.01h3.668v.602h-4.236l-.172.17-.405.368-.027.023.392.323.44.327.456.308.471.285.487.267.498.242.515.222.53.196.537.175.553.148.561.123.573.096.582.07.592.041.597.015.6-.015.594-.04.581-.07.577-.097.56-.123.554-.148.542-.175.53-.196.517-.223.502-.24.487-.268.475-.285.456-.308.44-.327.423-.345.404-.367.389-.382.365-.401.346-.416.326-.43.302-.449.283-.46.255-.474.236-.49.208-.5.184-.512.157-.524.13-.53.102-.546.074-.55.043-.56.016-.567-.017-.568zm-8.93 2.527l-.161.824-.004.018-.02.004h-1.013l.004-.026.007-.152v-.134l.003-.073-.062.058-.07.052-.083.052-.083.051-.094.044-.101.044-.098.038-.11.03-.11.03-.11.018-.113.015-.114.008-.11.003-.106-.01-.11-.016-.142-.033-.13-.037-.113-.048-.102-.06-.09-.059-.08-.07-.062-.07-.056-.079-.05-.078-.036-.085-.031-.085-.02-.082-.016-.086-.011-.089-.008-.082-.003-.081.012-.145.023-.14.036-.134.05-.126.06-.122.079-.111.082-.104.095-.093.102-.09.106-.077.117-.075.123-.059.125-.052.13-.04.133-.034.138-.022h.007l.016-.004.032-.004.04-.004.05-.007.056-.004.059-.007.063-.008.066-.007.07-.008.067-.004.067-.007.063-.004.056-.004.054-.007h.137l.094.007h.177l.075.008.063.004.033.003.002-.007.012-.067.012-.074.004-.07h.003l-.016-.078-.03-.067-.047-.063-.055-.052-.067-.045-.079-.033-.082-.022-.09-.004v-.004l-.11-.004h-.366l-.13.008-.125.011-.126.012-.121.015-.114.015-.114.018-.102.02-.094.018-.086.023-.067.022-.05.026-.04.02-.04-.023.275-.895.004-.015.012-.003.086-.034.09-.03.094-.026.094-.02.099-.018.097-.015.107-.015.106-.008.11-.007.113-.004.114-.008h.369l.133.004.134.008.11.007.122.02.122.025.13.034.12.044.127.052.117.067.114.07.097.082.094.093.08.104.062.115.043.122.027.13v.14l-.02.152-.413 1.96zm2.523-2.181l-.113.037-.103.044-.09.056-.078.06-.07.062-.063.07-.05.075-.048.078-.04.081-.03.082-.024.082-.023.082-.015.081-.397 2.11h-1.107l.733-3.972h1.103l-.117.671.055-.074.06-.067.059-.07.059-.063.063-.06.063-.058.066-.052.07-.052.075-.044.079-.04.083-.038.086-.03.094-.026.098-.019.106-.011.11-.008-.177.954h-.099l-.153.007-.137.023-.128.029zm3.855 3h-1.087l.078-.41v-.038l-.032.037-.032.037-.066.067-.067.059-.07.052-.07.047-.071.042-.07.034-.075.033-.074.027-.074.018-.074.02-.08.01-.078.012-.074.007-.08.004h-.078l-.204-.015-.189-.041-.173-.063-.156-.086-.142-.108-.126-.125-.11-.138-.094-.156-.079-.167-.063-.174-.043-.182-.031-.189-.012-.19.003-.192.02-.189.036-.188.059-.22.07-.207.083-.189.098-.178.102-.167.118-.149.122-.133.13-.122.137-.108.144-.093.15-.082.149-.063.157-.052.157-.032.078-.012.08-.011.16-.008.114.004.11.011.102.02.094.026.09.03.079.033.079.04.07.041.063.044.06.048.05.048.047.048.04.048.035.048.032.045.024.044.275-1.458h1.068l-.889 4.852zM15.565 13.01l-.003.075.02.063.038.048.051.041.07.026.08.022.085.015.095.008.086-.004.066-.007-.058-.309-.074-.55-.011-.136h-.127l-.04-.601h.129l-.01-.39.01-.37h-.03l-.377 2.07z" fill="#fff"/><path d="M19.36 19.103l-.171-.17h-.005l-.05-.055-.158-.157-.366-.401-.345-.416-.225-.3h-.003l-.023-.036-.07-.094-.303-.449-.278-.46-.156-.286-.013-.024-.09-.164-.232-.49-.208-.5-.18-.512-.157-.523-.041-.17-.006.029-.027.018-.027.016-.028.015-.027.015-.027.01-.032.012-.036.011-.036.012-.039.011-.04.008-.046.007-.047.008-.051.007-.06.008-.062.007-.067.008h-.299l-.157-.012-.137-.015-.126-.022-.106-.027-.09-.033-.074-.038-.067-.044-.05-.048-.04-.052-.027-.063-.02-.063-.012-.07-.004-.078v-.082l.012-.085.013-.093.75-4.048h.982l.022-.118.13-.53.012-.042.008-.024.137-.454.18-.512.208-.497.232-.485.259-.476.278-.456.302-.45.323-.43.165-.196.003-.002.177-.213.366-.4.385-.383.404-.364.027-.022-.393-.322-.44-.326-.455-.308-.471-.286-.487-.263-.499-.241-.514-.223-.53-.196-.538-.175-.553-.148-.562-.122-.572-.097-.582-.07-.593-.041-.597-.02-.6.015-.593.04-.581.071-.577.097-.562.122-.553.148L8 1.001l-.53.196-.517.223-.503.241-.486.263-.476.286-.455.308-.44.326-.423.345-.404.363-.39.382-.364.402-.346.412-.326.43-.302.45-.283.456-.256.475-.235.485-.208.497-.184.513-.157.52-.13.53-.102.538-.074.55-.043.555-.016.564.016.567.043.56.074.55.102.545.13.53.157.524.185.512.207.5.236.49.256.474.282.46.303.45.326.43.345.415.366.4.389.383.404.367.423.345.44.327.455.308.476.286.486.266.503.242.517.222.53.197.542.174.553.149.562.122.577.097.581.07.593.04.6.016.596-.015.593-.04.582-.071.572-.097.562-.122.553-.149.539-.174.53-.197.513-.222.499-.242.487-.266.471-.286.456-.308.44-.327.392-.323-.027-.022-.406-.365zm-12.666-5.01H5.626l.675-3.639h-.043l-1.598 3.64H3.455l-.008-.152-.027-.405-.036-.575-.039-.66-.04-.664-.035-.583-.027-.422-.009-.179h-.059l-.652 3.64H1.457l.891-4.871h1.857l.177 2.89 1.284-2.89h1.94l-.912 4.87zm4.09-.823l-.158.824h-.989l.028-.152.02-.137.015-.105.016-.055-.054.059-.063.06-.074.055-.083.051-.094.052-.098.044-.102.044-.106.037-.114.034-.114.026-.113.023-.118.014-.113.008-.114.004-.11-.011-.106-.015-.137-.034-.126-.037-.11-.048-.098-.055-.086-.06-.079-.066-.063-.07-.055-.075-.047-.078-.04-.082-.032-.081-.023-.082-.016-.085-.012-.086-.008-.082v-.081l.012-.145.023-.137.04-.13.05-.125.063-.119.07-.108.083-.104.095-.093.098-.086.11-.078.113-.07.118-.06.126-.05.13-.042.133-.034.137-.023h.008l.02-.003.027-.004.043-.004.047-.007.056-.004.059-.008.067-.007.066-.008.067-.007.07-.004.063-.007.063-.004.06-.004.055-.004h.133l.094.004.087.004h.086l.07.004.055.003.04.004h.012l.007-.026.024-.067.02-.078.007-.07-.016-.082-.036-.074-.047-.067-.063-.055L9.778 11l-.082-.034-.094-.023-.103-.007-.11-.004h-.238l-.126.004-.13.007-.125.012-.126.01-.122.016-.117.015-.114.019-.102.019-.094.018-.086.023-.07.022-.056.027-.044.022.28-.894.086-.033.086-.03.094-.026.094-.019.094-.019.102-.015.103-.015.106-.007.11-.008.114-.004.118-.003h.377l.137.003.137.004.11.008.117.018.122.027.126.034.121.044.118.051.117.063.11.07.098.082.086.09.078.1.06.111.039.118.023.126v.141l-.023.149-.396 1.957zm3.477-2.293l-.055-.004-.054-.007-.051-.007-.05-.008-.048-.008-.05-.007-.052-.008-.055-.007-.055-.008-.063-.003-.07-.004-.075-.004H13.5l-.09.004-.103.007-.114.008-.079.011-.074.011-.066.023-.06.023-.054.026-.05.03-.04.037-.036.034-.023.04-.02.042-.008.044v.044l.013.048.016.048.031.048.039.048.079.07.094.056.11.048.117.04.126.037.13.041.13.044.125.048.117.063.11.078.098.093.083.114.063.141.04.168.015.2-.016.234-.027.174-.047.152-.063.141-.078.123-.09.107-.102.093-.11.082-.121.07-.126.056-.13.048-.133.037-.138.03-.133.022-.13.012-.13.007-.121.004h-.17l-.156-.004h-.137l-.13-.004-.117-.003-.107-.008-.094-.008-.09-.01-.082-.008-.075-.015-.074-.012-.066-.018-.067-.016-.063-.022-.063-.023-.067-.022.177-.82.036.007.043.012.054.015.067.015.07.015.08.015.086.019.094.015.097.015.103.015.106.01.11.012.114.004.113.004h.114l.113-.004.114-.023.09-.03.07-.041.055-.052.04-.051.032-.06.02-.059.015-.055.008-.108-.036-.093-.067-.074-.097-.063-.118-.056-.137-.055-.153-.052-.153-.059-.157-.067-.15-.078-.136-.096-.126-.115-.099-.14-.07-.168-.036-.2.004-.238.02-.144.027-.137.04-.126.046-.119.063-.11.07-.097.083-.093.098-.082.114-.07.125-.06.141-.055.157-.04.177-.034.192-.027.213-.014.232-.004h.144l.134.004.122.003.11.004.097.007.09.008.078.008.07.007.067.008.055.01.05.008.048.008.04.007.035.004.035.008.03.003-.198.838z" fill="#fff"/><path d="M16.326 8.574l-.129.53-.022.119h.104l-.006.036h7.145l-.03-.155-.13-.53-.011-.042h-6.908l-.013.042zm3.034-5.02l-.384.381-.365.401-.178.213.531-.595h1.662l-.017-.019-.385-.381-.404-.364-.027-.023-.027.023-.405.364zm-1.094 1.194l-.322.431-.303.449-.278.455-.26.476-.231.485-.208.498-.18.512-.137.454.188-.573h6.525l-.138-.393-.142-.338h-5.966l.274-.597h5.417l-.024-.048-.258-.476-.125-.203h-4.594l.373-.598h3.835l-.07-.103-.323-.431-.164-.196H18.43l-.165.196zm-.903 11.817l.278.46.302.45.07.093-.372-.562h4.314l.268-.441.155-.286h-5.171l.156.286zm.423-4.92h-.282l-.18.73h.314l.003-.017.145-.713zm5.277.98l-.047-.249-.005-.074h-1.398l-.13.727h1.731l-.08-.178-.071-.226zm-4.798 5.28l.346.415.365.4.16.159-.505-.548h2.333l.01-.011.345-.415.226-.301H18.04l.224.3zm1.959 1.198l.173-.17h-1.208l.172.17.405.366.027.023.027-.023.404-.366zm-2.425-7.513l-.012.055.012-.055zm-.169.831l.008-.045-.008.045zm1.594-.776l.007-.093-.004-.088-.007-.082-.016-.074-.028-.07-.027-.064-.039-.056-.04-.052-.046-.044-.052-.037-.058-.033-.06-.03-.062-.023-.063-.015-.067-.01-.07-.008-.075.004-.071.01-.067.016-.066.022-.067.03-.06.033-.058.041-.05.044-.052.052-.047.056-.043.06-.035.063-.035.066-.028.075-.024.074-.015.078-.012.055h1.437z" fill="#fff"/><path d="M21.292 14.094h-1.126l.733-3.973h1.127l-.141.671.059-.074.059-.074.054-.07.06-.064.059-.063.058-.056.063-.055.067-.048.07-.045.075-.037.083-.037.09-.03.094-.022.102-.019.11-.011.121-.008h.028l.028.004.03.004h.028l.028.004.019.003.016.004h.004l-.008.011-.02.027-.027.044-.035.055-.04.063-.038.07-.04.071-.03.071-.037.104-.035.104-.027.103-.028.097-.02.082-.015.066-.012.045-.004.015h-.004l-.011-.004-.016-.004-.02-.004h-.02l-.02-.003-.016-.004h-.01l-.154.011-.133.019-.122.03-.11.033-.094.041-.087.044-.07.056-.063.056-.055.063-.047.067-.039.07-.032.074-.01.03h1.284l.026-.186.031-.152.035-.148.04-.145.039-.137.043-.13.05-.13.052-.122.055-.115.06-.115.058-.107.044-.07-.038-.287h-7.355l-.047.264h.656l-.142.838-.66-.017-.01.37.01.389h.588l.025-.119.043-.156.06-.16.07-.16.09-.162.11-.155.126-.149.153-.14.173-.128.196-.11.227-.094.256-.066.283-.044.317-.015.153.003.162.016.16.025.162.037.157.056.153.066.14.09.13.103.118.127.098.148.078.17.056.197.03.223.005.252-.028.283-.058.31-.02.227h-2.547l-.008.045-.004.067.007.07.016.07.028.071.032.067.042.07.048.063.054.063.06.056.062.056.07.044.071.041.08.033.077.026.079.015.102.015.098.01.102.012.102.008.102.003h.106l.103-.003.106-.008.105-.014.106-.019.11-.022.106-.034.11-.04.114-.045.11-.06.113-.063-.157.913-.063.03-.062.03-.062.022-.06.023-.059.017-.063.02-.063.014-.066.011-.07.012-.079.006-.082.008-.09.007-.103.004h-.106l-.121.004h-.13l-.192-.004-.197-.019-.196-.025L17.83 14l-.193-.056-.184-.07-.177-.093-.165-.107-.153-.126-.133-.152-.114-.171-.094-.197-.067-.22-.043-.247-.011-.26h-.487l.012.137.074.55.058.308h.012l.072-.012.062-.015.051-.014.035-.011.023-.008.009-.004-.133.662.042.17.158.522.18.513.208.5.232.49.09.165-.283-.573h5.763l.039-.082.209-.5.051-.149h-6.36l-.196-.597h6.754l.088-.29.107-.438h-1.99l-.084.468zm-.137-9.543h3.458v-.597h-3.987l.348.382.18.215zm-2.725 0l.002-.002-.001.002zm3.668 1.329h2.515v-.598h-2.901l.232.346.154.252zm.682 1.324h1.833v-.597h-2.109l.209.437.067.16zm.467 1.328h1.366v-.597H23.06l.042.12.145.477zm-6.909 0h.001l.008-.024-.009.024z" fill="#fff"/><path d="M22.973 14.951h1.66v-.597H23.17l-.07.233-.128.364zm-.595 1.328h2.255v-.597h-1.958l-.194.408-.103.189zm-5.172 0h.001l-.013-.024.012.024zm4.436 1.195l-.097.13h3.088v-.597h-2.678l-.01.018-.303.45zm-3.604.13h.003l-.027-.036.024.036zm2.359 1.328h4.236v-.6h-3.669l-.355.389-.212.211zm-1.213 0h.005l-.054-.053.05.053zm4.336-9.075h.257l.024-.026.078-.081.082-.078.09-.075.09-.07.096-.063.097-.06.106-.055.107-.048.066-.028V9.26h-1.195l.073.383.029.215zm-.053 3.554l-.045-.057-.034.18-.022.092h.327l-.081-.066-.145-.149zm.762-1.484l.003.127.012.126.028.118.002.004h.26V11.7h-.286l-.011.097-.008.13zm11.701-.289l-.015-.092-.028-.09-.031-.085-.04-.074-.047-.07-.05-.06-.06-.053-.066-.044-.07-.03-.076-.018-.082-.007-.106.007-.098.014-.09.03-.09.038-.08.048-.078.06-.066.062-.067.07-.06.082-.054.086-.051.089-.043.096-.039.1-.032.1-.03.108-.024.108-.02.163.007.178.028.182.051.174.078.152.103.123.13.082.156.029.11-.008.102-.021.094-.027.09-.04.083-.045.078-.055.075-.063.067-.067.06-.074.054-.082.05-.085.044-.09.039-.093.032-.095.027-.1.02-.101.02-.104.01-.108v-.1l-.003-.104-.011-.096zm-26.112.627l-.024-.011-.038-.008-.043-.007-.052-.004h-.118l-.062.004-.067.007-.063.008-.063.007-.059.008-.054.01-.047.012-.044.01-.027.008-.032.011-.043.015-.043.02-.051.02-.05.027-.056.026-.05.03-.056.037-.051.037-.047.045-.043.044-.04.048-.027.052-.023.06-.013.059-.003.126.02.1.039.074.05.056.059.037.067.023.063.01.062.004.119-.004.106-.01.101-.016.09-.022.08-.026.074-.033.066-.034.06-.04.051-.038.047-.044.039-.041.032-.044.027-.044.023-.046.02-.04.012-.041.031-.107.027-.123.024-.119.02-.096-.004-.018-.016-.02zm19.475-.004l-.029-.011-.039-.011-.043-.004-.051-.004h-.06l-.057.004-.063.008-.063.007-.063.008-.06.007-.058.011-.051.008-.051.01-.04.008-.027.003-.03.012-.04.01-.043.016-.052.022-.047.022-.054.026-.051.033-.052.034-.05.04-.044.042-.043.048-.036.051-.027.057-.023.059-.013.063-.003.126.02.1.03.074.048.056.059.037.066.023.068.01.066.004.118-.004.11-.01.102-.019.09-.026.087-.03.074-.033.07-.038.063-.044.056-.041.047-.048.043-.044.035-.048.028-.045.02-.044.015-.045.012-.04.016-.105.02-.107.015-.104.007-.093-.007-.022-.015-.019z" fill="#fff"/></svg>