<svg xmlns="http://www.w3.org/2000/svg" width="300" height="300" style="width:100%;height:100%;content-visibility:visible"><defs><mask id="__lottie_element_21"><path fill="#E6E6E6" d="M110 59.775a8.226 8.226 0 01-8.226 8.226h-203.548A8.226 8.226 0 01-110 59.775v-119.55a8.226 8.226 0 018.226-8.226h203.548A8.226 8.226 0 01110-59.775v119.55z" transform="translate(174.031 171.493)" display="block"/></mask><mask id="__lottie_element_106"><path fill="#0A81B5" d="M125.07 10.88c1.8 4.151-.128 9.02-4.279 10.816L-66.835 102.93c-4.151 1.797-9.019-.129-10.818-4.281L-125.075-10.88c-1.795-4.152.128-9.02 4.281-10.817L66.834-102.93c4.151-1.797 9.018.128 10.818 4.28L125.07 10.88z" transform="translate(141.716 152.192)" display="block"/></mask><mask id="__lottie_element_112"><path fill="#0A81B5" d="M125.07 10.88c1.8 4.151-.128 9.02-4.279 10.816L-66.835 102.93c-4.151 1.797-9.019-.129-10.818-4.281L-125.075-10.88c-1.795-4.152.128-9.02 4.281-10.817L66.834-102.93c4.151-1.797 9.018.128 10.818 4.28L125.07 10.88z" transform="translate(141.716 152.192)" display="block"/></mask><mask id="__lottie_element_128"><path fill="#2BB5B8" d="M19.932 4.5v-7l.136-5c-.241-8-6.816-14-14.913-14h-9.959c-8.098 0-14.675 6-14.918 14l-.346 5v7l.346 4c.243 7 6.82 13 14.918 13h9.959c8.097 0 14.672-6 14.913-13l-.136-4z" transform="translate(104.099 143.993) scale(.99164)" display="block"/></mask><clipPath id="__lottie_element_16"><path d="M0 0h300v300H0z"/></clipPath></defs><g clip-path="url(#__lottie_element_16)"><g mask="url(#__lottie_element_106)" display="block"><path fill="#0A81B5" d="M266.786 163.072c1.8 4.151-.128 9.02-4.279 10.816L74.881 255.122c-4.151 1.797-9.019-.129-10.818-4.281L16.641 141.312c-1.795-4.152.128-9.02 4.281-10.817L208.55 49.262c4.151-1.797 9.018.128 10.818 4.28l47.418 109.53z"/></g><g mask="url(#__lottie_element_112)" display="block"><path fill="#016F9F" d="M235.523 90.856L32.799 178.629l-12.95-29.91 202.725-87.77 12.949 29.907z"/></g><g mask="url(#__lottie_element_21)" display="block"><path fill="#E6E6E6" d="M284.031 231.268a8.226 8.226 0 01-8.226 8.226H72.257a8.226 8.226 0 01-8.226-8.226v-119.55a8.226 8.226 0 018.226-8.226h203.548a8.226 8.226 0 018.226 8.226v119.55z"/></g><g mask="url(#__lottie_element_128)" display="block"><path fill="#1995AD" d="M98.841 139.993c0-1.313-.81-3.5-1.811-3.5H84.377c-.003 0-.346.057-.346.257v6.743H97.03c1.001 0 1.811-2.188 1.811-3.5zm0 9.5c0-1.373-.81-3-1.811-3H84.031v5.336c0 .209.343.664.346.664H97.03c1.001 0 1.811-1.627 1.811-3zm10.864-9.5c0 1.502.812 3.5 1.812 3.5h12.514v-6.658c0-.23.142-.342.136-.342h-12.65c-1 0-1.812 2.002-1.812 3.5zm14.326 6.5h-12.515c-1 0-1.811 1.498-1.811 3s.811 3 1.811 3h12.651c.006 0-.136-.491-.136-.72v-5.28z"/></g><path fill="#2BB5B8" d="M109.705 150.493c0-1 .812-2 1.812-2h12.514v-7h-12.514c-1 0-1.812-1.499-1.812-2.5 0-1 .812-2.5 1.812-2.5h12.65c-.241-8-6.816-14-14.913-14h-9.959c-8.098 0-14.675 6-14.918 14H97.03c1.001 0 1.811 1.5 1.811 2.5 0 1.001-.81 2.5-1.811 2.5H84.031v7H97.03c1.001 0 1.811 1 1.811 2s-.81 2-1.811 2H84.377c.243 7 6.82 13 14.918 13h9.959c8.097 0 14.672-6 14.913-13h-12.65c-1 0-1.812-1-1.812-2z" display="block"/><path fill="#1995AD" d="M241.01 142.055c0 10.757-8.721 19.478-19.478 19.478-10.759 0-19.482-8.721-19.482-19.478 0-10.76 8.723-19.48 19.482-19.48 10.757 0 19.478 8.72 19.478 19.48z" display="block"/><path fill="#2BB5B8" d="M262.74 142.055c0 10.757-8.723 19.478-19.48 19.478-10.759 0-19.479-8.721-19.479-19.478 0-10.76 8.72-19.48 19.479-19.48 10.757 0 19.48 8.72 19.48 19.48z" display="block"/><path fill="#016F9F" d="M264.078 213.776c0 1.5-1.217 2.717-2.717 2.717H132.748a2.717 2.717 0 01-2.717-2.717v-.566c0-1.5 1.217-2.717 2.717-2.717h128.613c1.5 0 2.717 1.217 2.717 2.717v.566zm-145.047 0c0 1.5-1.216 2.717-2.716 2.717H86.747a2.717 2.717 0 01-2.716-2.717v-.566c0-1.5 1.216-2.717 2.716-2.717h29.568c1.5 0 2.716 1.217 2.716 2.717v.566zm58-11.997a2.715 2.715 0 01-2.715 2.714h-87.57a2.715 2.715 0 01-2.715-2.714v-.572a2.715 2.715 0 012.715-2.714h87.57a2.715 2.715 0 012.715 2.714v.572z" display="block"/></g></svg>