<svg width="297" height="103" fill="none" xmlns="http://www.w3.org/2000/svg"><path d="M6.392 11.903c.192 1.248.4 2.72.624 4.416.256 1.664.56 3.36.912 5.088a58.74 58.74 0 001.248 4.944c.512 1.568 1.136 2.88 1.872 3.936.704.992 1.344 1.456 1.92 1.392.608-.096 1.136-.432 1.584-1.008.48-.608.88-1.312 1.2-2.112.32-.832.528-1.504.624-2.016.224-1.056.448-2.304.672-3.744.224-1.472.448-2.976.672-4.512.224-1.536.448-3.04.672-4.512.256-1.504.528-2.832.816-3.984.288-1.152.608-2.08.96-2.784.384-.704.8-1.04 1.248-1.008.256-.032.416.192.48.672.096.448.128 1.024.096 1.728s-.08 1.456-.144 2.256c-.064.768-.112 1.44-.144 2.016-.064.992-.08 1.984-.048 2.976.064.992.112 2 .144 3.024.064.992.096 2 .096 3.024 0 .992-.064 2-.192 3.024-.16 1.216-.4 2.56-.72 4.032a16.51 16.51 0 01-1.344 4.08 9.307 9.307 0 01-2.496 3.168c-1.024.832-2.352 1.232-3.984 1.2-2.272-.032-4.176-.544-5.712-1.536a11.76 11.76 0 01-3.696-3.936c-.928-1.6-1.6-3.408-2.016-5.424a40.55 40.55 0 01-.768-6.24c-.096-2.144-.08-4.24.048-6.288.16-2.08.352-3.92.576-5.52.256-1.632.48-2.96.672-3.984.224-1.024.352-1.584.384-1.68.48-.288.896-.288 1.248 0 .384.288.704.736.96 1.344.288.608.512 1.328.672 2.16.192.8.352 1.6.48 2.4.128.768.208 1.472.24 2.112.064.608.112 1.04.144 1.296zm19.566 5.76c.672-.32 1.312-.48 1.92-.48.608 0 1.136.112 1.584.336.448.224.8.544 1.056.96.256.384.368.8.336 1.248-.256 2.08-.24 4.016.048 5.808.288 1.76.672 3.264 1.152 4.512.48 1.216.976 2.112 1.488 2.688.544.576.912.688 1.104.336.192-.352.416-1.088.672-2.208.256-1.152.576-2.416.96-3.792.416-1.376.928-2.72 1.536-4.032.608-1.344 1.376-2.384 2.304-3.12.928-.736 1.728-1.136 2.4-1.2.672-.064 1.248.08 1.728.432s.88.864 1.2 1.536c.352.64.672 1.296.96 1.968.288.704.544 1.616.768 2.736.256 1.088.512 2.128.768 3.12.288.992.576 1.792.864 2.4.32.576.704.704 1.152.384.288-.224.544-.656.768-1.296.224-.672.432-1.44.624-2.304.192-.896.4-1.808.624-2.736.256-.928.56-1.776.912-2.544.352-.8.784-1.424 1.296-1.872.544-.48 1.2-.688 1.968-.624.992.096 1.888.368 2.688.816.832.416 1.488.848 1.968 1.296.48.448.768.832.864 1.152.096.32-.064.432-.48.336a3.196 3.196 0 00-1.344-.096c-.416.032-.816.224-1.2.576-.384.32-.736.832-1.056 1.536-.32.672-.608 1.568-.864 2.688a71.644 71.644 0 01-.768 3.072c-.224.928-.528 1.744-.912 2.448a4.96 4.96 0 01-1.392 1.728c-.576.416-1.328.672-2.256.768a3.707 3.707 0 01-2.4-.528 8.984 8.984 0 01-2.016-1.824 13.905 13.905 0 01-1.488-2.496c-.384-.896-.64-1.728-.768-2.496-.16-.736-.304-1.248-.432-1.536-.096-.32-.208-.432-.336-.336-.096.096-.224.368-.384.816a66.5 66.5 0 01-.672 1.776l-.768 2.208a9.495 9.495 0 01-1.008 2.064c-.416.608-.96 1.168-1.632 1.68-.64.48-1.504.832-2.592 1.056-1.056.224-2.064.224-3.024 0a9.433 9.433 0 01-2.592-1.152 12.062 12.062 0 01-2.064-1.728 12.73 12.73 0 01-1.488-1.968c-.256-.416-.544-1.008-.864-1.776-.32-.8-.624-1.68-.912-2.64-.288-.992-.544-2-.768-3.024a27.361 27.361 0 01-.384-2.928c-.032-.928.032-1.728.192-2.4.192-.672.512-1.12.96-1.344zm57.44 15.12c.128.576.24 1.168.336 1.776a4.2 4.2 0 01-.096 1.776c-.256.384-.624.624-1.104.72-.48.096-.992.096-1.536 0a9.199 9.199 0 01-1.536-.432 8.95 8.95 0 01-1.152-.624 24.805 24.805 0 01-1.152-4.896 45.364 45.364 0 01-.384-5.088c-.032-1.696 0-3.376.096-5.04.096-1.664.224-3.232.384-4.704.064-1.088.256-2.24.576-3.456.352-1.216.8-2.384 1.344-3.504a15.954 15.954 0 011.968-3.168c.768-.96 1.632-1.696 2.592-2.208a7.085 7.085 0 013.264-.864c1.184-.032 2.448.304 3.792 1.008 1.344.704 2.224 1.6 2.64 2.688.416 1.088.496 2.272.24 3.552-.224 1.248-.736 2.528-1.536 3.84a21.28 21.28 0 01-2.784 3.552 16.545 16.545 0 01-3.312 2.736c-1.152.736-2.24 1.168-3.264 1.296a79.373 79.373 0 000 5.52c.064 1.856.272 3.696.624 5.52zm6.768-26.496c-1.248-.032-2.32.288-3.216.96a8.816 8.816 0 00-2.16 2.448c-.576.96-.992 1.984-1.248 3.072-.256 1.056-.368 1.936-.336 2.64.064-.032.32-.176.768-.432.48-.256 1.04-.576 1.68-.96.64-.416 1.296-.896 1.968-1.44a10.559 10.559 0 001.776-1.824c.512-.672.864-1.376 1.056-2.112.192-.768.096-1.552-.288-2.352zm2.272 12.144a7.653 7.653 0 011.824-2.208 10.441 10.441 0 012.448-1.536 12.087 12.087 0 012.784-.816c.992-.16 1.952-.224 2.88-.192.96.064 1.776.4 2.448 1.008.672.576 1.136 1.328 1.392 2.256.288.896.32 1.888.096 2.976-.192 1.088-.688 2.176-1.488 3.264-.896 1.216-1.824 2.112-2.784 2.688-.928.544-1.792.944-2.592 1.2-.928.288-1.856.4-2.784.336-.064 1.184.032 2.224.288 3.12.096.384.224.752.384 1.104.192.352.432.656.72.912a2.86 2.86 0 001.008.576c.416.128.896.16 1.44.096 1.152-.16 2.096-.528 2.832-1.104.736-.576 1.344-1.184 1.824-1.824.512-.64.928-1.2 1.248-1.68.32-.512.64-.768.96-.768.224 0 .368.304.432.912.064.576 0 1.296-.192 2.16-.16.832-.464 1.728-.912 2.688a7.407 7.407 0 01-1.92 2.448c-.8.704-1.808 1.2-3.024 1.488-1.216.32-2.672.256-4.368-.192-1.536-.384-2.768-1.104-3.696-2.16-.928-1.088-1.632-2.208-2.112-3.36-.576-1.312-.96-2.768-1.152-4.368a10.484 10.484 0 010-2.832c.064-.832.24-1.792.528-2.88.32-1.088.816-2.192 1.488-3.312zm4.32 5.376c.512 0 1.04-.064 1.584-.192.448-.128.944-.352 1.488-.672.544-.32 1.056-.8 1.536-1.44.448-.64.768-1.216.96-1.728.192-.512.32-.944.384-1.296.096-.384.112-.736.048-1.056a8.39 8.39 0 00-1.824.384 5.749 5.749 0 00-1.536.768c-.512.32-.928.784-1.248 1.392a17.225 17.225 0 00-.864 1.776c-.192.48-.32.88-.384 1.2-.096.352-.144.64-.144.864zm12.66-6.048a2.71 2.71 0 00-1.056-.336 5.408 5.408 0 00-.96-.096 3.66 3.66 0 01-.768-.144c-.192-.064-.304-.24-.336-.528 0-.128.272-.368.816-.72.512-.384 1.152-.688 1.92-.912a7.412 7.412 0 012.544-.24c.896.064 1.728.464 2.496 1.2.64.64 1.168 1.248 1.584 1.824.416.544.752 1.024 1.008 1.44.32.512.56.96.72 1.344a15.553 15.553 0 012.784-2.16c.832-.512 1.76-.928 2.784-1.248a5.29 5.29 0 013.072-.048c.256.096.368.304.336.624 0 .288-.128.608-.384.96-.224.352-.544.688-.96 1.008-.416.32-.912.544-1.488.672-1.12.256-2.016.736-2.688 1.44a7.506 7.506 0 00-1.488 2.496 11.286 11.286 0 00-.672 3.024 33.945 33.945 0 00-.144 3.072c.032 2.08-.256 3.632-.864 4.656-.608.992-1.424 1.52-2.448 1.584-1.184.064-2.064-.48-2.64-1.632-.576-1.152-.864-3.104-.864-5.856.064-3.488-.096-6.144-.48-7.968-.384-1.856-.992-3.008-1.824-3.456zm28.02-4.128c.128.256.112.464-.048.624-.16.128-.4.272-.72.432-.288.128-.624.304-1.008.528-.384.192-.752.48-1.104.864-.352.384-.656.88-.912 1.488-.224.608-.336 1.376-.336 2.304a5.355 5.355 0 00.624 2.688c.48.864 1.056 1.712 1.728 2.544.672.8 1.408 1.6 2.208 2.4.8.768 1.52 1.568 2.16 2.4.64.8 1.136 1.632 1.488 2.496.384.832.512 1.696.384 2.592-.16.896-.672 1.648-1.536 2.256-.832.64-1.856 1.12-3.072 1.44-1.216.352-2.528.544-3.936.576a16.047 16.047 0 01-3.984-.384c-1.216-.256-2.272-.672-3.168-1.248-.896-.576-1.456-1.312-1.68-2.208-.352-1.312-.448-2.416-.288-3.312.128-.896.384-1.632.768-2.208.384-.608.816-1.072 1.296-1.392.48-.352.896-.624 1.248-.816.736-.416 1.216-.416 1.44 0 .256.416.112 1.072-.432 1.968-.256.448-.32.96-.192 1.536.128.544.416 1.072.864 1.584.48.48 1.072.896 1.776 1.248.736.352 1.568.544 2.496.576a6.315 6.315 0 001.728-.144c.608-.16 1.104-.384 1.488-.672.384-.32.608-.688.672-1.104.096-.448-.064-.944-.48-1.488s-1.136-1.232-2.16-2.064a73.65 73.65 0 01-3.168-2.736 26.473 26.473 0 01-2.832-3.216c-.8-1.152-1.2-2.304-1.2-3.456 0-2.272.4-3.936 1.2-4.992.832-1.056 2.16-1.744 3.984-2.064.896-.16 1.632-.224 2.208-.192.576 0 1.024.064 1.344.192.352.128.608.288.768.48.16.16.288.32.384.48zm16.605 2.784c1.472.896 2.608 2 3.408 3.312a10.75 10.75 0 011.536 4.08 10.441 10.441 0 01-.096 4.224 11.419 11.419 0 01-1.632 3.84 9.402 9.402 0 01-2.832 2.784c-1.152.736-2.464 1.12-3.936 1.152-1.856.032-3.424-.368-4.704-1.2a8.808 8.808 0 01-2.88-3.264 11.34 11.34 0 01-1.2-4.272c-.096-1.568.08-3.024.528-4.368a8.196 8.196 0 012.208-3.504c1.024-.96 2.304-1.488 3.84-1.584 1.408-.096 2.432-.24 3.072-.432.64-.224 1.104-.416 1.392-.576l.576-.384c.128-.064.368 0 .72.192zm-5.616 4.176c-.192.192-.352.656-.48 1.392-.128.736-.224 1.6-.288 2.592a34.34 34.34 0 00.048 3.12c.064 1.088.176 2.08.336 2.976.192.896.448 1.632.768 2.208.32.576.704.832 1.152.768.448-.064.88-.352 1.296-.864.416-.544.784-1.2 1.104-1.968.352-.8.624-1.664.816-2.592.224-.96.352-1.888.384-2.784.064-.896.016-1.712-.144-2.448-.16-.736-.432-1.296-.816-1.68-.896-.928-1.664-1.424-2.304-1.488-.608-.096-1.232.16-1.872.768zm24.741-4.176c1.472.896 2.608 2 3.408 3.312a10.75 10.75 0 011.536 4.08 10.441 10.441 0 01-.096 4.224 11.419 11.419 0 01-1.632 3.84 9.402 9.402 0 01-2.832 2.784c-1.152.736-2.464 1.12-3.936 1.152-1.856.032-3.424-.368-4.704-1.2a8.808 8.808 0 01-2.88-3.264 11.34 11.34 0 01-1.2-4.272c-.096-1.568.08-3.024.528-4.368a8.196 8.196 0 012.208-3.504c1.024-.96 2.304-1.488 3.84-1.584 1.408-.096 2.432-.24 3.072-.432.64-.224 1.104-.416 1.392-.576l.576-.384c.128-.064.368 0 .72.192zm-5.616 4.176c-.192.192-.352.656-.48 1.392-.128.736-.224 1.6-.288 2.592a34.34 34.34 0 00.048 3.12c.064 1.088.176 2.08.336 2.976.192.896.448 1.632.768 2.208.32.576.704.832 1.152.768.448-.064.88-.352 1.296-.864.416-.544.784-1.2 1.104-1.968.352-.8.624-1.664.816-2.592.224-.96.352-1.888.384-2.784.064-.896.016-1.712-.144-2.448-.16-.736-.432-1.296-.816-1.68-.896-.928-1.664-1.424-2.304-1.488-.608-.096-1.232.16-1.872.768zm13.461-1.104c.192-.32.464-.608.816-.864a7.566 7.566 0 011.152-.72 5.215 5.215 0 011.2-.48c.416-.128.752-.192 1.008-.192.128 0 .224.128.288.384.096.256.176.592.24 1.008.096.416.16.896.192 1.44l.096 1.584c.064 1.28.08 2.736.048 4.368.416-.832.864-1.648 1.344-2.448.416-.672.896-1.36 1.44-2.064a12.17 12.17 0 011.68-1.872 6.095 6.095 0 011.776-1.104 4.422 4.422 0 012.016-.288c.672.032 1.312.272 1.92.72.64.448 1.2 1.12 1.68 2.016.32.608.56 1.376.72 2.304.16.896.272 1.856.336 2.88.096.992.176 2 .24 3.024.096 1.024.24 1.968.432 2.832.224.864.512 1.6.864 2.208a2.52 2.52 0 001.632 1.152c.576.16 1.136.176 1.68.048.576-.16 1.104-.352 1.584-.576a39.99 39.99 0 011.296-.624c.384-.192.656-.24.816-.144.128.128.048.48-.24 1.056-.256.576-.704 1.168-1.344 1.776-.608.608-1.392 1.12-2.352 1.536-.928.448-2 .592-3.216.432-2.4-.32-4.128-1.552-5.184-3.696-1.056-2.176-1.664-5.008-1.824-8.496-.064-1.248-.224-2.176-.48-2.784-.224-.608-.528-.928-.912-.96-.384-.032-.832.192-1.344.672-.48.448-1.008 1.104-1.584 1.968-.672.992-1.168 1.984-1.488 2.976-.32.992-.544 1.92-.672 2.784-.096.864-.16 1.632-.192 2.304-.032.672-.112 1.168-.24 1.488-.16.352-.496.592-1.008.72a6.92 6.92 0 01-1.68.192 7.944 7.944 0 01-1.728-.192c-.544-.128-.928-.288-1.152-.48-.128-.128-.24-.576-.336-1.344-.064-.8-.112-1.744-.144-2.832-.032-1.12-.048-2.304-.048-3.552.032-1.28.064-2.48.096-3.6.064-1.152.144-2.144.24-2.976.096-.832.208-1.36.336-1.584zm38.688-11.664c-.32 2.208-.88 4.112-1.68 5.712-.8 1.6-1.632 2.912-2.496 3.936-1.024 1.216-2.128 2.208-3.312 2.976-.224.864-.304 1.824-.24 2.88.064.928.24 2.032.528 3.312.288 1.248.832 2.672 1.632 4.272.48.96 1.008 1.664 1.584 2.112.576.416 1.168.656 1.776.72a4.004 4.004 0 001.824-.24 8.305 8.305 0 001.776-.864c.576-.384 1.104-.8 1.584-1.248.48-.48.88-.912 1.2-1.296.48-.544.848-.864 1.104-.96.256-.128.448-.112.576.048.128.128.192.336.192.624s-.048.56-.144.816c-.544 1.44-1.264 2.704-2.16 3.792-.384.48-.832.944-1.344 1.392a9.74 9.74 0 01-1.728 1.2 9.22 9.22 0 01-2.064.768c-.768.192-1.6.256-2.496.192-1.152-.032-2.192-.288-3.12-.768a9.798 9.798 0 01-2.4-1.68 11.87 11.87 0 01-1.824-2.352 26.312 26.312 0 01-1.344-2.688c-.864-2.112-1.472-4.496-1.824-7.152-.064.064-.192.112-.384.144-.16.032-.416.064-.768.096-.32 0-.8-.032-1.44-.096-.576-.032-.992-.176-1.248-.432-.288-.256-.416-.528-.384-.816 0-.288.144-.576.432-.864.288-.288.72-.512 1.296-.672.64-.16 1.136-.336 1.488-.528.352-.192.64-.368.864-.528.224-.192.4-.4.528-.624-.064-.416-.08-.976-.048-1.68.032-.608.08-1.392.144-2.352.096-.992.256-2.208.48-3.648.224-1.44.56-2.784 1.008-4.032.448-1.28 1.04-2.4 1.776-3.36a7.927 7.927 0 012.688-2.256c1.088-.576 2.368-.864 3.84-.864.96.096 1.776.416 2.448.96.576.448 1.056 1.152 1.44 2.112.384.96.464 2.272.24 3.936zm-8.4 8.112a35.164 35.164 0 001.536-1.968c.448-.608.912-1.28 1.392-2.016.48-.768.928-1.536 1.344-2.304.288-.544.528-1.12.72-1.728.224-.608.352-1.168.384-1.68.064-.544-.016-.992-.24-1.344-.192-.384-.544-.608-1.056-.672-.416-.064-.8.064-1.152.384-.32.288-.624.704-.912 1.248-.256.544-.48 1.168-.672 1.872a42.61 42.61 0 00-.528 2.16c-.352 1.76-.624 3.776-.816 6.048zm9.096 12.144c.256-.352.496-.672.72-.96a8.35 8.35 0 00.624-1.056 7.5 7.5 0 00.576-1.44c.192-.544.352-1.216.48-2.016s.208-1.536.24-2.208c.032-.704.08-1.296.144-1.776.064-.512.176-.928.336-1.248.16-.32.448-.528.864-.624.384-.064.912-.192 1.584-.384a7.506 7.506 0 011.968-.288c.64 0 1.152.192 1.536.576.416.352.528 1.056.336 2.112-.096.416-.192 1.024-.288 1.824-.064.8-.128 1.696-.192 2.688a45.52 45.52 0 00-.096 3.024c.032 1.024.112 1.984.24 2.88.128.896.32 1.664.576 2.304.288.64.672 1.056 1.152 1.248.96.384 1.744.384 2.352 0 .64-.384 1.296-.992 1.968-1.824.288-.352.592-.64.912-.864.32-.256.576-.352.768-.288.224.032.32.256.288.672-.032.384-.272 1.056-.72 2.016-.896 1.92-2.048 3.2-3.456 3.84-1.408.608-3.072.72-4.992.336-1.056-.224-1.904-.736-2.544-1.536-.64-.8-1.136-1.632-1.488-2.496a16.181 16.181 0 01-.768-2.448c-.16-.736-.304-1.136-.432-1.2-.16-.096-.304-.112-.432-.048-.096.032-.208.112-.336.24-.128.096-.288.208-.48.336a2.118 2.118 0 01-.72.288c-.672.128-1.056.032-1.152-.288-.128-.352.016-.816.432-1.392zm4.656-23.712c.416-.704 1.008-1.088 1.776-1.152a4.55 4.55 0 012.256.288c.736.288 1.344.688 1.824 1.2s.656.976.528 1.392c-.16.384-.416.72-.768 1.008-.352.256-.752.48-1.2.672-.448.16-.912.288-1.392.384-.48.064-.896.08-1.248.048a1.917 1.917 0 01-1.056-.432 2.996 2.996 0 01-.768-.912 2.908 2.908 0 01-.336-1.2c0-.448.128-.88.384-1.296zm22.266 23.952c-.16.192-.224.592-.192 1.2.064.608.16 1.328.288 2.16.128.832.256 1.728.384 2.688.16.96.24 1.888.24 2.784 0 .896-.032 1.664-.096 2.304a11.06 11.06 0 01-.24 1.872 9.955 9.955 0 01-.432 1.68c-.16.576-.368 1.216-.624 1.92a19.362 19.362 0 01-1.152 2.448 9.095 9.095 0 01-1.488 1.968 7.192 7.192 0 01-1.92 1.44c-.704.384-1.536.672-2.496.864-1.856.256-3.264.08-4.224-.528-.96-.608-1.616-1.472-1.968-2.592-.384-1.088-.512-2.336-.384-3.744.096-1.408.272-2.768.528-4.08a19.494 19.494 0 012.352-6.96c1.248-2.176 2.944-3.984 5.088-5.424a14.845 14.845 0 00-1.056-3.648 58.832 58.832 0 00-1.44-3.36 66.826 66.826 0 01-1.2-2.784c-.32-.8-.384-1.424-.192-1.872.352-.256.768-.4 1.248-.432a4.228 4.228 0 011.536.192 7.24 7.24 0 011.584.576c.512.224.944.464 1.296.72.448.448.832.992 1.152 1.632.32.608.592 1.264.816 1.968.256.704.464 1.424.624 2.16.192.736.384 1.408.576 2.016.128-.064.432-.16.912-.288.48-.16 1.04-.32 1.68-.48.672-.192 1.36-.352 2.064-.48.736-.16 1.408-.256 2.016-.288.64-.032 1.152.016 1.536.144.416.128.624.368.624.72s-.32.672-.96.96c-.64.256-1.392.528-2.256.816-.832.256-1.664.528-2.496.816-.8.256-1.376.56-1.728.912zm-9.552 17.664c.704.096 1.328-.032 1.872-.384a4.807 4.807 0 001.392-1.392 6.533 6.533 0 00.864-1.92 11.73 11.73 0 00.48-1.968c.096-.352.16-.912.192-1.68.064-.736.064-1.504 0-2.304-.032-.832-.128-1.6-.288-2.304-.128-.736-.32-1.232-.576-1.488-.704.416-1.376 1.024-2.016 1.824-.64.8-1.2 1.68-1.68 2.64-.48.928-.88 1.904-1.2 2.928-.288 1.024-.464 1.952-.528 2.784-.064.864.016 1.584.24 2.16.256.608.672.976 1.248 1.104zm2.496-33.552a3.626 3.626 0 00-.96-.192 12.533 12.533 0 01-1.056-.24 4.486 4.486 0 01-.96-.48 1.6 1.6 0 01-.576-.864c-.128-.832-.096-1.456.096-1.872.192-.416.464-.688.816-.816.384-.128.8-.128 1.248 0 .48.096.944.272 1.392.528.48.256.896.544 1.248.864.384.32.672.624.864.912.192.256.256.528.192.816a1.547 1.547 0 01-.432.768c-.224.224-.512.4-.864.528-.32.128-.656.144-1.008.048zm20.439 6.96c.256-.608.576-1.28.96-2.016.416-.736 1.072-1.568 1.968-2.496.352-.384.848-.8 1.488-1.248a7.13 7.13 0 012.16-1.056 4.2 4.2 0 012.352 0c.832.192 1.6.768 2.304 1.728a6.355 6.355 0 011.152 3.168 8.22 8.22 0 01-.336 3.408 9.031 9.031 0 01-1.632 2.976c-.704.896-1.536 1.552-2.496 1.968-.096.032-.096.272 0 .72.096.448.256.976.48 1.584.256.608.576 1.216.96 1.824.384.608.832 1.088 1.344 1.44.512.384 1.04.56 1.584.528a4.501 4.501 0 001.68-.432c.544-.256 1.072-.56 1.584-.912.512-.384.976-.736 1.392-1.056.448-.32.816-.576 1.104-.768.32-.192.56-.224.72-.096.224.192.304.544.24 1.056-.032.512-.208 1.088-.528 1.728-.288.64-.704 1.312-1.248 2.016a11.792 11.792 0 01-1.872 1.92 9.985 9.985 0 01-2.352 1.344c-.864.32-1.792.448-2.784.384-1.088-.064-2.016-.352-2.784-.864a8.63 8.63 0 01-1.968-1.92 12.723 12.723 0 01-1.344-2.4 32.11 32.11 0 01-.864-2.352c-.192-.704-.352-1.28-.48-1.728-.096-.48-.176-.704-.24-.672-.32.128-.576.224-.768.288a.837.837 0 00-.432.24c-.096.096-.176.272-.24.528-.032.224-.064.592-.096 1.104 0 .224-.016.592-.048 1.104 0 .512-.016 1.056-.048 1.632 0 .576-.032 1.136-.096 1.68-.032.544-.096.976-.192 1.296a3.146 3.146 0 01-1.008 1.68 4.058 4.058 0 01-1.584.864c-.576.192-1.12.24-1.632.144-.48-.064-.8-.272-.96-.624-.16-.352-.288-1.04-.384-2.064a60.131 60.131 0 01-.096-3.6v-4.272c.032-1.472.048-2.816.048-4.032a46.965 46.965 0 000-3.024c0-.8-.048-1.184-.144-1.152-.032 0-.16.112-.384.336a3.226 3.226 0 01-.72.528 2.34 2.34 0 01-.912.288c-.32.032-.592-.144-.816-.528-.192-.288-.192-.592 0-.912.224-.352.528-.768.912-1.248.416-.48.864-1.072 1.344-1.776.48-.736.896-1.632 1.248-2.688l.24-.72c.128-.288.256-.672.384-1.152a12.22 12.22 0 00.288-1.872c.096-.768.144-1.712.144-2.832 0-2.56.4-4.24 1.2-5.04.8-.832 1.808-.912 3.024-.24.608.352 1.072.8 1.392 1.344.352.512.576 1.072.672 1.68a6.432 6.432 0 010 1.92 9.28 9.28 0 01-.384 1.92c-.416 1.504-1.088 3.056-2.016 4.656l-.432 7.008-.048-.24zm3.504 3.216c.416.064.832.032 1.248-.096.352-.096.752-.288 1.2-.576.48-.32.944-.8 1.392-1.44.864-1.184 1.344-2.176 1.44-2.976.096-.8-.032-1.28-.384-1.44-.352-.192-.8-.128-1.344.192-.512.288-1.024.752-1.536 1.392-.48.608-.912 1.344-1.296 2.208a8.863 8.863 0 00-.72 2.736zm16.716-4.176a7.653 7.653 0 011.824-2.208 10.441 10.441 0 012.448-1.536 12.087 12.087 0 012.784-.816c.992-.16 1.952-.224 2.88-.192.96.064 1.776.4 2.448 1.008.672.576 1.136 1.328 1.392 2.256.288.896.32 1.888.096 2.976-.192 1.088-.688 2.176-1.488 3.264-.896 1.216-1.824 2.112-2.784 2.688-.928.544-1.792.944-2.592 1.2-.928.288-1.856.4-2.784.336-.064 1.184.032 2.224.288 3.12.096.384.224.752.384 1.104.192.352.432.656.72.912a2.86 2.86 0 001.008.576c.416.128.896.16 1.44.096 1.152-.16 2.096-.528 2.832-1.104.736-.576 1.344-1.184 1.824-1.824.512-.64.928-1.2 1.248-1.68.32-.512.64-.768.96-.768.224 0 .368.304.432.912.064.576 0 1.296-.192 2.16-.16.832-.464 1.728-.912 2.688a7.407 7.407 0 01-1.92 2.448c-.8.704-1.808 1.2-3.024 1.488-1.216.32-2.672.256-4.368-.192-1.536-.384-2.768-1.104-3.696-2.16-.928-1.088-1.632-2.208-2.112-3.36-.576-1.312-.96-2.768-1.152-4.368a10.484 10.484 0 010-2.832c.064-.832.24-1.792.528-2.88.32-1.088.816-2.192 1.488-3.312zm4.32 5.376c.512 0 1.04-.064 1.584-.192.448-.128.944-.352 1.488-.672.544-.32 1.056-.8 1.536-1.44.448-.64.768-1.216.96-1.728.192-.512.32-.944.384-1.296.096-.384.112-.736.048-1.056a8.39 8.39 0 00-1.824.384 5.749 5.749 0 00-1.536.768c-.512.32-.928.784-1.248 1.392a17.225 17.225 0 00-.864 1.776c-.192.48-.32.88-.384 1.2-.096.352-.144.64-.144.864zM3.8 85.967c-.448-.032-.832-.384-1.152-1.056-.288-.704-.528-1.552-.72-2.544a32.076 32.076 0 01-.432-3.312 180.362 180.362 0 01-.24-3.312 187.73 187.73 0 00-.096-2.592c-.032-.704-.064-1.104-.096-1.2a4.069 4.069 0 01-.336-1.872c.064-.672.176-1.328.336-1.968.16-.64.336-1.216.528-1.728.224-.544.352-.96.384-1.248.096-.704.16-1.6.192-2.688.064-1.088.128-2.208.192-3.36.096-1.152.208-2.256.336-3.312.128-1.088.304-1.984.528-2.688.256-.864.64-1.44 1.152-1.728.512-.32 1.008-.416 1.488-.288.512.096.96.368 1.344.816.384.416.592.928.624 1.536.032.736.064 1.6.096 2.592s.048 1.968.048 2.928c.032.96.048 1.824.048 2.592.032.768.048 1.28.048 1.536a11.426 11.426 0 001.968-1.44c.672-.608 1.376-1.264 2.112-1.968a56.172 56.172 0 012.4-2.256c.896-.8 1.936-1.584 3.12-2.352.928-.576 1.872-1.152 2.832-1.728.992-.576 2-1.072 3.024-1.488.48-.16.912-.208 1.296-.144.384.032.656.16.816.384.192.224.256.528.192.912-.064.352-.304.736-.72 1.152-.64.608-1.52 1.36-2.64 2.256-1.12.864-2.336 1.792-3.648 2.784a651.72 651.72 0 00-3.936 2.976 79.455 79.455 0 00-3.552 2.928c-1.056.896-1.92 1.712-2.592 2.448-.64.704-.944 1.248-.912 1.632.032.416.304.96.816 1.632a23.852 23.852 0 002.016 2.16c.8.736 1.696 1.504 2.688 2.304.992.768 2 1.472 3.024 2.112l1.536.96c.512.32 1.04.592 1.584.816a6.903 6.903 0 001.824.432c.64.064 1.344-.016 2.112-.24 1.12-.32 2.128-.352 3.024-.096.928.224 1.68.608 2.256 1.152.576.512.944 1.088 1.104 1.728.16.64.048 1.168-.336 1.584-1.088 1.248-2.24 2.048-3.456 2.4-1.184.384-2.416.448-3.696.192-1.28-.256-2.576-.752-3.888-1.488a37.894 37.894 0 01-3.84-2.544c-1.28-.992-2.56-2.032-3.84-3.12a212.864 212.864 0 00-3.6-3.072c-.096-.064-.176.144-.24.624-.032.448-.08 1.056-.144 1.824a25.18 25.18 0 01-.24 2.448c-.096.864-.256 1.68-.48 2.448-.192.736-.48 1.344-.864 1.824-.352.512-.816.752-1.392.72zm32.727-21.552c1.472.896 2.608 2 3.408 3.312a10.75 10.75 0 011.536 4.08 10.441 10.441 0 01-.096 4.224 11.419 11.419 0 01-1.632 3.84 9.402 9.402 0 01-2.832 2.784c-1.152.736-2.464 1.12-3.936 1.152-1.856.032-3.424-.368-4.704-1.2a8.808 8.808 0 01-2.88-3.264 11.34 11.34 0 01-1.2-4.272c-.096-1.568.08-3.024.528-4.368a8.196 8.196 0 012.208-3.504c1.024-.96 2.304-1.488 3.84-1.584 1.408-.096 2.432-.24 3.072-.432.64-.224 1.104-.416 1.392-.576l.576-.384c.128-.064.368 0 .72.192zm-5.616 4.176c-.192.192-.352.656-.48 1.392-.128.736-.224 1.6-.288 2.592a34.34 34.34 0 00.048 3.12c.064 1.088.176 2.08.336 2.976.192.896.448 1.632.768 2.208.32.576.704.832 1.152.768.448-.064.88-.352 1.296-.864.416-.544.784-1.2 1.104-1.968.352-.8.624-1.664.816-2.592.224-.96.352-1.888.384-2.784.064-.896.016-1.712-.144-2.448-.16-.736-.432-1.296-.816-1.68-.896-.928-1.664-1.424-2.304-1.488-.608-.096-1.232.16-1.872.768zm12.741-2.832a2.71 2.71 0 00-1.056-.336 5.408 5.408 0 00-.96-.096 3.66 3.66 0 01-.768-.144c-.192-.064-.304-.24-.336-.528 0-.128.272-.368.816-.72.512-.384 1.152-.688 1.92-.912a7.412 7.412 0 012.544-.24c.896.064 1.728.464 2.496 1.2.64.64 1.168 1.248 1.584 1.824.416.544.752 1.024 1.008 1.44.32.512.56.96.72 1.344a15.553 15.553 0 012.784-2.16c.832-.512 1.76-.928 2.784-1.248a5.29 5.29 0 013.072-.048c.256.096.368.304.336.624 0 .288-.128.608-.384.96-.224.352-.544.688-.96 1.008-.416.32-.912.544-1.488.672-1.12.256-2.016.736-2.688 1.44a7.506 7.506 0 00-1.488 2.496 11.286 11.286 0 00-.672 3.024 33.945 33.945 0 00-.144 3.072c.032 2.08-.256 3.632-.864 4.656-.608.992-1.424 1.52-2.448 1.584-1.184.064-2.064-.48-2.64-1.632-.576-1.152-.864-3.104-.864-5.856.064-3.488-.096-6.144-.48-7.968-.384-1.856-.992-3.008-1.824-3.456zM63.8 50.447c.096-.576.432-.896 1.008-.96.576-.064 1.184.064 1.824.384.64.32 1.232.784 1.776 1.392.544.576.832 1.216.864 1.92l.096 2.256c.032.768.064 1.456.096 2.064.032.736.064 1.424.096 2.064a23.098 23.098 0 012.88-.096 8.805 8.805 0 011.968.288c.576.16.864.448.864.864 0 .448-.288.832-.864 1.152a9.163 9.163 0 01-1.872.816c-.832.256-1.76.48-2.784.672.064 2.144.128 4.224.192 6.24.032 1.76.032 3.6 0 5.52 0 1.92-.064 3.6-.192 5.04-.16 1.44-.416 2.496-.768 3.168-.32.672-.688 1.104-1.104 1.296a2.01 2.01 0 01-1.296.144 11.361 11.361 0 01-1.248-.432c-.192-.064-.368-.4-.528-1.008-.16-.608-.288-1.392-.384-2.352a71.18 71.18 0 01-.24-3.216 137.273 137.273 0 01-.144-3.696c-.096-2.944-.144-6.24-.144-9.888-.864.192-1.664.288-2.4.288-.64 0-1.232-.096-1.776-.288-.544-.224-.88-.624-1.008-1.2-.096-.448.096-.848.576-1.2a8.819 8.819 0 011.728-.912 18.12 18.12 0 012.592-.768v-1.44a5.25 5.25 0 00.048-.624c0-1.28-.016-2.32-.048-3.12-.032-.8-.048-1.456-.048-1.968 0-.544.016-.976.048-1.296.032-.352.096-.72.192-1.104zm10.113 25.632c.256-.352.496-.672.72-.96a8.35 8.35 0 00.624-1.056 7.5 7.5 0 00.576-1.44c.192-.544.352-1.216.48-2.016s.208-1.536.24-2.208c.032-.704.08-1.296.144-1.776.064-.512.176-.928.336-1.248.16-.32.448-.528.864-.624.384-.064.912-.192 1.584-.384a7.506 7.506 0 011.968-.288c.64 0 1.152.192 1.536.576.416.352.528 1.056.336 2.112-.096.416-.192 1.024-.288 1.824-.064.8-.128 1.696-.192 2.688a45.52 45.52 0 00-.096 3.024c.032 1.024.112 1.984.24 2.88.128.896.32 1.664.576 2.304.288.64.672 1.056 1.152 1.248.96.384 1.744.384 2.352 0 .64-.384 1.296-.992 1.968-1.824.288-.352.592-.64.912-.864.32-.256.576-.352.768-.288.224.032.32.256.288.672-.032.384-.272 1.056-.72 2.016-.896 1.92-2.048 3.2-3.456 3.84-1.408.608-3.072.72-4.992.336-1.056-.224-1.904-.736-2.544-1.536-.64-.8-1.136-1.632-1.488-2.496a16.181 16.181 0 01-.768-2.448c-.16-.736-.304-1.136-.432-1.2-.16-.096-.304-.112-.432-.048-.096.032-.208.112-.336.24-.128.096-.288.208-.48.336a2.118 2.118 0 01-.72.288c-.672.128-1.056.032-1.152-.288-.128-.352.016-.816.432-1.392zm4.656-23.712c.416-.704 1.008-1.088 1.776-1.152a4.55 4.55 0 012.256.288c.736.288 1.344.688 1.824 1.2s.656.976.528 1.392c-.16.384-.416.72-.768 1.008-.352.256-.752.48-1.2.672-.448.16-.912.288-1.392.384-.48.064-.896.08-1.248.048a1.917 1.917 0 01-1.056-.432 2.996 2.996 0 01-.768-.912 2.908 2.908 0 01-.336-1.2c0-.448.128-.88.384-1.296zm11.178 15.12c.192-.32.464-.608.816-.864a7.566 7.566 0 011.152-.72 5.215 5.215 0 011.2-.48c.416-.128.752-.192 1.008-.192.128 0 .224.128.288.384.096.256.176.592.24 1.008.096.416.16.896.192 1.44l.096 1.584c.064 1.28.08 2.736.048 4.368.416-.832.864-1.648 1.344-2.448.416-.672.896-1.36 1.44-2.064a12.17 12.17 0 011.68-1.872 6.095 6.095 0 011.776-1.104 4.422 4.422 0 012.016-.288c.672.032 1.312.272 1.92.72.64.448 1.2 1.12 1.68 2.016.32.608.56 1.376.72 2.304.16.896.272 1.856.336 2.88.096.992.176 2 .24 3.024.096 1.024.24 1.968.432 2.832.224.864.512 1.6.864 2.208a2.52 2.52 0 001.632 1.152c.576.16 1.136.176 1.68.048.576-.16 1.104-.352 1.584-.576a39.99 39.99 0 011.296-.624c.384-.192.656-.24.816-.144.128.128.048.48-.24 1.056-.256.576-.704 1.168-1.344 1.776-.608.608-1.392 1.12-2.352 1.536-.928.448-2 .592-3.216.432-2.4-.32-4.128-1.552-5.184-3.696-1.056-2.176-1.664-5.008-1.824-8.496-.064-1.248-.224-2.176-.48-2.784-.224-.608-.528-.928-.912-.96-.384-.032-.832.192-1.344.672-.48.448-1.008 1.104-1.584 1.968-.672.992-1.168 1.984-1.488 2.976-.32.992-.544 1.92-.672 2.784-.096.864-.16 1.632-.192 2.304-.032.672-.112 1.168-.24 1.488-.16.352-.496.592-1.008.72a6.92 6.92 0 01-1.68.192 7.944 7.944 0 01-1.728-.192c-.544-.128-.928-.288-1.152-.48-.128-.128-.24-.576-.336-1.344-.064-.8-.112-1.744-.144-2.832-.032-1.12-.048-2.304-.048-3.552.032-1.28.064-2.48.096-3.6.064-1.152.144-2.144.24-2.976.096-.832.208-1.36.336-1.584zm43.446 10.176c.704-.288 1.232-.416 1.584-.384.384 0 .624.112.72.336.096.224.064.496-.096.816-.16.32-.432.624-.816.912-.48.352-.96.72-1.44 1.104-.448.384-.928.8-1.44 1.248-.512.416-1.072.88-1.68 1.392a67.674 67.674 0 00-2.016 1.776c.224 1.504.352 3.024.384 4.56a25.133 25.133 0 01-.288 4.464c-.224 1.44-.592 2.752-1.104 3.936-.512 1.216-1.2 2.208-2.064 2.976-1.216 1.088-2.448 1.712-3.696 1.872-1.248.16-2.352-.048-3.312-.624s-1.712-1.472-2.256-2.688c-.544-1.184-.704-2.592-.48-4.224.256-1.664.768-3.136 1.536-4.416.8-1.28 1.632-2.352 2.496-3.216a18.462 18.462 0 013.312-2.64 18.295 18.295 0 00-.192-1.44 17.809 17.809 0 00-.336-1.728 71.46 71.46 0 00-.624-2.4 8.126 8.126 0 00-.624-1.536 9.608 9.608 0 00-.672-1.296c-.288-.416-.56-.784-.816-1.104a14.228 14.228 0 01-1.584 1.536c-.448.384-.944.736-1.488 1.056-.544.288-1.056.432-1.536.432-.512 0-1.088-.224-1.728-.672-.64-.48-1.216-1.12-1.728-1.92-.48-.8-.864-1.728-1.152-2.784-.256-1.088-.288-2.24-.096-3.456.224-1.216.512-2.192.864-2.928.352-.736.736-1.312 1.152-1.728.416-.448.864-.768 1.344-.96a8.21 8.21 0 011.44-.432c.704-.128 1.536-.032 2.496.288.992.32 1.92.736 2.784 1.248.896.48 1.648.992 2.256 1.536.64.512.944.912.912 1.2-.032.288-.384.4-1.056.336l-2.256-.336a16.392 16.392 0 00-2.496-.192c-.8 0-1.36.256-1.68.768a7.082 7.082 0 00-.768 1.728 9.269 9.269 0 00-.384 1.824 5.678 5.678 0 00.144 1.68c.128.512.368.912.72 1.2.192.16.448.112.768-.144a69.32 69.32 0 001.2-1.008c.448-.416.944-.8 1.488-1.152a3.623 3.623 0 011.728-.672c.64-.096 1.296.064 1.968.48.672.384 1.36 1.152 2.064 2.304.416.672.848 1.584 1.296 2.736.48 1.12.896 2.496 1.248 4.128.416-.256.88-.56 1.392-.912a48.827 48.827 0 011.632-1.104 34.015 34.015 0 011.584-1.056 11.82 11.82 0 011.392-.72zm-11.232 18.72c.192-.544.304-1.248.336-2.112.064-.832.096-1.664.096-2.496-.032-.96-.08-1.968-.144-3.024a13.588 13.588 0 00-1.776 1.824 9.35 9.35 0 00-1.2 1.92 4.873 4.873 0 00-.384 2.352c.064.8.24 1.376.528 1.728.288.384.592.592.912.624.352.064.672 0 .96-.192.32-.16.544-.368.672-.624zm20.961-34.752c.128.256.112.464-.048.624-.16.128-.4.272-.72.432-.288.128-.624.304-1.008.528-.384.192-.752.48-1.104.864-.352.384-.656.88-.912 1.488-.224.608-.336 1.376-.336 2.304a5.355 5.355 0 00.624 2.688c.48.864 1.056 1.712 1.728 2.544.672.8 1.408 1.6 2.208 2.4.8.768 1.52 1.568 2.16 2.4.64.8 1.136 1.632 1.488 2.496.384.832.512 1.696.384 2.592-.16.896-.672 1.648-1.536 2.256-.832.64-1.856 1.12-3.072 1.44-1.216.352-2.528.544-3.936.576a16.047 16.047 0 01-3.984-.384c-1.216-.256-2.272-.672-3.168-1.248-.896-.576-1.456-1.312-1.68-2.208-.352-1.312-.448-2.416-.288-3.312.128-.896.384-1.632.768-2.208.384-.608.816-1.072 1.296-1.392.48-.352.896-.624 1.248-.816.736-.416 1.216-.416 1.44 0 .256.416.112 1.072-.432 1.968-.256.448-.32.96-.192 1.536.128.544.416 1.072.864 1.584.48.48 1.072.896 1.776 1.248.736.352 1.568.544 2.496.576a6.315 6.315 0 001.728-.144c.608-.16 1.104-.384 1.488-.672.384-.32.608-.688.672-1.104.096-.448-.064-.944-.48-1.488s-1.136-1.232-2.16-2.064a73.65 73.65 0 01-3.168-2.736 26.473 26.473 0 01-2.832-3.216c-.8-1.152-1.2-2.304-1.2-3.456 0-2.272.4-3.936 1.2-4.992.832-1.056 2.16-1.744 3.984-2.064.896-.16 1.632-.224 2.208-.192.576 0 1.024.064 1.344.192.352.128.608.288.768.48.16.16.288.32.384.48zm17.661 3.072c-.096.416-.368.768-.816 1.056-.448.256-.96.528-1.536.816a33.06 33.06 0 00-1.776.96 4.912 4.912 0 00-1.536 1.392c-.64.928-1.088 2.032-1.344 3.312a18.843 18.843 0 00-.384 3.696c.032 1.152.176 2.16.432 3.024.288.832.64 1.248 1.056 1.248.512 0 1.04-.24 1.584-.72a9.287 9.287 0 001.536-1.632c.448-.64.816-1.28 1.104-1.92.288-.672.432-1.184.432-1.536 0-.352-.016-.832-.048-1.44a18.261 18.261 0 010-1.872c.064-.608.16-1.136.288-1.584.16-.448.416-.688.768-.72a7.638 7.638 0 001.248-.24c.512-.128.992-.144 1.44-.048.448.096.8.416 1.056.96.288.512.4 1.408.336 2.688-.064 1.312-.016 2.512.144 3.6.192 1.088.448 2.048.768 2.88.32.8.704 1.456 1.152 1.968.448.48.928.768 1.44.864.704.128 1.28.112 1.728-.048.48-.192.864-.4 1.152-.624.32-.256.592-.48.816-.672.224-.192.432-.24.624-.144.224.096.272.368.144.816-.096.448-.352.944-.768 1.488-.384.512-.928 1.008-1.632 1.488-.704.48-1.536.784-2.496.912-1.44.256-2.672.144-3.696-.336-.992-.48-1.808-1.04-2.448-1.68a9.141 9.141 0 01-1.776-2.688 6.184 6.184 0 01-1.344 2.016c-.48.512-1.104.992-1.872 1.44-.768.416-1.712.656-2.832.72-1.12.032-2.176-.32-3.168-1.056s-1.792-1.728-2.4-2.976c-.576-1.248-.896-2.688-.96-4.32-.032-1.664.336-3.408 1.104-5.232.512-1.184 1.184-2.192 2.016-3.024a11.816 11.816 0 012.64-2.016c.96-.544 1.904-.928 2.832-1.152.96-.256 1.808-.4 2.544-.432.768-.032 1.376.032 1.824.192.48.128.688.32.624.576zm23.243 2.208c-.096.16-.4.208-.912.144-.512-.096-1.104-.112-1.776-.048-.672.032-1.344.24-2.016.624-.672.352-1.216 1.04-1.632 2.064a15.236 15.236 0 00-.816 3.264 14.324 14.324 0 000 3.312c.16 1.024.432 1.92.816 2.688.416.768.96 1.296 1.632 1.584.96.384 1.824.512 2.592.384a7.797 7.797 0 002.064-.624 8.513 8.513 0 001.536-1.008c.448-.352.8-.576 1.056-.672.608-.192.88.048.816.72-.064.64-.512 1.472-1.344 2.496a10.41 10.41 0 01-1.68 1.68 9.071 9.071 0 01-2.256 1.248c-.832.32-1.744.496-2.736.528-.96.032-1.984-.16-3.072-.576-1.024-.384-1.952-1.008-2.784-1.872a11.5 11.5 0 01-2.064-2.976 15.473 15.473 0 01-1.104-3.696 12.494 12.494 0 01.048-3.936 12.192 12.192 0 011.44-3.792c.736-1.248 1.744-2.352 3.024-3.312 1.216-.864 2.4-1.312 3.552-1.344 1.184-.032 2.208.128 3.072.48.896.352 1.584.816 2.064 1.392.48.544.64.96.48 1.248zm6.958-16.464c.096-.576.432-.896 1.008-.96.576-.064 1.184.064 1.824.384.64.32 1.232.784 1.776 1.392.544.576.832 1.216.864 1.92l.096 2.256c.032.768.064 1.456.096 2.064.032.736.064 1.424.096 2.064a23.098 23.098 0 012.88-.096 8.805 8.805 0 011.968.288c.576.16.864.448.864.864 0 .448-.288.832-.864 1.152a9.163 9.163 0 01-1.872.816c-.832.256-1.76.48-2.784.672.064 2.144.128 4.224.192 6.24.032 1.76.032 3.6 0 5.52 0 1.92-.064 3.6-.192 5.04-.16 1.44-.416 2.496-.768 3.168-.32.672-.688 1.104-1.104 1.296a2.01 2.01 0 01-1.296.144 11.361 11.361 0 01-1.248-.432c-.192-.064-.368-.4-.528-1.008-.16-.608-.288-1.392-.384-2.352a71.18 71.18 0 01-.24-3.216 137.273 137.273 0 01-.144-3.696c-.096-2.944-.144-6.24-.144-9.888-.864.192-1.664.288-2.4.288-.64 0-1.232-.096-1.776-.288-.544-.224-.88-.624-1.008-1.2-.096-.448.096-.848.576-1.2a8.819 8.819 0 011.728-.912 18.12 18.12 0 012.592-.768v-1.44a5.25 5.25 0 00.048-.624c0-1.28-.016-2.32-.048-3.12-.032-.8-.048-1.456-.048-1.968 0-.544.016-.976.048-1.296.032-.352.096-.72.192-1.104zm10.113 25.632c.256-.352.496-.672.72-.96a8.35 8.35 0 00.624-1.056 7.5 7.5 0 00.576-1.44c.192-.544.352-1.216.48-2.016s.208-1.536.24-2.208c.032-.704.08-1.296.144-1.776.064-.512.176-.928.336-1.248.16-.32.448-.528.864-.624.384-.064.912-.192 1.584-.384a7.506 7.506 0 011.968-.288c.64 0 1.152.192 1.536.576.416.352.528 1.056.336 2.112-.096.416-.192 1.024-.288 1.824-.064.8-.128 1.696-.192 2.688a45.52 45.52 0 00-.096 3.024c.032 1.024.112 1.984.24 2.88.128.896.32 1.664.576 2.304.288.64.672 1.056 1.152 1.248.96.384 1.744.384 2.352 0 .64-.384 1.296-.992 1.968-1.824.288-.352.592-.64.912-.864.32-.256.576-.352.768-.288.224.032.32.256.288.672-.032.384-.272 1.056-.72 2.016-.896 1.92-2.048 3.2-3.456 3.84-1.408.608-3.072.72-4.992.336-1.056-.224-1.904-.736-2.544-1.536-.64-.8-1.136-1.632-1.488-2.496a16.181 16.181 0 01-.768-2.448c-.16-.736-.304-1.136-.432-1.2-.16-.096-.304-.112-.432-.048-.096.032-.208.112-.336.24-.128.096-.288.208-.48.336a2.118 2.118 0 01-.72.288c-.672.128-1.056.032-1.152-.288-.128-.352.016-.816.432-1.392zm4.656-23.712c.416-.704 1.008-1.088 1.776-1.152a4.55 4.55 0 012.256.288c.736.288 1.344.688 1.824 1.2s.656.976.528 1.392c-.16.384-.416.72-.768 1.008-.352.256-.752.48-1.2.672-.448.16-.912.288-1.392.384-.48.064-.896.08-1.248.048a1.917 1.917 0 01-1.056-.432 2.996 2.996 0 01-.768-.912 2.908 2.908 0 01-.336-1.2c0-.448.128-.88.384-1.296zm11.994 14.064a7.653 7.653 0 011.824-2.208 10.441 10.441 0 012.448-1.536 12.087 12.087 0 012.784-.816c.992-.16 1.952-.224 2.88-.192.96.064 1.776.4 2.448 1.008.672.576 1.136 1.328 1.392 2.256.288.896.32 1.888.096 2.976-.192 1.088-.688 2.176-1.488 3.264-.896 1.216-1.824 2.112-2.784 2.688-.928.544-1.792.944-2.592 1.2-.928.288-1.856.4-2.784.336-.064 1.184.032 2.224.288 3.12.096.384.224.752.384 1.104.192.352.432.656.72.912a2.86 2.86 0 001.008.576c.416.128.896.16 1.44.096 1.152-.16 2.096-.528 2.832-1.104.736-.576 1.344-1.184 1.824-1.824.512-.64.928-1.2 1.248-1.68.32-.512.64-.768.96-.768.224 0 .368.304.432.912.064.576 0 1.296-.192 2.16-.16.832-.464 1.728-.912 2.688a7.407 7.407 0 01-1.92 2.448c-.8.704-1.808 1.2-3.024 1.488-1.216.32-2.672.256-4.368-.192-1.536-.384-2.768-1.104-3.696-2.16-.928-1.088-1.632-2.208-2.112-3.36-.576-1.312-.96-2.768-1.152-4.368a10.484 10.484 0 010-2.832c.064-.832.24-1.792.528-2.88.32-1.088.816-2.192 1.488-3.312zm4.32 5.376c.512 0 1.04-.064 1.584-.192.448-.128.944-.352 1.488-.672.544-.32 1.056-.8 1.536-1.44.448-.64.768-1.216.96-1.728.192-.512.32-.944.384-1.296.096-.384.112-.736.048-1.056a8.39 8.39 0 00-1.824.384 5.749 5.749 0 00-1.536.768c-.512.32-.928.784-1.248 1.392a17.225 17.225 0 00-.864 1.776c-.192.48-.32.88-.384 1.2-.096.352-.144.64-.144.864z" fill="#fff"/></svg>