<svg width="158" height="25" fill="none" xmlns="http://www.w3.org/2000/svg"><path d="M14.125 1.13l2.84 5.759c.2.401.575.67 1.003.736l6.347.924c1.098.16 1.54 1.513.737 2.29l-4.58 4.459c-.321.308-.455.75-.388 1.192l1.085 6.32c.187 1.098-.964 1.928-1.942 1.406L13.55 21.23a1.363 1.363 0 00-1.246 0l-5.677 2.986c-.978.522-2.13-.322-1.942-1.406l1.085-6.32a1.327 1.327 0 00-.389-1.192L.79 10.812c-.79-.776-.362-2.129.736-2.29l6.36-.91a1.354 1.354 0 001.005-.737l2.838-5.758c.496-.99 1.915-.99 2.397.014zm33.111 0l2.839 5.759c.2.401.575.67 1.004.736l6.347.924c1.098.16 1.54 1.513.736 2.29l-4.58 4.459c-.32.308-.455.75-.388 1.192l1.085 6.32c.188 1.098-.964 1.928-1.942 1.406L46.66 21.23a1.36 1.36 0 00-1.245 0l-5.678 2.986c-.977.522-2.129-.322-1.942-1.406l1.085-6.32a1.327 1.327 0 00-.388-1.192l-4.593-4.486c-.79-.776-.362-2.129.736-2.29l6.36-.91A1.354 1.354 0 0042 6.875l2.839-5.758c.495-.99 1.915-.99 2.397.014zm66.22 0l2.839 5.759c.201.401.576.67 1.004.736l6.348.924c1.098.16 1.539 1.513.736 2.29l-4.58 4.459c-.321.308-.455.75-.388 1.192l1.085 6.32c.187 1.098-.964 1.928-1.942 1.406l-5.677-2.986a1.363 1.363 0 00-1.246 0l-5.677 2.986c-.978.522-2.129-.322-1.942-1.406l1.085-6.32a1.33 1.33 0 00-.388-1.192l-4.593-4.486c-.79-.776-.362-2.129.736-2.29l6.361-.91a1.354 1.354 0 001.004-.737l2.839-5.758c.495-.99 1.914-.99 2.396.014zm-33.11 0l2.839 5.759c.2.401.576.67 1.004.736l6.347.924c1.098.16 1.54 1.513.737 2.29l-4.58 4.459c-.321.308-.455.75-.388 1.192l1.084 6.32c.188 1.098-.964 1.928-1.941 1.406L79.77 21.23a1.36 1.36 0 00-1.245 0l-5.678 2.986c-.977.522-2.129-.322-1.941-1.406l1.084-6.32a1.328 1.328 0 00-.388-1.192l-4.593-4.486c-.79-.776-.361-2.129.737-2.29l6.36-.91a1.354 1.354 0 001.005-.737l2.838-5.758c.496-.99 1.915-.99 2.397.014z" fill="#F29100"/><path d="M146.116 1.347h0l.002.005 2.839 5.758.001.002c.274.548.788.915 1.375 1.007h0l.005.001 6.346.924c.69.1.965.949.462 1.435l-.001.002-4.577 4.456-.002.001a1.854 1.854 0 00-.535 1.626h0l.002.01 1.084 6.32a.834.834 0 01-1.213.88h-.003l-5.677-2.987-.003-.001a1.863 1.863 0 00-1.705 0l-.003.001-5.678 2.986-.002.002c-.607.324-1.331-.2-1.214-.88h0l1.084-6.317a1.825 1.825 0 00-.532-1.64l-4.59-4.482-.001-.001c-.501-.493-.221-1.338.458-1.438h.001l6.359-.91h0l.006-.001a1.852 1.852 0 001.374-1.007l.002-.003 2.837-5.755.001-.001a.834.834 0 011.498.007z" stroke="#F29100"/><path d="M137.826 15.286c.322.308.469.75.389 1.193l-1.086 6.329c-.188 1.1.965 1.93 1.944 1.408l5.685-2.99a1.06 1.06 0 01.496-.134V.375a1.28 1.28 0 00-1.073.724l-2.842 5.766a1.34 1.34 0 01-1.006.724l-6.355.925c-1.1.16-1.542 1.515-.751 2.292l4.599 4.479z" fill="#F29100"/></svg>