<svg width="985" height="171" fill="none" xmlns="http://www.w3.org/2000/svg"><mask id="mask0_308_387" style="mask-type:alpha" maskUnits="userSpaceOnUse" x="0" y="0" width="985" height="171"><path fill="#C4C4C4" d="M0 0h985v171H0z"/></mask><g mask="url(#mask0_308_387)"><path d="M634.633 0l95.233 73.635-59.128 28.832L583.5 111.5 634.633 0z" fill="#45BABA"/><path d="M665.434 220L583.5 111.5l146.313-37.545 252.066 111.102L665.434 220z" fill="#89CBBE"/><path d="M541.841 219.378L583.5 111.5l82.379 107.878H541.841z" fill="#72C4BB"/><path d="M583.5 111.5l-279-41.731L634.377.62 583.5 111.5z" fill="#21A6B3"/><path d="M261.5 147.5L305 69.769 583.5 111.5l-322 36z" fill="#29ADB6"/><path d="M434.392 219.378L261.5 147.5l322-36-41.116 107.878H434.392z" fill="#2BB5B8"/><path d="M282.761 219.378L261.5 147.5l173.039 71.878H282.761z" fill="#3FB9BB"/><path d="M118.5 33.5L305 69.769 261.5 147.5l-143-114z" fill="#0F7FA6"/><path d="M118.719 33.248L261.5 147.5 74.46 193.647l44.259-160.399z" fill="#1D9DB1"/><path d="M124.74 219.378l-50.5-25.565L261.5 147.5l21.438 71.878H124.74z" fill="#27AAB6"/><path d="M-15.004 146.244L-37 113.824 118.5 33.5 73.905 193.898l-88.91-47.654z" fill="#0986AA"/><path d="M-15.343 173.52v-27.475l89.583 47.853-89.583-20.378z" fill="#1995AD"/><path d="M869.5 135.5l8.439 60.964-212.5 23.238L869.5 135.5z" fill="#68C5B9"/></g></svg>