<svg width="521" height="440" fill="none" xmlns="http://www.w3.org/2000/svg"><g clip-path="url(#clip0_0_1)"><mask id="mask0_0_1" style="mask-type:alpha" maskUnits="userSpaceOnUse" x="385" y="-457" width="143" height="853"><path transform="matrix(0 -1 -1 0 528 396)" fill="#C4C4C4" d="M0 0h853v143H0z"/></mask><g mask="url(#mask0_0_1)"><path d="M521 346.67l-44.709 49.331-17.506-30.628-5.328-45.352L521 346.67z" fill="#45BABA"/><path d="M387.817 362.782l65.478-42.946L476.284 396l-88.467-30.813v-2.405z" fill="#89CBBE"/><path d="M387.979 298.98l65.478 21.04-65.478 42.946V298.98z" fill="#72C4BB"/><path d="M453.457 320.021l36.357-145.737 30.91 172.386-67.267-26.649z" fill="#21A6B3"/><path d="M431.463 154.03l58.351 20.253-36.357 145.738-21.994-165.991z" fill="#29ADB6"/><path d="M387.979 243.295l43.484-89.265 21.994 165.991-65.478-21.04v-55.686z" fill="#2BB5B8"/><path d="M387.979 165.097l43.484-11.067-43.484 89.264v-78.197z" fill="#3FB9BB"/><path d="M500.577 80.5l-10.763 93.783-58.351-20.252L500.577 80.5z" fill="#0F7FA6"/><path d="M500.577 80.5l-69.114 73.531-27.929-96.63 97.043 23.1z" fill="#1D9DB1"/><path d="M387.979 83.46l15.554-26.06 27.93 96.631-43.484 11.067V83.461z" fill="#27AAB6"/><path d="M387.979 58.241l15.554-.84-15.554 26.06V58.24z" fill="#29ADB6"/><path d="M432.376 11.384L451.998 0l48.579 80.5-97.043-23.1 28.842-46.016z" fill="#0986AA"/><path d="M415.816 11.384h16.56l-28.842 46.015 12.282-46.015z" fill="#1995AD"/><path d="M387.979 11.384h27.837l-12.283 46.015-15.554.841V11.384z" fill="#1D9DB1"/></g></g><g clip-path="url(#clip1_0_1)"><mask id="mask1_0_1" style="mask-type:alpha" maskUnits="userSpaceOnUse" x="-1" y="302" width="855" height="145"><path transform="matrix(1 -.0019 -.0019 -1 .258 446.821)" fill="#C4C4C4" d="M0 0h853v143H0z"/></mask><g mask="url(#mask1_0_1)"><path d="M54.06 439.719L.151 391.356l33.377-19.041 49.463-5.87-28.933 73.274z" fill="#45BABA"/><path d="M36.208 295.378l46.985 70.891-83.04 25.079 33.431-95.965 2.624-.005z" fill="#89CBBE"/><path d="M105.81 295.421l-22.818 71.024-46.985-70.891 69.803-.133z" fill="#72C4BB"/><path d="M82.992 366.445l159.06 39.11L54.059 439.42l28.933-72.975z" fill="#21A6B3"/><path d="M264.027 342.259l-21.974 63.296-159.06-39.11 181.034-24.186z" fill="#29ADB6"/><path d="M166.558 295.305l97.469 46.954-181.035 24.186 22.818-71.024 60.748-.116z" fill="#2BB5B8"/><path d="M251.865 295.143l12.162 47.116-97.469-46.954 85.307-.162z" fill="#3FB9BB"/><path d="M344.384 417.028l-102.331-11.473 21.973-63.296 80.358 74.769z" fill="#0F7FA6"/><path d="M344.383 417.029l-80.357-74.77 105.358-30.477-25.001 105.247z" fill="#1D9DB1"/><path d="M340.922 294.974l28.462 16.808-105.358 30.477-12.162-47.116 89.058-.169z" fill="#27AAB6"/><path d="M368.434 294.922l.95 16.86-28.462-16.808 27.512-.052z" fill="#29ADB6"/><path d="M419.643 342.952l12.459 21.248-87.717 52.828 25-105.246 50.258 31.17z" fill="#0986AA"/><path d="M419.609 325.001l.034 17.951-50.258-31.17 50.224 13.219z" fill="#1995AD"/><path d="M419.552 294.824l.057 30.177-50.224-13.219-.949-16.861 51.116-.097z" fill="#1D9DB1"/></g></g><defs><clipPath id="clip0_0_1"><path fill="#fff" transform="matrix(0 -1 -1 0 521 396)" d="M0 0h396v119H0z"/></clipPath><clipPath id="clip1_0_1"><path fill="#fff" transform="matrix(1 -.0019 -.0019 -1 .245 439.821)" d="M0 0h432v129H0z"/></clipPath></defs></svg>