<svg width="853" height="34" fill="none" xmlns="http://www.w3.org/2000/svg"><path d="M746.739 0l106.26 28.929-65.975 11.328-97.688 3.447L746.739 0z" fill="#45BABA"/><path d="M781.446 86.177L688.939 43.81 853 28.934l-66.373 57.243h-5.181z" fill="#89CBBE"/><path d="M689.338 43.704L375.414 20.18l371.327-20-57.403 43.525z" fill="#21A6B3"/><path d="M331.788 57.935l43.626-37.756 313.924 23.526-357.55 14.23z" fill="#29ADB6"/><path d="M173.401 13.215l202.013 6.964-43.625 37.757-158.388-44.721z" fill="#0F7FA6"/><path d="M173.401 13.214l158.388 44.721-208.147 18.072 49.759-62.793z" fill="#1D9DB1"/><path d="M24.522 57.345L0 44.648l173.4-31.434-49.759 62.793-99.12-18.662z" fill="#0986AA"/></svg>