<svg width="75" height="113" fill="none" xmlns="http://www.w3.org/2000/svg"><path d="M102.531 18.04l-9.323 27.458a6.115 6.115 0 00.855 5.56l17.322 23.224c2.993 4.02.085 9.751-4.962 9.666l-28.869-.385c-2.01-.043-3.849.94-5.046 2.566L55.785 109.78c-2.908 4.106-9.238 3.079-10.692-1.711l-8.597-27.671a6.153 6.153 0 00-3.977-3.978L4.847 67.824c-4.79-1.454-5.773-7.827-1.71-10.692l23.65-16.723c1.626-1.112 2.61-3.037 2.567-5.047l-.342-28.997c-.043-5.004 5.645-7.955 9.666-4.961L61.9 18.81a6.114 6.114 0 005.56.855l27.458-9.324c4.747-1.582 9.28 2.951 7.612 7.699z" fill="url(#paint0_linear_216_2174)"/><defs><linearGradient id="paint0_linear_216_2174" x1="93.752" y1="99.246" x2="13.555" y2="19.232" gradientUnits="userSpaceOnUse"><stop stop-color="#3ABEBB"/><stop offset="1" stop-color="#79E7CC"/></linearGradient></defs></svg>