<svg width="104" height="29" fill="none" xmlns="http://www.w3.org/2000/svg"><path d="M11.835.333h5v16.803c0 1.545-.34 2.91-1.025 4.094-.683 1.185-1.648 2.097-2.894 2.743-1.245.645-2.65.968-4.218.968-2.567 0-4.567-.654-6.003-1.96-1.433-1.307-2.15-3.152-2.15-5.543h5.036c0 1.19.25 2.068.75 2.634.5.566 1.288.852 2.367.852.955 0 1.717-.328 2.285-.984.566-.656.852-1.59.852-2.8V.332zm41.849 24.272h-5V.333h5v24.272zm26.062 0h-5L65.01 8.635v15.97h-5V.333h5l9.753 16.005V.333h4.985v24.272h-.003zm11.74-4.017h11.966v4.017H85.234v-2.936L97.237 4.382H85.25V.333h18.205V3.2l-11.97 17.388zm-50.54-.479c4.498-4.523 4.493-11.832-.019-16.346-4.52-4.52-11.847-4.52-16.367 0-4.52 4.52-4.52 11.845-.002 16.364l4.477 4.477-.003.003 3.726 3.726.003-.002 3.726-3.727 4.477-4.477-.018-.018zm-3.64-3.607c-.004.005-.012.01-.018.018l.006.005-3.96 3.96-3.278 3.278v-5.397l-1.799-1.798c-.023-.024-.05-.045-.076-.07A6.456 6.456 0 0137.31 7.37a6.462 6.462 0 01-.003 9.132z" fill="#fff"/></svg>