<svg width="74" height="32" fill="none" xmlns="http://www.w3.org/2000/svg"><path d="M73.189 0H0v31.218h73.189V0z" fill="#016F9F"/><path d="M11.208 9.235h3.059V19.51c0 .945-.21 1.78-.628 2.504a4.246 4.246 0 01-1.77 1.677c-.761.395-1.62.592-2.58.592-1.57 0-2.792-.4-3.67-1.198-.877-.8-1.315-1.928-1.315-3.39h3.08c0 .728.153 1.264.458 1.61.306.347.788.521 1.448.521.584 0 1.05-.2 1.397-.601.346-.401.521-.972.521-1.713V9.235zm25.595 14.844h-3.059V9.235h3.059v14.844zm15.938 0h-3.058l-5.954-9.767v9.767h-3.058V9.235h3.058l5.965 9.788V9.235h3.049v14.844h-.002zm7.179-2.457h7.319v2.457H56.097v-1.796l7.34-10.572h-7.33V9.235H67.24v1.753l-7.32 10.634zm-30.909-.293a7.079 7.079 0 10-10.022.011l2.738 2.738-.002.002 2.279 2.279.002-.002 2.278-2.279 2.739-2.738-.012-.011zm-2.225-2.206l-.012.011.004.003-2.421 2.422-2.006 2.005v-3.3l-1.1-1.1c-.014-.015-.03-.028-.047-.043a3.949 3.949 0 015.583-5.583 3.952 3.952 0 01-.001 5.585z" fill="#fff"/></svg>