<svg width="231" height="57" fill="none" xmlns="http://www.w3.org/2000/svg"><path d="M20.309 11.726l-4.5-8.586C8.35 7.048 2.901 14.272 1.303 22.798l9.77 1.776a17.681 17.681 0 019.236-12.848z" fill="#FFC808"/><path d="M10.895 27.357c0-.947.059-1.835.236-2.724l-9.77-1.776c-.295 1.54-.414 3.138-.473 4.737 0 2.25.237 4.44.71 6.572l9.889-2.25c-.415-1.48-.592-3.02-.592-4.559z" fill="#F58B1F"/><path d="M11.428 31.857l-9.888 2.25a28.746 28.746 0 003.493 8.467l8.763-5.447c-1.066-1.6-1.836-3.375-2.368-5.27z" fill="#F99D1C"/><path d="M13.796 37.127l-8.763 5.447a30.332 30.332 0 004.618 5.684C4.855 49.738 0 50.448 0 50.448c.178.178 5.625 3.908 14.21 5.685l6.572-12.79c-2.782-1.48-5.21-3.611-6.986-6.216z" fill="#EF3B24"/><path d="M28.539 45.001c-2.783 0-5.388-.65-7.697-1.776L14.27 56.074c4.144.888 9.059 1.243 14.506.592V45h-.237z" fill="#F26922"/><path d="M28.717 45.001v11.665c2.546-.296 5.151-.888 7.875-1.717 2.427-.71 4.677-1.777 6.75-3.08l-5.744-9.354A17.083 17.083 0 0128.717 45z" fill="#7FC042"/><path d="M46.183 27.357c0 6.395-3.434 12.02-8.526 15.099l5.744 9.355a28.105 28.105 0 009.591-10.125 28.365 28.365 0 003.612-13.5c0-2.132-.177-4.204-.592-6.217l-10.125 2.19c.178 1.067.296 2.132.296 3.198z" fill="#C6D22D"/><path d="M29.072.002c-4.796-.059-9.296 1.066-13.263 3.138l4.5 8.586c2.428-1.303 5.27-2.013 8.23-2.013 8.645 0 15.868 6.217 17.349 14.447l10.124-2.191C53.348 9.535 42.335.179 29.072.002z" fill="#E9E015"/><path d="M17.451 33.373h.186c.781 0 1.452-.094 2.012-.283.566-.196 1.032-.476 1.396-.84.365-.365.635-.81.81-1.338.177-.534.264-1.14.264-1.816V26.4c0-.514-.052-.966-.156-1.357-.098-.39-.24-.713-.43-.967a1.829 1.829 0 00-.644-.586 1.657 1.657 0 00-.8-.195c-.313 0-.59.078-.831.234a1.98 1.98 0 00-.615.615c-.163.26-.29.56-.381.899-.085.332-.127.68-.127 1.045 0 .364.042.713.127 1.045.085.325.212.615.38.869a2 2 0 00.636.596 1.8 1.8 0 00.898.214c.332 0 .628-.062.889-.185.267-.13.491-.3.673-.508.19-.208.332-.44.43-.693a2.02 2.02 0 00.156-.772l.928.508c0 .456-.098.905-.293 1.348a4.15 4.15 0 01-.82 1.21 4.055 4.055 0 01-1.201.86 3.393 3.393 0 01-1.465.322c-.664 0-1.253-.12-1.768-.361a3.86 3.86 0 01-1.308-1.016 4.599 4.599 0 01-.801-1.523 6.25 6.25 0 01-.274-1.885c0-.69.111-1.338.333-1.943.227-.606.55-1.14.966-1.602a4.512 4.512 0 011.514-1.084c.592-.267 1.25-.4 1.973-.4.722 0 1.38.14 1.972.42.593.28 1.1.677 1.524 1.191.423.508.748 1.117.976 1.826.235.71.352 1.498.352 2.364v.976c0 .925-.101 1.784-.303 2.578a7.493 7.493 0 01-.889 2.158 6.087 6.087 0 01-1.464 1.641 6.268 6.268 0 01-2.022 1.045c-.768.24-1.628.361-2.578.361h-.225v-2.275zm12.276-.234l-.01 1.884c0 .723-.182 1.452-.547 2.188-.358.736-.814 1.338-1.367 1.806l-1.465-.752c.163-.299.322-.599.479-.898.156-.3.286-.628.39-.986a4.38 4.38 0 00.156-1.221v-2.021h2.364zm5.02-5.958h1.503c.482 0 .88-.08 1.192-.244.312-.169.543-.403.693-.703a2.31 2.31 0 00.234-1.064c0-.365-.071-.687-.215-.967a1.456 1.456 0 00-.634-.664c-.287-.163-.648-.244-1.084-.244a2.23 2.23 0 00-.957.205 1.753 1.753 0 00-.703.576c-.176.247-.264.547-.264.898H31.69c0-.78.208-1.461.625-2.04.423-.58.99-1.032 1.699-1.358.71-.326 1.49-.488 2.344-.488.963 0 1.806.156 2.529.468.723.306 1.286.759 1.69 1.358.403.599.605 1.341.605 2.226 0 .45-.104.886-.313 1.31a3.675 3.675 0 01-.898 1.132 4.463 4.463 0 01-1.406.8c-.554.196-1.175.294-1.866.294h-1.953v-1.494zm0 2.14v-1.456h1.952c.775 0 1.456.088 2.041.264.586.176 1.078.43 1.475.761.397.326.697.713.898 1.163.202.442.303.934.303 1.474 0 .664-.127 1.257-.38 1.778-.255.514-.613.95-1.075 1.308-.456.358-.99.632-1.601.82a6.987 6.987 0 01-2.002.274 6.508 6.508 0 01-1.768-.244 5.26 5.26 0 01-1.562-.752 3.867 3.867 0 01-1.114-1.27c-.273-.514-.41-1.123-.41-1.826h2.822c0 .365.091.69.274.977.182.286.433.51.752.674.325.162.687.244 1.084.244.449 0 .833-.082 1.152-.244a1.76 1.76 0 00.742-.704c.176-.306.264-.66.264-1.064 0-.52-.094-.938-.283-1.25a1.68 1.68 0 00-.81-.703c-.352-.15-.769-.225-1.25-.225h-1.505zm38.829-4.781h.13c.415 0 .784-.035 1.108-.103a2.11 2.11 0 00.82-.349c.223-.164.392-.39.506-.677.118-.291.178-.656.178-1.094V20.76a1.96 1.96 0 00-.082-.602 1.048 1.048 0 00-.226-.417.84.84 0 00-.349-.239 1.242 1.242 0 00-.465-.082c-.236 0-.44.062-.608.185-.164.118-.292.28-.383.485a1.73 1.73 0 00-.13.677c0 .246.044.46.13.642a.99.99 0 00.397.424c.177.1.398.15.663.15.2 0 .373-.027.52-.081a1.065 1.065 0 00.588-.5.63.63 0 00.075-.28l.601.28c.005.338-.1.659-.314.964a2.513 2.513 0 01-.848.752 2.32 2.32 0 01-1.142.287c-.547 0-1.018-.102-1.415-.307a2.186 2.186 0 01-.916-.902c-.21-.397-.314-.88-.314-1.45 0-.524.13-1.002.39-1.435.264-.433.628-.78 1.093-1.04.47-.264 1.007-.396 1.614-.396.432 0 .836.066 1.21.198.378.133.706.333.984.602.282.269.501.608.656 1.018.16.41.24.894.24 1.45v.54c0 .793-.112 1.47-.336 2.03a3.326 3.326 0 01-.943 1.354 3.802 3.802 0 01-1.442.758c-.556.16-1.17.24-1.84.24h-.156l.006-1.525zm7.274 0h.13c.414 0 .783-.035 1.107-.103.324-.069.597-.185.82-.349.224-.164.392-.39.506-.677.119-.291.178-.656.178-1.094V20.76a1.96 1.96 0 00-.082-.602 1.046 1.046 0 00-.226-.417.84.84 0 00-.348-.239 1.243 1.243 0 00-.465-.082c-.237 0-.44.062-.608.185a1.17 1.17 0 00-.383.485c-.087.205-.13.43-.13.677 0 .246.043.46.13.642a.99.99 0 00.396.424c.178.1.399.15.663.15.2 0 .374-.027.52-.081a1.06 1.06 0 00.588-.5.63.63 0 00.075-.28l.602.28c.004.338-.1.659-.315.964a2.512 2.512 0 01-.848.752 2.321 2.321 0 01-1.141.287c-.547 0-1.019-.102-1.415-.307a2.186 2.186 0 01-.916-.902c-.21-.397-.315-.88-.315-1.45 0-.524.13-1.002.39-1.435.264-.433.629-.78 1.094-1.04.469-.264 1.007-.396 1.613-.396.433 0 .836.066 1.21.198.378.133.706.333.984.602.283.269.502.608.656 1.018.16.41.24.894.24 1.45v.54c0 .793-.112 1.47-.335 2.03a3.326 3.326 0 01-.944 1.354 3.794 3.794 0 01-1.442.758c-.556.16-1.169.24-1.839.24h-.157l.007-1.525zm5.96-6.098v-.527c0-.378.083-.722.247-1.032.164-.31.405-.558.724-.745.32-.187.711-.28 1.176-.28.479 0 .878.093 1.197.28.323.187.565.435.724.745.164.31.246.654.246 1.032v.527c0 .369-.082.708-.246 1.018-.16.31-.399.558-.718.745-.319.187-.713.28-1.182.28-.474 0-.873-.093-1.197-.28a1.866 1.866 0 01-.724-.745 2.144 2.144 0 01-.246-1.018zm1.306-.527v.527c0 .159.03.312.09.457a.854.854 0 00.286.35.86.86 0 00.479.13.813.813 0 00.478-.13.822.822 0 00.274-.35c.06-.145.089-.298.089-.457v-.527c0-.168-.032-.323-.096-.465a.783.783 0 00-.759-.485.799.799 0 00-.752.485 1.19 1.19 0 00-.089.465zm3.453 6.125v-.526c0-.374.082-.716.246-1.026.168-.31.412-.558.731-.745.324-.187.72-.28 1.19-.28.474 0 .87.093 1.189.28.319.187.56.436.725.745.164.31.246.652.246 1.026v.526c0 .374-.082.716-.246 1.026a1.82 1.82 0 01-.718.745c-.32.186-.713.28-1.183.28-.474 0-.873-.094-1.196-.28a1.902 1.902 0 01-.738-.745 2.157 2.157 0 01-.246-1.026zm1.312-.526v.526c0 .164.037.32.11.465a.897.897 0 00.3.349c.132.086.285.13.458.13.219 0 .39-.044.513-.13a.652.652 0 00.253-.349c.05-.146.075-.3.075-.465v-.526a1.1 1.1 0 00-.096-.458.798.798 0 00-.287-.349.771.771 0 00-.471-.137.802.802 0 00-.479.137.816.816 0 00-.28.349 1.1 1.1 0 00-.096.458zm1.34-6.091l-4.86 7.78-.958-.507 4.86-7.779.958.506zm9.912 5.182h-2.222l-.013-1.292h1.968c.274 0 .499-.032.677-.096a.815.815 0 00.397-.294.838.838 0 00.13-.478c0-.22-.044-.395-.13-.527a.686.686 0 00-.39-.294 2.057 2.057 0 00-.656-.089h-1.251v6.42h-1.969V17.99h3.063c.519 0 .982.046 1.387.137.41.087.759.221 1.046.403.287.183.506.413.656.69.151.274.226.596.226.965 0 .323-.078.63-.232.923-.151.291-.399.526-.746.704-.341.177-.804.266-1.387.266l-.554.527zm-.089 3.35h-2.618l.69-1.539h1.928c.292 0 .527-.039.704-.116a.868.868 0 00.39-.321.836.836 0 00.123-.438.988.988 0 00-.116-.492.734.734 0 00-.363-.328c-.164-.078-.38-.116-.649-.116h-1.723l.007-1.292h2.078l.458.526c.565-.037 1.014.039 1.347.226.333.182.57.421.711.717.146.292.219.588.219.889 0 .392-.069.732-.205 1.019-.137.287-.34.524-.609.71a2.848 2.848 0 01-.998.418 6.164 6.164 0 01-1.374.136zm10.234-1.539v1.538h-4.581v-1.538h4.581zm-3.883-6.426v7.964h-1.969V17.99h1.969zm3.295 3.077v1.538h-3.993v-1.538h3.993zm.594-3.077v1.545h-4.587V17.99h4.587zm4.218 5.831l1.846-5.83h2.071l-2.905 7.963h-1.436l.424-2.133zm-1.962-5.83l1.819 5.81.458 2.153h-1.456l-2.892-7.964h2.071zm12.407 6.425v1.538h-4.58v-1.538h4.58zm-3.882-6.426v7.964h-1.969V17.99h1.969zm3.295 3.077v1.538h-3.993v-1.538h3.993zm.594-3.077v1.545h-4.587V17.99h4.587zm6.734 6.426v1.538h-4.58v-1.538h4.58zm-3.883-6.426v7.964h-1.969V17.99h1.969zm3.295 3.077v1.538h-3.992v-1.538h3.992zm.595-3.077v1.545h-4.587V17.99h4.587zm6.487 6.426v1.538h-4.334v-1.538h4.334zm-3.637-6.426v7.964h-1.969V17.99h1.969zm8.135 0v7.964h-1.983V17.99h1.983zm2.591 0v1.545h-7.11V17.99h7.11zm11.587 3.822v.328c0 .606-.092 1.15-.274 1.634-.178.483-.43.895-.759 1.237a3.31 3.31 0 01-1.175.786 4.058 4.058 0 01-1.497.267 4.103 4.103 0 01-1.504-.267 3.393 3.393 0 01-1.176-.786 3.548 3.548 0 01-.773-1.237 4.608 4.608 0 01-.273-1.634v-.328c0-.611.089-1.156.267-1.634.182-.483.437-.896.765-1.237a3.28 3.28 0 011.176-.787 4.015 4.015 0 011.504-.273 3.96 3.96 0 011.497.273c.456.178.85.44 1.183.787.332.341.587.754.765 1.237.182.478.274 1.023.274 1.634zm-1.976.328v-.342c0-.383-.041-.72-.123-1.012a2.106 2.106 0 00-.342-.745 1.412 1.412 0 00-.547-.465 1.584 1.584 0 00-.731-.164c-.278 0-.526.055-.745.164-.214.105-.394.26-.54.465a2.19 2.19 0 00-.335.745c-.073.292-.11.63-.11 1.012v.342c0 .378.037.715.11 1.011.077.297.191.55.342.76.15.204.332.362.546.471.219.105.468.157.746.157.273 0 .517-.052.731-.157.214-.11.394-.267.54-.472.15-.21.264-.462.342-.759.077-.296.116-.633.116-1.011zm10.206-4.15v7.964h-1.975l-3.152-5.072v5.072h-1.969V17.99h1.969l3.152 5.073V17.99h1.975zm5.811 5.831a.762.762 0 00-.328-.643 1.978 1.978 0 00-.465-.245 5.34 5.34 0 00-.732-.219 10.337 10.337 0 01-1.305-.39 3.775 3.775 0 01-.91-.499 1.842 1.842 0 01-.533-.683 2.264 2.264 0 01-.178-.93c0-.342.076-.656.226-.943.15-.287.362-.534.636-.739.273-.205.597-.364.97-.478a4.182 4.182 0 011.224-.171c.643 0 1.21.1 1.702.3.497.201.884.486 1.162.855.278.365.417.805.417 1.32h-1.968a.938.938 0 00-.158-.527 1.06 1.06 0 00-.437-.383c-.192-.1-.429-.15-.711-.15-.273 0-.499.043-.677.13a.91.91 0 00-.396.321.724.724 0 00-.123.397c0 .114.025.218.075.314a.869.869 0 00.253.267c.118.077.271.152.458.225.191.069.421.137.69.205a8 8 0 011.306.39c.374.146.683.321.93.526.25.205.437.45.56.732.123.278.185.6.185.964s-.076.69-.226.977a1.99 1.99 0 01-.636.718 3.043 3.043 0 01-.991.451c-.383.1-.811.15-1.285.15a5.26 5.26 0 01-1.251-.15c-.41-.1-.782-.255-1.114-.465a2.494 2.494 0 01-.8-.82c-.196-.333-.294-.731-.294-1.196h1.976c0 .219.031.405.095.56a.963.963 0 00.301.383c.137.096.303.166.499.212.201.046.431.068.691.068.291 0 .521-.04.69-.123a.792.792 0 00.472-.71zm9.973-3.76l-2.119 5.893h-1.989l3.144-7.964h1.354l-.39 2.072zm2.092 5.893l-2.16-5.892-.397-2.072h1.374l3.165 7.964h-1.982zm-.041-2.96v1.402h-4.402v-1.402h4.402zm6.125-2.932l-2.119 5.892h-1.989l3.144-7.964h1.354l-.39 2.072zm2.092 5.892l-2.16-5.892-.397-2.072h1.374l3.165 7.964h-1.982zm-.041-2.96v1.402h-4.403v-1.402h4.403zm9.809-5.004v7.964h-1.975l-3.152-5.072v5.072h-1.968V17.99h1.968l3.152 5.073V17.99h1.975zm-83.434 17.094v.386c0 .516-.07.979-.211 1.389a2.991 2.991 0 01-.604 1.043 2.626 2.626 0 01-.943.656c-.363.149-.77.223-1.219.223-.441 0-.845-.074-1.213-.223a2.767 2.767 0 01-.949-.656 3.013 3.013 0 01-.615-1.043 4.15 4.15 0 01-.217-1.389v-.386c0-.516.072-.977.217-1.383.144-.41.348-.76.609-1.049.266-.29.58-.508.944-.656a3.134 3.134 0 011.213-.229c.453 0 .861.076 1.224.229.367.148.682.367.944.656.265.289.468.639.609 1.049.141.406.211.867.211 1.383zm-1.072.386v-.398c0-.387-.043-.729-.129-1.026a2.115 2.115 0 00-.375-.75 1.599 1.599 0 00-.604-.462 1.976 1.976 0 00-.808-.159c-.29 0-.551.053-.786.159a1.66 1.66 0 00-.603.462 2.191 2.191 0 00-.381.75 3.54 3.54 0 00-.135 1.026v.398c0 .387.045.73.135 1.032.09.296.219.548.387.755.168.204.369.358.603.463.239.106.502.159.791.159.305 0 .574-.053.809-.159.234-.105.433-.26.598-.463.164-.207.287-.459.369-.755.086-.301.129-.645.129-1.032zm5.191.65h-1.945v-.896h1.945c.359 0 .65-.05.873-.152.223-.106.387-.248.492-.428.106-.18.158-.387.158-.62 0-.224-.052-.43-.158-.622a1.151 1.151 0 00-.492-.463c-.223-.121-.514-.182-.873-.182h-1.652v5.93h-1.084v-6.826h2.736c.559 0 1.031.094 1.418.281.391.184.685.438.885.762.203.32.304.69.304 1.107 0 .328-.056.623-.17.885a1.775 1.775 0 01-.503.662 2.336 2.336 0 01-.821.422 4.01 4.01 0 01-1.113.14zm7.875-4.259v6.826h-1.084v-6.826h1.084zm4.418 0l-3.018 3.264-1.687 1.629-.211-1.102 1.26-1.383 2.32-2.408h1.336zm-1.125 6.826l-2.596-3.258.721-.773 3.193 4.031h-1.318zm3.287-6.826v6.826h-1.084v-6.826h1.084zm3.691 3.984l2.151-3.984h1.219l-2.549 4.5h-.662l-.159-.516zm-1.494-3.984l2.162 4.014-.175.486h-.651l-2.554-4.5h1.218zm2.344 3.644v3.182h-1.078v-3.181h1.078zm9.147-.421v.386c0 .516-.071.979-.211 1.389a2.991 2.991 0 01-.604 1.043 2.635 2.635 0 01-.943.656 3.19 3.19 0 01-1.219.223c-.441 0-.846-.074-1.213-.223a2.758 2.758 0 01-.949-.656 2.998 2.998 0 01-.615-1.043 4.15 4.15 0 01-.217-1.389v-.386c0-.516.072-.977.217-1.383.144-.41.347-.76.609-1.049.266-.29.58-.508.943-.656a3.14 3.14 0 011.213-.229c.453 0 .862.076 1.225.229.367.148.682.367.943.656.266.289.469.639.61 1.049.14.406.211.867.211 1.383zm-1.073.386v-.398c0-.387-.043-.729-.129-1.026a2.115 2.115 0 00-.375-.75 1.596 1.596 0 00-.603-.462 1.978 1.978 0 00-.809-.159 1.89 1.89 0 00-.785.159 1.66 1.66 0 00-.603.462 2.191 2.191 0 00-.381.75 3.54 3.54 0 00-.135 1.026v.398c0 .387.045.73.135 1.032.09.296.218.548.386.755.168.204.37.358.604.463.238.106.502.159.791.159.305 0 .574-.053.809-.159.234-.105.433-.26.597-.463.164-.207.287-.459.369-.755.086-.301.129-.645.129-1.032zm7.266-.597v.896h-3.943v-.896h3.943zm-3.727-3.012v6.826h-1.084v-6.826h1.084zm4.623 0v6.826h-1.084v-6.826h1.084z" fill="#1D1D1B"/></svg>