<svg width="114" height="112" fill="none" xmlns="http://www.w3.org/2000/svg"><path d="M107.645 78.967l-28.947 1.72a6.115 6.115 0 00-4.826 2.889l-14.977 24.8c-2.594 4.289-8.999 3.757-10.823-.949l-10.53-26.883c-.72-1.877-2.324-3.21-4.28-3.706L5.05 70.27c-4.9-1.145-6.336-7.395-2.448-10.548l22.386-18.398a6.153 6.153 0 002.184-5.183L24.698 7.27c-.46-4.985 5.071-8.3 9.257-5.617l24.408 15.598c1.643 1.085 3.796 1.27 5.642.473L90.732 6.472c4.618-1.926 9.496 2.229 8.24 7.081l-7.363 28.074a6.114 6.114 0 001.304 5.472l18.991 21.914c3.255 3.8.766 9.708-4.259 9.954z" fill="url(#paint0_linear_300_25)"/><defs><linearGradient id="paint0_linear_300_25" x1="29.125" y1="101.461" x2="72.986" y2="-2.99" gradientUnits="userSpaceOnUse"><stop stop-color="#3ABEBB"/><stop offset="1" stop-color="#79E7CC"/></linearGradient></defs></svg>