<svg width="48" height="48" fill="none" xmlns="http://www.w3.org/2000/svg"><circle cx="24" cy="24" r="24" fill="url(#paint0_linear_45_16)"/><mask id="path-2-inside-1_45_16" fill="#fff"><path d="M34.107 16H13.305c-1.043 0-1.893.877-1.893 1.951V33.05c0 1.074.85 1.951 1.893 1.951h20.802C35.149 35 36 34.123 36 33.049V17.95c0-1.073-.85-1.95-1.893-1.95zm-.275 1.443l-9.996 8.81-9.996-8.81h19.992zm.767 15.606a.504.504 0 01-.492.508H13.305a.504.504 0 01-.493-.508V18.438L23.38 27.75c.005.005.016.01.02.016.006.005.016.01.022.016.015.01.026.021.041.026.005.006.01.006.016.011l.062.032c.005 0 .01.006.015.006.016.005.032.016.052.021.006 0 .016.005.021.005a.134.134 0 00.047.011c.005 0 .015.005.02.005.016.006.037.006.052.011h.016c.02 0 .047.005.067.005.021 0 .047 0 .068-.005h.015a.182.182 0 00.052-.01c.005 0 .016-.006.021-.006.016-.005.031-.01.047-.01.005 0 .015-.006.02-.006a.342.342 0 00.052-.021c.005 0 .01-.006.016-.006l.062-.032c.005-.005.01-.005.016-.01l.041-.027c.005-.006.016-.01.02-.016.006-.006.016-.011.022-.016L34.6 18.667v14.38z"/></mask><path d="M34.107 16H13.305c-1.043 0-1.893.877-1.893 1.951V33.05c0 1.074.85 1.951 1.893 1.951h20.802C35.149 35 36 34.123 36 33.049V17.95c0-1.073-.85-1.95-1.893-1.95zm-.275 1.443l-9.996 8.81-9.996-8.81h19.992zm.767 15.606a.504.504 0 01-.492.508H13.305a.504.504 0 01-.493-.508V18.438L23.38 27.75c.005.005.016.01.02.016.006.005.016.01.022.016.015.01.026.021.041.026.005.006.01.006.016.011l.062.032c.005 0 .01.006.015.006.016.005.032.016.052.021.006 0 .016.005.021.005a.134.134 0 00.047.011c.005 0 .015.005.02.005.016.006.037.006.052.011h.016c.02 0 .047.005.067.005.021 0 .047 0 .068-.005h.015a.182.182 0 00.052-.01c.005 0 .016-.006.021-.006.016-.005.031-.01.047-.01.005 0 .015-.006.02-.006a.342.342 0 00.052-.021c.005 0 .01-.006.016-.006l.062-.032c.005-.005.01-.005.016-.01l.041-.027c.005-.006.016-.01.02-.016.006-.006.016-.011.022-.016L34.6 18.667v14.38z" fill="#fff"/><path d="M33.832 17.443l3.967 4.502 11.915-10.502H33.832v6zm-9.996 8.81l-3.968 4.502 3.968 3.497 3.967-3.497-3.967-4.501zm-9.996-8.81v-6H-2.043L9.872 21.945l3.967-4.502zm-1.028.995l3.967-4.501-9.967-8.785v13.286h6zM23.38 27.75l4.306-4.178-.163-.169-.176-.155-3.967 4.502zm.042.032l-4.306 4.178.416.429.492.338 3.398-4.945zm.041.026l4.306-4.178-1-1.03-1.357-.466-1.949 5.674zm.016.011l-4.306 4.178.684.706.873.45 2.749-5.334zm.062.032l-2.748 5.334 1.293.666h1.455v-6zm.015.006l1.95-5.675-.948-.325h-1.002v6zm.052.021l-1.497 5.81.737.19h.76v-6zm.021.005l1.95-5.674-.948-.326h-1.002v6zm.067.016l1.95-5.674-.948-.326h-1.002v6zm.052.011l-1.949 5.675.948.325h1.001v-6zm.15 0v-6h-.76l-.736.19 1.497 5.81zm.068-.01v-6h-1.002l-.947.325 1.95 5.674zm.021-.006v6h1.002l.947-.326-1.949-5.674zm.067-.016v6h1.002l.948-.325-1.95-5.675zm.052-.021v-6H22.65l-1.293.666 2.748 5.334zm.016-.006v6h1.455l1.293-.666-2.748-5.334zm.062-.032l2.748 5.334.874-.45.684-.706-4.306-4.178zm.016-.01l-3.4-4.945-.492.338-.416.43 4.306 4.177zm.041-.027l3.398 4.945.492-.338.416-.429-4.306-4.178zm.042-.032l-3.965-4.504-.177.156-.164.17 4.306 4.178zM34.6 18.667h6V5.392l-9.964 8.772 3.964 4.504zM34.107 10H13.305v12h20.802V10zm-20.802 0c-4.525 0-7.893 3.735-7.893 7.951h12A4.074 4.074 0 0113.305 22V10zm-7.893 7.951V33.05h12v-15.1h-12zm0 15.098C5.412 37.265 8.78 41 13.305 41V29a4.074 4.074 0 014.107 4.049h-12zM13.305 41h20.802V29H13.305v12zm20.802 0C38.632 41 42 37.265 42 33.049H30A4.074 4.074 0 0134.107 29v12zM42 33.049V17.95H30v15.1h12zm0-15.098C42 13.735 38.632 10 34.107 10v12A4.074 4.074 0 0130 17.951h12zm-12.136-5.009l-9.996 8.81 7.935 9.003 9.996-8.81-7.935-9.003zm-2.061 8.81l-9.996-8.81-7.935 9.003 9.996 8.81 7.935-9.002zm-13.964 1.691h19.993v-12H13.84v12zM28.6 33.05c0-2.864 2.294-5.492 5.508-5.492v12c3.752 0 6.492-3.088 6.492-6.508h-12zm5.508-5.492H13.305v12h20.802v-12zm-20.802 0c3.213 0 5.507 2.628 5.507 5.492h-12c0 3.42 2.74 6.508 6.493 6.508v-12zm5.507 5.492V18.438h-12v14.61h12zM8.846 22.94l10.567 9.313 7.934-9.003-10.567-9.312-7.934 9.002zm10.228 8.99a6.023 6.023 0 00.905.766l.01.007.003.001.001.001-.002-.001-.009-.006a2.92 2.92 0 01-.035-.025l-.06-.043a5.866 5.866 0 01-.792-.684l8.612-8.357a6.086 6.086 0 00-.905-.765l-.01-.007a.074.074 0 00-.003-.002h-.001.002l.009.007.035.024a5.022 5.022 0 01.269.2 5.951 5.951 0 01.583.527l-8.612 8.357zm.02.016a5.945 5.945 0 00.906.766l.01.006.002.002h-.001l-.008-.007a2.397 2.397 0 01-.096-.067 5.734 5.734 0 01-.555-.453 5.976 5.976 0 01-.236-.231l8.612-8.356a6.08 6.08 0 00-.905-.766l-.01-.007a.027.027 0 01-.003-.002l.001.001.009.006.035.024a7.75 7.75 0 01.268.2 5.81 5.81 0 01.584.527l-8.612 8.357zm.93.783a4.676 4.676 0 01-.224-.162 6.075 6.075 0 001.714.918l3.898-11.349a5.908 5.908 0 011.54.797c.078.056.169.126.113.083-.022-.016-.119-.09-.246-.178l-6.795 9.891zm-.867-.74a6.055 6.055 0 001.531 1.143l.026.013a.155.155 0 00.008.004l-.007-.004-.025-.012a5.684 5.684 0 01-.464-.27 5.982 5.982 0 01-1.053-.864l8.612-8.356a5.95 5.95 0 00-1.271-.998 6.227 6.227 0 00-.26-.145l-.026-.013a.29.29 0 01-.009-.005l.008.004.025.013.04.022.058.03a5.944 5.944 0 011.42 1.081l-8.613 8.357zm1.573 1.166l.031.016.031.016 5.497-10.667-.03-.016-.032-.016-5.497 10.667zm2.81.698a5.975 5.975 0 01-2.664-.625l-.043-.022-.025-.012a.504.504 0 01-.008-.005l.003.002.006.003a3.274 3.274 0 01.07.035 7.421 7.421 0 00.365.167 5.966 5.966 0 001.592.42c.221.026.462.043.72.043v-12a5.974 5.974 0 012.605.595l.06.03a13.136 13.136 0 01.074.037l.002.002-.002-.002a.187.187 0 00-.007-.003l-.026-.014-.043-.021a9.378 9.378 0 00-.244-.115 6.182 6.182 0 00-.634-.239 6.023 6.023 0 00-1.8-.276v12zm-1.933-.32a5.872 5.872 0 01-.638-.262l.034.017c.099.047.526.252 1.108.402l2.994-11.62a5.887 5.887 0 011.053.381l.021.01a6.59 6.59 0 00-.673-.277l-3.899 11.35zm2.001.347a6.027 6.027 0 01-1.922-.317l-.013-.005a.14.14 0 01-.002 0h.003a1.046 1.046 0 00.073.025 5.937 5.937 0 001.236.267 6.017 6.017 0 00.646.035v-12a6.027 6.027 0 011.922.317l.013.005a.14.14 0 01.004.001h-.001l-.004-.002-.015-.004a8.14 8.14 0 00-.311-.097 5.937 5.937 0 00-1.276-.215 5.974 5.974 0 00-.353-.01v12zm-1.928-.32l.01.003a7.705 7.705 0 01.111.037 6.092 6.092 0 001.874.296v-12c.667 0 1.19.113 1.474.186.26.068.479.146.43.129l-3.9 11.349zm1.996.336a6.03 6.03 0 01-1.867-.299l-.055-.018-.014-.005a.14.14 0 01-.002 0l.004.001.015.005a5.255 5.255 0 00.412.124 6.137 6.137 0 001.175.187c.106.006.224.01.352.01v-12a6.025 6.025 0 011.923.318l.013.004a.023.023 0 00.002 0h-.004a1.688 1.688 0 00-.072-.025 6.697 6.697 0 00-.475-.135 6.188 6.188 0 00-1.054-.157 6.06 6.06 0 00-.353-.01v12zm-1.929-.32a6.1 6.1 0 00.952.243l.081.013.05.008.013.002h.005l-.012-.001a6.352 6.352 0 01-.042-.007l-.075-.012a6.616 6.616 0 01-.433-.091 5.874 5.874 0 01-.487-.144l3.899-11.35a6.013 6.013 0 00-1.033-.256l-.05-.008-.013-.001-.005-.001.011.002a6.352 6.352 0 01.55.11 5.874 5.874 0 01.488.144l-3.899 11.349zm2.001.336h.016v-12h-.015v12zm.016 0a5.929 5.929 0 01-.62-.033l-.024-.003h-.005l.014.001.032.004a6.282 6.282 0 00.67.036v-12a5.814 5.814 0 01.62.034l.024.002h.005a.625.625 0 00-.046-.005 6.386 6.386 0 00-.67-.036v12zm.067.005h.105a6.172 6.172 0 001.46-.194L22.4 22.1a5.818 5.818 0 011.12-.175c.187-.011.343-.01.31-.01v12zm.068-.005h.015v-12h-.015v12zm.015 0c1.035 0 1.819-.273 2.002-.336l-3.9-11.35a5.762 5.762 0 011.898-.314v12zm.052-.01a5.973 5.973 0 001.94-.322l.015-.005.004-.001h-.003l-.013.005a4.585 4.585 0 01-.303.094 4.812 4.812 0 01-.36.09 6.325 6.325 0 01-.615.098 5.835 5.835 0 01-.644.035v-12a6.058 6.058 0 00-1.955.326l-.003.002h-.002l.004-.001.013-.005a7.235 7.235 0 01.303-.094 6.904 6.904 0 01.36-.089 5.633 5.633 0 01.615-.099 6.089 6.089 0 01.644-.035v12zm1.97-.332c.05-.016-.168.062-.429.129a5.907 5.907 0 01-1.473.186v-12a6.094 6.094 0 00-1.875.296l-.088.03a3.12 3.12 0 01-.033.01l3.898 11.35zm-1.902.315a6.058 6.058 0 001.954-.326l.004-.001h-.002l-.013.005a7.235 7.235 0 01-.304.094 6.904 6.904 0 01-.36.09 5.633 5.633 0 01-.615.098 6.089 6.089 0 01-.644.035v-12a5.973 5.973 0 00-1.94.322l-.014.004-.004.002h-.001l.003-.001.013-.005a4.585 4.585 0 01.304-.094 4.812 4.812 0 01.36-.089 6.325 6.325 0 01.615-.099 5.835 5.835 0 01.644-.035v12zm1.97-.33c.057-.02.42-.141.85-.363l-5.496-10.667c.18-.092.35-.169.51-.232.139-.055.257-.094.237-.088l3.899 11.35zm-1.898.304a6.007 6.007 0 002.678-.63l.043-.022a3.274 3.274 0 01.035-.017h-.001l-.006.004-.026.012a13.136 13.136 0 01-.183.09 6.39 6.39 0 01-.534.217 6.123 6.123 0 01-.672.194 5.965 5.965 0 01-1.318.146v-12a6.007 6.007 0 00-2.678.63l-.043.021-.026.014a.29.29 0 00-.007.003l-.002.001h.002a5.965 5.965 0 012.739-.663v12zm2.764-.672l.031-.016.032-.016-5.497-10.667-.031.016-.032.016 5.497 10.667zm1.62-1.188a5.862 5.862 0 01-1.053.863 6.026 6.026 0 01-.464.27c-.011.006-.02.01-.025.014l-.008.004.002-.002.007-.003.026-.013a18.32 18.32 0 00.1-.054 6.098 6.098 0 001.161-.828c.092-.084.182-.171.27-.261l-8.612-8.357a5.971 5.971 0 011.419-1.08l.057-.031a5.44 5.44 0 01.041-.022l.025-.013a.18.18 0 00.008-.004l-.002.001a.117.117 0 01-.007.004l-.026.013a6.385 6.385 0 00-.717.441 6.087 6.087 0 00-.814.702l8.612 8.356zm-.893.757a6.802 6.802 0 01-.207.136l-.014.008a2.817 2.817 0 00.081-.05 6.64 6.64 0 00.182-.121l-6.796-9.89a5.406 5.406 0 01.208-.136l.014-.009a2.817 2.817 0 00-.081.051 5.982 5.982 0 00-.182.12l6.795 9.89zm.95-.794a5.976 5.976 0 01-.887.752l-.008.005-.003.002h.002l.002-.003.01-.006a4.163 4.163 0 00.193-.14 6.545 6.545 0 00.473-.393 6.17 6.17 0 00.239-.233l-8.612-8.357a5.978 5.978 0 01.887-.751l.008-.006.003-.001h-.002l-.002.002-.01.007a13.159 13.159 0 00-.193.139 5.941 5.941 0 00-.712.627l8.612 8.356zm.021-.016a5.983 5.983 0 01-.888.752l-.008.006-.002.001.003-.002.01-.007a4.163 4.163 0 00.193-.14 5.86 5.86 0 00.713-.626l-8.612-8.356a5.991 5.991 0 01.852-.728l.035-.024.009-.006.002-.002-.001.001-.003.002-.01.007a5.966 5.966 0 00-.666.533 6.02 6.02 0 00-.24.232l8.613 8.357zm-.32.31l10.317-9.084-7.93-9.007-10.317 9.083 7.93 9.007zm.352-13.587v14.38h12v-14.38h-12z" fill="#fff" mask="url(#path-2-inside-1_45_16)"/><defs><linearGradient id="paint0_linear_45_16" x1="48" y1="29.683" x2="0" y2="29.735" gradientUnits="userSpaceOnUse"><stop stop-color="#3ABEBB"/><stop offset="1" stop-color="#79E7CC"/></linearGradient></defs></svg>