<svg width="51" height="51" fill="none" xmlns="http://www.w3.org/2000/svg"><g filter="url(#filter0_d_888_369)"><circle cx="25.5" cy="25.5" r="21.5" fill="#DEE9EE"/><circle cx="25.5" cy="25.5" r="21" stroke="#D3DEE3"/></g><g filter="url(#filter1_i_888_369)"><path d="M25.124 15c.106.084.237.152.316.256 1.86 2.447 3.73 4.889 5.566 7.353 1.047 1.406 1.71 2.984 1.928 4.72.393 3.145-.973 5.9-3.74 7.531-3.69 2.174-8.472 1.151-10.916-2.322-.941-1.337-1.332-2.838-1.272-4.454.07-1.88.681-3.596 1.756-5.133.997-1.423 2.078-2.79 3.125-4.179.87-1.152 1.742-2.304 2.62-3.45.097-.126.243-.216.366-.322h.25zm5.61 14.078c.008-.311-.155-.517-.407-.555-.279-.043-.502.106-.574.385-.012.046-.015.095-.028.14-.102.353-.17.72-.317 1.056-.452 1.036-1.239 1.763-2.264 2.256-.313.15-.414.428-.274.692.134.253.42.33.72.188.941-.446 1.718-1.083 2.3-1.94.467-.687.75-1.442.845-2.222z" fill="url(#paint0_linear_888_369)"/></g><defs><filter id="filter0_d_888_369" x="0" y="0" width="51" height="51" filterUnits="userSpaceOnUse" color-interpolation-filters="sRGB"><feFlood flood-opacity="0" result="BackgroundImageFix"/><feColorMatrix in="SourceAlpha" values="0 0 0 0 0 0 0 0 0 0 0 0 0 0 0 0 0 0 127 0" result="hardAlpha"/><feOffset/><feGaussianBlur stdDeviation="2"/><feComposite in2="hardAlpha" operator="out"/><feColorMatrix values="0 0 0 0 0.677847 0 0 0 0 0.704536 0 0 0 0 0.716667 0 0 0 0.5 0"/><feBlend in2="BackgroundImageFix" result="effect1_dropShadow_888_369"/><feBlend in="SourceGraphic" in2="effect1_dropShadow_888_369" result="shape"/></filter><filter id="filter1_i_888_369" x="17" y="15" width="16" height="21" filterUnits="userSpaceOnUse" color-interpolation-filters="sRGB"><feFlood flood-opacity="0" result="BackgroundImageFix"/><feBlend in="SourceGraphic" in2="BackgroundImageFix" result="shape"/><feColorMatrix in="SourceAlpha" values="0 0 0 0 0 0 0 0 0 0 0 0 0 0 0 0 0 0 127 0" result="hardAlpha"/><feOffset/><feGaussianBlur stdDeviation="2"/><feComposite in2="hardAlpha" operator="arithmetic" k2="-1" k3="1"/><feColorMatrix values="0 0 0 0 0 0 0 0 0 0 0 0 0 0 0 0 0 0 0.45 0"/><feBlend in2="shape" result="effect1_innerShadow_888_369"/></filter><linearGradient id="paint0_linear_888_369" x1="25" y1="15" x2="25" y2="36" gradientUnits="userSpaceOnUse"><stop offset=".083" stop-color="#00CD5E"/><stop offset=".318" stop-color="#00F3FF"/><stop offset=".557" stop-color="#7D59C9"/><stop offset=".771" stop-color="#E10000"/><stop offset="1" stop-color="#FFE600"/></linearGradient></defs></svg>