<svg width="23" height="18" fill="none" xmlns="http://www.w3.org/2000/svg"><path d="M21.229 0H1.77C.796 0 0 .83 0 1.849V16.15C0 17.17.796 18 1.771 18H21.23c.975 0 1.771-.83 1.771-1.849V1.85C23 .83 22.204 0 21.229 0zm-.257 1.367l-9.35 8.347L2.27 1.367h18.7zm.718 14.784a.474.474 0 01-.461.482H1.77a.474.474 0 01-.46-.482V2.31l9.883 8.822c.005.005.015.01.02.015l.02.016c.014.01.023.02.038.025.005.005.01.005.014.01l.059.03c.005 0 .01.005.014.005.015.006.03.016.049.02.005 0 .014.006.02.006.014.005.028.01.043.01.005 0 .014.005.02.005.014.005.033.005.048.01h.014c.02 0 .044.005.063.005.02 0 .044 0 .064-.005h.014a.168.168 0 00.049-.01c.005 0 .014-.005.019-.005a.136.136 0 01.044-.01c.005 0 .014-.005.02-.005a.386.386 0 00.048-.02c.005 0 .01-.005.014-.005l.058-.03c.005-.006.01-.006.015-.011l.039-.025.02-.016c.004-.005.014-.01.019-.015l9.65-8.605v13.624z" fill="#016F9F"/></svg>