<svg width="54" height="29" fill="none" xmlns="http://www.w3.org/2000/svg"><path d="M4.37 0c.058.046.128.083.17.14 1.002 1.344 2.007 2.684 2.995 4.037.564.772.92 1.638 1.037 2.59.212 1.727-.523 3.24-2.011 4.135A4.39 4.39 0 01.688 9.628C.18 8.893-.03 8.069.003 7.181a5.245 5.245 0 01.945-2.817c.536-.782 1.118-1.532 1.681-2.294.468-.633.937-1.265 1.41-1.894.052-.07.13-.119.197-.177h.135zm3.02 7.728c.004-.171-.084-.284-.22-.305-.15-.023-.27.059-.309.212-.006.025-.008.052-.015.077-.055.193-.092.395-.17.58-.244.568-.667.967-1.219 1.237-.168.083-.222.235-.147.38.072.14.226.181.387.104a3.047 3.047 0 001.238-1.065c.251-.378.404-.792.454-1.22z" fill="#016F9F"/><path d="M15.449 0c.057.046.127.083.17.14 1.001 1.344 2.007 2.684 2.995 4.037a5.48 5.48 0 011.037 2.59c.211 1.727-.524 3.24-2.012 4.135a4.39 4.39 0 01-5.873-1.274c-.507-.735-.717-1.559-.684-2.446a5.244 5.244 0 01.944-2.817c.537-.782 1.118-1.532 1.682-2.294.467-.633.937-1.265 1.41-1.894.051-.07.13-.119.196-.177h.135zm3.019 7.728c.004-.171-.084-.284-.22-.305-.15-.023-.27.059-.309.212-.006.025-.008.052-.015.077-.055.193-.091.395-.17.58-.243.568-.667.967-1.218 1.237-.168.083-.223.235-.148.38.073.14.226.181.387.104a3.048 3.048 0 001.238-1.065c.252-.378.404-.792.455-1.22z" fill="#F29200"/><path d="M26.518 0c.058.046.128.083.17.14 1.001 1.344 2.007 2.684 2.995 4.037a5.48 5.48 0 011.037 2.59c.212 1.727-.523 3.24-2.012 4.135a4.39 4.39 0 01-5.873-1.274c-.506-.735-.716-1.559-.684-2.446a5.245 5.245 0 01.945-2.817c.536-.782 1.117-1.532 1.68-2.294.469-.633.938-1.265 1.41-1.894.052-.07.131-.119.197-.177h.135zm3.019 7.728c.004-.171-.084-.284-.22-.305-.15-.023-.27.059-.308.212-.007.025-.009.052-.015.077-.055.193-.092.395-.17.58-.244.568-.667.967-1.22 1.237-.167.083-.222.235-.146.38.072.14.225.181.387.104a3.048 3.048 0 001.237-1.065 2.79 2.79 0 00.455-1.22z" fill="#2BB5B8"/><path d="M37.763 0c.057.046.127.083.17.14 1 1.344 2.006 2.684 2.994 4.037a5.48 5.48 0 011.037 2.59c.212 1.727-.523 3.24-2.012 4.135a4.39 4.39 0 01-5.872-1.274c-.507-.735-.717-1.559-.685-2.446a5.245 5.245 0 01.945-2.817c.536-.782 1.118-1.532 1.681-2.294.468-.633.937-1.265 1.41-1.894.052-.07.13-.119.197-.177h.135zm3.018 7.728c.004-.171-.084-.284-.219-.305-.15-.023-.27.059-.309.212-.007.025-.008.052-.015.077-.055.193-.092.395-.17.58-.244.568-.667.967-1.219 1.237-.168.083-.222.235-.147.38.072.14.226.181.387.104a3.048 3.048 0 001.238-1.065c.251-.378.403-.792.454-1.22z" fill="#F200AE"/><path d="M49.37 0c.058.046.128.083.17.14 1.002 1.344 2.007 2.684 2.995 4.037.564.772.92 1.638 1.037 2.59.212 1.727-.523 3.24-2.012 4.135a4.39 4.39 0 01-5.872-1.274c-.507-.735-.717-1.559-.685-2.446a5.245 5.245 0 01.945-2.817c.536-.782 1.118-1.532 1.681-2.294.468-.633.937-1.265 1.41-1.894.052-.07.13-.119.197-.177h.135zm3.02 7.728c.004-.171-.084-.284-.22-.305-.15-.023-.27.059-.309.212-.006.025-.008.052-.015.077-.055.193-.092.395-.17.58-.244.568-.667.967-1.218 1.237-.169.083-.223.235-.148.38.072.14.226.181.387.104a3.047 3.047 0 001.238-1.065c.251-.378.404-.792.454-1.22z" fill="#F2DA00"/><path d="M49.37 16c.058.046.128.083.17.14 1.002 1.344 2.007 2.684 2.995 4.037.564.772.92 1.638 1.037 2.59.212 1.727-.523 3.24-2.012 4.135a4.39 4.39 0 01-5.872-1.274c-.507-.735-.717-1.559-.685-2.446a5.246 5.246 0 01.945-2.817c.536-.782 1.118-1.532 1.681-2.294.468-.633.937-1.265 1.41-1.894.052-.07.13-.119.197-.177h.135zm3.02 7.728c.004-.171-.084-.284-.22-.305-.15-.023-.27.059-.309.212-.006.025-.008.051-.015.076-.055.194-.092.396-.17.58-.244.569-.667.968-1.218 1.238-.169.083-.223.235-.148.38.072.14.226.181.387.104a3.046 3.046 0 001.238-1.065c.251-.378.404-.792.454-1.22z" fill="#F20000"/><path d="M4.363 16.696c.058.046.128.083.17.14 1 1.341 2.003 2.68 2.99 4.03.562.77.918 1.635 1.035 2.586.211 1.724-.522 3.234-2.008 4.128a4.383 4.383 0 01-5.863-1.273c-.506-.733-.716-1.555-.684-2.441.037-1.03.366-1.97.944-2.813.535-.78 1.115-1.529 1.678-2.29.467-.632.935-1.262 1.407-1.89.052-.07.13-.119.197-.177h.134zm3.014 7.715c.004-.17-.084-.283-.219-.304-.15-.024-.27.058-.308.21-.007.026-.008.053-.015.078-.055.193-.092.395-.17.578-.243.568-.666.966-1.217 1.236-.167.083-.222.235-.147.38.072.138.226.18.387.103a3.043 3.043 0 001.235-1.063c.251-.377.403-.79.454-1.218z" fill="#0E2E6B"/><path d="M15.414 16.696c.057.046.127.083.17.14.999 1.341 2.003 2.68 2.99 4.03.562.77.918 1.635 1.035 2.586.21 1.724-.523 3.234-2.009 4.128a4.383 4.383 0 01-5.863-1.273c-.506-.733-.715-1.555-.683-2.441.037-1.03.366-1.97.943-2.813.535-.78 1.116-1.529 1.678-2.29.467-.631.936-1.262 1.408-1.89.052-.07.13-.119.196-.177h.135zm3.014 7.715c.004-.17-.084-.283-.22-.304-.149-.024-.269.058-.308.21-.006.026-.008.053-.015.078-.055.193-.091.395-.17.578-.243.568-.665.966-1.216 1.236-.168.083-.223.235-.147.38.072.138.225.18.386.103a3.043 3.043 0 001.236-1.063c.25-.377.403-.79.454-1.218z" fill="#87D4D6"/><path d="M26.525 16.696c.058.046.127.083.17.14 1 1.341 2.003 2.68 2.99 4.03a5.47 5.47 0 011.035 2.586c.211 1.724-.523 3.234-2.009 4.128a4.383 4.383 0 01-5.862-1.273c-.506-.733-.716-1.555-.684-2.441.037-1.03.366-1.97.943-2.813.535-.78 1.116-1.529 1.679-2.29.467-.631.935-1.262 1.407-1.89.052-.07.13-.119.197-.177h.134zm3.014 7.715c.004-.17-.084-.283-.219-.304-.15-.024-.27.058-.308.21-.007.026-.009.053-.015.078-.055.193-.092.395-.17.578-.244.568-.666.966-1.217 1.236-.168.083-.222.235-.147.38.072.138.226.18.386.103a3.044 3.044 0 001.236-1.063c.251-.377.403-.79.454-1.218z" fill="#A129B5"/><path d="M37.755 16.696c.057.046.127.083.17.14 1 1.341 2.003 2.68 2.99 4.03.562.77.918 1.635 1.035 2.586.211 1.724-.523 3.234-2.009 4.128a4.383 4.383 0 01-5.863-1.273c-.505-.733-.715-1.555-.683-2.441.037-1.03.366-1.97.943-2.813.535-.78 1.116-1.529 1.679-2.29.467-.632.935-1.262 1.407-1.89.052-.07.13-.119.197-.177h.134zm3.014 7.715c.004-.17-.084-.283-.219-.304-.15-.024-.27.058-.308.21-.007.026-.009.053-.015.078-.055.193-.092.395-.17.578-.244.568-.666.966-1.217 1.236-.168.083-.222.235-.147.38.072.138.226.18.386.103a3.043 3.043 0 001.236-1.063c.251-.377.403-.79.454-1.218z" fill="#BCCBD2"/></svg>