<svg width="46" height="40" fill="none" xmlns="http://www.w3.org/2000/svg"><path d="M6.497 0c.086.069.19.124.253.21 1.488 1.996 2.983 3.988 4.451 6a8.145 8.145 0 011.542 3.85c.315 2.567-.778 4.816-2.99 6.146a6.527 6.527 0 01-8.73-1.894C.268 13.22-.044 11.995.004 10.677.06 9.143.55 7.742 1.409 6.488c.797-1.161 1.662-2.276 2.5-3.41.695-.94 1.393-1.88 2.095-2.815.078-.103.194-.176.293-.263h.2zm4.488 11.488c.006-.254-.125-.422-.326-.453-.223-.035-.401.087-.46.314-.01.038-.012.078-.022.115-.082.288-.136.588-.253.861-.362.846-.991 1.439-1.811 1.841-.25.123-.331.35-.22.565.108.206.336.27.576.153a4.53 4.53 0 001.84-1.582c.374-.562.6-1.178.676-1.814z" fill="#016F9F"/><path d="M22.966 0c.085.069.19.124.253.21 1.487 1.996 2.982 3.988 4.451 6a8.145 8.145 0 011.542 3.85c.314 2.567-.778 4.816-2.99 6.146a6.527 6.527 0 01-8.731-1.894c-.753-1.092-1.066-2.317-1.018-3.635.056-1.534.545-2.935 1.405-4.189.797-1.161 1.662-2.276 2.5-3.41.695-.94 1.392-1.88 2.095-2.815.077-.103.194-.176.293-.263h.2zm4.487 11.488c.006-.254-.125-.422-.326-.453-.223-.035-.4.087-.459.314-.01.038-.012.078-.022.115-.082.288-.137.588-.254.861-.361.846-.99 1.439-1.81 1.841-.25.123-.332.35-.22.565.108.206.336.27.576.153a4.53 4.53 0 001.84-1.582 4.15 4.15 0 00.675-1.814z" fill="#F29200"/><path d="M39.42 0c.086.069.19.124.253.21 1.488 1.996 2.983 3.988 4.452 6a8.143 8.143 0 011.542 3.85c.314 2.567-.778 4.816-2.991 6.146a6.527 6.527 0 01-8.73-1.894c-.753-1.092-1.066-2.317-1.018-3.635.056-1.534.545-2.935 1.405-4.189.797-1.161 1.661-2.276 2.499-3.41.695-.94 1.393-1.88 2.096-2.815.077-.103.194-.176.292-.263h.2zm4.488 11.488c.006-.254-.125-.422-.326-.453-.223-.035-.401.087-.46.314-.009.038-.011.078-.022.115-.081.288-.136.588-.253.861-.361.846-.99 1.439-1.81 1.841-.25.123-.332.35-.22.565.107.206.336.27.575.153a4.53 4.53 0 001.84-1.582c.374-.562.6-1.178.676-1.814z" fill="#2BB5B8"/><path d="M6.497 22.863c.086.07.19.124.253.21 1.488 1.996 2.983 3.989 4.451 6a8.145 8.145 0 011.542 3.85c.315 2.567-.778 4.816-2.99 6.147a6.527 6.527 0 01-8.73-1.895C.268 36.084-.044 34.86.004 33.54c.055-1.533.545-2.935 1.404-4.188.797-1.162 1.662-2.277 2.5-3.41.695-.941 1.393-1.88 2.095-2.816.078-.103.194-.176.293-.263h.2zm4.488 11.489c.006-.255-.125-.422-.326-.454-.223-.035-.401.087-.46.315-.01.037-.012.077-.022.114-.082.288-.136.588-.253.862-.362.845-.991 1.438-1.811 1.84-.25.123-.331.35-.22.565.108.206.336.27.576.154a4.53 4.53 0 001.84-1.583c.374-.561.6-1.178.676-1.813z" fill="#0E2E6B"/><path d="M22.952 22.863c.085.07.19.124.253.21 1.488 1.997 2.983 3.989 4.451 6a8.146 8.146 0 011.542 3.85c.315 2.567-.778 4.816-2.99 6.147a6.526 6.526 0 01-8.731-1.895c-.753-1.091-1.066-2.316-1.018-3.635.056-1.533.545-2.934 1.405-4.188.797-1.162 1.662-2.277 2.5-3.41a466.3 466.3 0 012.095-2.816c.077-.103.194-.176.293-.263h.2zm4.487 11.489c.007-.255-.124-.422-.326-.453-.223-.035-.4.086-.459.314-.01.037-.012.077-.022.114-.082.288-.137.588-.254.862-.361.845-.99 1.438-1.81 1.84-.25.123-.332.35-.22.565.108.207.336.27.576.154a4.53 4.53 0 001.84-1.583c.373-.561.6-1.177.675-1.813z" fill="#87D4D6"/><path d="M39.497 22.863c.086.07.19.124.253.21 1.488 1.997 2.983 3.989 4.452 6a8.146 8.146 0 011.541 3.85c.315 2.567-.778 4.816-2.99 6.147a6.526 6.526 0 01-8.73-1.895c-.754-1.091-1.066-2.316-1.018-3.635.055-1.533.544-2.934 1.404-4.188.797-1.162 1.662-2.277 2.5-3.41.695-.94 1.393-1.88 2.095-2.816.078-.103.194-.176.293-.263h.2zm4.488 11.489c.006-.255-.125-.422-.326-.453-.223-.035-.401.086-.46.314-.01.037-.012.077-.022.114-.082.288-.136.588-.253.862-.362.845-.991 1.438-1.811 1.84-.25.123-.331.35-.22.565.108.207.337.27.576.154a4.53 4.53 0 001.84-1.583c.374-.561.6-1.177.676-1.813z" fill="#BCCBD2"/></svg>