<svg width="36" height="37" fill="none" xmlns="http://www.w3.org/2000/svg"><path d="M18 36.398c9.941 0 18-8.06 18-18 0-9.942-8.059-18-18-18s-18 8.058-18 18c0 9.94 8.059 18 18 18z" fill="#2BB5B8"/><path d="M18 10.621c2.403 0 2.688.01 3.637.053.877.04 1.354.187 1.67.31a2.8 2.8 0 011.036.674c.315.315.51.614.673 1.035.123.317.27.794.31 1.671.043.95.053 1.234.053 3.637 0 2.402-.01 2.688-.053 3.636-.04.878-.186 1.354-.31 1.672-.163.42-.359.72-.673 1.035-.315.315-.615.51-1.035.672-.317.124-.794.27-1.671.31-.95.044-1.234.053-3.637.053s-2.688-.009-3.637-.052c-.877-.04-1.354-.187-1.67-.31a2.797 2.797 0 01-1.036-.673 2.783 2.783 0 01-.673-1.035c-.123-.318-.27-.794-.31-1.672-.043-.949-.053-1.234-.053-3.636 0-2.403.01-2.688.053-3.637.04-.877.187-1.354.31-1.671.163-.42.359-.72.673-1.035.314-.315.615-.51 1.035-.674.317-.123.794-.27 1.671-.31.949-.043 1.234-.053 3.637-.053zM18 9c-2.444 0-2.75.01-3.71.054-.959.044-1.613.196-2.186.418a4.41 4.41 0 00-1.594 1.038c-.5.5-.808 1.003-1.037 1.595-.223.572-.375 1.226-.419 2.185C9.011 15.25 9 15.556 9 18s.01 2.75.054 3.71c.044.958.196 1.613.418 2.185a4.41 4.41 0 001.038 1.594c.5.5 1.002.808 1.594 1.038.573.222 1.227.375 2.185.418.96.044 1.267.055 3.711.055s2.75-.01 3.71-.054c.958-.044 1.613-.196 2.185-.419a4.41 4.41 0 001.594-1.037c.5-.5.808-1.002 1.038-1.594.222-.573.375-1.227.418-2.185.044-.96.054-1.266.054-3.71s-.01-2.75-.054-3.71c-.043-.958-.196-1.613-.418-2.185a4.41 4.41 0 00-1.038-1.594c-.5-.5-1.002-.81-1.594-1.04-.572-.222-1.227-.374-2.185-.418C20.75 9.011 20.444 9 18 9zm0 4.378a4.622 4.622 0 100 9.244 4.622 4.622 0 000-9.244zM18 21a3 3 0 110-6 3 3 0 010 6zm5.884-7.805a1.08 1.08 0 11-2.16 0 1.08 1.08 0 012.16 0z" fill="#fff"/></svg>