<svg width="24" height="24" fill="none" xmlns="http://www.w3.org/2000/svg"><path fill-rule="evenodd" clip-rule="evenodd" d="M2 7.375c0-.895.348-1.754.967-2.386A3.263 3.263 0 015.3 4h15.4c.875 0 1.715.356 2.334.989.618.632.966 1.49.966 2.386V8.5H2V7.375zm0 3.375v7.875c0 .895.348 1.754.967 2.387A3.263 3.263 0 005.3 22h15.4c.875 0 1.715-.356 2.334-.988A3.415 3.415 0 0024 18.625V10.75H2zM7.5 13c-.292 0-.572.118-.778.33a1.138 1.138 0 00-.322.795c0 .298.116.585.322.796.206.21.486.329.778.329H13c.292 0 .572-.118.778-.33a1.141 1.141 0 000-1.591A1.088 1.088 0 0013 13H7.5z" fill="#000"/></svg>