<svg width="61" height="62" fill="none" xmlns="http://www.w3.org/2000/svg"><path d="M46.025 14.3c8.32-.75 14.964-3.171 14.964-9.406 0-2.08-3.74-4.849-10.113-3.691-6.334 1.148-14.514 6.809-16.775 9.74-.579-1.114-1.948-1.898-3.547-1.898-1.592 0-2.965.78-3.548 1.896-2.261-2.926-10.437-8.593-16.775-9.738C3.863.048.123 2.816.123 4.897c0 6.235 6.64 8.653 14.967 9.407.863.073 1.683.13 2.474.173H1.007V61.95H25.63V14.477h-3.498c2.314-.149 4.005-.55 4.84-1.212.56 1.151 1.948 1.972 3.578 1.972 1.637 0 3.025-.82 3.577-1.972.84.662 2.53 1.063 4.84 1.212h-3.493V61.95h24.618V14.477H43.54a64.906 64.906 0 002.485-.176zm-29.85-1.005c-6.163-.556-11.08-2.345-11.08-6.963 0-1.54 2.772-3.592 7.492-2.735 5.487.994 12.877 6.584 12.877 8.124-.004 1.54-3.703 2.082-9.288 1.574zm19.476-1.574c0-1.54 7.386-7.13 12.873-8.124 4.712-.857 7.488 1.194 7.488 2.735 0 4.618-4.916 6.407-11.084 6.963-5.582.508-9.277-.033-9.277-1.574z" fill="#1CADB7"/></svg>