<svg width="21" height="28" fill="none" xmlns="http://www.w3.org/2000/svg"><path d="M10.616 0c.14.112.31.202.413.342 2.431 3.262 4.874 6.518 7.273 9.803 1.369 1.875 2.236 3.979 2.52 6.293.514 4.194-1.271 7.868-4.887 10.042-4.822 2.898-11.071 1.535-14.264-3.096C.44 21.601-.07 19.6.008 17.444c.09-2.505.89-4.794 2.295-6.842 1.302-1.898 2.715-3.72 4.083-5.572A751.562 751.562 0 019.81.43c.127-.169.317-.288.479-.43h.327zm7.332 18.77c.01-.415-.203-.689-.532-.74-.364-.057-.656.142-.75.514-.017.061-.02.126-.037.187-.134.47-.223.96-.414 1.408-.591 1.381-1.62 2.35-2.96 3.008-.407.2-.54.57-.357.923.175.336.548.44.94.25 1.231-.595 2.246-1.444 3.006-2.586.61-.917.98-1.924 1.104-2.963z" fill="url(#paint0_angular_116_4)"/><defs><radialGradient id="paint0_angular_116_4" cx="0" cy="0" r="1" gradientUnits="userSpaceOnUse" gradientTransform="scale(10.4543 14) rotate(90 0 1)"><stop stop-color="#00CD5E"/><stop offset=".236" stop-color="#00F3FF"/><stop offset=".455" stop-color="#C759C9"/><stop offset=".653" stop-color="#E10000"/><stop offset="1" stop-color="#FFE600"/></radialGradient></defs></svg>