<svg width="49" height="49" fill="none" xmlns="http://www.w3.org/2000/svg"><circle cx="24.5" cy="24.825" r="24" fill="url(#paint0_linear_216_2280)"/><path d="M35.557 30.144l-2.923-2.965c-.517-.55-1.14-.834-1.805-.845-.654 0-1.298.275-1.836.813l-1.7 1.678-.411-.222c-.19-.095-.37-.19-.528-.285-1.583-1.013-3.018-2.332-4.39-4.042-.665-.855-1.108-1.562-1.436-2.29.433-.401.845-.813 1.246-1.214l.453-.453c1.13-1.12 1.14-2.576.022-3.705l-1.457-1.478a22.126 22.126 0 01-.496-.506 22.515 22.515 0 00-1.002-1.003c-.518-.517-1.13-.802-1.784-.802-.655 0-1.288.264-1.826.781l-.01.01-1.837 1.827a3.932 3.932 0 00-1.182 2.48c-.137 1.562.317 3.029.665 3.979.855 2.343 2.142 4.527 4.063 6.86 2.333 2.818 5.14 5.045 8.359 6.628 1.224.59 2.87 1.287 4.707 1.425.116.01.232.01.338.01 1.235.01 2.28-.433 3.103-1.309.01-.01.02-.01.02-.02.286-.339.602-.645.94-.961.232-.222.464-.443.697-.686.538-.549.812-1.193.823-1.847 0-.686-.275-1.32-.813-1.858zm-6.575-17.319a7.382 7.382 0 017.388 7.388m-8-3.166a3.698 3.698 0 013.693 3.694" stroke="#fff" stroke-width="2" stroke-miterlimit="10" stroke-linecap="round" stroke-linejoin="round"/><defs><linearGradient id="paint0_linear_216_2280" x1="48.5" y1="30.508" x2=".5" y2="30.56" gradientUnits="userSpaceOnUse"><stop stop-color="#3ABEBB"/><stop offset="1" stop-color="#79E7CC"/></linearGradient></defs></svg>