<svg width="40" height="27" fill="none" xmlns="http://www.w3.org/2000/svg"><path d="M38.426 8.462a1.11 1.11 0 01-.03.333l-2.467 9.87c-.124.497-.57.846-1.082.849l-14.804.075H5.234c-.515 0-.964-.351-1.089-.85L1.678 8.831a1.12 1.12 0 01-.03-.343A2.359 2.359 0 010 6.243a2.358 2.358 0 012.355-2.355A2.358 2.358 0 014.71 6.243a2.35 2.35 0 01-.86 1.818l3.09 3.112a4.215 4.215 0 002.972 1.238c1.31 0 2.56-.622 3.347-1.665l5.076-6.727a2.347 2.347 0 01-.69-1.664A2.358 2.358 0 0120 0a2.358 2.358 0 012.355 2.355c0 .63-.25 1.202-.654 1.625l.004.005 5.04 6.745a4.207 4.207 0 003.355 1.681 4.16 4.16 0 002.961-1.226l3.109-3.109a2.35 2.35 0 01-.88-1.833 2.358 2.358 0 012.355-2.355A2.358 2.358 0 0140 6.243a2.357 2.357 0 01-1.574 2.22zm-2.738 14.64a1.12 1.12 0 00-1.121-1.12H5.557a1.12 1.12 0 00-1.12 1.12v2.692c0 .62.501 1.122 1.12 1.122h29.01a1.12 1.12 0 001.121-1.122v-2.691z" fill="#2BB5B8"/></svg>