<svg width="37" height="37" fill="none" xmlns="http://www.w3.org/2000/svg"><path d="M18.665 36.825c9.941 0 18-8.059 18-18 0-9.94-8.059-18-18-18s-18 8.06-18 18c0 9.941 8.059 18 18 18z" fill="#2BB5B8"/><path d="M28.672 16.18c0-2.384-1.97-4.355-4.355-4.355H13.013c-2.385 0-4.355 1.97-4.355 4.356v5.289c0 2.385 1.97 4.355 4.355 4.355h11.304c2.385 0 4.355-1.97 4.355-4.355v-5.29zm-6.637 3.008l-5.081 2.489c-.207.104-.83 0-.83-.311v-5.081c0-.208.726-.415.83-.208l4.874 2.593c.207.103.415.414.207.518z" fill="#fff"/></svg>