<svg width="22" height="22" fill="none" xmlns="http://www.w3.org/2000/svg"><path d="M11 22a2.536 2.536 0 002.541-2.53A2.536 2.536 0 0011 16.94a2.536 2.536 0 00-2.541 2.53A2.536 2.536 0 0011 22zm-8.459 0a2.536 2.536 0 002.541-2.53 2.536 2.536 0 00-2.541-2.53A2.536 2.536 0 000 19.47 2.536 2.536 0 002.541 22zm16.918 0A2.536 2.536 0 0022 19.47a2.536 2.536 0 00-2.541-2.53 2.536 2.536 0 00-2.541 2.53A2.535 2.535 0 0019.459 22zM2.541 13.53A2.536 2.536 0 005.082 11a2.536 2.536 0 00-2.541-2.53A2.536 2.536 0 000 11a2.536 2.536 0 002.541 2.53zm8.459 0A2.536 2.536 0 0013.541 11 2.536 2.536 0 0011 8.47 2.536 2.536 0 008.459 11 2.536 2.536 0 0011 13.53zm8.459 0A2.536 2.536 0 0022 11a2.536 2.536 0 00-2.541-2.53A2.535 2.535 0 0016.918 11a2.535 2.535 0 002.541 2.53zM11 5.06a2.536 2.536 0 002.541-2.53A2.536 2.536 0 0011 0a2.536 2.536 0 00-2.541 2.53A2.536 2.536 0 0011 5.06zm-8.459 0a2.536 2.536 0 002.541-2.53A2.536 2.536 0 002.541 0 2.536 2.536 0 000 2.53a2.536 2.536 0 002.541 2.53zm16.918 0A2.536 2.536 0 0022 2.53 2.536 2.536 0 0019.459 0a2.535 2.535 0 00-2.541 2.53 2.535 2.535 0 002.541 2.53z" fill="#1D1D1B"/></svg>