<svg width="29" height="30" fill="none" xmlns="http://www.w3.org/2000/svg"><g clip-path="url(#clip0_439_433)"><path d="M27.413 21.206a1.587 1.587 0 01-1.587 1.588h-1.588v1.587a1.587 1.587 0 01-3.174 0v-1.587h-1.587a1.587 1.587 0 010-3.175h1.587v-1.587a1.587 1.587 0 013.174 0v1.587h1.588a1.587 1.587 0 011.587 1.587z" fill="#29AFB5"/><path d="M22.016.571H4.238a2.25 2.25 0 00-2.222 2.27v24.032a2.25 2.25 0 002.222 2.27h17.778c.107-.003.213-.014.318-.032a7.923 7.923 0 01.317-15.841 8.675 8.675 0 011.587.159V2.84A2.25 2.25 0 0022.016.57z" fill="#29AFB5"/><path d="M6.778 6.92a1.587 1.587 0 100-3.174 1.587 1.587 0 000 3.175z" fill="#fff"/><path d="M4.199 18.608l5.258-4.206m0 0l5.258 4.207m-1.588-2.397l6.35-5.556m0 0l4.761 3.64" stroke="#fff" stroke-linecap="round"/></g><defs><clipPath id="clip0_439_433"><path fill="#fff" transform="translate(.429 .571)" d="M0 0h28.571v28.571H0z"/></clipPath></defs></svg>