<svg width="35" height="44" fill="none" xmlns="http://www.w3.org/2000/svg"><path d="M20.166 4c.199.16.442.289.59.488 3.473 4.661 6.962 9.312 10.39 14.005 1.955 2.678 3.194 5.684 3.6 8.99.734 5.99-1.817 11.24-6.982 14.346-6.889 4.14-15.816 2.192-20.378-4.422C5.63 34.858 4.9 32 5.011 28.92c.13-3.58 1.272-6.85 3.279-9.776 1.86-2.711 3.879-5.314 5.833-7.96 1.624-2.195 3.252-4.388 4.892-6.572.18-.24.453-.41.683-.613h.468zM30.64 30.816c.015-.594-.29-.985-.76-1.058-.52-.082-.937.202-1.072.733-.023.088-.029.18-.053.267-.19.673-.318 1.373-.591 2.011-.844 1.974-2.313 3.358-4.227 4.297-.583.286-.773.815-.511 1.319.25.48.783.628 1.342.358 1.76-.85 3.21-2.064 4.295-3.694a9.675 9.675 0 001.577-4.233z" fill="url(#paint0_angular_0_1)"/><path d="M15.166 0c.199.16.442.289.59.488C19.23 5.15 22.718 9.8 26.146 14.493c1.955 2.678 3.194 5.684 3.6 8.99.734 5.99-1.817 11.24-6.982 14.346-6.889 4.14-15.816 2.192-20.378-4.422C.63 30.858-.1 28 .011 24.92c.13-3.58 1.272-6.85 3.279-9.776 1.86-2.711 3.878-5.314 5.833-7.96 1.624-2.195 3.252-4.388 4.892-6.572.18-.24.453-.41.683-.613h.468zM25.64 26.816c.015-.594-.29-.985-.76-1.058-.52-.082-.937.202-1.072.733-.023.088-.029.18-.053.267-.19.673-.318 1.373-.591 2.011-.844 1.974-2.313 3.358-4.227 4.297-.583.286-.773.815-.511 1.319.25.48.783.628 1.342.358 1.76-.85 3.21-2.064 4.295-3.694a9.675 9.675 0 001.577-4.233z" fill="#2BB5B8"/><defs><radialGradient id="paint0_angular_0_1" cx="0" cy="0" r="1" gradientUnits="userSpaceOnUse" gradientTransform="matrix(0 20 -14.9348 0 19.935 24)"><stop stop-color="#00CD5E"/><stop offset=".236" stop-color="#00F3FF"/><stop offset=".455" stop-color="#C759C9"/><stop offset=".653" stop-color="#E10000"/><stop offset="1" stop-color="#FFE600"/></radialGradient></defs></svg>