<svg width="42" height="42" fill="none" xmlns="http://www.w3.org/2000/svg"><g clip-path="url(#clip0_888_395)"><path d="M41.897 34.839l-2.268-7.03a2.142 2.142 0 00-2.026-1.488h-5.837a4.165 4.165 0 01-4.002-3.003l-.033-.11c-.397-1.389-.022-2.891 1.002-4.026a6.783 6.783 0 001.704-5.222c-.316-3.117-3.119-5.827-6.247-6.043a6.766 6.766 0 00-7.234 6.742 6.73 6.73 0 001.837 4.632c.958 1.018 1.305 2.522.905 3.923l-.034.104a4.166 4.166 0 01-4.002 3.003H9.825c-.905 0-1.71.586-2.01 1.44L5.36 34.783a2.189 2.189 0 00.274 1.964c.399.562 1.046.925 1.735.925h1.003v2.483c0 .588.523 1.065 1.111 1.065h27.953c.588 0 1.017-.477 1.017-1.065v-2.483h1.419c.68 0 1.32-.35 1.72-.9a2.182 2.182 0 00.305-1.933zm-5.573 4.252H10.5v-1.419h25.824v1.42zM4.682 4.328c0 .627-.508 1.135-1.135 1.135H1.135A1.135 1.135 0 010 4.328V1.916C0 1.289.508.78 1.135.78h2.412c.627 0 1.135.509 1.135 1.136v2.412zM9.365 9.01c0 .627-.508 1.135-1.135 1.135H5.818A1.135 1.135 0 014.682 9.01V6.598c0-.627.509-1.135 1.136-1.135H8.23c.627 0 1.135.508 1.135 1.135V9.01zm4.682-4.682c0 .627-.508 1.135-1.135 1.135H10.5a1.135 1.135 0 01-1.135-1.135V1.916c0-.627.508-1.136 1.135-1.136h2.412c.627 0 1.135.509 1.135 1.136v2.412zm-9.365 9.365c0 .626-.508 1.135-1.135 1.135H1.135A1.135 1.135 0 010 13.693V11.28c0-.627.508-1.135 1.135-1.135h2.412c.627 0 1.135.508 1.135 1.135v2.413zm9.365 0c0 .626-.508 1.135-1.135 1.135H10.5a1.135 1.135 0 01-1.135-1.135V11.28c0-.627.508-1.135 1.135-1.135h2.412c.627 0 1.135.508 1.135 1.135v2.413z" fill="#016F9F"/></g><defs><clipPath id="clip0_888_395"><path fill="#fff" d="M0 0h42v42H0z"/></clipPath></defs></svg>