<svg width="42" height="33" fill="none" xmlns="http://www.w3.org/2000/svg"><path d="M40.167 6.833H11.833A.833.833 0 0111 6V1.833c0-.46.373-.833.833-.833h28.334c.46 0 .833.373.833.833V6c0 .46-.373.833-.833.833zm0 12.5H11.833A.833.833 0 0111 18.5v-4.167c0-.46.373-.833.833-.833h28.334c.46 0 .833.373.833.833V18.5c0 .46-.373.833-.833.833zm0 12.5H11.833A.833.833 0 0111 31v-4.167c0-.46.373-.833.833-.833h28.334c.46 0 .833.373.833.833V31c0 .46-.373.833-.833.833zM6 6.833H1.833A.833.833 0 011 6V1.833c0-.46.373-.833.833-.833H6c.46 0 .833.373.833.833V6c0 .46-.373.833-.833.833zm0 12.5H1.833A.833.833 0 011 18.5v-4.167c0-.46.373-.833.833-.833H6c.46 0 .833.373.833.833V18.5c0 .46-.373.833-.833.833zm0 12.5H1.833A.833.833 0 011 31v-4.167c0-.46.373-.833.833-.833H6c.46 0 .833.373.833.833V31c0 .46-.373.833-.833.833z" stroke="#06688F" stroke-width="2" stroke-miterlimit="10" stroke-linecap="round" stroke-linejoin="round"/></svg>