<svg width="18" height="15" fill="none" xmlns="http://www.w3.org/2000/svg"><mask id="path-1-outside-1_12_19" maskUnits="userSpaceOnUse" x="0" y="0" width="18" height="15" fill="#000"><path fill="#fff" d="M0 0h18v15H0z"/><path fill-rule="evenodd" clip-rule="evenodd" d="M15.46 4.18a1.863 1.863 0 10-2.635-2.634L6.639 7.73 4.18 5.27a1.863 1.863 0 00-2.634 2.635l5.09 5.09.004.004 8.82-8.82z"/></mask><path fill-rule="evenodd" clip-rule="evenodd" d="M15.46 4.18a1.863 1.863 0 10-2.635-2.634L6.639 7.73 4.18 5.27a1.863 1.863 0 00-2.634 2.635l5.09 5.09.004.004 8.82-8.82z" fill="#fff"/><path d="M15.46 1.546l-.708.707.707-.707zm0 2.634l.706.707-.707-.707zm-2.635-2.634l.707.707-.707-.707zM6.639 7.73l-.707.707.707.707.708-.707-.708-.707zM4.18 5.27l.707-.706-.707.707zM1.546 7.907l.707-.707-.707.707zm5.09 5.09l-.707.708.707.707.707-.707-.707-.707zm0 0l.707-.707-.707-.707-.707.707.707.708zM6.64 13l-.707.707.707.707.707-.707L6.64 13zm8.112-10.747a.863.863 0 010 1.22l1.414 1.414a2.863 2.863 0 000-4.048l-1.414 1.414zm-1.22 0a.863.863 0 011.22 0L16.166.839a2.863 2.863 0 00-4.049 0l1.415 1.414zM7.347 8.438l6.185-6.185L12.117.839 5.933 7.024l1.415 1.414zm-3.874-2.46l2.46 2.46 1.414-1.414-2.46-2.46L3.473 5.98zm-1.22 0a.863.863 0 011.22 0l1.414-1.413a2.863 2.863 0 00-4.048 0l1.414 1.414zm0 1.221a.863.863 0 010-1.22L.839 4.565a2.863 2.863 0 000 4.048L2.253 7.2zm5.09 5.09L2.253 7.2.839 8.613l5.09 5.09 1.414-1.413zm-1.414 0l1.414 1.415-1.414-1.415zm1.418.004l-.004-.003-1.414 1.414.004.003 1.414-1.414zm7.405-8.82l-8.82 8.82 1.415 1.414 8.82-8.82-1.415-1.414z" fill="#959798" mask="url(#path-1-outside-1_12_19)"/></svg>