<svg width="31" height="32" fill="none" xmlns="http://www.w3.org/2000/svg"><path d="M3.026 32c-.22-.141-.315-.348-.4-.596-.563-1.625-.54-3.313-.588-4.995-.144-4.942-.29-9.882-.436-14.823-.006-.215 0-.431 0-.677 1.063.39 2.112.398 3.15.013 0 .67.015 1.302-.003 1.934-.09 3.234-.19 6.47-.286 9.705-.066 2.225-.084 4.454-.217 6.676-.048.816-.352 1.62-.568 2.42-.037.135-.223.23-.34.342L3.026 32zM19.194 9.449v4.665c0 .083-.001.167.001.25.014.347.223.575.526.575.298.001.522-.232.536-.573.01-.25.002-.5.002-.75V9.361c.458.16.876.27 1.26.452.402.19.762.467 1.156.678 1.246.665 2.503.704 3.75.001.344-.194.668-.42 1.001-.634.21-.135.418-.274.627-.41 1.264-.819 2.16-.172 2.744.917.217.405.135.838-.086 1.227-.226.397-.475.782-.724 1.166-.5.773-.923 1.579-1.113 2.49-.142.682-.054 1.325.317 1.92.232.37.487.726.715 1.098.815 1.333.816 2.672.001 4.006-.206.337-.435.66-.652.99-.464.706-.544 1.463-.327 2.271.222.824.613 1.564 1.075 2.274.243.375.488.75.706 1.14.316.569.256 1.12-.145 1.63a3.684 3.684 0 01-.355.395c-.571.545-1.159.65-1.852.272-.537-.294-1.045-.642-1.557-.98-1.2-.793-2.467-.949-3.796-.377-.341.147-.654.363-.972.56-1.557.958-3.12.971-4.68.02-.588-.358-1.165-.72-1.859-.85-1.086-.204-2.06.053-2.966.652-.476.316-.946.646-1.446.922-.992.549-2.056.133-2.465-.933-.176-.455-.086-.889.144-1.288.291-.503.617-.987.926-1.48.334-.532.626-1.083.712-1.716.151-1.105-.136-2.098-.774-3.004-.83-1.178-1.01-2.478-.579-3.832.164-.515.483-.987.766-1.457.509-.842.72-1.741.587-2.718-.087-.632-.378-1.184-.712-1.715-.298-.475-.63-.933-.898-1.424-.538-.988-.111-2.062.948-2.465.445-.169.87-.085 1.26.141.511.298 1.01.621 1.501.951 1.194.8 2.458.986 3.791.42.4-.17.761-.425 1.135-.651.639-.384 1.211-.58 1.771-.571zm5.142 16.19c-.138.11-.251.186-.347.28-.306.298-.613.595-.906.905-.22.234-.212.553-.002.757.203.199.498.206.736.01.096-.08.18-.172.268-.262.315-.325.629-.652.951-.986.432.433.82.823 1.213 1.21.168.167.388.263.592.13.148-.096.31-.284.322-.442.014-.164-.111-.372-.235-.508-.354-.39-.737-.752-1.12-1.137.412-.41.805-.795 1.193-1.186.176-.177.273-.412.12-.619a.833.833 0 00-.493-.297c-.127-.021-.308.104-.423.21-.392.367-.765.754-1.153 1.141-.392-.39-.759-.759-1.128-1.124-.3-.297-.612-.327-.848-.09-.236.237-.205.548.093.847.368.368.738.733 1.167 1.16zm-3.859-5.373c.392-.39.77-.76 1.142-1.136.275-.277.303-.599.083-.826-.237-.245-.545-.217-.845.079-.376.371-.75.744-1.132 1.126-.058-.053-.105-.092-.149-.136-.36-.36-.713-.729-1.084-1.079-.24-.225-.544-.206-.754.014-.2.21-.204.491 0 .732.081.096.174.18.263.267.322.32.644.637.972.961-.416.416-.802.794-1.18 1.18-.261.267-.272.578-.043.802.22.215.542.193.804-.057.098-.093.192-.19.287-.286l.874-.88c.427.424.814.817 1.208 1.202.202.198.441.233.684.084.225-.136.287-.36.212-.598-.038-.12-.137-.231-.229-.326-.359-.373-.727-.737-1.113-1.123zm-.767 6.09c.42.417.801.802 1.19 1.18.257.25.553.265.78.057.23-.21.228-.548-.02-.802-.385-.394-.78-.777-1.191-1.187.388-.385.758-.747 1.121-1.117.093-.095.19-.205.23-.326.078-.24.011-.46-.21-.6-.243-.151-.482-.115-.684.084-.4.392-.792.79-1.208 1.206-.391-.393-.762-.77-1.138-1.142-.284-.282-.592-.312-.825-.09-.247.236-.223.547.072.846.373.376.75.75 1.131 1.13-.398.402-.788.791-1.172 1.187-.235.242-.263.499-.095.73.203.28.562.303.84.03.396-.383.778-.78 1.179-1.187zm4.595-6.079l-1.003.99c-.074.073-.151.144-.219.223-.212.245-.21.552 0 .758.208.204.526.211.756-.012.403-.39.79-.798 1.202-1.216.397.396.77.77 1.146 1.14.29.286.622.314.849.078.228-.238.2-.535-.086-.824-.372-.377-.75-.748-1.139-1.135.092-.096.168-.179.248-.259.323-.325.655-.64.97-.974.224-.24.21-.544-.008-.754-.208-.201-.493-.206-.733-.005-.095.08-.18.173-.267.263-.318.323-.634.647-.96.98-.401-.404-.766-.774-1.135-1.14-.302-.301-.607-.331-.846-.092-.237.236-.205.548.093.847.363.367.732.732 1.132 1.132zm.75-6.095c-.085-.081-.16-.15-.232-.222-.316-.316-.628-.636-.949-.948-.26-.253-.58-.264-.8-.04-.221.226-.201.533.055.802a9.7 9.7 0 00.265.265l.914.89c-.43.43-.824.814-1.206 1.211-.288.3-.217.725.135.882.254.112.464.03.647-.156.384-.39.769-.777 1.162-1.175.416.417.801.81 1.197 1.194.275.266.64.243.84-.036.166-.232.137-.487-.1-.73-.384-.392-.775-.776-1.18-1.181.396-.393.773-.763 1.146-1.138.29-.291.317-.582.088-.822-.23-.24-.555-.216-.845.071-.377.372-.751.747-1.137 1.133zM14.432 26.307c.122.155.215.294.328.413.28.292.565.582.86.86a.515.515 0 00.71.03.52.52 0 00.114-.677c-.06-.095-.145-.176-.225-.257-.354-.358-.71-.714-1.071-1.076.414-.414.81-.798 1.19-1.195.283-.294.232-.702-.1-.868-.256-.128-.48-.061-.677.138-.386.39-.776.773-1.173 1.169-.412-.413-.795-.806-1.192-1.189-.29-.28-.7-.23-.87.098-.132.255-.063.48.136.677.388.386.773.776 1.17 1.176-.39.39-.768.76-1.136 1.14a.829.829 0 00-.215.333c-.066.245.025.456.25.583.239.134.465.085.655-.104.399-.393.79-.792 1.246-1.251zM.013 5.08c0-.687-.027-1.374.006-2.06C.102 1.315 1.521.004 3.236.017c1.679.013 3.106 1.37 3.15 3.05a76.19 76.19 0 010 4.026c-.044 1.67-1.456 3.024-3.118 3.046C1.543 10.163.116 8.874.02 7.171-.02 6.476.012 5.777.013 5.08zm4.778-.006c0-.582.004-1.165-.002-1.746a2.155 2.155 0 00-.055-.525c-.21-.798-.947-1.273-1.785-1.164-.76.1-1.343.771-1.35 1.593a261.216 261.216 0 00-.003 3.65c.005.945.681 1.648 1.584 1.662.906.014 1.6-.696 1.61-1.659.006-.604 0-1.207.001-1.81zm15.432 3.483h-1.029V3.132c-.002-1.287-.77-2.051-2.064-2.052h-2.248c-1.3.001-2.038.698-2.101 1.989-.048.97-.48 1.728-1.263 2.29a2.6 2.6 0 01-1.453.507c-.851.025-1.704.007-2.58.007V4.817h1.11c.417 0 .834.008 1.25-.001 1.055-.024 1.82-.774 1.873-1.826.08-1.606 1.073-2.768 2.602-2.943.72-.083 1.454-.032 2.183-.03.426.002.858-.016 1.275.05 1.395.217 2.424 1.316 2.461 2.73.05 1.893.014 3.788.014 5.681 0 .02-.014.038-.03.079z" fill="#016F9F"/></svg>