<svg width="43" height="43" fill="none" xmlns="http://www.w3.org/2000/svg"><circle cx="21.5" cy="21.5" r="21.5" fill="#EEE8DE"/><g filter="url(#filter0_i_888_377)"><path d="M21.124 11c.106.084.237.152.316.256 1.86 2.447 3.73 4.889 5.566 7.353 1.047 1.406 1.71 2.984 1.927 4.72.394 3.145-.972 5.9-3.739 7.531-3.69 2.174-8.472 1.151-10.916-2.322-.941-1.337-1.332-2.838-1.272-4.454.07-1.88.681-3.596 1.756-5.133.997-1.423 2.078-2.79 3.125-4.179.87-1.152 1.742-2.304 2.62-3.45.097-.126.243-.216.366-.322h.25zm5.61 14.078c.008-.311-.155-.517-.407-.555-.279-.043-.502.106-.574.385-.012.046-.015.095-.028.14-.102.353-.17.72-.317 1.056-.452 1.036-1.239 1.763-2.264 2.256-.313.15-.414.428-.274.692.134.253.42.33.72.188.941-.446 1.718-1.083 2.3-1.94.467-.687.75-1.442.845-2.222z" fill="#D9CAB5"/></g><path d="M14.687 28.25h0c2.293 3.258 6.785 4.222 10.253 2.18 2.598-1.532 3.866-4.095 3.497-7.04l-13.75 4.86zm0 0c-.872-1.238-1.238-2.63-1.181-4.148h0m1.181 4.149l-1.181-4.149m0 0c.065-1.777.642-3.401 1.666-4.864m-1.666 4.864l1.666-4.864m5.836-7.706l.036.029 1.158 1.522a711.718 711.718 0 014.403 5.825l-5.597-7.376zm0 0l-.014.011a.556.556 0 00-.09.083 563.329 563.329 0 00-2.618 3.447l2.722-3.54zm-5.836 7.706a88.595 88.595 0 012.204-2.969m-2.204 2.969l2.204-2.969m0 0c.303-.396.607-.794.91-1.195l-.91 1.195zm9.855 8.87l.003-.024v-.024a1.096 1.096 0 00-.206-.693.951.951 0 00-.625-.37 1.004 1.004 0 00-.718.151 1.024 1.024 0 00-.439.714v.005a12.403 12.403 0 00-.104.395c-.058.226-.106.415-.192.61v.001c-.396.908-1.086 1.555-2.023 2.005a1.08 1.08 0 00-.556.574.96.96 0 00.057.803h0c.13.245.346.421.612.491.26.069.527.027.763-.085h0c1.016-.481 1.864-1.174 2.5-2.11h0c.51-.752.824-1.583.928-2.444zm-.626-6.231c.999 1.34 1.626 2.838 1.832 4.482l-1.832-4.482z" stroke="#C5B5A0"/><defs><filter id="filter0_i_888_377" x="13" y="11" width="16" height="21" filterUnits="userSpaceOnUse" color-interpolation-filters="sRGB"><feFlood flood-opacity="0" result="BackgroundImageFix"/><feBlend in="SourceGraphic" in2="BackgroundImageFix" result="shape"/><feColorMatrix in="SourceAlpha" values="0 0 0 0 0 0 0 0 0 0 0 0 0 0 0 0 0 0 127 0" result="hardAlpha"/><feOffset/><feGaussianBlur stdDeviation="1"/><feComposite in2="hardAlpha" operator="arithmetic" k2="-1" k3="1"/><feColorMatrix values="0 0 0 0 0 0 0 0 0 0 0 0 0 0 0 0 0 0 0.4 0"/><feBlend in2="shape" result="effect1_innerShadow_888_377"/></filter></defs></svg>