<svg width="45" height="26" fill="none" xmlns="http://www.w3.org/2000/svg"><path d="M9.858 0c.13.104.287.188.383.317 2.258 3.03 4.526 6.053 6.754 9.104 1.27 1.74 2.076 3.694 2.34 5.843.477 3.894-1.181 7.306-4.538 9.325-4.478 2.69-10.28 1.425-13.246-2.875C.41 20.058-.065 18.2.007 16.2c.084-2.327.827-4.453 2.131-6.355C3.348 8.082 4.66 6.39 5.93 4.671A697.16 697.16 0 019.11.399c.117-.156.294-.267.444-.399h.304zm6.808 17.43c.01-.386-.189-.64-.494-.688-.338-.052-.609.132-.697.477-.015.057-.018.117-.034.174-.124.437-.207.892-.385 1.307-.548 1.283-1.503 2.183-2.747 2.793-.38.186-.502.53-.332.857.162.313.509.408.872.233 1.144-.553 2.086-1.341 2.792-2.401a6.288 6.288 0 001.025-2.752z" fill="#016F9F"/><path d="M34.94 0c.13.104.288.188.385.317 2.257 3.03 4.525 6.053 6.753 9.104 1.271 1.74 2.076 3.694 2.34 5.843.477 3.894-1.18 7.306-4.538 9.325-4.478 2.69-10.28 1.425-13.246-2.875-1.142-1.656-1.616-3.514-1.544-5.515.084-2.327.827-4.453 2.132-6.355 1.209-1.762 2.52-3.454 3.791-5.173a699.226 699.226 0 013.18-4.272c.117-.156.294-.267.444-.399h.304zm6.81 17.43c.009-.386-.19-.64-.495-.688-.338-.052-.609.132-.697.477-.015.057-.018.117-.034.174-.124.437-.207.892-.384 1.307-.549 1.283-1.504 2.183-2.748 2.793-.379.186-.502.53-.332.857.163.313.51.408.873.233 1.143-.553 2.085-1.341 2.791-2.401a6.288 6.288 0 001.026-2.752z" fill="#F29200"/></svg>