<svg width="32" height="32" fill="none" xmlns="http://www.w3.org/2000/svg"><path d="M6.589 27.617c-1.852 0-3.705-.002-5.556 0-.647.002-1.028.382-1.03 1.028-.003.76-.002 1.52 0 2.28.002.69.371 1.065 1.055 1.065h11.081c.667 0 1.044-.378 1.046-1.043.002-.74 0-1.478 0-2.217 0-.753-.355-1.112-1.102-1.112l-5.494-.001zM9.898 9.388c.015.047.019.077.034.101.593.954 1.184 1.91 1.79 2.856.051.082.2.144.302.145 2.644.008 5.289.008 7.934-.002a.475.475 0 00.341-.185c.586-.91 1.155-1.83 1.727-2.748.03-.048.049-.104.077-.167H9.898zm2.662 4.995c0 .938-.004 1.843.002 2.747.004.6.397.988 1.006.989 1.623.003 3.245.004 4.868 0 .605-.002.993-.392.996-.999.005-.842.002-1.685 0-2.527 0-.069-.015-.138-.023-.209H12.56zm4.374 5.634H15.06v10.82c0 .084-.004.167.001.25a.948.948 0 00.873.901c.468.033.9-.303.985-.779.021-.121.015-.248.015-.373V20.018zM9.611 17.76c-.503-.011-.859.213-1.003.557-.161.385-.097.742.192 1.038.574.589 1.155 1.17 1.744 1.745.397.387.98.388 1.346.022.368-.368.365-.947-.025-1.346a58.771 58.771 0 00-1.728-1.717c-.172-.161-.42-.241-.526-.3zm13.87 1.05c-.037-.508-.204-.801-.562-.965-.369-.167-.75-.1-1.062.206-.58.57-1.155 1.143-1.723 1.723-.393.401-.4.971-.034 1.344.363.369.95.373 1.347-.012a52.483 52.483 0 001.718-1.727c.167-.179.247-.44.316-.569zm-14.98 5.682c.394 0 .789.004 1.184 0 .58-.006.996-.396 1-.931.004-.534-.413-.938-.988-.942-.8-.005-1.599-.005-2.399 0-.571.004-.99.412-.984.945.006.521.418.918.972.927.405.005.81 0 1.214.001zm15.025-1.874c-.415 0-.831-.006-1.246 0-.553.009-.967.407-.97.928-.005.521.404.937.953.943.82.008 1.641.008 2.462 0 .55-.006.959-.419.956-.942-.005-.523-.415-.92-.97-.929-.395-.006-.79 0-1.185 0z" fill="#fff"/><path d="M31.993 1.187c-.249.542-.678.706-1.259.696-1.508-.027-3.018-.009-4.527-.009-.584 1.75-1.784 2.693-3.645 2.83v2.777H9.452V4.709c-1.864-.135-3.08-1.073-3.665-2.834l-4.621-.001c-.135 0-.273.006-.404-.02a.95.95 0 01-.752-.783.944.944 0 01.472-.947L.69 0h30.616c.309.15.538.378.687.687v.5zm0 30.117c-.249.542-.678.698-1.258.696-3.601-.018-7.203-.008-10.804-.01-.771 0-1.122-.351-1.122-1.124 0-.74-.002-1.479.001-2.218.003-.647.382-1.03 1.028-1.03 3.705-.001 7.41.003 11.116-.005.517 0 .823.265 1.039.692v2.999zM6.589 27.617h5.494c.747 0 1.102.359 1.103 1.113 0 .738.002 1.477-.001 2.216-.003.666-.38 1.043-1.046 1.043-3.694.002-7.387.002-11.08 0-.685 0-1.054-.376-1.056-1.066a432.82 432.82 0 010-2.279c.003-.646.383-1.026 1.03-1.027H6.59zM9.898 9.388h12.204c-.028.063-.046.119-.077.167-.572.918-1.14 1.839-1.727 2.748a.477.477 0 01-.341.185c-2.644.01-5.289.01-7.934.002-.104 0-.25-.063-.302-.145-.605-.947-1.196-1.903-1.79-2.856-.014-.023-.018-.054-.033-.1zm2.662 4.995h6.849c.008.072.023.14.023.209.002.842.005 1.685 0 2.527-.003.607-.39.997-.996.999-1.622.004-3.245.003-4.868 0-.608-.002-1.002-.388-1.006-.989-.005-.903-.001-1.808-.001-2.746zm4.374 5.634v10.819c0 .125.006.253-.015.373a.945.945 0 01-.985.78.948.948 0 01-.873-.902c-.005-.083-.001-.166-.001-.25v-10.82h1.874zM9.61 17.76c.107.059.355.139.526.3a62.21 62.21 0 011.728 1.718c.39.4.393.977.025 1.346-.365.365-.949.365-1.346-.022a97.936 97.936 0 01-1.744-1.746c-.288-.295-.353-.653-.192-1.037.145-.345.501-.57 1.004-.559zm13.871 1.051c-.069.13-.15.39-.316.568a51.521 51.521 0 01-1.718 1.727c-.397.386-.984.381-1.346.012-.368-.373-.36-.943.033-1.344a128.38 128.38 0 011.723-1.723c.311-.306.694-.373 1.062-.205.359.164.525.458.562.965zM8.5 24.493c-.404 0-.81.005-1.215-.001-.554-.009-.966-.406-.971-.927-.006-.533.412-.94.984-.945a176 176 0 012.399 0c.574.003.991.407.987.942-.004.534-.42.924-1 .93-.394.005-.789.001-1.183.001zm15.026-1.874c.395 0 .79-.006 1.185 0 .555.009.966.406.97.929.004.523-.405.936-.956.942-.82.008-1.641.008-2.462 0-.549-.006-.959-.422-.954-.943.005-.52.418-.92.971-.928.416-.006.831 0 1.246 0z" fill="#016F9F"/></svg>