<svg width="42" height="42" fill="none" xmlns="http://www.w3.org/2000/svg"><g clip-path="url(#clip0_888_385)"><path d="M19.847 0A20.939 20.939 0 006.156 6.123c-8.208 8.207-8.208 21.514 0 29.72 8.207 8.209 21.514 8.209 29.721 0A20.932 20.932 0 0042 22.154L19.847 0z" fill="#67C5B9"/><path d="M7.865 29.757l7.506-12.51 7.506 12.51H7.865z" fill="#C4C4C4"/><path d="M14.12 29.757l10.007-17.514 10.008 17.514H14.12z" fill="url(#paint0_linear_888_385)"/><path d="M42 22.153L19.847 0c-.32 5.762 1.721 11.629 6.124 16.03 4.4 4.402 10.268 6.441 16.029 6.123z" fill="#016F9F"/></g><defs><linearGradient id="paint0_linear_888_385" x1="14" y1="21" x2="34" y2="21" gradientUnits="userSpaceOnUse"><stop offset=".089" stop-color="#51CF24"/><stop offset=".24" stop-color="#2CCBD6"/><stop offset=".432" stop-color="#2F2CD6"/><stop offset=".578" stop-color="#D22CD6"/><stop offset=".734" stop-color="#D62C2C"/><stop offset=".87" stop-color="#D6DA17"/></linearGradient><clipPath id="clip0_888_385"><path fill="#fff" d="M0 0h42v42H0z"/></clipPath></defs></svg>