<svg width="48" height="33" fill="none" xmlns="http://www.w3.org/2000/svg"><path d="M4.974 0c.065.053.145.095.193.16 1.14 1.529 2.284 3.054 3.408 4.593a6.235 6.235 0 011.18 2.948c.241 1.965-.595 3.687-2.29 4.705a4.996 4.996 0 01-6.682-1.45c-.577-.835-.816-1.773-.78-2.783A5.969 5.969 0 011.08 4.967c.61-.89 1.272-1.743 1.913-2.61C3.525 1.637 4.06.917 4.596.2c.06-.079.149-.135.225-.201h.153zm3.435 8.795c.005-.195-.095-.323-.25-.347-.17-.027-.307.066-.351.24-.007.029-.01.06-.017.088-.063.22-.104.45-.194.66-.277.647-.759 1.1-1.386 1.409-.192.093-.254.267-.168.432.082.158.257.206.44.117a3.468 3.468 0 001.409-1.211c.286-.43.46-.902.517-1.388z" fill="#016F9F"/><path d="M17.581 0c.065.053.145.095.194.16 1.139 1.529 2.283 3.054 3.407 4.593a6.235 6.235 0 011.18 2.948c.242 1.965-.595 3.687-2.289 4.705a4.996 4.996 0 01-6.683-1.45c-.577-.835-.816-1.773-.78-2.783a5.97 5.97 0 011.076-3.206c.61-.89 1.272-1.743 1.913-2.61.533-.72 1.067-1.44 1.605-2.156.059-.079.148-.135.224-.201h.153zm3.435 8.795c.005-.195-.095-.323-.25-.347-.17-.027-.306.066-.35.24-.008.029-.01.06-.018.088-.063.22-.104.45-.194.66-.277.647-.758 1.1-1.386 1.409-.192.093-.254.267-.168.432.082.158.257.206.44.117a3.467 3.467 0 001.409-1.211c.286-.43.46-.902.517-1.388z" fill="#F29200"/><path d="M30.178 0c.065.053.145.095.193.16 1.14 1.529 2.284 3.054 3.408 4.593a6.234 6.234 0 011.18 2.948c.241 1.965-.595 3.687-2.29 4.705a4.996 4.996 0 01-6.682-1.45c-.577-.835-.816-1.773-.78-2.783a5.968 5.968 0 011.076-3.206c.61-.89 1.272-1.743 1.913-2.61.532-.72 1.066-1.44 1.604-2.156.06-.079.149-.135.224-.201h.154zm3.435 8.795c.005-.195-.095-.323-.25-.347-.17-.027-.307.066-.351.24-.008.029-.01.06-.017.088-.063.22-.105.45-.194.66-.277.647-.759 1.1-1.387 1.409-.19.093-.253.267-.167.432.082.158.257.206.44.117a3.468 3.468 0 001.409-1.211c.286-.43.46-.902.517-1.388z" fill="#2BB5B8"/><path d="M42.974 0c.065.053.145.095.193.16 1.14 1.529 2.284 3.054 3.408 4.593a6.234 6.234 0 011.18 2.948c.241 1.965-.595 3.687-2.29 4.705a4.996 4.996 0 01-6.682-1.45c-.577-.835-.816-1.773-.78-2.783a5.97 5.97 0 011.076-3.206c.61-.89 1.272-1.743 1.913-2.61.533-.72 1.067-1.44 1.604-2.156.06-.079.149-.135.225-.201h.153zm3.435 8.795c.005-.195-.095-.323-.25-.347-.17-.027-.306.066-.351.24-.008.029-.01.06-.017.088-.063.22-.104.45-.194.66-.277.647-.759 1.1-1.386 1.409-.192.093-.254.267-.168.432.082.158.257.206.44.117a3.467 3.467 0 001.409-1.211c.286-.43.46-.902.517-1.388z" fill="#F200AE"/><path d="M4.965 19c.066.053.145.095.194.16 1.137 1.526 2.28 3.049 3.402 4.585a6.224 6.224 0 011.178 2.944c.24 1.961-.595 3.68-2.286 4.697a4.988 4.988 0 01-6.672-1.448c-.575-.834-.814-1.77-.777-2.778a5.959 5.959 0 011.073-3.201c.61-.888 1.27-1.74 1.91-2.606A351.29 351.29 0 014.59 19.2c.059-.079.148-.135.223-.201h.153zm3.43 8.78c.005-.195-.095-.323-.249-.347-.17-.026-.307.067-.351.24-.008.03-.01.06-.017.088-.063.22-.104.45-.194.659-.276.646-.757 1.099-1.384 1.406-.19.094-.253.267-.167.432.082.158.256.206.44.117a3.462 3.462 0 001.406-1.21c.285-.428.458-.9.516-1.385z" fill="#0E2E6B"/><path d="M17.54 19c.066.053.146.095.194.16 1.137 1.526 2.28 3.049 3.402 4.585a6.224 6.224 0 011.179 2.944c.24 1.961-.595 3.68-2.286 4.697a4.988 4.988 0 01-6.672-1.448c-.576-.834-.814-1.77-.778-2.778a5.958 5.958 0 011.074-3.201c.609-.888 1.27-1.74 1.91-2.606.531-.72 1.064-1.437 1.601-2.152.06-.079.148-.135.224-.2h.153zm3.43 8.78c.005-.194-.095-.323-.248-.346-.17-.027-.307.066-.352.24-.007.028-.009.059-.017.087-.062.22-.104.45-.193.659-.277.646-.758 1.1-1.384 1.407-.191.093-.253.266-.168.431.082.158.257.206.44.117a3.464 3.464 0 001.406-1.209c.286-.429.459-.9.517-1.386z" fill="#87D4D6"/><path d="M30.186 19c.065.053.145.095.193.16 1.137 1.526 2.28 3.049 3.402 4.585a6.224 6.224 0 011.178 2.944c.24 1.961-.594 3.68-2.285 4.697a4.988 4.988 0 01-6.672-1.448c-.576-.834-.815-1.77-.778-2.778a5.96 5.96 0 011.073-3.201c.61-.888 1.27-1.74 1.91-2.606.532-.72 1.065-1.437 1.602-2.152.059-.079.148-.135.224-.2h.153zm3.43 8.78c.004-.194-.096-.323-.25-.346-.17-.027-.306.066-.35.24-.008.028-.01.059-.018.087-.062.22-.104.45-.194.659-.276.646-.757 1.1-1.384 1.407-.19.093-.253.266-.167.431.082.158.257.206.44.117a3.464 3.464 0 001.406-1.209c.285-.429.459-.9.516-1.386z" fill="#A129B5"/><path d="M42.965 19c.066.053.145.095.194.16 1.137 1.526 2.28 3.049 3.402 4.585a6.223 6.223 0 011.178 2.944c.24 1.961-.594 3.68-2.286 4.697a4.988 4.988 0 01-6.672-1.448c-.575-.834-.814-1.77-.777-2.778a5.96 5.96 0 011.073-3.201c.61-.888 1.27-1.74 1.91-2.606.532-.72 1.065-1.437 1.602-2.152.059-.079.148-.135.224-.201h.152zm3.43 8.78c.005-.195-.095-.323-.249-.347-.17-.026-.307.067-.351.24-.008.03-.01.06-.017.088-.063.22-.104.45-.194.659-.276.646-.757 1.099-1.384 1.406-.19.094-.253.267-.167.432.082.158.256.206.44.117a3.462 3.462 0 001.406-1.21c.285-.428.458-.9.516-1.385z" fill="#BCCBD2"/></svg>