<svg width="44" height="49" fill="none" xmlns="http://www.w3.org/2000/svg"><path d="M13.71 9c0-3 2.742-8 8.226-8m8.225 8c0-3-2.742-8-8.225-8" stroke="#016F9F" stroke-width="2" stroke-linecap="round"/><path d="M3.612 10.932A1 1 0 014.609 10H39.26a1 1 0 01.998.932l2.467 36A1 1 0 0141.728 48H2.142a1 1 0 01-.998-1.069l2.468-36z" stroke="#016F9F" stroke-width="2"/><path d="M3.612 10.932A1 1 0 014.609 10H39.26a1 1 0 01.998.932l2.467 36A1 1 0 0141.728 48H2.142a1 1 0 01-.998-1.069l2.468-36z" stroke="#016F9F" stroke-width="2"/><path d="M30.161 17c0 4.418-3.683 8-8.226 8-4.542 0-8.225-3.582-8.225-8" stroke="#016F9F" stroke-width="2" stroke-linecap="round"/></svg>