<svg width="18" height="18" fill="none" xmlns="http://www.w3.org/2000/svg"><path d="M15.922 11.423h-.173a1.226 1.226 0 01-1.211-1.211V6.23c0-3.15-2.631-5.677-5.816-5.539-2.977.139-5.261 2.7-5.261 5.712v3.842c0 .658-.554 1.177-1.212 1.177h-.173c-.762 0-1.385.658-1.385 1.42v.519c0 .242.243.484.52.484h15.577a.533.533 0 00.519-.52v-.518c0-.762-.623-1.385-1.385-1.385zm-5.226 3.807H7.304a.365.365 0 00-.346.416c.173.97 1.038 1.662 2.042 1.662 1.004 0 1.87-.727 2.042-1.662a.365.365 0 00-.346-.415z" fill="#DBE8F1"/></svg>