<svg width="26" height="25" fill="none" xmlns="http://www.w3.org/2000/svg"><path d="M7.703 7.349c0-3 2.434-5.434 5.42-5.434 3 0 5.433 2.434 5.433 5.434 0 2.9-2.292 5.293-5.165 5.434h-.537c-2.859-.141-5.151-2.519-5.151-5.434z" fill="#fff" stroke="#F29100" stroke-width="2" stroke-miterlimit="10" stroke-linecap="round"/><path d="M24.585 23.057c-.637-6.467-5.321-8.604-5.321-8.604a11.166 11.166 0 00-5.533-1.613h-.524c-5.504.127-10.273 4.4-11.391 10.245" fill="#fff"/><path d="M24.585 23.057c-.637-6.467-5.321-8.604-5.321-8.604a11.166 11.166 0 00-5.533-1.613h-.524c-5.504.127-10.273 4.4-11.391 10.245" stroke="#F29100" stroke-width="2" stroke-miterlimit="10" stroke-linecap="round"/></svg>