<svg width="28" height="34" fill="none" xmlns="http://www.w3.org/2000/svg"><path d="M8.695 6.687c0-2.014 1.74-5.37 5.218-5.37m5.217 5.37c0-2.014-1.74-5.37-5.217-5.37" stroke="#C4C4C4" stroke-width="2" stroke-linecap="round"/><path d="M2.616 8.623a1 1 0 01.998-.936h20.598a1 1 0 01.998.936l1.48 22.85a1 1 0 01-.998 1.065H2.134a1 1 0 01-.998-1.064l1.48-22.851z" stroke="#C4C4C4" stroke-width="2"/><path d="M19.13 12.057c0 2.966-2.335 5.37-5.217 5.37-2.881 0-5.217-2.404-5.217-5.37" stroke="#C4C4C4" stroke-width="2" stroke-linecap="round"/></svg>