<svg width="851" height="77" fill="none" xmlns="http://www.w3.org/2000/svg"><path d="M106.52 0L.582 66.875l65.775 26.186 97.393 7.97L106.52.001z" fill="#45BABA"/><path d="M71.919 199.215l92.227-97.942L.582 66.887l66.172 132.328h5.165z" fill="#89CBBE"/><path d="M163.75 101.031l312.973-54.384L106.521.413l57.229 100.618z" fill="#21A6B3"/><path d="M520.216 133.929l-43.493-87.282-312.975 54.384 356.468 32.898z" fill="#29ADB6"/><path d="M678.125 30.548l-201.403 16.1 43.494 87.281 157.909-103.38z" fill="#0F7FA6"/><path d="M678.125 30.548L520.216 133.93l207.517 41.777-49.608-145.158z" fill="#1D9DB1"/><path d="M826.553 132.564L851 103.213 678.125 30.548l49.608 145.158 98.82-43.142z" fill="#0986AA"/></svg>