<svg xmlns="http://www.w3.org/2000/svg" width="1706" height="207"><defs><style>.a{fill:#2bb5b8}</style></defs><path class="a" d="M1617.707 0H0v207h1706V0h-88.293z"/><path fill="#21a6b3" d="M1422.7 0h-395.2l366 62.5L1422.7 0z"/><path fill="#0f7fa6" d="M681.7 0H419l184.5 161.5L681.7 0z"/><path fill="#0986aa" d="M0 0v207h162.3L212.9 0H0z"/><path fill="#1d9db1" d="M419 0H212.9l-50.6 207H430l173.5-45.5L419 0z"/><path fill="#45baba" d="M1621.5 0h-198.8l-29.2 62.5 228-62.5z"/><path fill="#29adb6" d="M1393.5 62.5L1027.5 0H681.7l-78.2 161.5 790-99z"/><path fill="#72c4bb" d="M1348 207h151.7L1393.5 62.5 1348 207z"/><path d="M1621.5 0l-228 62.5L1499.7 207H1706V0h-84.5z" fill="#89cbbe"/><path fill="#3fb9bb" d="M613.9 207h89.6l-100-45.5 10.4 45.5z"/><path fill="#27aab6" d="M430 207h183.9l-10.4-45.5L430 207z"/><path class="a" d="M603.5 161.5l100 45.5H1348l45.5-144.5-790 99z"/></svg>