<svg version="1.1" id="Layer_1" xmlns="http://www.w3.org/2000/svg" x="0" y="0" viewBox="0 0 2500 2000" xml:space="preserve"><style>.st0{fill:#21aab3}.st1{fill:#177ea6}.st2{fill:#7acbbd}.st3{fill:#33bfbb}.st4{fill:#25b2b6}.st5{fill:#1781a5}.st6{fill:#66c6bb}</style><path class="st0" d="M2325.5 1000l-157-149.4V750h-105.8l-436.2-415-382.7 181.7L556.5 313l-238 138-144 278L307 1265.9v217.6l.6-.2 10.9 65.7 238 138 687.3-203.7 382.7 181.7 436.2-415h105.8v-100.6z"/><path class="st1" d="M2058.5 750h110v100.6z"/><path class="st2" d="M307 1000l.3-483.2 328 116.2L503 1000z"/><path class="st3" d="M635.3 633l-78.8-320-238 138-11.2 65.8z"/><path class="st0" d="M556.5 313l687.3 203.7L635.3 633z"/><path class="st4" d="M635.3 633l668.2 267-59.7-383.3z"/><path class="st5" d="M1243.8 516.7l14.4 92.3 45.3 291 323-565z"/><path class="st1" d="M2058.5 1250h110v-100.6z"/><path class="st2" d="M307 1000v483.5l328.3-116.7L503 1000z"/><path class="st6" d="M635.3 633L502.8 999.9l-.1.1 132.4 366.9.3.8 96.8-367.6.1-.1z"/><path class="st3" d="M635.3 1366.8L556.5 1687l-238-138-11-66z"/><path class="st0" d="M556.5 1687l687.3-203.7-608.5-116.5z"/><path class="st4" d="M635.3 1366.8l668.2-266.8-59.7 383.3z"/><path fill="#1abcb9" d="M1303.5 900l-284.1-113.4L635.3 633l97.2 367-97.2 366.8 384.1-153.4 284.1-113.4-133.5-100z"/><path fill="#20a0b1" d="M1626.5 335l-323 565 140.5 100-140.5 100 323 565 46.1-665z"/><path class="st5" d="M1243.8 1483.3l14.4-92.3 45.3-291 323 565z"/><path fill="#1a89a9" d="M2063.2 750.4L1626.5 335l46.1 665-46.1 665 436.7-415.4-217.7-249.6z"/><path fill="#2198ac" d="M2063.2 750.4L1845.5 1000l217.7 249.6 262.3-249.6z"/><path class="st6" d="M1303.5 900L1170 1000l133.5 100-30.4-100z"/><path fill="#21aeb5" d="M1303.5 900l-30.4 100 30.4 100 140.5-100z"/><path class="st3" d="M318.5 451l-144 278 133 41.4z"/><path class="st0" d="M174.5 729l133 538.9V770z"/></svg>