<svg width="173" height="200" fill="none" xmlns="http://www.w3.org/2000/svg"><mask id="mask0_216_2167" style="mask-type:alpha" maskUnits="userSpaceOnUse" x="0" y="0" width="173" height="200"><rect x=".376" width="172.124" height="200" rx="8" fill="#F0F6F9"/></mask><g mask="url(#mask0_216_2167)"><path d="M175.768 123.38c35.077-35.262 35.036-92.26-.144-127.46C140.383-39.32 83.242-39.32 48-4.08c-35.24 35.222-35.24 92.343-.02 127.605l34.91 34.911-.02.021 29.055 29.055.021-.02 29.055-29.056 34.932-34.911-.165-.144zm-28.374-28.148c-.042.041-.103.082-.145.144l.042.041-30.891 30.87-25.57 25.57V109.79L76.808 95.768c-.186-.186-.392-.35-.598-.536-19.652-19.652-19.652-51.532 0-71.184s51.532-19.652 71.184 0c19.652 19.672 19.652 51.532 0 71.184z" fill="#0A7EA8"/></g></svg>