<svg width="57" height="57" fill="none" xmlns="http://www.w3.org/2000/svg"><path d="M29.106 27.816c.337 0 .69-.03 1.056-.088.367-.073.638-.169.814-.286v-.374a.645.645 0 00.022-.154 11.212 11.212 0 00-.132-1.474 3.913 3.913 0 00-.374-1.21 1.964 1.964 0 00-.726-.814c-.293-.205-.66-.308-1.1-.308-.352 0-.66.073-.924.22a1.851 1.851 0 00-.638.572 2.884 2.884 0 00-.374.77 3.21 3.21 0 00-.11.814c0 .792.19 1.379.572 1.76.396.381 1.034.572 1.914.572zm1.606 2.134a4.27 4.27 0 01-1.034.33 6.112 6.112 0 01-.946.088c-.953 0-1.767-.11-2.442-.33-.675-.235-1.232-.557-1.672-.968a3.971 3.971 0 01-.946-1.518 5.827 5.827 0 01-.308-1.936c0-.587.095-1.188.286-1.804.205-.616.52-1.173.946-1.672.425-.513.96-.931 1.606-1.254.66-.337 1.452-.506 2.376-.506 1.892 0 3.315.587 4.268 1.76.968 1.159 1.452 2.83 1.452 5.016 0 1.437-.19 2.706-.572 3.806-.367 1.1-.946 2.024-1.738 2.772-.777.748-1.775 1.32-2.992 1.716-1.217.381-2.662.58-4.334.594a40.27 40.27 0 00-.066-1.364c-.03-.44-.059-.895-.088-1.364a17.153 17.153 0 002.266-.176 6.692 6.692 0 001.782-.55 4.09 4.09 0 001.298-1.034c.367-.425.653-.96.858-1.606z" fill="#fff"/><path d="M20.309 11.726l-4.5-8.585C8.35 7.048 2.901 14.272 1.303 22.798l9.77 1.777a17.682 17.682 0 019.236-12.849z" fill="#FFC808"/><path d="M10.895 27.357c0-.947.059-1.836.236-2.724l-9.77-1.776c-.295 1.54-.414 3.138-.473 4.737 0 2.25.237 4.44.71 6.572l9.889-2.25c-.415-1.48-.592-3.02-.592-4.56z" fill="#F58B1F"/><path d="M11.428 31.857l-9.888 2.25a28.746 28.746 0 003.493 8.467l8.763-5.447c-1.066-1.6-1.836-3.375-2.368-5.27z" fill="#F99D1C"/><path d="M13.796 37.127l-8.763 5.447a30.326 30.326 0 004.618 5.684C4.855 49.738 0 50.448 0 50.448c.178.178 5.625 3.908 14.21 5.685l6.572-12.79c-2.782-1.48-5.21-3.611-6.986-6.217z" fill="#EF3B24"/><path d="M28.539 45.001c-2.783 0-5.388-.65-7.697-1.776L14.27 56.074c4.144.888 9.059 1.243 14.506.592V45h-.237z" fill="#F26922"/><path d="M28.717 45.001v11.665c2.546-.296 5.151-.888 7.875-1.717 2.427-.71 4.677-1.777 6.75-3.08l-5.744-9.354A17.083 17.083 0 0128.717 45z" fill="#7FC042"/><path d="M46.183 27.357c0 6.394-3.434 12.02-8.526 15.098l5.744 9.355a28.104 28.104 0 009.591-10.125 28.365 28.365 0 003.612-13.5c0-2.13-.177-4.203-.592-6.216l-10.125 2.19c.178 1.066.296 2.132.296 3.198z" fill="#C6D22D"/><path d="M29.072.002c-4.796-.059-9.296 1.066-13.263 3.138l4.5 8.586c2.427-1.303 5.27-2.013 8.23-2.013 8.644 0 15.868 6.217 17.348 14.447l10.125-2.191C53.347 9.535 42.334.179 29.072.002z" fill="#E9E015"/></svg>