<svg width="56" height="19" fill="none" xmlns="http://www.w3.org/2000/svg"><path d="M24.073 18.031h-4.525L22.376.645H26.9l-2.828 17.386zM15.739.645l-4.317 11.958-.511-2.577L9.39 2.212S9.204.645 7.24.645H.106L.022.938s2.182.456 4.735 1.986l3.935 15.107h4.716l7.2-17.386h-4.87zm35.605 17.386h4.158L51.879.645h-3.642c-1.68 0-2.089 1.298-2.089 1.298L39.4 18.036h4.717l.944-2.582h5.753l.53 2.577zm-4.982-6.149l2.377-6.507 1.34 6.507h-3.717zm-6.609-7.056l.646-3.735S38.404.333 36.33.333c-2.246 0-7.581.982-7.581 5.758 0 4.493 6.26 4.55 6.26 6.907 0 2.359-5.614 1.94-7.47.452l-.674 3.902s2.023.981 5.112.981c3.088 0 7.749-1.6 7.749-5.953 0-4.521-6.317-4.944-6.317-6.907-.004-1.968 4.405-1.716 6.345-.647z" fill="#fff"/></svg>