<svg width="26" height="23" fill="none" xmlns="http://www.w3.org/2000/svg"><path d="M7.18 12.717H3.138v6.713h4.044v-6.713zm.306-3.357a2.29 2.29 0 11-4.578 0 2.29 2.29 0 014.578 0z" fill="#fff"/><path d="M14.839.333H.333v22h14.506v-.004c3.169-.043 5.679-.83 7.46-2.346 2.168-1.843 3.266-4.754 3.266-8.65 0-1.863-.289-3.533-.859-4.965-.545-1.37-1.35-2.535-2.394-3.463C20.474 1.27 17.893.388 14.839.338V.333zm-.274 1.461c2.811 0 5.155.762 6.776 2.203 1.833 1.63 2.763 4.097 2.763 7.336 0 6.42-3.12 9.54-9.54 9.54H1.795V1.793h12.77z" fill="#fff"/><path d="M9.027 10.734h.01V8.42h-.01v2.314z" fill="#fff"/><path d="M19.972 7.595h.978v3.14h1.813c-.37-5.617-4.713-7.162-8.804-7.162H9.037v3.991h.524c.33 0 .577.025.755.077.24.071.45.199.622.38.17.178.3.4.387.657.087.253.13.568.13.935 0 .325-.04.609-.122.847-.1.291-.247.533-.435.714a1.45 1.45 0 01-.582.33 2.45 2.45 0 01-.714.085h-.566v7.848h4.922c4.263 0 8.8-1.28 8.83-7.848H19.97V7.595h.001zm-4.745 3.995h-3.108V7.564h3.034v.856h-2.056v.637h1.913v.856h-1.913v.822h2.13v.855zm3.295 0l-.333-.866h-1.38l-.316.866H15.45l1.564-4.026h.962l1.61 4.026h-1.064z" fill="#fff"/><path d="M17.863 9.868l-.375-1.008-.367 1.008h.742zm-8.363.866c.206 0 .354-.011.441-.033a.623.623 0 00.268-.135c.068-.06.126-.17.172-.32.049-.16.074-.385.074-.667 0-.282-.024-.499-.073-.646a.767.767 0 00-.192-.325.64.64 0 00-.308-.153c-.07-.016-.231-.034-.611-.034h-.233v2.314H9.5z" fill="#fff"/></svg>