<svg width="83" height="21" fill="none" xmlns="http://www.w3.org/2000/svg"><path fill-rule="evenodd" clip-rule="evenodd" d="M31.978 4.789c1.903 0 3.659 1.032 3.419 3.605-.286 3.05-1.93 4.75-4.515 4.756h-2.256c-.325 0-.482.265-.566.809l-.436 2.776c-.065.42-.28.626-.598.626h-2.101c-.335 0-.451-.214-.377-.693l1.737-11.131c.086-.548.294-.751.665-.751h5.028v.003zm-3.423 5.958h1.71c1.07-.041 1.781-.782 1.853-2.119.043-.825-.514-1.417-1.401-1.412l-1.61.007-.552 3.524zm12.552 5.763c.192-.175.388-.265.36-.05l-.069.515c-.035.27.072.413.322.413h1.867c.314 0 .467-.127.544-.613l1.15-7.22c.059-.362-.03-.54-.305-.54h-2.052c-.184 0-.275.104-.323.388l-.076.444c-.039.231-.145.272-.244.04-.348-.825-1.236-1.195-2.483-1.17-2.878.06-4.82 2.245-5.027 5.046-.16 2.167 1.392 3.87 3.439 3.87 1.485-.002 2.15-.445 2.897-1.123zm-1.56-1.11c-1.24 0-2.103-.989-1.924-2.2.18-1.211 1.338-2.2 2.577-2.2 1.24 0 2.103.989 1.924 2.2-.181 1.213-1.339 2.2-2.578 2.2zm9.39-6.408h-1.885c-.39 0-.549.285-.425.65l2.35 6.88-2.315 3.274c-.194.274-.044.523.229.523h2.127c.317 0 .472-.082.632-.31l7.227-10.367c.223-.32.118-.654-.247-.654l-2.012-.002c-.345 0-.484.137-.682.424l-3.014 4.374-1.34-4.381c-.085-.271-.282-.41-.644-.41zm15.461-4.203c1.903 0 3.659 1.032 3.419 3.605-.286 3.05-1.93 4.75-4.515 4.756h-2.256c-.325 0-.482.265-.566.809l-.436 2.776c-.065.42-.28.626-.598.626h-2.101c-.335 0-.451-.214-.377-.693l1.737-11.131c.086-.548.294-.751.665-.751h5.028v.003zm-3.422 5.958h1.711c1.07-.041 1.78-.782 1.854-2.119.043-.825-.514-1.417-1.401-1.412l-1.612.007-.552 3.524zM73.53 16.51c.192-.175.387-.265.36-.05l-.07.515c-.034.27.072.413.323.413h1.866c.315 0 .468-.127.545-.613l1.15-7.22c.058-.362-.03-.54-.306-.54h-2.051c-.185 0-.275.104-.324.388l-.075.444c-.04.231-.146.272-.245.04-.348-.825-1.236-1.195-2.482-1.17-2.879.06-4.82 2.245-5.028 5.046-.16 2.167 1.392 3.87 3.44 3.87 1.484-.002 2.148-.445 2.897-1.123zm-1.563-1.11c-1.239 0-2.102-.989-1.923-2.2.18-1.211 1.338-2.2 2.577-2.2 1.24 0 2.103.989 1.923 2.2-.179 1.213-1.338 2.2-2.577 2.2zm8.61 2H78.42c-.172 0-.29-.133-.264-.298L80.052 5.11a.372.372 0 01.358-.298h2.155c.172 0 .29.134.263.298l-1.894 11.992a.37.37 0 01-.358.299z" fill="#fff"/><path d="M15.442 5.47c-.577 3.828-3.049 5.955-6.296 5.955H6.36c-.446 0-.752.281-.898 1.028l-.588 3.722-.214 1.358-.004.022-.312 1.972c-.087.551.03.806.364.806h3.537c.218-.02.364-.182.406-.458l.647-4.264c.11-.733.385-1.004.795-1.004h1.505c2.982 0 5.232-2.056 5.521-5.776.124-1.548-.374-2.755-1.677-3.36z" fill="#fff"/><path d="M5.439 12.59c.007-.048.016-.093.025-.137l.056-.364v.002l.986-6.242c.076-.48.315-.74.772-.797.065-.008.135-.011.21-.011h5.64c.108 0 .211.002.313.005l.095.005a4.837 4.837 0 01.31.022c.067.005.13.013.195.021l.089.012c.081.012.16.023.237.038l.03.004c.09.016.177.035.261.056l.047.011c.068.018.135.035.2.054l.056.018c.064.02.127.04.188.064l.04.014c.085.032.168.066.248.104.038-.25.067-.507.09-.772.101-1.271-.342-2.456-1.185-3.199C13.08.386 11.194.333 9.604.333H3.961c-.69 0-1.038.303-1.139.938L.318 17.13c-.1.64.036.935.422.935h3.48c.247-.022.385-.204.438-.51l.218-1.38.564-3.586zm8.411-7.516zm.552.074zm.308.069zm-.576-.111zm-1.004-.064z" fill="#fff"/><path d="M13.54 5.052c.069.003.139.008.207.013l-.208-.013zM5.52 12.09l-.056.365c.145-.747.45-1.028.898-1.028h-.036c-.367-.002-.64.186-.805.664zm9.447-6.802zM4.876 16.176l-.219 1.38.005-.021.214-1.359zM15.41 5.456c-.566 3.838-3.049 5.97-6.299 5.97h.037c3.247 0 5.718-2.13 6.296-5.956a3.504 3.504 0 00-.034-.014zm-.5-.186l.057.018-.057-.017zm-1.466-.222l.095.004-.095-.004zm1.219.156l.047.011-.047-.011zm.49.148l.041.015-.04-.015z" fill="#fff"/><path d="M7.28 5.054c-.458.056-.697.317-.772.796l-.986 6.242v-.001l.986-6.24c.074-.48.313-.739.771-.797zm7.092.09zm-.326-.048c.029.004.06.007.089.012a.694.694 0 00-.09-.012zm-.299-.031z" fill="#fff"/></svg>