<svg width="117" height="49" fill="none" xmlns="http://www.w3.org/2000/svg"><path d="M116.796.5H0v48h116.796V.5z" fill="#000"/><path d="M22.656 13.812h4.408v14.813c0 1.362-.3 2.565-.904 3.61-.602 1.044-1.453 1.848-2.55 2.417-1.099.569-2.337.853-3.72.853-2.263 0-4.026-.576-5.292-1.727-1.263-1.152-1.895-2.78-1.895-4.887h4.439c0 1.05.221 1.823.662 2.322.44.5 1.136.75 2.087.75.841 0 1.513-.288 2.014-.866.499-.579.75-1.402.75-2.47V13.813zM59.55 35.21h-4.41V13.811h4.41v21.397zm22.974 0h-4.409l-8.581-14.08v14.08h-4.409V13.811h4.409l8.598 14.11v-14.11h4.394v21.397h-.002zm10.349-3.542h10.549v3.541h-16.06v-2.588l10.581-15.24H87.375v-3.569h16.049v2.527L92.873 31.668zm-44.555-.422c3.966-3.987 3.961-10.43-.016-14.41-3.984-3.985-10.444-3.985-14.429 0-3.984 3.984-3.984 10.442-.002 14.426l3.947 3.947-.002.002 3.284 3.285.003-.002 3.285-3.285 3.947-3.947-.017-.016zm-3.208-3.18c-.004.004-.011.009-.016.016l.005.005-3.49 3.49-2.891 2.89V29.71l-1.586-1.585c-.02-.021-.044-.04-.067-.06a5.692 5.692 0 018.048-8.048 5.697 5.697 0 01-.003 8.05z" fill="#fff"/></svg>