<svg xmlns="http://www.w3.org/2000/svg" width="800" height="1200" style="width:100%;height:100%;content-visibility:visible"><defs><clipPath id="__lottie_element_121"><path d="M0 0h800v1200H0z"/></clipPath></defs><g clip-path="url(#__lottie_element_121)"><path fill="#016F9F" d="M400.158 1037.517a3.205 3.205 0 01-2.966-1.613l-78.38-138.331A369.984 369.984 0 0189.608 763.43a369.983 369.983 0 0129.722-494.867 369.98 369.98 0 01495.312-21.04 370.003 370.003 0 01130.106 231.521 370.01 370.01 0 01-58.527 259.045 369.989 369.989 0 01-217.005 153.095l-66.303 144.477a3.027 3.027 0 01-1.107 1.328 3.052 3.052 0 01-1.648.528zM363.301 169.8A363.486 363.486 0 0016.498 511.802a363.48 363.48 0 00304.77 379.935c.47.083.916.263 1.306.537.39.273.714.627.95 1.041l76.197 133.918 64.304-140.015a3.37 3.37 0 012.179-1.765 363.465 363.465 0 00214.118-149.801 363.48 363.48 0 00-69.39-482.744 363.486 363.486 0 00-247.644-83.429l.013.322z" display="block"/><g display="block"><path fill="#45BABA" d="M154.426 570.38l40.025 182.55a27.63 27.63 0 0032.923 21.026l415.32-91.136a27.758 27.758 0 0021.09-32.923l-40.025-182.486a28.295 28.295 0 00-4.2-9.628 27.69 27.69 0 00-28.724-11.461l-415.063 91.141a27.82 27.82 0 00-21.621 22.418 26.537 26.537 0 00.275 10.498z"/><path fill="#29ADB6" d="M154.152 559.88L442.02 686.86l177.54-229.078a27.693 27.693 0 00-28.723-11.462l-415.065 91.142a27.819 27.819 0 00-21.62 22.418z"/><path fill="#45BABA" d="M154.151 559.88l292.002 102.568 173.274-204.411a27.69 27.69 0 00-28.725-11.462L175.77 537.463a27.826 27.826 0 00-21.62 22.417z"/><path fill="#FFF" fill-opacity=".15" d="M154.151 559.88l292.002 102.568 173.274-204.412a27.701 27.701 0 00-28.725-11.462L175.77 537.462a27.826 27.826 0 00-21.62 22.418z"/></g><g display="block"><path fill="#45BABA" d="M295.137 281.037l-12.88 166.576a24.745 24.745 0 0022.67 26.532l378.317 29.26a24.75 24.75 0 0026.532-22.672l12.877-166.254a24.876 24.876 0 00-22.734-26.533l-378.317-29.26a24.821 24.821 0 00-24 13.657 23.595 23.595 0 00-2.465 8.694z"/><path fill="#29ADB6" d="M297.606 272.023L510.77 454.745l210.768-149.896a24.687 24.687 0 00-21.616-17.224l-378.316-29.26a24.813 24.813 0 00-24 13.658z"/><path fill="#45BABA" d="M297.606 272.024L573.864 424.9 721.54 304.658a24.685 24.685 0 00-21.615-17.224l-378.317-29.259a24.81 24.81 0 00-24.002 13.849z"/><path fill="#FFF" fill-opacity=".3" d="M297.606 272.024L573.864 424.9 721.54 304.658a24.688 24.688 0 00-21.615-17.225l-378.317-29.259a24.812 24.812 0 00-24.002 13.85z"/></g></g></svg>