<svg xmlns="http://www.w3.org/2000/svg" width="100" height="78" style="width:100%;height:100%;content-visibility:visible"><defs><clipPath id="__lottie_element_32"><path d="M0 0h100v78H0z"/></clipPath><clipPath id="__lottie_element_34"><path d="M0 0h200v156H0z"/></clipPath><clipPath id="__lottie_element_44"><path d="M0 0h200v156H0z"/></clipPath><clipPath id="__lottie_element_48"><path d="M0 0h200v156H0z"/></clipPath><linearGradient id="__lottie_element_81" spreadMethod="pad" gradientUnits="userSpaceOnUse" x1="21.488" y1="-5.269" x2="-13.481" y2="-2.131"><stop offset="0%" stop-color="#29ADB6"/><stop offset="50%" stop-color="#29ADB6"/><stop offset="100%" stop-color="#29ADB6"/></linearGradient></defs><g clip-path="url(#__lottie_element_32)"><g clip-path="url(#__lottie_element_34)" transform="scale(.5)" display="block"><g clip-path="url(#__lottie_element_44)" display="block"><g display="block"><path fill="#BBDED7" d="M108.438 74.165c-.268-2.178 1.292-4.165 3.482-4.434l26.776-3.293c2.19-.269 4.184 1.281 4.452 3.459l4.367 35.516c.268 2.178-1.292 4.165-3.482 4.434l-26.776 3.292c-2.19.27-4.184-1.28-4.452-3.458l-4.367-35.516z"/><path stroke="#89CBBE" stroke-width="2" d="M-17.5-18c0-2.208 1.792-4 4-4h27c2.208 0 4 1.792 4 4v36c0 2.208-1.792 4-4 4h-27c-2.208 0-4-1.792-4-4v-36z" fill="none" transform="matrix(.99172 -.12194 .1213 .98656 127.976 89.789)"/></g><path fill="#89CBBE" d="M117.776 78.473a2.184 2.184 0 011.907-2.428l13.01-1.6a2.184 2.184 0 012.438 1.894l1.582 12.864a2.184 2.184 0 01-1.906 2.428l-13.011 1.6a2.184 2.184 0 01-2.438-1.894l-1.582-12.864zm5.269 18.963a1.446 1.446 0 011.264-1.608l8.693-1.069a1.447 1.447 0 011.616 1.254c.097.79-.47 1.51-1.264 1.607l-8.694 1.07a1.447 1.447 0 01-1.615-1.254zm-2.101 6.801a2.17 2.17 0 011.895-2.412l13.037-1.603a2.17 2.17 0 012.423 1.88 2.17 2.17 0 01-1.895 2.412l-13.037 1.603a2.17 2.17 0 01-2.423-1.88z" display="block"/><path fill="#FFF" d="M127.925 66.606l-18.61 24.63-.754-6.127 13.999-17.843 5.365-.66z" opacity=".35" display="block"/><path fill="#FFF" d="M131.09 66.374l-21.272 28.457 1.323 10.012 28.477-39.517-8.528 1.048z" opacity=".23" display="block"/></g><g clip-path="url(#__lottie_element_48)" display="block"><path fill="url(#__lottie_element_81)" d="M-26.612-17.538h49.57c2.02 0 3.65 1.63 3.65 3.65 0 .3-.03.59-.1.88l-6.58 26.4a5.486 5.486 0 01-5.31 4.15h-28.59c-2.53 0-4.74-1.75-5.32-4.22l-7.32-30.86z" transform="rotate(-7.149 922.848 -1030.248)" display="block"/><path fill="#1D9DB1" d="M148.319 87.545c1.974-.248 3.78 1.138 4.027 3.102.036.288.031.571.007.856l-3.195 27.159c-.286 2.465-2.228 4.412-4.709 4.723L123.602 126c-2.5.313-4.887-1.12-5.756-3.471l-11.042-29.777 41.515-5.207z" display="block"/><path fill="#29ADB6" d="M119.321 104.897a2.736 2.736 0 011.747-3.453l.366-.12a2.74 2.74 0 013.456 1.748l2.854 8.689a2.736 2.736 0 01-1.746 3.453l-.367.12a2.74 2.74 0 01-3.455-1.748l-2.855-8.689zm8.728-1.095a2.736 2.736 0 011.746-3.452l.367-.12a2.74 2.74 0 013.455 1.747l2.855 8.69a2.736 2.736 0 01-1.746 3.452l-.367.12a2.74 2.74 0 01-3.455-1.747l-2.855-8.69zm8.728-1.094a2.736 2.736 0 011.747-3.453l.367-.12a2.74 2.74 0 013.455 1.747l2.855 8.69a2.736 2.736 0 01-1.747 3.452l-.367.12a2.74 2.74 0 01-3.455-1.747l-2.855-8.69z" display="block"/><path fill="#1D9DB1" d="M123.507 139.5c2.84 0 5.13-2.29 5.13-5.11a5.12 5.12 0 00-5.13-5.12c-2.83 0-5.13 2.29-5.13 5.12 0 2.82 2.3 5.11 5.13 5.11zm28.323 0c2.84 0 5.13-2.29 5.13-5.11a5.12 5.12 0 00-5.13-5.12c-2.83 0-5.13 2.29-5.13 5.12 0 2.82 2.3 5.11 5.13 5.11z" display="block"/><path stroke-linecap="round" stroke-linejoin="round" stroke="#1D9DB1" stroke-width="5.475" d="M95.041 85.388L103 84.39a4.384 4.384 0 014.644 2.794l13.166 34.742" fill="none" display="block"/></g><path fill="#1D9DB1" d="M105.106 102.81v1.444a1.06 1.06 0 01-2.12 0v-1.444a1.06 1.06 0 012.12 0z" opacity=".231" display="block"/></g></g></svg>