<svg xmlns="http://www.w3.org/2000/svg" width="400" height="400" style="width:100%;height:100%;content-visibility:visible"><defs><clipPath id="__lottie_element_154"><path d="M0 0h400v400H0z"/></clipPath></defs><g clip-path="url(#__lottie_element_154)"><path stroke-miterlimit="22.93" stroke="#016F9F" stroke-width="9.779" d="M352.946 345.219h-299m188.022-.75h97.466v-85.676h-97.466v85.676zm10.062-85.676h77.342v-29.612H252.03v29.612zM69.468 344.469h77.05v-85.676h-77.05v85.676zm8.483-85.676h58.076v-20.947c0-10.457-8.558-19.015-19.018-19.015H77.951v39.962zm72.302-20.267h-84.52m55.771 57.787H69.47m74.602 0h-12.65" fill="none" display="block"/><path stroke-miterlimit="22.93" stroke="#016F9F" stroke-width="9.779" d="M296.238 326.645l-3.352-15.565m-21.679 7.505L283.01 307.9m-17.337-15.02l15.155 4.88m4.338-22.529l3.351 15.565m21.68-7.506l-11.804 10.686m17.34 15.022l-15.155-4.88m-34.906-11.236c-4.439 13.785 3.185 28.65 16.97 33.088 13.786 4.439 28.65-3.185 33.089-16.97 4.439-13.788-3.185-28.652-16.97-33.09-13.786-4.439-28.65 3.185-33.09 16.972z" fill="none" display="block"/><path stroke-miterlimit="22.93" stroke="#2BB5B8" stroke-width="5.75" d="M134.99 208.633l-14.99-.086-49.916.086c-6.34 0-11.53-5.189-11.53-11.533v-31.598c0-6.342 5.19-11.529 11.53-11.529h64.906c.399 0 .794.021 1.183.062" fill="none" display="block"/><path stroke-miterlimit="22.93" stroke="#016F9F" stroke-width="9.779" d="M134.99 208.633l-14.99-.086-49.916.086c-6.34 0-11.53-5.189-11.53-11.533v-31.598c0-2.423.756-4.675 2.044-6.536m108.752-30.244l-33.754 24.689m91.466-86.296l-55.395 39.322c-8.295 5.889-10.012 17.604-4.005 25.814l1.432 1.958c6.007 8.21 17.604 10.01 25.816 4.005L250.438 97.6" fill="none" display="block"/><g display="block"><path fill="#F8F8F8" d="M313.238 144.33L278.11 61.873l-42.724 18.212 35.134 82.438 42.718-18.193z"/><path stroke-miterlimit="22.93" stroke="#016F9F" stroke-width="9.779" d="M313.242 144.323l-35.13-82.453-42.731 18.205 35.131 82.453 42.73-18.205z" fill="none"/></g><path stroke-miterlimit="22.93" stroke="#016F9F" stroke-width="9.779" d="M266.122 229.182h49.158v-76.188h-49.158v76.188z" fill="none" display="block"/><g display="block"><path fill="#F8F8F8" d="M281.96 179.145c15.001 4.815 31.166-3.493 35.981-18.494 4.816-15.003-3.493-31.165-18.494-35.98-15.003-4.817-31.168 3.489-35.984 18.492-4.816 15.001 3.494 31.166 18.497 35.982z"/><path stroke-miterlimit="22.93" stroke="#016F9F" stroke-width="9.779" d="M281.96 179.145c15.001 4.815 31.166-3.493 35.981-18.494 4.816-15.003-3.493-31.165-18.494-35.98-15.003-4.817-31.168 3.489-35.984 18.492-4.816 15.001 3.494 31.166 18.497 35.982z" fill="none"/></g><path fill="#29ADB6" d="M302.586 168.941c6.031 1.936 12.528-1.403 14.465-7.434 1.935-6.03-1.404-12.529-7.435-14.465-6.032-1.936-12.53 1.405-14.465 7.435-1.936 6.031 1.403 12.528 7.435 14.464z" display="block"/><g display="block"><path fill="#FFF" d="M253.233 97.965c15.704 1.288 29.561-10.467 30.85-26.171 1.288-15.702-10.467-29.562-26.171-30.85-15.704-1.289-29.562 10.468-30.85 26.17-1.289 15.705 10.467 29.562 26.17 30.85z"/><path stroke-miterlimit="22.93" stroke="#016F9F" stroke-width="9.779" d="M253.233 97.965c15.704 1.288 29.561-10.467 30.85-26.171 1.288-15.702-10.467-29.562-26.171-30.85-15.704-1.289-29.562 10.468-30.85 26.17-1.289 15.705 10.467 29.562 26.17 30.85z" fill="none"/></g><path fill="#29ADB6" d="M255.781 91.54c12.782 1.048 24.063-8.523 25.112-21.306 1.05-12.783-8.521-24.065-21.303-25.114-12.783-1.049-24.067 8.521-25.116 21.305-1.049 12.783 8.524 24.065 21.307 25.114z" display="block"/></g></svg>