<svg xmlns="http://www.w3.org/2000/svg" width="400" height="400" style="width:100%;height:100%;content-visibility:visible"><defs><clipPath id="__lottie_element_154"><path d="M0 0h400v400H0z"/></clipPath></defs><g clip-path="url(#__lottie_element_154)"><path stroke-miterlimit="22.93" stroke="#016F9F" stroke-width="9.779" d="M352.946 345.219h-299m188.022-.75h97.466v-85.676h-97.466v85.676zm10.062-85.676h77.342v-29.612H252.03v29.612zM69.468 344.469h77.05v-85.676h-77.05v85.676zm8.483-85.676h58.076v-20.947c0-10.457-8.558-19.015-19.018-19.015H77.951v39.962zm72.302-20.267h-84.52m55.771 57.787H69.47m74.602 0h-12.65" fill="none" display="block"/><path stroke-miterlimit="22.93" stroke="#016F9F" stroke-width="9.779" d="M273.39 320.731l10.482-11.985m-18.966-12.906l15.619 3.086m1.693-22.876l5.137 15.07m20.661-9.974l-10.483 11.983m18.967 12.908l-15.62-3.088m-1.694 22.881l-5.137-15.07m-11.832-34.71c-13.708 4.673-21.078 19.665-16.406 33.373 4.673 13.708 19.665 21.078 33.373 16.405 13.71-4.673 21.08-19.665 16.407-33.372-4.673-13.708-19.665-21.078-33.374-16.405z" fill="none" display="block"/><path stroke-miterlimit="22.93" stroke="#2BB5B8" stroke-width="5.75" d="M134.99 208.633l-14.99-.086-49.916.086c-6.34 0-11.53-5.189-11.53-11.533v-31.598c0-6.342 5.19-11.529 11.53-11.529h64.906c6.342 0 11.53 5.187 11.53 11.529v7.421" fill="none" display="block"/><path stroke-miterlimit="22.93" stroke="#016F9F" stroke-width="9.779" d="M134.99 208.633l-14.99-.086-49.916.086c-6.34 0-11.53-5.189-11.53-11.533v-31.598c0-6.342 5.19-11.529 11.53-11.529h42.123m65.873-13.586l-29.965 29.17m78.485-98.25l-49.346 46.69c-7.389 6.992-7.449 18.832-.352 26.12l1.692 1.74c7.097 7.288 18.832 7.446 26.123.35l49.295-47.988" fill="none" display="block"/><g display="block"><path fill="#F8F8F8" d="M313.2 144.216l-35.545-82.278-42.632 18.427 35.55 82.26 42.627-18.409z"/><path stroke-miterlimit="22.93" stroke="#016F9F" stroke-width="9.779" d="M313.204 144.21l-35.546-82.275-42.64 18.42 35.548 82.275 42.638-18.42z" fill="none"/></g><path stroke-miterlimit="22.93" stroke="#016F9F" stroke-width="9.779" d="M266.122 229.182h49.158v-76.188h-49.158v76.188z" fill="none" display="block"/><g display="block"><path fill="#F8F8F8" d="M282.098 179.189c15.025 4.74 31.147-3.65 35.887-18.676 4.74-15.027-3.65-31.147-18.675-35.887-15.027-4.74-31.15 3.648-35.891 18.675-4.74 15.025 3.652 31.147 18.679 35.888z"/><path stroke-miterlimit="22.93" stroke="#016F9F" stroke-width="9.779" d="M282.098 179.189c15.025 4.74 31.147-3.65 35.887-18.676 4.74-15.027-3.65-31.147-18.675-35.887-15.027-4.74-31.15 3.648-35.891 18.675-4.74 15.025 3.652 31.147 18.679 35.888z" fill="none"/></g><path fill="#29ADB6" d="M302.672 168.881c6.04 1.906 12.521-1.466 14.427-7.508 1.905-6.039-1.467-12.52-7.508-14.427-6.041-1.905-12.522 1.469-14.427 7.508-1.906 6.041 1.467 12.521 7.508 14.427z" display="block"/><g display="block"><path fill="#FFF" d="M256.83 98.19c15.73-.922 27.806-14.502 26.884-30.232-.923-15.728-14.502-27.805-30.232-26.883-15.73.923-27.805 14.504-26.883 30.232.923 15.73 14.502 27.805 30.232 26.883z"/><path stroke-miterlimit="22.93" stroke="#016F9F" stroke-width="9.779" d="M256.83 98.19c15.73-.922 27.806-14.502 26.884-30.232-.923-15.728-14.502-27.805-30.232-26.883-15.73.923-27.805 14.504-26.883 30.232.923 15.73 14.502 27.805 30.232 26.883z" fill="none"/></g><path fill="#29ADB6" d="M258.455 91.47c12.802-.75 22.633-11.805 21.882-24.61-.75-12.804-11.806-22.635-24.609-21.884-12.804.75-22.637 11.806-21.886 24.61.75 12.805 11.808 22.636 24.613 21.885z" display="block"/></g></svg>