<svg xmlns="http://www.w3.org/2000/svg" width="1200" height="1200" style="width:100%;height:100%;content-visibility:visible"><defs><clipPath id="__lottie_element_134"><path d="M0 0h1200v1200H0z"/></clipPath><clipPath id="__lottie_element_139"><path fill="#fff" d="M0 212.095v263.906h512V212.095H0"/></clipPath></defs><g clip-path="url(#__lottie_element_134)"><g opacity=".15" display="block" fill="#1C1C1C"><path d="M836 720c-11.046 0-20 8.954-20 20 0 22.056-17.944 40-40 40H623.335l-45.985-59.656 145.147-184.618 98.066 116.991c.195.236.395.468.6.694l.021.024.074.081a19.89 19.89 0 006.276 4.609 19.906 19.906 0 007.788 1.862l.153.005h.026a20.089 20.089 0 004.276-.349l.053-.01.188-.037.076-.016.162-.034.09-.02.147-.034c.035-.008.07-.015.104-.024l.132-.031.113-.028.124-.031.113-.03.125-.033.114-.031.118-.032.122-.035.118-.035.097-.028.147-.045.08-.026.149-.047.09-.029.148-.049.069-.023.166-.057.063-.023c.057-.019.113-.04.169-.061l.054-.019.184-.069.031-.012.204-.079.012-.006c.073-.029.146-.057.219-.088a19.749 19.749 0 002.603-1.292l.036-.021.171-.103a19.919 19.919 0 003.021-2.25l.05-.044.045-.041a19.909 19.909 0 004.643-6.312 19.912 19.912 0 001.861-7.817l.003-.107.001-.068.004-.206v-.005l.001-.316V460c0-44.112-35.888-80-80-80H424c-44.112 0-80 35.887-80 80v280c0 44.112 35.888 80 80 80h189.374l.141.001.188-.001H776c44.112 0 80-35.888 80-80 0-11.047-8.954-20-20-20zm-412 60c-22.056 0-40-17.944-40-40V460c0-22.056 17.944-40 40-40h352c22.056 0 40 17.944 40 40v125.007l-78.673-93.855a19.999 19.999 0 00-31.049.486L552.16 687.664l-52.32-67.875a19.997 19.997 0 00-15.84-7.79h-.01a20 20 0 00-15.843 7.806l-44.015 57.218c-6.734 8.755-5.097 21.312 3.658 28.047 8.757 6.735 21.313 5.098 28.047-3.657l28.179-36.633L572.832 780H424z"/><path d="M484 572c33.084 0 60-26.916 60-60s-26.916-60-60-60-60 26.916-60 60 26.916 60 60 60zm0-80c11.028 0 20 8.972 20 20s-8.972 20-20 20-20-8.972-20-20 8.972-20 20-20z"/></g><g clip-path="url(#__lottie_element_139)" transform="translate(344 344)" display="block" fill="#89CBBE"><path d="M492 376c-11.046 0-20 8.954-20 20 0 22.056-17.944 40-40 40H279.335l-45.985-59.656 145.147-184.618 98.066 116.991c.195.236.395.468.6.694l.021.024.074.081a19.89 19.89 0 006.276 4.609 19.906 19.906 0 007.788 1.862l.153.005h.026a20.089 20.089 0 004.276-.349l.053-.01.188-.037.076-.016.162-.034.09-.02.147-.034c.035-.008.07-.015.104-.024l.132-.031.113-.028.124-.031.113-.03.125-.033.114-.031.118-.032.122-.035.118-.035.097-.028.147-.045.08-.026.149-.047.09-.029.148-.049.069-.023.166-.057.063-.023c.057-.019.113-.04.169-.061l.054-.019.184-.069.031-.012.204-.079.012-.006c.073-.029.146-.057.219-.088a19.749 19.749 0 002.603-1.292l.036-.021.171-.103a19.919 19.919 0 003.021-2.25l.05-.044.045-.041a19.909 19.909 0 004.643-6.312 19.912 19.912 0 001.861-7.817l.003-.107.001-.068.004-.206v-.005l.001-.316V116c0-44.112-35.888-80-80-80H80C35.888 36 0 71.887 0 116v280c0 44.112 35.888 80 80 80h189.374l.141.001.188-.001H432c44.112 0 80-35.888 80-80 0-11.047-8.954-20-20-20zM80 436c-22.056 0-40-17.944-40-40V116c0-22.056 17.944-40 40-40h352c22.056 0 40 17.944 40 40v125.007l-78.673-93.855a19.999 19.999 0 00-31.049.486L208.16 343.664l-52.32-67.875a19.997 19.997 0 00-15.84-7.79h-.01a20 20 0 00-15.843 7.806l-44.015 57.218c-6.734 8.755-5.097 21.312 3.658 28.047 8.757 6.735 21.313 5.098 28.047-3.657l28.179-36.633L228.832 436H80z"/><path d="M140 228c33.084 0 60-26.916 60-60s-26.916-60-60-60-60 26.916-60 60 26.916 60 60 60zm0-80c11.028 0 20 8.972 20 20s-8.972 20-20 20-20-8.972-20-20 8.972-20 20-20z"/></g><path fill="#89CBBE" d="M936.872 559.359c0 9.2-8.965 16.672-20.007 16.672h-635.26c-11.04 0-20.006-7.471-20.006-16.672 0-9.202 8.965-16.672 20.007-16.672h635.26c11.04 0 20.006 7.47 20.006 16.672z" display="block"/></g></svg>