<svg version="1.1" id="Layer_1" xmlns="http://www.w3.org/2000/svg" x="0" y="0" viewBox="0 0 900 1050" xml:space="preserve"><style>.st0{fill:#7bcabc}</style><path class="st0" d="M801.9 376.6C774.1 253.2 674.6 109.4 472.8 90.8c-3.7-.3-7.3-.6-11-.9 0 0-205.5-20.9-327.6 185.1C98.3 335.4 87.5 399.8 90 460.6c1 24.8 4.3 49 9 72.1.8 4.2 1.7 8.3 2.7 12.4 0 0 18.9 87.1 98.7 167 79.8 79.8 250.4 248.5 250.4 248.5l84.5-85.1 181.4-182.6s85.7-80.3 93.2-232.1c1.4-25.4-1.2-54.2-8-84.2z"/><path d="M472.8 90.8c-3.7-.3-7.3-.6-11-.9 0 0-205.5-20.9-327.6 185.1C98.3 335.4 87.5 399.8 90 460.6l211.1 25.3L472.8 90.8z" fill="#22a8b1"/><path d="M90 460.6c1 24.8 4.3 49 9 72.1l202-46.9-211-25.2z" fill="#29afb5"/><path d="M801.9 376.6C774.1 253.2 674.6 109.4 472.8 90.8L301.1 485.9l500.8-109.3z" fill="#3abebb"/><path d="M99.1 532.8c.8 4.2 1.7 8.3 2.7 12.4 0 0 18.9 87.1 98.7 167L301.1 486l-202 46.8z" fill="#20bab9"/><path d="M200.5 712.1c79.9 79.9 250.4 248.5 250.4 248.5l84.5-85.1-234.3-389.6-100.6 226.2z" fill="#68c5b9"/><path class="st0" d="M301.1 485.9l234.4 389.7L716.9 693s85.7-80.3 93.2-232.1c1.3-25.5-1.3-54.3-8.1-84.2L301.1 485.9z"/></svg>