<svg width="1600" height="224" viewBox="0 0 1600 224" fill="none" xmlns="http://www.w3.org/2000/svg">
    <path d="M1450.59 -228L1674.49 -37.889L1535.48 36.5522L1330.37 59.8726L1450.59 -228Z" fill="#45BABA" />
    <path d="M1523.01 340L1330.37 59.8727L1674.37 -37.0621L2267 249.784L1523.01 340Z" fill="#89CBBE" />
    <path d="M1232.43 338.396L1330.37 59.8731L1524.05 338.396H1232.43Z" fill="#72C4BB" />
    <path d="M1330.37 59.8726L674.413 -47.8706L1449.99 -226.396L1330.37 59.8726Z" fill="#21A6B3" />
    <path d="M573.315 152.818L675.588 -47.87L1330.37 59.8729L573.315 152.818Z" fill="#29ADB6" />
    <path d="M979.801 338.396L573.315 152.819L1330.37 59.8731L1233.7 338.396H979.801Z" fill="#2BB5B8" />
    <path d="M623.301 338.396L573.315 152.819L980.148 338.396H623.301Z" fill="#3FB9BB" />
    <path d="M236.872 -141.548L675.588 -47.87L573.315 152.818L236.872 -141.548Z" fill="#0F7FA6" />
    <path d="M236.873 -141.549L573.315 152.818L133.697 271.235L236.873 -141.549Z" fill="#1D9DB1" />
    <path d="M251.78 338.396L133.697 271.236L573.316 152.819L623.719 338.396H251.78Z" fill="#27AAB6" />
    <path d="M-77.2852 148.872L-129 65.1672L236.872 -141.549L133.697 271.235L-77.2852 148.872Z" fill="#0986AA" />
    <path d="M-77.5703 219.996V149.062L133.697 271.235L-77.5703 219.996Z" fill="#1995AD" />
    <path d="M-77.5703 338.396V219.661L133.697 271.236L137.677 338.396H-77.5703Z" fill="#1D9DB1" />
    <path d="M2002.79 121.836L2022.63 279.235L1523.02 339.231L2002.79 121.836Z" fill="#68C5B9" />
</svg>
    