<?xml version="1.0" encoding="utf-8"?>
<!-- Generator: Adobe Illustrator 24.2.3, SVG Export Plug-In . SVG Version: 6.00 Build 0)  -->
<svg version="1.1" id="Layer_1" xmlns="http://www.w3.org/2000/svg" xmlns:xlink="http://www.w3.org/1999/xlink" x="0px" y="0px" viewBox="0 0 1000 1450" style="enable-background:new 0 0 1000 1450;" xml:space="preserve">
    <style type="text/css">
	.st0{fill:#28AEB4;}
	.st1{fill:#1E9DAE;}
	.st2{fill:#20BAB9;}
	.st3{fill:#22A8B1;}
</style>
    <polygon class="st0" points="652.9,1030 655.9,1029.2 833.8,0 534.3,0 270.7,0 0.1,0 0.1,1129.2 0.1,1204 0,1204 0,1224.5 0,1450 
	237.1,1450 774.8,1450 655.9,1029.2 " />
    <g>
        <polygon class="st1" points="0,1224.5 0,1450 237.1,1450 	" />
        <polygon class="st2" points="237.1,1450 774.8,1450 655.9,1029.2 0,1204 0,1224.5 	" />
        <polygon class="st2" points="0.1,0 0.1,1129.2 270.7,0 	" />
        <polygon class="st3" points="534.3,0 655.9,1029.2 833.8,0 	" />
        <polygon class="st0" points="270.7,0 0.1,1129.2 0.1,1204 655.9,1029.2 534.3,0 	" />
    </g>
</svg>