<svg width="985" height="171" viewBox="0 0 985 171" fill="none" xmlns="http://www.w3.org/2000/svg">
    <mask id="mask0_308_387" style="mask-type:alpha" maskUnits="userSpaceOnUse" x="0" y="0" width="985" height="171">
        <rect width="985" height="171" fill="#C4C4C4"/>
    </mask>
    <g mask="url(#mask0_308_387)">
        <path d="M634.633 -2.58386e-05L729.866 73.6346L670.738 102.467L583.5 111.5L634.633 -2.58386e-05Z" fill="#45BABA"/>
        <path d="M665.434 220L583.5 111.5L729.813 73.9548L981.879 185.057L665.434 220Z" fill="#89CBBE"/>
        <path d="M541.841 219.378L583.5 111.5L665.879 219.378H541.841Z" fill="#72C4BB"/>
        <path d="M583.5 111.5L304.5 69.7685L634.377 0.621426L583.5 111.5Z" fill="#21A6B3"/>
        <path d="M261.5 147.5L305 69.7686L583.5 111.5L261.5 147.5Z" fill="#29ADB6"/>
        <path d="M434.392 219.378L261.5 147.5L583.5 111.5L542.384 219.378H434.392Z" fill="#2BB5B8"/>
        <path d="M282.761 219.378L261.5 147.5L434.539 219.378H282.761Z" fill="#3FB9BB"/>
        <path d="M118.5 33.5L305 69.7686L261.5 147.5L118.5 33.5Z" fill="#0F7FA6"/>
        <path d="M118.719 33.2484L261.5 147.5L74.4595 193.647L118.719 33.2484Z" fill="#1D9DB1"/>
        <path d="M124.74 219.378L74.2402 193.813L261.5 147.5L282.938 219.378H124.74Z" fill="#27AAB6"/>
        <path d="M-15.0042 146.244L-37 113.824L118.5 33.5L73.9054 193.898L-15.0042 146.244Z" fill="#0986AA"/>
        <path d="M-15.3428 173.52L-15.3428 146.045L74.2398 193.898L-15.3428 173.52Z" fill="#1995AD"/>
        <path d="M869.5 135.5L877.939 196.464L665.439 219.702L869.5 135.5Z" fill="#68C5B9"/>
    </g>
</svg>
