<svg width="851" height="77" viewBox="0 0 851 77" fill="none" xmlns="http://www.w3.org/2000/svg">
    <path d="M106.52 0.000150662L0.58191 66.875L66.357 93.0609L163.75 101.031L106.52 0.000150662Z" fill="#45BABA" />
    <path d="M71.9188 199.215L164.146 101.273L0.582097 66.8865L66.754 199.215H71.9188Z" fill="#89CBBE" />
    <path d="M163.75 101.031L476.723 46.6474L106.521 0.412958L163.75 101.031Z" fill="#21A6B3" />
    <path d="M520.216 133.929L476.723 46.6473L163.748 101.031L520.216 133.929Z" fill="#29ADB6" />
    <path d="M678.125 30.5483L476.722 46.6473L520.216 133.929L678.125 30.5483Z" fill="#0F7FA6" />
    <path d="M678.125 30.5484L520.216 133.929L727.733 175.706L678.125 30.5484Z" fill="#1D9DB1" />
    <path d="M826.553 132.564L851 103.213L678.125 30.5484L727.733 175.706L826.553 132.564Z" fill="#0986AA" />
</svg>
    