<svg xmlns="http://www.w3.org/2000/svg" width="1706" height="207.00018" viewBox="0 0 1706 207.00018">
    <defs>
        <style>.a{fill:#2bb5b8;}.b{fill:#21a6b3;}.c{fill:#0f7fa6;}.d{fill:#0986aa;}.e{fill:#1d9db1;}.f{fill:#45baba;}.g{fill:#29adb6;}.h{fill:#72c4bb;}.i{fill:#89cbbe;}.j{fill:#3fb9bb;}.k{fill:#27aab6;}</style>
    </defs>
    <title>Product Page banner</title>
    <polygon class="a" points="1617.707 0 1419.372 0 1025.096 0 680.105 0 418.02 0 212.402 0 0 0 0 207 161.92 207 428.994 207 612.464 207 701.854 207 1344.847 207 1496.192 207 1706 207 1706 0 1617.707 0" />
    <polygon class="b" points="1422.7 0 1027.5 0 1393.5 62.5 1422.7 0" />
    <polygon class="c" points="681.7 0 419 0 603.5 161.5 681.7 0" />
    <polygon class="d" points="0 0 0 207 162.3 207 212.9 0 0 0" />
    <polygon class="e" points="419 0 212.9 0 162.3 207 430 207 603.5 161.5 419 0" />
    <polygon class="f" points="1621.5 0 1422.7 0 1393.5 62.5 1621.5 0" />
    <polygon class="g" points="1393.5 62.5 1027.5 0 681.7 0 603.5 161.5 1393.5 62.5" />
    <polygon class="h" points="1348 207 1499.7 207 1393.5 62.5 1348 207" />
    <path class="i" d="M2476.96484,339.26563" transform="translate(-118 -146.5)" />
    <polygon class="i" points="1621.5 0 1393.5 62.5 1499.7 207 1706 207 1706 0 1621.5 0" />
    <polygon class="j" points="613.9 207 703.5 207 603.5 161.5 613.9 207" />
    <polygon class="k" points="430 207 613.9 207 603.5 161.5 430 207" />
    <polygon class="a" points="603.5 161.5 703.5 207 1348 207 1393.5 62.5 603.5 161.5" />
</svg>
    