<?xml version="1.0" encoding="utf-8"?>
<!-- Generator: Adobe Illustrator 24.2.3, SVG Export Plug-In . SVG Version: 6.00 Build 0)  -->
<svg version="1.1" id="Layer_1" xmlns="http://www.w3.org/2000/svg" xmlns:xlink="http://www.w3.org/1999/xlink" x="0px" y="0px" viewBox="0 0 593 815" style="enable-background:new 0 0 593 815;" xml:space="preserve">
    <style type="text/css">
	.st0{fill:#1ABCB9;}
	.st1{fill:#7ACBBD;}
	.st2{fill:#65C6BB;}
	.st3{fill:#33BFBB;}
	.st4{fill:#21AAB3;}
	.st5{fill:#25B2B6;}
</style>
    <polygon class="st0" points="388.8,0 346.2,0 0,0 0,233.8 0,505.2 0,815 162.1,815 314.5,815 400.3,815 489.9,287.7" />
    <g>
        <polygon class="st1" points="346.2,0 0,0 0,233.8 263.2,388.8" />
        <polygon class="st2" points="0,233.8 0,505.2 263.2,388.8" />
        <polygon class="st3" points="489.9,287.7 388.8,0 346.2,0 263.2,388.8" />
        <polygon class="st4" points="263.2,388.8 314.5,815 400.3,815 489.9,287.7" />
        <polygon class="st5" points="162.1,815 314.5,815 263.2,388.8" />
        <polygon class="st0" points="0,505.2 0,815 162.1,815 263.2,388.8" />
    </g>
</svg>