<?xml version="1.0" encoding="utf-8"?>
<!-- Generator: Adobe Illustrator 24.2.3, SVG Export Plug-In . SVG Version: 6.00 Build 0)  -->
<svg version="1.1" id="Layer_1" xmlns="http://www.w3.org/2000/svg" xmlns:xlink="http://www.w3.org/1999/xlink" x="0px" y="0px" viewBox="0 0 2500 540" style="enable-background:new 0 0 2500 540;" xml:space="preserve">
    <style type="text/css">
	.st0{fill:#1D9DB1;}
	.st1{fill:none;stroke:#FFFFFF;stroke-miterlimit:10;}
	.st2{fill:#0F7FA6;}
	.st3{fill:#29ADB6;}
	.st4{fill:#21AAB3;}
	.st5{fill:#33BFBB;}
	.st6{fill:#2BB5B8;}
	.st7{fill:#0986AA;}
	.st8{fill:#72C4BB;}
	.st9{fill:#25B2B6;}
	.st10{fill:#27AAB6;}
	.st11{fill:#3FB9BB;}
	.st12{fill:#1995AD;}
</style>
    <g>
        <g>
            <polygon class="st0" points="2275.3,278.7 2016,78.3 2015.8,78.2 1119.8,267.2 1119.5,267.1 1118.5,266.9 1119.3,267.7 
			1119.2,267.9 1118.6,267.3 615.1,169.3 614.4,168.7 614.1,169.7 -0.3,534.8 22.2,539.4 249.2,539.5 249.2,474.5 371,539.6 
			510.3,539.7 758.7,539.8 759.2,539.7 1020.1,539.7 1146.9,539.7 1816.6,539.7 1998.2,539.7 2426.8,539.7 2500.3,539.7 
			2500.3,379.7" />
            <polygon class="st0" points="249.3,539.7 371.2,539.7 249.3,474.7" />
        </g>
        <g>
            <polygon class="st1" points="1119.5,267.1 1118.5,266.9 1119.3,267.7" />
            <polygon class="st2" points="1119.4,268 1118.6,267.3 615.1,169.3 1001.2,480" />
            <polygon class="st3" points="1001.3,479.7 1876.3,379.7 1119.3,267.7" />
            <polygon class="st4" points="1876.3,379.7 2016,78.3 2015.8,78.2 1119.8,267.2 1119.5,267.1 1119.3,267.7" />
            <polygon class="st5" points="2275.3,278.7 2016,78.3 1876.3,379.7" />
            <polygon class="st6" points="1001.3,479.7 1146.9,539.7 1816.6,539.7 1876.3,379.7" />
            <polygon class="st7" points="-0.3,534.8 22.2,539.4 249.2,539.5 249.2,474.5 371,539.6 510.3,539.7 614.1,169.7" />
            <polygon class="st8" points="1816.6,539.7 1998.2,539.7 1876.3,379.7" />
            <polygon class="st9" points="2275.3,278.7 1876.3,379.7 1998.2,539.7 2426.8,539.7 2499.8,509.6 2426.8,539.7 2500.3,539.7 
			2500.3,379.7" />
            <polygon class="st10" points="758.8,539.7 1020.1,539.7 1001.3,479.7" />
            <polygon class="st11" points="1020.1,539.7 1146.9,539.7 1001.3,479.7" />
            <polygon class="st12" points="249.3,539.7 371.2,539.7 249.3,474.7" />
            <polygon class="st1" points="615.1,169.3 614.4,168.7 614.1,169.7 614.9,169.2" />
            <polygon class="st0" points="615.1,169.3 614.9,169.2 614.1,169.7 510.3,539.7 758.7,539.8 1001.2,480" />
        </g>
    </g>
</svg>