<svg xmlns="http://www.w3.org/2000/svg" width="528.56729" height="546.3212" viewBox="0 0 528.56729 546.3212">
    <defs>
        <style>.a{fill:#2cb5b5;}.b{fill:#23b2b6;}.c{fill:#26abb4;}.d{fill:#1881a6;}.e{fill:#2198ac;}.f{fill:#23a0b0;}.g{fill:#1b8aaa;}.h{fill:#1a7fa7;}.i{fill:#7ec7bb;}.j{fill:#26afb5;}.k{fill:#6bc2b9;}.l{fill:#41b9b8;}.m{fill:#1cb3b0;}</style>
    </defs>
    <title>Homepage office bg</title>
    <polygon class="a" points="476.575 546.321 331.597 512.74 250.888 542.695 158.785 474.213 136.567 474.283 136.567 457.693 136.567 433.071 204.836 433.071 241.165 433.071 289.546 433.071 324.881 433.071 348.016 433.071 439.074 433.071 487.859 433.071 528.567 433.071 528.567 512.776 528.567 523.572 476.575 546.321" />
    <polygon class="b" points="459.947 493.543 331.597 512.74 319.016 449.556 459.947 493.543" />
    <polygon class="c" points="476.575 546.321 331.597 512.74 459.947 493.542 476.575 546.321" />
    <polygon class="d" points="331.597 512.74 250.887 542.694 319.016 449.556 331.597 512.74" />
    <polygon class="e" points="136.568 457.693 136.568 433.072 204.837 433.072 158.786 474.213 136.568 457.693" />
    <polygon class="f" points="319.016 449.556 250.888 542.695 241.165 433.072 289.546 433.072 289.926 433.377 319.016 449.556" />
    <polygon class="g" points="158.785 474.213 204.836 433.072 241.165 433.072 250.888 542.695 158.785 474.213" />
    <polygon class="h" points="136.568 474.283 136.568 457.693 158.786 474.213 136.568 474.283" />
    <polygon class="i" points="487.859 433.072 528.567 433.072 528.567 512.775 459.947 493.543 487.859 433.072" />
    <polygon class="j" points="289.926 433.377 289.546 433.071 324.881 433.071 319.016 449.556 289.926 433.377" />
    <polygon class="k" points="439.073 433.072 487.859 433.072 459.947 493.543 439.073 433.072" />
    <polygon class="l" points="476.575 546.321 459.947 493.542 528.567 512.776 528.567 523.572 476.575 546.321" />
    <polygon class="m" points="324.881 433.072 348.016 433.072 319.016 449.556 324.881 433.072" />
    <polygon class="a" points="319.016 449.556 348.016 433.072 439.073 433.072 459.947 493.543 319.016 449.556" />
    <polygon class="a" points="0 80.094 61.095 247.687 47.165 348.749 132.44 447.697 136.662 474.213 153.011 471.566 177.274 467.637 164.088 386.196 157.071 342.857 147.726 285.141 140.901 242.988 136.433 215.389 118.845 106.762 109.422 48.563 101.559 0 23.015 12.717 12.376 14.44 0 80.094" />
    <polygon class="b" points="55.222 91.509 61.095 247.687 125.789 252.614 55.222 91.509" />
    <polygon class="c" points="0 80.094 61.095 247.687 55.222 91.509 0 80.094" />
    <polygon class="d" points="61.095 247.687 47.166 348.749 125.789 252.615 61.095 247.687" />
    <polygon class="e" points="153.011 471.565 177.274 467.637 164.088 386.195 132.44 447.696 153.011 471.565" />
    <polygon class="f" points="125.789 252.615 47.165 348.749 157.071 342.857 147.726 285.141 147.351 284.737 125.789 252.615" />
    <polygon class="g" points="132.44 447.696 164.087 386.196 157.071 342.857 47.165 348.749 132.44 447.696" />
    <polygon class="h" points="136.645 474.262 154.881 471.309 132.423 447.699 136.645 474.262" />
    <polygon class="i" points="109.422 48.563 101.559 0 23.016 12.717 55.222 91.509 109.422 48.563" />
    <polygon class="j" points="147.352 284.736 147.726 285.141 140.901 242.988 125.79 252.615 147.352 284.736" />
    <polygon class="k" points="118.845 106.762 109.422 48.563 55.222 91.509 118.845 106.762" />
    <polygon class="l" points="0 80.094 55.222 91.509 23.015 12.717 12.376 14.44 0 80.094" />
    <polygon class="m" points="140.901 242.988 136.433 215.389 125.789 252.615 140.901 242.988" />
    <polygon class="a" points="125.789 252.615 136.432 215.389 118.845 106.762 55.222 91.51 125.789 252.615" />
</svg>