<svg width="521" height="440" viewBox="0 0 521 440" fill="none" xmlns="http://www.w3.org/2000/svg">
    <g clip-path="url(#clip0_0_1)">
        <mask id="mask0_0_1" style="mask-type:alpha" maskUnits="userSpaceOnUse" x="385" y="-457" width="143" height="853">
            <rect width="853" height="143" transform="matrix(0 -1 -1 0 528 396)" fill="#C4C4C4" />
        </mask>
        <g mask="url(#mask0_0_1)">
            <path d="M521 346.67L476.291 396.001L458.785 365.373L453.457 320.021L521 346.67Z" fill="#45BABA" />
            <path d="M387.817 362.782L453.295 319.836L476.284 396L387.817 365.187V362.782Z" fill="#89CBBE" />
            <path d="M387.979 298.98L453.457 320.02L387.979 362.966V298.98Z" fill="#72C4BB" />
            <path d="M453.457 320.021L489.814 174.284L520.724 346.67L453.457 320.021Z" fill="#21A6B3" />
            <path d="M431.463 154.03L489.814 174.283L453.457 320.021L431.463 154.03Z" fill="#29ADB6" />
            <path d="M387.979 243.295L431.463 154.03L453.457 320.021L387.979 298.981V243.295Z" fill="#2BB5B8" />
            <path d="M387.979 165.097L431.463 154.03L387.979 243.294V165.097Z" fill="#3FB9BB" />
            <path d="M500.577 80.5L489.814 174.283L431.463 154.031L500.577 80.5Z" fill="#0F7FA6" />
            <path d="M500.577 80.5006L431.463 154.031L403.534 57.4004L500.577 80.5006Z" fill="#1D9DB1" />
            <path d="M387.979 83.4607L403.533 57.4004L431.463 154.031L387.979 165.098V83.4607Z" fill="#27AAB6" />
            <path d="M387.979 58.2413L403.533 57.4004L387.979 83.4606V58.2413Z" fill="#29ADB6" />
            <path d="M432.376 11.384L451.998 0L500.577 80.4997L403.534 57.3994L432.376 11.384Z" fill="#0986AA" />
            <path d="M415.816 11.3838H432.376L403.534 57.3993L415.816 11.3838Z" fill="#1995AD" />
            <path d="M387.979 11.3838H415.816L403.533 57.3992L387.979 58.2401V11.3838Z" fill="#1D9DB1" />
        </g>
    </g>
    <g clip-path="url(#clip1_0_1)">
        <mask id="mask1_0_1" style="mask-type:alpha" maskUnits="userSpaceOnUse" x="-1" y="302" width="855" height="145">
            <rect width="853" height="143" transform="matrix(0.999998 -0.00190148 -0.00190148 -0.999998 0.258423 446.821)" fill="#C4C4C4" />
        </mask>
        <g mask="url(#mask1_0_1)">
            <path d="M54.0594 439.719L0.152202 391.356L33.5288 372.315L82.9917 366.445L54.0594 439.719Z" fill="#45BABA" />
            <path d="M36.2078 295.378L83.193 366.269L0.152181 391.348L33.5841 295.383L36.2078 295.378Z" fill="#89CBBE" />
            <path d="M105.81 295.421L82.9921 366.445L36.007 295.554L105.81 295.421Z" fill="#72C4BB" />
            <path d="M82.9916 366.445L242.052 405.555L54.0589 439.42L82.9916 366.445Z" fill="#21A6B3" />
            <path d="M264.027 342.259L242.053 405.555L82.9922 366.445L264.027 342.259Z" fill="#29ADB6" />
            <path d="M166.558 295.305L264.027 342.259L82.9922 366.445L105.81 295.421L166.558 295.305Z" fill="#2BB5B8" />
            <path d="M251.865 295.143L264.027 342.259L166.558 295.305L251.865 295.143Z" fill="#3FB9BB" />
            <path d="M344.384 417.028L242.053 405.555L264.026 342.259L344.384 417.028Z" fill="#0F7FA6" />
            <path d="M344.383 417.029L264.026 342.259L369.384 311.782L344.383 417.029Z" fill="#1D9DB1" />
            <path d="M340.922 294.974L369.384 311.782L264.026 342.259L251.864 295.143L340.922 294.974Z" fill="#27AAB6" />
            <path d="M368.434 294.922L369.384 311.782L340.922 294.974L368.434 294.922Z" fill="#29ADB6" />
            <path d="M419.643 342.952L432.102 364.2L344.385 417.028L369.385 311.782L419.643 342.952Z" fill="#0986AA" />
            <path d="M419.609 325.001L419.643 342.952L369.385 311.782L419.609 325.001Z" fill="#1995AD" />
            <path d="M419.552 294.824L419.609 325.001L369.385 311.782L368.436 294.921L419.552 294.824Z" fill="#1D9DB1" />
        </g>
    </g>
    <defs>
        <clipPath id="clip0_0_1">
            <rect width="396" height="119" fill="white" transform="matrix(0 -1 -1 0 521 396)" />
        </clipPath>
        <clipPath id="clip1_0_1">
            <rect width="432" height="129" fill="white" transform="matrix(0.999998 -0.00190148 -0.00190148 -0.999998 0.245117 439.821)" />
        </clipPath>
    </defs>
</svg>
    