<?xml version="1.0" encoding="utf-8"?>
<!-- Generator: Adobe Illustrator 24.2.3, SVG Export Plug-In . SVG Version: 6.00 Build 0)  -->
<svg version="1.1" id="Layer_1" xmlns="http://www.w3.org/2000/svg" xmlns:xlink="http://www.w3.org/1999/xlink" x="0px" y="0px" viewBox="0 0 2500 2000" style="enable-background:new 0 0 2500 2000;" xml:space="preserve">
	<style type="text/css">
	.st0{fill:#21AAB3;}
	.st1{fill:#177EA6;}
	.st2{fill:#7ACBBD;}
	.st3{fill:#33BFBB;}
	.st4{fill:#25B2B6;}
	.st5{fill:#1781A5;}
	.st6{fill:#66C6BB;}
	.st7{fill:#1ABCB9;}
	.st8{fill:#20A0B1;}
	.st9{fill:#1A89A9;}
	.st10{fill:#2198AC;}
	.st11{fill:#21AEB5;}
</style>
	<polygon class="st0" points="2325.5,1000 2168.5,850.6 2168.5,750 2062.7,750 1626.5,335 1243.8,516.7 1243.8,516.7 556.5,313 
	318.5,451 174.5,729 307,1265.9 307,1483.5 307.6,1483.3 318.5,1549 556.5,1687 1243.8,1483.3 1243.8,1483.3 1626.5,1665 
	2062.7,1250 2168.5,1250 2168.5,1149.4 2168.5,1149.4" />
	<g>
		<g>
			<g>
				<polygon class="st1" points="2058.5,750 2168.5,750 2168.5,850.6" />
				<polygon class="st2" points="307,1000 307.3,516.8 635.3,633 503,1000" />
				<polygon class="st3" points="635.3,633 556.5,313 318.5,451 307.3,516.8" />
				<polygon class="st0" points="556.5,313 1243.8,516.7 635.3,633" />
				<polygon class="st4" points="635.3,633 1303.5,900 1243.8,516.7" />
				<polygon class="st5" points="1243.8,516.7 1258.2,609 1303.5,900 1626.5,335" />
			</g>
			<g>
				<polygon class="st1" points="2058.5,1250 2168.5,1250 2168.5,1149.4" />
				<polygon class="st2" points="307,1000 307,1483.5 635.3,1366.8 503,1000" />
				<polygon class="st6" points="635.3,633 502.8,999.9 502.7,1000 635.1,1366.9 635.4,1367.7 732.2,1000.1 732.3,1000" />
				<polygon class="st3" points="635.3,1366.8 556.5,1687 318.5,1549 307.5,1483" />
				<polygon class="st0" points="556.5,1687 1243.8,1483.3 635.3,1366.8" />
				<polygon class="st4" points="635.3,1366.8 1303.5,1100 1243.8,1483.3" />
				<polygon class="st7" points="1303.5,900 1019.4,786.6 635.3,633 732.5,1000 635.3,1366.8 1019.4,1213.4 1303.5,1100 1170,1000" />
				<polygon class="st8" points="1626.5,335 1303.5,900 1444,1000 1303.5,1100 1626.5,1665 1672.6,1000" />
				<polygon class="st5" points="1243.8,1483.3 1258.2,1391 1303.5,1100 1626.5,1665" />
				<polygon class="st9" points="2063.2,750.4 1626.5,335 1672.6,1000 1626.5,1665 2063.2,1249.6 1845.5,1000" />
				<polygon class="st10" points="2063.2,750.4 1845.5,1000 2063.2,1249.6 2325.5,1000" />
				<polygon class="st6" points="1303.5,900 1170,1000 1303.5,1100 1273.1,1000" />
				<polygon class="st11" points="1303.5,900 1273.1,1000 1303.5,1100 1444,1000" />
			</g>
		</g>
		<g>
			<polygon class="st3" points="318.5,451 174.5,729 307.5,770.4" />
			<polygon class="st0" points="174.5,729 307.5,1267.9 307.5,770" />
		</g>
	</g>
</svg>