<svg width="84" height="560" viewBox="0 0 84 560" fill="none" xmlns="http://www.w3.org/2000/svg">
    <path d="M0.841129 488.731L43.9065 558.805L61.6162 515.832L67.6169 451.959L0.841129 488.731Z" fill="#45BABA" />
    <path d="M131.348 513.018L67.7794 451.7L43.9141 558.805L131.307 516.409L131.348 513.018Z" fill="#89CBBE" />
    <path d="M132.27 423.07L67.6173 451.959L131.186 513.277L132.27 423.07Z" fill="#72C4BB" />
    <path d="M67.617 451.96L34.3862 246.072L1.11219 488.735L67.617 451.96Z" fill="#21A6B3" />
    <path d="M92.0275 218.208L34.3861 246.072L67.617 451.961L92.0275 218.208Z" fill="#29ADB6" />
    <path d="M133.214 344.565L92.0277 218.207L67.6173 451.959L132.27 423.07L133.214 344.565Z" fill="#2BB5B8" />
    <path d="M25.4073 113.729L34.3861 246.072L92.0274 218.208L25.4073 113.729Z" fill="#0F7FA6" />
    <path d="M25.4073 113.729L92.0275 218.208L121.091 82.3086L25.4073 113.729Z" fill="#1D9DB1" />
    <path d="M93.5498 17.0957L74.4745 0.81497L25.4073 113.729L121.091 82.3086L93.5498 17.0957Z" fill="#0986AA" />
</svg>
    