<svg width="853" height="34" viewBox="0 0 853 34" fill="none" xmlns="http://www.w3.org/2000/svg">
    <path d="M746.739 -0.000156217L852.999 28.9288L787.024 40.2565L689.336 43.7041L746.739 -0.000156217Z" fill="#45BABA" />
    <path d="M781.446 86.1772L688.939 43.8091L853 28.9339L786.627 86.1772H781.446Z" fill="#89CBBE" />
    <path d="M689.338 43.7041L375.414 20.1787L746.741 0.178421L689.338 43.7041Z" fill="#21A6B3" />
    <path d="M331.788 57.9355L375.414 20.179L689.338 43.7045L331.788 57.9355Z" fill="#29ADB6" />
    <path d="M173.401 13.2148L375.414 20.179L331.789 57.9355L173.401 13.2148Z" fill="#0F7FA6" />
    <path d="M173.401 13.2144L331.789 57.9351L123.642 76.0073L173.401 13.2144Z" fill="#1D9DB1" />
    <path d="M24.5216 57.3448L0 44.648L173.4 13.2144L123.641 76.0073L24.5216 57.3448Z" fill="#0986AA" />
</svg>
    