<svg width="40" height="84" viewBox="0 0 40 84" fill="none" xmlns="http://www.w3.org/2000/svg">
    <path d="M-4.92685 2.00015L9.18072 18.0899C10.174 19.2101 11.6122 19.7489 13.0496 19.5948L34.2826 17.0938C37.9566 16.6639 40.5461 20.6372 38.6293 23.8309L27.7313 42.1386C26.9623 43.4075 26.9124 44.9458 27.5092 46.3108L36.4541 65.7247C38.0049 69.0983 35.0134 72.7648 31.4156 71.9267L10.5592 67.2105C9.13564 66.8988 7.62666 67.3031 6.54965 68.2849L-9.15439 82.7974C-11.8511 85.3221 -16.2867 83.5995 -16.6189 79.9455L-18.5793 58.6601C-18.6903 57.2112 -19.5573 55.8724 -20.8578 55.158L-39.5158 44.6774C-42.7295 42.8584 -42.5166 38.1342 -39.12 36.6696L-19.4265 28.2505C-18.1046 27.6653 -17.1285 26.4795 -16.8284 25.0128L-12.6557 4.02489C-11.9154 0.407043 -7.34536 -0.817497 -4.92685 2.00015Z" fill="url(#paint0_linear_216_2175)" />
    <defs>
        <linearGradient id="paint0_linear_216_2175" x1="41.2794" y1="28.4252" x2="-39.6788" y2="49.2995" gradientUnits="userSpaceOnUse">
            <stop stop-color="#06688F" />
            <stop offset="1" stop-color="#0C87A9" />
        </linearGradient>
    </defs>
</svg>