<svg width="173" height="200" viewBox="0 0 173 200" fill="none" xmlns="http://www.w3.org/2000/svg">
    <mask id="mask0_216_2167" style="mask-type:alpha" maskUnits="userSpaceOnUse" x="0" y="0" width="173" height="200">
        <rect x="0.375977" width="172.124" height="200" rx="8" fill="#F0F6F9" />
    </mask>
    <g mask="url(#mask0_216_2167)">
        <path d="M175.768 123.38C210.845 88.1175 210.804 31.1208 175.624 -4.07936C140.383 -39.3208 83.2415 -39.3208 48.0001 -4.07936C12.7586 31.1415 12.7586 88.2618 47.9794 123.524L82.8909 158.435L82.8703 158.456L111.925 187.511L111.946 187.491L141.001 158.435L175.933 123.524L175.768 123.38ZM147.394 95.2318C147.352 95.273 147.291 95.3143 147.249 95.3761L147.291 95.4174L116.4 126.287L90.8301 151.857V109.79L76.8077 95.7679C76.6221 95.5824 76.4159 95.4174 76.2097 95.2318C56.5578 75.5799 56.5578 43.6997 76.2097 24.0478C95.8616 4.3959 127.742 4.3959 147.394 24.0478C167.046 43.7203 167.046 75.5799 147.394 95.2318Z" fill="#0A7EA8" />
    </g>
</svg>
    