<svg width="168" height="220" viewBox="0 0 168 220" fill="none" xmlns="http://www.w3.org/2000/svg">
    <g filter="url(#filter0_d_216_2134)">
        <path d="M124.903 124.497C124.851 124.549 124.772 124.602 124.72 124.68L124.772 124.732L85.7662 163.712L53.4781 196V142.881L35.7717 125.174C35.5373 124.94 35.2769 124.732 35.0165 124.497C10.2015 99.6823 10.2015 59.4263 35.0165 34.6113C59.8316 9.79625 100.088 9.79625 124.903 34.6113C149.718 59.4263 149.718 99.6823 124.903 124.497Z" fill="white" />
        <path d="M124.304 124.402L124.124 124.673L85.4128 163.358L85.4127 163.358L53.9781 194.793V142.881V142.674L53.8316 142.527L36.1252 124.821C35.9608 124.656 35.7711 124.492 35.5948 124.339C35.5126 124.268 35.4332 124.199 35.3607 124.134C10.7504 99.5138 10.7535 59.5814 35.3701 34.9648C59.9898 10.3451 99.9293 10.3451 124.549 34.9648C149.169 59.5846 149.169 99.524 124.549 124.144C124.549 124.144 124.546 124.147 124.532 124.159L124.523 124.166C124.511 124.177 124.493 124.192 124.477 124.207C124.433 124.247 124.365 124.312 124.304 124.402Z" stroke="#F2F2F2" />
    </g>
    <path d="M56.5075 59.6546C57.4355 59.2706 58.3955 58.8386 59.3875 58.3586C60.4115 57.8466 61.4035 57.3026 62.3635 56.7266C63.3235 56.1186 64.2355 55.4946 65.0995 54.8546C65.9955 54.1826 66.7955 53.4786 67.4995 52.7426H72.4915V86.0066H65.3395V62.0546C64.3795 62.6946 63.3075 63.2866 62.1235 63.8306C60.9395 64.3426 59.7875 64.7906 58.6675 65.1746L56.5075 59.6546ZM106.061 69.3026C106.061 74.9026 104.989 79.2066 102.845 82.2146C100.733 85.1906 97.8047 86.6786 94.0607 86.6786C90.3167 86.6786 87.3727 85.1906 85.2287 82.2146C83.1167 79.2066 82.0607 74.9026 82.0607 69.3026C82.0607 66.5186 82.3327 64.0546 82.8767 61.9106C83.4527 59.7666 84.2687 57.9586 85.3247 56.4866C86.3807 55.0146 87.6447 53.8946 89.1167 53.1266C90.5887 52.3586 92.2367 51.9746 94.0607 51.9746C97.8047 51.9746 100.733 53.4786 102.845 56.4866C104.989 59.4626 106.061 63.7346 106.061 69.3026ZM98.7647 69.3026C98.7647 67.6386 98.6847 66.1346 98.5247 64.7906C98.3647 63.4146 98.1087 62.2306 97.7567 61.2386C97.4047 60.2466 96.9247 59.4786 96.3167 58.9346C95.7087 58.3906 94.9567 58.1186 94.0607 58.1186C93.1647 58.1186 92.4127 58.3906 91.8047 58.9346C91.2287 59.4786 90.7487 60.2466 90.3647 61.2386C90.0127 62.2306 89.7567 63.4146 89.5967 64.7906C89.4367 66.1346 89.3567 67.6386 89.3567 69.3026C89.3567 70.9666 89.4367 72.4866 89.5967 73.8626C89.7567 75.2386 90.0127 76.4226 90.3647 77.4146C90.7487 78.4066 91.2287 79.1746 91.8047 79.7186C92.4127 80.2626 93.1647 80.5346 94.0607 80.5346C94.9567 80.5346 95.7087 80.2626 96.3167 79.7186C96.9247 79.1746 97.4047 78.4066 97.7567 77.4146C98.1087 76.4226 98.3647 75.2386 98.5247 73.8626C98.6847 72.4866 98.7647 70.9666 98.7647 69.3026Z" fill="#68C5B9" />
    <path d="M55.2001 104.791C55.2001 103.671 55.3681 102.695 55.7041 101.863C56.0561 101.015 56.5121 100.311 57.0721 99.7506C57.6321 99.1906 58.2721 98.7666 58.9921 98.4786C59.7281 98.1906 60.4801 98.0466 61.2481 98.0466C63.0401 98.0466 64.4561 98.5986 65.4961 99.7026C66.5361 100.791 67.0561 102.399 67.0561 104.527C67.0561 104.735 67.0481 104.967 67.0321 105.223C67.0161 105.463 67.0001 105.679 66.9841 105.871H58.8721C58.9521 106.607 59.2961 107.191 59.9041 107.623C60.5121 108.055 61.3281 108.271 62.3521 108.271C63.0081 108.271 63.6481 108.215 64.2721 108.103C64.9121 107.975 65.4321 107.823 65.8321 107.647L66.3121 110.551C66.1201 110.647 65.8641 110.743 65.5441 110.839C65.2241 110.935 64.8641 111.015 64.4641 111.079C64.0801 111.159 63.6641 111.223 63.2161 111.271C62.7681 111.319 62.3201 111.343 61.8721 111.343C60.7361 111.343 59.7441 111.175 58.8961 110.839C58.0641 110.503 57.3681 110.047 56.8081 109.471C56.2641 108.879 55.8561 108.183 55.5841 107.383C55.3281 106.583 55.2001 105.719 55.2001 104.791ZM63.6001 103.423C63.5841 103.119 63.5281 102.823 63.4321 102.535C63.3521 102.247 63.2161 101.991 63.0241 101.767C62.8481 101.543 62.6161 101.359 62.3281 101.215C62.0561 101.071 61.7121 100.999 61.2961 100.999C60.8961 100.999 60.5521 101.071 60.2641 101.215C59.9761 101.343 59.7361 101.519 59.5441 101.743C59.3521 101.967 59.2001 102.231 59.0881 102.535C58.9921 102.823 58.9201 103.119 58.8721 103.423H63.6001ZM80.5917 110.575C79.9837 110.751 79.1997 110.911 78.2397 111.055C77.2797 111.215 76.2717 111.295 75.2157 111.295C74.1437 111.295 73.2477 111.151 72.5277 110.863C71.8237 110.575 71.2637 110.175 70.8477 109.663C70.4317 109.135 70.1357 108.511 69.9597 107.791C69.7837 107.071 69.6957 106.279 69.6957 105.415V98.3826H73.2717V104.983C73.2717 106.135 73.4237 106.967 73.7277 107.479C74.0317 107.991 74.5997 108.247 75.4317 108.247C75.6877 108.247 75.9597 108.239 76.2477 108.223C76.5357 108.191 76.7917 108.159 77.0157 108.127V98.3826H80.5917V110.575ZM91.5566 101.551C91.2366 101.471 90.8606 101.391 90.4286 101.311C89.9966 101.215 89.5326 101.167 89.0366 101.167C88.8126 101.167 88.5406 101.191 88.2206 101.239C87.9166 101.271 87.6846 101.311 87.5246 101.359V111.007H83.9486V99.0546C84.5886 98.8306 85.3406 98.6226 86.2046 98.4306C87.0846 98.2226 88.0606 98.1186 89.1326 98.1186C89.3246 98.1186 89.5566 98.1346 89.8286 98.1666C90.1006 98.1826 90.3726 98.2146 90.6446 98.2626C90.9166 98.2946 91.1886 98.3426 91.4606 98.4066C91.7326 98.4546 91.9646 98.5186 92.1566 98.5986L91.5566 101.551ZM105.647 104.671C105.647 105.663 105.503 106.575 105.215 107.407C104.927 108.223 104.511 108.927 103.967 109.519C103.423 110.095 102.767 110.543 101.999 110.863C101.247 111.183 100.399 111.343 99.4552 111.343C98.5272 111.343 97.6792 111.183 96.9112 110.863C96.1592 110.543 95.5112 110.095 94.9672 109.519C94.4232 108.927 93.9992 108.223 93.6952 107.407C93.3912 106.575 93.2392 105.663 93.2392 104.671C93.2392 103.679 93.3912 102.775 93.6952 101.959C94.0152 101.143 94.4472 100.447 94.9912 99.8706C95.5512 99.2946 96.2072 98.8466 96.9592 98.5266C97.7272 98.2066 98.5592 98.0466 99.4552 98.0466C100.367 98.0466 101.199 98.2066 101.951 98.5266C102.719 98.8466 103.375 99.2946 103.919 99.8706C104.463 100.447 104.887 101.143 105.191 101.959C105.495 102.775 105.647 103.679 105.647 104.671ZM101.999 104.671C101.999 103.567 101.775 102.703 101.327 102.079C100.895 101.439 100.271 101.119 99.4552 101.119C98.6392 101.119 98.0072 101.439 97.5592 102.079C97.1112 102.703 96.8872 103.567 96.8872 104.671C96.8872 105.775 97.1112 106.655 97.5592 107.311C98.0072 107.951 98.6392 108.271 99.4552 108.271C100.271 108.271 100.895 107.951 101.327 107.311C101.775 106.655 101.999 105.775 101.999 104.671Z" fill="#68C5B9" />
    <defs>
        <filter id="filter0_d_216_2134" x="0.405273" y="0" width="167.108" height="220" filterUnits="userSpaceOnUse" color-interpolation-filters="sRGB">
            <feFlood flood-opacity="0" result="BackgroundImageFix" />
            <feColorMatrix in="SourceAlpha" type="matrix" values="0 0 0 0 0 0 0 0 0 0 0 0 0 0 0 0 0 0 127 0" result="hardAlpha" />
            <feOffset dx="4" dy="4" />
            <feGaussianBlur stdDeviation="10" />
            <feColorMatrix type="matrix" values="0 0 0 0 0.0431373 0 0 0 0 0.196078 0 0 0 0 0.278431 0 0 0 0.2 0" />
            <feBlend mode="normal" in2="BackgroundImageFix" result="effect1_dropShadow_216_2134" />
            <feBlend mode="normal" in="SourceGraphic" in2="effect1_dropShadow_216_2134" result="shape" />
        </filter>
    </defs>
</svg>
    