<svg width="207" height="104" viewBox="0 0 207 104" fill="none" xmlns="http://www.w3.org/2000/svg">
<path d="M21.072 30.232C21.392 30.456 21.472 30.84 21.312 31.384C21.184 31.896 20.88 32.456 20.4 33.064C19.952 33.672 19.36 34.264 18.624 34.84C17.888 35.384 17.072 35.816 16.176 36.136C15.408 36.424 14.608 36.68 13.776 36.904C12.944 37.096 12.08 37.208 11.184 37.24C10.32 37.272 9.408 37.192 8.448 37C7.488 36.808 6.512 36.44 5.52 35.896C3.44 34.808 2.064 33.512 1.392 32.008C0.72 30.504 0.512 28.952 0.768 27.352C1.056 25.752 1.68 24.216 2.64 22.744C3.6 21.24 4.672 19.976 5.856 18.952C4.128 18.184 2.928 17.224 2.256 16.072C1.584 14.888 1.28 13.656 1.344 12.376C1.408 11.064 1.76 9.768 2.4 8.488C3.072 7.176 3.888 6.008 4.848 4.984C5.84 3.928 6.896 3.096 8.016 2.488C9.168 1.848 10.256 1.56 11.28 1.624C12.24 1.688 13.216 1.928 14.208 2.344C15.232 2.728 16.128 3.176 16.896 3.688C17.664 4.2 18.224 4.728 18.576 5.272C18.928 5.784 18.944 6.2 18.624 6.52C18.432 6.712 18.112 6.728 17.664 6.568C17.248 6.376 16.704 6.152 16.032 5.896C15.36 5.64 14.56 5.4 13.632 5.176C12.736 4.952 11.728 4.872 10.608 4.936C8.88 5.032 7.648 5.64 6.912 6.76C6.208 7.848 5.792 9.256 5.664 10.984C5.6 12.04 5.712 12.936 6 13.672C6.32 14.408 6.672 15 7.056 15.448C7.472 15.896 7.856 16.216 8.208 16.408C8.592 16.568 8.832 16.616 8.928 16.552C10.08 15.592 11.296 14.808 12.576 14.2C13.888 13.592 15.12 13.224 16.272 13.096C17.424 12.936 18.416 13.048 19.248 13.432C20.08 13.784 20.592 14.472 20.784 15.496C20.752 16.04 20.496 16.536 20.016 16.984C19.536 17.432 18.928 17.832 18.192 18.184C17.456 18.536 16.656 18.856 15.792 19.144C14.928 19.432 14.128 19.672 13.392 19.864C12.656 20.056 12.032 20.216 11.52 20.344C11.008 20.44 10.736 20.504 10.704 20.536C9.872 21.144 9.04 21.832 8.208 22.6C7.408 23.368 6.816 24.344 6.432 25.528C6.08 26.616 6.064 27.592 6.384 28.456C6.736 29.32 7.312 30.024 8.112 30.568C8.944 31.08 9.952 31.432 11.136 31.624C12.32 31.784 13.6 31.72 14.976 31.432C15.456 31.368 15.984 31.224 16.56 31C17.136 30.776 17.712 30.584 18.288 30.424C18.864 30.232 19.392 30.104 19.872 30.04C20.384 29.944 20.784 30.008 21.072 30.232ZM17.28 15.688C16.544 15.24 15.808 15.224 15.072 15.64C14.336 16.056 13.52 16.68 12.624 17.512C13.04 17.48 13.552 17.4 14.16 17.272C14.768 17.112 15.328 16.936 15.84 16.744C16.384 16.552 16.8 16.36 17.088 16.168C17.408 15.944 17.472 15.784 17.28 15.688ZM22.692 24.424C22.788 23.656 22.916 22.92 23.076 22.216C23.236 21.512 23.428 20.856 23.652 20.248C23.908 19.64 24.18 19.128 24.468 18.712C24.756 18.264 25.076 17.944 25.428 17.752C25.78 17.592 26.228 17.432 26.772 17.272C27.348 17.08 27.876 17.016 28.356 17.08C28.868 17.112 29.252 17.336 29.508 17.752C29.764 18.136 29.748 18.824 29.46 19.816C29.332 20.36 29.22 21.048 29.124 21.88C29.028 22.68 28.964 23.56 28.932 24.52C28.932 25.448 28.964 26.392 29.028 27.352C29.092 28.28 29.204 29.144 29.364 29.944C29.556 30.744 29.796 31.432 30.084 32.008C30.404 32.552 30.788 32.904 31.236 33.064C32.164 33.384 32.964 33.352 33.636 32.968C34.308 32.584 34.932 31.992 35.508 31.192C35.732 30.84 36.004 30.552 36.324 30.328C36.644 30.072 36.9 29.96 37.092 29.992C37.316 30.024 37.428 30.232 37.428 30.616C37.428 31 37.22 31.64 36.804 32.536C36.356 33.464 35.78 34.28 35.076 34.984C34.404 35.688 33.636 36.248 32.772 36.664C31.94 37.048 31.044 37.272 30.084 37.336C29.124 37.4 28.164 37.256 27.204 36.904C26.244 36.584 25.46 36.136 24.852 35.56C24.244 34.952 23.764 34.152 23.412 33.16C23.092 32.168 22.868 30.968 22.74 29.56C22.644 28.12 22.628 26.408 22.692 24.424ZM24.852 7.288C25.204 6.584 25.732 6.152 26.436 5.992C27.172 5.832 27.876 5.848 28.548 6.04C29.252 6.232 29.844 6.568 30.324 7.048C30.836 7.496 31.044 8.024 30.948 8.632C30.82 9.368 30.404 10.008 29.7 10.552C29.028 11.064 28.004 11.256 26.628 11.128C26.244 11.096 25.892 10.952 25.572 10.696C25.284 10.44 25.044 10.136 24.852 9.784C24.66 9.4 24.548 8.984 24.516 8.536C24.516 8.088 24.628 7.672 24.852 7.288ZM35.1533 19.48C35.3453 19.16 35.6173 18.872 35.9693 18.616C36.3533 18.328 36.7373 18.088 37.1213 17.896C37.5373 17.672 37.9373 17.512 38.3213 17.416C38.7373 17.288 39.0733 17.224 39.3293 17.224C39.4573 17.224 39.5533 17.352 39.6172 17.608C39.7133 17.864 39.7933 18.2 39.8573 18.616C39.9533 19.032 40.0173 19.512 40.0493 20.056C40.0813 20.568 40.1133 21.096 40.1453 21.64C40.2093 22.92 40.2253 24.376 40.1933 26.008C40.6093 25.176 41.0573 24.36 41.5373 23.56C41.9533 22.888 42.4333 22.2 42.9773 21.496C43.5213 20.76 44.0813 20.136 44.6573 19.624C45.2013 19.144 45.7933 18.776 46.4333 18.52C47.1053 18.264 47.7773 18.168 48.4493 18.232C49.1213 18.264 49.7613 18.504 50.3693 18.952C51.0093 19.4 51.5693 20.072 52.0493 20.968C52.3693 21.576 52.6093 22.344 52.7693 23.272C52.9293 24.168 53.0413 25.128 53.1053 26.152C53.2013 27.144 53.2813 28.152 53.3453 29.176C53.4413 30.2 53.5853 31.144 53.7773 32.008C54.0013 32.872 54.2893 33.608 54.6413 34.216C55.0253 34.824 55.5693 35.208 56.2733 35.368C56.8493 35.528 57.4093 35.544 57.9532 35.416C58.5293 35.256 59.0573 35.064 59.5373 34.84C60.0493 34.584 60.4813 34.376 60.8333 34.216C61.2173 34.024 61.4893 33.976 61.6493 34.072C61.7773 34.2 61.6973 34.552 61.4093 35.128C61.1533 35.704 60.7053 36.296 60.0653 36.904C59.4573 37.512 58.6733 38.024 57.7133 38.44C56.7853 38.888 55.7133 39.032 54.4973 38.872C52.0973 38.552 50.3693 37.32 49.3133 35.176C48.2573 33 47.6493 30.168 47.4893 26.68C47.4253 25.432 47.2653 24.504 47.0093 23.896C46.7853 23.288 46.4813 22.968 46.0973 22.936C45.7133 22.904 45.2653 23.128 44.7533 23.608C44.2733 24.056 43.7453 24.712 43.1693 25.576C42.4973 26.568 42.0013 27.56 41.6813 28.552C41.3613 29.544 41.1373 30.472 41.0093 31.336C40.9133 32.2 40.8493 32.968 40.8173 33.64C40.7853 34.312 40.7053 34.808 40.5773 35.128C40.4173 35.48 40.0813 35.72 39.5693 35.848C39.0573 35.976 38.4973 36.04 37.8893 36.04C37.3133 36.04 36.7373 35.976 36.1613 35.848C35.6173 35.72 35.2333 35.56 35.0093 35.368C34.8813 35.24 34.7693 34.792 34.6733 34.024C34.6093 33.224 34.5613 32.28 34.5293 31.192C34.4973 30.072 34.4813 28.888 34.4813 27.64C34.5133 26.36 34.5453 25.16 34.5773 24.04C34.6413 22.888 34.7213 21.896 34.8173 21.064C34.9133 20.232 35.0253 19.704 35.1533 19.48ZM71.2493 20.008C71.4413 17.864 71.6013 15.848 71.7293 13.96C71.8253 12.328 71.9053 10.712 71.9693 9.112C72.0333 7.512 72.0333 6.296 71.9693 5.464C71.9053 4.664 72.0813 3.928 72.4973 3.256C72.9453 2.584 73.4573 2.008 74.0333 1.528C74.6093 1.048 75.1853 0.679999 75.7613 0.423999C76.3373 0.167998 76.7533 0.0399981 77.0093 0.0399981C77.2653 0.0399981 77.4093 0.679998 77.4413 1.96C77.5053 3.24 77.5053 4.904 77.4413 6.952C77.4093 8.968 77.3453 11.256 77.2493 13.816C77.1853 16.376 77.1693 18.952 77.2013 21.544C77.2333 23.944 77.3773 25.896 77.6333 27.4C77.8893 28.904 78.2093 30.088 78.5933 30.952C79.0093 31.784 79.4413 32.376 79.8893 32.728C80.3373 33.08 80.7693 33.32 81.1853 33.448C81.6013 33.544 81.9533 33.608 82.2413 33.64C82.5293 33.672 82.7213 33.784 82.8173 33.976C82.9453 34.264 82.8333 34.632 82.4813 35.08C82.1613 35.528 81.6653 35.912 80.9933 36.232C80.3533 36.552 79.5853 36.728 78.6893 36.76C77.7933 36.76 76.8493 36.488 75.8573 35.944C75.0253 35.496 74.4013 34.904 73.9853 34.168C73.5693 33.4 73.2813 32.648 73.1213 31.912C72.9293 31.08 72.8493 30.216 72.8813 29.32C72.1773 30.6 71.3453 31.72 70.3853 32.68C69.9693 33.096 69.5053 33.496 68.9933 33.88C68.4813 34.264 67.9213 34.6 67.3133 34.888C66.7053 35.176 66.0493 35.4 65.3453 35.56C64.6413 35.72 63.8893 35.768 63.0893 35.704C62.2253 35.64 61.4413 35.304 60.7373 34.696C60.0653 34.056 59.4893 33.272 59.0093 32.344C58.5613 31.384 58.2253 30.328 58.0013 29.176C57.8093 27.992 57.7453 26.824 57.8093 25.672C57.8733 24.488 58.0973 23.368 58.4813 22.312C58.8653 21.224 59.4253 20.296 60.1613 19.528C60.7053 18.984 61.2813 18.568 61.8893 18.28C62.4973 17.992 63.1053 17.816 63.7133 17.752C64.3533 17.656 64.9773 17.656 65.5853 17.752C66.2253 17.816 66.8173 17.928 67.3613 18.088C68.6413 18.472 69.9373 19.112 71.2493 20.008ZM63.7613 24.328C63.4733 25.096 63.2813 25.912 63.1853 26.776C63.1213 27.608 63.1053 28.376 63.1373 29.08C63.2013 29.784 63.3133 30.376 63.4733 30.856C63.6333 31.336 63.8253 31.592 64.0493 31.624C64.4973 31.752 64.9613 31.656 65.4413 31.336C65.9533 31.016 66.6253 30.36 67.4573 29.368C67.8413 28.856 68.2253 28.232 68.6093 27.496C69.0253 26.76 69.3613 26.04 69.6172 25.336C69.9053 24.632 70.0813 24.008 70.1453 23.464C70.2093 22.92 70.1293 22.6 69.9053 22.504C69.6493 22.408 69.2333 22.312 68.6573 22.216C68.1133 22.12 67.5213 22.104 66.8813 22.168C66.2733 22.232 65.6653 22.424 65.0573 22.744C64.4813 23.032 64.0493 23.56 63.7613 24.328ZM84.8955 18.664C85.3435 17.8 85.9355 17.048 86.6715 16.408C87.4075 15.768 88.2075 15.256 89.0715 14.872C89.9675 14.456 90.8955 14.152 91.8555 13.96C92.8475 13.768 93.8075 13.672 94.7355 13.672C95.6955 13.736 96.5115 14.056 97.1835 14.632C97.8875 15.176 98.3835 15.896 98.6715 16.792C98.9595 17.656 99.0075 18.632 98.8155 19.72C98.6555 20.808 98.1915 21.912 97.4235 23.032C96.5915 24.248 95.6955 25.16 94.7355 25.768C93.8075 26.376 92.9435 26.808 92.1435 27.064C91.2155 27.384 90.3035 27.528 89.4075 27.496C89.3755 28.712 89.5035 29.752 89.7915 30.616C89.9195 31 90.0635 31.368 90.2235 31.72C90.4155 32.04 90.6555 32.328 90.9435 32.584C91.2315 32.84 91.5835 33.032 91.9995 33.16C92.4155 33.256 92.8955 33.256 93.4395 33.16C94.5915 32.968 95.5195 32.552 96.2235 31.912C96.9595 31.24 97.5675 30.568 98.0475 29.896C98.5275 29.224 98.9115 28.648 99.1995 28.168C99.5195 27.656 99.8235 27.464 100.112 27.592C100.464 27.752 100.64 28.152 100.64 28.792C100.672 29.432 100.528 30.184 100.208 31.048C99.8875 31.912 99.4075 32.808 98.7675 33.736C98.1595 34.632 97.3755 35.4 96.4155 36.04C95.4555 36.68 94.3515 37.112 93.1035 37.336C91.8555 37.592 90.4635 37.48 88.9275 37C87.6795 36.616 86.6395 36.008 85.8075 35.176C84.9755 34.344 84.3195 33.384 83.8395 32.296C83.3595 31.208 83.0395 30.04 82.8795 28.792C82.7195 27.544 82.6875 26.312 82.7835 25.096C82.9115 23.848 83.1515 22.664 83.5035 21.544C83.8875 20.424 84.3515 19.464 84.8955 18.664ZM89.3595 23.896C89.7755 23.832 90.2395 23.704 90.7515 23.512C91.1995 23.352 91.6795 23.112 92.1915 22.792C92.7355 22.472 93.3115 22.024 93.9195 21.448C94.4955 20.904 94.8795 20.376 95.0715 19.864C95.2955 19.352 95.4235 18.92 95.4555 18.568C95.4875 18.152 95.4235 17.768 95.2635 17.416C94.8155 17.288 94.3355 17.288 93.8235 17.416C93.3755 17.544 92.8795 17.8 92.3355 18.184C91.7915 18.568 91.2315 19.176 90.6555 20.008C90.2075 20.648 89.8875 21.224 89.6955 21.736C89.5035 22.216 89.3755 22.616 89.3115 22.936C89.2475 23.32 89.2635 23.64 89.3595 23.896ZM116.755 28.312C116.595 28.504 116.531 28.904 116.563 29.512C116.627 30.12 116.723 30.84 116.851 31.672C116.979 32.504 117.107 33.4 117.235 34.36C117.395 35.32 117.475 36.248 117.475 37.144C117.475 38.04 117.443 38.808 117.379 39.448C117.347 40.12 117.267 40.744 117.139 41.32C117.043 41.896 116.899 42.456 116.707 43C116.547 43.576 116.339 44.216 116.083 44.92C115.731 45.816 115.347 46.632 114.931 47.368C114.515 48.104 114.019 48.76 113.443 49.336C112.899 49.912 112.259 50.392 111.523 50.776C110.819 51.16 109.987 51.448 109.027 51.64C107.171 51.896 105.763 51.72 104.803 51.112C103.843 50.504 103.171 49.64 102.787 48.52C102.435 47.432 102.307 46.184 102.403 44.776C102.531 43.368 102.723 42.008 102.979 40.696C103.331 38.2 104.115 35.88 105.331 33.736C106.579 31.56 108.275 29.752 110.419 28.312C110.227 27.064 109.875 25.848 109.363 24.664C108.883 23.448 108.403 22.328 107.923 21.304C107.443 20.248 107.043 19.32 106.723 18.52C106.403 17.72 106.339 17.096 106.531 16.648C106.883 16.392 107.299 16.248 107.779 16.216C108.291 16.184 108.803 16.248 109.315 16.408C109.859 16.536 110.387 16.728 110.899 16.984C111.411 17.208 111.843 17.448 112.195 17.704C112.643 18.152 113.027 18.696 113.347 19.336C113.667 19.944 113.939 20.6 114.163 21.304C114.419 22.008 114.627 22.728 114.787 23.464C114.979 24.2 115.171 24.872 115.363 25.48C115.491 25.416 115.795 25.32 116.275 25.192C116.755 25.032 117.315 24.872 117.955 24.712C118.627 24.52 119.315 24.36 120.019 24.232C120.755 24.072 121.427 23.976 122.035 23.944C122.675 23.912 123.187 23.96 123.571 24.088C123.987 24.216 124.195 24.456 124.195 24.808C124.195 25.16 123.875 25.48 123.235 25.768C122.595 26.024 121.843 26.296 120.979 26.584C120.147 26.84 119.315 27.112 118.483 27.4C117.683 27.656 117.107 27.96 116.755 28.312ZM107.203 45.976C107.907 46.072 108.531 45.944 109.075 45.592C109.619 45.24 110.083 44.776 110.467 44.2C110.851 43.624 111.139 42.984 111.331 42.28C111.555 41.608 111.715 40.952 111.811 40.312C111.907 39.96 111.971 39.4 112.003 38.632C112.067 37.896 112.067 37.128 112.003 36.328C111.971 35.496 111.875 34.728 111.715 34.024C111.587 33.288 111.395 32.792 111.139 32.536C110.435 32.952 109.763 33.56 109.123 34.36C108.483 35.16 107.923 36.04 107.443 37C106.963 37.928 106.563 38.904 106.243 39.928C105.955 40.952 105.779 41.88 105.715 42.712C105.651 43.576 105.731 44.296 105.955 44.872C106.211 45.48 106.627 45.848 107.203 45.976ZM109.699 12.424C109.443 12.328 109.123 12.264 108.739 12.232C108.387 12.168 108.035 12.088 107.683 11.992C107.331 11.864 107.011 11.704 106.723 11.512C106.435 11.288 106.243 11 106.147 10.648C106.019 9.816 106.051 9.192 106.243 8.776C106.435 8.36 106.707 8.088 107.059 7.96C107.443 7.832 107.859 7.832 108.307 7.96C108.787 8.056 109.251 8.232 109.699 8.488C110.179 8.744 110.595 9.032 110.947 9.352C111.331 9.672 111.619 9.976 111.811 10.264C112.003 10.52 112.067 10.792 112.003 11.08C111.939 11.368 111.795 11.624 111.571 11.848C111.347 12.072 111.059 12.248 110.707 12.376C110.387 12.504 110.051 12.52 109.699 12.424ZM135.286 16.696C135.19 17.112 134.918 17.464 134.47 17.752C134.022 18.008 133.51 18.28 132.934 18.568C132.358 18.856 131.766 19.176 131.158 19.528C130.55 19.88 130.038 20.344 129.622 20.92C128.982 21.848 128.534 22.952 128.278 24.232C128.022 25.512 127.894 26.744 127.894 27.928C127.926 29.08 128.07 30.088 128.326 30.952C128.614 31.784 128.966 32.2 129.382 32.2C129.894 32.2 130.422 31.96 130.966 31.48C131.542 31 132.054 30.456 132.502 29.848C132.95 29.208 133.318 28.568 133.606 27.928C133.894 27.256 134.038 26.744 134.038 26.392C134.038 26.04 134.022 25.56 133.99 24.952C133.958 24.312 133.958 23.688 133.99 23.08C134.054 22.472 134.15 21.944 134.278 21.496C134.438 21.048 134.694 20.808 135.046 20.776C135.398 20.744 135.814 20.664 136.294 20.536C136.806 20.408 137.286 20.392 137.734 20.488C138.182 20.584 138.534 20.904 138.79 21.448C139.078 21.96 139.19 22.856 139.126 24.136C139.03 26.728 139.158 28.696 139.51 30.04C139.862 31.352 140.55 32.12 141.574 32.344C142.278 32.472 142.902 32.312 143.446 31.864C144.022 31.384 144.534 30.856 144.982 30.28C145.43 29.704 145.814 29.192 146.134 28.744C146.454 28.264 146.71 28.072 146.902 28.168C147.126 28.264 147.206 28.664 147.142 29.368C147.078 30.072 146.838 30.872 146.422 31.768C146.006 32.632 145.382 33.512 144.55 34.408C143.75 35.272 142.71 35.944 141.43 36.424C140.758 36.68 140.134 36.808 139.558 36.808C138.982 36.808 138.454 36.728 137.974 36.568C137.526 36.408 137.126 36.184 136.774 35.896C136.422 35.608 136.102 35.288 135.814 34.936C135.174 34.136 134.662 33.144 134.278 31.96C133.958 32.728 133.51 33.4 132.934 33.976C132.454 34.488 131.83 34.968 131.062 35.416C130.294 35.832 129.35 36.072 128.23 36.136C127.11 36.168 126.054 35.816 125.062 35.08C124.07 34.344 123.27 33.352 122.662 32.104C122.086 30.856 121.766 29.416 121.702 27.784C121.67 26.12 122.038 24.376 122.806 22.552C123.318 21.368 123.99 20.36 124.822 19.528C125.654 18.696 126.534 18.024 127.462 17.512C128.422 16.968 129.366 16.584 130.294 16.36C131.254 16.104 132.102 15.96 132.838 15.928C133.606 15.896 134.214 15.96 134.662 16.12C135.142 16.248 135.35 16.44 135.286 16.696ZM158.817 16.696C158.721 17.112 158.449 17.464 158.001 17.752C157.553 18.008 157.041 18.28 156.465 18.568C155.889 18.856 155.297 19.176 154.689 19.528C154.081 19.88 153.569 20.344 153.153 20.92C152.513 21.848 152.065 22.952 151.809 24.232C151.553 25.512 151.425 26.744 151.425 27.928C151.457 29.08 151.601 30.088 151.857 30.952C152.145 31.784 152.497 32.2 152.913 32.2C153.425 32.2 153.953 31.96 154.497 31.48C155.073 31 155.585 30.456 156.033 29.848C156.481 29.208 156.849 28.568 157.137 27.928C157.425 27.256 157.569 26.744 157.569 26.392C157.569 26.04 157.553 25.56 157.521 24.952C157.489 24.312 157.489 23.688 157.521 23.08C157.585 22.472 157.681 21.944 157.809 21.496C157.969 21.048 158.225 20.808 158.577 20.776C158.929 20.744 159.345 20.664 159.825 20.536C160.337 20.408 160.817 20.392 161.265 20.488C161.713 20.584 162.065 20.904 162.321 21.448C162.609 21.96 162.721 22.856 162.657 24.136C162.561 26.728 162.689 28.696 163.041 30.04C163.393 31.352 164.081 32.12 165.105 32.344C165.809 32.472 166.433 32.312 166.977 31.864C167.553 31.384 168.065 30.856 168.513 30.28C168.961 29.704 169.345 29.192 169.665 28.744C169.985 28.264 170.241 28.072 170.433 28.168C170.657 28.264 170.737 28.664 170.673 29.368C170.609 30.072 170.369 30.872 169.953 31.768C169.537 32.632 168.913 33.512 168.081 34.408C167.281 35.272 166.241 35.944 164.961 36.424C164.289 36.68 163.665 36.808 163.089 36.808C162.513 36.808 161.985 36.728 161.505 36.568C161.057 36.408 160.657 36.184 160.305 35.896C159.953 35.608 159.633 35.288 159.345 34.936C158.705 34.136 158.193 33.144 157.809 31.96C157.489 32.728 157.041 33.4 156.465 33.976C155.985 34.488 155.361 34.968 154.593 35.416C153.825 35.832 152.881 36.072 151.761 36.136C150.641 36.168 149.585 35.816 148.593 35.08C147.601 34.344 146.801 33.352 146.193 32.104C145.617 30.856 145.297 29.416 145.233 27.784C145.201 26.12 145.569 24.376 146.337 22.552C146.849 21.368 147.521 20.36 148.353 19.528C149.185 18.696 150.065 18.024 150.993 17.512C151.953 16.968 152.897 16.584 153.825 16.36C154.785 16.104 155.633 15.96 156.369 15.928C157.137 15.896 157.745 15.96 158.193 16.12C158.673 16.248 158.881 16.44 158.817 16.696ZM167.457 18.232C167.105 18.04 166.785 17.928 166.497 17.896C166.209 17.864 165.953 17.848 165.729 17.848C165.473 17.848 165.265 17.832 165.105 17.8C164.913 17.736 164.753 17.576 164.625 17.32C164.529 17.096 164.689 16.792 165.105 16.408C165.489 16.024 166.017 15.704 166.689 15.448C167.361 15.192 168.113 15.096 168.945 15.16C169.777 15.192 170.577 15.512 171.345 16.12C172.017 16.696 172.561 17.256 172.977 17.8C173.425 18.312 173.777 18.776 174.033 19.192C174.321 19.672 174.529 20.136 174.657 20.584C175.553 19.72 176.481 19 177.441 18.424C178.273 17.912 179.201 17.496 180.225 17.176C181.249 16.856 182.273 16.84 183.297 17.128C183.553 17.224 183.665 17.432 183.633 17.752C183.633 18.04 183.505 18.36 183.249 18.712C183.025 19.064 182.705 19.4 182.289 19.72C181.873 20.04 181.377 20.264 180.801 20.392C179.681 20.648 178.785 21.128 178.113 21.832C177.473 22.536 176.977 23.368 176.625 24.328C176.273 25.256 176.049 26.264 175.953 27.352C175.857 28.408 175.809 29.432 175.809 30.424C175.841 32.504 175.553 34.056 174.945 35.08C174.337 36.072 173.521 36.6 172.497 36.664C171.313 36.728 170.433 36.184 169.857 35.032C169.281 33.88 168.993 31.928 168.993 29.176C169.025 27.448 169.041 25.944 169.041 24.664C169.041 23.384 168.993 22.312 168.897 21.448C168.801 20.552 168.641 19.848 168.417 19.336C168.193 18.824 167.873 18.456 167.457 18.232ZM195.813 13.624C195.941 13.88 195.925 14.088 195.765 14.248C195.605 14.376 195.365 14.52 195.045 14.68C194.757 14.808 194.421 14.984 194.037 15.208C193.653 15.4 193.285 15.688 192.933 16.072C192.581 16.456 192.277 16.952 192.021 17.56C191.797 18.168 191.685 18.936 191.685 19.864C191.653 20.792 191.861 21.688 192.309 22.552C192.789 23.416 193.365 24.264 194.037 25.096C194.709 25.896 195.445 26.696 196.245 27.496C197.045 28.264 197.765 29.064 198.405 29.896C199.045 30.696 199.541 31.528 199.893 32.392C200.277 33.224 200.405 34.088 200.277 34.984C200.117 35.88 199.605 36.632 198.741 37.24C197.909 37.88 196.885 38.36 195.669 38.68C194.453 39.032 193.141 39.224 191.733 39.256C190.325 39.288 188.997 39.16 187.749 38.872C186.533 38.616 185.477 38.2 184.581 37.624C183.685 37.048 183.125 36.312 182.901 35.416C182.549 34.104 182.453 33 182.613 32.104C182.741 31.208 182.997 30.472 183.381 29.896C183.765 29.288 184.197 28.824 184.677 28.504C185.157 28.152 185.573 27.88 185.925 27.688C186.661 27.272 187.141 27.272 187.365 27.688C187.621 28.104 187.477 28.76 186.933 29.656C186.677 30.104 186.613 30.616 186.741 31.192C186.869 31.736 187.157 32.264 187.605 32.776C188.085 33.256 188.677 33.672 189.381 34.024C190.117 34.376 190.949 34.568 191.877 34.6C192.453 34.632 193.029 34.584 193.605 34.456C194.213 34.296 194.709 34.072 195.093 33.784C195.477 33.464 195.701 33.096 195.765 32.68C195.861 32.232 195.701 31.736 195.285 31.192C194.869 30.648 194.149 29.96 193.125 29.128C192.101 28.296 191.045 27.384 189.957 26.392C188.901 25.368 187.957 24.296 187.125 23.176C186.325 22.024 185.925 20.872 185.925 19.72C185.925 17.448 186.325 15.784 187.125 14.728C187.957 13.672 189.285 12.984 191.109 12.664C192.005 12.504 192.741 12.44 193.317 12.472C193.893 12.472 194.341 12.536 194.661 12.664C195.013 12.792 195.269 12.952 195.429 13.144C195.589 13.304 195.717 13.464 195.813 13.624ZM22.224 79.48C22.928 79.192 23.472 79.064 23.856 79.096C24.24 79.128 24.48 79.256 24.576 79.48C24.672 79.672 24.624 79.928 24.432 80.248C24.272 80.568 24 80.872 23.616 81.16C23.296 81.384 22.896 81.688 22.416 82.072C21.968 82.456 21.488 82.872 20.976 83.32C20.496 83.736 20.016 84.152 19.536 84.568C19.088 84.984 18.704 85.32 18.384 85.576C18.608 87.08 18.736 88.6 18.768 90.136C18.8 91.704 18.704 93.192 18.48 94.6C18.256 96.04 17.888 97.352 17.376 98.536C16.864 99.752 16.176 100.744 15.312 101.512C14.096 102.6 12.864 103.224 11.616 103.384C10.368 103.544 9.264 103.336 8.304 102.76C7.344 102.184 6.592 101.288 6.048 100.072C5.504 98.888 5.344 97.48 5.568 95.848C5.824 94.184 6.336 92.712 7.104 91.432C7.904 90.152 8.736 89.08 9.6 88.216C10.624 87.192 11.728 86.312 12.912 85.576C12.88 85.32 12.816 84.968 12.72 84.52C12.656 84.136 12.544 83.656 12.384 83.08C12.224 82.472 12.016 81.704 11.76 80.776C11.6 80.232 11.392 79.72 11.136 79.24C10.912 78.728 10.688 78.296 10.464 77.944C10.176 77.528 9.904 77.16 9.648 76.84C9.136 77.416 8.608 77.928 8.064 78.376C7.616 78.76 7.12 79.112 6.576 79.432C6.032 79.72 5.52 79.864 5.04 79.864C4.528 79.864 3.952 79.592 3.312 79.048C2.672 78.504 2.096 77.784 1.584 76.888C1.104 75.992 0.72 74.968 0.432 73.816C0.176 72.664 0.144 71.48 0.336 70.264C0.56 69.048 0.848 68.072 1.2 67.336C1.552 66.6 1.936 66.024 2.352 65.608C2.768 65.16 3.216 64.84 3.696 64.648C4.176 64.456 4.656 64.312 5.136 64.216C5.84 64.088 6.672 64.184 7.632 64.504C8.624 64.824 9.552 65.24 10.416 65.752C11.312 66.232 12.064 66.744 12.672 67.288C13.312 67.8 13.616 68.2 13.584 68.488C13.552 68.776 13.2 68.888 12.528 68.824C11.888 68.728 11.136 68.616 10.272 68.488C9.44 68.36 8.608 68.296 7.776 68.296C6.976 68.296 6.416 68.552 6.096 69.064C5.776 69.576 5.52 70.184 5.328 70.888C5.136 71.592 5.008 72.296 4.944 73C4.912 73.704 4.96 74.36 5.088 74.968C5.216 75.544 5.456 75.976 5.808 76.264C6 76.424 6.256 76.376 6.576 76.12C6.928 75.832 7.328 75.496 7.776 75.112C8.224 74.696 8.72 74.312 9.264 73.96C9.808 73.576 10.384 73.352 10.992 73.288C11.632 73.192 12.288 73.352 12.96 73.768C13.632 74.152 14.32 74.92 15.024 76.072C15.44 76.744 15.872 77.528 16.32 78.424C16.8 79.288 17.216 80.536 17.568 82.168C18.4 81.656 19.184 81.176 19.92 80.728C20.656 80.248 21.424 79.832 22.224 79.48ZM12.336 97.096C12.528 96.552 12.64 95.848 12.672 94.984C12.736 94.152 12.768 93.32 12.768 92.488C12.736 91.528 12.688 90.52 12.624 89.464C11.952 90.04 11.36 90.648 10.848 91.288C10.4 91.832 10 92.472 9.648 93.208C9.328 93.944 9.2 94.728 9.264 95.56C9.328 96.36 9.504 96.936 9.792 97.288C10.08 97.672 10.384 97.88 10.704 97.912C11.056 97.976 11.376 97.912 11.664 97.72C11.984 97.56 12.208 97.352 12.336 97.096ZM21.0049 66.664C21.4529 65.8 22.0449 65.048 22.7809 64.408C23.5169 63.768 24.3169 63.256 25.1809 62.872C26.0769 62.456 27.0049 62.152 27.9649 61.96C28.9569 61.768 29.9169 61.672 30.8449 61.672C31.8049 61.736 32.6209 62.056 33.2929 62.632C33.9969 63.176 34.4929 63.896 34.7809 64.792C35.0689 65.656 35.1169 66.632 34.9249 67.72C34.7649 68.808 34.3009 69.912 33.5329 71.032C32.7009 72.248 31.8049 73.16 30.8449 73.768C29.9169 74.376 29.0529 74.808 28.2529 75.064C27.3249 75.384 26.4129 75.528 25.5169 75.496C25.4849 76.712 25.6129 77.752 25.9009 78.616C26.0289 79 26.1729 79.368 26.3329 79.72C26.5249 80.04 26.7649 80.328 27.0529 80.584C27.3409 80.84 27.6929 81.032 28.1089 81.16C28.5249 81.256 29.0049 81.256 29.5489 81.16C30.7009 80.968 31.6289 80.552 32.3329 79.912C33.0689 79.24 33.6769 78.568 34.1569 77.896C34.6369 77.224 35.0209 76.648 35.3089 76.168C35.6289 75.656 35.9329 75.464 36.2209 75.592C36.5729 75.752 36.7489 76.152 36.7489 76.792C36.7809 77.432 36.6369 78.184 36.3169 79.048C35.9969 79.912 35.5169 80.808 34.8769 81.736C34.2689 82.632 33.4849 83.4 32.5249 84.04C31.5649 84.68 30.4609 85.112 29.2129 85.336C27.9649 85.592 26.5729 85.48 25.0369 85C23.7889 84.616 22.7489 84.008 21.9169 83.176C21.0849 82.344 20.4289 81.384 19.9489 80.296C19.4689 79.208 19.1489 78.04 18.9889 76.792C18.8289 75.544 18.7969 74.312 18.8929 73.096C19.0209 71.848 19.2609 70.664 19.6129 69.544C19.9969 68.424 20.4609 67.464 21.0049 66.664ZM25.4689 71.896C25.8849 71.832 26.3489 71.704 26.8609 71.512C27.3089 71.352 27.7889 71.112 28.3009 70.792C28.8449 70.472 29.4209 70.024 30.0289 69.448C30.6049 68.904 30.9889 68.376 31.1809 67.864C31.4049 67.352 31.5329 66.92 31.5649 66.568C31.5969 66.152 31.5329 65.768 31.3729 65.416C30.9249 65.288 30.4449 65.288 29.9329 65.416C29.4849 65.544 28.9889 65.8 28.4449 66.184C27.9009 66.568 27.3409 67.176 26.7649 68.008C26.3169 68.648 25.9969 69.224 25.8049 69.736C25.6129 70.216 25.4849 70.616 25.4209 70.936C25.3569 71.32 25.3729 71.64 25.4689 71.896ZM49.9845 61.624C50.1125 61.88 50.0965 62.088 49.9365 62.248C49.7765 62.376 49.5365 62.52 49.2165 62.68C48.9285 62.808 48.5925 62.984 48.2085 63.208C47.8245 63.4 47.4565 63.688 47.1045 64.072C46.7525 64.456 46.4485 64.952 46.1925 65.56C45.9685 66.168 45.8565 66.936 45.8565 67.864C45.8245 68.792 46.0325 69.688 46.4805 70.552C46.9605 71.416 47.5365 72.264 48.2085 73.096C48.8805 73.896 49.6165 74.696 50.4165 75.496C51.2165 76.264 51.9365 77.064 52.5765 77.896C53.2165 78.696 53.7125 79.528 54.0645 80.392C54.4485 81.224 54.5765 82.088 54.4485 82.984C54.2885 83.88 53.7765 84.632 52.9125 85.24C52.0805 85.88 51.0565 86.36 49.8405 86.68C48.6245 87.032 47.3125 87.224 45.9045 87.256C44.4965 87.288 43.1685 87.16 41.9205 86.872C40.7045 86.616 39.6485 86.2 38.7525 85.624C37.8565 85.048 37.2965 84.312 37.0725 83.416C36.7205 82.104 36.6245 81 36.7845 80.104C36.9125 79.208 37.1685 78.472 37.5525 77.896C37.9365 77.288 38.3685 76.824 38.8485 76.504C39.3285 76.152 39.7445 75.88 40.0965 75.688C40.8325 75.272 41.3125 75.272 41.5365 75.688C41.7925 76.104 41.6485 76.76 41.1045 77.656C40.8485 78.104 40.7845 78.616 40.9125 79.192C41.0405 79.736 41.3285 80.264 41.7765 80.776C42.2565 81.256 42.8485 81.672 43.5525 82.024C44.2885 82.376 45.1205 82.568 46.0485 82.6C46.6245 82.632 47.2005 82.584 47.7765 82.456C48.3845 82.296 48.8805 82.072 49.2645 81.784C49.6485 81.464 49.8725 81.096 49.9365 80.68C50.0325 80.232 49.8725 79.736 49.4565 79.192C49.0405 78.648 48.3205 77.96 47.2965 77.128C46.2725 76.296 45.2165 75.384 44.1285 74.392C43.0725 73.368 42.1285 72.296 41.2965 71.176C40.4965 70.024 40.0965 68.872 40.0965 67.72C40.0965 65.448 40.4965 63.784 41.2965 62.728C42.1285 61.672 43.4565 60.984 45.2805 60.664C46.1765 60.504 46.9125 60.44 47.4885 60.472C48.0645 60.472 48.5125 60.536 48.8325 60.664C49.1845 60.792 49.4405 60.952 49.6005 61.144C49.7605 61.304 49.8885 61.464 49.9845 61.624ZM68.0606 66.904C67.9646 67.064 67.6606 67.112 67.1486 67.048C66.6366 66.952 66.0446 66.936 65.3726 67C64.7006 67.032 64.0286 67.24 63.3566 67.624C62.6846 67.976 62.1406 68.664 61.7246 69.688C61.3406 70.712 61.0686 71.8 60.9086 72.952C60.7806 74.104 60.7806 75.208 60.9086 76.264C61.0686 77.288 61.3406 78.184 61.7246 78.952C62.1406 79.72 62.6846 80.248 63.3566 80.536C64.3166 80.92 65.1806 81.048 65.9486 80.92C66.7166 80.792 67.4046 80.584 68.0126 80.296C68.6206 79.976 69.1326 79.64 69.5486 79.288C69.9966 78.936 70.3486 78.712 70.6046 78.616C71.2126 78.424 71.4846 78.664 71.4206 79.336C71.3566 79.976 70.9086 80.808 70.0766 81.832C69.6286 82.408 69.0686 82.968 68.3966 83.512C67.7246 84.024 66.9726 84.44 66.1406 84.76C65.3086 85.08 64.3966 85.256 63.4046 85.288C62.4446 85.32 61.4206 85.128 60.3326 84.712C59.3086 84.328 58.3806 83.704 57.5486 82.84C56.7166 81.976 56.0286 80.984 55.4846 79.864C54.9726 78.712 54.6046 77.48 54.3806 76.168C54.1886 74.856 54.2046 73.544 54.4286 72.232C54.6846 70.92 55.1646 69.656 55.8686 68.44C56.6046 67.192 57.6126 66.088 58.8926 65.128C60.1086 64.264 61.2926 63.816 62.4446 63.784C63.6286 63.752 64.6526 63.912 65.5166 64.264C66.4126 64.616 67.1006 65.08 67.5806 65.656C68.0606 66.2 68.2206 66.616 68.0606 66.904ZM71.8508 79.672C71.8188 78.616 71.7868 77.144 71.7548 75.256C71.7228 73.368 71.7068 71.304 71.7068 69.064C71.7388 66.824 71.7868 64.536 71.8508 62.2C71.9148 59.832 72.0268 57.672 72.1868 55.72C72.3788 53.768 72.6348 52.136 72.9548 50.824C73.2748 49.512 73.6908 48.76 74.2028 48.568C75.0988 48.248 75.9788 48.232 76.8428 48.52C77.7388 48.808 78.5388 49.256 79.2428 49.864C79.9468 50.44 80.5228 51.112 80.9708 51.88C81.4508 52.616 81.7228 53.288 81.7868 53.896C82.1388 55.88 82.1388 57.672 81.7868 59.272C81.4668 60.872 81.0028 62.344 80.3948 63.688C79.7868 65.032 79.1468 66.264 78.4748 67.384C77.8028 68.504 77.3228 69.592 77.0348 70.648C77.8348 69.208 78.7308 67.992 79.7228 67C80.1388 66.584 80.5868 66.2 81.0668 65.848C81.5468 65.496 82.0588 65.224 82.6028 65.032C83.1468 64.84 83.7068 64.744 84.2828 64.744C84.8588 64.744 85.4508 64.904 86.0588 65.224C87.0508 65.736 87.8028 66.472 88.3148 67.432C88.8588 68.36 89.2428 69.416 89.4668 70.6C89.7228 71.752 89.8828 72.968 89.9468 74.248C90.0108 75.528 90.0748 76.76 90.1388 77.944C90.2348 79.128 90.3788 80.232 90.5708 81.256C90.7628 82.248 91.1148 83.048 91.6268 83.656C92.3628 84.52 93.0028 85.112 93.5468 85.432C94.0908 85.784 94.5548 85.992 94.9388 86.056C95.3228 86.152 95.6268 86.184 95.8508 86.152C96.1068 86.152 96.2988 86.216 96.4268 86.344C96.5228 86.44 96.5868 86.536 96.6188 86.632C96.6828 86.76 96.6828 86.872 96.6188 86.968C96.5868 87.096 96.4588 87.224 96.2348 87.352C96.0108 87.512 95.6748 87.672 95.2268 87.832C94.3628 88.12 93.2428 88.152 91.8668 87.928C90.5228 87.736 89.0828 87.08 87.5468 85.96C86.7788 85.416 86.1868 84.648 85.7708 83.656C85.3868 82.664 85.0828 81.592 84.8588 80.44C84.6348 79.256 84.4588 78.072 84.3307 76.888C84.2348 75.672 84.1068 74.568 83.9468 73.576C83.7868 72.584 83.5468 71.784 83.2268 71.176C82.9388 70.536 82.5068 70.2 81.9308 70.168C81.3548 70.136 80.8428 70.36 80.3948 70.84C79.9468 71.288 79.5628 71.912 79.2428 72.712C78.9228 73.48 78.6508 74.36 78.4268 75.352C78.2348 76.344 78.0748 77.32 77.9468 78.28C77.8188 79.24 77.7228 80.152 77.6588 81.016C77.5948 81.88 77.5468 82.568 77.5148 83.08C77.4828 83.88 77.2908 84.44 76.9388 84.76C76.5868 85.08 76.1708 85.24 75.6908 85.24C75.2428 85.24 74.7628 85.144 74.2508 84.952C73.7388 84.728 73.3228 84.504 73.0028 84.28C72.6508 84.024 72.3948 83.64 72.2348 83.128C72.0748 82.616 71.9628 82.104 71.8988 81.592C71.8347 81.016 71.8188 80.376 71.8508 79.672ZM76.4108 66.76C76.4108 66.76 76.5388 66.36 76.7948 65.56C77.0828 64.728 77.3868 63.72 77.7068 62.536C78.0268 61.352 78.3148 60.12 78.5708 58.84C78.8268 57.56 78.9388 56.44 78.9068 55.48C78.8428 54.52 78.7148 53.704 78.5228 53.032C78.3308 52.328 78.1068 51.864 77.8508 51.64C77.5948 51.384 77.3388 51.416 77.0828 51.736C76.8268 52.056 76.6188 52.744 76.4588 53.8C76.2988 54.856 76.2028 56.136 76.1708 57.64C76.1388 59.112 76.1388 60.536 76.1708 61.912C76.2348 63.256 76.2828 64.408 76.3148 65.368C76.3788 66.296 76.4108 66.76 76.4108 66.76ZM95.6768 66.664C96.1248 65.8 96.7168 65.048 97.4528 64.408C98.1888 63.768 98.9888 63.256 99.8528 62.872C100.749 62.456 101.677 62.152 102.637 61.96C103.629 61.768 104.589 61.672 105.517 61.672C106.477 61.736 107.293 62.056 107.965 62.632C108.669 63.176 109.165 63.896 109.453 64.792C109.741 65.656 109.789 66.632 109.597 67.72C109.437 68.808 108.973 69.912 108.205 71.032C107.373 72.248 106.477 73.16 105.517 73.768C104.589 74.376 103.725 74.808 102.925 75.064C101.997 75.384 101.085 75.528 100.189 75.496C100.157 76.712 100.285 77.752 100.573 78.616C100.701 79 100.845 79.368 101.005 79.72C101.197 80.04 101.437 80.328 101.725 80.584C102.013 80.84 102.365 81.032 102.781 81.16C103.197 81.256 103.677 81.256 104.221 81.16C105.373 80.968 106.301 80.552 107.005 79.912C107.741 79.24 108.349 78.568 108.829 77.896C109.309 77.224 109.693 76.648 109.981 76.168C110.301 75.656 110.605 75.464 110.893 75.592C111.245 75.752 111.421 76.152 111.421 76.792C111.453 77.432 111.309 78.184 110.989 79.048C110.669 79.912 110.189 80.808 109.549 81.736C108.941 82.632 108.157 83.4 107.197 84.04C106.237 84.68 105.133 85.112 103.885 85.336C102.637 85.592 101.245 85.48 99.7088 85C98.4608 84.616 97.4208 84.008 96.5888 83.176C95.7568 82.344 95.1008 81.384 94.6208 80.296C94.1408 79.208 93.8208 78.04 93.6608 76.792C93.5008 75.544 93.4688 74.312 93.5648 73.096C93.6928 71.848 93.9328 70.664 94.2848 69.544C94.6688 68.424 95.1328 67.464 95.6768 66.664ZM100.141 71.896C100.557 71.832 101.021 71.704 101.533 71.512C101.981 71.352 102.461 71.112 102.973 70.792C103.517 70.472 104.093 70.024 104.701 69.448C105.277 68.904 105.661 68.376 105.853 67.864C106.077 67.352 106.205 66.92 106.237 66.568C106.269 66.152 106.205 65.768 106.045 65.416C105.597 65.288 105.117 65.288 104.605 65.416C104.157 65.544 103.661 65.8 103.117 66.184C102.573 66.568 102.013 67.176 101.437 68.008C100.989 68.648 100.669 69.224 100.477 69.736C100.285 70.216 100.157 70.616 100.093 70.936C100.029 71.32 100.045 71.64 100.141 71.896ZM113.856 67.48C114.048 67.16 114.32 66.872 114.672 66.616C115.056 66.328 115.44 66.088 115.824 65.896C116.24 65.672 116.64 65.512 117.024 65.416C117.44 65.288 117.776 65.224 118.032 65.224C118.16 65.224 118.256 65.352 118.32 65.608C118.416 65.864 118.496 66.2 118.56 66.616C118.656 67.032 118.72 67.512 118.752 68.056C118.784 68.568 118.816 69.096 118.848 69.64C118.912 70.92 118.928 72.376 118.896 74.008C119.312 73.176 119.76 72.36 120.24 71.56C120.656 70.888 121.136 70.2 121.68 69.496C122.224 68.76 122.784 68.136 123.36 67.624C123.904 67.144 124.496 66.776 125.136 66.52C125.808 66.264 126.48 66.168 127.152 66.232C127.824 66.264 128.464 66.504 129.072 66.952C129.712 67.4 130.272 68.072 130.752 68.968C131.072 69.576 131.312 70.344 131.472 71.272C131.632 72.168 131.744 73.128 131.808 74.152C131.904 75.144 131.984 76.152 132.048 77.176C132.144 78.2 132.288 79.144 132.48 80.008C132.704 80.872 132.992 81.608 133.344 82.216C133.728 82.824 134.272 83.208 134.976 83.368C135.552 83.528 136.112 83.544 136.656 83.416C137.232 83.256 137.76 83.064 138.24 82.84C138.752 82.584 139.184 82.376 139.536 82.216C139.92 82.024 140.192 81.976 140.352 82.072C140.48 82.2 140.4 82.552 140.112 83.128C139.856 83.704 139.408 84.296 138.768 84.904C138.16 85.512 137.376 86.024 136.416 86.44C135.488 86.888 134.416 87.032 133.2 86.872C130.8 86.552 129.072 85.32 128.016 83.176C126.96 81 126.352 78.168 126.192 74.68C126.128 73.432 125.968 72.504 125.712 71.896C125.488 71.288 125.184 70.968 124.8 70.936C124.416 70.904 123.968 71.128 123.456 71.608C122.976 72.056 122.448 72.712 121.872 73.576C121.2 74.568 120.704 75.56 120.384 76.552C120.064 77.544 119.84 78.472 119.712 79.336C119.616 80.2 119.552 80.968 119.52 81.64C119.488 82.312 119.408 82.808 119.28 83.128C119.12 83.48 118.784 83.72 118.272 83.848C117.76 83.976 117.2 84.04 116.592 84.04C116.016 84.04 115.44 83.976 114.864 83.848C114.32 83.72 113.936 83.56 113.712 83.368C113.584 83.24 113.472 82.792 113.376 82.024C113.312 81.224 113.264 80.28 113.232 79.192C113.2 78.072 113.184 76.888 113.184 75.64C113.216 74.36 113.248 73.16 113.28 72.04C113.344 70.888 113.424 69.896 113.52 69.064C113.616 68.232 113.728 67.704 113.856 67.48ZM144.048 69.832C144.176 69.544 144.528 69.096 145.104 68.488C145.712 67.88 146.416 67.304 147.216 66.76C148.048 66.216 148.928 65.768 149.856 65.416C150.784 65.032 151.648 64.936 152.448 65.128C153.568 65.384 154.496 65.816 155.232 66.424C155.968 67 156.432 67.928 156.624 69.208C156.72 69.912 156.624 70.632 156.336 71.368C156.08 72.072 155.68 72.744 155.136 73.384C154.592 74.024 153.952 74.6 153.216 75.112C152.512 75.624 151.776 75.992 151.008 76.216C150.912 76.248 150.912 76.488 151.008 76.936C151.136 77.352 151.344 77.848 151.632 78.424C151.952 78.968 152.352 79.512 152.832 80.056C153.344 80.6 153.936 81.016 154.608 81.304C155.344 81.624 156.048 81.736 156.72 81.64C157.392 81.512 158.016 81.272 158.592 80.92C159.168 80.568 159.68 80.152 160.128 79.672C160.608 79.192 161.008 78.728 161.328 78.28C161.68 77.832 161.952 77.464 162.144 77.176C162.368 76.856 162.512 76.696 162.576 76.696C162.864 76.76 163.008 77.064 163.008 77.608C163.008 78.12 162.88 78.744 162.624 79.48C162.4 80.216 162.032 81 161.52 81.832C161.04 82.664 160.464 83.432 159.792 84.136C159.12 84.808 158.352 85.352 157.488 85.768C156.656 86.184 155.744 86.344 154.752 86.248C153.536 86.152 152.528 85.848 151.728 85.336C150.928 84.856 150.272 84.28 149.76 83.608C149.28 82.936 148.896 82.232 148.608 81.496C148.352 80.76 148.16 80.072 148.032 79.432C147.936 78.792 147.856 78.28 147.792 77.896C147.728 77.48 147.664 77.288 147.6 77.32C147.216 77.448 146.816 77.544 146.4 77.608C146.016 77.64 145.664 77.656 145.344 77.656C145.056 77.656 144.816 77.656 144.624 77.656C144.432 77.656 144.336 77.656 144.336 77.656C144.272 78.904 144.208 80.056 144.144 81.112C144.08 82.168 144.032 83.016 144 83.656C144 84.264 143.776 84.728 143.328 85.048C142.912 85.4 142.432 85.56 141.888 85.528C141.344 85.528 140.784 85.32 140.208 84.904C139.664 84.488 139.248 83.832 138.96 82.936C138.8 82.424 138.672 81.496 138.576 80.152C138.48 78.808 138.416 77.24 138.384 75.448C138.352 73.656 138.336 71.752 138.336 69.736C138.368 67.688 138.416 65.736 138.48 63.88C138.544 61.992 138.624 60.28 138.72 58.744C138.816 57.208 138.944 56.056 139.104 55.288C139.36 53.848 139.76 52.648 140.304 51.688C140.88 50.728 141.52 49.976 142.224 49.432C142.928 48.888 143.664 48.552 144.432 48.424C145.2 48.264 145.92 48.296 146.592 48.52C148.064 49 149.056 49.784 149.568 50.872C150.112 51.928 150.352 53.16 150.288 54.568C150.224 55.944 149.92 57.416 149.376 58.984C148.832 60.52 148.224 62.008 147.552 63.448C146.88 64.856 146.208 66.136 145.536 67.288C144.864 68.408 144.368 69.256 144.048 69.832ZM144.72 74.728C145.36 73.896 146 73.256 146.64 72.808C147.184 72.456 147.776 72.264 148.416 72.232C149.088 72.2 149.728 72.616 150.336 73.48C151.2 72.648 151.632 71.864 151.632 71.128C151.664 70.392 151.36 69.848 150.72 69.496C150.176 69.176 149.584 69.128 148.944 69.352C148.304 69.576 147.696 69.96 147.12 70.504C146.544 71.048 146.032 71.704 145.584 72.472C145.168 73.208 144.88 73.96 144.72 74.728ZM143.376 65.32C143.344 65.288 143.456 64.936 143.712 64.264C143.968 63.592 144.272 62.76 144.624 61.768C145.008 60.744 145.376 59.64 145.728 58.456C146.112 57.24 146.4 56.104 146.592 55.048C146.816 53.992 146.912 53.08 146.88 52.312C146.88 51.512 146.672 51.032 146.256 50.872C145.744 50.68 145.328 50.904 145.008 51.544C144.688 52.184 144.416 53.048 144.192 54.136C144 55.192 143.84 56.376 143.712 57.688C143.616 59 143.536 60.232 143.472 61.384C143.44 62.504 143.408 63.448 143.376 64.216C143.376 64.984 143.376 65.352 143.376 65.32ZM161.63 66.664C162.078 65.8 162.67 65.048 163.406 64.408C164.142 63.768 164.942 63.256 165.806 62.872C166.702 62.456 167.63 62.152 168.59 61.96C169.582 61.768 170.542 61.672 171.47 61.672C172.43 61.736 173.246 62.056 173.918 62.632C174.622 63.176 175.118 63.896 175.406 64.792C175.694 65.656 175.742 66.632 175.55 67.72C175.39 68.808 174.926 69.912 174.158 71.032C173.326 72.248 172.43 73.16 171.47 73.768C170.542 74.376 169.678 74.808 168.878 75.064C167.95 75.384 167.038 75.528 166.142 75.496C166.11 76.712 166.238 77.752 166.526 78.616C166.654 79 166.798 79.368 166.958 79.72C167.15 80.04 167.39 80.328 167.678 80.584C167.966 80.84 168.318 81.032 168.734 81.16C169.15 81.256 169.63 81.256 170.174 81.16C171.326 80.968 172.254 80.552 172.958 79.912C173.694 79.24 174.302 78.568 174.782 77.896C175.262 77.224 175.646 76.648 175.934 76.168C176.254 75.656 176.558 75.464 176.846 75.592C177.198 75.752 177.374 76.152 177.374 76.792C177.406 77.432 177.262 78.184 176.942 79.048C176.622 79.912 176.142 80.808 175.502 81.736C174.894 82.632 174.11 83.4 173.15 84.04C172.19 84.68 171.086 85.112 169.838 85.336C168.59 85.592 167.198 85.48 165.662 85C164.414 84.616 163.374 84.008 162.542 83.176C161.71 82.344 161.054 81.384 160.574 80.296C160.094 79.208 159.774 78.04 159.614 76.792C159.454 75.544 159.422 74.312 159.518 73.096C159.646 71.848 159.886 70.664 160.238 69.544C160.622 68.424 161.086 67.464 161.63 66.664ZM166.094 71.896C166.51 71.832 166.974 71.704 167.486 71.512C167.934 71.352 168.414 71.112 168.926 70.792C169.47 70.472 170.046 70.024 170.654 69.448C171.23 68.904 171.614 68.376 171.806 67.864C172.03 67.352 172.158 66.92 172.19 66.568C172.222 66.152 172.158 65.768 171.998 65.416C171.55 65.288 171.07 65.288 170.558 65.416C170.11 65.544 169.614 65.8 169.07 66.184C168.526 66.568 167.966 67.176 167.39 68.008C166.942 68.648 166.622 69.224 166.43 69.736C166.238 70.216 166.11 70.616 166.046 70.936C165.982 71.32 165.998 71.64 166.094 71.896ZM179.81 67.48C180.002 67.16 180.274 66.872 180.626 66.616C181.01 66.328 181.394 66.088 181.778 65.896C182.194 65.672 182.594 65.512 182.978 65.416C183.394 65.288 183.73 65.224 183.986 65.224C184.114 65.224 184.21 65.352 184.273 65.608C184.37 65.864 184.45 66.2 184.514 66.616C184.61 67.032 184.674 67.512 184.706 68.056C184.738 68.568 184.77 69.096 184.802 69.64C184.866 70.92 184.882 72.376 184.85 74.008C185.266 73.176 185.714 72.36 186.194 71.56C186.61 70.888 187.09 70.2 187.634 69.496C188.178 68.76 188.738 68.136 189.314 67.624C189.858 67.144 190.45 66.776 191.09 66.52C191.762 66.264 192.434 66.168 193.106 66.232C193.778 66.264 194.418 66.504 195.026 66.952C195.666 67.4 196.226 68.072 196.706 68.968C197.026 69.576 197.266 70.344 197.426 71.272C197.586 72.168 197.698 73.128 197.762 74.152C197.858 75.144 197.938 76.152 198.002 77.176C198.098 78.2 198.242 79.144 198.434 80.008C198.658 80.872 198.946 81.608 199.298 82.216C199.682 82.824 200.226 83.208 200.93 83.368C201.506 83.528 202.066 83.544 202.609 83.416C203.186 83.256 203.714 83.064 204.194 82.84C204.706 82.584 205.138 82.376 205.49 82.216C205.874 82.024 206.146 81.976 206.306 82.072C206.434 82.2 206.354 82.552 206.066 83.128C205.81 83.704 205.362 84.296 204.722 84.904C204.114 85.512 203.33 86.024 202.37 86.44C201.442 86.888 200.37 87.032 199.154 86.872C196.754 86.552 195.026 85.32 193.97 83.176C192.914 81 192.306 78.168 192.146 74.68C192.082 73.432 191.922 72.504 191.666 71.896C191.442 71.288 191.138 70.968 190.754 70.936C190.37 70.904 189.922 71.128 189.41 71.608C188.93 72.056 188.402 72.712 187.826 73.576C187.154 74.568 186.658 75.56 186.338 76.552C186.018 77.544 185.794 78.472 185.666 79.336C185.57 80.2 185.506 80.968 185.474 81.64C185.442 82.312 185.362 82.808 185.234 83.128C185.074 83.48 184.738 83.72 184.226 83.848C183.714 83.976 183.154 84.04 182.546 84.04C181.97 84.04 181.394 83.976 180.818 83.848C180.274 83.72 179.89 83.56 179.666 83.368C179.538 83.24 179.426 82.792 179.33 82.024C179.266 81.224 179.218 80.28 179.186 79.192C179.154 78.072 179.138 76.888 179.138 75.64C179.17 74.36 179.202 73.16 179.234 72.04C179.298 70.888 179.378 69.896 179.474 69.064C179.57 68.232 179.682 67.704 179.81 67.48Z" fill="white"/>
</svg>
