<svg width="75" height="113" viewBox="0 0 75 113" fill="none" xmlns="http://www.w3.org/2000/svg">
    <path d="M102.531 18.0407L93.2078 45.4983C92.5663 47.4229 92.9084 49.4758 94.0632 51.0583L111.385 74.2818C114.378 78.302 111.47 84.0331 106.423 83.9475L77.5544 83.5626C75.5443 83.5198 73.7052 84.5035 72.5077 86.1287L55.7851 109.78C52.8768 113.886 46.547 112.859 45.0928 108.069L36.4963 80.3977C35.8975 78.5159 34.4006 77.019 32.5188 76.4202L4.84735 67.8237C0.0572414 66.3695 -0.926448 59.997 3.1366 57.1315L26.7878 40.4088C28.413 39.2968 29.3967 37.3722 29.3539 35.3621L29.0117 6.36483C28.969 1.36087 34.6572 -1.59018 38.6775 1.40364L61.901 18.8106C63.4834 19.9653 65.5363 20.3075 67.4609 19.6659L94.9186 10.3423C99.6659 8.75988 104.199 13.2934 102.531 18.0407Z" fill="url(#paint0_linear_216_2174)" />
    <defs>
        <linearGradient id="paint0_linear_216_2174" x1="93.7523" y1="99.2455" x2="13.5554" y2="19.2317" gradientUnits="userSpaceOnUse">
            <stop stop-color="#3ABEBB" />
            <stop offset="1" stop-color="#79E7CC" />
        </linearGradient>
    </defs>
</svg>
    