<svg width="57" height="57" viewBox="0 0 57 57" fill="none" xmlns="http://www.w3.org/2000/svg">
    <path d="M29.106 27.816C29.4434 27.816 29.7954 27.7867 30.162 27.728C30.5287 27.6547 30.8 27.5593 30.976 27.442V27.244C30.976 27.1853 30.976 27.1267 30.976 27.068C30.9907 27.0093 30.998 26.958 30.998 26.914C30.9834 26.386 30.9394 25.8947 30.866 25.44C30.7927 24.9707 30.668 24.5673 30.492 24.23C30.316 23.878 30.074 23.6067 29.766 23.416C29.4727 23.2107 29.106 23.108 28.666 23.108C28.314 23.108 28.006 23.1813 27.742 23.328C27.478 23.4747 27.2654 23.6653 27.104 23.9C26.9427 24.1347 26.818 24.3913 26.73 24.67C26.6567 24.9487 26.62 25.22 26.62 25.484C26.62 26.276 26.8107 26.8627 27.192 27.244C27.588 27.6253 28.226 27.816 29.106 27.816ZM30.712 29.95C30.404 30.0967 30.0594 30.2067 29.678 30.28C29.3114 30.3387 28.996 30.368 28.732 30.368C27.7787 30.368 26.9647 30.258 26.29 30.038C25.6154 29.8033 25.058 29.4807 24.618 29.07C24.1927 28.6447 23.8774 28.1387 23.672 27.552C23.4667 26.9653 23.364 26.32 23.364 25.616C23.364 25.0293 23.4594 24.428 23.65 23.812C23.8554 23.196 24.1707 22.6387 24.596 22.14C25.0214 21.6267 25.5567 21.2087 26.202 20.886C26.862 20.5487 27.654 20.38 28.578 20.38C30.47 20.38 31.8927 20.9667 32.846 22.14C33.814 23.2987 34.298 24.9707 34.298 27.156C34.298 28.5933 34.1074 29.862 33.726 30.962C33.3594 32.062 32.78 32.986 31.988 33.734C31.2107 34.482 30.2134 35.054 28.996 35.45C27.7787 35.8313 26.334 36.0293 24.662 36.044C24.6474 35.5747 24.6254 35.12 24.596 34.68C24.5667 34.24 24.5374 33.7853 24.508 33.316C25.344 33.3013 26.0994 33.2427 26.774 33.14C27.4487 33.0227 28.0427 32.8393 28.556 32.59C29.0694 32.326 29.502 31.9813 29.854 31.556C30.2207 31.1307 30.5067 30.5953 30.712 29.95Z" fill="white" />
    <path d="M20.309 11.726L15.8091 3.14062C8.34866 7.04845 2.90139 14.272 1.30273 22.7982L11.0723 24.5745C11.9604 19.0088 15.4538 14.272 20.309 11.726Z" fill="#FFC808" />
    <path d="M10.8946 27.3569C10.8946 26.4095 10.9538 25.5214 11.1314 24.6332L1.36186 22.8569C1.06581 24.3964 0.947393 25.995 0.888184 27.5937C0.888184 29.8437 1.12502 32.0344 1.5987 34.1659L11.4867 31.916C11.0722 30.4357 10.8946 28.8963 10.8946 27.3569Z" fill="#F58B1F" />
    <path d="M11.4275 31.8569L1.53955 34.1069C2.25006 37.1266 3.43425 39.9686 5.03291 42.5739L13.7959 37.1266C12.7301 35.5279 11.9604 33.7516 11.4275 31.8569Z" fill="#F99D1C" />
    <path d="M13.7958 37.1265L5.03281 42.5737C6.33542 44.6461 7.87486 46.5408 9.65115 48.2578C4.85518 49.7381 0 50.4486 0 50.4486C0.177628 50.6262 5.6249 54.3564 14.2103 56.1327L20.7825 43.3435C17.9997 41.8632 15.5721 39.7317 13.7958 37.1265Z" fill="#EF3B24" />
    <path d="M28.539 45.0014C25.7562 45.0014 23.151 44.3501 20.8418 43.2251L14.2695 56.0736C18.4142 56.9617 23.3286 57.317 28.7759 56.6657V45.0014C28.6574 45.0014 28.5982 45.0014 28.539 45.0014Z" fill="#F26922" />
    <path d="M28.7168 45.0014V56.6657C31.2628 56.3697 33.868 55.7776 36.5917 54.9486C39.0192 54.2381 41.2692 53.1724 43.3415 51.8697L37.5982 42.5146C35.0522 44.0541 32.0325 45.0014 28.7168 45.0014Z" fill="#7FC042" />
    <path d="M46.1834 27.3568C46.1834 33.7514 42.7492 39.3763 37.6572 42.4552L43.4006 51.8103C47.3676 49.3235 50.6833 45.8302 52.9925 41.6855C55.2424 37.6593 56.5451 33.0409 56.6043 28.1857C56.6043 26.0542 56.4266 23.9819 56.0122 21.9688L45.8873 24.1595C46.065 25.2253 46.1834 26.291 46.1834 27.3568Z" fill="#C6D22D" />
    <path d="M29.0715 0.00222407C24.2756 -0.0569854 19.7756 1.06799 15.8086 3.14033L20.3085 11.7257C22.7361 10.4231 25.5782 9.71258 28.5386 9.71258C37.1832 9.71258 44.4068 15.9296 45.887 24.1597L56.0118 21.9689C53.3474 9.53495 42.3344 0.179853 29.0715 0.00222407Z" fill="#E9E015" />
</svg>
    