<svg width="40" height="23" viewBox="0 0 40 23" fill="none" xmlns="http://www.w3.org/2000/svg">
    <path d="M23.5811 10.1094L23.6515 10.0126L23.722 9.91962L23.7774 9.85669H23.52L23.5585 10.1441L23.5811 10.1094Z" fill="white" />
    <path d="M35.6595 13.6448V13.6823L35.5806 14.0938L35.6595 13.6823V13.6448Z" fill="white" />
    <path d="M35.5296 13.7857L35.4629 13.8458L35.5296 13.7857L35.5963 13.719L35.6282 13.6824L35.5963 13.719L35.5296 13.7857Z" fill="white" />
    <path d="M35.1257 10.1206L34.9642 10.1281L34.8862 10.1394L34.9642 10.1281L35.1257 10.1206Z" fill="white" />
    <path d="M35.8632 10.3244L35.7928 10.284L35.7148 10.2427L35.7928 10.284L35.8632 10.3244Z" fill="white" />
    <path d="M39.2203 10.7471L39.1771 10.1911L39.1028 9.64159L39.0005 9.10338L38.8708 8.57269L38.714 8.05326L38.5299 7.54135L38.3223 7.04446L38.0865 6.55885L37.8311 6.08357L37.5483 5.62708L37.2459 5.1781L36.9199 4.7479L36.5743 4.3365L36.2089 3.93542L35.82 3.55313L35.4161 3.18963L34.9925 2.84491L34.5529 2.51897L34.0974 2.21089L33.6221 1.92534L33.1356 1.66234L32.633 1.42095L32.1155 1.19834L31.5857 1.00202L31.0438 0.827317L30.4905 0.67891L29.9298 0.556802L29.353 0.460056L28.7716 0.389609L28.1789 0.34922L27.5768 0.333252L26.9804 0.348281L26.3877 0.38867L25.8063 0.459117L25.2333 0.555863L24.6726 0.677971L24.1193 0.826378L23.5821 1.00109L23.0523 1.1974L22.5376 1.42001L22.0388 1.6614L21.5523 1.92441L21.0807 2.20995L20.6252 2.51804L20.1856 2.84397L19.793 3.16708L19.8202 3.18963L20.225 3.55313L20.6101 3.93542L20.6271 3.95421H24.6143V4.55159H21.1549L21.3203 4.7479L21.6424 5.1781L21.7119 5.28236H24.6134V5.87975H22.098L22.2229 6.08357L22.4822 6.55885L22.5047 6.60676H24.6134V7.20414H22.7799L22.9217 7.54135L23.0598 7.93491H24.6134V8.5323H23.2467L23.2589 8.57362L23.3886 9.10432L23.4177 9.26024H24.6125V9.27433L24.6557 9.25649L24.7693 9.21516L24.8914 9.17759L25.0126 9.14753L25.1385 9.12123L25.2718 9.09869L25.4052 9.0799L25.547 9.06487L25.6879 9.05736L25.8373 9.0536L25.9632 9.05736L26.0853 9.06487L26.2027 9.07614L26.3201 9.09117L26.43 9.1062L26.5361 9.12874L26.6385 9.14753L26.7324 9.17007L26.8226 9.19261L26.9015 9.21516L26.9757 9.2377L27.0386 9.26024L27.0931 9.27903L27.1401 9.29406L27.1758 9.30909L27.1993 9.3166L27.0029 10.3442L26.9522 10.3179L26.9015 10.2953L26.847 10.269L26.7878 10.2427L26.7287 10.2202L26.662 10.1977L26.5953 10.1751L26.5248 10.1526L26.4506 10.1338L26.3764 10.1188L26.2938 10.1037L26.2111 10.0925L26.121 10.0849L26.0308 10.0774H25.9369H25.8392H25.7415L25.6391 10.0849L25.533 10.0962L25.4231 10.115L25.3132 10.1451L25.2033 10.1854L25.0934 10.2371L24.9835 10.3038L24.8773 10.3855L24.775 10.4823L24.6773 10.6006L24.5833 10.7377L24.4969 10.9012L24.4143 11.0862L24.3401 11.2938L24.2771 11.5314L24.2536 11.6648L24.2499 11.6986H24.5364V12.2998H24.2743L24.3081 12.4069L24.3513 12.5186L24.4105 12.6191L24.481 12.7159L24.5636 12.8014L24.6575 12.8793L24.7637 12.946L24.8848 13.0014L25.0182 13.0493L25.1676 13.0831L25.2183 13.0944L25.2775 13.1057L25.3479 13.1132L25.4268 13.1207L25.5132 13.1282H25.6034H25.702L25.7997 13.1207L25.9021 13.1094L26.0045 13.0907L26.1022 13.0644L26.1999 13.0343L26.2975 12.9939L26.3877 12.946L26.4704 12.8868L26.5493 12.8201L26.3727 13.8111L26.3492 13.8299L26.3257 13.8524L26.2947 13.8787L26.259 13.9013L26.2158 13.9313L26.1604 13.9576L26.0975 13.9839L26.027 14.0065L25.9369 14.0328L25.8345 14.0516L25.7171 14.0666L25.5799 14.0816L25.4268 14.0891L25.2502 14.0929L25.0502 14.0891L24.8304 14.0779L24.65 14.0591L24.4697 14.0224L24.2893 13.967L24.109 13.8928L23.9362 13.8036L23.7709 13.6918L23.6948 13.6289H23.3679L23.2608 14.0666L23.1744 14.3559H24.635V14.9533H22.9762L22.9236 15.1017L22.7151 15.6023L22.6766 15.684H24.635V16.2814H22.3807L22.2248 16.567L21.9571 17.0084H24.635V17.6058H21.5466L21.3221 17.9064L20.9765 18.3216L20.9661 18.3328H24.635V18.934H20.3988L20.2269 19.1049L19.8221 19.4722L19.7948 19.4947L20.1875 19.8178L20.6271 20.1447L21.0826 20.4528L21.5541 20.7383L22.0407 21.0051L22.5394 21.2465L23.0542 21.4691L23.5839 21.6654L24.1212 21.8401L24.6744 21.9885L25.2352 22.1106L25.8082 22.2074L26.3896 22.2778L26.9823 22.3182L27.5787 22.3333L28.1799 22.3182L28.7726 22.2778L29.354 22.2074L29.9307 22.1106L30.4915 21.9885L31.0447 21.8401L31.5867 21.6654L32.1164 21.4691L32.634 21.2465L33.1365 21.0051L33.623 20.7383L34.0983 20.4528L34.5539 20.1447L34.9935 19.8178L35.4171 19.4731L35.821 19.1059L36.2098 18.7236L36.5752 18.3225L36.9209 17.9073L37.2468 17.4771L37.5493 17.0282L37.832 16.5679L38.0875 16.0936L38.3232 15.6042L38.5308 15.1036L38.7149 14.5916L38.8718 14.0685L39.0014 13.5378L39.1038 12.992L39.178 12.4426L39.2212 11.8827L39.2372 11.3154L39.2203 10.7471ZM30.2895 13.2738L30.1289 14.0976L30.1251 14.1164L30.1054 14.1201H29.1201H29.0919L29.0957 14.0938L29.1032 13.9417V13.8083L29.106 13.735L29.044 13.7932L28.9736 13.8449L28.8909 13.8966L28.8083 13.9482L28.7143 13.9924L28.6129 14.0365L28.5152 14.0741L28.4053 14.1032L28.2954 14.1333L28.1855 14.1521L28.0719 14.1671L27.9582 14.1746L27.8483 14.1784L27.7422 14.1671L27.6323 14.1521L27.4904 14.1192L27.3608 14.0816L27.2472 14.0337L27.1448 13.9745L27.0546 13.9154L26.9757 13.8449L26.9128 13.7745L26.8574 13.6965L26.8066 13.6185L26.7709 13.5331L26.7399 13.4476L26.7202 13.3659L26.7042 13.2804L26.693 13.1912L26.6855 13.1094L26.6817 13.0277L26.6939 12.8831L26.7174 12.7422L26.7531 12.6088L26.8038 12.4829L26.863 12.3608L26.9419 12.25L27.0245 12.1457L27.1185 12.0527L27.2209 11.9635L27.327 11.8856L27.4444 11.8113L27.5665 11.7522L27.6924 11.7005L27.822 11.6601L27.9554 11.6263L28.0925 11.6038H28.1L28.116 11.6L28.1479 11.5963L28.1874 11.5925L28.2381 11.585L28.2935 11.5812L28.3527 11.5737L28.4156 11.5662L28.4823 11.5587L28.5528 11.5512L28.6195 11.5474L28.6861 11.5399L28.7491 11.5361L28.8045 11.5324L28.859 11.5249H28.9022H28.9961L29.09 11.5324H29.1802H29.2666L29.3418 11.5399L29.4047 11.5437L29.4376 11.5474L29.4395 11.5399L29.4517 11.4732L29.4639 11.399L29.4676 11.3286H29.4714L29.4554 11.2506L29.4244 11.1839L29.3775 11.121L29.323 11.0693L29.2563 11.0242L29.1774 10.9914L29.0947 10.9688L29.0046 10.9651V10.9613L28.8947 10.9575H28.7773H28.6552H28.5293L28.3997 10.9651L28.2738 10.9763L28.1479 10.9876L28.0268 11.0026L27.9131 11.0177L27.7995 11.0364L27.6971 11.0552L27.6031 11.074L27.5167 11.0966L27.45 11.1191L27.3993 11.1454L27.3599 11.1642L27.3204 11.1416L27.5947 10.2474L27.5985 10.2324L27.6107 10.2286L27.6971 10.1948L27.7872 10.1648L27.8812 10.1385L27.9751 10.1197L28.0737 10.1009L28.1714 10.0859L28.2776 10.0708L28.3837 10.0633L28.4936 10.0558L28.6072 10.0521L28.7209 10.0445H28.8421H28.9642H29.09L29.2234 10.0483L29.3568 10.0558L29.4667 10.0633L29.5888 10.0821L29.7109 10.1084L29.8405 10.1422L29.9617 10.1864L30.0876 10.238L30.205 10.3047L30.3186 10.3752L30.4163 10.4569L30.5102 10.5499L30.5891 10.6541L30.6521 10.7687L30.6953 10.8908L30.7225 11.0205V11.1614L30.7028 11.3135L30.2895 13.2738ZM32.8134 11.0928L32.6997 11.1304L32.5973 11.1745L32.5072 11.2299L32.4292 11.2891L32.3588 11.352L32.2958 11.4225L32.2451 11.4967L32.1981 11.5746L32.1587 11.6564L32.1277 11.7381L32.1042 11.8198L32.0807 11.9015L32.0657 11.9832L31.6693 14.0938H30.5619L31.2955 10.1206H32.3982L32.2808 10.7922L32.3362 10.718L32.3954 10.6513L32.4546 10.5809L32.5137 10.518L32.5767 10.4588L32.6396 10.3996L32.7063 10.3479L32.7767 10.2963L32.8509 10.2521L32.9298 10.2117L33.0125 10.1742L33.0989 10.1441L33.1928 10.1178L33.2905 10.099L33.3967 10.0878L33.5066 10.0802L33.33 11.0336H33.3178H33.2868H33.2314L33.0783 11.0411L32.9411 11.0637L32.8134 11.0928ZM36.6682 14.0938H35.5805L35.6594 13.6824V13.6448L35.6275 13.6815L35.5955 13.719L35.5289 13.7857L35.4622 13.8449L35.3917 13.8966L35.3213 13.9445L35.2508 13.9858L35.1804 14.0196L35.1062 14.0534L35.032 14.0797L34.9578 14.0985L34.8836 14.1173L34.8047 14.1286L34.7258 14.1398L34.6516 14.1474L34.5727 14.1511H34.4938L34.2899 14.1361L34.1011 14.0948L33.9283 14.0318L33.7715 13.9464L33.6296 13.8383L33.5038 13.7125L33.3939 13.5753L33.2999 13.4194L33.221 13.2522L33.1581 13.0784L33.1149 12.8962L33.0839 12.7074L33.0717 12.5177L33.0754 12.3251L33.0952 12.1363L33.1309 11.9475L33.19 11.7287L33.2605 11.5211L33.3431 11.3323L33.4408 11.1538L33.5432 10.9867L33.6606 10.8382L33.7827 10.7049L33.9123 10.5828L34.0495 10.4747L34.1941 10.3818L34.3435 10.3L34.4928 10.2371L34.6497 10.1854L34.8065 10.1526L34.8854 10.1413L34.9643 10.13L35.125 10.1225L35.2386 10.1263L35.3485 10.1375L35.4509 10.1563L35.5448 10.1826L35.635 10.2127L35.7139 10.2456L35.7928 10.2869L35.8632 10.3273L35.9262 10.3714L35.9854 10.4193L36.0361 10.4672L36.083 10.5151L36.1225 10.563L36.1582 10.6109L36.1901 10.656L36.2136 10.7002L36.4888 9.2424H37.5568L36.6682 14.0938Z" fill="white" />
    <path d="M15.5653 13.0109L15.5615 13.0851L15.5812 13.148L15.6198 13.1959L15.6714 13.2372L15.7419 13.2626L15.8208 13.2851L15.9062 13.3002L16.0011 13.3077L16.0875 13.3039L16.1533 13.2973L16.095 12.9883L16.0208 12.4388L16.0096 12.3017H15.8828L15.8433 11.7006H15.972L15.9617 11.3117L15.972 10.9416L15.9419 10.9407L15.5653 13.0109Z" fill="white" />
    <path d="M19.3608 19.103L19.1889 18.9321H19.1842L19.1344 18.8785L18.9757 18.7207L18.6103 18.3197L18.2646 17.9045L18.0402 17.6039H18.0373L18.0139 17.5682L17.9434 17.4743L17.641 17.0253L17.3629 16.5651L17.207 16.2795H17.2061L17.1939 16.2551L17.1037 16.0907L16.8717 15.6014L16.6641 15.1007L16.4838 14.5888L16.3269 14.0656L16.2856 13.8966L16.2799 13.9247L16.2527 13.9435L16.2255 13.9586L16.1982 13.9736L16.171 13.9886L16.1437 13.9999L16.1118 14.0112L16.0761 14.0224L16.0404 14.0337L16.001 14.045L15.9615 14.0525L15.9145 14.06L15.8676 14.0675L15.8169 14.075L15.7577 14.0825L15.6948 14.0901L15.6281 14.0976H15.3294L15.1725 14.0863L15.0354 14.0713L14.9095 14.0487L14.8034 14.0224L14.7132 13.9886L14.639 13.951L14.5723 13.9069L14.5216 13.859L14.4821 13.8073L14.4549 13.7444L14.4352 13.6815L14.423 13.611L14.4192 13.5331V13.4513L14.4314 13.3659L14.4436 13.2729L15.1932 9.22549H16.1757L16.1982 9.10714L16.3278 8.57644L16.34 8.53511H16.3391L16.3476 8.51069L16.4847 8.05702L16.665 7.5451L16.8726 7.04822L17.1046 6.56261L17.3639 6.08733L17.6419 5.63084L17.9443 5.18186L18.2665 4.75166L18.4318 4.55535L18.4347 4.55253L18.6122 4.34025L18.9776 3.93918L19.3627 3.55689L19.7666 3.19338L19.7938 3.17084L19.4012 2.84866L18.9616 2.52273L18.506 2.21465L18.0345 1.9291L17.548 1.6661L17.0492 1.4247L16.5354 1.20209L16.0057 1.00578L15.4674 0.831074L14.9142 0.682667L14.3525 0.56056L13.7795 0.463813L13.1981 0.393366L12.6054 0.352977L12.008 0.333252L11.4078 0.348281L10.8152 0.38867L10.2337 0.459117L9.65701 0.555863L9.09532 0.677971L8.54208 0.826378L8.00011 1.00109L7.47035 1.1974L6.9528 1.42001L6.45028 1.6614L5.96373 1.92441L5.48845 2.20995L5.0329 2.51804L4.59331 2.84397L4.16969 3.18869L3.7658 3.55219L3.37693 3.93448L3.01155 4.33556L2.66589 4.7479L2.33996 5.1781L2.03751 5.62708L1.75478 6.08357L1.4993 6.55885L1.26354 7.04446L1.05595 7.54135L0.871853 8.0542L0.714992 8.57362L0.585371 9.10432L0.482988 9.64159L0.408785 10.1911L0.365577 10.7471L0.349609 11.3107L0.365577 11.878L0.408785 12.4379L0.482988 12.9873L0.585371 13.5331L0.714992 14.0638L0.871853 14.5869L1.05689 15.0989L1.26448 15.5995L1.50024 16.0889L1.75572 16.5632L2.03845 17.0235L2.3409 17.4724L2.66683 17.9026L3.01249 18.3178L3.37787 18.7189L3.76674 19.1012L4.17063 19.4684L4.59425 19.8131L5.03384 20.14L5.48939 20.4481L5.96467 20.7336L6.45122 21.0004L6.95374 21.2418L7.47129 21.4644L8.00105 21.6607L8.54302 21.8354L9.09626 21.9838L9.65795 22.1059L10.2347 22.2027L10.8161 22.2731L11.4088 22.3135L12.009 22.3286L12.6054 22.3135L13.1981 22.2731L13.7795 22.2027L14.3525 22.1059L14.9142 21.9838L15.4674 21.8354L16.0057 21.6607L16.5354 21.4644L17.0492 21.2418L17.548 21.0004L18.0345 20.7336L18.506 20.4481L18.9616 20.14L19.4012 19.8131L19.7938 19.49L19.7666 19.4675L19.3608 19.103ZM6.69356 14.0938H5.62559L6.30094 10.4541H6.25773L4.66 14.0938H3.4549L3.44738 13.9417L3.42014 13.5368L3.38445 12.962L3.345 12.3017L3.30555 11.6376L3.26986 11.0552L3.24262 10.6325L3.23416 10.4541H3.22195H3.19847H3.17499L2.52312 14.0938H1.45703L2.34841 9.22267H4.20539L4.38197 12.1129L5.66598 9.22267H7.60561L6.69356 14.0938ZM10.7832 13.2701L10.6264 14.0938H9.63729L9.66453 13.9417L9.68425 13.8045L9.70022 13.7003L9.71619 13.6448L9.66171 13.704L9.59878 13.7632L9.52457 13.8186L9.44192 13.8703L9.34799 13.9219L9.2503 13.9661L9.14792 14.0102L9.04178 14.0469L8.92813 14.0807L8.81447 14.107L8.70082 14.1295L8.58341 14.1445L8.46975 14.1521L8.3561 14.1558L8.2462 14.1445L8.14006 14.1295L8.00293 14.0957L7.87706 14.0591L7.76717 14.0112L7.66948 13.9557L7.58307 13.8966L7.50416 13.8299L7.44123 13.7594L7.38582 13.6852L7.33885 13.6073L7.2994 13.5255L7.26746 13.4438L7.24398 13.3621L7.22801 13.2766L7.2158 13.1912L7.20829 13.1094V13.0277L7.21956 12.8831L7.24304 12.7459L7.28249 12.6163L7.33321 12.4905L7.39615 12.3721L7.46659 12.2641L7.54925 12.1598L7.64412 12.0668L7.7418 11.9814L7.8517 11.9034L7.96536 11.833L8.08277 11.7738L8.20863 11.7221L8.33825 11.6808L8.47163 11.647L8.60877 11.6244H8.61722L8.63695 11.6207L8.66418 11.6169L8.70739 11.6132L8.75436 11.6056L8.80978 11.6019L8.86895 11.5944L8.93564 11.5869L9.00233 11.5793L9.06902 11.5718L9.13947 11.5681L9.2024 11.5606L9.26533 11.5568L9.3245 11.553L9.37992 11.5493H9.42313H9.5133L9.60723 11.553L9.69365 11.5568H9.78006L9.85051 11.5606L9.90498 11.5643L9.94444 11.5681H9.95665L9.96416 11.5418L9.98764 11.4751L10.0074 11.3971L10.0149 11.3267L9.99891 11.245L9.96322 11.1708L9.91626 11.1041L9.85332 11.0486L9.77818 11.0007L9.69552 10.9669L9.60159 10.9444L9.49921 10.9369L9.38932 10.9331H9.27284H9.15074L9.02487 10.9369L8.89525 10.9444L8.77032 10.9557L8.64446 10.9669L8.52235 10.982L8.40494 10.997L8.29129 11.0158L8.18891 11.0346L8.09498 11.0533L8.00856 11.0759L7.93812 11.0984L7.8827 11.1247L7.83949 11.1473L8.11846 10.2531L8.20487 10.2202L8.29129 10.1901L8.38522 10.1638L8.47915 10.1451L8.57307 10.1263L8.67546 10.1112L8.77784 10.0962L8.88398 10.0887L8.99388 10.0812L9.10753 10.0774L9.22588 10.0737H9.34705H9.47291H9.60253L9.73967 10.0774L9.87681 10.0812L9.9867 10.0887L10.1041 10.1075L10.2262 10.1338L10.3521 10.1676L10.4733 10.2117L10.5907 10.2634L10.7081 10.3263L10.818 10.3968L10.9157 10.4785L11.0021 10.5677L11.08 10.6682L11.1392 10.7791L11.1787 10.8974L11.2021 11.0233V11.1642L11.1787 11.3126L10.7832 13.2701ZM14.2614 10.9773L14.206 10.9735L14.1515 10.966L14.1008 10.9585L14.0501 10.951L14.0031 10.9434L13.9524 10.9359L13.9007 10.9284L13.8462 10.9209L13.7908 10.9134L13.7279 10.9096L13.6574 10.9059L13.5832 10.9021H13.4996L13.4095 10.9059L13.3071 10.9134L13.1934 10.9209L13.1145 10.9322L13.0403 10.9434L12.9736 10.966L12.9145 10.9885L12.86 11.0148L12.8093 11.0449L12.7698 11.0825L12.7341 11.1163L12.7106 11.1567L12.6909 11.198L12.6834 11.2421V11.2863L12.6956 11.3342L12.7116 11.3821L12.7435 11.43L12.782 11.4779L12.8609 11.5483L12.9549 11.6038L13.0647 11.6517L13.1822 11.6921L13.308 11.7287L13.4376 11.77L13.5673 11.8142L13.6931 11.8621L13.8105 11.925L13.9204 12.003L14.0181 12.096L14.1008 12.2105L14.1637 12.3514L14.2032 12.5186L14.2191 12.7187L14.2032 12.9526L14.1759 13.1273L14.129 13.2795L14.066 13.4203L13.9881 13.5425L13.8979 13.6505L13.7955 13.7435L13.6856 13.8252L13.5645 13.8956L13.4386 13.951L13.309 13.999L13.1756 14.0356L13.0384 14.0656L12.9051 14.0882L12.7754 14.0995L12.6458 14.107L12.5237 14.1107H12.3546L12.1978 14.107H12.0606L11.931 14.1032L11.8136 14.0995L11.7075 14.0919L11.6135 14.0844L11.5234 14.0732L11.4407 14.0656L11.3665 14.0506L11.2923 14.0393L11.2256 14.0206L11.1589 14.0055L11.096 13.983L11.0331 13.9604L10.9664 13.9379L11.143 13.1179L11.1787 13.1254L11.2219 13.1367L11.2763 13.1517L11.343 13.1667L11.4135 13.1818L11.4924 13.1968L11.5788 13.2156L11.6727 13.2306L11.7704 13.2456L11.8728 13.2607L11.9789 13.2719L12.0888 13.2832L12.2025 13.287L12.3161 13.2907H12.4298L12.5434 13.287L12.6571 13.2644L12.7473 13.2344L12.8177 13.193L12.8722 13.1414L12.9116 13.0897L12.9436 13.0305L12.9633 12.9714L12.9793 12.916L12.9868 12.8079L12.9511 12.7149L12.8844 12.6407L12.7867 12.5778L12.6693 12.5224L12.5322 12.467L12.3791 12.4153L12.226 12.3561L12.0691 12.2894L11.9198 12.2115L11.7826 12.1147L11.6568 12.0001L11.5581 11.8593L11.4877 11.6921L11.452 11.492L11.4557 11.2544L11.4755 11.1097L11.5027 10.9726L11.5422 10.8467L11.5891 10.7283L11.6521 10.6175L11.7225 10.5208L11.8052 10.4278L11.9029 10.3461L12.0165 10.2756L12.1424 10.2164L12.2833 10.161L12.4401 10.1206L12.6167 10.0868L12.8093 10.0605L13.0215 10.0455L13.2535 10.0417H13.3982L13.5316 10.0455L13.6537 10.0492L13.7636 10.053L13.8613 10.0605L13.9514 10.068L14.0294 10.0755L14.0998 10.0831L14.1665 10.0906L14.221 10.1018L14.2717 10.1094L14.3187 10.1169L14.3581 10.1244L14.3938 10.1281L14.4286 10.1357L14.4596 10.1394L14.2614 10.9773Z" fill="white" />
    <path d="M16.326 8.5738L16.1973 9.1045L16.1748 9.22285H16.2791L16.2725 9.25948H23.4177L23.3885 9.1045L23.2589 8.5738L23.2467 8.53247H16.3392L16.326 8.5738Z" fill="white" />
    <path d="M19.3606 3.55398L18.9755 3.93533L18.6111 4.33641L18.4326 4.54868L18.9643 3.95412H20.6259L20.6089 3.93533L20.2238 3.55398L19.8199 3.18954L19.7927 3.16699L19.7655 3.18954L19.3606 3.55398Z" fill="white" />
    <path d="M18.2656 4.74782L17.9435 5.17896L17.641 5.62794L17.363 6.08349L17.1037 6.55877L16.8717 7.04438L16.6642 7.54221L16.4838 8.05412L16.3467 8.50779L16.5345 7.93483H23.0598L22.9217 7.54221L22.7799 7.20406H16.8135L17.0878 6.60668H22.5047L22.4812 6.55877L22.2229 6.08349L22.0979 5.87967H17.5039L17.8768 5.28228H21.7119L21.6414 5.17896L21.3193 4.74782L21.1549 4.55151H18.431L18.2656 4.74782Z" fill="white" />
    <path d="M17.363 16.565L17.641 17.0253L17.9434 17.4743L18.0139 17.5682L17.641 17.0065H21.9551L22.2228 16.565L22.3778 16.2786H17.207L17.363 16.565Z" fill="white" />
    <path d="M17.7863 11.645H17.5036L17.3232 12.3758H17.6379L17.6407 12.3579L17.7863 11.645Z" fill="white" />
    <path d="M23.0628 12.6249L23.0158 12.376L23.0111 12.3018H21.6125L21.4829 13.0288H23.214L23.1332 12.8512L23.0628 12.6249Z" fill="white" />
    <path d="M18.2655 17.9046L18.6112 18.3197L18.9756 18.7208L19.1353 18.8786L18.6309 18.331H20.9641L20.9744 18.3197L21.3191 17.9046L21.5446 17.604H18.041L18.2655 17.9046Z" fill="white" />
    <path d="M20.2241 19.1031L20.3969 18.9321H19.189L19.3609 19.1031L19.7657 19.4694L19.7929 19.4919L19.8202 19.4694L20.2241 19.1031Z" fill="white" />
    <path d="M17.7988 11.5898L17.7866 11.6453L17.7988 11.5898Z" fill="white" />
    <path d="M17.6299 12.4211L17.6383 12.376L17.6299 12.4211Z" fill="white" />
    <path d="M19.2237 11.6451L19.2312 11.5521L19.2275 11.4638L19.22 11.3821L19.204 11.3079L19.1758 11.2375L19.1486 11.1736L19.1101 11.1182L19.0706 11.0665L19.0237 11.0224L18.972 10.9848L18.9138 10.9519L18.8546 10.9219L18.7917 10.8993L18.7287 10.8843L18.662 10.874L18.5916 10.8665L18.5174 10.8702L18.446 10.8805L18.3793 10.8956L18.3126 10.9181L18.2459 10.9482L18.1868 10.981L18.1285 11.0224L18.0778 11.0665L18.0261 11.1182L17.9792 11.1736L17.936 11.2337L17.9012 11.2966L17.8655 11.3633L17.8383 11.4375L17.8139 11.5117L17.7988 11.5897L17.7866 11.6451H19.2237Z" fill="white" />
    <path d="M21.2919 14.0938H21.2722H20.1657L20.8993 10.1206H22.0264L21.8846 10.7922L21.9437 10.718L22.0029 10.6438L22.0574 10.5734L22.1166 10.5104L22.1758 10.4466L22.234 10.3911L22.2969 10.3357L22.3636 10.2878L22.4341 10.2427L22.5092 10.2061L22.5919 10.1685L22.682 10.1394L22.776 10.1169L22.8783 10.0981L22.9882 10.0868L23.1094 10.0793H23.1366L23.1648 10.0831L23.1958 10.0868H23.2231L23.2512 10.0906L23.27 10.0943L23.286 10.0981H23.2897L23.2822 10.1094L23.2625 10.1357L23.2353 10.1798L23.1996 10.2352L23.1601 10.2982L23.1216 10.3686L23.0822 10.439L23.0512 10.5104L23.0155 10.6138L22.9798 10.718L22.9525 10.8213L22.9253 10.9181L22.9056 10.9998L22.8896 11.0665L22.8783 11.1106L22.8736 11.1257H22.8699L22.8586 11.1219L22.8426 11.1182L22.8229 11.1144H22.8032L22.7835 11.1106L22.7675 11.1069H22.7562L22.6031 11.1182L22.4698 11.1369L22.3476 11.167L22.2377 11.1999L22.1438 11.2412L22.0574 11.2853L21.987 11.3408L21.924 11.3971L21.8686 11.4601L21.8216 11.5267L21.7831 11.5972L21.7512 11.6714L21.7409 11.7005H23.0249L23.0512 11.5155L23.0822 11.3633L23.1169 11.2149L23.1564 11.0702L23.1958 10.9331L23.239 10.8035L23.2897 10.6729L23.3414 10.5508L23.3959 10.4362L23.4551 10.3207L23.5142 10.2136L23.5584 10.1441L23.5199 9.85669H16.1653L16.1183 10.1206H16.7739L16.6321 10.9585L15.9718 10.9416L15.9614 11.3116L15.9718 11.7005H16.5598L16.5851 11.5822L16.6283 11.4262L16.6875 11.2666L16.7579 11.1069L16.8481 10.9444L16.958 10.7885L17.0839 10.6401L17.237 10.4992L17.4098 10.3724L17.6061 10.2615L17.8334 10.1685L18.0889 10.1018L18.3716 10.0577L18.6891 10.0427L18.8422 10.0464L19.0038 10.0615L19.1644 10.0868L19.326 10.1244L19.4828 10.1798L19.6359 10.2465L19.7768 10.3357L19.9064 10.439L20.0238 10.5659L20.1225 10.7143L20.2004 10.8843L20.2558 11.0815L20.2868 11.3041L20.2915 11.5559L20.2634 11.8386L20.2051 12.1495L20.1854 12.3759H17.6381L17.6296 12.4209L17.6258 12.4876L17.6334 12.5581L17.6493 12.6285L17.6766 12.699L17.7085 12.7657L17.7508 12.8361L17.7987 12.899L17.8532 12.962L17.9123 13.0183L17.9753 13.0738L18.0457 13.1179L18.1162 13.1592L18.1951 13.1921L18.273 13.2184L18.3519 13.2334L18.4543 13.2485L18.552 13.2588L18.6544 13.2701L18.7558 13.2776L18.8582 13.2813H18.9643L19.0667 13.2776L19.1728 13.2701L19.2781 13.256L19.3842 13.2372L19.4941 13.2146L19.6002 13.1808L19.7101 13.1404L19.8238 13.0963L19.9337 13.0362L20.0473 12.9732L19.8905 13.8862L19.8275 13.9154L19.7655 13.9454L19.7026 13.968L19.6434 13.9905L19.5843 14.0083L19.5213 14.0271L19.4584 14.0422L19.3917 14.0534L19.3213 14.0647L19.2433 14.0713L19.1606 14.0788L19.0705 14.0863L18.9681 14.0901H18.8619L18.7408 14.0938H18.6112L18.4186 14.0901L18.2223 14.0713L18.026 14.0459L17.8297 14.0008L17.6371 13.9454L17.453 13.875L17.2764 13.782L17.1111 13.6749L16.958 13.549L16.8246 13.3969L16.711 13.2259L16.617 13.0287L16.5504 12.8098L16.5072 12.5618L16.4959 12.3017H16.0093L16.0206 12.4388L16.0948 12.9883L16.153 13.2973L16.1653 13.2964L16.2366 13.2851L16.2986 13.2701L16.3503 13.256L16.385 13.2447L16.4085 13.2372L16.417 13.2334L16.2845 13.8947L16.3259 14.0647L16.4837 14.5869L16.664 15.0998L16.8716 15.6004L17.1036 16.0898L17.1938 16.2551L16.911 15.6822H22.6745L22.713 15.6004L22.9215 15.0998L22.9732 14.9514H16.6133L16.417 14.354H23.1714L23.2588 14.0647L23.3658 13.6261H21.3755L21.2919 14.0938Z" fill="white" />
    <path d="M21.1548 4.55149H24.6133V3.9541H20.626L20.9745 4.33639L21.1548 4.55149Z" fill="white" />
    <path d="M18.4307 4.55139L18.4324 4.54883L18.4307 4.55139Z" fill="white" />
    <path d="M22.098 5.87961H24.6134V5.28223H21.7119L21.9439 5.62788L22.098 5.87961Z" fill="white" />
    <path d="M22.7796 7.20408H24.6131V6.60669H22.5044L22.7129 7.0444L22.7796 7.20408Z" fill="white" />
    <path d="M23.2465 8.53245H24.6132V7.93506H23.0596L23.1018 8.05435L23.2465 8.53245Z" fill="white" />
    <path d="M16.3384 8.53223H16.3393L16.3468 8.50781L16.3384 8.53223Z" fill="white" />
    <path d="M22.9731 14.9514H24.6329V14.354H23.1713L23.1018 14.5869L22.9731 14.9514Z" fill="white" />
    <path d="M22.3779 16.2786H24.6332V15.6821H22.6747L22.4813 16.0898L22.3779 16.2786Z" fill="white" />
    <path d="M17.2061 16.2786H17.207L17.1938 16.2551L17.2061 16.2786Z" fill="white" />
    <path d="M21.6417 17.4744L21.5449 17.604H24.6333V17.0066H21.9554L21.9441 17.0254L21.6417 17.4744Z" fill="white" />
    <path d="M18.0381 17.6041H18.0409L18.0137 17.5684L18.0381 17.6041Z" fill="white" />
    <path d="M20.397 18.9322H24.6332V18.3311H20.9643L20.6093 18.7209L20.397 18.9322Z" fill="white" />
    <path d="M19.1841 18.9322H19.1888L19.1353 18.8787L19.1841 18.9322Z" fill="white" />
    <path d="M23.5199 9.85666H23.7772L23.8007 9.8313L23.8787 9.74959L23.9613 9.67162L24.0515 9.59742L24.1417 9.52697L24.2365 9.46404L24.3342 9.40487L24.4404 9.34851L24.5465 9.30061L24.6132 9.27337V9.25928H23.4175L23.4907 9.64157L23.5199 9.85666Z" fill="white" />
    <path d="M23.4672 13.4111L23.4221 13.3538L23.3883 13.5341L23.3657 13.6262H23.6926L23.6118 13.5595L23.4672 13.4111Z" fill="white" />
    <path d="M24.2285 11.9268L24.2323 12.0536L24.2445 12.1795L24.2717 12.2978L24.2736 12.3016H24.5347V11.7004H24.2482L24.237 11.7972L24.2285 11.9268Z" fill="white" />
    <path d="M35.9309 11.6376L35.9149 11.5456L35.8867 11.4564L35.8557 11.3709L35.8163 11.2967L35.7693 11.2262L35.7186 11.1671L35.6594 11.1145L35.5927 11.0703L35.5223 11.0403L35.4472 11.0224L35.3654 11.0149L35.2593 11.0224L35.1607 11.0365L35.0705 11.0666L34.9803 11.1041L34.9014 11.152L34.8235 11.2112L34.7568 11.2741L34.6901 11.3446L34.6309 11.4263L34.5764 11.5118L34.5248 11.601L34.4816 11.6968L34.4431 11.7973L34.4111 11.8978L34.3801 12.0049L34.3566 12.1129L34.3369 12.2764L34.3444 12.4539L34.3717 12.6361L34.4233 12.8099L34.5013 12.962L34.6037 13.0851L34.7333 13.1668L34.8902 13.1959L35.0001 13.1884L35.1024 13.1668L35.1964 13.1405L35.2865 13.0992L35.3692 13.055L35.4472 12.9996L35.5223 12.9367L35.589 12.87L35.6482 12.7958L35.7026 12.7141L35.7534 12.6286L35.7966 12.5394L35.836 12.4464L35.868 12.3506L35.8952 12.2501L35.9149 12.1496L35.9346 12.0462L35.9459 11.9382V11.8386L35.9422 11.7344L35.9309 11.6376Z" fill="white" />
    <path d="M9.81792 12.2649L9.79444 12.2536L9.75592 12.2461L9.71272 12.2386L9.66106 12.2349H9.60282H9.54365L9.48071 12.2386L9.41402 12.2461L9.35109 12.2536L9.28816 12.2612L9.22898 12.2687L9.1745 12.2799L9.12754 12.2912L9.08433 12.3016L9.05709 12.3091L9.02516 12.3203L8.98195 12.3354L8.93874 12.3542L8.88802 12.3758L8.8373 12.4021L8.78188 12.4284L8.73116 12.4575L8.67574 12.495L8.62502 12.5317L8.57806 12.5768L8.53485 12.6209L8.4954 12.6688L8.46816 12.7214L8.44468 12.7806L8.43247 12.8398L8.42871 12.9656L8.44844 13.0661L8.48789 13.1403L8.53861 13.1958L8.59684 13.2333L8.66447 13.2559L8.7274 13.2662L8.7894 13.27L8.90775 13.2662L9.01389 13.2559L9.11533 13.2399L9.2055 13.2183L9.2844 13.192L9.35861 13.1591L9.4253 13.1253L9.48447 13.0849L9.53613 13.0473L9.5831 13.0032L9.62161 12.9619L9.65354 12.9177L9.68078 12.8736L9.70426 12.8285L9.72399 12.7881L9.7362 12.7468L9.7672 12.6397L9.79444 12.5167L9.81792 12.3983L9.83764 12.3016L9.83389 12.2837L9.81792 12.2649Z" fill="white" />
    <path d="M29.2926 12.2613L29.2644 12.25L29.225 12.2387L29.1818 12.235L29.131 12.2312H29.0719L29.0136 12.235L28.9507 12.2425L28.8878 12.25L28.8248 12.2575L28.7657 12.265L28.7074 12.2763L28.6558 12.2838L28.605 12.2941L28.5656 12.3016L28.5383 12.3054L28.5073 12.3167L28.4679 12.3279L28.4247 12.343L28.373 12.3646L28.3261 12.3871L28.2716 12.4134L28.2209 12.4463L28.1692 12.4801L28.1185 12.5205L28.0753 12.5618L28.0321 12.6097L27.9964 12.6614L27.9691 12.7178L27.9457 12.7769L27.9334 12.8399L27.9297 12.9657L27.9494 13.0662L27.9804 13.1404L28.0283 13.1959L28.0865 13.2334L28.1532 13.256L28.2209 13.2663L28.2866 13.2701L28.405 13.2663L28.5149 13.256L28.6172 13.2372L28.7074 13.2109L28.7938 13.1808L28.868 13.1479L28.9385 13.1104L29.0014 13.0662L29.0568 13.0249L29.1038 12.977L29.147 12.9328L29.1818 12.8849L29.2099 12.8399L29.2297 12.7957L29.2447 12.7506L29.2569 12.7102L29.2729 12.606L29.2926 12.4989L29.3076 12.3946L29.3151 12.3016L29.3076 12.28L29.2926 12.2613Z" fill="white" />
</svg>
    