<svg width="26" height="23" viewBox="0 0 26 23" fill="none" xmlns="http://www.w3.org/2000/svg">
    <path d="M7.18067 12.7166H3.13721V19.4302H7.18067V12.7166Z" fill="white" />
    <path d="M7.48632 9.35961C7.48632 10.6237 6.46132 11.6487 5.19726 11.6487C3.9332 11.6487 2.9082 10.6237 2.9082 9.35961C2.9082 8.09555 3.9332 7.07056 5.19726 7.07056C6.46132 7.07132 7.48632 8.09555 7.48632 9.35961Z" fill="white" />
    <path d="M14.839 0.333252H0.33252V22.3333H14.839V22.3294C18.008 22.2859 20.5178 21.4992 22.2997 19.9831C24.4665 18.1401 25.5648 15.2293 25.5648 11.3333C25.5648 9.47039 25.2761 7.79999 24.7064 6.3679C24.161 4.99767 23.356 3.8329 22.3119 2.90491C20.4735 1.27118 17.8934 0.388244 14.839 0.337835V0.333252ZM14.5648 1.79437C17.3763 1.79437 19.7196 2.55586 21.3411 3.99712C23.1742 5.62627 24.1037 8.09405 24.1037 11.3333C24.1037 17.7521 20.9837 20.8721 14.5648 20.8721C14.0661 20.8721 3.07679 20.8721 1.79364 20.8721C1.79364 19.563 1.79364 3.10349 1.79364 1.79437C3.07603 1.79437 14.0661 1.79437 14.5648 1.79437Z" fill="white" />
    <path d="M9.02686 10.7344C9.02991 10.7344 9.03373 10.7344 9.03678 10.7344V8.42017C9.03373 8.42017 9.02991 8.42017 9.02686 8.42017C9.02686 8.60347 9.02686 10.5511 9.02686 10.7344Z" fill="white" />
    <path d="M19.972 7.59532H20.9504C20.9504 7.59532 20.9504 10.5389 20.9504 10.7345C21.1092 10.7345 22.3848 10.7345 22.7628 10.7345C22.3924 5.11837 18.0503 3.57324 13.9587 3.57324H9.0369V7.56401H9.56085C9.89157 7.56401 10.1383 7.58921 10.3162 7.64115C10.5568 7.71218 10.7661 7.83973 10.938 8.02075C11.1075 8.19947 11.2374 8.42021 11.3252 8.6776C11.4115 8.93118 11.4558 9.24586 11.4558 9.61324C11.4558 9.93784 11.4146 10.222 11.3328 10.4595C11.2328 10.7513 11.0861 10.9926 10.8982 11.1744C10.7539 11.3157 10.5576 11.4265 10.3155 11.5036C10.136 11.5601 9.89615 11.5891 9.6021 11.5891H9.03613V19.437H13.9579C18.2214 19.437 22.7575 18.1569 22.7873 11.5891H19.9712V7.59532H19.972ZM15.2266 11.5899H12.1188V7.56401H15.1533V8.42021C15.1533 8.42021 13.2851 8.42021 13.0972 8.42021C13.0972 8.55769 13.0972 8.91896 13.0972 9.0572C13.2835 9.0572 15.0097 9.0572 15.0097 9.0572V9.9134C15.0097 9.9134 13.2835 9.9134 13.0972 9.9134C13.0972 10.0631 13.0972 10.5855 13.0972 10.7352C13.2858 10.7352 15.2266 10.7352 15.2266 10.7352V11.5899ZM18.5223 11.5899C18.5223 11.5899 18.2328 10.8376 18.1893 10.7238C18.0656 10.7238 16.9352 10.7238 16.8092 10.7238C16.7664 10.8399 16.4929 11.5899 16.4929 11.5899H15.4496L17.0138 7.56401H17.9762L19.5863 11.5899H18.5223Z" fill="white" />
    <path d="M17.863 9.8683C17.7958 9.68728 17.6026 9.16791 17.488 8.86011C17.3757 9.16791 17.1863 9.68805 17.1206 9.8683C17.3024 9.8683 17.6797 9.8683 17.863 9.8683Z" fill="white" />
    <path d="M9.49969 10.7344C9.70591 10.7344 9.85408 10.7229 9.94115 10.7008C10.0488 10.6741 10.139 10.6282 10.2085 10.5664C10.2765 10.5053 10.3345 10.3968 10.3811 10.2456C10.43 10.0859 10.4552 9.86139 10.4552 9.57879C10.4552 9.29696 10.4307 9.08004 10.3819 8.9334C10.3353 8.79286 10.2711 8.68364 10.1901 8.60802C10.1107 8.53317 10.0068 8.482 9.88158 8.45451C9.81284 8.43923 9.65091 8.4209 9.27055 8.4209C9.27055 8.4209 9.13918 8.4209 9.0376 8.4209V10.7352C9.18195 10.7344 9.49969 10.7344 9.49969 10.7344Z" fill="white" />
</svg>
    