<svg width="56" height="19" viewBox="0 0 56 19" fill="none" xmlns="http://www.w3.org/2000/svg">
    <path d="M24.0734 18.0311H19.5479L22.3758 0.64502H26.9013L24.0734 18.0311Z" fill="white" />
    <path d="M15.7387 0.64502L11.4225 12.6032L10.9108 10.0264L9.3899 2.21246C9.3899 2.21246 9.20386 0.64502 7.24107 0.64502H0.106182L0.0224609 0.938043C0.0224609 0.938043 2.20386 1.39386 4.75734 2.92409L8.69223 18.0311H13.4085L20.6085 0.64502H15.7387Z" fill="white" />
    <path d="M51.3436 18.0311H55.5017L51.8785 0.64502H48.2366C46.5576 0.64502 46.1482 1.94269 46.1482 1.94269L39.3994 18.0357H44.1157L45.0599 15.4543H50.8134L51.3436 18.0311ZM46.3622 11.8822L48.7389 5.37525L50.0785 11.8822H46.3622Z" fill="white" />
    <path d="M39.7526 4.82627L40.3991 1.09139C40.3991 1.09139 38.4038 0.333252 36.3294 0.333252C34.0829 0.333252 28.748 1.31465 28.748 6.09139C28.748 10.5844 35.0084 10.6402 35.0084 12.9984C35.0084 15.3565 29.3945 14.9379 27.5387 13.4495L26.8643 17.3519C26.8643 17.3519 28.8875 18.3333 31.9759 18.3333C35.0643 18.3333 39.7247 16.7333 39.7247 12.3798C39.7247 7.85883 33.4084 7.43558 33.4084 5.47279C33.4038 3.50534 37.8131 3.75651 39.7526 4.82627Z" fill="white" />
</svg>
    