<svg width="117" height="49" viewBox="0 0 117 49" fill="none" xmlns="http://www.w3.org/2000/svg">
    <path d="M116.796 0.5H0V48.5H116.796V0.5Z" fill="black"/>
    <path d="M22.6556 13.812H27.0642V28.6254C27.0642 29.9869 26.7634 31.1898 26.1596 32.2343C25.5581 33.2787 24.7072 34.083 23.6091 34.6519C22.5111 35.2207 21.2731 35.5051 19.8907 35.5051C17.6269 35.5051 15.8644 34.9293 14.5985 33.7776C13.3349 32.6259 12.7031 30.9987 12.7031 28.8911H17.142C17.142 29.9402 17.3635 30.7142 17.8041 31.2132C18.2447 31.7121 18.9395 31.9638 19.8907 31.9638C20.7323 31.9638 21.4037 31.6748 21.9049 31.0966C22.4038 30.5184 22.6556 29.6954 22.6556 28.6277V13.812Z" fill="white"/>
    <path d="M59.5492 35.2091H55.1406V13.812H59.5492V35.2091Z" fill="white"/>
    <path d="M82.5238 35.2091H78.1152L69.5336 21.1301V35.2091H65.125V13.812H69.5336L78.1316 27.9213V13.812H82.5261V35.2091H82.5238Z" fill="white"/>
    <path d="M92.8726 31.6678H103.422V35.2091H87.3613V32.6213L97.9433 17.3813H87.3753V13.812H103.424V16.3392L92.8726 31.6678Z" fill="white"/>
    <path d="M48.3182 31.2456C52.2839 27.259 52.2792 20.8152 48.3019 16.8356C44.3177 12.8513 37.8575 12.8513 33.8733 16.8356C29.889 20.8199 29.889 27.2777 33.8709 31.262L37.8179 35.2089L37.8156 35.2112L41.1004 38.4961L41.1027 38.4938L44.3876 35.2089L48.3346 31.262L48.3182 31.2456ZM45.1103 28.0657C45.1057 28.0703 45.0987 28.075 45.094 28.082L45.0987 28.0867L41.6086 31.5767L38.7178 34.4675V29.7093L37.1325 28.124C37.1115 28.103 37.0882 28.0843 37.0649 28.0634C34.8431 25.8416 34.8431 22.2373 37.0649 20.0156C39.2866 17.7938 42.8909 17.7938 45.1127 20.0156C47.3321 22.2397 47.3321 25.8416 45.1103 28.0657Z" fill="white"/>
</svg> 