<svg width="74" height="32" viewBox="0 0 74 32" fill="none" xmlns="http://www.w3.org/2000/svg">
    <path d="M73.189 0H0V31.218H73.189V0Z" fill="#016F9F" />
    <path d="M11.2081 9.23486H14.2665V19.5114C14.2665 20.4559 14.0578 21.2905 13.6389 22.015C13.2217 22.7396 12.6314 23.2976 11.8696 23.6922C11.1078 24.0868 10.249 24.2841 9.28994 24.2841C7.71952 24.2841 6.49681 23.8847 5.6186 23.0857C4.74201 22.2867 4.30371 21.1578 4.30371 19.6958H7.38311C7.38311 20.4236 7.53676 20.9605 7.84243 21.3066C8.14811 21.6527 8.63007 21.8274 9.28994 21.8274C9.8738 21.8274 10.3396 21.6269 10.6873 21.2258C11.0334 20.8247 11.2081 20.2537 11.2081 19.513V9.23486Z" fill="white" />
    <path d="M36.8025 24.0787H33.7441V9.23486H36.8025V24.0787Z" fill="white" />
    <path d="M52.741 24.0787H49.6827L43.7293 14.3117V24.0787H40.6709V9.23486H43.7293L49.694 19.023V9.23486H52.7427V24.0787H52.741Z" fill="white" />
    <path d="M59.9201 21.622H67.2385V24.0787H56.0967V22.2835L63.4377 11.711H56.1064V9.23486H67.2401V10.9881L59.9201 21.622Z" fill="white" />
    <path d="M29.0112 21.329C31.7623 18.5634 31.759 14.0931 28.9999 11.3323C26.2359 8.56827 21.7542 8.56827 18.9902 11.3323C16.2262 14.0963 16.2262 18.5763 18.9886 21.3403L21.7267 24.0785L21.7251 24.0801L24.0039 26.3589L24.0056 26.3573L26.2844 24.0785L29.0225 21.3403L29.0112 21.329ZM26.7858 19.123C26.7825 19.1262 26.7777 19.1294 26.7744 19.1343L26.7777 19.1375L24.3565 21.5587L22.351 23.5642V20.2632L21.2512 19.1634C21.2367 19.1489 21.2205 19.1359 21.2043 19.1214C19.663 17.58 19.663 15.0797 21.2043 13.5383C22.7457 11.997 25.246 11.997 26.7874 13.5383C28.3271 15.0813 28.3271 17.58 26.7858 19.123Z" fill="white" />
</svg>
    