<svg width="83" height="21" viewBox="0 0 83 21" fill="none" xmlns="http://www.w3.org/2000/svg">
    <path fill-rule="evenodd" clip-rule="evenodd" d="M31.978 4.78856C33.881 4.78856 35.637 5.82088 35.3967 8.39368C35.1113 11.4441 33.4675 13.1432 30.8816 13.1505H28.6262C28.3015 13.1505 28.1442 13.4155 28.0598 13.9586L27.6244 16.7353C27.5589 17.1546 27.3434 17.3614 27.026 17.3614H24.925C24.5901 17.3614 24.4736 17.1473 24.5478 16.6683L26.2849 5.53695C26.3708 4.98949 26.579 4.78564 26.9503 4.78564H31.978V4.78856ZM28.5548 10.7466H30.2657C31.3359 10.7059 32.0464 9.96474 32.1177 8.6281C32.1614 7.80253 31.6038 7.21139 30.717 7.21575L29.1067 7.22304L28.5548 10.7466ZM41.1073 16.5096C41.2994 16.3349 41.4946 16.2446 41.4669 16.4601L41.3985 16.9755C41.3635 17.2449 41.4698 17.3876 41.7202 17.3876H43.5869C43.9014 17.3876 44.0543 17.2609 44.1314 16.7746L45.2817 9.55559C45.3399 9.19304 45.2511 9.01541 44.9759 9.01541H42.9244C42.7395 9.01541 42.6492 9.11878 42.6011 9.40271L42.5254 9.8468C42.4861 10.0783 42.3798 10.1191 42.2808 9.88611C41.9328 9.062 41.0446 8.69217 39.7983 8.71692C36.9197 8.77662 34.9788 10.9621 34.7706 13.7635C34.6105 15.9301 36.1626 17.6322 38.2098 17.6322C39.6949 17.6307 40.3603 17.1881 41.1073 16.5096ZM39.5464 15.4001C38.3073 15.4001 37.4439 14.4114 37.623 13.2C37.8035 11.9886 38.9611 11 40.2001 11C41.4392 11 42.3027 11.9886 42.1236 13.2C41.943 14.4129 40.7855 15.4001 39.5464 15.4001ZM48.9378 8.99211H47.0522C46.662 8.99211 46.5033 9.27749 46.6271 9.6415L48.9771 16.5227L46.662 19.7958C46.4683 20.0696 46.6183 20.3186 46.8906 20.3186H49.0179C49.3353 20.3186 49.4896 20.237 49.6498 20.0084L56.8775 9.6415C57.1003 9.32263 56.9954 8.98774 56.63 8.98774L54.6177 8.98628C54.2727 8.98628 54.1343 9.12315 53.9363 9.40999L50.9223 13.7839L49.5813 9.40271C49.4969 9.13189 49.3003 8.99211 48.9378 8.99211Z" fill="white" />
    <path fill-rule="evenodd" clip-rule="evenodd" d="M64.3979 4.78856C66.3009 4.78856 68.0569 5.82088 67.8166 8.39368C67.5312 11.4441 65.8874 13.1432 63.3015 13.1505H61.0461C60.7214 13.1505 60.5642 13.4155 60.4797 13.9586L60.0444 16.7353C59.9788 17.1546 59.7633 17.3614 59.4459 17.3614H57.3449C57.01 17.3614 56.8935 17.1473 56.9678 16.6683L58.7048 5.53695C58.7907 4.98949 58.9989 4.78564 59.3702 4.78564H64.3979V4.78856ZM60.9762 10.7466H62.687C63.7572 10.7059 64.4678 9.96474 64.5406 8.6281C64.5843 7.80253 64.0266 7.21139 63.1399 7.21575L61.528 7.22304L60.9762 10.7466ZM73.5286 16.5096C73.7208 16.3349 73.9159 16.2446 73.8883 16.4601L73.8198 16.9755C73.7849 17.2449 73.8912 17.3876 74.1416 17.3876H76.0082C76.3227 17.3876 76.4756 17.2609 76.5528 16.7746L77.7031 9.55559C77.7613 9.19304 77.6725 9.01541 77.3973 9.01541H75.3458C75.1608 9.01541 75.0706 9.11878 75.0225 9.40271L74.9468 9.8468C74.9075 10.0783 74.8012 10.1191 74.7022 9.88611C74.3542 9.062 73.466 8.69217 72.2197 8.71692C69.3411 8.77662 67.4002 10.9621 67.192 13.7635C67.0318 15.9301 68.584 17.6322 70.6311 17.6322C72.1163 17.6307 72.7802 17.1881 73.5286 16.5096ZM71.9663 15.4001C70.7272 15.4001 69.8638 14.4114 70.0429 13.2C70.2234 11.9886 71.381 11 72.6201 11C73.8592 11 74.7226 11.9886 74.5435 13.2C74.3644 14.4129 73.2054 15.4001 71.9663 15.4001ZM80.5758 17.4007H78.4209C78.2491 17.4007 78.1311 17.2667 78.1573 17.1022L80.0516 5.11034C80.0778 4.94581 80.2395 4.81185 80.4098 4.81185H82.5647C82.7366 4.81185 82.8545 4.94581 82.8283 5.11034L80.934 17.1022C80.9092 17.2667 80.7476 17.4007 80.5758 17.4007Z" fill="white" />
    <path d="M15.442 5.47021C14.8654 9.29811 12.3931 11.4254 9.14617 11.4254H9.10977H6.36079C5.91379 11.4254 5.60802 11.7064 5.46242 12.4533L4.87418 16.1749L4.66015 17.5334C4.65869 17.5407 4.65724 17.548 4.65578 17.5552L4.34419 19.5267C4.25683 20.0785 4.37477 20.3333 4.7082 20.3333H8.24489C8.46329 20.313 8.6089 20.1513 8.65112 19.8747L9.2976 15.6114C9.40826 14.8776 9.68344 14.6068 10.0926 14.6068H11.5981C14.5801 14.6068 16.8296 12.5509 17.1194 8.83073C17.2431 7.28297 16.7452 6.07592 15.442 5.47021Z" fill="white" />
    <path d="M5.43877 12.5901C5.44605 12.542 5.45479 12.4969 5.46352 12.4532L5.52031 12.0892V12.0907L6.50604 5.84869C6.58175 5.36965 6.82054 5.10902 7.27773 5.05224C7.34325 5.0435 7.41314 5.04059 7.4874 5.04059H13.1281C13.2358 5.04059 13.3392 5.0435 13.4411 5.04641C13.4731 5.04787 13.5052 5.04933 13.5357 5.05078C13.6056 5.05369 13.6755 5.05806 13.744 5.06389C13.7789 5.0668 13.8124 5.06971 13.8459 5.07262C13.9129 5.07845 13.9769 5.08573 14.041 5.09446C14.0701 5.09883 14.1007 5.10174 14.1298 5.10611C14.2113 5.11776 14.29 5.12941 14.3671 5.14397C14.3773 5.14542 14.3875 5.14688 14.3977 5.14834C14.4865 5.16435 14.5739 5.18328 14.6583 5.20367C14.6744 5.20803 14.6889 5.2124 14.7049 5.21531C14.7734 5.23279 14.8403 5.25026 14.9044 5.26919C14.9233 5.27501 14.9423 5.28083 14.9612 5.28666C15.0253 5.30704 15.0879 5.32743 15.149 5.35072C15.1621 5.35509 15.1767 5.36092 15.1898 5.36528C15.2742 5.39732 15.3572 5.43081 15.4373 5.46866C15.4752 5.21823 15.5043 4.96197 15.5261 4.69697C15.6281 3.42586 15.1854 2.24065 14.3424 1.49807C13.08 0.385669 11.1944 0.333252 9.60447 0.333252H3.9609C3.27074 0.333252 2.92275 0.636106 2.82229 1.27093L0.31792 17.1314C0.217454 17.7706 0.35432 18.0662 0.740168 18.0662H4.21862C4.46614 18.0444 4.60447 17.8624 4.65688 17.5566L4.87529 16.1763L5.43877 12.5901Z" fill="white" />
    <path d="M13.8491 5.07422C13.9161 5.08004 13.9802 5.08732 14.0442 5.09606C13.9816 5.08732 13.9161 5.08004 13.8491 5.07422Z" fill="white" />
    <path d="M14.4023 5.14844C14.4912 5.16445 14.5785 5.18338 14.663 5.20377C14.5785 5.18484 14.4912 5.16591 14.4023 5.14844Z" fill="white" />
    <path d="M14.7095 5.2168C14.7779 5.23427 14.8449 5.25174 14.9089 5.27067C14.8449 5.25174 14.7779 5.23281 14.7095 5.2168Z" fill="white" />
    <path d="M14.1343 5.10596C14.2158 5.11761 14.2944 5.12925 14.3716 5.14381C14.2944 5.12925 14.2158 5.11761 14.1343 5.10596Z" fill="white" />
    <path d="M13.1299 5.04199C13.2376 5.04199 13.341 5.0449 13.4429 5.04782C13.341 5.04345 13.2376 5.04199 13.1299 5.04199Z" fill="white" />
    <path d="M13.5391 5.05225C13.609 5.05516 13.6788 5.05953 13.7473 5.06535C13.6788 5.05953 13.609 5.05661 13.5391 5.05225Z" fill="white" />
    <path d="M5.52065 12.0907L5.46387 12.4547C5.60947 11.7078 5.91378 11.4268 6.36224 11.4268H6.32584C5.95892 11.4253 5.68518 11.6131 5.52065 12.0907Z" fill="white" />
    <path d="M14.9673 5.28809C15.0314 5.30847 15.094 5.32885 15.1551 5.35215C15.094 5.33031 15.0314 5.30847 14.9673 5.28809Z" fill="white" />
    <path d="M4.87563 16.1763L4.65723 17.5566C4.65868 17.5493 4.66014 17.542 4.66159 17.5347L4.87563 16.1763Z" fill="white" />
    <path d="M15.4101 5.45552C14.8437 9.29361 12.3612 11.4252 9.11133 11.4252H9.14773C12.3947 11.4252 14.8656 9.29652 15.4436 5.47008C15.365 5.43368 15.282 5.39873 15.1961 5.3667C15.2689 5.39582 15.3402 5.42494 15.4101 5.45552Z" fill="white" />
    <path d="M14.9102 5.27051C14.9291 5.27633 14.948 5.28216 14.9669 5.28798C14.948 5.28216 14.9291 5.27633 14.9102 5.27051Z" fill="white" />
    <path d="M13.4443 5.04785C13.4764 5.04931 13.5084 5.05076 13.539 5.05222C13.5069 5.05076 13.4764 5.04931 13.4443 5.04785Z" fill="white" />
    <path d="M14.6631 5.20361C14.6791 5.20798 14.6937 5.21235 14.7097 5.21526C14.6937 5.21235 14.6791 5.20798 14.6631 5.20361Z" fill="white" />
    <path d="M15.1533 5.35205C15.1664 5.35642 15.181 5.36224 15.1941 5.36661C15.181 5.36224 15.1679 5.35642 15.1533 5.35205Z" fill="white" />
    <path d="M7.2794 5.05371C6.82221 5.1105 6.58342 5.37113 6.5077 5.85016L5.52197 12.0921V12.0907L6.5077 5.85161C6.58196 5.37112 6.82075 5.11195 7.2794 5.05371Z" fill="white" />
    <path d="M14.3721 5.14404C14.3823 5.1455 14.3925 5.14696 14.4026 5.14841C14.3925 5.14696 14.3823 5.1455 14.3721 5.14404Z" fill="white" />
    <path d="M14.0459 5.09595C14.075 5.10032 14.1056 5.10323 14.1347 5.1076C14.1056 5.10177 14.075 5.09886 14.0459 5.09595Z" fill="white" />
    <path d="M13.7471 5.06543C13.782 5.06834 13.8155 5.07125 13.849 5.07417C13.8155 5.07125 13.782 5.06834 13.7471 5.06543Z" fill="white" />
</svg>
     