<svg width="104" height="29" viewBox="0 0 104 29" fill="none" xmlns="http://www.w3.org/2000/svg">
    <path d="M11.8349 0.333252H16.8356V17.1365C16.8356 18.6809 16.4945 20.0455 15.8096 21.2302C15.1273 22.415 14.162 23.3274 12.9165 23.9726C11.6709 24.6179 10.2667 24.9405 8.69846 24.9405C6.13063 24.9405 4.13138 24.2873 2.6954 22.9809C1.26207 21.6745 0.54541 19.8286 0.54541 17.438H5.58057C5.58057 18.628 5.8318 19.506 6.33162 20.0719C6.83143 20.6379 7.6195 20.9235 8.69846 20.9235C9.65313 20.9235 10.4148 20.5956 10.9833 19.9397C11.5493 19.2839 11.8349 18.3504 11.8349 17.1392V0.333252Z" fill="white" />
    <path d="M53.6844 24.6047H48.6836V0.333252H53.6844V24.6047Z" fill="white" />
    <path d="M79.7463 24.6047H74.7455L65.011 8.6344V24.6047H60.0103V0.333252H65.011L74.764 16.3379V0.333252H79.7489V24.6047H79.7463Z" fill="white" />
    <path d="M91.4855 20.5876H103.452V24.6047H85.2339V21.6692L97.2374 4.38201H85.2498V0.333252H103.455V3.19991L91.4855 20.5876Z" fill="white" />
    <path d="M40.9458 20.1087C45.4441 15.5865 45.4388 8.2771 40.9273 3.7629C36.4078 -0.75658 29.0798 -0.75658 24.5604 3.7629C20.0409 8.28239 20.0409 15.6077 24.5577 20.1272L29.0349 24.6044L29.0322 24.607L32.7584 28.3331L32.761 28.3305L36.4871 24.6044L40.9643 20.1272L40.9458 20.1087ZM37.3069 16.5016C37.3016 16.5068 37.2937 16.5121 37.2884 16.5201L37.2937 16.5254L33.3349 20.4842L30.0557 23.7634V18.3659L28.2574 16.5677C28.2336 16.5439 28.2071 16.5227 28.1807 16.4989C25.6605 13.9787 25.6605 9.89025 28.1807 7.37003C30.7009 4.8498 34.7894 4.8498 37.3096 7.37003C39.8272 9.8929 39.8272 13.9787 37.3069 16.5016Z" fill="white" />
</svg>
    