<svg xmlns="http://www.w3.org/2000/svg" viewBox="0 0 400 400" width="400" height="400" preserveAspectRatio="xMidYMid meet" style="width: 100%; height: 100%; transform: translate3d(0px, 0px, 0px); content-visibility: visible;"><defs><clipPath id="__lottie_element_154"><rect width="400" height="400" x="0" y="0"></rect></clipPath></defs><g clip-path="url(#__lottie_element_154)"><g transform="matrix(1.9166699647903442,0,0,1.9166699647903442,-370.20953369140625,-606.1680297851562)" opacity="1" style="display: block;"><g opacity="1" transform="matrix(1,0,0,1,0,0)"><path stroke-linecap="butt" stroke-linejoin="miter" fill-opacity="0" stroke-miterlimit="22.93" stroke="rgb(1,111,159)" stroke-opacity="1" stroke-width="5.102" d=" M377.2980041503906,496.375 C377.2980041503906,496.375 221.29800415039062,496.375 221.29800415039062,496.375"></path></g></g><g transform="matrix(1.9166699647903442,0,0,1.9166699647903442,-370.21087646484375,-606.91845703125)" opacity="1" style="display: block;"><g opacity="1" transform="matrix(1,0,0,1,344.822998046875,474.0249938964844)"><path stroke-linecap="butt" stroke-linejoin="miter" fill-opacity="0" stroke-miterlimit="22.93" stroke="rgb(1,111,159)" stroke-opacity="1" stroke-width="5.102" d=" M-25.426000595092773,22.350000381469727 C-25.426000595092773,22.350000381469727 25.426000595092773,22.350000381469727 25.426000595092773,22.350000381469727 C25.426000595092773,22.350000381469727 25.426000595092773,-22.350000381469727 25.426000595092773,-22.350000381469727 C25.426000595092773,-22.350000381469727 -25.426000595092773,-22.350000381469727 -25.426000595092773,-22.350000381469727 C-25.426000595092773,-22.350000381469727 -25.426000595092773,22.350000381469727 -25.426000595092773,22.350000381469727z"></path></g></g><g transform="matrix(1.9166699647903442,0,0,1.9166699647903442,-370.21087646484375,-606.9186401367188)" opacity="1" style="display: block;"><g opacity="1" transform="matrix(1,0,0,1,344.822998046875,443.95001220703125)"><path stroke-linecap="butt" stroke-linejoin="miter" fill-opacity="0" stroke-miterlimit="22.93" stroke="rgb(1,111,159)" stroke-opacity="1" stroke-width="5.102" d=" M-20.176000595092773,7.724999904632568 C-20.176000595092773,7.724999904632568 20.176000595092773,7.724999904632568 20.176000595092773,7.724999904632568 C20.176000595092773,7.724999904632568 20.176000595092773,-7.724999904632568 20.176000595092773,-7.724999904632568 C20.176000595092773,-7.724999904632568 -20.176000595092773,-7.724999904632568 -20.176000595092773,-7.724999904632568 C-20.176000595092773,-7.724999904632568 -20.176000595092773,7.724999904632568 -20.176000595092773,7.724999904632568z"></path></g></g><g transform="matrix(1.9166699647903442,0,0,1.9166699647903442,-370.21038818359375,-606.91845703125)" opacity="1" style="display: block;"><g opacity="1" transform="matrix(1,0,0,1,249.4969940185547,474.0249938964844)"><path stroke-linecap="butt" stroke-linejoin="miter" fill-opacity="0" stroke-miterlimit="22.93" stroke="rgb(1,111,159)" stroke-opacity="1" stroke-width="5.102" d=" M-20.100000381469727,22.350000381469727 C-20.100000381469727,22.350000381469727 20.100000381469727,22.350000381469727 20.100000381469727,22.350000381469727 C20.100000381469727,22.350000381469727 20.100000381469727,-22.350000381469727 20.100000381469727,-22.350000381469727 C20.100000381469727,-22.350000381469727 -20.100000381469727,-22.350000381469727 -20.100000381469727,-22.350000381469727 C-20.100000381469727,-22.350000381469727 -20.100000381469727,22.350000381469727 -20.100000381469727,22.350000381469727z"></path></g></g><g transform="matrix(1.9166699647903442,0,0,1.9166699647903442,-370.2081298828125,-606.9186401367188)" opacity="1" style="display: block;"><g opacity="1" transform="matrix(1,0,0,1,248.9720001220703,441.25)"><path stroke-linecap="butt" stroke-linejoin="miter" fill-opacity="0" stroke-miterlimit="22.93" stroke="rgb(1,111,159)" stroke-opacity="1" stroke-width="5.102" d=" M-15.149999618530273,10.425000190734863 C-15.149999618530273,10.425000190734863 15.149999618530273,10.425000190734863 15.149999618530273,10.425000190734863 C15.149999618530273,10.425000190734863 15.149999618530273,-0.5040000081062317 15.149999618530273,-0.5040000081062317 C15.149999618530273,-5.960000038146973 10.6850004196167,-10.425000190734863 5.228000164031982,-10.425000190734863 C5.228000164031982,-10.425000190734863 -15.149999618530273,-10.425000190734863 -15.149999618530273,-10.425000190734863 C-15.149999618530273,-10.425000190734863 -15.149999618530273,10.425000190734863 -15.149999618530273,10.425000190734863z"></path></g></g><g transform="matrix(1.9166699647903442,0,0,1.9166699647903442,-370.20941162109375,-606.9190673828125)" opacity="1" style="display: block;"><g opacity="1" transform="matrix(1,0,0,1,0,0)"><path stroke-linecap="butt" stroke-linejoin="miter" fill-opacity="0" stroke-miterlimit="22.93" stroke="rgb(1,111,159)" stroke-opacity="1" stroke-width="5.102" d=" M271.5450134277344,441.10101318359375 C271.5450134277344,441.10101318359375 227.447998046875,441.10101318359375 227.447998046875,441.10101318359375"></path></g></g><g transform="matrix(1.9166699647903442,0,0,1.9166699647903442,-370.20819091796875,-606.917724609375)" opacity="1" style="display: block;"><g opacity="1" transform="matrix(1,0,0,1,0,0)"><path stroke-linecap="butt" stroke-linejoin="miter" fill-opacity="0" stroke-miterlimit="22.93" stroke="rgb(1,111,159)" stroke-opacity="1" stroke-width="5.102" d=" M256.5450134277344,471.25 C256.5450134277344,471.25 229.39700317382812,471.25 229.39700317382812,471.25"></path></g></g><g transform="matrix(1.9166699647903442,0,0,1.9166699647903442,-370.2088623046875,-606.917724609375)" opacity="1" style="display: block;"><g opacity="1" transform="matrix(1,0,0,1,0,0)"><path stroke-linecap="butt" stroke-linejoin="miter" fill-opacity="0" stroke-miterlimit="22.93" stroke="rgb(1,111,159)" stroke-opacity="1" stroke-width="5.102" d=" M268.32000732421875,471.25 C268.32000732421875,471.25 261.7200012207031,471.25 261.7200012207031,471.25"></path></g></g><g transform="matrix(-0.587418794631958,1.8244349956512451,-1.8244349956512451,-0.587418794631958,1357.4266357421875,-49.92901611328125)" opacity="1" style="display: block;"><g opacity="1" transform="matrix(1,0,0,1,353.10699462890625,468.8810119628906)"><path stroke-linecap="butt" stroke-linejoin="miter" fill-opacity="0" stroke-miterlimit="22.93" stroke="rgb(1,111,159)" stroke-opacity="1" stroke-width="5.102" d=" M3.5969998836517334,-2.0769999027252197 C3.5969998836517334,-2.0769999027252197 -3.5969998836517334,2.0769999027252197 -3.5969998836517334,2.0769999027252197"></path></g><g opacity="1" transform="matrix(1,0,0,1,353.10699462890625,478.4469909667969)"><path stroke-linecap="butt" stroke-linejoin="miter" fill-opacity="0" stroke-miterlimit="22.93" stroke="rgb(1,111,159)" stroke-opacity="1" stroke-width="5.102" d=" M3.5969998836517334,2.0769999027252197 C3.5969998836517334,2.0769999027252197 -3.5969998836517334,-2.0759999752044678 -3.5969998836517334,-2.0759999752044678"></path></g><g opacity="1" transform="matrix(1,0,0,1,0,0)"><path stroke-linecap="butt" stroke-linejoin="miter" fill-opacity="0" stroke-miterlimit="22.93" stroke="rgb(1,111,159)" stroke-opacity="1" stroke-width="5.102" d=" M344.822998046875,487.38299560546875 C344.822998046875,487.38299560546875 344.822998046875,479.07598876953125 344.822998046875,479.07598876953125"></path></g><g opacity="1" transform="matrix(1,0,0,1,336.5379943847656,478.4469909667969)"><path stroke-linecap="butt" stroke-linejoin="miter" fill-opacity="0" stroke-miterlimit="22.93" stroke="rgb(1,111,159)" stroke-opacity="1" stroke-width="5.102" d=" M-3.5969998836517334,2.0769999027252197 C-3.5969998836517334,2.0769999027252197 3.5969998836517334,-2.0759999752044678 3.5969998836517334,-2.0759999752044678"></path></g><g opacity="1" transform="matrix(1,0,0,1,336.5379943847656,468.8810119628906)"><path stroke-linecap="butt" stroke-linejoin="miter" fill-opacity="0" stroke-miterlimit="22.93" stroke="rgb(1,111,159)" stroke-opacity="1" stroke-width="5.102" d=" M-3.5969998836517334,-2.0769999027252197 C-3.5969998836517334,-2.0769999027252197 3.5969998836517334,2.0769999027252197 3.5969998836517334,2.0769999027252197"></path></g><g opacity="1" transform="matrix(1,0,0,1,0,0)"><path stroke-linecap="butt" stroke-linejoin="miter" fill-opacity="0" stroke-miterlimit="22.93" stroke="rgb(1,111,159)" stroke-opacity="1" stroke-width="5.102" d=" M344.822998046875,459.9440002441406 C344.822998046875,459.9440002441406 344.822998046875,468.2510070800781 344.822998046875,468.2510070800781"></path></g><g opacity="1" transform="matrix(1,0,0,1,344.822998046875,473.66400146484375)"><path stroke-linecap="butt" stroke-linejoin="miter" fill-opacity="0" stroke-miterlimit="22.93" stroke="rgb(1,111,159)" stroke-opacity="1" stroke-width="5.102" d=" M0.0010000000474974513,13.718999862670898 C7.557000160217285,13.718999862670898 13.720000267028809,7.556000232696533 13.720000267028809,0 C13.720000267028809,-7.556000232696533 7.557000160217285,-13.718999862670898 0.0010000000474974513,-13.718999862670898 C-7.556000232696533,-13.718999862670898 -13.718999862670898,-7.556000232696533 -13.718999862670898,0 C-13.718999862670898,7.556000232696533 -7.556000232696533,13.718999862670898 0.0010000000474974513,13.718999862670898z"></path></g></g><g transform="matrix(1.9166699647903442,0,0,1.9166699647903442,-358.7095947265625,-514.9177856445312)" opacity="1" style="display: block;"><g opacity="1" transform="matrix(1,0,0,1,240.64999389648438,363.2449951171875)"><path stroke-linecap="butt" stroke-linejoin="miter" fill-opacity="0" stroke-miterlimit="22.93" stroke="rgb(43,181,184)" stroke-opacity="1" stroke-width="3" d=" M16.93199920654297,14.258999824523926 C16.93199920654297,14.258999824523926 9.111000061035156,14.21399974822998 9.111000061035156,14.21399974822998 C9.111000061035156,14.21399974822998 -16.93199920654297,14.258999824523926 -16.93199920654297,14.258999824523926 C-20.239999771118164,14.258999824523926 -22.947999954223633,11.552000045776367 -22.947999954223633,8.241999626159668 C-22.947999954223633,8.241999626159668 -22.947999954223633,-8.244000434875488 -22.947999954223633,-8.244000434875488 C-22.947999954223633,-11.553000450134277 -20.239999771118164,-14.258999824523926 -16.93199920654297,-14.258999824523926 C-16.93199920654297,-14.258999824523926 16.93199920654297,-14.258999824523926 16.93199920654297,-14.258999824523926 C17.139999389648438,-14.258999824523926 17.34600067138672,-14.248000144958496 17.548999786376953,-14.22700023651123"></path></g></g><g transform="matrix(1.9166699647903442,0,0,1.9166699647903442,-358.7095947265625,-514.9177856445312)" opacity="1" style="display: block;"><g opacity="1" transform="matrix(1,0,0,1,240.64999389648438,363.2449951171875)"><path stroke-linecap="butt" stroke-linejoin="miter" fill-opacity="0" stroke-miterlimit="22.93" stroke="rgb(1,111,159)" stroke-opacity="1" stroke-width="5.102" d=" M16.93199920654297,14.258999824523926 C16.93199920654297,14.258999824523926 9.111000061035156,14.21399974822998 9.111000061035156,14.21399974822998 C9.111000061035156,14.21399974822998 -16.93199920654297,14.258999824523926 -16.93199920654297,14.258999824523926 C-20.239999771118164,14.258999824523926 -22.947999954223633,11.552000045776367 -22.947999954223633,8.241999626159668 C-22.947999954223633,8.241999626159668 -22.947999954223633,-8.244000434875488 -22.947999954223633,-8.244000434875488 C-22.947999954223633,-9.508000373840332 -22.55299949645996,-10.682999610900879 -21.881000518798828,-11.654000282287598"></path></g></g><g transform="matrix(1.9166700839996338,0,0,1.9166700839996338,-358.70965576171875,-734.9188842773438)" opacity="1" style="display: none;"><g opacity="1" transform="matrix(1,0,0,1,240.8040008544922,363.2439880371094)"><path fill="rgb(242,145,0)" fill-opacity="1" d=" M-3.5390000343322754,-6.729000091552734 C-4.771999835968018,-7.5320000648498535 -5.78000020980835,-6.984000205993652 -5.78000020980835,-5.514999866485596 C-5.78000020980835,-5.514999866485596 -5.78000020980835,-2.6740000247955322 -5.78000020980835,-2.6740000247955322 C-5.78000020980835,-2.6740000247955322 -5.78000020980835,2.6730000972747803 -5.78000020980835,2.6730000972747803 C-5.78000020980835,2.6730000972747803 -5.78000020980835,5.514999866485596 -5.78000020980835,5.514999866485596 C-5.78000020980835,6.985000133514404 -4.771999835968018,7.5320000648498535 -3.5390000343322754,6.729000091552734 C-3.5390000343322754,6.729000091552734 4.547999858856201,1.4589999914169312 4.547999858856201,1.4589999914169312 C5.78000020980835,0.656000018119812 5.78000020980835,-0.6570000052452087 4.547999858856201,-1.4600000381469727 C4.547999858856201,-1.4600000381469727 -3.5390000343322754,-6.729000091552734 -3.5390000343322754,-6.729000091552734z"></path></g></g><g transform="matrix(1.91024911403656,0.15675437450408936,-0.15675437450408936,1.91024911403656,-288.154052734375,-668.5419311523438)" opacity="1" style="display: block;"><g opacity="1" transform="matrix(1,0,0,1,263.6679992675781,402.18701171875)"><path stroke-linecap="butt" stroke-linejoin="miter" fill-opacity="0" stroke-miterlimit="22.93" stroke="rgb(1,111,159)" stroke-opacity="1" stroke-width="5.102" d=" M8.24899959564209,-7.138999938964844 C8.24899959564209,-7.138999938964844 -8.24899959564209,7.138999938964844 -8.24899959564209,7.138999938964844"></path></g></g><g transform="matrix(1.91024911403656,0.15675437450408936,-0.15675437450408936,1.91024911403656,-288.154052734375,-668.5419311523438)" opacity="1" style="display: block;"><g opacity="1" transform="matrix(1,0,0,1,290.2349853515625,381.4580078125)"><path stroke-linecap="butt" stroke-linejoin="miter" fill-opacity="0" stroke-miterlimit="22.93" stroke="rgb(1,111,159)" stroke-opacity="1" stroke-width="5.102" d=" M9.062999725341797,-20.908000946044922 C9.062999725341797,-20.908000946044922 -18.06399917602539,1.902999997138977 -18.06399917602539,1.902999997138977 C-22.125999450683594,5.318999767303467 -22.518999099731445,11.484000205993652 -19.045000076293945,15.496999740600586 C-19.045000076293945,15.496999740600586 -18.216999053955078,16.45400047302246 -18.216999053955078,16.45400047302246 C-14.743000030517578,20.466999053955078 -8.63599967956543,20.908000946044922 -4.622000217437744,17.434999465942383 C-4.622000217437744,17.434999465942383 22.518999099731445,-6.053999900817871 22.518999099731445,-6.053999900817871"></path></g></g><g transform="matrix(1.8249461650848389,0.5858286023139954,-0.5858286023139954,1.8249461650848389,-106.64718627929688,-772.6109619140625)" opacity="1" style="display: block;"><path fill="rgb(248,248,248)" fill-opacity="1" d=" M354.81,388.55 C354.81,388.55 324.21,353.19 324.21,353.19 C324.21,353.19 305.89,369.05 305.89,369.05 C305.89,369.05 336.49,404.4 336.49,404.4 C336.49,404.4 354.81,388.55 354.81,388.55z"></path><g opacity="1" transform="matrix(1,0,0,1,330.3479919433594,378.7959899902344)"><path stroke-linecap="butt" stroke-linejoin="miter" fill-opacity="0" stroke-miterlimit="22.93" stroke="rgb(1,111,159)" stroke-opacity="1" stroke-width="5.102" d=" M24.46299934387207,9.75 C24.46299934387207,9.75 -6.13700008392334,-25.607999801635742 -6.13700008392334,-25.607999801635742 C-6.13700008392334,-25.607999801635742 -24.461999893188477,-9.75 -24.461999893188477,-9.75 C-24.461999893188477,-9.75 6.138999938964844,25.607999801635742 6.138999938964844,25.607999801635742 C6.138999938964844,25.607999801635742 24.46299934387207,9.75 24.46299934387207,9.75z"></path></g></g><g transform="matrix(1.9166699647903442,0,0,1.9166699647903442,-370.208984375,-606.9175415039062)" opacity="1" style="display: block;"><g opacity="1" transform="matrix(1,0,0,1,344.8219909667969,416.3500061035156)"><path stroke-linecap="butt" stroke-linejoin="miter" fill-opacity="0" stroke-miterlimit="22.93" stroke="rgb(1,111,159)" stroke-opacity="1" stroke-width="5.102" d=" M-12.824000358581543,19.875 C-12.824000358581543,19.875 12.824000358581543,19.875 12.824000358581543,19.875 C12.824000358581543,19.875 12.824000358581543,-19.875 12.824000358581543,-19.875 C12.824000358581543,-19.875 -12.824000358581543,-19.875 -12.824000358581543,-19.875 C-12.824000358581543,-19.875 -12.824000358581543,19.875 -12.824000358581543,19.875z"></path></g></g><g transform="matrix(1.8249461650848389,0.5858286023139954,-0.5858286023139954,1.8249461650848389,-106.64718627929688,-772.6109619140625)" opacity="1" style="display: block;"><g opacity="1" transform="matrix(1,0,0,1,344.822998046875,395.9079895019531)"><path fill="rgb(248,248,248)" fill-opacity="1" d=" M0.0010000000474974513,14.925000190734863 C8.220999717712402,14.925000190734863 14.925999641418457,8.220000267028809 14.925999641418457,0 C14.925999641418457,-8.220999717712402 8.220999717712402,-14.925000190734863 0.0010000000474974513,-14.925000190734863 C-8.220000267028809,-14.925000190734863 -14.925999641418457,-8.220999717712402 -14.925999641418457,0 C-14.925999641418457,8.220000267028809 -8.220000267028809,14.925000190734863 0.0010000000474974513,14.925000190734863z"></path><path stroke-linecap="butt" stroke-linejoin="miter" fill-opacity="0" stroke-miterlimit="22.93" stroke="rgb(1,111,159)" stroke-opacity="1" stroke-width="5.102" d=" M0.0010000000474974513,14.925000190734863 C8.220999717712402,14.925000190734863 14.925999641418457,8.220000267028809 14.925999641418457,0 C14.925999641418457,-8.220999717712402 8.220999717712402,-14.925000190734863 0.0010000000474974513,-14.925000190734863 C-8.220000267028809,-14.925000190734863 -14.925999641418457,-8.220999717712402 -14.925999641418457,0 C-14.925999641418457,8.220000267028809 -8.220000267028809,14.925000190734863 0.0010000000474974513,14.925000190734863z"></path></g></g><g transform="matrix(1.8249461650848389,0.5858286023139954,-0.5858286023139954,1.8249461650848389,-106.64718627929688,-772.6109619140625)" opacity="1" style="display: block;"><g opacity="1" transform="matrix(1,0,0,1,353.4429931640625,396.4750061035156)"><path fill="rgb(41,173,182)" fill-opacity="1" d=" M0,6 C3.305000066757202,6 6,3.305000066757202 6,0 C6,-3.303999900817871 3.305000066757202,-6 0,-6 C-3.305000066757202,-6 -6,-3.303999900817871 -6,0 C-6,3.305000066757202 -3.305000066757202,6 0,6z"></path></g></g><g transform="matrix(1.91024911403656,0.15675437450408936,-0.15675437450408936,1.91024911403656,-288.154052734375,-668.5419311523438)" opacity="1" style="display: block;"><g opacity="1" transform="matrix(1,0,0,1,314.2229919433594,360.54998779296875)"><path fill="rgb(255,255,255)" fill-opacity="1" d=" M0,14.925000190734863 C8.220999717712402,14.925000190734863 14.925000190734863,8.220999717712402 14.925000190734863,0 C14.925000190734863,-8.220000267028809 8.220999717712402,-14.925000190734863 0,-14.925000190734863 C-8.220999717712402,-14.925000190734863 -14.925000190734863,-8.220000267028809 -14.925000190734863,0 C-14.925000190734863,8.220999717712402 -8.220999717712402,14.925000190734863 0,14.925000190734863z"></path><path stroke-linecap="butt" stroke-linejoin="miter" fill-opacity="0" stroke-miterlimit="22.93" stroke="rgb(1,111,159)" stroke-opacity="1" stroke-width="5.102" d=" M0,14.925000190734863 C8.220999717712402,14.925000190734863 14.925000190734863,8.220999717712402 14.925000190734863,0 C14.925000190734863,-8.220000267028809 8.220999717712402,-14.925000190734863 0,-14.925000190734863 C-8.220999717712402,-14.925000190734863 -14.925000190734863,-8.220000267028809 -14.925000190734863,0 C-14.925000190734863,8.220999717712402 -8.220999717712402,14.925000190734863 0,14.925000190734863z"></path></g></g><g transform="matrix(1.91024911403656,0.15675437450408936,-0.15675437450408936,1.91024911403656,-288.154052734375,-668.5419311523438)" opacity="1" style="display: block;"><g opacity="1" transform="matrix(1,0,0,1,315.27301025390625,359.875)"><path fill="rgb(41,173,182)" fill-opacity="1" d=" M0.0010000000474974513,12.149999618530273 C6.691999912261963,12.149999618530273 12.149999618530273,6.691999912261963 12.149999618530273,0 C12.149999618530273,-6.691999912261963 6.691999912261963,-12.149999618530273 0.0010000000474974513,-12.149999618530273 C-6.690999984741211,-12.149999618530273 -12.149999618530273,-6.691999912261963 -12.149999618530273,0 C-12.149999618530273,6.691999912261963 -6.690999984741211,12.149999618530273 0.0010000000474974513,12.149999618530273z"></path></g></g><g transform="matrix(1.9166699647903442,0,0,1.9166699647903442,-413.70574951171875,-466.7513122558594)" opacity="0.0015873053977294661" style="display: none;"><g opacity="1" transform="matrix(1,0,0,1,264.49200439453125,423.51300048828125)"><path fill="rgb(1,111,159)" fill-opacity="1" d=" M-2.625,2.625 C-2.625,2.625 2.625,2.625 2.625,2.625 C2.625,2.625 2.625,-2.625 2.625,-2.625 C2.625,-2.625 -2.625,-2.625 -2.625,-2.625 C-2.625,-2.625 -2.625,2.625 -2.625,2.625z"></path></g></g><g transform="matrix(1.9166699647903442,0,0,1.9166699647903442,-405.7087097167969,-443.7518615722656)" opacity="0.0015873053977294661" style="display: none;"><g opacity="1" transform="matrix(1,0,0,1,267.26800537109375,411.5880126953125)"><path fill="rgb(41,173,182)" fill-opacity="1" d=" M-2.625,2.625 C-2.625,2.625 2.625,2.625 2.625,2.625 C2.625,2.625 2.625,-2.625 2.625,-2.625 C2.625,-2.625 -2.625,-2.625 -2.625,-2.625 C-2.625,-2.625 -2.625,2.625 -2.625,2.625z"></path></g></g><g transform="matrix(1.9166699647903442,0,0,1.9166699647903442,-359.209228515625,-456.2500915527344)" opacity="0.0015873053977294661" style="display: none;"><g opacity="1" transform="matrix(1,0,0,1,274.8420104980469,418.56298828125)"><path fill="rgb(1,111,159)" fill-opacity="1" d=" M-2.625,2.625 C-2.625,2.625 2.625,2.625 2.625,2.625 C2.625,2.625 2.625,-2.625 2.625,-2.625 C2.625,-2.625 -2.625,-2.625 -2.625,-2.625 C-2.625,-2.625 -2.625,2.625 -2.625,2.625z"></path></g></g><g transform="matrix(1.9166699647903442,0,0,1.9166699647903442,-413.7001647949219,-466.8995666503906)" opacity="0.004381373797430115" style="display: none;"><g opacity="1" transform="matrix(1,0,0,1,264.49200439453125,423.51300048828125)"><path fill="rgb(1,111,159)" fill-opacity="1" d=" M-2.625,2.625 C-2.625,2.625 2.625,2.625 2.625,2.625 C2.625,2.625 2.625,-2.625 2.625,-2.625 C2.625,-2.625 -2.625,-2.625 -2.625,-2.625 C-2.625,-2.625 -2.625,2.625 -2.625,2.625z"></path></g></g><g transform="matrix(1.9166699647903442,0,0,1.9166699647903442,-335.7073974609375,-443.9038391113281)" opacity="0.004381373797430115" style="display: none;"><g opacity="1" transform="matrix(1,0,0,1,267.26800537109375,411.5880126953125)"><path fill="rgb(41,173,182)" fill-opacity="1" d=" M-2.625,2.625 C-2.625,2.625 2.625,2.625 2.625,2.625 C2.625,2.625 2.625,-2.625 2.625,-2.625 C2.625,-2.625 -2.625,-2.625 -2.625,-2.625 C-2.625,-2.625 -2.625,2.625 -2.625,2.625z"></path></g></g><g transform="matrix(1.9166699647903442,0,0,1.9166699647903442,-359.20880126953125,-456.3951721191406)" opacity="0.004381373797430115" style="display: none;"><g opacity="1" transform="matrix(1,0,0,1,274.8420104980469,418.56298828125)"><path fill="rgb(1,111,159)" fill-opacity="1" d=" M-2.625,2.625 C-2.625,2.625 2.625,2.625 2.625,2.625 C2.625,2.625 2.625,-2.625 2.625,-2.625 C2.625,-2.625 -2.625,-2.625 -2.625,-2.625 C-2.625,-2.625 -2.625,2.625 -2.625,2.625z"></path></g></g><g transform="matrix(1.9166699647903442,0,0,1.9166699647903442,-409.72686767578125,-432.0108337402344)" opacity="0.025423749540330363" style="display: none;"><g opacity="1" transform="matrix(1,0,0,1,248.74200439453125,403.7130126953125)"><path fill="rgb(41,173,182)" fill-opacity="1" d=" M-2.625,2.625 C-2.625,2.625 2.625,2.625 2.625,2.625 C2.625,2.625 2.625,-2.625 2.625,-2.625 C2.625,-2.625 -2.625,-2.625 -2.625,-2.625 C-2.625,-2.625 -2.625,2.625 -2.625,2.625z"></path></g></g><g transform="matrix(1.9166699647903442,0,0,1.9166699647903442,-380.97833251953125,-445.9518737792969)" opacity="0.025423749540330363" style="display: none;"><g opacity="1" transform="matrix(1,0,0,1,241.31700134277344,410.6130065917969)"><path fill="rgb(1,111,159)" fill-opacity="1" d=" M-2.625,2.625 C-2.625,2.625 2.625,2.625 2.625,2.625 C2.625,2.625 2.625,-2.625 2.625,-2.625 C2.625,-2.625 -2.625,-2.625 -2.625,-2.625 C-2.625,-2.625 -2.625,2.625 -2.625,2.625z"></path></g></g><g transform="matrix(1.9166699647903442,0,0,1.9166699647903442,-341.69085693359375,-463.2110595703125)" opacity="0.025423749540330363" style="display: none;"><g opacity="1" transform="matrix(1,0,0,1,246.7169952392578,418.4129943847656)"><path fill="rgb(242,145,0)" fill-opacity="1" d=" M-2.625,2.625 C-2.625,2.625 2.625,2.625 2.625,2.625 C2.625,2.625 2.625,-2.625 2.625,-2.625 C2.625,-2.625 -2.625,-2.625 -2.625,-2.625 C-2.625,-2.625 -2.625,2.625 -2.625,2.625z"></path></g></g></g></svg>