<svg xmlns="http://www.w3.org/2000/svg" viewBox="0 0 800 1200" width="800" height="1200" preserveAspectRatio="xMidYMid meet" style="width: 100%; height: 100%; transform: translate3d(0px, 0px, 0px); content-visibility: visible;"><defs><clipPath id="__lottie_element_121"><rect width="800" height="1200" x="0" y="0"></rect></clipPath></defs><g clip-path="url(#__lottie_element_121)"><g transform="matrix(0.9987842440605164,-0.04242418333888054,0.04242418333888054,0.9987842440605164,-14.385833740234375,178.59222412109375)" opacity="1" style="display: block;"><g opacity="1" transform="matrix(1,0,0,1,377.77398681640625,438.1409912109375)"><path fill="rgb(1,111,159)" fill-opacity="1" d=" M0.06499999761581421,437.87799072265625 C-0.531000018119812,437.8840026855469 -1.1180000305175781,437.7300109863281 -1.628999948501587,437.4209899902344 C-2.1410000324249268,437.11199951171875 -2.556999921798706,436.67401123046875 -2.8310000896453857,436.1400146484375 C-2.8310000896453857,436.1400146484375 -75.29299926757812,294.56298828125 -75.29299926757812,294.56298828125 C-164.9810028076172,275.92498779296875 -244.5709991455078,224.69400024414062 -298.6679992675781,150.7689971923828 C-352.7650146484375,76.84400177001953 -377.52398681640625,-14.515000343322754 -368.1570129394531,-105.63899993896484 C-358.78900146484375,-196.76199340820312 -315.96099853515625,-281.17401123046875 -247.95599365234375,-342.5469970703125 C-179.95199584960938,-403.91900634765625 -91.60299682617188,-437.8909912109375 0.0010000000474974513,-437.8909912109375 C91.6050033569336,-437.8909912109375 179.95399475097656,-403.91900634765625 247.95899963378906,-342.5469970703125 C315.9630126953125,-281.17401123046875 358.7909851074219,-196.76199340820312 368.1610107421875,-105.63899993896484 C377.52398681640625,-14.515000343322754 352.7669982910156,76.84400177001953 298.6709899902344,150.7689971923828 C244.572998046875,224.69400024414062 164.98300170898438,275.92498779296875 75.29399871826172,294.56298828125 C75.29399871826172,294.56298828125 2.8970000743865967,436.1400146484375 2.8970000743865967,436.1400146484375 C2.6389999389648438,436.67401123046875 2.2360000610351562,437.1189880371094 1.7339999675750732,437.4209899902344 C1.2330000400543213,437.7300109863281 0.6539999842643738,437.8909912109375 0.06499999761581421,437.87799072265625z M0.06499999761581421,-430.8940124511719 C-89.93399810791016,-430.7349853515625 -176.67599487304688,-397.2040100097656 -243.38099670410156,-336.7869873046875 C-310.08599853515625,-276.3689880371094 -352.0140075683594,-193.35899353027344 -361.0530090332031,-103.81500244140625 C-370.0920104980469,-14.270999908447266 -345.60101318359375,75.44300079345703 -292.3160095214844,147.97300720214844 C-239.03199768066406,220.50399780273438 -160.74099731445312,270.6940002441406 -72.58999633789062,288.8349914550781 C-72.1240005493164,288.93798828125 -71.68599700927734,289.1369934082031 -71.30799865722656,289.427001953125 C-70.92900085449219,289.71600341796875 -70.62100219726562,290.0840148925781 -70.4020004272461,290.50799560546875 C-70.4020004272461,290.50799560546875 0.06499999761581421,427.5820007324219 0.06499999761581421,427.5820007324219 C0.06499999761581421,427.5820007324219 70.2750015258789,290.3789978027344 70.2750015258789,290.3789978027344 C70.50700378417969,289.9549865722656 70.8290023803711,289.5880126953125 71.21700286865234,289.2980041503906 C71.60600280761719,289.0090026855469 72.0530014038086,288.8089904785156 72.5270004272461,288.7070007324219 C160.8719940185547,270.77099609375 239.4010009765625,220.6529998779297 292.8789978027344,148.08299255371094 C346.3580017089844,75.51100158691406 370.9729919433594,-14.336999893188477 361.9440002441406,-104.03099822998047 C352.9159851074219,-193.72500610351562 310.8919982910156,-276.8659973144531 244.02200317382812,-337.322998046875 C177.1540069580078,-397.781005859375 90.21099853515625,-431.24200439453125 0.06499999761581421,-431.21600341796875 C0.06499999761581421,-431.21600341796875 0.06499999761581421,-430.8940124511719 0.06499999761581421,-430.8940124511719z"></path></g></g><g transform="matrix(0.0004968918510712683,0.0004963073297403753,-0.0004963073297403753,0.0004968918510712683,400.24322509765625,1029.380859375)" opacity="1" style="display: none;"><g opacity="1" transform="matrix(1,0,0,1,377.77398681640625,438.1409912109375)"><path fill="rgb(1,111,159)" fill-opacity="1" d=" M0.06499999761581421,437.87799072265625 C-0.531000018119812,437.8840026855469 -1.1180000305175781,437.7300109863281 -1.628999948501587,437.4209899902344 C-2.1410000324249268,437.11199951171875 -2.556999921798706,436.67401123046875 -2.8310000896453857,436.1400146484375 C-2.8310000896453857,436.1400146484375 -75.29299926757812,294.56298828125 -75.29299926757812,294.56298828125 C-164.9810028076172,275.92498779296875 -244.5709991455078,224.69400024414062 -298.6679992675781,150.7689971923828 C-352.7650146484375,76.84400177001953 -377.52398681640625,-14.515000343322754 -368.1570129394531,-105.63899993896484 C-358.78900146484375,-196.76199340820312 -315.96099853515625,-281.17401123046875 -247.95599365234375,-342.5469970703125 C-179.95199584960938,-403.91900634765625 -91.60299682617188,-437.8909912109375 0.0010000000474974513,-437.8909912109375 C91.6050033569336,-437.8909912109375 179.95399475097656,-403.91900634765625 247.95899963378906,-342.5469970703125 C315.9630126953125,-281.17401123046875 358.7909851074219,-196.76199340820312 368.1610107421875,-105.63899993896484 C377.52398681640625,-14.515000343322754 352.7669982910156,76.84400177001953 298.6709899902344,150.7689971923828 C244.572998046875,224.69400024414062 164.98300170898438,275.92498779296875 75.29399871826172,294.56298828125 C75.29399871826172,294.56298828125 2.8970000743865967,436.1400146484375 2.8970000743865967,436.1400146484375 C2.6389999389648438,436.67401123046875 2.2360000610351562,437.1189880371094 1.7339999675750732,437.4209899902344 C1.2330000400543213,437.7300109863281 0.6539999842643738,437.8909912109375 0.06499999761581421,437.87799072265625z M0.06499999761581421,-430.8940124511719 C-89.93399810791016,-430.7349853515625 -176.67599487304688,-397.2040100097656 -243.38099670410156,-336.7869873046875 C-310.08599853515625,-276.3689880371094 -352.0140075683594,-193.35899353027344 -361.0530090332031,-103.81500244140625 C-370.0920104980469,-14.270999908447266 -345.60101318359375,75.44300079345703 -292.3160095214844,147.97300720214844 C-239.03199768066406,220.50399780273438 -160.74099731445312,270.6940002441406 -72.58999633789062,288.8349914550781 C-72.1240005493164,288.93798828125 -71.68599700927734,289.1369934082031 -71.30799865722656,289.427001953125 C-70.92900085449219,289.71600341796875 -70.62100219726562,290.0840148925781 -70.4020004272461,290.50799560546875 C-70.4020004272461,290.50799560546875 0.06499999761581421,427.5820007324219 0.06499999761581421,427.5820007324219 C0.06499999761581421,427.5820007324219 70.2750015258789,290.3789978027344 70.2750015258789,290.3789978027344 C70.50700378417969,289.9549865722656 70.8290023803711,289.5880126953125 71.21700286865234,289.2980041503906 C71.60600280761719,289.0090026855469 72.0530014038086,288.8089904785156 72.5270004272461,288.7070007324219 C160.8719940185547,270.77099609375 239.4010009765625,220.6529998779297 292.8789978027344,148.08299255371094 C346.3580017089844,75.51100158691406 370.9729919433594,-14.336999893188477 361.9440002441406,-104.03099822998047 C352.9159851074219,-193.72500610351562 310.8919982910156,-276.8659973144531 244.02200317382812,-337.322998046875 C177.1540069580078,-397.781005859375 90.21099853515625,-431.24200439453125 0.06499999761581421,-431.21600341796875 C0.06499999761581421,-431.21600341796875 0.06499999761581421,-430.8940124511719 0.06499999761581421,-430.8940124511719z"></path></g></g><g transform="matrix(0.9937236309051514,0.022445078939199448,-0.022445078939199448,0.9937236309051514,156.1938934326172,434.97113037109375)" opacity="1" style="display: block;"><g opacity="1" transform="matrix(1,0,0,1,258.6889953613281,170.66600036621094)"><path fill="rgb(69,186,186)" fill-opacity="1" d=" M-257.3909912109375,-34.43199920654297 C-257.3909912109375,-34.43199920654297 -212.98699951171875,148.26800537109375 -212.98699951171875,148.26800537109375 C-211.23500061035156,155.42599487304688 -206.71200561523438,161.5959930419922 -200.41299438476562,165.4219970703125 C-194.11399841308594,169.2469940185547 -186.5540008544922,170.4149932861328 -179.39500427246094,168.66799926757812 C-179.39500427246094,168.66799926757812 236.26400756835938,67.56900024414062 236.26400756835938,67.56900024414062 C243.41700744628906,65.80000305175781 249.58200073242188,61.27799987792969 253.4149932861328,54.986000061035156 C257.24798583984375,48.694000244140625 258.4389953613281,41.141998291015625 256.72900390625,33.97600173950195 C256.72900390625,33.97600173950195 212.3260040283203,-148.66000366210938 212.3260040283203,-148.66000366210938 C211.45700073242188,-152.10499572753906 209.9499969482422,-155.35699462890625 207.88400268554688,-158.2480010986328 C204.65899658203125,-162.7550048828125 200.16099548339844,-166.1959991455078 194.96800231933594,-168.13299560546875 C189.77499389648438,-170.0709991455078 184.12399291992188,-170.4149932861328 178.73300170898438,-169.1230010986328 C178.73300170898438,-169.1230010986328 -236.66900634765625,-68.02400207519531 -236.66900634765625,-68.02400207519531 C-242.10299682617188,-66.74099731445312 -247.0279998779297,-63.86000061035156 -250.81300354003906,-59.755001068115234 C-254.5970001220703,-55.650001525878906 -257.0669860839844,-50.505001068115234 -257.906005859375,-44.98500061035156 C-258.4389953613281,-41.46799850463867 -258.2640075683594,-37.880001068115234 -257.3909912109375,-34.43199920654297z"></path></g><g opacity="1" transform="matrix(1,0,0,1,233.6790008544922,123.81600189208984)"><path fill="rgb(41,173,182)" fill-opacity="1" d=" M-232.89500427246094,1.8639999628067017 C-232.89500427246094,1.8639999628067017 59.52799987792969,123.04199981689453 59.52799987792969,123.04199981689453 C59.52799987792969,123.04199981689453 232.89500427246094,-111.39900207519531 232.89500427246094,-111.39900207519531 C229.66799926757812,-115.90599822998047 225.1719970703125,-119.34700012207031 219.97999572753906,-121.28399658203125 C214.78700256347656,-123.22200012207031 209.13400268554688,-123.56700134277344 203.74400329589844,-122.2750015258789 C203.74400329589844,-122.2750015258789 -211.65899658203125,-21.174999237060547 -211.65899658203125,-21.174999237060547 C-217.0919952392578,-19.891000747680664 -222.01800537109375,-17.01099967956543 -225.802001953125,-12.904999732971191 C-229.58599853515625,-8.800000190734863 -232.0570068359375,-3.6570000648498535 -232.89500427246094,1.8639999628067017z"></path></g><g opacity="1" transform="matrix(1,0,0,1,233.61399841308594,111.35900115966797)"><path fill="rgb(69,186,186)" fill-opacity="1" d=" M-232.83099365234375,14.321000099182129 C-232.83099365234375,14.321000099182129 63.19599914550781,110.85099792480469 63.19599914550781,110.85099792480469 C63.19599914550781,110.85099792480469 232.83099365234375,-98.68299865722656 232.83099365234375,-98.68299865722656 C229.6060028076172,-103.19000244140625 225.10699462890625,-106.63300323486328 219.9149932861328,-108.56999969482422 C214.72300720214844,-110.50700378417969 209.06900024414062,-110.85099792480469 203.6790008544922,-109.55899810791016 C203.6790008544922,-109.55899810791016 -211.59500122070312,-8.717000007629395 -211.59500122070312,-8.717000007629395 C-217.0279998779297,-7.432000160217285 -221.95399475097656,-4.552999973297119 -225.73800659179688,-0.44699999690055847 C-229.52200317382812,3.6579999923706055 -231.9929962158203,8.800000190734863 -232.83099365234375,14.321000099182129z"></path></g><g opacity="1" transform="matrix(1,0,0,1,233.61399841308594,111.62100219726562)"><path fill="rgb(255,255,255)" fill-opacity="0.15" d=" M-232.83099365234375,14.059000015258789 C-232.83099365234375,14.059000015258789 63.19599914550781,110.58899688720703 63.19599914550781,110.58899688720703 C63.19599914550781,110.58899688720703 232.83099365234375,-98.94599914550781 232.83099365234375,-98.94599914550781 C229.6060028076172,-103.4530029296875 225.10699462890625,-106.8949966430664 219.9149932861328,-108.83200073242188 C214.72300720214844,-110.76899719238281 209.06900024414062,-111.11399841308594 203.6790008544922,-109.8219985961914 C203.6790008544922,-109.8219985961914 -211.59500122070312,-8.979999542236328 -211.59500122070312,-8.979999542236328 C-217.0279998779297,-7.695000171661377 -221.95399475097656,-4.815999984741211 -225.73800659179688,-0.7099999785423279 C-229.52200317382812,3.3949999809265137 -231.9929962158203,8.538000106811523 -232.83099365234375,14.059000015258789z"></path></g></g><g transform="matrix(0.9962614178657532,0.010690558701753616,-0.010690558701753616,0.9962614178657532,283.626953125,257.2298583984375)" opacity="1" style="display: block;"><g opacity="1" transform="matrix(1,0,0,1,220.94000244140625,121.96900177001953)"><path fill="rgb(69,186,186)" fill-opacity="1" d=" M-209.1320037841797,-98.1989974975586 C-209.1320037841797,-98.1989974975586 -220.26499938964844,69.12100219726562 -220.26499938964844,69.12100219726562 C-220.69000244140625,75.66999816894531 -218.5050048828125,82.12100219726562 -214.18800354003906,87.06500244140625 C-209.87100219726562,92.00900268554688 -203.7740020751953,95.04299926757812 -197.2270050048828,95.50599670410156 C-197.2270050048828,95.50599670410156 182.78199768066406,120.7969970703125 182.78199768066406,120.7969970703125 C189.33099365234375,121.22100067138672 195.78199768066406,119.03600311279297 200.7259979248047,114.71900177001953 C205.6699981689453,110.40299987792969 208.70399475097656,104.30500030517578 209.16600036621094,97.75800323486328 C209.16600036621094,97.75800323486328 220.2989959716797,-69.23999786376953 220.2989959716797,-69.23999786376953 C220.69000244140625,-75.79100036621094 218.48399353027344,-82.23300170898438 214.16000366210938,-87.1709976196289 C209.83599853515625,-92.10900115966797 203.7429962158203,-95.14600372314453 197.19700622558594,-95.625 C197.19700622558594,-95.625 -182.81100463867188,-120.91600036621094 -182.81100463867188,-120.91600036621094 C-187.73599243164062,-121.22100067138672 -192.64100646972656,-120.05699920654297 -196.9029998779297,-117.57099914550781 C-201.1649932861328,-115.08499908447266 -204.59300231933594,-111.38800048828125 -206.75100708007812,-106.95099639892578 C-208.1009979248047,-104.21399688720703 -208.91000366210938,-101.24199676513672 -209.1320037841797,-98.1989974975586z"></path></g><g opacity="1" transform="matrix(1,0,0,1,227.10299682617188,98.23500061035156)"><path fill="rgb(41,173,182)" fill-opacity="1" d=" M-212.91400146484375,-83.53900146484375 C-212.91400146484375,-83.53900146484375 2.993000030517578,97.552001953125 2.993000030517578,97.552001953125 C2.993000030517578,97.552001953125 212.91400146484375,-55.159000396728516 212.91400146484375,-55.159000396728516 C211.38400268554688,-59.86000061035156 208.48399353027344,-63.99700164794922 204.5850067138672,-67.03600311279297 C200.68499755859375,-70.07499694824219 195.96600341796875,-71.87799835205078 191.03399658203125,-72.21299743652344 C191.03399658203125,-72.21299743652344 -188.9739990234375,-97.50399780273438 -188.9739990234375,-97.50399780273438 C-193.8990020751953,-97.80999755859375 -198.8040008544922,-96.6449966430664 -203.0659942626953,-94.15899658203125 C-207.3280029296875,-91.6729965209961 -210.75599670410156,-87.97599792480469 -212.91400146484375,-83.53900146484375z"></path></g><g opacity="1" transform="matrix(1,0,0,1,227.10299682617188,82.7030029296875)"><path fill="rgb(69,186,186)" fill-opacity="1" d=" M-212.91400146484375,-68.00599670410156 C-212.91400146484375,-68.00599670410156 65.99500274658203,82.4520034790039 65.99500274658203,82.4520034790039 C65.99500274658203,82.4520034790039 212.91400146484375,-39.819000244140625 212.91400146484375,-39.819000244140625 C211.38400268554688,-44.52000045776367 208.48399353027344,-48.654998779296875 204.5850067138672,-51.694000244140625 C200.68499755859375,-54.73400115966797 195.96600341796875,-56.5369987487793 191.03399658203125,-56.87200164794922 C191.03399658203125,-56.87200164794922 -188.9739990234375,-82.16300201416016 -188.9739990234375,-82.16300201416016 C-193.9199981689453,-82.4520034790039 -198.83999633789062,-81.26000213623047 -203.10400390625,-78.73799896240234 C-207.36900329589844,-76.21600341796875 -210.78399658203125,-72.4800033569336 -212.91400146484375,-68.00599670410156z"></path></g><g opacity="1" transform="matrix(1,0,0,1,227.10299682617188,82.82599639892578)"><path fill="rgb(255,255,255)" fill-opacity="0.3" d=" M-212.91400146484375,-68.12899780273438 C-212.91400146484375,-68.12899780273438 65.99500274658203,82.3290023803711 65.99500274658203,82.3290023803711 C65.99500274658203,82.3290023803711 212.91400146484375,-39.94200134277344 212.91400146484375,-39.94200134277344 C211.38400268554688,-44.643001556396484 208.48399353027344,-48.77899932861328 204.5850067138672,-51.81800079345703 C200.68499755859375,-54.858001708984375 195.96600341796875,-56.6609992980957 191.03399658203125,-56.99599838256836 C191.03399658203125,-56.99599838256836 -188.9739990234375,-82.28700256347656 -188.9739990234375,-82.28700256347656 C-193.9199981689453,-82.57599639892578 -198.83999633789062,-81.38300323486328 -203.10400390625,-78.86100006103516 C-207.36900329589844,-76.33899688720703 -210.78399658203125,-72.60299682617188 -212.91400146484375,-68.12899780273438z"></path></g></g><g transform="matrix(0,0,0,0,406,1032)" opacity="1" style="display: none;"><g opacity="1" transform="matrix(1,0,0,1,258.6889953613281,170.66600036621094)"><path fill="rgb(69,186,186)" fill-opacity="1" d=" M-257.3909912109375,-34.43199920654297 C-257.3909912109375,-34.43199920654297 -212.98699951171875,148.26800537109375 -212.98699951171875,148.26800537109375 C-211.23500061035156,155.42599487304688 -206.71200561523438,161.5959930419922 -200.41299438476562,165.4219970703125 C-194.11399841308594,169.2469940185547 -186.5540008544922,170.4149932861328 -179.39500427246094,168.66799926757812 C-179.39500427246094,168.66799926757812 236.26400756835938,67.56900024414062 236.26400756835938,67.56900024414062 C243.41700744628906,65.80000305175781 249.58200073242188,61.27799987792969 253.4149932861328,54.986000061035156 C257.24798583984375,48.694000244140625 258.4389953613281,41.141998291015625 256.72900390625,33.97600173950195 C256.72900390625,33.97600173950195 212.3260040283203,-148.66000366210938 212.3260040283203,-148.66000366210938 C211.45700073242188,-152.10499572753906 209.9499969482422,-155.35699462890625 207.88400268554688,-158.2480010986328 C204.65899658203125,-162.7550048828125 200.16099548339844,-166.1959991455078 194.96800231933594,-168.13299560546875 C189.77499389648438,-170.0709991455078 184.12399291992188,-170.4149932861328 178.73300170898438,-169.1230010986328 C178.73300170898438,-169.1230010986328 -236.66900634765625,-68.02400207519531 -236.66900634765625,-68.02400207519531 C-242.10299682617188,-66.74099731445312 -247.0279998779297,-63.86000061035156 -250.81300354003906,-59.755001068115234 C-254.5970001220703,-55.650001525878906 -257.0669860839844,-50.505001068115234 -257.906005859375,-44.98500061035156 C-258.4389953613281,-41.46799850463867 -258.2640075683594,-37.880001068115234 -257.3909912109375,-34.43199920654297z"></path></g><g opacity="1" transform="matrix(1,0,0,1,233.6790008544922,123.81600189208984)"><path fill="rgb(41,173,182)" fill-opacity="1" d=" M-232.89500427246094,1.8639999628067017 C-232.89500427246094,1.8639999628067017 59.52799987792969,123.04199981689453 59.52799987792969,123.04199981689453 C59.52799987792969,123.04199981689453 232.89500427246094,-111.39900207519531 232.89500427246094,-111.39900207519531 C229.66799926757812,-115.90599822998047 225.1719970703125,-119.34700012207031 219.97999572753906,-121.28399658203125 C214.78700256347656,-123.22200012207031 209.13400268554688,-123.56700134277344 203.74400329589844,-122.2750015258789 C203.74400329589844,-122.2750015258789 -211.65899658203125,-21.174999237060547 -211.65899658203125,-21.174999237060547 C-217.0919952392578,-19.891000747680664 -222.01800537109375,-17.01099967956543 -225.802001953125,-12.904999732971191 C-229.58599853515625,-8.800000190734863 -232.0570068359375,-3.6570000648498535 -232.89500427246094,1.8639999628067017z"></path></g><g opacity="1" transform="matrix(1,0,0,1,233.61399841308594,111.35900115966797)"><path fill="rgb(69,186,186)" fill-opacity="1" d=" M-232.83099365234375,14.321000099182129 C-232.83099365234375,14.321000099182129 63.19599914550781,110.85099792480469 63.19599914550781,110.85099792480469 C63.19599914550781,110.85099792480469 232.83099365234375,-98.68299865722656 232.83099365234375,-98.68299865722656 C229.6060028076172,-103.19000244140625 225.10699462890625,-106.63300323486328 219.9149932861328,-108.56999969482422 C214.72300720214844,-110.50700378417969 209.06900024414062,-110.85099792480469 203.6790008544922,-109.55899810791016 C203.6790008544922,-109.55899810791016 -211.59500122070312,-8.717000007629395 -211.59500122070312,-8.717000007629395 C-217.0279998779297,-7.432000160217285 -221.95399475097656,-4.552999973297119 -225.73800659179688,-0.44699999690055847 C-229.52200317382812,3.6579999923706055 -231.9929962158203,8.800000190734863 -232.83099365234375,14.321000099182129z"></path></g><g opacity="1" transform="matrix(1,0,0,1,233.61399841308594,111.62100219726562)"><path fill="rgb(255,255,255)" fill-opacity="0.15" d=" M-232.83099365234375,14.059000015258789 C-232.83099365234375,14.059000015258789 63.19599914550781,110.58899688720703 63.19599914550781,110.58899688720703 C63.19599914550781,110.58899688720703 232.83099365234375,-98.94599914550781 232.83099365234375,-98.94599914550781 C229.6060028076172,-103.4530029296875 225.10699462890625,-106.8949966430664 219.9149932861328,-108.83200073242188 C214.72300720214844,-110.76899719238281 209.06900024414062,-111.11399841308594 203.6790008544922,-109.8219985961914 C203.6790008544922,-109.8219985961914 -211.59500122070312,-8.979999542236328 -211.59500122070312,-8.979999542236328 C-217.0279998779297,-7.695000171661377 -221.95399475097656,-4.815999984741211 -225.73800659179688,-0.7099999785423279 C-229.52200317382812,3.3949999809265137 -231.9929962158203,8.538000106811523 -232.83099365234375,14.059000015258789z"></path></g></g><g transform="matrix(0,0,0,0,408,1026)" opacity="1" style="display: none;"><g opacity="1" transform="matrix(1,0,0,1,220.94000244140625,121.96900177001953)"><path fill="rgb(69,186,186)" fill-opacity="1" d=" M-209.1320037841797,-98.1989974975586 C-209.1320037841797,-98.1989974975586 -220.26499938964844,69.12100219726562 -220.26499938964844,69.12100219726562 C-220.69000244140625,75.66999816894531 -218.5050048828125,82.12100219726562 -214.18800354003906,87.06500244140625 C-209.87100219726562,92.00900268554688 -203.7740020751953,95.04299926757812 -197.2270050048828,95.50599670410156 C-197.2270050048828,95.50599670410156 182.78199768066406,120.7969970703125 182.78199768066406,120.7969970703125 C189.33099365234375,121.22100067138672 195.78199768066406,119.03600311279297 200.7259979248047,114.71900177001953 C205.6699981689453,110.40299987792969 208.70399475097656,104.30500030517578 209.16600036621094,97.75800323486328 C209.16600036621094,97.75800323486328 220.2989959716797,-69.23999786376953 220.2989959716797,-69.23999786376953 C220.69000244140625,-75.79100036621094 218.48399353027344,-82.23300170898438 214.16000366210938,-87.1709976196289 C209.83599853515625,-92.10900115966797 203.7429962158203,-95.14600372314453 197.19700622558594,-95.625 C197.19700622558594,-95.625 -182.81100463867188,-120.91600036621094 -182.81100463867188,-120.91600036621094 C-187.73599243164062,-121.22100067138672 -192.64100646972656,-120.05699920654297 -196.9029998779297,-117.57099914550781 C-201.1649932861328,-115.08499908447266 -204.59300231933594,-111.38800048828125 -206.75100708007812,-106.95099639892578 C-208.1009979248047,-104.21399688720703 -208.91000366210938,-101.24199676513672 -209.1320037841797,-98.1989974975586z"></path></g><g opacity="1" transform="matrix(1,0,0,1,227.10299682617188,98.23500061035156)"><path fill="rgb(41,173,182)" fill-opacity="1" d=" M-212.91400146484375,-83.53900146484375 C-212.91400146484375,-83.53900146484375 2.993000030517578,97.552001953125 2.993000030517578,97.552001953125 C2.993000030517578,97.552001953125 212.91400146484375,-55.159000396728516 212.91400146484375,-55.159000396728516 C211.38400268554688,-59.86000061035156 208.48399353027344,-63.99700164794922 204.5850067138672,-67.03600311279297 C200.68499755859375,-70.07499694824219 195.96600341796875,-71.87799835205078 191.03399658203125,-72.21299743652344 C191.03399658203125,-72.21299743652344 -188.9739990234375,-97.50399780273438 -188.9739990234375,-97.50399780273438 C-193.8990020751953,-97.80999755859375 -198.8040008544922,-96.6449966430664 -203.0659942626953,-94.15899658203125 C-207.3280029296875,-91.6729965209961 -210.75599670410156,-87.97599792480469 -212.91400146484375,-83.53900146484375z"></path></g><g opacity="1" transform="matrix(1,0,0,1,227.10299682617188,82.7030029296875)"><path fill="rgb(69,186,186)" fill-opacity="1" d=" M-212.91400146484375,-68.00599670410156 C-212.91400146484375,-68.00599670410156 65.99500274658203,82.4520034790039 65.99500274658203,82.4520034790039 C65.99500274658203,82.4520034790039 212.91400146484375,-39.819000244140625 212.91400146484375,-39.819000244140625 C211.38400268554688,-44.52000045776367 208.48399353027344,-48.654998779296875 204.5850067138672,-51.694000244140625 C200.68499755859375,-54.73400115966797 195.96600341796875,-56.5369987487793 191.03399658203125,-56.87200164794922 C191.03399658203125,-56.87200164794922 -188.9739990234375,-82.16300201416016 -188.9739990234375,-82.16300201416016 C-193.9199981689453,-82.4520034790039 -198.83999633789062,-81.26000213623047 -203.10400390625,-78.73799896240234 C-207.36900329589844,-76.21600341796875 -210.78399658203125,-72.4800033569336 -212.91400146484375,-68.00599670410156z"></path></g><g opacity="1" transform="matrix(1,0,0,1,227.10299682617188,82.82599639892578)"><path fill="rgb(255,255,255)" fill-opacity="0.3" d=" M-212.91400146484375,-68.12899780273438 C-212.91400146484375,-68.12899780273438 65.99500274658203,82.3290023803711 65.99500274658203,82.3290023803711 C65.99500274658203,82.3290023803711 212.91400146484375,-39.94200134277344 212.91400146484375,-39.94200134277344 C211.38400268554688,-44.643001556396484 208.48399353027344,-48.77899932861328 204.5850067138672,-51.81800079345703 C200.68499755859375,-54.858001708984375 195.96600341796875,-56.6609992980957 191.03399658203125,-56.99599838256836 C191.03399658203125,-56.99599838256836 -188.9739990234375,-82.28700256347656 -188.9739990234375,-82.28700256347656 C-193.9199981689453,-82.57599639892578 -198.83999633789062,-81.38300323486328 -203.10400390625,-78.86100006103516 C-207.36900329589844,-76.33899688720703 -210.78399658203125,-72.60299682617188 -212.91400146484375,-68.12899780273438z"></path></g></g></g></svg>