<svg xmlns="http://www.w3.org/2000/svg" viewBox="0 0 1200 1200" width="1200" height="1200" preserveAspectRatio="xMidYMid meet" style="width: 100%; height: 100%; transform: translate3d(0px, 0px, 0px); content-visibility: visible;"><defs><clipPath id="__lottie_element_134"><rect width="1200" height="1200" x="0" y="0"></rect></clipPath><clipPath id="__lottie_element_139"><path fill="#ffffff" clip-rule="nonzero" d=" M0,212.09547424316406 C0,212.09547424316406 0,476.0010070800781 0,476.0010070800781 C0,476.0010070800781 512,476.0010070800781 512,476.0010070800781 C512,476.0010070800781 512,212.09547424316406 512,212.09547424316406 C512,212.09547424316406 0,212.09547424316406 0,212.09547424316406" fill-opacity="1"></path></clipPath></defs><g clip-path="url(#__lottie_element_134)"><g transform="matrix(1,0,0,1,344,344)" opacity="0.15" style="display: block;"><g opacity="1" transform="matrix(1,0,0,1,0,0)"><g opacity="1" transform="matrix(1,0,0,1,256,256)"><path fill="rgb(28,28,28)" fill-opacity="1" d=" M236,120 C224.95399475097656,120 216,128.95399475097656 216,140 C216,162.05599975585938 198.05599975585938,180 176,180 C176,180 23.334999084472656,180 23.334999084472656,180 C23.334999084472656,180 -22.649999618530273,120.34400177001953 -22.649999618530273,120.34400177001953 C-22.649999618530273,120.34400177001953 122.49700164794922,-64.27400207519531 122.49700164794922,-64.27400207519531 C122.49700164794922,-64.27400207519531 220.56300354003906,52.71699905395508 220.56300354003906,52.71699905395508 C220.75799560546875,52.952999114990234 220.95799255371094,53.185001373291016 221.16299438476562,53.4109992980957 C221.16299438476562,53.4109992980957 221.1840057373047,53.435001373291016 221.1840057373047,53.435001373291016 C221.20799255371094,53.46200180053711 221.23300170898438,53.48899841308594 221.25799560546875,53.51599884033203 C223.07899475097656,55.505001068115234 225.218994140625,57.04600143432617 227.53399658203125,58.125 C229.91200256347656,59.23699951171875 232.54600524902344,59.89500045776367 235.32200622558594,59.98699951171875 C235.3730010986328,59.98899841308594 235.4239959716797,59.99100112915039 235.47500610351562,59.992000579833984 C235.48399353027344,59.992000579833984 235.4929962158203,59.99100112915039 235.50100708007812,59.992000579833984 C236.92999267578125,60.02799987792969 238.36399841308594,59.91299819946289 239.77699279785156,59.643001556396484 C239.77699279785156,59.643001556396484 239.8300018310547,59.632999420166016 239.8300018310547,59.632999420166016 C239.89300537109375,59.62099838256836 239.95399475097656,59.60900115966797 240.01800537109375,59.59600067138672 C240.04200744628906,59.590999603271484 240.0679931640625,59.584999084472656 240.093994140625,59.58000183105469 C240.1479949951172,59.569000244140625 240.20199584960938,59.55799865722656 240.25599670410156,59.54600143432617 C240.28599548339844,59.53900146484375 240.3159942626953,59.53300094604492 240.3459930419922,59.5260009765625 C240.39599609375,59.51499938964844 240.44400024414062,59.50299835205078 240.4929962158203,59.492000579833984 C240.5279998779297,59.48400115966797 240.56300354003906,59.47700119018555 240.5970001220703,59.46799850463867 C240.64100646972656,59.45800018310547 240.68600463867188,59.446998596191406 240.72900390625,59.4370002746582 C240.76699829101562,59.428001403808594 240.8040008544922,59.417999267578125 240.8419952392578,59.409000396728516 C240.88299560546875,59.39899826049805 240.9250030517578,59.38800048828125 240.96600341796875,59.37799835205078 C241.00399780273438,59.36800003051758 241.04100036621094,59.358001708984375 241.07899475097656,59.347999572753906 C241.12100219726562,59.33700180053711 241.16200256347656,59.32600021362305 241.20399475097656,59.314998626708984 C241.24200439453125,59.30500030517578 241.27999877929688,59.29399871826172 241.3179931640625,59.284000396728516 C241.3179931640625,59.284000396728516 241.43600463867188,59.25199890136719 241.43600463867188,59.25199890136719 C241.4770050048828,59.2400016784668 241.51800537109375,59.22800064086914 241.55799865722656,59.21699905395508 C241.59800720214844,59.20600128173828 241.63699340820312,59.19300079345703 241.67599487304688,59.18199920654297 C241.70799255371094,59.17300033569336 241.74000549316406,59.16400146484375 241.7729949951172,59.15399932861328 C241.82200622558594,59.138999938964844 241.8719940185547,59.124000549316406 241.9199981689453,59.10900115966797 C241.94700622558594,59.10100173950195 241.9739990234375,59.090999603271484 242,59.08300018310547 C242.0500030517578,59.06800079345703 242.0989990234375,59.051998138427734 242.1490020751953,59.0359992980957 C242.1790008544922,59.0260009765625 242.20899963378906,59.016998291015625 242.23899841308594,59.00699996948242 C242.28799438476562,58.99100112915039 242.33799743652344,58.9739990234375 242.38699340820312,58.95800018310547 C242.41000366210938,58.95000076293945 242.43299865722656,58.94200134277344 242.45599365234375,58.935001373291016 C242.51100158691406,58.91600036621094 242.56700134277344,58.895999908447266 242.6219940185547,58.87799835205078 C242.64300537109375,58.87099838256836 242.66400146484375,58.862998962402344 242.68499755859375,58.85499954223633 C242.74200439453125,58.83599853515625 242.79800415039062,58.814998626708984 242.85400390625,58.79399871826172 C242.8719940185547,58.7869987487793 242.88999938964844,58.78200149536133 242.9080047607422,58.775001525878906 C242.97000122070312,58.75199890136719 243.031005859375,58.729000091552734 243.0919952392578,58.70600128173828 C243.0919952392578,58.70600128173828 243.1230010986328,58.694000244140625 243.1230010986328,58.694000244140625 C243.1909942626953,58.667999267578125 243.25900268554688,58.641998291015625 243.32699584960938,58.6150016784668 C243.33099365234375,58.61399841308594 243.3350067138672,58.611000061035156 243.33900451660156,58.60900115966797 C243.41200256347656,58.58000183105469 243.48500061035156,58.551998138427734 243.55799865722656,58.520999908447266 C244.44700622558594,58.159000396728516 245.31700134277344,57.72800064086914 246.16099548339844,57.229000091552734 C246.17300415039062,57.22200012207031 246.18499755859375,57.21500015258789 246.19700622558594,57.20800018310547 C246.25399780273438,57.17399978637695 246.31100463867188,57.13999938964844 246.3679962158203,57.10499954223633 C247.4459991455078,56.45100021362305 248.45700073242188,55.696998596191406 249.38900756835938,54.85499954223633 C249.406005859375,54.840999603271484 249.4219970703125,54.82600021362305 249.43899536132812,54.81100082397461 C249.45399475097656,54.797000885009766 249.468994140625,54.78300094604492 249.48399353027344,54.77000045776367 C251.48899841308594,52.941001892089844 253.04200744628906,50.78799819946289 254.1269989013672,48.45800018310547 C255.24200439453125,46.07099914550781 255.89999389648438,43.42900085449219 255.98800659179688,40.64099884033203 C255.98899841308594,40.604000091552734 255.99000549316406,40.56999969482422 255.99099731445312,40.534000396728516 C255.99099731445312,40.51100158691406 255.99200439453125,40.487998962402344 255.99200439453125,40.465999603271484 C255.9929962158203,40.39799880981445 255.9949951171875,40.327999114990234 255.99600219726562,40.2599983215332 C255.99600219726562,40.2599983215332 255.99600219726562,40.255001068115234 255.99600219726562,40.255001068115234 C255.9969940185547,40.150001525878906 255.9969940185547,40.04499816894531 255.9969940185547,39.93899917602539 C255.9969940185547,39.93899917602539 255.9969940185547,-140 255.9969940185547,-140 C255.9969940185547,-184.11199951171875 220.10899353027344,-220 175.9969940185547,-220 C175.9969940185547,-220 -176,-220 -176,-220 C-220.11199951171875,-220 -256,-184.11300659179688 -256,-140 C-256,-140 -256,140 -256,140 C-256,184.11199951171875 -220.11199951171875,220 -176,220 C-176,220 13.37399959564209,220 13.37399959564209,220 C13.420999526977539,220 13.468000411987305,220.00100708007812 13.515000343322754,220.00100708007812 C13.57800006866455,220.00100708007812 13.640000343322754,220.00100708007812 13.70300006866455,220 C13.70300006866455,220 176,220 176,220 C220.11199951171875,220 256,184.11199951171875 256,140 C256,128.9530029296875 247.04600524902344,120 236,120z M-176,180 C-198.05599975585938,180 -216,162.05599975585938 -216,140 C-216,140 -216,-140 -216,-140 C-216,-162.05599975585938 -198.05599975585938,-180 -176,-180 C-176,-180 176,-180 176,-180 C198.05599975585938,-180 216,-162.05599975585938 216,-140 C216,-140 216,-14.993000030517578 216,-14.993000030517578 C216,-14.993000030517578 137.32699584960938,-108.8479995727539 137.32699584960938,-108.8479995727539 C133.45700073242188,-113.46600341796875 127.7239990234375,-116.08899688720703 121.68699645996094,-115.99800109863281 C115.66300201416016,-115.90399932861328 110.0009994506836,-113.0979995727539 106.27799987792969,-108.36199951171875 C106.27799987792969,-108.36199951171875 -47.84000015258789,87.66400146484375 -47.84000015258789,87.66400146484375 C-47.84000015258789,87.66400146484375 -100.16000366210938,19.788999557495117 -100.16000366210938,19.788999557495117 C-103.94599914550781,14.87600040435791 -109.7979965209961,11.99899959564209 -116,11.99899959564209 C-116,11.99899959564209 -116.01000213623047,11.99899959564209 -116.01000213623047,11.99899959564209 C-122.21600341796875,12.001999855041504 -128.06900024414062,14.88599967956543 -131.85299682617188,19.80500030517578 C-131.85299682617188,19.80500030517578 -175.8679962158203,77.02300262451172 -175.8679962158203,77.02300262451172 C-182.6020050048828,85.77799987792969 -180.96499633789062,98.33499908447266 -172.2100067138672,105.06999969482422 C-163.4530029296875,111.80500030517578 -150.89700317382812,110.16799926757812 -144.16299438476562,101.41300201416016 C-144.16299438476562,101.41300201416016 -115.98400115966797,64.77999877929688 -115.98400115966797,64.77999877929688 C-115.98400115966797,64.77999877929688 -27.167999267578125,180 -27.167999267578125,180 C-27.167999267578125,180 -176,180 -176,180z"></path></g><g opacity="1" transform="matrix(1,0,0,1,140,168)"><path fill="rgb(28,28,28)" fill-opacity="1" d=" M0,60 C33.08399963378906,60 60,33.08399963378906 60,0 C60,-33.08399963378906 33.08399963378906,-60 0,-60 C-33.08399963378906,-60 -60,-33.08399963378906 -60,0 C-60,33.08399963378906 -33.08399963378906,60 0,60z M0,-20 C11.027999877929688,-20 20,-11.027999877929688 20,0 C20,11.027999877929688 11.027999877929688,20 0,20 C-11.027999877929688,20 -20,11.027999877929688 -20,0 C-20,-11.027999877929688 -11.027999877929688,-20 0,-20z"></path></g></g></g><g clip-path="url(#__lottie_element_139)" transform="matrix(1,0,0,1,344,344)" opacity="1" style="display: block;"><g opacity="1" transform="matrix(1,0,0,1,0,0)"><g opacity="1" transform="matrix(1,0,0,1,256,256)"><path fill="rgb(137,203,190)" fill-opacity="1" d=" M236,120 C224.95399475097656,120 216,128.95399475097656 216,140 C216,162.05599975585938 198.05599975585938,180 176,180 C176,180 23.334999084472656,180 23.334999084472656,180 C23.334999084472656,180 -22.649999618530273,120.34400177001953 -22.649999618530273,120.34400177001953 C-22.649999618530273,120.34400177001953 122.49700164794922,-64.27400207519531 122.49700164794922,-64.27400207519531 C122.49700164794922,-64.27400207519531 220.56300354003906,52.71699905395508 220.56300354003906,52.71699905395508 C220.75799560546875,52.952999114990234 220.95799255371094,53.185001373291016 221.16299438476562,53.4109992980957 C221.16299438476562,53.4109992980957 221.1840057373047,53.435001373291016 221.1840057373047,53.435001373291016 C221.20799255371094,53.46200180053711 221.23300170898438,53.48899841308594 221.25799560546875,53.51599884033203 C223.07899475097656,55.505001068115234 225.218994140625,57.04600143432617 227.53399658203125,58.125 C229.91200256347656,59.23699951171875 232.54600524902344,59.89500045776367 235.32200622558594,59.98699951171875 C235.3730010986328,59.98899841308594 235.4239959716797,59.99100112915039 235.47500610351562,59.992000579833984 C235.48399353027344,59.992000579833984 235.4929962158203,59.99100112915039 235.50100708007812,59.992000579833984 C236.92999267578125,60.02799987792969 238.36399841308594,59.91299819946289 239.77699279785156,59.643001556396484 C239.77699279785156,59.643001556396484 239.8300018310547,59.632999420166016 239.8300018310547,59.632999420166016 C239.89300537109375,59.62099838256836 239.95399475097656,59.60900115966797 240.01800537109375,59.59600067138672 C240.04200744628906,59.590999603271484 240.0679931640625,59.584999084472656 240.093994140625,59.58000183105469 C240.1479949951172,59.569000244140625 240.20199584960938,59.55799865722656 240.25599670410156,59.54600143432617 C240.28599548339844,59.53900146484375 240.3159942626953,59.53300094604492 240.3459930419922,59.5260009765625 C240.39599609375,59.51499938964844 240.44400024414062,59.50299835205078 240.4929962158203,59.492000579833984 C240.5279998779297,59.48400115966797 240.56300354003906,59.47700119018555 240.5970001220703,59.46799850463867 C240.64100646972656,59.45800018310547 240.68600463867188,59.446998596191406 240.72900390625,59.4370002746582 C240.76699829101562,59.428001403808594 240.8040008544922,59.417999267578125 240.8419952392578,59.409000396728516 C240.88299560546875,59.39899826049805 240.9250030517578,59.38800048828125 240.96600341796875,59.37799835205078 C241.00399780273438,59.36800003051758 241.04100036621094,59.358001708984375 241.07899475097656,59.347999572753906 C241.12100219726562,59.33700180053711 241.16200256347656,59.32600021362305 241.20399475097656,59.314998626708984 C241.24200439453125,59.30500030517578 241.27999877929688,59.29399871826172 241.3179931640625,59.284000396728516 C241.3179931640625,59.284000396728516 241.43600463867188,59.25199890136719 241.43600463867188,59.25199890136719 C241.4770050048828,59.2400016784668 241.51800537109375,59.22800064086914 241.55799865722656,59.21699905395508 C241.59800720214844,59.20600128173828 241.63699340820312,59.19300079345703 241.67599487304688,59.18199920654297 C241.70799255371094,59.17300033569336 241.74000549316406,59.16400146484375 241.7729949951172,59.15399932861328 C241.82200622558594,59.138999938964844 241.8719940185547,59.124000549316406 241.9199981689453,59.10900115966797 C241.94700622558594,59.10100173950195 241.9739990234375,59.090999603271484 242,59.08300018310547 C242.0500030517578,59.06800079345703 242.0989990234375,59.051998138427734 242.1490020751953,59.0359992980957 C242.1790008544922,59.0260009765625 242.20899963378906,59.016998291015625 242.23899841308594,59.00699996948242 C242.28799438476562,58.99100112915039 242.33799743652344,58.9739990234375 242.38699340820312,58.95800018310547 C242.41000366210938,58.95000076293945 242.43299865722656,58.94200134277344 242.45599365234375,58.935001373291016 C242.51100158691406,58.91600036621094 242.56700134277344,58.895999908447266 242.6219940185547,58.87799835205078 C242.64300537109375,58.87099838256836 242.66400146484375,58.862998962402344 242.68499755859375,58.85499954223633 C242.74200439453125,58.83599853515625 242.79800415039062,58.814998626708984 242.85400390625,58.79399871826172 C242.8719940185547,58.7869987487793 242.88999938964844,58.78200149536133 242.9080047607422,58.775001525878906 C242.97000122070312,58.75199890136719 243.031005859375,58.729000091552734 243.0919952392578,58.70600128173828 C243.0919952392578,58.70600128173828 243.1230010986328,58.694000244140625 243.1230010986328,58.694000244140625 C243.1909942626953,58.667999267578125 243.25900268554688,58.641998291015625 243.32699584960938,58.6150016784668 C243.33099365234375,58.61399841308594 243.3350067138672,58.611000061035156 243.33900451660156,58.60900115966797 C243.41200256347656,58.58000183105469 243.48500061035156,58.551998138427734 243.55799865722656,58.520999908447266 C244.44700622558594,58.159000396728516 245.31700134277344,57.72800064086914 246.16099548339844,57.229000091552734 C246.17300415039062,57.22200012207031 246.18499755859375,57.21500015258789 246.19700622558594,57.20800018310547 C246.25399780273438,57.17399978637695 246.31100463867188,57.13999938964844 246.3679962158203,57.10499954223633 C247.4459991455078,56.45100021362305 248.45700073242188,55.696998596191406 249.38900756835938,54.85499954223633 C249.406005859375,54.840999603271484 249.4219970703125,54.82600021362305 249.43899536132812,54.81100082397461 C249.45399475097656,54.797000885009766 249.468994140625,54.78300094604492 249.48399353027344,54.77000045776367 C251.48899841308594,52.941001892089844 253.04200744628906,50.78799819946289 254.1269989013672,48.45800018310547 C255.24200439453125,46.07099914550781 255.89999389648438,43.42900085449219 255.98800659179688,40.64099884033203 C255.98899841308594,40.604000091552734 255.99000549316406,40.56999969482422 255.99099731445312,40.534000396728516 C255.99099731445312,40.51100158691406 255.99200439453125,40.487998962402344 255.99200439453125,40.465999603271484 C255.9929962158203,40.39799880981445 255.9949951171875,40.327999114990234 255.99600219726562,40.2599983215332 C255.99600219726562,40.2599983215332 255.99600219726562,40.255001068115234 255.99600219726562,40.255001068115234 C255.9969940185547,40.150001525878906 255.9969940185547,40.04499816894531 255.9969940185547,39.93899917602539 C255.9969940185547,39.93899917602539 255.9969940185547,-140 255.9969940185547,-140 C255.9969940185547,-184.11199951171875 220.10899353027344,-220 175.9969940185547,-220 C175.9969940185547,-220 -176,-220 -176,-220 C-220.11199951171875,-220 -256,-184.11300659179688 -256,-140 C-256,-140 -256,140 -256,140 C-256,184.11199951171875 -220.11199951171875,220 -176,220 C-176,220 13.37399959564209,220 13.37399959564209,220 C13.420999526977539,220 13.468000411987305,220.00100708007812 13.515000343322754,220.00100708007812 C13.57800006866455,220.00100708007812 13.640000343322754,220.00100708007812 13.70300006866455,220 C13.70300006866455,220 176,220 176,220 C220.11199951171875,220 256,184.11199951171875 256,140 C256,128.9530029296875 247.04600524902344,120 236,120z M-176,180 C-198.05599975585938,180 -216,162.05599975585938 -216,140 C-216,140 -216,-140 -216,-140 C-216,-162.05599975585938 -198.05599975585938,-180 -176,-180 C-176,-180 176,-180 176,-180 C198.05599975585938,-180 216,-162.05599975585938 216,-140 C216,-140 216,-14.993000030517578 216,-14.993000030517578 C216,-14.993000030517578 137.32699584960938,-108.8479995727539 137.32699584960938,-108.8479995727539 C133.45700073242188,-113.46600341796875 127.7239990234375,-116.08899688720703 121.68699645996094,-115.99800109863281 C115.66300201416016,-115.90399932861328 110.0009994506836,-113.0979995727539 106.27799987792969,-108.36199951171875 C106.27799987792969,-108.36199951171875 -47.84000015258789,87.66400146484375 -47.84000015258789,87.66400146484375 C-47.84000015258789,87.66400146484375 -100.16000366210938,19.788999557495117 -100.16000366210938,19.788999557495117 C-103.94599914550781,14.87600040435791 -109.7979965209961,11.99899959564209 -116,11.99899959564209 C-116,11.99899959564209 -116.01000213623047,11.99899959564209 -116.01000213623047,11.99899959564209 C-122.21600341796875,12.001999855041504 -128.06900024414062,14.88599967956543 -131.85299682617188,19.80500030517578 C-131.85299682617188,19.80500030517578 -175.8679962158203,77.02300262451172 -175.8679962158203,77.02300262451172 C-182.6020050048828,85.77799987792969 -180.96499633789062,98.33499908447266 -172.2100067138672,105.06999969482422 C-163.4530029296875,111.80500030517578 -150.89700317382812,110.16799926757812 -144.16299438476562,101.41300201416016 C-144.16299438476562,101.41300201416016 -115.98400115966797,64.77999877929688 -115.98400115966797,64.77999877929688 C-115.98400115966797,64.77999877929688 -27.167999267578125,180 -27.167999267578125,180 C-27.167999267578125,180 -176,180 -176,180z"></path></g><g opacity="1" transform="matrix(1,0,0,1,140,168)"><path fill="rgb(137,203,190)" fill-opacity="1" d=" M0,60 C33.08399963378906,60 60,33.08399963378906 60,0 C60,-33.08399963378906 33.08399963378906,-60 0,-60 C-33.08399963378906,-60 -60,-33.08399963378906 -60,0 C-60,33.08399963378906 -33.08399963378906,60 0,60z M0,-20 C11.027999877929688,-20 20,-11.027999877929688 20,0 C20,11.027999877929688 11.027999877929688,20 0,20 C-11.027999877929688,20 -20,11.027999877929688 -20,0 C-20,-11.027999877929688 -11.027999877929688,-20 0,-20z"></path></g></g></g><g transform="matrix(1.2000000476837158,0,0,1,600,568.6865844726562)" opacity="1" style="display: block;"><g opacity="1" transform="matrix(1,0,0,1,-0.6370000243186951,-9.32800006866455)"><path fill="rgb(137,203,190)" fill-opacity="1" d=" M281.3634948730469,0 C281.3634948730469,0 281.3634948730469,0 281.3634948730469,0 C281.3634948730469,9.201277732849121 273.89276123046875,16.672000885009766 264.6914978027344,16.672000885009766 C264.6914978027344,16.672000885009766 -264.6914978027344,16.672000885009766 -264.6914978027344,16.672000885009766 C-273.89276123046875,16.672000885009766 -281.3634948730469,9.201277732849121 -281.3634948730469,0 C-281.3634948730469,0 -281.3634948730469,0 -281.3634948730469,0 C-281.3634948730469,-9.201277732849121 -273.89276123046875,-16.672000885009766 -264.6914978027344,-16.672000885009766 C-264.6914978027344,-16.672000885009766 264.6914978027344,-16.672000885009766 264.6914978027344,-16.672000885009766 C273.89276123046875,-16.672000885009766 281.3634948730469,-9.201277732849121 281.3634948730469,0z"></path></g></g><g transform="matrix(1,0,0,1,344,344)" opacity="1" style="display: none;"><g opacity="1" transform="matrix(1,0,0,1,258.85699462890625,267.6109924316406)"><path stroke-linecap="round" stroke-linejoin="round" fill-opacity="0" stroke="rgb(29,157,177)" stroke-opacity="1" stroke-width="40" d=" M118.85800170898438,-107.5 C118.85800170898438,-107.5 -50.33000183105469,107.5 -50.33000183105469,107.5 C-50.33000183105469,107.5 -118.85700225830078,20.441999435424805 -118.85700225830078,20.441999435424805"></path></g></g></g></svg>