<svg xmlns="http://www.w3.org/2000/svg" viewBox="0 0 300 300" width="300" height="300" preserveAspectRatio="xMidYMid meet" style="width: 100%; height: 100%; transform: translate3d(0px, 0px, 0px); content-visibility: visible;"><defs><clipPath id="__lottie_element_16"><rect width="300" height="300" x="0" y="0"></rect></clipPath><mask id="__lottie_element_21" mask-type="alpha"><g transform="matrix(1,0,0,1,0,0)" opacity="1" style="display: block;"><g opacity="1" transform="matrix(1,0,0,1,174.031005859375,171.4929962158203)"><path fill="rgb(230,230,230)" fill-opacity="1" d=" M110,59.775001525878906 C110,64.31800079345703 106.31700134277344,68.0009994506836 101.77400207519531,68.0009994506836 C101.77400207519531,68.0009994506836 -101.77400207519531,68.0009994506836 -101.77400207519531,68.0009994506836 C-106.31700134277344,68.0009994506836 -110,64.31800079345703 -110,59.775001525878906 C-110,59.775001525878906 -110,-59.775001525878906 -110,-59.775001525878906 C-110,-64.31800079345703 -106.31700134277344,-68.0009994506836 -101.77400207519531,-68.0009994506836 C-101.77400207519531,-68.0009994506836 101.77400207519531,-68.0009994506836 101.77400207519531,-68.0009994506836 C106.31700134277344,-68.0009994506836 110,-64.31800079345703 110,-59.775001525878906 C110,-59.775001525878906 110,59.775001525878906 110,59.775001525878906z"></path></g></g></mask><mask id="__lottie_element_106" mask-type="alpha"><g transform="matrix(1,0,0,1,0,0)" opacity="1" style="display: block;"><g opacity="1" transform="matrix(1,0,0,1,141.71600341796875,152.19200134277344)"><path fill="rgb(10,129,181)" fill-opacity="1" d=" M125.06999969482422,10.880000114440918 C126.87000274658203,15.031000137329102 124.94200134277344,19.899999618530273 120.79100036621094,21.695999145507812 C120.79100036621094,21.695999145507812 -66.83499908447266,102.93000030517578 -66.83499908447266,102.93000030517578 C-70.98600006103516,104.72699737548828 -75.85399627685547,102.8010025024414 -77.65299987792969,98.64900207519531 C-77.65299987792969,98.64900207519531 -125.07499694824219,-10.880000114440918 -125.07499694824219,-10.880000114440918 C-126.87000274658203,-15.031999588012695 -124.9469985961914,-19.899999618530273 -120.79399871826172,-21.69700050354004 C-120.79399871826172,-21.69700050354004 66.83399963378906,-102.93000030517578 66.83399963378906,-102.93000030517578 C70.98500061035156,-104.72699737548828 75.85199737548828,-102.802001953125 77.6520004272461,-98.6500015258789 C77.6520004272461,-98.6500015258789 125.06999969482422,10.880000114440918 125.06999969482422,10.880000114440918z"></path></g></g></mask><mask id="__lottie_element_112" mask-type="alpha"><g transform="matrix(1,0,0,1,0,0)" opacity="1" style="display: block;"><g opacity="1" transform="matrix(1,0,0,1,141.71600341796875,152.19200134277344)"><path fill="rgb(10,129,181)" fill-opacity="1" d=" M125.06999969482422,10.880000114440918 C126.87000274658203,15.031000137329102 124.94200134277344,19.899999618530273 120.79100036621094,21.695999145507812 C120.79100036621094,21.695999145507812 -66.83499908447266,102.93000030517578 -66.83499908447266,102.93000030517578 C-70.98600006103516,104.72699737548828 -75.85399627685547,102.8010025024414 -77.65299987792969,98.64900207519531 C-77.65299987792969,98.64900207519531 -125.07499694824219,-10.880000114440918 -125.07499694824219,-10.880000114440918 C-126.87000274658203,-15.031999588012695 -124.9469985961914,-19.899999618530273 -120.79399871826172,-21.69700050354004 C-120.79399871826172,-21.69700050354004 66.83399963378906,-102.93000030517578 66.83399963378906,-102.93000030517578 C70.98500061035156,-104.72699737548828 75.85199737548828,-102.802001953125 77.6520004272461,-98.6500015258789 C77.6520004272461,-98.6500015258789 125.06999969482422,10.880000114440918 125.06999969482422,10.880000114440918z"></path></g></g></mask><mask id="__lottie_element_128" mask-type="alpha"><g transform="matrix(0.9916399717330933,0,0,0.9916399717330933,0.870269775390625,1.2037811279296875)" opacity="1" style="display: block;"><g opacity="1" transform="matrix(1,0,0,1,104.0989990234375,143.9929962158203)"><path fill="rgb(43,181,184)" fill-opacity="1" d=" M19.93199920654297,4.5 C19.93199920654297,4.5 19.93199920654297,-2.5 19.93199920654297,-2.5 C19.93199920654297,-2.5 20.06800079345703,-7.5 20.06800079345703,-7.5 C19.82699966430664,-15.5 13.251999855041504,-21.5 5.15500020980835,-21.5 C5.15500020980835,-21.5 -4.803999900817871,-21.5 -4.803999900817871,-21.5 C-12.902000427246094,-21.5 -19.479000091552734,-15.5 -19.722000122070312,-7.5 C-19.722000122070312,-7.5 -20.06800079345703,-2.5 -20.06800079345703,-2.5 C-20.06800079345703,-2.5 -20.06800079345703,4.5 -20.06800079345703,4.5 C-20.06800079345703,4.5 -19.722000122070312,8.5 -19.722000122070312,8.5 C-19.479000091552734,15.5 -12.902000427246094,21.5 -4.803999900817871,21.5 C-4.803999900817871,21.5 5.15500020980835,21.5 5.15500020980835,21.5 C13.251999855041504,21.5 19.82699966430664,15.5 20.06800079345703,8.5 C20.06800079345703,8.5 19.93199920654297,4.5 19.93199920654297,4.5z"></path></g></g></mask></defs><g clip-path="url(#__lottie_element_16)"><g mask="url(#__lottie_element_106)" style="display: block;"><g transform="matrix(1,0,0,1,0,0)" opacity="1"><g opacity="1" transform="matrix(1,0,0,1,141.71600341796875,152.19200134277344)"><path fill="rgb(10,129,181)" fill-opacity="1" d=" M125.06999969482422,10.880000114440918 C126.87000274658203,15.031000137329102 124.94200134277344,19.899999618530273 120.79100036621094,21.695999145507812 C120.79100036621094,21.695999145507812 -66.83499908447266,102.93000030517578 -66.83499908447266,102.93000030517578 C-70.98600006103516,104.72699737548828 -75.85399627685547,102.8010025024414 -77.65299987792969,98.64900207519531 C-77.65299987792969,98.64900207519531 -125.07499694824219,-10.880000114440918 -125.07499694824219,-10.880000114440918 C-126.87000274658203,-15.031999588012695 -124.9469985961914,-19.899999618530273 -120.79399871826172,-21.69700050354004 C-120.79399871826172,-21.69700050354004 66.83399963378906,-102.93000030517578 66.83399963378906,-102.93000030517578 C70.98500061035156,-104.72699737548828 75.85199737548828,-102.802001953125 77.6520004272461,-98.6500015258789 C77.6520004272461,-98.6500015258789 125.06999969482422,10.880000114440918 125.06999969482422,10.880000114440918z"></path></g></g></g><g mask="url(#__lottie_element_112)" style="display: block;"><g transform="matrix(1,0,0,1,0,0)" opacity="1"><g opacity="1" transform="matrix(1,0,0,1,127.68599700927734,119.78900146484375)"><path fill="rgb(1,111,159)" fill-opacity="1" d=" M107.83699798583984,-28.933000564575195 C107.83699798583984,-28.933000564575195 -94.88700103759766,58.84000015258789 -94.88700103759766,58.84000015258789 C-94.88700103759766,58.84000015258789 -107.83699798583984,28.93000030517578 -107.83699798583984,28.93000030517578 C-107.83699798583984,28.93000030517578 94.88800048828125,-58.84000015258789 94.88800048828125,-58.84000015258789 C94.88800048828125,-58.84000015258789 107.83699798583984,-28.933000564575195 107.83699798583984,-28.933000564575195z"></path></g></g></g><g mask="url(#__lottie_element_21)" style="display: block;"><g transform="matrix(1,0,0,1,0,0)" opacity="1"><g opacity="1" transform="matrix(1,0,0,1,174.031005859375,171.4929962158203)"><path fill="rgb(230,230,230)" fill-opacity="1" d=" M110,59.775001525878906 C110,64.31800079345703 106.31700134277344,68.0009994506836 101.77400207519531,68.0009994506836 C101.77400207519531,68.0009994506836 -101.77400207519531,68.0009994506836 -101.77400207519531,68.0009994506836 C-106.31700134277344,68.0009994506836 -110,64.31800079345703 -110,59.775001525878906 C-110,59.775001525878906 -110,-59.775001525878906 -110,-59.775001525878906 C-110,-64.31800079345703 -106.31700134277344,-68.0009994506836 -101.77400207519531,-68.0009994506836 C-101.77400207519531,-68.0009994506836 101.77400207519531,-68.0009994506836 101.77400207519531,-68.0009994506836 C106.31700134277344,-68.0009994506836 110,-64.31800079345703 110,-59.775001525878906 C110,-59.775001525878906 110,59.775001525878906 110,59.775001525878906z"></path></g></g></g><g mask="url(#__lottie_element_128)" style="display: block;"><g transform="matrix(1,0,0,1,0,0)" opacity="1"><g opacity="1" transform="matrix(1,0,0,1,91.43599700927734,139.9929962158203)"><path fill="rgb(25,149,173)" fill-opacity="1" d=" M7.40500020980835,0 C7.40500020980835,-1.312999963760376 6.59499979019165,-3.5 5.593999862670898,-3.5 C5.593999862670898,-3.5 -7.059000015258789,-3.5 -7.059000015258789,-3.5 C-7.061999797821045,-3.5 -7.40500020980835,-3.443000078201294 -7.40500020980835,-3.243000030517578 C-7.40500020980835,-3.243000030517578 -7.40500020980835,3.5 -7.40500020980835,3.5 C-7.40500020980835,3.5 5.593999862670898,3.5 5.593999862670898,3.5 C6.59499979019165,3.5 7.40500020980835,1.312000036239624 7.40500020980835,0z"></path></g><g opacity="1" transform="matrix(1,0,0,1,91.43599700927734,149.4929962158203)"><path fill="rgb(25,149,173)" fill-opacity="1" d=" M7.40500020980835,0 C7.40500020980835,-1.3730000257492065 6.59499979019165,-3 5.593999862670898,-3 C5.593999862670898,-3 -7.40500020980835,-3 -7.40500020980835,-3 C-7.40500020980835,-3 -7.40500020980835,2.3359999656677246 -7.40500020980835,2.3359999656677246 C-7.40500020980835,2.5450000762939453 -7.061999797821045,3 -7.059000015258789,3 C-7.059000015258789,3 5.593999862670898,3 5.593999862670898,3 C6.59499979019165,3 7.40500020980835,1.3730000257492065 7.40500020980835,0z"></path></g><g opacity="1" transform="matrix(1,0,0,1,116.93900299072266,139.9929962158203)"><path fill="rgb(25,149,173)" fill-opacity="1" d=" M-7.234000205993652,0 C-7.234000205993652,1.5019999742507935 -6.421999931335449,3.5 -5.421999931335449,3.5 C-5.421999931335449,3.5 7.0920000076293945,3.5 7.0920000076293945,3.5 C7.0920000076293945,3.5 7.0920000076293945,-3.1579999923706055 7.0920000076293945,-3.1579999923706055 C7.0920000076293945,-3.388000011444092 7.234000205993652,-3.5 7.228000164031982,-3.5 C7.228000164031982,-3.5 -5.421999931335449,-3.5 -5.421999931335449,-3.5 C-6.421999931335449,-3.5 -7.234000205993652,-1.4980000257492065 -7.234000205993652,0z"></path></g><g opacity="1" transform="matrix(1,0,0,1,116.93900299072266,149.4929962158203)"><path fill="rgb(25,149,173)" fill-opacity="1" d=" M7.0920000076293945,-3 C7.0920000076293945,-3 -5.422999858856201,-3 -5.422999858856201,-3 C-6.422999858856201,-3 -7.234000205993652,-1.5019999742507935 -7.234000205993652,0 C-7.234000205993652,1.5019999742507935 -6.422999858856201,3 -5.422999858856201,3 C-5.422999858856201,3 7.228000164031982,3 7.228000164031982,3 C7.234000205993652,3 7.0920000076293945,2.509000062942505 7.0920000076293945,2.2799999713897705 C7.0920000076293945,2.2799999713897705 7.0920000076293945,-3 7.0920000076293945,-3z"></path></g></g></g><g transform="matrix(1,0,0,1,0,0)" opacity="1" style="display: block;"><g opacity="1" transform="matrix(1,0,0,1,104.0989990234375,143.9929962158203)"><path fill="rgb(43,181,184)" fill-opacity="1" d=" M5.605999946594238,6.5 C5.605999946594238,5.5 6.418000221252441,4.5 7.418000221252441,4.5 C7.418000221252441,4.5 19.93199920654297,4.5 19.93199920654297,4.5 C19.93199920654297,4.5 19.93199920654297,-2.5 19.93199920654297,-2.5 C19.93199920654297,-2.5 7.418000221252441,-2.5 7.418000221252441,-2.5 C6.418000221252441,-2.5 5.605999946594238,-3.999000072479248 5.605999946594238,-5 C5.605999946594238,-6 6.418000221252441,-7.5 7.418000221252441,-7.5 C7.418000221252441,-7.5 20.06800079345703,-7.5 20.06800079345703,-7.5 C19.82699966430664,-15.5 13.251999855041504,-21.5 5.15500020980835,-21.5 C5.15500020980835,-21.5 -4.803999900817871,-21.5 -4.803999900817871,-21.5 C-12.902000427246094,-21.5 -19.479000091552734,-15.5 -19.722000122070312,-7.5 C-19.722000122070312,-7.5 -7.068999767303467,-7.5 -7.068999767303467,-7.5 C-6.067999839782715,-7.5 -5.257999897003174,-6 -5.257999897003174,-5 C-5.257999897003174,-3.999000072479248 -6.067999839782715,-2.5 -7.068999767303467,-2.5 C-7.068999767303467,-2.5 -20.06800079345703,-2.5 -20.06800079345703,-2.5 C-20.06800079345703,-2.5 -20.06800079345703,4.5 -20.06800079345703,4.5 C-20.06800079345703,4.5 -7.068999767303467,4.5 -7.068999767303467,4.5 C-6.067999839782715,4.5 -5.257999897003174,5.5 -5.257999897003174,6.5 C-5.257999897003174,7.5 -6.067999839782715,8.5 -7.068999767303467,8.5 C-7.068999767303467,8.5 -19.722000122070312,8.5 -19.722000122070312,8.5 C-19.479000091552734,15.5 -12.902000427246094,21.5 -4.803999900817871,21.5 C-4.803999900817871,21.5 5.15500020980835,21.5 5.15500020980835,21.5 C13.251999855041504,21.5 19.82699966430664,15.5 20.06800079345703,8.5 C20.06800079345703,8.5 7.418000221252441,8.5 7.418000221252441,8.5 C6.418000221252441,8.5 5.605999946594238,7.5 5.605999946594238,6.5z"></path></g></g><g transform="matrix(1,0,0,1,0,0)" opacity="1" style="display: block;"><g opacity="1" transform="matrix(1,0,0,1,221.52999877929688,142.0540008544922)"><path fill="rgb(25,149,173)" fill-opacity="1" d=" M19.479999542236328,0.0010000000474974513 C19.479999542236328,10.758000373840332 10.758999824523926,19.479000091552734 0.0020000000949949026,19.479000091552734 C-10.756999969482422,19.479000091552734 -19.479999542236328,10.758000373840332 -19.479999542236328,0.0010000000474974513 C-19.479999542236328,-10.758999824523926 -10.756999969482422,-19.479000091552734 0.0020000000949949026,-19.479000091552734 C10.758999824523926,-19.479000091552734 19.479999542236328,-10.758999824523926 19.479999542236328,0.0010000000474974513z"></path></g></g><g transform="matrix(1,0,0,1,0,0)" opacity="1" style="display: block;"><g opacity="1" transform="matrix(1,0,0,1,243.26100158691406,142.0540008544922)"><path fill="rgb(43,181,184)" fill-opacity="1" d=" M19.479000091552734,0.0010000000474974513 C19.479000091552734,10.758000373840332 10.755999565124512,19.479000091552734 -0.0010000000474974513,19.479000091552734 C-10.760000228881836,19.479000091552734 -19.479999542236328,10.758000373840332 -19.479999542236328,0.0010000000474974513 C-19.479999542236328,-10.758999824523926 -10.760000228881836,-19.479000091552734 -0.0010000000474974513,-19.479000091552734 C10.755999565124512,-19.479000091552734 19.479000091552734,-10.758999824523926 19.479000091552734,0.0010000000474974513z"></path></g></g><g transform="matrix(1.0003466606140137,0,0,1,-0.0449066162109375,0)" opacity="1" style="display: block;"><g opacity="1" transform="matrix(1,0,0,1,197.031005859375,213.4929962158203)"><path fill="rgb(1,111,159)" fill-opacity="1" d=" M67,0.28299999237060547 C67,1.7829999923706055 65.78399658203125,3 64.28399658203125,3 C64.28399658203125,3 -64.28399658203125,3 -64.28399658203125,3 C-65.78399658203125,3 -67,1.7829999923706055 -67,0.28299999237060547 C-67,0.28299999237060547 -67,-0.28299999237060547 -67,-0.28299999237060547 C-67,-1.7829999923706055 -65.78399658203125,-3 -64.28399658203125,-3 C-64.28399658203125,-3 64.28399658203125,-3 64.28399658203125,-3 C65.78399658203125,-3 67,-1.7829999923706055 67,-0.28299999237060547 C67,-0.28299999237060547 67,0.28299999237060547 67,0.28299999237060547z"></path></g></g><g transform="matrix(1,0,0,1,0,0)" opacity="1" style="display: block;"><g opacity="1" transform="matrix(1,0,0,1,101.53099822998047,213.4929962158203)"><path fill="rgb(1,111,159)" fill-opacity="1" d=" M17.5,0.28299999237060547 C17.5,1.7829999923706055 16.284000396728516,3 14.784000396728516,3 C14.784000396728516,3 -14.784000396728516,3 -14.784000396728516,3 C-16.284000396728516,3 -17.5,1.7829999923706055 -17.5,0.28299999237060547 C-17.5,0.28299999237060547 -17.5,-0.28299999237060547 -17.5,-0.28299999237060547 C-17.5,-1.7829999923706055 -16.284000396728516,-3 -14.784000396728516,-3 C-14.784000396728516,-3 14.784000396728516,-3 14.784000396728516,-3 C16.284000396728516,-3 17.5,-1.7829999923706055 17.5,-0.28299999237060547 C17.5,-0.28299999237060547 17.5,0.28299999237060547 17.5,0.28299999237060547z"></path></g></g><g transform="matrix(1,0,0,1,0,0)" opacity="1" style="display: block;"><g opacity="1" transform="matrix(1,0,0,1,130.531005859375,201.4929962158203)"><path fill="rgb(1,111,159)" fill-opacity="1" d=" M46.5,0.28600001335144043 C46.5,1.784999966621399 45.284000396728516,3 43.78499984741211,3 C43.78499984741211,3 -43.78499984741211,3 -43.78499984741211,3 C-45.284000396728516,3 -46.5,1.784999966621399 -46.5,0.28600001335144043 C-46.5,0.28600001335144043 -46.5,-0.28600001335144043 -46.5,-0.28600001335144043 C-46.5,-1.784999966621399 -45.284000396728516,-3 -43.78499984741211,-3 C-43.78499984741211,-3 43.78499984741211,-3 43.78499984741211,-3 C45.284000396728516,-3 46.5,-1.784999966621399 46.5,-0.28600001335144043 C46.5,-0.28600001335144043 46.5,0.28600001335144043 46.5,0.28600001335144043z"></path></g></g></g></svg>