<svg xmlns="http://www.w3.org/2000/svg" viewBox="0 0 100 78" width="100" height="78" preserveAspectRatio="xMidYMid meet" style="width: 100%; height: 100%; transform: translate3d(0px, 0px, 0px); content-visibility: visible;"><defs><clipPath id="__lottie_element_32"><rect width="100" height="78" x="0" y="0"></rect></clipPath><clipPath id="__lottie_element_34"><path d="M0,0 L200,0 L200,156 L0,156z"></path></clipPath><clipPath id="__lottie_element_44"><path d="M0,0 L200,0 L200,156 L0,156z"></path></clipPath><clipPath id="__lottie_element_48"><path d="M0,0 L200,0 L200,156 L0,156z"></path></clipPath><linearGradient id="__lottie_element_81" spreadMethod="pad" gradientUnits="userSpaceOnUse" x1="21.488000869750977" y1="-5.269000053405762" x2="-13.480999946594238" y2="-2.13100004196167"><stop offset="0%" stop-color="rgb(41,173,182)"></stop><stop offset="50%" stop-color="rgb(41,173,182)"></stop><stop offset="100%" stop-color="rgb(41,173,182)"></stop></linearGradient></defs><g clip-path="url(#__lottie_element_32)"><g clip-path="url(#__lottie_element_34)" transform="matrix(0.5,0,0,0.5,0,0)" opacity="1" style="display: block;"><g transform="matrix(0.6017588973045349,-0.4962722957134247,0.4962722957134247,0.6017588973045349,61.37200164794922,61.76900100708008)" opacity="0.055291666666695105" style="display: none;"><g opacity="1" transform="matrix(1.2820500135421753,0,0,1.2820500135421753,0,0)"><path fill="rgb(243,208,17)" fill-opacity="1" d=" M1.2949999570846558,2.244999885559082 C1.2949999570846558,2.244999885559082 -0.125,4.025000095367432 -0.125,4.025000095367432 C-0.4749999940395355,4.454999923706055 -1.1050000190734863,4.525000095367432 -1.534999966621399,4.175000190734863 C-1.7350000143051147,4.014999866485596 -1.8650000095367432,3.7950000762939453 -1.8949999809265137,3.5450000762939453 C-1.8949999809265137,3.5450000762939453 -2.244999885559082,1.2949999570846558 -2.244999885559082,1.2949999570846558 C-2.244999885559082,1.2949999570846558 -4.025000095367432,-0.125 -4.025000095367432,-0.125 C-4.454999923706055,-0.4749999940395355 -4.525000095367432,-1.1050000190734863 -4.175000190734863,-1.534999966621399 C-4.014999866485596,-1.7350000143051147 -3.7950000762939453,-1.8650000095367432 -3.5450000762939453,-1.8949999809265137 C-3.5450000762939453,-1.8949999809265137 -1.2949999570846558,-2.244999885559082 -1.2949999570846558,-2.244999885559082 C-1.2949999570846558,-2.244999885559082 0.125,-4.025000095367432 0.125,-4.025000095367432 C0.4749999940395355,-4.454999923706055 1.1050000190734863,-4.525000095367432 1.534999966621399,-4.175000190734863 C1.7350000143051147,-4.014999866485596 1.8550000190734863,-3.7950000762939453 1.8949999809265137,-3.5450000762939453 C1.8949999809265137,-3.5450000762939453 2.244999885559082,-1.2949999570846558 2.244999885559082,-1.2949999570846558 C2.244999885559082,-1.2949999570846558 4.025000095367432,0.125 4.025000095367432,0.125 C4.454999923706055,0.4749999940395355 4.525000095367432,1.1050000190734863 4.175000190734863,1.534999966621399 C4.014999866485596,1.7350000143051147 3.7950000762939453,1.8550000190734863 3.5450000762939453,1.8949999809265137 C3.5450000762939453,1.8949999809265137 1.2949999570846558,2.244999885559082 1.2949999570846558,2.244999885559082z"></path></g></g><g transform="matrix(0.6568382978439331,0.7540314197540283,-0.7540314197540283,0.6568382978439331,142.3719940185547,72.76899719238281)" opacity="0.04023958333336353" style="display: none;"><g opacity="1" transform="matrix(1.2820500135421753,0,0,1.2820500135421753,0,0)"><path fill="rgb(248,231,28)" fill-opacity="1" d=" M1.2949999570846558,2.244999885559082 C1.2949999570846558,2.244999885559082 -0.125,4.025000095367432 -0.125,4.025000095367432 C-0.4749999940395355,4.454999923706055 -1.1050000190734863,4.525000095367432 -1.534999966621399,4.175000190734863 C-1.7350000143051147,4.014999866485596 -1.8650000095367432,3.7950000762939453 -1.8949999809265137,3.5450000762939453 C-1.8949999809265137,3.5450000762939453 -2.244999885559082,1.2949999570846558 -2.244999885559082,1.2949999570846558 C-2.244999885559082,1.2949999570846558 -4.025000095367432,-0.125 -4.025000095367432,-0.125 C-4.454999923706055,-0.4749999940395355 -4.525000095367432,-1.1050000190734863 -4.175000190734863,-1.534999966621399 C-4.014999866485596,-1.7350000143051147 -3.7950000762939453,-1.8650000095367432 -3.5450000762939453,-1.8949999809265137 C-3.5450000762939453,-1.8949999809265137 -1.2949999570846558,-2.244999885559082 -1.2949999570846558,-2.244999885559082 C-1.2949999570846558,-2.244999885559082 0.125,-4.025000095367432 0.125,-4.025000095367432 C0.4749999940395355,-4.454999923706055 1.1050000190734863,-4.525000095367432 1.534999966621399,-4.175000190734863 C1.7350000143051147,-4.014999866485596 1.8550000190734863,-3.7950000762939453 1.8949999809265137,-3.5450000762939453 C1.8949999809265137,-3.5450000762939453 2.244999885559082,-1.2949999570846558 2.244999885559082,-1.2949999570846558 C2.244999885559082,-1.2949999570846558 4.025000095367432,0.125 4.025000095367432,0.125 C4.454999923706055,0.4749999940395355 4.525000095367432,1.1050000190734863 4.175000190734863,1.534999966621399 C4.014999866485596,1.7350000143051147 3.7950000762939453,1.8550000190734863 3.5450000762939453,1.8949999809265137 C3.5450000762939453,1.8949999809265137 1.2949999570846558,2.244999885559082 1.2949999570846558,2.244999885559082z"></path></g></g><g clip-path="url(#__lottie_element_44)" transform="matrix(1,0,0,1,0,0)" opacity="1" style="display: block;"><g transform="matrix(0.9917217493057251,-0.12193688005208969,0.1213022992014885,0.9865606427192688,127.97648620605469,89.78894805908203)" opacity="1" style="display: block;"><g opacity="1" transform="matrix(1,0,0,1,0,0)"><path fill="rgb(187,222,215)" fill-opacity="1" d=" M-17.5,-18 C-17.5,-20.207599639892578 -15.707599639892578,-22 -13.5,-22 C-13.5,-22 13.5,-22 13.5,-22 C15.707599639892578,-22 17.5,-20.207599639892578 17.5,-18 C17.5,-18 17.5,18 17.5,18 C17.5,20.207599639892578 15.707599639892578,22 13.5,22 C13.5,22 -13.5,22 -13.5,22 C-15.707599639892578,22 -17.5,20.207599639892578 -17.5,18 C-17.5,18 -17.5,-18 -17.5,-18z"></path><path stroke-linecap="butt" stroke-linejoin="miter" fill-opacity="0" stroke-miterlimit="4" stroke="rgb(137,203,190)" stroke-opacity="1" stroke-width="2" d=" M-17.5,-18 C-17.5,-20.207599639892578 -15.707599639892578,-22 -13.5,-22 C-13.5,-22 13.5,-22 13.5,-22 C15.707599639892578,-22 17.5,-20.207599639892578 17.5,-18 C17.5,-18 17.5,18 17.5,18 C17.5,20.207599639892578 15.707599639892578,22 13.5,22 C13.5,22 -13.5,22 -13.5,22 C-15.707599639892578,22 -17.5,20.207599639892578 -17.5,18 C-17.5,18 -17.5,-18 -17.5,-18z"></path></g></g><g transform="matrix(0.9917217493057251,-0.12193688005208969,0.1213022992014885,0.9865606427192688,127.24478912353516,83.8380126953125)" opacity="1" style="display: block;"><g opacity="1" transform="matrix(1,0,0,1,0,0)"><path fill="rgb(137,203,190)" fill-opacity="1" d=" M-8.75,-6.519999980926514 C-8.75,-7.728661060333252 -7.768661022186279,-8.710000038146973 -6.559999942779541,-8.710000038146973 C-6.559999942779541,-8.710000038146973 6.559999942779541,-8.710000038146973 6.559999942779541,-8.710000038146973 C7.768661022186279,-8.710000038146973 8.75,-7.728661060333252 8.75,-6.519999980926514 C8.75,-6.519999980926514 8.75,6.519999980926514 8.75,6.519999980926514 C8.75,7.728661060333252 7.768661022186279,8.710000038146973 6.559999942779541,8.710000038146973 C6.559999942779541,8.710000038146973 -6.559999942779541,8.710000038146973 -6.559999942779541,8.710000038146973 C-7.768661022186279,8.710000038146973 -8.75,7.728661060333252 -8.75,6.519999980926514 C-8.75,6.519999980926514 -8.75,-6.519999980926514 -8.75,-6.519999980926514z"></path></g></g><g transform="matrix(0.9917217493057251,-0.12193688005208969,0.1213022992014885,0.9865606427192688,128.82948303222656,96.7264404296875)" opacity="1" style="display: block;"><g opacity="1" transform="matrix(1,0,0,1,0,0)"><path fill="rgb(137,203,190)" fill-opacity="1" d=" M-5.833000183105469,-0.0020000338554382324 C-5.833000183105469,-0.8022550344467163 -5.182359218597412,-1.4520000219345093 -4.38100004196167,-1.4520000219345093 C-4.38100004196167,-1.4520000219345093 4.384999752044678,-1.4520000219345093 4.384999752044678,-1.4520000219345093 C5.18635892868042,-1.4520000219345093 5.836999893188477,-0.8022550344467163 5.836999893188477,-0.0020000338554382324 C5.836999893188477,-0.0020000338554382324 5.836999893188477,-0.0020000338554382324 5.836999893188477,-0.0020000338554382324 C5.836999893188477,0.7982549667358398 5.18635892868042,1.4479999542236328 4.384999752044678,1.4479999542236328 C4.384999752044678,1.4479999542236328 -4.38100004196167,1.4479999542236328 -4.38100004196167,1.4479999542236328 C-5.182359218597412,1.4479999542236328 -5.833000183105469,0.7982549667358398 -5.833000183105469,-0.0020000338554382324 C-5.833000183105469,-0.0020000338554382324 -5.833000183105469,-0.0020000338554382324 -5.833000183105469,-0.0020000338554382324z"></path></g></g><g transform="matrix(0.9917217493057251,-0.12193688005208969,0.1213022992014885,0.9865606427192688,129.6219482421875,103.17164611816406)" opacity="1" style="display: block;"><g opacity="1" transform="matrix(1,0,0,1,0,0)"><path fill="rgb(137,203,190)" fill-opacity="1" d=" M-8.75,-0.001999974250793457 C-8.75,-1.2023825645446777 -7.774486064910889,-2.177000045776367 -6.572999954223633,-2.177000045776367 C-6.572999954223633,-2.177000045776367 6.572999954223633,-2.177000045776367 6.572999954223633,-2.177000045776367 C7.774486064910889,-2.177000045776367 8.75,-1.2023825645446777 8.75,-0.001999974250793457 C8.75,-0.001999974250793457 8.75,-0.001999974250793457 8.75,-0.001999974250793457 C8.75,1.1983826160430908 7.774486064910889,2.1730000972747803 6.572999954223633,2.1730000972747803 C6.572999954223633,2.1730000972747803 -6.572999954223633,2.1730000972747803 -6.572999954223633,2.1730000972747803 C-7.774486064910889,2.1730000972747803 -8.75,1.1983826160430908 -8.75,-0.001999974250793457 C-8.75,-0.001999974250793457 -8.75,-0.001999974250793457 -8.75,-0.001999974250793457z"></path></g></g><g transform="matrix(0.9917217493057251,-0.12193688005208969,0.1213022992014885,0.9865606427192688,119.31837463378906,79.38761138916016)" opacity="0.35000000000000003" style="display: block;"><g opacity="1" transform="matrix(1,0,0,1,0,0)"><path fill="rgb(255,255,255)" fill-opacity="1" d=" M10.109999656677246,-11.706000328063965 C10.109999656677246,-11.706000328063965 -11.383999824523926,10.60200023651123 -11.383999824523926,10.60200023651123 C-11.383999824523926,10.60200023651123 -11.383999824523926,4.392000198364258 -11.383999824523926,4.392000198364258 C-11.383999824523926,4.392000198364258 4.699999809265137,-11.706000328063965 4.699999809265137,-11.706000328063965 C4.699999809265137,-11.706000328063965 10.109999656677246,-11.706000328063965 10.109999656677246,-11.706000328063965z"></path></g></g><g transform="matrix(0.9917217493057251,-0.12193688005208969,0.1213022992014885,0.9865606427192688,125.9089584350586,85.53351593017578)" opacity="0.23" style="display: block;"><g opacity="1" transform="matrix(1,0,0,1,0,0)"><path fill="rgb(255,255,255)" fill-opacity="1" d=" M7.486000061035156,-18.4950008392334 C7.486000061035156,-18.4950008392334 -17.118999481201172,7.308000087738037 -17.118999481201172,7.308000087738037 C-17.118999481201172,7.308000087738037 -17.027999877929688,17.468000411987305 -17.027999877929688,17.468000411987305 C-17.027999877929688,17.468000411987305 16.086000442504883,-18.4950008392334 16.086000442504883,-18.4950008392334 C16.086000442504883,-18.4950008392334 7.486000061035156,-18.4950008392334 7.486000061035156,-18.4950008392334z"></path></g></g></g><g clip-path="url(#__lottie_element_48)" transform="matrix(1,0,0,1,0,0)" opacity="1" style="display: block;"><g style="display: none;"><g><path></path></g></g><g transform="matrix(0.9922255277633667,-0.12445271760225296,0.12445271760225296,0.9922255277633667,135.3917999267578,106.84136962890625)" opacity="1" style="display: block;"><g opacity="1" transform="matrix(1,0,0,1,0,0)"><path fill="url(#__lottie_element_81)" fill-opacity="1" d=" M-26.61199951171875,-17.538000106811523 C-26.61199951171875,-17.538000106811523 22.95800018310547,-17.538000106811523 22.95800018310547,-17.538000106811523 C24.97800064086914,-17.538000106811523 26.607999801635742,-15.907999992370605 26.607999801635742,-13.887999534606934 C26.607999801635742,-13.588000297546387 26.577999114990234,-13.29800033569336 26.507999420166016,-13.008000373840332 C26.507999420166016,-13.008000373840332 19.92799949645996,13.392000198364258 19.92799949645996,13.392000198364258 C19.31800079345703,15.821999549865723 17.128000259399414,17.54199981689453 14.618000030517578,17.54199981689453 C14.618000030517578,17.54199981689453 -13.972000122070312,17.54199981689453 -13.972000122070312,17.54199981689453 C-16.50200080871582,17.54199981689453 -18.711999893188477,15.791999816894531 -19.29199981689453,13.321999549865723 C-19.29199981689453,13.321999549865723 -26.61199951171875,-17.538000106811523 -26.61199951171875,-17.538000106811523z"></path></g></g><g transform="matrix(0.9922255277633667,-0.12445271760225296,0.12445271760225296,0.9922255277633667,131.53402709960938,107.32524108886719)" opacity="1" style="display: block;"><g opacity="1" transform="matrix(1,0,0,1,0,0)"><path fill="rgb(29,157,177)" fill-opacity="1" d=" M19.115999221801758,-17.538000106811523 C21.106000900268555,-17.538000106811523 22.72599983215332,-15.937999725341797 22.72599983215332,-13.958000183105469 C22.72599983215332,-13.668000221252441 22.68600082397461,-13.387999534606934 22.625999450683594,-13.107999801635742 C22.625999450683594,-13.107999801635742 16.076000213623047,13.442000389099121 16.076000213623047,13.442000389099121 C15.486000061035156,15.85200023651123 13.315999984741211,17.54199981689453 10.815999984741211,17.54199981689453 C10.815999984741211,17.54199981689453 -10.194000244140625,17.54199981689453 -10.194000244140625,17.54199981689453 C-12.71399974822998,17.54199981689453 -14.904000282287598,15.821999549865723 -15.473999977111816,13.381999969482422 C-15.473999977111816,13.381999969482422 -22.724000930786133,-17.538000106811523 -22.724000930786133,-17.538000106811523 C-22.724000930786133,-17.538000106811523 19.115999221801758,-17.538000106811523 19.115999221801758,-17.538000106811523z"></path></g></g><g transform="matrix(0.9922255277633667,-0.12445271760225296,0.12445271760225296,0.9922255277633667,123.53370666503906,108.32870483398438)" opacity="1" style="display: block;"><g opacity="1" transform="matrix(0.9816271662712097,-0.1908089965581894,0.1908089965581894,0.9816271662712097,0,0)"><path fill="rgb(41,173,182)" fill-opacity="1" d=" M-2.9341280460357666,-4.573000431060791 C-2.9351611137390137,-6.083550453186035 -1.709550380706787,-7.309999942779541 -0.19900010526180267,-7.309999942779541 C-0.19900010526180267,-7.309999942779541 0.18700002133846283,-7.309999942779541 0.18700002133846283,-7.309999942779541 C1.6975502967834473,-7.309999942779541 2.9248390197753906,-6.083550453186035 2.9258720874786377,-4.573000431060791 C2.9258720874786377,-4.573000431060791 2.9321279525756836,4.573000431060791 2.9321279525756836,4.573000431060791 C2.9331610202789307,6.083550453186035 1.707550287246704,7.309999942779541 0.19700001180171967,7.309999942779541 C0.19700001180171967,7.309999942779541 -0.18900011479854584,7.309999942779541 -0.18900011479854584,7.309999942779541 C-1.6995503902435303,7.309999942779541 -2.9268391132354736,6.083550453186035 -2.9278721809387207,4.573000431060791 C-2.9278721809387207,4.573000431060791 -2.9341280460357666,-4.573000431060791 -2.9341280460357666,-4.573000431060791z"></path></g></g><g transform="matrix(0.9922255277633667,-0.12445271760225296,0.12445271760225296,0.9922255277633667,132.26132202148438,107.23401641845703)" opacity="1" style="display: block;"><g opacity="1" transform="matrix(0.9816271662712097,-0.1908089965581894,0.1908089965581894,0.9816271662712097,0,0)"><path fill="rgb(41,173,182)" fill-opacity="1" d=" M-2.9341280460357666,-4.573000431060791 C-2.9351611137390137,-6.083550453186035 -1.709550380706787,-7.309999942779541 -0.19900010526180267,-7.309999942779541 C-0.19900010526180267,-7.309999942779541 0.18700002133846283,-7.309999942779541 0.18700002133846283,-7.309999942779541 C1.6975502967834473,-7.309999942779541 2.9248390197753906,-6.083550453186035 2.9258720874786377,-4.573000431060791 C2.9258720874786377,-4.573000431060791 2.9321279525756836,4.573000431060791 2.9321279525756836,4.573000431060791 C2.9331610202789307,6.083550453186035 1.707550287246704,7.309999942779541 0.19700001180171967,7.309999942779541 C0.19700001180171967,7.309999942779541 -0.18900011479854584,7.309999942779541 -0.18900011479854584,7.309999942779541 C-1.6995503902435303,7.309999942779541 -2.9268391132354736,6.083550453186035 -2.9278721809387207,4.573000431060791 C-2.9278721809387207,4.573000431060791 -2.9341280460357666,-4.573000431060791 -2.9341280460357666,-4.573000431060791z"></path></g></g><g transform="matrix(0.9922255277633667,-0.12445271760225296,0.12445271760225296,0.9922255277633667,140.98992919921875,106.13920593261719)" opacity="1" style="display: block;"><g opacity="1" transform="matrix(0.9816271662712097,-0.1908089965581894,0.1908089965581894,0.9816271662712097,0,0)"><path fill="rgb(41,173,182)" fill-opacity="1" d=" M-2.9341280460357666,-4.573000431060791 C-2.9351611137390137,-6.083550453186035 -1.709550380706787,-7.309999942779541 -0.19900010526180267,-7.309999942779541 C-0.19900010526180267,-7.309999942779541 0.18700002133846283,-7.309999942779541 0.18700002133846283,-7.309999942779541 C1.6975502967834473,-7.309999942779541 2.9248390197753906,-6.083550453186035 2.9258720874786377,-4.573000431060791 C2.9258720874786377,-4.573000431060791 2.9321279525756836,4.573000431060791 2.9321279525756836,4.573000431060791 C2.9331610202789307,6.083550453186035 1.707550287246704,7.309999942779541 0.19700001180171967,7.309999942779541 C0.19700001180171967,7.309999942779541 -0.18900011479854584,7.309999942779541 -0.18900011479854584,7.309999942779541 C-1.6995503902435303,7.309999942779541 -2.9268391132354736,6.083550453186035 -2.9278721809387207,4.573000431060791 C-2.9278721809387207,4.573000431060791 -2.9341280460357666,-4.573000431060791 -2.9341280460357666,-4.573000431060791z"></path></g></g><g transform="matrix(1,0,0,1,123.508056640625,134.38499450683594)" opacity="1" style="display: block;"><g opacity="1" transform="matrix(1,0,0,1,0,0)"><path fill="rgb(29,157,177)" fill-opacity="1" d=" M-0.0010000000474974513,5.114999771118164 C2.8389999866485596,5.114999771118164 5.129000186920166,2.825000047683716 5.129000186920166,0.004999999888241291 C5.129000186920166,-2.825000047683716 2.8389999866485596,-5.114999771118164 -0.0010000000474974513,-5.114999771118164 C-2.8310000896453857,-5.114999771118164 -5.13100004196167,-2.825000047683716 -5.13100004196167,0.004999999888241291 C-5.13100004196167,2.825000047683716 -2.8310000896453857,5.114999771118164 -0.0010000000474974513,5.114999771118164z"></path></g></g><g transform="matrix(1,0,0,1,151.83006286621094,134.38499450683594)" opacity="1" style="display: block;"><g opacity="1" transform="matrix(1,0,0,1,0,0)"><path fill="rgb(29,157,177)" fill-opacity="1" d=" M-0.0010000000474974513,5.114999771118164 C2.8389999866485596,5.114999771118164 5.129000186920166,2.825000047683716 5.129000186920166,0.004999999888241291 C5.129000186920166,-2.825000047683716 2.8389999866485596,-5.114999771118164 -0.0010000000474974513,-5.114999771118164 C-2.8310000896453857,-5.114999771118164 -5.13100004196167,-2.825000047683716 -5.13100004196167,0.004999999888241291 C-5.13100004196167,2.825000047683716 -2.8310000896453857,5.114999771118164 -0.0010000000474974513,5.114999771118164z"></path></g></g><g transform="matrix(0.9922255277633667,-0.12445271760225296,0.12445271760225296,0.9922255277633667,107.924072265625,103.65805053710938)" opacity="1" style="display: block;"><g opacity="1" transform="matrix(1,0,0,1,0,0)"><path stroke-linecap="round" stroke-linejoin="round" fill-opacity="0" stroke="rgb(29,157,177)" stroke-opacity="1" stroke-width="5.475" d=" M-10.508999824523926,-19.731000900268555 C-10.508999824523926,-19.731000900268555 -2.489000082015991,-19.731000900268555 -2.489000082015991,-19.731000900268555 C-0.4690000116825104,-19.731000900268555 1.2910000085830688,-18.35099983215332 1.7710000276565552,-16.381000518798828 C1.7710000276565552,-16.381000518798828 10.51099967956543,19.729000091552734 10.51099967956543,19.729000091552734"></path></g></g></g><g transform="matrix(1,0,0,1,142.38076782226562,77.75)" opacity="0.2526718750000043" style="display: none;"><g opacity="1" transform="matrix(1,0,0,1,-68.25,40.78199768066406)"><path fill="rgb(29,157,177)" fill-opacity="1" d=" M4.010687351226807,0 C4.010687351226807,0 4.010687351226807,0 4.010687351226807,0 C4.010687351226807,0.983485758304596 3.2121732234954834,1.781999945640564 2.228687286376953,1.781999945640564 C2.228687286376953,1.781999945640564 -2.228687286376953,1.781999945640564 -2.228687286376953,1.781999945640564 C-3.2121732234954834,1.781999945640564 -4.010687351226807,0.983485758304596 -4.010687351226807,0 C-4.010687351226807,0 -4.010687351226807,0 -4.010687351226807,0 C-4.010687351226807,-0.983485758304596 -3.2121732234954834,-1.781999945640564 -2.228687286376953,-1.781999945640564 C-2.228687286376953,-1.781999945640564 2.228687286376953,-1.781999945640564 2.228687286376953,-1.781999945640564 C3.2121732234954834,-1.781999945640564 4.010687351226807,-0.983485758304596 4.010687351226807,0z"></path></g></g><g transform="matrix(1,0,0,1,172.29574584960938,62.75)" opacity="0.23062500000290953" style="display: block;"><g opacity="1" transform="matrix(1,0,0,1,-68.25,40.78199768066406)"><path fill="rgb(29,157,177)" fill-opacity="1" d=" M1.0598610639572144,-0.7221388816833496 C1.0598610639572144,-0.7221388816833496 1.0598610639572144,0.7221388816833496 1.0598610639572144,0.7221388816833496 C1.0598610639572144,1.3070762157440186 0.584937334060669,1.781999945640564 0,1.781999945640564 C0,1.781999945640564 0,1.781999945640564 0,1.781999945640564 C-0.584937334060669,1.781999945640564 -1.0598610639572144,1.3070762157440186 -1.0598610639572144,0.7221388816833496 C-1.0598610639572144,0.7221388816833496 -1.0598610639572144,-0.7221388816833496 -1.0598610639572144,-0.7221388816833496 C-1.0598610639572144,-1.3070762157440186 -0.584937334060669,-1.781999945640564 0,-1.781999945640564 C0,-1.781999945640564 0,-1.781999945640564 0,-1.781999945640564 C0.584937334060669,-1.781999945640564 1.0598610639572144,-1.3070762157440186 1.0598610639572144,-0.7221388816833496z"></path></g></g></g></g></svg>