<svg width="297" height="103" viewBox="0 0 297 103" fill="none" xmlns="http://www.w3.org/2000/svg">
    <path d="M6.392 11.9026C6.584 13.1506 6.792 14.6226 7.016 16.3186C7.272 17.9826 7.576 19.6786 7.928 21.4066C8.28 23.1026 8.696 24.7506 9.176 26.3506C9.688 27.9186 10.312 29.2306 11.048 30.2866C11.752 31.2786 12.392 31.7426 12.968 31.6786C13.576 31.5826 14.104 31.2466 14.552 30.6706C15.032 30.0626 15.432 29.3586 15.752 28.5586C16.072 27.7266 16.28 27.0546 16.376 26.5426C16.6 25.4866 16.824 24.2386 17.048 22.7986C17.272 21.3266 17.496 19.8226 17.72 18.2866C17.944 16.7506 18.168 15.2466 18.392 13.7746C18.648 12.2706 18.92 10.9426 19.208 9.79059C19.496 8.63859 19.816 7.71059 20.168 7.00659C20.552 6.30259 20.968 5.96659 21.416 5.99859C21.672 5.96659 21.832 6.19059 21.896 6.67059C21.992 7.11859 22.024 7.69459 21.992 8.39859C21.96 9.10259 21.912 9.85459 21.848 10.6546C21.784 11.4226 21.736 12.0946 21.704 12.6706C21.64 13.6626 21.624 14.6546 21.656 15.6466C21.72 16.6386 21.768 17.6466 21.8 18.6706C21.864 19.6626 21.896 20.6706 21.896 21.6946C21.896 22.6866 21.832 23.6946 21.704 24.7186C21.544 25.9346 21.304 27.2786 20.984 28.7506C20.696 30.2226 20.248 31.5826 19.64 32.8306C19.032 34.0786 18.2 35.1346 17.144 35.9986C16.12 36.8306 14.792 37.2306 13.16 37.1986C10.888 37.1666 8.984 36.6546 7.448 35.6626C5.912 34.6386 4.68 33.3266 3.752 31.7266C2.824 30.1266 2.152 28.3186 1.736 26.3026C1.32 24.2546 1.064 22.1746 0.968 20.0626C0.872 17.9186 0.888 15.8226 1.016 13.7746C1.176 11.6946 1.368 9.85459 1.592 8.25459C1.848 6.62259 2.072 5.29459 2.264 4.27059C2.488 3.24659 2.616 2.68659 2.648 2.59059C3.128 2.30259 3.544 2.30259 3.896 2.59059C4.28 2.87859 4.6 3.32659 4.856 3.93459C5.144 4.54259 5.368 5.26259 5.528 6.09459C5.72 6.89459 5.88 7.69459 6.008 8.49459C6.136 9.26259 6.216 9.96659 6.248 10.6066C6.312 11.2146 6.36 11.6466 6.392 11.9026ZM25.958 17.6626C26.63 17.3426 27.27 17.1826 27.878 17.1826C28.486 17.1826 29.014 17.2946 29.462 17.5186C29.91 17.7426 30.262 18.0626 30.518 18.4786C30.774 18.8626 30.886 19.2786 30.854 19.7266C30.598 21.8066 30.614 23.7426 30.902 25.5346C31.19 27.2946 31.574 28.7986 32.054 30.0466C32.534 31.2626 33.03 32.1586 33.542 32.7346C34.086 33.3106 34.454 33.4226 34.646 33.0706C34.838 32.7186 35.062 31.9826 35.318 30.8626C35.574 29.7106 35.894 28.4466 36.278 27.0706C36.694 25.6946 37.206 24.3506 37.814 23.0386C38.422 21.6946 39.19 20.6546 40.118 19.9186C41.046 19.1826 41.846 18.7826 42.518 18.7186C43.19 18.6546 43.766 18.7986 44.246 19.1506C44.726 19.5026 45.126 20.0146 45.446 20.6866C45.798 21.3266 46.118 21.9826 46.406 22.6546C46.694 23.3586 46.95 24.2706 47.174 25.3906C47.43 26.4786 47.686 27.5186 47.942 28.5106C48.23 29.5026 48.518 30.3026 48.806 30.9106C49.126 31.4866 49.51 31.6146 49.958 31.2946C50.246 31.0706 50.502 30.6386 50.726 29.9986C50.95 29.3266 51.158 28.5586 51.35 27.6946C51.542 26.7986 51.75 25.8866 51.974 24.9586C52.23 24.0306 52.534 23.1826 52.886 22.4146C53.238 21.6146 53.67 20.9906 54.182 20.5426C54.726 20.0626 55.382 19.8546 56.15 19.9186C57.142 20.0146 58.038 20.2866 58.838 20.7346C59.67 21.1506 60.326 21.5826 60.806 22.0306C61.286 22.4786 61.574 22.8626 61.67 23.1826C61.766 23.5026 61.606 23.6146 61.19 23.5186C60.742 23.3906 60.294 23.3586 59.846 23.4226C59.43 23.4546 59.03 23.6466 58.646 23.9986C58.262 24.3186 57.91 24.8306 57.59 25.5346C57.27 26.2066 56.982 27.1026 56.726 28.2226C56.47 29.3426 56.214 30.3666 55.958 31.2946C55.734 32.2226 55.43 33.0386 55.046 33.7426C54.694 34.4466 54.23 35.0226 53.654 35.4706C53.078 35.8866 52.326 36.1426 51.398 36.2386C50.534 36.3346 49.734 36.1586 48.998 35.7106C48.262 35.2306 47.59 34.6226 46.982 33.8866C46.406 33.1186 45.91 32.2866 45.494 31.3906C45.11 30.4946 44.854 29.6626 44.726 28.8946C44.566 28.1586 44.422 27.6466 44.294 27.3586C44.198 27.0386 44.086 26.9266 43.958 27.0226C43.862 27.1186 43.734 27.3906 43.574 27.8386C43.414 28.2866 43.19 28.8786 42.902 29.6146C42.646 30.3506 42.39 31.0866 42.134 31.8226C41.878 32.5586 41.542 33.2466 41.126 33.8866C40.71 34.4946 40.166 35.0546 39.494 35.5666C38.854 36.0466 37.99 36.3986 36.902 36.6226C35.846 36.8466 34.838 36.8466 33.878 36.6226C32.95 36.3666 32.086 35.9826 31.286 35.4706C30.518 34.9586 29.83 34.3826 29.222 33.7426C28.614 33.0706 28.118 32.4146 27.734 31.7746C27.478 31.3586 27.19 30.7666 26.87 29.9986C26.55 29.1986 26.246 28.3186 25.958 27.3586C25.67 26.3666 25.414 25.3586 25.19 24.3346C24.998 23.2786 24.87 22.3026 24.806 21.4066C24.774 20.4786 24.838 19.6786 24.998 19.0066C25.19 18.3346 25.51 17.8866 25.958 17.6626ZM83.3979 32.7826C83.5259 33.3586 83.6379 33.9506 83.7339 34.5586C83.8299 35.1346 83.7979 35.7266 83.6379 36.3346C83.3819 36.7186 83.0139 36.9586 82.5339 37.0546C82.0539 37.1506 81.5419 37.1506 80.9979 37.0546C80.4859 36.9586 79.9739 36.8146 79.4619 36.6226C78.9819 36.3986 78.5979 36.1906 78.3099 35.9986C77.7659 34.4306 77.3819 32.7986 77.1579 31.1026C76.9339 29.4066 76.8059 27.7106 76.7739 26.0146C76.7419 24.3186 76.7739 22.6386 76.8699 20.9746C76.9659 19.3106 77.0939 17.7426 77.2539 16.2706C77.3179 15.1826 77.5099 14.0306 77.8299 12.8146C78.1819 11.5986 78.6299 10.4306 79.1739 9.31059C79.7179 8.15859 80.3739 7.10259 81.1419 6.14259C81.9099 5.18259 82.7739 4.44659 83.7339 3.93459C84.7259 3.39059 85.8139 3.10259 86.9979 3.07059C88.1819 3.03859 89.4459 3.37459 90.7899 4.07859C92.1339 4.78259 93.0139 5.67859 93.4299 6.76659C93.8459 7.85459 93.9259 9.03859 93.6699 10.3186C93.4459 11.5666 92.9339 12.8466 92.1339 14.1586C91.3339 15.4386 90.4059 16.6226 89.3499 17.7106C88.3259 18.7986 87.2219 19.7106 86.0379 20.4466C84.8859 21.1826 83.7979 21.6146 82.7739 21.7426C82.7099 23.5666 82.7099 25.4066 82.7739 27.2626C82.8379 29.1186 83.0459 30.9586 83.3979 32.7826ZM90.1659 6.28659C88.9179 6.25459 87.8459 6.57459 86.9499 7.24659C86.0859 7.91859 85.3659 8.73459 84.7899 9.69459C84.2139 10.6546 83.7979 11.6786 83.5419 12.7666C83.2859 13.8226 83.1739 14.7026 83.2059 15.4066C83.2699 15.3746 83.5259 15.2306 83.9739 14.9746C84.4539 14.7186 85.0139 14.3986 85.6539 14.0146C86.2939 13.5986 86.9499 13.1186 87.6219 12.5746C88.3259 11.9986 88.9179 11.3906 89.3979 10.7506C89.9099 10.0786 90.2619 9.37459 90.4539 8.63859C90.6459 7.87059 90.5499 7.08659 90.1659 6.28659ZM92.438 18.4306C92.918 17.5666 93.526 16.8306 94.262 16.2226C95.03 15.5826 95.846 15.0706 96.71 14.6866C97.606 14.3026 98.534 14.0306 99.494 13.8706C100.486 13.7106 101.446 13.6466 102.374 13.6786C103.334 13.7426 104.15 14.0786 104.822 14.6866C105.494 15.2626 105.958 16.0146 106.214 16.9426C106.502 17.8386 106.534 18.8306 106.31 19.9186C106.118 21.0066 105.622 22.0946 104.822 23.1826C103.926 24.3986 102.998 25.2946 102.038 25.8706C101.11 26.4146 100.246 26.8146 99.446 27.0706C98.518 27.3586 97.59 27.4706 96.662 27.4066C96.598 28.5906 96.694 29.6306 96.95 30.5266C97.046 30.9106 97.174 31.2786 97.334 31.6306C97.526 31.9826 97.766 32.2866 98.054 32.5426C98.342 32.7986 98.678 32.9906 99.062 33.1186C99.478 33.2466 99.958 33.2786 100.502 33.2146C101.654 33.0546 102.598 32.6866 103.334 32.1106C104.07 31.5346 104.678 30.9266 105.158 30.2866C105.67 29.6466 106.086 29.0866 106.406 28.6066C106.726 28.0946 107.046 27.8386 107.366 27.8386C107.59 27.8386 107.734 28.1426 107.798 28.7506C107.862 29.3266 107.798 30.0466 107.606 30.9106C107.446 31.7426 107.142 32.6386 106.694 33.5986C106.246 34.5266 105.606 35.3426 104.774 36.0466C103.974 36.7506 102.966 37.2466 101.75 37.5346C100.534 37.8546 99.078 37.7906 97.382 37.3426C95.846 36.9586 94.614 36.2386 93.686 35.1826C92.758 34.0946 92.054 32.9746 91.574 31.8226C90.998 30.5106 90.614 29.0546 90.422 27.4546C90.294 26.5586 90.294 25.6146 90.422 24.6226C90.486 23.7906 90.662 22.8306 90.95 21.7426C91.27 20.6546 91.766 19.5506 92.438 18.4306ZM96.758 23.8066C97.27 23.8066 97.798 23.7426 98.342 23.6146C98.79 23.4866 99.286 23.2626 99.83 22.9426C100.374 22.6226 100.886 22.1426 101.366 21.5026C101.814 20.8626 102.134 20.2866 102.326 19.7746C102.518 19.2626 102.646 18.8306 102.71 18.4786C102.806 18.0946 102.822 17.7426 102.758 17.4226C102.118 17.4866 101.51 17.6146 100.934 17.8066C100.422 17.9666 99.91 18.2226 99.398 18.5746C98.886 18.8946 98.47 19.3586 98.15 19.9666C97.766 20.6706 97.478 21.2626 97.286 21.7426C97.094 22.2226 96.966 22.6226 96.902 22.9426C96.806 23.2946 96.758 23.5826 96.758 23.8066ZM109.418 17.7586C109.066 17.5666 108.714 17.4546 108.362 17.4226C108.01 17.3586 107.69 17.3266 107.402 17.3266C107.082 17.2946 106.826 17.2466 106.634 17.1826C106.442 17.1186 106.33 16.9426 106.298 16.6546C106.298 16.5266 106.57 16.2866 107.114 15.9346C107.626 15.5506 108.266 15.2466 109.034 15.0226C109.834 14.7986 110.682 14.7186 111.578 14.7826C112.474 14.8466 113.306 15.2466 114.074 15.9826C114.714 16.6226 115.242 17.2306 115.658 17.8066C116.074 18.3506 116.41 18.8306 116.666 19.2466C116.986 19.7586 117.226 20.2066 117.386 20.5906C118.282 19.7266 119.21 19.0066 120.17 18.4306C121.002 17.9186 121.93 17.5026 122.954 17.1826C123.978 16.8626 125.002 16.8466 126.026 17.1346C126.282 17.2306 126.394 17.4386 126.362 17.7586C126.362 18.0466 126.234 18.3666 125.978 18.7186C125.754 19.0706 125.434 19.4066 125.018 19.7266C124.602 20.0466 124.106 20.2706 123.53 20.3986C122.41 20.6546 121.514 21.1346 120.842 21.8386C120.202 22.5426 119.706 23.3746 119.354 24.3346C119.002 25.2626 118.778 26.2706 118.682 27.3586C118.586 28.4146 118.538 29.4386 118.538 30.4306C118.57 32.5106 118.282 34.0626 117.674 35.0866C117.066 36.0786 116.25 36.6066 115.226 36.6706C114.042 36.7346 113.162 36.1906 112.586 35.0386C112.01 33.8866 111.722 31.9346 111.722 29.1826C111.786 25.6946 111.626 23.0386 111.242 21.2146C110.858 19.3586 110.25 18.2066 109.418 17.7586ZM137.438 13.6306C137.566 13.8866 137.55 14.0946 137.39 14.2546C137.23 14.3826 136.99 14.5266 136.67 14.6866C136.382 14.8146 136.046 14.9906 135.662 15.2146C135.278 15.4066 134.91 15.6946 134.558 16.0786C134.206 16.4626 133.902 16.9586 133.646 17.5666C133.422 18.1746 133.31 18.9426 133.31 19.8706C133.278 20.7986 133.486 21.6946 133.934 22.5586C134.414 23.4226 134.99 24.2706 135.662 25.1026C136.334 25.9026 137.07 26.7026 137.87 27.5026C138.67 28.2706 139.39 29.0706 140.03 29.9026C140.67 30.7026 141.166 31.5346 141.518 32.3986C141.902 33.2306 142.03 34.0946 141.902 34.9906C141.742 35.8866 141.23 36.6386 140.366 37.2466C139.534 37.8866 138.51 38.3666 137.294 38.6866C136.078 39.0386 134.766 39.2306 133.358 39.2626C131.95 39.2946 130.622 39.1666 129.374 38.8786C128.158 38.6226 127.102 38.2066 126.206 37.6306C125.31 37.0546 124.75 36.3186 124.526 35.4226C124.174 34.1106 124.078 33.0066 124.238 32.1106C124.366 31.2146 124.622 30.4786 125.006 29.9026C125.39 29.2946 125.822 28.8306 126.302 28.5106C126.782 28.1586 127.198 27.8866 127.55 27.6946C128.286 27.2786 128.766 27.2786 128.99 27.6946C129.246 28.1106 129.102 28.7666 128.558 29.6626C128.302 30.1106 128.238 30.6226 128.366 31.1986C128.494 31.7426 128.782 32.2706 129.23 32.7826C129.71 33.2626 130.302 33.6786 131.006 34.0306C131.742 34.3826 132.574 34.5746 133.502 34.6066C134.078 34.6386 134.654 34.5906 135.23 34.4626C135.838 34.3026 136.334 34.0786 136.718 33.7906C137.102 33.4706 137.326 33.1026 137.39 32.6866C137.486 32.2386 137.326 31.7426 136.91 31.1986C136.494 30.6546 135.774 29.9666 134.75 29.1346C133.726 28.3026 132.67 27.3906 131.582 26.3986C130.526 25.3746 129.582 24.3026 128.75 23.1826C127.95 22.0306 127.55 20.8786 127.55 19.7266C127.55 17.4546 127.95 15.7906 128.75 14.7346C129.582 13.6786 130.91 12.9906 132.734 12.6706C133.63 12.5106 134.366 12.4466 134.942 12.4786C135.518 12.4786 135.966 12.5426 136.286 12.6706C136.638 12.7986 136.894 12.9586 137.054 13.1506C137.214 13.3106 137.342 13.4706 137.438 13.6306ZM154.043 16.4146C155.515 17.3106 156.651 18.4146 157.451 19.7266C158.251 21.0066 158.763 22.3666 158.987 23.8066C159.243 25.2146 159.211 26.6226 158.891 28.0306C158.571 29.4386 158.027 30.7186 157.259 31.8706C156.523 32.9906 155.579 33.9186 154.427 34.6546C153.275 35.3906 151.963 35.7746 150.491 35.8066C148.635 35.8386 147.067 35.4386 145.787 34.6066C144.539 33.7426 143.579 32.6546 142.907 31.3426C142.235 30.0306 141.835 28.6066 141.707 27.0706C141.611 25.5026 141.787 24.0466 142.235 22.7026C142.683 21.3266 143.419 20.1586 144.443 19.1986C145.467 18.2386 146.747 17.7106 148.283 17.6146C149.691 17.5186 150.715 17.3746 151.355 17.1826C151.995 16.9586 152.459 16.7666 152.747 16.6066C153.035 16.4146 153.227 16.2866 153.323 16.2226C153.451 16.1586 153.691 16.2226 154.043 16.4146ZM148.427 20.5906C148.235 20.7826 148.075 21.2466 147.947 21.9826C147.819 22.7186 147.723 23.5826 147.659 24.5746C147.627 25.5666 147.643 26.6066 147.707 27.6946C147.771 28.7826 147.883 29.7746 148.043 30.6706C148.235 31.5666 148.491 32.3026 148.811 32.8786C149.131 33.4546 149.515 33.7106 149.963 33.6466C150.411 33.5826 150.843 33.2946 151.259 32.7826C151.675 32.2386 152.043 31.5826 152.363 30.8146C152.715 30.0146 152.987 29.1506 153.179 28.2226C153.403 27.2626 153.531 26.3346 153.563 25.4386C153.627 24.5426 153.579 23.7266 153.419 22.9906C153.259 22.2546 152.987 21.6946 152.603 21.3106C151.707 20.3826 150.939 19.8866 150.299 19.8226C149.691 19.7266 149.067 19.9826 148.427 20.5906ZM173.168 16.4146C174.64 17.3106 175.776 18.4146 176.576 19.7266C177.376 21.0066 177.888 22.3666 178.112 23.8066C178.368 25.2146 178.336 26.6226 178.016 28.0306C177.696 29.4386 177.152 30.7186 176.384 31.8706C175.648 32.9906 174.704 33.9186 173.552 34.6546C172.4 35.3906 171.088 35.7746 169.616 35.8066C167.76 35.8386 166.192 35.4386 164.912 34.6066C163.664 33.7426 162.704 32.6546 162.032 31.3426C161.36 30.0306 160.96 28.6066 160.832 27.0706C160.736 25.5026 160.912 24.0466 161.36 22.7026C161.808 21.3266 162.544 20.1586 163.568 19.1986C164.592 18.2386 165.872 17.7106 167.408 17.6146C168.816 17.5186 169.84 17.3746 170.48 17.1826C171.12 16.9586 171.584 16.7666 171.872 16.6066C172.16 16.4146 172.352 16.2866 172.448 16.2226C172.576 16.1586 172.816 16.2226 173.168 16.4146ZM167.552 20.5906C167.36 20.7826 167.2 21.2466 167.072 21.9826C166.944 22.7186 166.848 23.5826 166.784 24.5746C166.752 25.5666 166.768 26.6066 166.832 27.6946C166.896 28.7826 167.008 29.7746 167.168 30.6706C167.36 31.5666 167.616 32.3026 167.936 32.8786C168.256 33.4546 168.64 33.7106 169.088 33.6466C169.536 33.5826 169.968 33.2946 170.384 32.7826C170.8 32.2386 171.168 31.5826 171.488 30.8146C171.84 30.0146 172.112 29.1506 172.304 28.2226C172.528 27.2626 172.656 26.3346 172.688 25.4386C172.752 24.5426 172.704 23.7266 172.544 22.9906C172.384 22.2546 172.112 21.6946 171.728 21.3106C170.832 20.3826 170.064 19.8866 169.424 19.8226C168.816 19.7266 168.192 19.9826 167.552 20.5906ZM181.013 19.4866C181.205 19.1666 181.477 18.8786 181.829 18.6226C182.213 18.3346 182.597 18.0946 182.981 17.9026C183.397 17.6786 183.797 17.5186 184.181 17.4226C184.597 17.2946 184.933 17.2306 185.189 17.2306C185.317 17.2306 185.413 17.3586 185.477 17.6146C185.573 17.8706 185.653 18.2066 185.717 18.6226C185.813 19.0386 185.877 19.5186 185.909 20.0626C185.941 20.5746 185.973 21.1026 186.005 21.6466C186.069 22.9266 186.085 24.3826 186.053 26.0146C186.469 25.1826 186.917 24.3666 187.397 23.5666C187.813 22.8946 188.293 22.2066 188.837 21.5026C189.381 20.7666 189.941 20.1426 190.517 19.6306C191.061 19.1506 191.653 18.7826 192.293 18.5266C192.965 18.2706 193.637 18.1746 194.309 18.2386C194.981 18.2706 195.621 18.5106 196.229 18.9586C196.869 19.4066 197.429 20.0786 197.909 20.9746C198.229 21.5826 198.469 22.3506 198.629 23.2786C198.789 24.1746 198.901 25.1346 198.965 26.1586C199.061 27.1506 199.141 28.1586 199.205 29.1826C199.301 30.2066 199.445 31.1506 199.637 32.0146C199.861 32.8786 200.149 33.6146 200.501 34.2226C200.885 34.8306 201.429 35.2146 202.133 35.3746C202.709 35.5346 203.269 35.5506 203.813 35.4226C204.389 35.2626 204.917 35.0706 205.397 34.8466C205.909 34.5906 206.341 34.3826 206.693 34.2226C207.077 34.0306 207.349 33.9826 207.509 34.0786C207.637 34.2066 207.557 34.5586 207.269 35.1346C207.013 35.7106 206.565 36.3026 205.925 36.9106C205.317 37.5186 204.533 38.0306 203.573 38.4466C202.645 38.8946 201.573 39.0386 200.357 38.8786C197.957 38.5586 196.229 37.3266 195.173 35.1826C194.117 33.0066 193.509 30.1746 193.349 26.6866C193.285 25.4386 193.125 24.5106 192.869 23.9026C192.645 23.2946 192.341 22.9746 191.957 22.9426C191.573 22.9106 191.125 23.1346 190.613 23.6146C190.133 24.0626 189.605 24.7186 189.029 25.5826C188.357 26.5746 187.861 27.5666 187.541 28.5586C187.221 29.5506 186.997 30.4786 186.869 31.3426C186.773 32.2066 186.709 32.9746 186.677 33.6466C186.645 34.3186 186.565 34.8146 186.437 35.1346C186.277 35.4866 185.941 35.7266 185.429 35.8546C184.917 35.9826 184.357 36.0466 183.749 36.0466C183.173 36.0466 182.597 35.9826 182.021 35.8546C181.477 35.7266 181.093 35.5666 180.869 35.3746C180.741 35.2466 180.629 34.7986 180.533 34.0306C180.469 33.2306 180.421 32.2866 180.389 31.1986C180.357 30.0786 180.341 28.8946 180.341 27.6466C180.373 26.3666 180.405 25.1666 180.437 24.0466C180.501 22.8946 180.581 21.9026 180.677 21.0706C180.773 20.2386 180.885 19.7106 181.013 19.4866ZM219.701 7.82259C219.381 10.0306 218.821 11.9346 218.021 13.5346C217.221 15.1346 216.389 16.4466 215.525 17.4706C214.501 18.6866 213.397 19.6786 212.213 20.4466C211.989 21.3106 211.909 22.2706 211.973 23.3266C212.037 24.2546 212.213 25.3586 212.501 26.6386C212.789 27.8866 213.333 29.3106 214.133 30.9106C214.613 31.8706 215.141 32.5746 215.717 33.0226C216.293 33.4386 216.885 33.6786 217.493 33.7426C218.101 33.8066 218.709 33.7266 219.317 33.5026C219.957 33.2786 220.549 32.9906 221.093 32.6386C221.669 32.2546 222.197 31.8386 222.677 31.3906C223.157 30.9106 223.557 30.4786 223.877 30.0946C224.357 29.5506 224.725 29.2306 224.981 29.1346C225.237 29.0066 225.429 29.0226 225.557 29.1826C225.685 29.3106 225.749 29.5186 225.749 29.8066C225.749 30.0946 225.701 30.3666 225.605 30.6226C225.061 32.0626 224.341 33.3266 223.445 34.4146C223.061 34.8946 222.613 35.3586 222.101 35.8066C221.589 36.2546 221.013 36.6546 220.373 37.0066C219.765 37.3266 219.077 37.5826 218.309 37.7746C217.541 37.9666 216.709 38.0306 215.813 37.9666C214.661 37.9346 213.621 37.6786 212.693 37.1986C211.797 36.7506 210.997 36.1906 210.293 35.5186C209.589 34.8146 208.981 34.0306 208.469 33.1666C207.957 32.2706 207.509 31.3746 207.125 30.4786C206.261 28.3666 205.653 25.9826 205.301 23.3266C205.237 23.3906 205.109 23.4386 204.917 23.4706C204.757 23.5026 204.501 23.5346 204.149 23.5666C203.829 23.5666 203.349 23.5346 202.709 23.4706C202.133 23.4386 201.717 23.2946 201.461 23.0386C201.173 22.7826 201.045 22.5106 201.077 22.2226C201.077 21.9346 201.221 21.6466 201.509 21.3586C201.797 21.0706 202.229 20.8466 202.805 20.6866C203.445 20.5266 203.941 20.3506 204.293 20.1586C204.645 19.9666 204.933 19.7906 205.157 19.6306C205.381 19.4386 205.557 19.2306 205.685 19.0066C205.621 18.5906 205.605 18.0306 205.637 17.3266C205.669 16.7186 205.717 15.9346 205.781 14.9746C205.877 13.9826 206.037 12.7666 206.261 11.3266C206.485 9.88659 206.821 8.54259 207.269 7.29459C207.717 6.01459 208.309 4.89459 209.045 3.93459C209.781 2.97459 210.677 2.22259 211.733 1.67859C212.821 1.10259 214.101 0.814591 215.573 0.814591C216.533 0.91059 217.349 1.23059 218.021 1.77459C218.597 2.22259 219.077 2.92659 219.461 3.88659C219.845 4.84659 219.925 6.15859 219.701 7.82259ZM211.301 15.9346C211.813 15.3266 212.325 14.6706 212.837 13.9666C213.285 13.3586 213.749 12.6866 214.229 11.9506C214.709 11.1826 215.157 10.4146 215.573 9.64659C215.861 9.10259 216.101 8.52659 216.293 7.91859C216.517 7.31059 216.645 6.75059 216.677 6.23859C216.741 5.69459 216.661 5.24659 216.437 4.89459C216.245 4.51059 215.893 4.28659 215.381 4.22259C214.965 4.15859 214.581 4.28659 214.229 4.60659C213.909 4.89459 213.605 5.31059 213.317 5.85459C213.061 6.39859 212.837 7.02259 212.645 7.72659C212.453 8.43059 212.277 9.15059 212.117 9.88659C211.765 11.6466 211.493 13.6626 211.301 15.9346ZM220.397 28.0786C220.653 27.7266 220.893 27.4066 221.117 27.1186C221.341 26.7986 221.549 26.4466 221.741 26.0626C221.965 25.6466 222.157 25.1666 222.317 24.6226C222.509 24.0786 222.669 23.4066 222.797 22.6066C222.925 21.8066 223.005 21.0706 223.037 20.3986C223.069 19.6946 223.117 19.1026 223.181 18.6226C223.245 18.1106 223.357 17.6946 223.517 17.3746C223.677 17.0546 223.965 16.8466 224.381 16.7506C224.765 16.6866 225.293 16.5586 225.965 16.3666C226.669 16.1746 227.325 16.0786 227.933 16.0786C228.573 16.0786 229.085 16.2706 229.469 16.6546C229.885 17.0066 229.997 17.7106 229.805 18.7666C229.709 19.1826 229.613 19.7906 229.517 20.5906C229.453 21.3906 229.389 22.2866 229.325 23.2786C229.261 24.2386 229.229 25.2466 229.229 26.3026C229.261 27.3266 229.341 28.2866 229.469 29.1826C229.597 30.0786 229.789 30.8466 230.045 31.4866C230.333 32.1266 230.717 32.5426 231.197 32.7346C232.157 33.1186 232.941 33.1186 233.549 32.7346C234.189 32.3506 234.845 31.7426 235.517 30.9106C235.805 30.5586 236.109 30.2706 236.429 30.0466C236.749 29.7906 237.005 29.6946 237.197 29.7586C237.421 29.7906 237.517 30.0146 237.485 30.4306C237.453 30.8146 237.213 31.4866 236.765 32.4466C235.869 34.3666 234.717 35.6466 233.309 36.2866C231.901 36.8946 230.237 37.0066 228.317 36.6226C227.261 36.3986 226.413 35.8866 225.773 35.0866C225.133 34.2866 224.637 33.4546 224.285 32.5906C223.933 31.6946 223.677 30.8786 223.517 30.1426C223.357 29.4066 223.213 29.0066 223.085 28.9426C222.925 28.8466 222.781 28.8306 222.653 28.8946C222.557 28.9266 222.445 29.0066 222.317 29.1346C222.189 29.2306 222.029 29.3426 221.837 29.4706C221.645 29.5986 221.405 29.6946 221.117 29.7586C220.445 29.8866 220.061 29.7906 219.965 29.4706C219.837 29.1186 219.981 28.6546 220.397 28.0786ZM225.053 4.36659C225.469 3.66259 226.061 3.27859 226.829 3.21459C227.597 3.11859 228.349 3.21459 229.085 3.50259C229.821 3.79059 230.429 4.19059 230.909 4.70259C231.389 5.21459 231.565 5.67859 231.437 6.09459C231.277 6.47859 231.021 6.81459 230.669 7.10259C230.317 7.35859 229.917 7.58259 229.469 7.77459C229.021 7.93459 228.557 8.06259 228.077 8.15859C227.597 8.22259 227.181 8.23859 226.829 8.20659C226.445 8.17459 226.093 8.03059 225.773 7.77459C225.453 7.51859 225.197 7.21459 225.005 6.86259C224.813 6.51059 224.701 6.11059 224.669 5.66259C224.669 5.21459 224.797 4.78259 225.053 4.36659ZM247.319 28.3186C247.159 28.5106 247.095 28.9106 247.127 29.5186C247.191 30.1266 247.287 30.8466 247.415 31.6786C247.543 32.5106 247.671 33.4066 247.799 34.3666C247.959 35.3266 248.039 36.2546 248.039 37.1506C248.039 38.0466 248.007 38.8146 247.943 39.4546C247.911 40.1266 247.831 40.7506 247.703 41.3266C247.607 41.9026 247.463 42.4626 247.271 43.0066C247.111 43.5826 246.903 44.2226 246.647 44.9266C246.295 45.8226 245.911 46.6386 245.495 47.3746C245.079 48.1106 244.583 48.7666 244.007 49.3426C243.463 49.9186 242.823 50.3986 242.087 50.7826C241.383 51.1666 240.551 51.4546 239.591 51.6466C237.735 51.9026 236.327 51.7266 235.367 51.1186C234.407 50.5106 233.751 49.6466 233.399 48.5266C233.015 47.4386 232.887 46.1906 233.015 44.7826C233.111 43.3746 233.287 42.0146 233.543 40.7026C233.895 38.2066 234.679 35.8866 235.895 33.7426C237.143 31.5666 238.839 29.7586 240.983 28.3186C240.791 27.0706 240.439 25.8546 239.927 24.6706C239.447 23.4546 238.967 22.3346 238.487 21.3106C238.007 20.2546 237.607 19.3266 237.287 18.5266C236.967 17.7266 236.903 17.1026 237.095 16.6546C237.447 16.3986 237.863 16.2546 238.343 16.2226C238.855 16.1906 239.367 16.2546 239.879 16.4146C240.423 16.5426 240.951 16.7346 241.463 16.9906C241.975 17.2146 242.407 17.4546 242.759 17.7106C243.207 18.1586 243.591 18.7026 243.911 19.3426C244.231 19.9506 244.503 20.6066 244.727 21.3106C244.983 22.0146 245.191 22.7346 245.351 23.4706C245.543 24.2066 245.735 24.8786 245.927 25.4866C246.055 25.4226 246.359 25.3266 246.839 25.1986C247.319 25.0386 247.879 24.8786 248.519 24.7186C249.191 24.5266 249.879 24.3666 250.583 24.2386C251.319 24.0786 251.991 23.9826 252.599 23.9506C253.239 23.9186 253.751 23.9666 254.135 24.0946C254.551 24.2226 254.759 24.4626 254.759 24.8146C254.759 25.1666 254.439 25.4866 253.799 25.7746C253.159 26.0306 252.407 26.3026 251.543 26.5906C250.711 26.8466 249.879 27.1186 249.047 27.4066C248.247 27.6626 247.671 27.9666 247.319 28.3186ZM237.767 45.9826C238.471 46.0786 239.095 45.9506 239.639 45.5986C240.183 45.2466 240.647 44.7826 241.031 44.2066C241.415 43.6306 241.703 42.9906 241.895 42.2866C242.119 41.6146 242.279 40.9586 242.375 40.3186C242.471 39.9666 242.535 39.4066 242.567 38.6386C242.631 37.9026 242.631 37.1346 242.567 36.3346C242.535 35.5026 242.439 34.7346 242.279 34.0306C242.151 33.2946 241.959 32.7986 241.703 32.5426C240.999 32.9586 240.327 33.5666 239.687 34.3666C239.047 35.1666 238.487 36.0466 238.007 37.0066C237.527 37.9346 237.127 38.9106 236.807 39.9346C236.519 40.9586 236.343 41.8866 236.279 42.7186C236.215 43.5826 236.295 44.3026 236.519 44.8786C236.775 45.4866 237.191 45.8546 237.767 45.9826ZM240.263 12.4306C240.007 12.3346 239.687 12.2706 239.303 12.2386C238.951 12.1746 238.599 12.0946 238.247 11.9986C237.895 11.8706 237.575 11.7106 237.287 11.5186C236.999 11.2946 236.807 11.0066 236.711 10.6546C236.583 9.82259 236.615 9.19859 236.807 8.78259C236.999 8.36659 237.271 8.09459 237.623 7.96659C238.007 7.83859 238.423 7.83859 238.871 7.96659C239.351 8.06259 239.815 8.23859 240.263 8.49459C240.743 8.75059 241.159 9.03859 241.511 9.35859C241.895 9.67859 242.183 9.98259 242.375 10.2706C242.567 10.5266 242.631 10.7986 242.567 11.0866C242.503 11.3746 242.359 11.6306 242.135 11.8546C241.911 12.0786 241.623 12.2546 241.271 12.3826C240.951 12.5106 240.615 12.5266 240.263 12.4306ZM260.702 19.3906C260.958 18.7826 261.278 18.1106 261.662 17.3746C262.078 16.6386 262.734 15.8066 263.63 14.8786C263.982 14.4946 264.478 14.0786 265.118 13.6306C265.79 13.1506 266.51 12.7986 267.278 12.5746C268.046 12.3506 268.83 12.3506 269.63 12.5746C270.462 12.7666 271.23 13.3426 271.934 14.3026C272.606 15.2626 272.99 16.3186 273.086 17.4706C273.214 18.6226 273.102 19.7586 272.75 20.8786C272.398 21.9666 271.854 22.9586 271.118 23.8546C270.414 24.7506 269.582 25.4066 268.622 25.8226C268.526 25.8546 268.526 26.0946 268.622 26.5426C268.718 26.9906 268.878 27.5186 269.102 28.1266C269.358 28.7346 269.678 29.3426 270.062 29.9506C270.446 30.5586 270.894 31.0386 271.406 31.3906C271.918 31.7746 272.446 31.9506 272.99 31.9186C273.566 31.8866 274.126 31.7426 274.67 31.4866C275.214 31.2306 275.742 30.9266 276.254 30.5746C276.766 30.1906 277.23 29.8386 277.646 29.5186C278.094 29.1986 278.462 28.9426 278.75 28.7506C279.07 28.5586 279.31 28.5266 279.47 28.6546C279.694 28.8466 279.774 29.1986 279.71 29.7106C279.678 30.2226 279.502 30.7986 279.182 31.4386C278.894 32.0786 278.478 32.7506 277.934 33.4546C277.39 34.1586 276.766 34.7986 276.062 35.3746C275.358 35.9186 274.574 36.3666 273.71 36.7186C272.846 37.0386 271.918 37.1666 270.926 37.1026C269.838 37.0386 268.91 36.7506 268.142 36.2386C267.374 35.6946 266.718 35.0546 266.174 34.3186C265.63 33.5506 265.182 32.7506 264.83 31.9186C264.478 31.0546 264.19 30.2706 263.966 29.5666C263.774 28.8626 263.614 28.2866 263.486 27.8386C263.39 27.3586 263.31 27.1346 263.246 27.1666C262.926 27.2946 262.67 27.3906 262.478 27.4546C262.318 27.4866 262.174 27.5666 262.046 27.6946C261.95 27.7906 261.87 27.9666 261.806 28.2226C261.774 28.4466 261.742 28.8146 261.71 29.3266C261.71 29.5506 261.694 29.9186 261.662 30.4306C261.662 30.9426 261.646 31.4866 261.614 32.0626C261.614 32.6386 261.582 33.1986 261.518 33.7426C261.486 34.2866 261.422 34.7186 261.326 35.0386C261.166 35.7106 260.83 36.2706 260.318 36.7186C259.838 37.1346 259.31 37.4226 258.734 37.5826C258.158 37.7746 257.614 37.8226 257.102 37.7266C256.622 37.6626 256.302 37.4546 256.142 37.1026C255.982 36.7506 255.854 36.0626 255.758 35.0386C255.694 33.9826 255.662 32.7826 255.662 31.4386C255.662 30.0626 255.662 28.6386 255.662 27.1666C255.694 25.6946 255.71 24.3506 255.71 23.1346C255.742 21.8866 255.742 20.8786 255.71 20.1106C255.71 19.3106 255.662 18.9266 255.566 18.9586C255.534 18.9586 255.406 19.0706 255.182 19.2946C254.99 19.4866 254.75 19.6626 254.462 19.8226C254.174 19.9826 253.87 20.0786 253.55 20.1106C253.23 20.1426 252.958 19.9666 252.734 19.5826C252.542 19.2946 252.542 18.9906 252.734 18.6706C252.958 18.3186 253.262 17.9026 253.646 17.4226C254.062 16.9426 254.51 16.3506 254.99 15.6466C255.47 14.9106 255.886 14.0146 256.238 12.9586C256.302 12.7666 256.382 12.5266 256.478 12.2386C256.606 11.9506 256.734 11.5666 256.862 11.0866C256.99 10.5746 257.086 9.95059 257.15 9.21459C257.246 8.44659 257.294 7.50259 257.294 6.38259C257.294 3.82259 257.694 2.14259 258.494 1.34259C259.294 0.51059 260.302 0.43059 261.518 1.10259C262.126 1.45459 262.59 1.90259 262.91 2.44659C263.262 2.95859 263.486 3.51859 263.582 4.12659C263.678 4.73459 263.678 5.37459 263.582 6.04659C263.518 6.71859 263.39 7.35859 263.198 7.96659C262.782 9.47059 262.11 11.0226 261.182 12.6226L260.75 19.6306L260.702 19.3906ZM264.206 22.6066C264.622 22.6706 265.038 22.6386 265.454 22.5106C265.806 22.4146 266.206 22.2226 266.654 21.9346C267.134 21.6146 267.598 21.1346 268.046 20.4946C268.91 19.3106 269.39 18.3186 269.486 17.5186C269.582 16.7186 269.454 16.2386 269.102 16.0786C268.75 15.8866 268.302 15.9506 267.758 16.2706C267.246 16.5586 266.734 17.0226 266.222 17.6626C265.742 18.2706 265.31 19.0066 264.926 19.8706C264.542 20.7346 264.302 21.6466 264.206 22.6066ZM280.922 18.4306C281.402 17.5666 282.01 16.8306 282.746 16.2226C283.514 15.5826 284.33 15.0706 285.194 14.6866C286.09 14.3026 287.018 14.0306 287.978 13.8706C288.97 13.7106 289.93 13.6466 290.858 13.6786C291.818 13.7426 292.634 14.0786 293.306 14.6866C293.978 15.2626 294.442 16.0146 294.698 16.9426C294.986 17.8386 295.018 18.8306 294.794 19.9186C294.602 21.0066 294.106 22.0946 293.306 23.1826C292.41 24.3986 291.482 25.2946 290.522 25.8706C289.594 26.4146 288.73 26.8146 287.93 27.0706C287.002 27.3586 286.074 27.4706 285.146 27.4066C285.082 28.5906 285.178 29.6306 285.434 30.5266C285.53 30.9106 285.658 31.2786 285.818 31.6306C286.01 31.9826 286.25 32.2866 286.538 32.5426C286.826 32.7986 287.162 32.9906 287.546 33.1186C287.962 33.2466 288.442 33.2786 288.986 33.2146C290.138 33.0546 291.082 32.6866 291.818 32.1106C292.554 31.5346 293.162 30.9266 293.642 30.2866C294.154 29.6466 294.57 29.0866 294.89 28.6066C295.21 28.0946 295.53 27.8386 295.85 27.8386C296.074 27.8386 296.218 28.1426 296.282 28.7506C296.346 29.3266 296.282 30.0466 296.09 30.9106C295.93 31.7426 295.626 32.6386 295.178 33.5986C294.73 34.5266 294.09 35.3426 293.258 36.0466C292.458 36.7506 291.45 37.2466 290.234 37.5346C289.018 37.8546 287.562 37.7906 285.866 37.3426C284.33 36.9586 283.098 36.2386 282.17 35.1826C281.242 34.0946 280.538 32.9746 280.058 31.8226C279.482 30.5106 279.098 29.0546 278.906 27.4546C278.778 26.5586 278.778 25.6146 278.906 24.6226C278.97 23.7906 279.146 22.8306 279.434 21.7426C279.754 20.6546 280.25 19.5506 280.922 18.4306ZM285.242 23.8066C285.754 23.8066 286.282 23.7426 286.826 23.6146C287.274 23.4866 287.77 23.2626 288.314 22.9426C288.858 22.6226 289.37 22.1426 289.85 21.5026C290.298 20.8626 290.618 20.2866 290.81 19.7746C291.002 19.2626 291.13 18.8306 291.194 18.4786C291.29 18.0946 291.306 17.7426 291.242 17.4226C290.602 17.4866 289.994 17.6146 289.418 17.8066C288.906 17.9666 288.394 18.2226 287.882 18.5746C287.37 18.8946 286.954 19.3586 286.634 19.9666C286.25 20.6706 285.962 21.2626 285.77 21.7426C285.578 22.2226 285.45 22.6226 285.386 22.9426C285.29 23.2946 285.242 23.5826 285.242 23.8066ZM3.8 85.9666C3.352 85.9346 2.968 85.5826 2.648 84.9106C2.36 84.2066 2.12 83.3586 1.928 82.3666C1.736 81.3426 1.592 80.2386 1.496 79.0546C1.4 77.8706 1.32 76.7666 1.256 75.7426C1.224 74.7186 1.192 73.8546 1.16 73.1506C1.128 72.4466 1.096 72.0466 1.064 71.9506C0.808 71.3746 0.696 70.7506 0.728 70.0786C0.792 69.4066 0.904 68.7506 1.064 68.1106C1.224 67.4706 1.4 66.8946 1.592 66.3826C1.816 65.8386 1.944 65.4226 1.976 65.1346C2.072 64.4306 2.136 63.5346 2.168 62.4466C2.232 61.3586 2.296 60.2386 2.36 59.0866C2.456 57.9346 2.568 56.8306 2.696 55.7746C2.824 54.6866 3 53.7906 3.224 53.0866C3.48 52.2226 3.864 51.6466 4.376 51.3586C4.888 51.0386 5.384 50.9426 5.864 51.0706C6.376 51.1666 6.824 51.4386 7.208 51.8866C7.592 52.3026 7.8 52.8146 7.832 53.4226C7.864 54.1586 7.896 55.0226 7.928 56.0146C7.96 57.0066 7.976 57.9826 7.976 58.9426C8.008 59.9026 8.024 60.7666 8.024 61.5346C8.056 62.3026 8.072 62.8146 8.072 63.0706C8.744 62.6866 9.4 62.2066 10.04 61.6306C10.712 61.0226 11.416 60.3666 12.152 59.6626C12.888 58.9266 13.688 58.1746 14.552 57.4066C15.448 56.6066 16.488 55.8226 17.672 55.0546C18.6 54.4786 19.544 53.9026 20.504 53.3266C21.496 52.7506 22.504 52.2546 23.528 51.8386C24.008 51.6786 24.44 51.6306 24.824 51.6946C25.208 51.7266 25.48 51.8546 25.64 52.0786C25.832 52.3026 25.896 52.6066 25.832 52.9906C25.768 53.3426 25.528 53.7266 25.112 54.1426C24.472 54.7506 23.592 55.5026 22.472 56.3986C21.352 57.2626 20.136 58.1906 18.824 59.1826C17.544 60.1426 16.232 61.1346 14.888 62.1586C13.576 63.1826 12.392 64.1586 11.336 65.0866C10.28 65.9826 9.416 66.7986 8.744 67.5346C8.104 68.2386 7.8 68.7826 7.832 69.1666C7.864 69.5826 8.136 70.1266 8.648 70.7986C9.192 71.4706 9.864 72.1906 10.664 72.9586C11.464 73.6946 12.36 74.4626 13.352 75.2626C14.344 76.0306 15.352 76.7346 16.376 77.3746C16.888 77.6946 17.4 78.0146 17.912 78.3346C18.424 78.6546 18.952 78.9266 19.496 79.1506C20.072 79.3746 20.68 79.5186 21.32 79.5826C21.96 79.6466 22.664 79.5666 23.432 79.3426C24.552 79.0226 25.56 78.9906 26.456 79.2466C27.384 79.4706 28.136 79.8546 28.712 80.3986C29.288 80.9106 29.656 81.4866 29.816 82.1266C29.976 82.7666 29.864 83.2946 29.48 83.7106C28.392 84.9586 27.24 85.7586 26.024 86.1106C24.84 86.4946 23.608 86.5586 22.328 86.3026C21.048 86.0466 19.752 85.5506 18.44 84.8146C17.16 84.0786 15.88 83.2306 14.6 82.2706C13.32 81.2786 12.04 80.2386 10.76 79.1506C9.512 78.0626 8.312 77.0386 7.16 76.0786C7.064 76.0146 6.984 76.2226 6.92 76.7026C6.888 77.1506 6.84 77.7586 6.776 78.5266C6.744 79.2626 6.664 80.0786 6.536 80.9746C6.44 81.8386 6.28 82.6546 6.056 83.4226C5.864 84.1586 5.576 84.7666 5.192 85.2466C4.84 85.7586 4.376 85.9986 3.8 85.9666ZM36.527 64.4146C37.999 65.3106 39.135 66.4146 39.935 67.7266C40.735 69.0066 41.247 70.3666 41.471 71.8066C41.727 73.2146 41.695 74.6226 41.375 76.0306C41.055 77.4386 40.511 78.7186 39.743 79.8706C39.007 80.9906 38.063 81.9186 36.911 82.6546C35.759 83.3906 34.447 83.7746 32.975 83.8066C31.119 83.8386 29.551 83.4386 28.271 82.6066C27.023 81.7426 26.063 80.6546 25.391 79.3426C24.719 78.0306 24.319 76.6066 24.191 75.0706C24.095 73.5026 24.271 72.0466 24.719 70.7026C25.167 69.3266 25.903 68.1586 26.927 67.1986C27.951 66.2386 29.231 65.7106 30.767 65.6146C32.175 65.5186 33.199 65.3746 33.839 65.1826C34.479 64.9586 34.943 64.7666 35.231 64.6066C35.519 64.4146 35.711 64.2866 35.807 64.2226C35.935 64.1586 36.175 64.2226 36.527 64.4146ZM30.911 68.5906C30.719 68.7826 30.559 69.2466 30.431 69.9826C30.303 70.7186 30.207 71.5826 30.143 72.5746C30.111 73.5666 30.127 74.6066 30.191 75.6946C30.255 76.7826 30.367 77.7746 30.527 78.6706C30.719 79.5666 30.975 80.3026 31.295 80.8786C31.615 81.4546 31.999 81.7106 32.447 81.6466C32.895 81.5826 33.327 81.2946 33.743 80.7826C34.159 80.2386 34.527 79.5826 34.847 78.8146C35.199 78.0146 35.471 77.1506 35.663 76.2226C35.887 75.2626 36.015 74.3346 36.047 73.4386C36.111 72.5426 36.063 71.7266 35.903 70.9906C35.743 70.2546 35.471 69.6946 35.087 69.3106C34.191 68.3826 33.423 67.8866 32.783 67.8226C32.175 67.7266 31.551 67.9826 30.911 68.5906ZM43.652 65.7586C43.3 65.5666 42.948 65.4546 42.596 65.4226C42.244 65.3586 41.924 65.3266 41.636 65.3266C41.316 65.2946 41.06 65.2466 40.868 65.1826C40.676 65.1186 40.564 64.9426 40.532 64.6546C40.532 64.5266 40.804 64.2866 41.348 63.9346C41.86 63.5506 42.5 63.2466 43.268 63.0226C44.068 62.7986 44.916 62.7186 45.812 62.7826C46.708 62.8466 47.54 63.2466 48.308 63.9826C48.948 64.6226 49.476 65.2306 49.892 65.8066C50.308 66.3506 50.644 66.8306 50.9 67.2466C51.22 67.7586 51.46 68.2066 51.62 68.5906C52.516 67.7266 53.444 67.0066 54.404 66.4306C55.236 65.9186 56.164 65.5026 57.188 65.1826C58.212 64.8626 59.236 64.8466 60.26 65.1346C60.516 65.2306 60.628 65.4386 60.596 65.7586C60.596 66.0466 60.468 66.3666 60.212 66.7186C59.988 67.0706 59.668 67.4066 59.252 67.7266C58.836 68.0466 58.34 68.2706 57.764 68.3986C56.644 68.6546 55.748 69.1346 55.076 69.8386C54.436 70.5426 53.94 71.3746 53.588 72.3346C53.236 73.2626 53.012 74.2706 52.916 75.3586C52.82 76.4146 52.772 77.4386 52.772 78.4306C52.804 80.5106 52.516 82.0626 51.908 83.0866C51.3 84.0786 50.484 84.6066 49.46 84.6706C48.276 84.7346 47.396 84.1906 46.82 83.0386C46.244 81.8866 45.956 79.9346 45.956 77.1826C46.02 73.6946 45.86 71.0386 45.476 69.2146C45.092 67.3586 44.484 66.2066 43.652 65.7586ZM63.8 50.4466C63.896 49.8706 64.232 49.5506 64.808 49.4866C65.384 49.4226 65.992 49.5506 66.632 49.8706C67.272 50.1906 67.864 50.6546 68.408 51.2626C68.952 51.8386 69.24 52.4786 69.272 53.1826C69.304 53.9186 69.336 54.6706 69.368 55.4386C69.4 56.2066 69.432 56.8946 69.464 57.5026C69.496 58.2386 69.528 58.9266 69.56 59.5666C70.648 59.4706 71.608 59.4386 72.44 59.4706C73.176 59.5026 73.832 59.5986 74.408 59.7586C74.984 59.9186 75.272 60.2066 75.272 60.6226C75.272 61.0706 74.984 61.4546 74.408 61.7746C73.864 62.0946 73.24 62.3666 72.536 62.5906C71.704 62.8466 70.776 63.0706 69.752 63.2626C69.816 65.4066 69.88 67.4866 69.944 69.5026C69.976 71.2626 69.976 73.1026 69.944 75.0226C69.944 76.9426 69.88 78.6226 69.752 80.0626C69.592 81.5026 69.336 82.5586 68.984 83.2306C68.664 83.9026 68.296 84.3346 67.88 84.5266C67.464 84.7186 67.032 84.7666 66.584 84.6706C66.136 84.5426 65.72 84.3986 65.336 84.2386C65.144 84.1746 64.968 83.8386 64.808 83.2306C64.648 82.6226 64.52 81.8386 64.424 80.8786C64.328 79.9186 64.248 78.8466 64.184 77.6626C64.12 76.4466 64.072 75.2146 64.04 73.9666C63.944 71.0226 63.896 67.7266 63.896 64.0786C63.032 64.2706 62.232 64.3666 61.496 64.3666C60.856 64.3666 60.264 64.2706 59.72 64.0786C59.176 63.8546 58.84 63.4546 58.712 62.8786C58.616 62.4306 58.808 62.0306 59.288 61.6786C59.8 61.3266 60.376 61.0226 61.016 60.7666C61.752 60.4786 62.616 60.2226 63.608 59.9986V59.2306C63.608 59.0066 63.608 58.7826 63.608 58.5586C63.64 58.3026 63.656 58.0946 63.656 57.9346C63.656 56.6546 63.64 55.6146 63.608 54.8146C63.576 54.0146 63.56 53.3586 63.56 52.8466C63.56 52.3026 63.576 51.8706 63.608 51.5506C63.64 51.1986 63.704 50.8306 63.8 50.4466ZM73.913 76.0786C74.169 75.7266 74.409 75.4066 74.633 75.1186C74.857 74.7986 75.065 74.4466 75.257 74.0626C75.481 73.6466 75.673 73.1666 75.833 72.6226C76.025 72.0786 76.185 71.4066 76.313 70.6066C76.441 69.8066 76.521 69.0706 76.553 68.3986C76.585 67.6946 76.633 67.1026 76.697 66.6226C76.761 66.1106 76.873 65.6946 77.033 65.3746C77.193 65.0546 77.481 64.8466 77.897 64.7506C78.281 64.6866 78.809 64.5586 79.481 64.3666C80.185 64.1746 80.841 64.0786 81.449 64.0786C82.089 64.0786 82.601 64.2706 82.985 64.6546C83.401 65.0066 83.513 65.7106 83.321 66.7666C83.225 67.1826 83.129 67.7906 83.033 68.5906C82.969 69.3906 82.905 70.2866 82.841 71.2786C82.777 72.2386 82.745 73.2466 82.745 74.3026C82.777 75.3266 82.857 76.2866 82.985 77.1826C83.113 78.0786 83.305 78.8466 83.561 79.4866C83.849 80.1266 84.233 80.5426 84.713 80.7346C85.673 81.1186 86.457 81.1186 87.065 80.7346C87.705 80.3506 88.361 79.7426 89.033 78.9106C89.321 78.5586 89.625 78.2706 89.945 78.0466C90.265 77.7906 90.521 77.6946 90.713 77.7586C90.937 77.7906 91.033 78.0146 91.001 78.4306C90.969 78.8146 90.729 79.4866 90.281 80.4466C89.385 82.3666 88.233 83.6466 86.825 84.2866C85.417 84.8946 83.753 85.0066 81.833 84.6226C80.777 84.3986 79.929 83.8866 79.289 83.0866C78.649 82.2866 78.153 81.4546 77.801 80.5906C77.449 79.6946 77.193 78.8786 77.033 78.1426C76.873 77.4066 76.729 77.0066 76.601 76.9426C76.441 76.8466 76.297 76.8306 76.169 76.8946C76.073 76.9266 75.961 77.0066 75.833 77.1346C75.705 77.2306 75.545 77.3426 75.353 77.4706C75.161 77.5986 74.921 77.6946 74.633 77.7586C73.961 77.8866 73.577 77.7906 73.481 77.4706C73.353 77.1186 73.497 76.6546 73.913 76.0786ZM78.569 52.3666C78.985 51.6626 79.577 51.2786 80.345 51.2146C81.113 51.1186 81.865 51.2146 82.601 51.5026C83.337 51.7906 83.945 52.1906 84.425 52.7026C84.905 53.2146 85.081 53.6786 84.953 54.0946C84.793 54.4786 84.537 54.8146 84.185 55.1026C83.833 55.3586 83.433 55.5826 82.985 55.7746C82.537 55.9346 82.073 56.0626 81.593 56.1586C81.113 56.2226 80.697 56.2386 80.345 56.2066C79.961 56.1746 79.609 56.0306 79.289 55.7746C78.969 55.5186 78.713 55.2146 78.521 54.8626C78.329 54.5106 78.217 54.1106 78.185 53.6626C78.185 53.2146 78.313 52.7826 78.569 52.3666ZM89.747 67.4866C89.939 67.1666 90.211 66.8786 90.563 66.6226C90.947 66.3346 91.331 66.0946 91.715 65.9026C92.131 65.6786 92.531 65.5186 92.915 65.4226C93.331 65.2946 93.667 65.2306 93.923 65.2306C94.051 65.2306 94.147 65.3586 94.211 65.6146C94.307 65.8706 94.387 66.2066 94.451 66.6226C94.547 67.0386 94.611 67.5186 94.643 68.0626C94.675 68.5746 94.707 69.1026 94.739 69.6466C94.803 70.9266 94.819 72.3826 94.787 74.0146C95.203 73.1826 95.651 72.3666 96.131 71.5666C96.547 70.8946 97.027 70.2066 97.571 69.5026C98.115 68.7666 98.675 68.1426 99.251 67.6306C99.795 67.1506 100.387 66.7826 101.027 66.5266C101.699 66.2706 102.371 66.1746 103.043 66.2386C103.715 66.2706 104.355 66.5106 104.963 66.9586C105.603 67.4066 106.163 68.0786 106.643 68.9746C106.963 69.5826 107.203 70.3506 107.363 71.2786C107.523 72.1746 107.635 73.1346 107.699 74.1586C107.795 75.1506 107.875 76.1586 107.939 77.1826C108.035 78.2066 108.179 79.1506 108.371 80.0146C108.595 80.8786 108.883 81.6146 109.235 82.2226C109.619 82.8306 110.163 83.2146 110.867 83.3746C111.443 83.5346 112.003 83.5506 112.547 83.4226C113.123 83.2626 113.651 83.0706 114.131 82.8466C114.643 82.5906 115.075 82.3826 115.427 82.2226C115.811 82.0306 116.083 81.9826 116.243 82.0786C116.371 82.2066 116.291 82.5586 116.003 83.1346C115.747 83.7106 115.299 84.3026 114.659 84.9106C114.051 85.5186 113.267 86.0306 112.307 86.4466C111.379 86.8946 110.307 87.0386 109.091 86.8786C106.691 86.5586 104.963 85.3266 103.907 83.1826C102.851 81.0066 102.243 78.1746 102.083 74.6866C102.019 73.4386 101.859 72.5106 101.603 71.9026C101.379 71.2946 101.075 70.9746 100.691 70.9426C100.307 70.9106 99.859 71.1346 99.347 71.6146C98.867 72.0626 98.339 72.7186 97.763 73.5826C97.091 74.5746 96.595 75.5666 96.275 76.5586C95.955 77.5506 95.731 78.4786 95.603 79.3426C95.507 80.2066 95.443 80.9746 95.411 81.6466C95.379 82.3186 95.299 82.8146 95.171 83.1346C95.011 83.4866 94.675 83.7266 94.163 83.8546C93.651 83.9826 93.091 84.0466 92.483 84.0466C91.907 84.0466 91.331 83.9826 90.755 83.8546C90.211 83.7266 89.827 83.5666 89.603 83.3746C89.475 83.2466 89.363 82.7986 89.267 82.0306C89.203 81.2306 89.155 80.2866 89.123 79.1986C89.091 78.0786 89.075 76.8946 89.075 75.6466C89.107 74.3666 89.139 73.1666 89.171 72.0466C89.235 70.8946 89.315 69.9026 89.411 69.0706C89.507 68.2386 89.619 67.7106 89.747 67.4866ZM133.193 77.6626C133.897 77.3746 134.425 77.2466 134.777 77.2786C135.161 77.2786 135.401 77.3906 135.497 77.6146C135.593 77.8386 135.561 78.1106 135.401 78.4306C135.241 78.7506 134.969 79.0546 134.585 79.3426C134.105 79.6946 133.625 80.0626 133.145 80.4466C132.697 80.8306 132.217 81.2466 131.705 81.6946C131.193 82.1106 130.633 82.5746 130.025 83.0866C129.417 83.5986 128.745 84.1906 128.009 84.8626C128.233 86.3666 128.361 87.8866 128.393 89.4226C128.425 90.9906 128.329 92.4786 128.105 93.8866C127.881 95.3266 127.513 96.6386 127.001 97.8226C126.489 99.0386 125.801 100.031 124.937 100.799C123.721 101.887 122.489 102.511 121.241 102.671C119.993 102.831 118.889 102.623 117.929 102.047C116.969 101.471 116.217 100.575 115.673 99.3586C115.129 98.1746 114.969 96.7666 115.193 95.1346C115.449 93.4706 115.961 91.9986 116.729 90.7186C117.529 89.4386 118.361 88.3666 119.225 87.5026C120.249 86.4786 121.353 85.5986 122.537 84.8626C122.505 84.4786 122.441 83.9986 122.345 83.4226C122.281 82.9426 122.169 82.3666 122.009 81.6946C121.849 81.0226 121.641 80.2226 121.385 79.2946C121.225 78.7506 121.017 78.2386 120.761 77.7586C120.537 77.2466 120.313 76.8146 120.089 76.4626C119.801 76.0466 119.529 75.6786 119.273 75.3586C118.761 75.9346 118.233 76.4466 117.689 76.8946C117.241 77.2786 116.745 77.6306 116.201 77.9506C115.657 78.2386 115.145 78.3826 114.665 78.3826C114.153 78.3826 113.577 78.1586 112.937 77.7106C112.297 77.2306 111.721 76.5906 111.209 75.7906C110.729 74.9906 110.345 74.0626 110.057 73.0066C109.801 71.9186 109.769 70.7666 109.961 69.5506C110.185 68.3346 110.473 67.3586 110.825 66.6226C111.177 65.8866 111.561 65.3106 111.977 64.8946C112.393 64.4466 112.841 64.1266 113.321 63.9346C113.801 63.7426 114.281 63.5986 114.761 63.5026C115.465 63.3746 116.297 63.4706 117.257 63.7906C118.249 64.1106 119.177 64.5266 120.041 65.0386C120.937 65.5186 121.689 66.0306 122.297 66.5746C122.937 67.0866 123.241 67.4866 123.209 67.7746C123.177 68.0626 122.825 68.1746 122.153 68.1106C121.513 68.0146 120.761 67.9026 119.897 67.7746C119.065 67.6466 118.233 67.5826 117.401 67.5826C116.601 67.5826 116.041 67.8386 115.721 68.3506C115.401 68.8626 115.145 69.4386 114.953 70.0786C114.761 70.6866 114.633 71.2946 114.569 71.9026C114.537 72.5106 114.585 73.0706 114.713 73.5826C114.841 74.0946 115.081 74.4946 115.433 74.7826C115.625 74.9426 115.881 74.8946 116.201 74.6386C116.553 74.3506 116.953 74.0146 117.401 73.6306C117.849 73.2146 118.345 72.8306 118.889 72.4786C119.433 72.0946 120.009 71.8706 120.617 71.8066C121.257 71.7106 121.913 71.8706 122.585 72.2866C123.257 72.6706 123.945 73.4386 124.649 74.5906C125.065 75.2626 125.497 76.1746 125.945 77.3266C126.425 78.4466 126.841 79.8226 127.193 81.4546C127.609 81.1986 128.073 80.8946 128.585 80.5426C129.129 80.1586 129.673 79.7906 130.217 79.4386C130.761 79.0546 131.289 78.7026 131.801 78.3826C132.345 78.0626 132.809 77.8226 133.193 77.6626ZM121.961 96.3826C122.153 95.8386 122.265 95.1346 122.297 94.2706C122.361 93.4386 122.393 92.6066 122.393 91.7746C122.361 90.8146 122.313 89.8066 122.249 88.7506C121.577 89.3266 120.985 89.9346 120.473 90.5746C120.025 91.1186 119.625 91.7586 119.273 92.4946C118.953 93.2306 118.825 94.0146 118.889 94.8466C118.953 95.6466 119.129 96.2226 119.417 96.5746C119.705 96.9586 120.009 97.1666 120.329 97.1986C120.681 97.2626 121.001 97.1986 121.289 97.0066C121.609 96.8466 121.833 96.6386 121.961 96.3826ZM142.922 61.6306C143.05 61.8866 143.034 62.0946 142.874 62.2546C142.714 62.3826 142.474 62.5266 142.154 62.6866C141.866 62.8146 141.53 62.9906 141.146 63.2146C140.762 63.4066 140.394 63.6946 140.042 64.0786C139.69 64.4626 139.386 64.9586 139.13 65.5666C138.906 66.1746 138.794 66.9426 138.794 67.8706C138.762 68.7986 138.97 69.6946 139.418 70.5586C139.898 71.4226 140.474 72.2706 141.146 73.1026C141.818 73.9026 142.554 74.7026 143.354 75.5026C144.154 76.2706 144.874 77.0706 145.514 77.9026C146.154 78.7026 146.65 79.5346 147.002 80.3986C147.386 81.2306 147.514 82.0946 147.386 82.9906C147.226 83.8866 146.714 84.6386 145.85 85.2466C145.018 85.8866 143.994 86.3666 142.778 86.6866C141.562 87.0386 140.25 87.2306 138.842 87.2626C137.434 87.2946 136.106 87.1666 134.858 86.8786C133.642 86.6226 132.586 86.2066 131.69 85.6306C130.794 85.0546 130.234 84.3186 130.01 83.4226C129.658 82.1106 129.562 81.0066 129.722 80.1106C129.85 79.2146 130.106 78.4786 130.49 77.9026C130.874 77.2946 131.306 76.8306 131.786 76.5106C132.266 76.1586 132.682 75.8866 133.034 75.6946C133.77 75.2786 134.25 75.2786 134.474 75.6946C134.73 76.1106 134.586 76.7666 134.042 77.6626C133.786 78.1106 133.722 78.6226 133.85 79.1986C133.978 79.7426 134.266 80.2706 134.714 80.7826C135.194 81.2626 135.786 81.6786 136.49 82.0306C137.226 82.3826 138.058 82.5746 138.986 82.6066C139.562 82.6386 140.138 82.5906 140.714 82.4626C141.322 82.3026 141.818 82.0786 142.202 81.7906C142.586 81.4706 142.81 81.1026 142.874 80.6866C142.97 80.2386 142.81 79.7426 142.394 79.1986C141.978 78.6546 141.258 77.9666 140.234 77.1346C139.21 76.3026 138.154 75.3906 137.066 74.3986C136.01 73.3746 135.066 72.3026 134.234 71.1826C133.434 70.0306 133.034 68.8786 133.034 67.7266C133.034 65.4546 133.434 63.7906 134.234 62.7346C135.066 61.6786 136.394 60.9906 138.218 60.6706C139.114 60.5106 139.85 60.4466 140.426 60.4786C141.002 60.4786 141.45 60.5426 141.77 60.6706C142.122 60.7986 142.378 60.9586 142.538 61.1506C142.698 61.3106 142.826 61.4706 142.922 61.6306ZM160.583 64.7026C160.487 65.1186 160.215 65.4706 159.767 65.7586C159.319 66.0146 158.807 66.2866 158.231 66.5746C157.655 66.8626 157.063 67.1826 156.455 67.5346C155.847 67.8866 155.335 68.3506 154.919 68.9266C154.279 69.8546 153.831 70.9586 153.575 72.2386C153.319 73.5186 153.191 74.7506 153.191 75.9346C153.223 77.0866 153.367 78.0946 153.623 78.9586C153.911 79.7906 154.263 80.2066 154.679 80.2066C155.191 80.2066 155.719 79.9666 156.263 79.4866C156.839 79.0066 157.351 78.4626 157.799 77.8546C158.247 77.2146 158.615 76.5746 158.903 75.9346C159.191 75.2626 159.335 74.7506 159.335 74.3986C159.335 74.0466 159.319 73.5666 159.287 72.9586C159.255 72.3186 159.255 71.6946 159.287 71.0866C159.351 70.4786 159.447 69.9506 159.575 69.5026C159.735 69.0546 159.991 68.8146 160.343 68.7826C160.695 68.7506 161.111 68.6706 161.591 68.5426C162.103 68.4146 162.583 68.3986 163.031 68.4946C163.479 68.5906 163.831 68.9106 164.087 69.4546C164.375 69.9666 164.487 70.8626 164.423 72.1426C164.359 73.4546 164.407 74.6546 164.567 75.7426C164.759 76.8306 165.015 77.7906 165.335 78.6226C165.655 79.4226 166.039 80.0786 166.487 80.5906C166.935 81.0706 167.415 81.3586 167.927 81.4546C168.631 81.5826 169.207 81.5666 169.655 81.4066C170.135 81.2146 170.519 81.0066 170.807 80.7826C171.127 80.5266 171.399 80.3026 171.623 80.1106C171.847 79.9186 172.055 79.8706 172.247 79.9666C172.471 80.0626 172.519 80.3346 172.391 80.7826C172.295 81.2306 172.039 81.7266 171.623 82.2706C171.239 82.7826 170.695 83.2786 169.991 83.7586C169.287 84.2386 168.455 84.5426 167.495 84.6706C166.055 84.9266 164.823 84.8146 163.799 84.3346C162.807 83.8546 161.991 83.2946 161.351 82.6546C160.615 81.8866 160.023 80.9906 159.575 79.9666C159.255 80.7346 158.807 81.4066 158.231 81.9826C157.751 82.4946 157.127 82.9746 156.359 83.4226C155.591 83.8386 154.647 84.0786 153.527 84.1426C152.407 84.1746 151.351 83.8226 150.359 83.0866C149.367 82.3506 148.567 81.3586 147.959 80.1106C147.383 78.8626 147.063 77.4226 146.999 75.7906C146.967 74.1266 147.335 72.3826 148.103 70.5586C148.615 69.3746 149.287 68.3666 150.119 67.5346C150.951 66.7026 151.831 66.0306 152.759 65.5186C153.719 64.9746 154.663 64.5906 155.591 64.3666C156.551 64.1106 157.399 63.9666 158.135 63.9346C158.903 63.9026 159.511 63.9666 159.959 64.1266C160.439 64.2546 160.647 64.4466 160.583 64.7026ZM183.826 66.9106C183.73 67.0706 183.426 67.1186 182.914 67.0546C182.402 66.9586 181.81 66.9426 181.138 67.0066C180.466 67.0386 179.794 67.2466 179.122 67.6306C178.45 67.9826 177.906 68.6706 177.49 69.6946C177.106 70.7186 176.834 71.8066 176.674 72.9586C176.546 74.1106 176.546 75.2146 176.674 76.2706C176.834 77.2946 177.106 78.1906 177.49 78.9586C177.906 79.7266 178.45 80.2546 179.122 80.5426C180.082 80.9266 180.946 81.0546 181.714 80.9266C182.482 80.7986 183.17 80.5906 183.778 80.3026C184.386 79.9826 184.898 79.6466 185.314 79.2946C185.762 78.9426 186.114 78.7186 186.37 78.6226C186.978 78.4306 187.25 78.6706 187.186 79.3426C187.122 79.9826 186.674 80.8146 185.842 81.8386C185.394 82.4146 184.834 82.9746 184.162 83.5186C183.49 84.0306 182.738 84.4466 181.906 84.7666C181.074 85.0866 180.162 85.2626 179.17 85.2946C178.21 85.3266 177.186 85.1346 176.098 84.7186C175.074 84.3346 174.146 83.7106 173.314 82.8466C172.482 81.9826 171.794 80.9906 171.25 79.8706C170.738 78.7186 170.37 77.4866 170.146 76.1746C169.954 74.8626 169.97 73.5506 170.194 72.2386C170.45 70.9266 170.93 69.6626 171.634 68.4466C172.37 67.1986 173.378 66.0946 174.658 65.1346C175.874 64.2706 177.058 63.8226 178.21 63.7906C179.394 63.7586 180.418 63.9186 181.282 64.2706C182.178 64.6226 182.866 65.0866 183.346 65.6626C183.826 66.2066 183.986 66.6226 183.826 66.9106ZM190.784 50.4466C190.88 49.8706 191.216 49.5506 191.792 49.4866C192.368 49.4226 192.976 49.5506 193.616 49.8706C194.256 50.1906 194.848 50.6546 195.392 51.2626C195.936 51.8386 196.224 52.4786 196.256 53.1826C196.288 53.9186 196.32 54.6706 196.352 55.4386C196.384 56.2066 196.416 56.8946 196.448 57.5026C196.48 58.2386 196.512 58.9266 196.544 59.5666C197.632 59.4706 198.592 59.4386 199.424 59.4706C200.16 59.5026 200.816 59.5986 201.392 59.7586C201.968 59.9186 202.256 60.2066 202.256 60.6226C202.256 61.0706 201.968 61.4546 201.392 61.7746C200.848 62.0946 200.224 62.3666 199.52 62.5906C198.688 62.8466 197.76 63.0706 196.736 63.2626C196.8 65.4066 196.864 67.4866 196.928 69.5026C196.96 71.2626 196.96 73.1026 196.928 75.0226C196.928 76.9426 196.864 78.6226 196.736 80.0626C196.576 81.5026 196.32 82.5586 195.968 83.2306C195.648 83.9026 195.28 84.3346 194.864 84.5266C194.448 84.7186 194.016 84.7666 193.568 84.6706C193.12 84.5426 192.704 84.3986 192.32 84.2386C192.128 84.1746 191.952 83.8386 191.792 83.2306C191.632 82.6226 191.504 81.8386 191.408 80.8786C191.312 79.9186 191.232 78.8466 191.168 77.6626C191.104 76.4466 191.056 75.2146 191.024 73.9666C190.928 71.0226 190.88 67.7266 190.88 64.0786C190.016 64.2706 189.216 64.3666 188.48 64.3666C187.84 64.3666 187.248 64.2706 186.704 64.0786C186.16 63.8546 185.824 63.4546 185.696 62.8786C185.6 62.4306 185.792 62.0306 186.272 61.6786C186.784 61.3266 187.36 61.0226 188 60.7666C188.736 60.4786 189.6 60.2226 190.592 59.9986V59.2306C190.592 59.0066 190.592 58.7826 190.592 58.5586C190.624 58.3026 190.64 58.0946 190.64 57.9346C190.64 56.6546 190.624 55.6146 190.592 54.8146C190.56 54.0146 190.544 53.3586 190.544 52.8466C190.544 52.3026 190.56 51.8706 190.592 51.5506C190.624 51.1986 190.688 50.8306 190.784 50.4466ZM200.897 76.0786C201.153 75.7266 201.393 75.4066 201.617 75.1186C201.841 74.7986 202.049 74.4466 202.241 74.0626C202.465 73.6466 202.657 73.1666 202.817 72.6226C203.009 72.0786 203.169 71.4066 203.297 70.6066C203.425 69.8066 203.505 69.0706 203.537 68.3986C203.569 67.6946 203.617 67.1026 203.681 66.6226C203.745 66.1106 203.857 65.6946 204.017 65.3746C204.177 65.0546 204.465 64.8466 204.881 64.7506C205.265 64.6866 205.793 64.5586 206.465 64.3666C207.169 64.1746 207.825 64.0786 208.433 64.0786C209.073 64.0786 209.585 64.2706 209.969 64.6546C210.385 65.0066 210.497 65.7106 210.305 66.7666C210.209 67.1826 210.113 67.7906 210.017 68.5906C209.953 69.3906 209.889 70.2866 209.825 71.2786C209.761 72.2386 209.729 73.2466 209.729 74.3026C209.761 75.3266 209.841 76.2866 209.969 77.1826C210.097 78.0786 210.289 78.8466 210.545 79.4866C210.833 80.1266 211.217 80.5426 211.697 80.7346C212.657 81.1186 213.441 81.1186 214.049 80.7346C214.689 80.3506 215.345 79.7426 216.017 78.9106C216.305 78.5586 216.609 78.2706 216.929 78.0466C217.249 77.7906 217.505 77.6946 217.697 77.7586C217.921 77.7906 218.017 78.0146 217.985 78.4306C217.953 78.8146 217.713 79.4866 217.265 80.4466C216.369 82.3666 215.217 83.6466 213.809 84.2866C212.401 84.8946 210.737 85.0066 208.817 84.6226C207.761 84.3986 206.913 83.8866 206.273 83.0866C205.633 82.2866 205.137 81.4546 204.785 80.5906C204.433 79.6946 204.177 78.8786 204.017 78.1426C203.857 77.4066 203.713 77.0066 203.585 76.9426C203.425 76.8466 203.281 76.8306 203.153 76.8946C203.057 76.9266 202.945 77.0066 202.817 77.1346C202.689 77.2306 202.529 77.3426 202.337 77.4706C202.145 77.5986 201.905 77.6946 201.617 77.7586C200.945 77.8866 200.561 77.7906 200.465 77.4706C200.337 77.1186 200.481 76.6546 200.897 76.0786ZM205.553 52.3666C205.969 51.6626 206.561 51.2786 207.329 51.2146C208.097 51.1186 208.849 51.2146 209.585 51.5026C210.321 51.7906 210.929 52.1906 211.409 52.7026C211.889 53.2146 212.065 53.6786 211.937 54.0946C211.777 54.4786 211.521 54.8146 211.169 55.1026C210.817 55.3586 210.417 55.5826 209.969 55.7746C209.521 55.9346 209.057 56.0626 208.577 56.1586C208.097 56.2226 207.681 56.2386 207.329 56.2066C206.945 56.1746 206.593 56.0306 206.273 55.7746C205.953 55.5186 205.697 55.2146 205.505 54.8626C205.313 54.5106 205.201 54.1106 205.169 53.6626C205.169 53.2146 205.297 52.7826 205.553 52.3666ZM217.547 66.4306C218.027 65.5666 218.635 64.8306 219.371 64.2226C220.139 63.5826 220.955 63.0706 221.819 62.6866C222.715 62.3026 223.643 62.0306 224.603 61.8706C225.595 61.7106 226.555 61.6466 227.483 61.6786C228.443 61.7426 229.259 62.0786 229.931 62.6866C230.603 63.2626 231.067 64.0146 231.323 64.9426C231.611 65.8386 231.643 66.8306 231.419 67.9186C231.227 69.0066 230.731 70.0946 229.931 71.1826C229.035 72.3986 228.107 73.2946 227.147 73.8706C226.219 74.4146 225.355 74.8146 224.555 75.0706C223.627 75.3586 222.699 75.4706 221.771 75.4066C221.707 76.5906 221.803 77.6306 222.059 78.5266C222.155 78.9106 222.283 79.2786 222.443 79.6306C222.635 79.9826 222.875 80.2866 223.163 80.5426C223.451 80.7986 223.787 80.9906 224.171 81.1186C224.587 81.2466 225.067 81.2786 225.611 81.2146C226.763 81.0546 227.707 80.6866 228.443 80.1106C229.179 79.5346 229.787 78.9266 230.267 78.2866C230.779 77.6466 231.195 77.0866 231.515 76.6066C231.835 76.0946 232.155 75.8386 232.475 75.8386C232.699 75.8386 232.843 76.1426 232.907 76.7506C232.971 77.3266 232.907 78.0466 232.715 78.9106C232.555 79.7426 232.251 80.6386 231.803 81.5986C231.355 82.5266 230.715 83.3426 229.883 84.0466C229.083 84.7506 228.075 85.2466 226.859 85.5346C225.643 85.8546 224.187 85.7906 222.491 85.3426C220.955 84.9586 219.723 84.2386 218.795 83.1826C217.867 82.0946 217.163 80.9746 216.683 79.8226C216.107 78.5106 215.723 77.0546 215.531 75.4546C215.403 74.5586 215.403 73.6146 215.531 72.6226C215.595 71.7906 215.771 70.8306 216.059 69.7426C216.379 68.6546 216.875 67.5506 217.547 66.4306ZM221.867 71.8066C222.379 71.8066 222.907 71.7426 223.451 71.6146C223.899 71.4866 224.395 71.2626 224.939 70.9426C225.483 70.6226 225.995 70.1426 226.475 69.5026C226.923 68.8626 227.243 68.2866 227.435 67.7746C227.627 67.2626 227.755 66.8306 227.819 66.4786C227.915 66.0946 227.931 65.7426 227.867 65.4226C227.227 65.4866 226.619 65.6146 226.043 65.8066C225.531 65.9666 225.019 66.2226 224.507 66.5746C223.995 66.8946 223.579 67.3586 223.259 67.9666C222.875 68.6706 222.587 69.2626 222.395 69.7426C222.203 70.2226 222.075 70.6226 222.011 70.9426C221.915 71.2946 221.867 71.5826 221.867 71.8066Z" fill="white" />
</svg>

