<?xml version="1.0" encoding="utf-8"?>
<!-- Generator: Adobe Illustrator 24.2.3, SVG Export Plug-In . SVG Version: 6.00 Build 0)  -->
<svg version="1.1" id="Layer_1" xmlns="http://www.w3.org/2000/svg" xmlns:xlink="http://www.w3.org/1999/xlink" x="0px" y="0px" viewBox="0 0 900 1050" style="enable-background:new 0 0 900 1050;" xml:space="preserve">
    <style type="text/css">
	.st0{fill:#7BCABC;}
	.st1{fill:#22A8B1;}
	.st2{fill:#29AFB5;}
	.st3{fill:#3ABEBB;}
	.st4{fill:#20BAB9;}
	.st5{fill:#68C5B9;}
</style>
    <path class="st0" d="M801.9,376.6C774.1,253.2,674.6,109.4,472.8,90.8c-3.7-0.3-7.3-0.6-11-0.9c0,0-205.5-20.9-327.6,185.1
	C98.3,335.4,87.5,399.8,90,460.6c1,24.8,4.3,49,9,72.1c0.8,4.2,1.7,8.3,2.7,12.4c0,0,18.9,87.1,98.7,167c0,0,0,0,0,0
	c79.8,79.8,250.4,248.5,250.4,248.5l84.5-85.1l181.4-182.6c0,0,85.7-80.3,93.2-232.1C811.3,435.4,808.7,406.6,801.9,376.6z" />
    <g>
        <path class="st1" d="M472.8,90.8c-3.7-0.3-7.3-0.6-11-0.9c0,0-205.5-20.9-327.6,185.1C98.3,335.4,87.5,399.8,90,460.6l211.1,25.3
		L472.8,90.8z" />
        <path class="st2" d="M90,460.6c1,24.8,4.3,49,9,72.1l202-46.9L90,460.6z" />
        <path class="st3" d="M801.9,376.6C774.1,253.2,674.6,109.4,472.8,90.8L301.1,485.9L801.9,376.6z" />
        <path class="st4" d="M99.1,532.8c0.8,4.2,1.7,8.3,2.7,12.4c0,0,18.9,87.1,98.7,167l100.6-226.2L99.1,532.8z" />
        <path class="st5" d="M200.5,712.1C200.5,712.1,200.5,712.1,200.5,712.1c79.9,79.9,250.4,248.5,250.4,248.5l84.5-85.1L301.1,485.9
		L200.5,712.1z" />
        <path class="st0" d="M301.1,485.9l234.4,389.7l181.4-182.6c0,0,85.7-80.3,93.2-232.1c1.3-25.5-1.3-54.3-8.1-84.2L301.1,485.9z" />
    </g>
</svg>