<svg width="158" height="25" viewBox="0 0 158 25" fill="none" xmlns="http://www.w3.org/2000/svg">
    <path d="M14.1254 1.13087L16.9641 6.88872C17.165 7.29044 17.5399 7.55824 17.9684 7.62519L24.3154 8.54913C25.4135 8.70981 25.8553 10.0622 25.0519 10.8389L20.4724 15.2979C20.151 15.6059 20.0171 16.0477 20.0841 16.4896L21.1687 22.8099C21.3562 23.9079 20.2046 24.7381 19.2271 24.2159L13.5496 21.2298C13.1613 21.0289 12.6926 21.0289 12.3043 21.2298L6.62678 24.2159C5.64928 24.7381 4.49771 23.8945 4.68517 22.8099L5.76979 16.4896C5.85014 16.0611 5.70284 15.6059 5.38147 15.2979L0.788579 10.8121C-0.00145264 10.0355 0.427039 8.68303 1.52505 8.52235L7.88547 7.6118C8.31396 7.54485 8.68889 7.27704 8.88975 6.87533L11.7285 1.11748C12.2239 0.126589 13.6433 0.126589 14.1254 1.13087Z" fill="#F29100" />
    <path d="M47.2357 1.13087L50.0745 6.88872C50.2753 7.29044 50.6503 7.55824 51.0788 7.62519L57.4258 8.54913C58.5238 8.70981 58.9657 10.0622 58.1623 10.8389L53.5828 15.2979C53.2614 15.6059 53.1275 16.0477 53.1944 16.4896L54.2791 22.8099C54.4665 23.9079 53.315 24.7381 52.3375 24.2159L46.6599 21.2298C46.2716 21.0289 45.803 21.0289 45.4146 21.2298L39.7371 24.2159C38.7596 24.7381 37.6081 23.8945 37.7955 22.8099L38.8801 16.4896C38.9605 16.0611 38.8132 15.6059 38.4918 15.2979L33.8989 10.8121C33.1089 10.0355 33.5374 8.68303 34.6354 8.52235L40.9958 7.6118C41.4243 7.54485 41.7992 7.27704 42.0001 6.87533L44.8389 1.11748C45.3343 0.126589 46.7537 0.126589 47.2357 1.13087Z" fill="#F29100" />
    <path d="M113.456 1.13087L116.295 6.88872C116.496 7.29044 116.871 7.55824 117.299 7.62519L123.647 8.54913C124.745 8.70981 125.186 10.0622 124.383 10.8389L119.803 15.2979C119.482 15.6059 119.348 16.0477 119.415 16.4896L120.5 22.8099C120.687 23.9079 119.536 24.7381 118.558 24.2159L112.881 21.2298C112.492 21.0289 112.024 21.0289 111.635 21.2298L105.958 24.2159C104.98 24.7381 103.829 23.8945 104.016 22.8099L105.101 16.4896C105.181 16.0611 105.034 15.6059 104.713 15.2979L100.12 10.8121C99.3296 10.0355 99.7581 8.68303 100.856 8.52235L107.217 7.6118C107.645 7.54485 108.02 7.27704 108.221 6.87533L111.06 1.11748C111.555 0.126589 112.974 0.126589 113.456 1.13087Z" fill="#F29100" />
    <path d="M80.3461 1.13087L83.1848 6.88872C83.3857 7.29044 83.7606 7.55824 84.1891 7.62519L90.5362 8.54913C91.6342 8.70981 92.076 10.0622 91.2726 10.8389L86.6931 15.2979C86.3717 15.6059 86.2378 16.0477 86.3048 16.4896L87.3894 22.8099C87.5769 23.9079 86.4253 24.7381 85.4478 24.2159L79.7703 21.2298C79.382 21.0289 78.9133 21.0289 78.525 21.2298L72.8475 24.2159C71.87 24.7381 70.7184 23.8945 70.9059 22.8099L71.9905 16.4896C72.0708 16.0611 71.9235 15.6059 71.6022 15.2979L67.0093 10.8121C66.2193 10.0355 66.6477 8.68303 67.7458 8.52235L74.1062 7.6118C74.5347 7.54485 74.9096 7.27704 75.1105 6.87533L77.9492 1.11748C78.4447 0.126589 79.864 0.126589 80.3461 1.13087Z" fill="#F29100" />
    <path d="M146.116 1.34723L146.116 1.34724L146.118 1.35197L148.957 7.10983L148.958 7.11233C149.232 7.65986 149.746 8.02747 150.333 8.1192L150.333 8.11923L150.338 8.11998L156.684 9.04386C157.374 9.14472 157.649 9.99268 157.146 10.4794L157.145 10.4806L152.568 14.9369C152.567 14.9374 152.567 14.9378 152.566 14.9383C152.119 15.3683 151.942 15.9767 152.031 16.5645L152.031 16.5645L152.033 16.5742L153.117 22.894C153.235 23.5842 152.513 24.1002 151.904 23.7748L151.901 23.7733L146.224 20.7873L146.221 20.7857C145.688 20.5103 145.048 20.5103 144.516 20.7857L144.513 20.7873L138.835 23.7733L138.833 23.7748C138.226 24.0987 137.502 23.5742 137.619 22.895L137.619 22.8944L138.703 16.5777C138.814 15.9825 138.61 15.3605 138.171 14.9386L133.581 10.4555C133.58 10.4553 133.58 10.4551 133.58 10.4549C133.079 9.96158 133.359 9.11727 134.038 9.01721C134.038 9.01716 134.039 9.01712 134.039 9.01708L140.398 8.10676L140.398 8.1068L140.404 8.10581C140.991 8.01408 141.505 7.64647 141.778 7.09894L141.78 7.09643L144.617 1.34108C144.617 1.34071 144.617 1.34034 144.618 1.33996C144.931 0.715881 145.817 0.724347 146.116 1.34723Z" stroke="#F29100" />
    <path d="M137.826 15.2858C138.148 15.5942 138.295 16.0367 138.215 16.4791L137.129 22.8078C136.941 23.9073 138.094 24.7386 139.073 24.2156L144.758 21.2256C144.905 21.1452 145.08 21.0915 145.254 21.0915V0.375977C144.825 0.402793 144.409 0.644139 144.181 1.10002L141.339 6.86551C141.138 7.25435 140.762 7.53592 140.333 7.58955L133.978 8.51471C132.878 8.67561 132.436 10.0298 133.227 10.8075L137.826 15.2858Z" fill="#F29100" />
</svg>
    