<svg width="231" height="57" viewBox="0 0 231 57" fill="none" xmlns="http://www.w3.org/2000/svg">
    <path d="M20.309 11.7258L15.8091 3.14038C8.34866 7.04821 2.90139 14.2718 1.30273 22.7979L11.0723 24.5742C11.9604 19.0085 15.4538 14.2718 20.309 11.7258Z" fill="#FFC808" />
    <path d="M10.8946 27.357C10.8946 26.4096 10.9538 25.5215 11.1314 24.6333L1.36186 22.8571C1.06581 24.3965 0.947393 25.9952 0.888184 27.5938C0.888184 29.8438 1.12502 32.0345 1.5987 34.1661L11.4867 31.9161C11.0722 30.4359 10.8946 28.8964 10.8946 27.357Z" fill="#F58B1F" />
    <path d="M11.4275 31.8569L1.53955 34.1069C2.25006 37.1266 3.43425 39.9686 5.03291 42.5739L13.7959 37.1266C12.7301 35.5279 11.9604 33.7516 11.4275 31.8569Z" fill="#F99D1C" />
    <path d="M13.7958 37.1266L5.03281 42.5739C6.33542 44.6462 7.87486 46.5409 9.65115 48.258C4.85518 49.7382 0 50.4487 0 50.4487C0.177628 50.6264 5.6249 54.3565 14.2103 56.1328L20.7825 43.3436C17.9997 41.8633 15.5721 39.7318 13.7958 37.1266Z" fill="#EF3B24" />
    <path d="M28.539 45.0014C25.7562 45.0014 23.151 44.3501 20.8418 43.2251L14.2695 56.0736C18.4142 56.9617 23.3286 57.317 28.7759 56.6657V45.0014C28.6574 45.0014 28.5982 45.0014 28.539 45.0014Z" fill="#F26922" />
    <path d="M28.7168 45.0014V56.6657C31.2628 56.3697 33.868 55.7776 36.5917 54.9486C39.0192 54.2381 41.2692 53.1724 43.3415 51.8697L37.5982 42.5146C35.0522 44.0541 32.0325 45.0014 28.7168 45.0014Z" fill="#7FC042" />
    <path d="M46.1834 27.3571C46.1834 33.7517 42.7492 39.3766 37.6572 42.4555L43.4006 51.8106C47.3676 49.3238 50.6833 45.8304 52.9925 41.6858C55.2424 37.6595 56.5451 33.0412 56.6043 28.186C56.6043 26.0544 56.4266 23.9821 56.0122 21.969L45.8873 24.1597C46.065 25.2255 46.1834 26.2913 46.1834 27.3571Z" fill="#C6D22D" />
    <path d="M29.072 0.00222407C24.276 -0.0569854 19.7761 1.06799 15.8091 3.14033L20.309 11.7257C22.7366 10.4231 25.5786 9.71258 28.5391 9.71258C37.1837 9.71258 44.4073 15.9296 45.8875 24.1597L56.0123 21.9689C53.3479 9.53495 42.3349 0.179853 29.072 0.00222407Z" fill="#E9E015" />
    <path d="M17.4514 33.3729H17.6369C18.4182 33.3729 19.0888 33.2785 19.6487 33.0897C20.2151 32.8944 20.6806 32.6145 21.0451 32.2499C21.4097 31.8853 21.6799 31.4393 21.8557 30.912C22.0315 30.3781 22.1194 29.7727 22.1194 29.0956V26.4003C22.1194 25.8859 22.0673 25.4335 21.9631 25.0428C21.8654 24.6522 21.7222 24.33 21.5334 24.076C21.3511 23.8156 21.1363 23.6203 20.8889 23.4901C20.648 23.3599 20.3811 23.2948 20.0881 23.2948C19.7756 23.2948 19.4989 23.3729 19.258 23.5292C19.0171 23.6789 18.8121 23.884 18.6428 24.1444C18.48 24.4048 18.3531 24.7043 18.2619 25.0428C18.1773 25.3749 18.135 25.7232 18.135 26.0878C18.135 26.4524 18.1773 26.8007 18.2619 27.1327C18.3466 27.4582 18.4735 27.7479 18.6428 28.0018C18.8121 28.2492 19.0237 28.4478 19.2776 28.5975C19.5315 28.7408 19.8309 28.8124 20.176 28.8124C20.508 28.8124 20.8043 28.7505 21.0647 28.6268C21.3316 28.4966 21.5562 28.3274 21.7385 28.119C21.9273 27.9107 22.0705 27.6796 22.1682 27.4257C22.2724 27.1718 22.3244 26.9146 22.3244 26.6542L23.2522 27.162C23.2522 27.6177 23.1545 28.0669 22.9592 28.5096C22.7639 28.9524 22.4904 29.356 22.1389 29.7206C21.7938 30.0787 21.3934 30.3651 20.9377 30.58C20.482 30.7948 19.9937 30.9022 19.4729 30.9022C18.8088 30.9022 18.2196 30.7818 17.7053 30.5409C17.191 30.2935 16.7548 29.955 16.3967 29.5253C16.0451 29.0891 15.7782 28.5813 15.5959 28.0018C15.4136 27.4224 15.3225 26.7941 15.3225 26.1171C15.3225 25.427 15.4332 24.7792 15.6545 24.1737C15.8824 23.5682 16.2046 23.0344 16.6213 22.5721C17.0445 22.1099 17.549 21.7486 18.135 21.4882C18.7274 21.2212 19.385 21.0878 20.1076 21.0878C20.8303 21.0878 21.4878 21.2277 22.0803 21.5077C22.6727 21.7876 23.1806 22.1848 23.6037 22.6991C24.0269 23.2069 24.3524 23.8156 24.5803 24.5253C24.8147 25.2349 24.9319 26.0227 24.9319 26.8885V27.8651C24.9319 28.7896 24.8309 29.649 24.6291 30.4432C24.4338 31.2375 24.1376 31.9569 23.7404 32.6014C23.3498 33.2395 22.8615 33.7863 22.2756 34.2421C21.6962 34.6978 21.0224 35.0461 20.2541 35.287C19.4859 35.5279 18.6265 35.6483 17.676 35.6483H17.4514V33.3729ZM29.7268 33.1385L29.717 35.0233C29.717 35.746 29.5347 36.4751 29.1701 37.2108C28.8121 37.9465 28.3563 38.5487 27.8029 39.0175L26.3381 38.2655C26.5009 37.966 26.6604 37.6665 26.8166 37.3671C26.9729 37.0676 27.1031 36.7388 27.2072 36.3807C27.3114 36.0227 27.3635 35.6158 27.3635 35.16V33.1385H29.7268ZM34.7463 27.1815H36.2502C36.732 27.1815 37.1291 27.1001 37.4416 26.9374C37.7541 26.7681 37.9852 26.5337 38.135 26.2343C38.2912 25.9283 38.3694 25.5734 38.3694 25.1698C38.3694 24.8052 38.2977 24.483 38.1545 24.203C38.0178 23.9165 37.8062 23.6952 37.5197 23.5389C37.2333 23.3762 36.872 23.2948 36.4358 23.2948C36.0907 23.2948 35.7717 23.3632 35.4787 23.4999C35.1858 23.6366 34.9514 23.8287 34.7756 24.076C34.5998 24.3234 34.5119 24.6229 34.5119 24.9745H31.6897C31.6897 24.1932 31.898 23.5129 32.3147 22.9335C32.7378 22.354 33.3043 21.9016 34.0139 21.576C34.7235 21.2505 35.5048 21.0878 36.3576 21.0878C37.3212 21.0878 38.1643 21.244 38.8869 21.5565C39.6096 21.8625 40.1727 22.315 40.5764 22.9139C40.98 23.5129 41.1819 24.2551 41.1819 25.1405C41.1819 25.5897 41.0777 26.0259 40.8694 26.4491C40.661 26.8658 40.3615 27.2434 39.9709 27.5819C39.5868 27.9139 39.1181 28.1809 38.5647 28.3827C38.0113 28.578 37.3895 28.6757 36.6994 28.6757H34.7463V27.1815ZM34.7463 29.3202V27.8651H36.6994C37.4742 27.8651 38.1545 27.953 38.7404 28.1288C39.3264 28.3046 39.8179 28.5585 40.2151 28.8905C40.6122 29.216 40.9117 29.6034 41.1135 30.0526C41.3153 30.4953 41.4162 30.9869 41.4162 31.5272C41.4162 32.1913 41.2893 32.7837 41.0354 33.3046C40.7815 33.8189 40.4234 34.2551 39.9612 34.6132C39.5054 34.9712 38.9716 35.2447 38.3596 35.4335C37.7476 35.6158 37.0803 35.7069 36.3576 35.7069C35.7587 35.7069 35.1695 35.6255 34.5901 35.4628C34.0171 35.2935 33.4963 35.0428 33.0276 34.7108C32.5653 34.3723 32.1942 33.9491 31.9143 33.4413C31.6408 32.927 31.5041 32.3182 31.5041 31.6151H34.3264C34.3264 31.9797 34.4175 32.3052 34.5998 32.5917C34.7821 32.8781 35.0328 33.1027 35.3518 33.2655C35.6773 33.4283 36.0386 33.5096 36.4358 33.5096C36.885 33.5096 37.2691 33.4283 37.5881 33.2655C37.9136 33.0962 38.161 32.8619 38.3303 32.5624C38.5061 32.2564 38.594 31.9016 38.594 31.4979C38.594 30.9771 38.4996 30.5604 38.3108 30.2479C38.122 29.9289 37.8518 29.6945 37.5002 29.5448C37.1487 29.3951 36.732 29.3202 36.2502 29.3202H34.7463Z" fill="#1D1D1B" />
    <path d="M73.5764 24.5392H73.7063C74.121 24.5392 74.4901 24.505 74.8137 24.4366C75.1372 24.3683 75.4107 24.2521 75.634 24.088C75.8573 23.924 76.0259 23.6984 76.1398 23.4113C76.2583 23.1196 76.3176 22.755 76.3176 22.3175V20.7589C76.3176 20.5265 76.2902 20.326 76.2355 20.1573C76.1854 19.9887 76.1102 19.8497 76.01 19.7404C75.9143 19.631 75.798 19.5512 75.6613 19.5011C75.5246 19.4464 75.3697 19.4191 75.1965 19.4191C74.9595 19.4191 74.7567 19.4806 74.5881 19.6036C74.424 19.7221 74.2964 19.8839 74.2053 20.089C74.1187 20.2941 74.0754 20.5197 74.0754 20.7657C74.0754 21.0118 74.1187 21.226 74.2053 21.4083C74.2964 21.5906 74.4286 21.7319 74.6018 21.8322C74.7795 21.9324 75.0005 21.9825 75.2648 21.9825C75.4654 21.9825 75.6385 21.9552 75.7844 21.9005C75.9348 21.8413 76.0578 21.7684 76.1535 21.6818C76.2492 21.5906 76.3221 21.4972 76.3723 21.4015C76.4224 21.3012 76.4475 21.2078 76.4475 21.1212L77.049 21.4015C77.0536 21.7387 76.9488 22.06 76.7346 22.3654C76.5204 22.6707 76.2378 22.9213 75.8869 23.1173C75.5406 23.3087 75.16 23.4044 74.7453 23.4044C74.1984 23.4044 73.7268 23.3019 73.3303 23.0968C72.9338 22.8872 72.6285 22.5864 72.4143 22.1945C72.2046 21.798 72.0998 21.3149 72.0998 20.7452C72.0998 20.2212 72.2297 19.7426 72.4895 19.3097C72.7538 18.8767 73.1184 18.5304 73.5832 18.2706C74.0526 18.0063 74.5904 17.8741 75.1965 17.8741C75.6294 17.8741 76.0328 17.9402 76.4064 18.0724C76.7847 18.2045 77.1128 18.4051 77.3908 18.674C77.6734 18.9428 77.8921 19.2823 78.0471 19.6925C78.2066 20.1027 78.2863 20.5857 78.2863 21.1417V21.6818C78.2863 22.4747 78.1747 23.1515 77.9514 23.712C77.7326 24.268 77.4182 24.7192 77.008 25.0656C76.6024 25.4119 76.1216 25.6648 75.5656 25.8243C75.0096 25.9838 74.3967 26.0636 73.7268 26.0636H73.5695L73.5764 24.5392ZM80.8498 24.5392H80.9797C81.3944 24.5392 81.7635 24.505 82.0871 24.4366C82.4107 24.3683 82.6841 24.2521 82.9074 24.088C83.1307 23.924 83.2994 23.6984 83.4133 23.4113C83.5318 23.1196 83.591 22.755 83.591 22.3175V20.7589C83.591 20.5265 83.5637 20.326 83.509 20.1573C83.4589 19.9887 83.3837 19.8497 83.2834 19.7404C83.1877 19.631 83.0715 19.5512 82.9348 19.5011C82.798 19.4464 82.6431 19.4191 82.4699 19.4191C82.2329 19.4191 82.0301 19.4806 81.8615 19.6036C81.6975 19.7221 81.5699 19.8839 81.4787 20.089C81.3921 20.2941 81.3488 20.5197 81.3488 20.7657C81.3488 21.0118 81.3921 21.226 81.4787 21.4083C81.5699 21.5906 81.702 21.7319 81.8752 21.8322C82.0529 21.9324 82.274 21.9825 82.5383 21.9825C82.7388 21.9825 82.912 21.9552 83.0578 21.9005C83.2082 21.8413 83.3313 21.7684 83.427 21.6818C83.5227 21.5906 83.5956 21.4972 83.6457 21.4015C83.6958 21.3012 83.7209 21.2078 83.7209 21.1212L84.3225 21.4015C84.327 21.7387 84.2222 22.06 84.008 22.3654C83.7938 22.6707 83.5113 22.9213 83.1604 23.1173C82.814 23.3087 82.4335 23.4044 82.0188 23.4044C81.4719 23.4044 81.0002 23.3019 80.6037 23.0968C80.2072 22.8872 79.9019 22.5864 79.6877 22.1945C79.4781 21.798 79.3732 21.3149 79.3732 20.7452C79.3732 20.2212 79.5031 19.7426 79.7629 19.3097C80.0272 18.8767 80.3918 18.5304 80.8566 18.2706C81.326 18.0063 81.8638 17.8741 82.4699 17.8741C82.9029 17.8741 83.3062 17.9402 83.6799 18.0724C84.0581 18.2045 84.3863 18.4051 84.6643 18.674C84.9468 18.9428 85.1656 19.2823 85.3205 19.6925C85.48 20.1027 85.5598 20.5857 85.5598 21.1417V21.6818C85.5598 22.4747 85.4481 23.1515 85.2248 23.712C85.0061 24.268 84.6916 24.7192 84.2814 25.0656C83.8758 25.4119 83.3951 25.6648 82.8391 25.8243C82.2831 25.9838 81.6701 26.0636 81.0002 26.0636H80.843L80.8498 24.5392ZM86.8107 18.4415V17.9152C86.8107 17.5369 86.8928 17.1928 87.0568 16.8829C87.2209 16.573 87.4624 16.3247 87.7814 16.1378C88.1005 15.951 88.4924 15.8575 88.9572 15.8575C89.4357 15.8575 89.8345 15.951 90.1535 16.1378C90.4771 16.3247 90.7186 16.573 90.8781 16.8829C91.0422 17.1928 91.1242 17.5369 91.1242 17.9152V18.4415C91.1242 18.8107 91.0422 19.1502 90.8781 19.4601C90.7186 19.77 90.4794 20.0184 90.1604 20.2052C89.8413 20.392 89.4471 20.4855 88.9777 20.4855C88.5038 20.4855 88.105 20.392 87.7814 20.2052C87.4624 20.0184 87.2209 19.77 87.0568 19.4601C86.8928 19.1502 86.8107 18.8107 86.8107 18.4415ZM88.1164 17.9152V18.4415C88.1164 18.601 88.146 18.7537 88.2053 18.8995C88.2691 19.0408 88.3648 19.157 88.4924 19.2482C88.6245 19.3348 88.7841 19.3781 88.9709 19.3781C89.1669 19.3781 89.3264 19.3348 89.4494 19.2482C89.5725 19.157 89.6636 19.0408 89.7229 18.8995C89.7821 18.7537 89.8117 18.601 89.8117 18.4415V17.9152C89.8117 17.7465 89.7798 17.5916 89.716 17.4503C89.6568 17.3045 89.5633 17.1883 89.4357 17.1017C89.3127 17.0105 89.1532 16.965 88.9572 16.965C88.7749 16.965 88.62 17.0105 88.4924 17.1017C88.3648 17.1883 88.2691 17.3045 88.2053 17.4503C88.146 17.5916 88.1164 17.7465 88.1164 17.9152ZM91.5686 24.0402V23.5138C91.5686 23.1401 91.6506 22.7983 91.8147 22.4884C91.9833 22.1785 92.2271 21.9301 92.5461 21.7433C92.8697 21.5564 93.2661 21.463 93.7355 21.463C94.2095 21.463 94.606 21.5564 94.925 21.7433C95.244 21.9301 95.4855 22.1785 95.6496 22.4884C95.8137 22.7983 95.8957 23.1401 95.8957 23.5138V24.0402C95.8957 24.4139 95.8137 24.7557 95.6496 25.0656C95.4901 25.3754 95.2508 25.6238 94.9318 25.8107C94.6128 25.9975 94.2186 26.0909 93.7492 26.0909C93.2753 26.0909 92.8765 25.9975 92.5529 25.8107C92.2294 25.6238 91.9833 25.3754 91.8147 25.0656C91.6506 24.7557 91.5686 24.4139 91.5686 24.0402ZM92.8811 23.5138V24.0402C92.8811 24.2042 92.9175 24.3592 92.9904 24.505C93.0633 24.6508 93.1636 24.767 93.2912 24.8536C93.4234 24.9402 93.576 24.9835 93.7492 24.9835C93.968 24.9835 94.1389 24.9402 94.2619 24.8536C94.385 24.767 94.4693 24.6508 94.5148 24.505C94.565 24.3592 94.59 24.2042 94.59 24.0402V23.5138C94.59 23.3497 94.5581 23.1971 94.4943 23.0558C94.4305 22.91 94.3348 22.7937 94.2072 22.7072C94.0842 22.616 93.927 22.5704 93.7355 22.5704C93.5441 22.5704 93.3846 22.616 93.257 22.7072C93.134 22.7937 93.0406 22.91 92.9768 23.0558C92.913 23.1971 92.8811 23.3497 92.8811 23.5138ZM94.2209 17.423L89.3605 25.2023L88.4035 24.6964L93.2639 16.9171L94.2209 17.423ZM104.133 22.6046H101.911L101.898 21.3126H103.866C104.14 21.3126 104.365 21.2807 104.543 21.2169C104.721 21.1486 104.853 21.0506 104.94 20.923C105.026 20.7954 105.07 20.6359 105.07 20.4445C105.07 20.2257 105.026 20.0503 104.94 19.9181C104.858 19.7814 104.728 19.6834 104.55 19.6241C104.377 19.5649 104.158 19.5353 103.894 19.5353H102.643V25.9542H100.674V17.9904H103.737C104.256 17.9904 104.719 18.0359 105.124 18.1271C105.534 18.2137 105.883 18.3481 106.17 18.5304C106.457 18.7127 106.676 18.9428 106.826 19.2208C106.977 19.4943 107.052 19.8156 107.052 20.1847C107.052 20.5083 106.974 20.8159 106.82 21.1075C106.669 21.3992 106.421 21.6339 106.074 21.8116C105.733 21.9894 105.27 22.0782 104.687 22.0782L104.133 22.6046ZM104.044 25.9542H101.426L102.116 24.4161H104.044C104.336 24.4161 104.571 24.3774 104.748 24.2999C104.926 24.2179 105.056 24.1108 105.138 23.9786C105.22 23.8419 105.261 23.6961 105.261 23.5411C105.261 23.3497 105.222 23.1857 105.145 23.049C105.072 22.9077 104.951 22.7983 104.782 22.7208C104.618 22.6434 104.402 22.6046 104.133 22.6046H102.41L102.417 21.3126H104.495L104.953 21.839C105.518 21.8025 105.967 21.8777 106.3 22.0646C106.633 22.2469 106.87 22.4861 107.011 22.7823C107.157 23.074 107.23 23.3702 107.23 23.671C107.23 24.0629 107.161 24.4025 107.025 24.6896C106.888 24.9767 106.685 25.2137 106.416 25.4005C106.147 25.5874 105.815 25.7264 105.418 25.8175C105.022 25.9087 104.564 25.9542 104.044 25.9542ZM114.278 24.4161V25.9542H109.697V24.4161H114.278ZM110.395 17.9904V25.9542H108.426V17.9904H110.395ZM113.69 21.0665V22.6046H109.697V21.0665H113.69ZM114.284 17.9904V19.5353H109.697V17.9904H114.284ZM118.502 23.8214L120.348 17.9904H122.419L119.514 25.9542H118.078L118.502 23.8214ZM116.54 17.9904L118.359 23.8009L118.817 25.9542H117.361L114.469 17.9904H116.54ZM128.947 24.4161V25.9542H124.367V24.4161H128.947ZM125.065 17.9904V25.9542H123.096V17.9904H125.065ZM128.36 21.0665V22.6046H124.367V21.0665H128.36ZM128.954 17.9904V19.5353H124.367V17.9904H128.954ZM135.688 24.4161V25.9542H131.108V24.4161H135.688ZM131.805 17.9904V25.9542H129.836V17.9904H131.805ZM135.1 21.0665V22.6046H131.108V21.0665H135.1ZM135.695 17.9904V19.5353H131.108V17.9904H135.695ZM142.182 24.4161V25.9542H137.848V24.4161H142.182ZM138.545 17.9904V25.9542H136.576V17.9904H138.545ZM146.68 17.9904V25.9542H144.697V17.9904H146.68ZM149.271 17.9904V19.5353H142.161V17.9904H149.271ZM160.858 21.8116V22.1398C160.858 22.7459 160.766 23.2905 160.584 23.7736C160.406 24.2566 160.154 24.6691 159.825 25.0109C159.497 25.3527 159.105 25.6147 158.65 25.797C158.198 25.9747 157.699 26.0636 157.153 26.0636C156.606 26.0636 156.104 25.9747 155.649 25.797C155.197 25.6147 154.806 25.3527 154.473 25.0109C154.14 24.6691 153.883 24.2566 153.7 23.7736C153.518 23.2905 153.427 22.7459 153.427 22.1398V21.8116C153.427 21.201 153.516 20.6564 153.694 20.1779C153.876 19.6948 154.131 19.2823 154.459 18.9406C154.792 18.5942 155.184 18.3322 155.635 18.1544C156.091 17.9721 156.592 17.881 157.139 17.881C157.686 17.881 158.185 17.9721 158.636 18.1544C159.092 18.3322 159.486 18.5942 159.819 18.9406C160.151 19.2823 160.406 19.6948 160.584 20.1779C160.766 20.6564 160.858 21.201 160.858 21.8116ZM158.882 22.1398V21.798C158.882 21.4152 158.841 21.0779 158.759 20.7863C158.682 20.49 158.568 20.2417 158.417 20.0411C158.271 19.8361 158.089 19.6811 157.87 19.5763C157.656 19.4669 157.412 19.4122 157.139 19.4122C156.861 19.4122 156.613 19.4669 156.394 19.5763C156.18 19.6811 156 19.8361 155.854 20.0411C155.708 20.2417 155.596 20.49 155.519 20.7863C155.446 21.0779 155.409 21.4152 155.409 21.798V22.1398C155.409 22.518 155.446 22.8553 155.519 23.1515C155.596 23.4477 155.71 23.7006 155.861 23.9103C156.011 24.1154 156.193 24.2726 156.407 24.382C156.626 24.4868 156.875 24.5392 157.153 24.5392C157.426 24.5392 157.67 24.4868 157.884 24.382C158.098 24.2726 158.278 24.1154 158.424 23.9103C158.574 23.7006 158.688 23.4477 158.766 23.1515C158.843 22.8553 158.882 22.518 158.882 22.1398ZM169.088 17.9904V25.9542H167.113L163.961 20.882V25.9542H161.992V17.9904H163.961L167.113 23.0626V17.9904H169.088ZM174.899 23.8214C174.899 23.6938 174.874 23.5776 174.823 23.4728C174.773 23.3634 174.689 23.2654 174.571 23.1788C174.457 23.0922 174.302 23.0102 174.106 22.9327C173.91 22.8553 173.666 22.7823 173.374 22.714C172.873 22.5955 172.438 22.4656 172.069 22.3243C171.704 22.1785 171.401 22.0122 171.159 21.8253C170.922 21.6339 170.745 21.406 170.626 21.1417C170.508 20.8774 170.448 20.5675 170.448 20.212C170.448 19.8702 170.524 19.5558 170.674 19.2687C170.824 18.9816 171.036 18.7355 171.31 18.5304C171.583 18.3253 171.907 18.1658 172.28 18.0519C172.654 17.9379 173.062 17.881 173.504 17.881C174.147 17.881 174.714 17.9812 175.206 18.1818C175.703 18.3823 176.09 18.6671 176.368 19.0363C176.646 19.4008 176.785 19.8406 176.785 20.3556H174.817C174.817 20.1642 174.764 19.9887 174.659 19.8292C174.559 19.6697 174.413 19.5421 174.222 19.4464C174.03 19.3462 173.793 19.296 173.511 19.296C173.238 19.296 173.012 19.3393 172.834 19.4259C172.656 19.5079 172.524 19.615 172.438 19.7472C172.356 19.8748 172.315 20.007 172.315 20.1437C172.315 20.2576 172.34 20.3624 172.39 20.4581C172.445 20.5538 172.529 20.6427 172.643 20.7247C172.761 20.8022 172.914 20.8774 173.101 20.9503C173.292 21.0187 173.522 21.087 173.791 21.1554C174.293 21.2648 174.728 21.3947 175.097 21.545C175.471 21.6909 175.78 21.8663 176.027 22.0714C176.277 22.2765 176.464 22.5203 176.587 22.8029C176.71 23.0809 176.772 23.4021 176.772 23.7667C176.772 24.1313 176.696 24.4572 176.546 24.7443C176.4 25.0268 176.188 25.2661 175.91 25.462C175.637 25.658 175.307 25.8084 174.919 25.9132C174.536 26.0135 174.108 26.0636 173.634 26.0636C173.21 26.0636 172.793 26.0135 172.383 25.9132C171.973 25.8129 171.601 25.658 171.269 25.4484C170.936 25.2342 170.669 24.9607 170.469 24.6281C170.273 24.2954 170.175 23.8966 170.175 23.4318H172.151C172.151 23.6505 172.182 23.8374 172.246 23.9923C172.315 24.1473 172.415 24.2749 172.547 24.3751C172.684 24.4708 172.85 24.5415 173.046 24.587C173.247 24.6326 173.477 24.6554 173.737 24.6554C174.028 24.6554 174.258 24.6144 174.427 24.5323C174.6 24.4458 174.721 24.3387 174.789 24.2111C174.862 24.0835 174.899 23.9536 174.899 23.8214ZM184.872 20.0616L182.753 25.9542H180.764L183.908 17.9904H185.262L184.872 20.0616ZM186.964 25.9542L184.804 20.0616L184.407 17.9904H185.781L188.946 25.9542H186.964ZM186.923 22.9943V24.3956H182.521V22.9943H186.923ZM193.048 20.0616L190.929 25.9542H188.94L192.084 17.9904H193.438L193.048 20.0616ZM195.14 25.9542L192.98 20.0616L192.583 17.9904H193.957L197.122 25.9542H195.14ZM195.099 22.9943V24.3956H190.696V22.9943H195.099ZM204.908 17.9904V25.9542H202.933L199.781 20.882V25.9542H197.813V17.9904H199.781L202.933 23.0626V17.9904H204.908Z" fill="#1D1D1B" />
    <path d="M121.474 35.0836V35.4703C121.474 35.986 121.404 36.4489 121.263 36.859C121.122 37.2653 120.921 37.6129 120.659 37.902C120.398 38.1871 120.083 38.4059 119.716 38.5582C119.353 38.7067 118.946 38.7809 118.497 38.7809C118.056 38.7809 117.652 38.7067 117.284 38.5582C116.921 38.4059 116.605 38.1871 116.335 37.902C116.07 37.6129 115.864 37.2653 115.72 36.859C115.575 36.4489 115.503 35.986 115.503 35.4703V35.0836C115.503 34.568 115.575 34.1071 115.72 33.7008C115.864 33.2906 116.068 32.941 116.329 32.652C116.595 32.3629 116.909 32.1442 117.273 31.9957C117.64 31.8434 118.044 31.7672 118.486 31.7672C118.939 31.7672 119.347 31.8434 119.71 31.9957C120.077 32.1442 120.392 32.3629 120.654 32.652C120.919 32.941 121.122 33.2906 121.263 33.7008C121.404 34.1071 121.474 34.568 121.474 35.0836ZM120.402 35.4703V35.0719C120.402 34.6852 120.359 34.3434 120.273 34.0465C120.187 33.7496 120.062 33.4996 119.898 33.2965C119.734 33.0934 119.532 32.9391 119.294 32.8336C119.056 32.7281 118.786 32.6754 118.486 32.6754C118.196 32.6754 117.935 32.7281 117.7 32.8336C117.466 32.9391 117.265 33.0934 117.097 33.2965C116.933 33.4996 116.806 33.7496 116.716 34.0465C116.626 34.3434 116.581 34.6852 116.581 35.0719V35.4703C116.581 35.8571 116.626 36.2008 116.716 36.5016C116.806 36.7985 116.935 37.0504 117.103 37.2574C117.271 37.4606 117.472 37.6149 117.706 37.7203C117.945 37.8258 118.208 37.8785 118.497 37.8785C118.802 37.8785 119.071 37.8258 119.306 37.7203C119.54 37.6149 119.739 37.4606 119.904 37.2574C120.068 37.0504 120.191 36.7985 120.273 36.5016C120.359 36.2008 120.402 35.8571 120.402 35.4703ZM125.593 36.1207H123.648V35.2242H125.593C125.952 35.2242 126.243 35.1735 126.466 35.0719C126.689 34.9664 126.853 34.8239 126.958 34.6442C127.064 34.4645 127.116 34.2574 127.116 34.0231C127.116 33.8004 127.064 33.5934 126.958 33.402C126.853 33.2106 126.689 33.0563 126.466 32.9391C126.243 32.818 125.952 32.7574 125.593 32.7574H123.941V38.6871H122.857V31.861H125.593C126.152 31.861 126.624 31.9547 127.011 32.1422C127.402 32.3258 127.696 32.5797 127.896 32.9039C128.099 33.2242 128.2 33.5934 128.2 34.0114C128.2 34.3395 128.144 34.6344 128.03 34.8961C127.917 35.1539 127.749 35.3746 127.527 35.5582C127.304 35.7418 127.03 35.8824 126.706 35.9801C126.382 36.0739 126.011 36.1207 125.593 36.1207ZM133.468 31.861V38.6871H132.384V31.861H133.468ZM137.886 31.861L134.868 35.1246L133.181 36.7535L132.97 35.652L134.23 34.2692L136.55 31.861H137.886ZM136.761 38.6871L134.165 35.4293L134.886 34.6559L138.079 38.6871H136.761ZM140.048 31.861V38.6871H138.964V31.861H140.048ZM143.739 35.8453L145.89 31.861H147.109L144.56 36.361H143.898L143.739 35.8453ZM142.245 31.861L144.407 35.8746L144.232 36.361H143.581L141.027 31.861H142.245ZM144.589 35.5055V38.6871H143.511V35.5055H144.589ZM153.736 35.0836V35.4703C153.736 35.986 153.665 36.4489 153.525 36.859C153.384 37.2653 153.183 37.6129 152.921 37.902C152.659 38.1871 152.345 38.4059 151.978 38.5582C151.614 38.7067 151.208 38.7809 150.759 38.7809C150.318 38.7809 149.913 38.7067 149.546 38.5582C149.183 38.4059 148.866 38.1871 148.597 37.902C148.331 37.6129 148.126 37.2653 147.982 36.859C147.837 36.4489 147.765 35.986 147.765 35.4703V35.0836C147.765 34.568 147.837 34.1071 147.982 33.7008C148.126 33.2906 148.329 32.941 148.591 32.652C148.857 32.3629 149.171 32.1442 149.534 31.9957C149.902 31.8434 150.306 31.7672 150.747 31.7672C151.2 31.7672 151.609 31.8434 151.972 31.9957C152.339 32.1442 152.654 32.3629 152.915 32.652C153.181 32.941 153.384 33.2906 153.525 33.7008C153.665 34.1071 153.736 34.568 153.736 35.0836ZM152.663 35.4703V35.0719C152.663 34.6852 152.62 34.3434 152.534 34.0465C152.448 33.7496 152.323 33.4996 152.159 33.2965C151.995 33.0934 151.794 32.9391 151.556 32.8336C151.318 32.7281 151.048 32.6754 150.747 32.6754C150.458 32.6754 150.196 32.7281 149.962 32.8336C149.728 32.9391 149.527 33.0934 149.359 33.2965C149.195 33.4996 149.068 33.7496 148.978 34.0465C148.888 34.3434 148.843 34.6852 148.843 35.0719V35.4703C148.843 35.8571 148.888 36.2008 148.978 36.5016C149.068 36.7985 149.196 37.0504 149.364 37.2574C149.532 37.4606 149.734 37.6149 149.968 37.7203C150.206 37.8258 150.47 37.8785 150.759 37.8785C151.064 37.8785 151.333 37.8258 151.568 37.7203C151.802 37.6149 152.001 37.4606 152.165 37.2574C152.329 37.0504 152.452 36.7985 152.534 36.5016C152.62 36.2008 152.663 35.8571 152.663 35.4703ZM159.929 34.8727V35.7692H155.986V34.8727H159.929ZM156.202 31.861V38.6871H155.118V31.861H156.202ZM160.825 31.861V38.6871H159.741V31.861H160.825Z" fill="#1D1D1B" />
</svg>
    