<svg width="114" height="112" viewBox="0 0 114 112" fill="none" xmlns="http://www.w3.org/2000/svg">
    <path d="M107.645 78.9666L78.6983 80.6866C76.6739 80.8183 74.9016 81.9094 73.8715 83.5756L58.8953 108.376C56.3009 112.665 49.8963 112.133 48.0722 107.427L37.5413 80.5443C36.8228 78.6665 35.2182 77.3342 33.2614 76.838L5.04995 70.2699C0.150506 69.1248 -1.286 62.8753 2.602 59.722L24.9881 41.3244C26.5052 40.0602 27.327 38.1093 27.1719 36.1406L24.6978 7.27038C24.2381 2.28557 29.7691 -1.02878 33.9553 1.65356L58.3628 17.2517C60.0056 18.3375 62.159 18.5227 64.0046 17.725L90.7317 6.4723C95.35 4.54554 100.228 8.70083 98.9718 13.5533L91.6086 41.6267C91.1359 43.5278 91.5932 45.5581 92.9132 47.0987L111.904 69.0125C115.159 72.8125 112.67 78.721 107.645 78.9666Z" fill="url(#paint0_linear_300_25)" />
    <defs>
        <linearGradient id="paint0_linear_300_25" x1="29.1252" y1="101.461" x2="72.9858" y2="-2.99022" gradientUnits="userSpaceOnUse">
            <stop stop-color="#3ABEBB" />
            <stop offset="1" stop-color="#79E7CC" />
        </linearGradient>
    </defs>
</svg>
    