<svg width="35" height="44" viewBox="0 0 35 44" fill="none" xmlns="http://www.w3.org/2000/svg">
    <path d="M20.1657 4C20.3649 4.16065 20.608 4.28897 20.7561 4.48822C24.2289 9.14925 27.7184 13.7998 31.1464 18.4932C33.1014 21.1711 34.3396 24.1766 34.7454 27.4825C35.4799 33.4736 32.9292 38.723 27.7643 41.8286C20.875 45.9691 11.9484 44.0214 7.38643 37.4065C5.62863 34.859 4.89944 31.9996 5.01106 28.9211C5.14042 25.3418 6.28272 22.0714 8.28984 19.1452C10.1499 16.4339 12.1685 13.8311 14.1234 11.1856C15.7467 8.98964 17.3751 6.79683 19.015 4.6134C19.1955 4.37347 19.4678 4.20238 19.6983 4C19.8537 4 20.0102 4 20.1657 4ZM30.6404 30.8155C30.6551 30.2219 30.3494 29.8307 29.88 29.7577C29.3594 29.6763 28.9432 29.9601 28.8075 30.4911C28.7846 30.5787 28.7794 30.6716 28.7554 30.7581C28.5645 31.431 28.4372 32.131 28.1639 32.7694C27.3199 34.7432 25.8511 36.1275 23.9368 37.0664C23.3537 37.3522 23.1638 37.8811 23.4257 38.385C23.676 38.8659 24.2091 39.013 24.7683 38.7428C26.5271 37.8926 27.9772 36.6794 29.0631 35.0488C29.9352 33.7386 30.4641 32.3 30.6404 30.8155Z" fill="url(#paint0_angular_0_1)" />
    <path d="M15.1657 0C15.3649 0.160653 15.608 0.288967 15.7561 0.488219C19.2289 5.14925 22.7184 9.79984 26.1464 14.4932C28.1014 17.1711 29.3396 20.1766 29.7454 23.4825C30.4799 29.4736 27.9292 34.723 22.7643 37.8286C15.875 41.9691 6.94835 40.0214 2.38643 33.4065C0.628635 30.859 -0.100563 27.9996 0.0110595 24.9211C0.140417 21.3418 1.28272 18.0714 3.28984 15.1452C5.14987 12.4339 7.16847 9.83114 9.12343 7.18558C10.7467 4.98964 12.3751 2.79683 14.015 0.613403C14.1955 0.373466 14.4678 0.202381 14.6983 0C14.8537 0 15.0102 0 15.1657 0ZM25.6404 26.8155C25.6551 26.2219 25.3494 25.8307 24.88 25.7577C24.3594 25.6763 23.9432 25.9601 23.8075 26.4911C23.7846 26.5787 23.7794 26.6716 23.7554 26.7581C23.5645 27.431 23.4372 28.131 23.1639 28.7694C22.3199 30.7432 20.8511 32.1275 18.9368 33.0664C18.3537 33.3522 18.1638 33.8811 18.4257 34.385C18.676 34.8659 19.2091 35.013 19.7683 34.7428C21.5271 33.8926 22.9772 32.6794 24.0631 31.0488C24.9352 29.7386 25.4641 28.3 25.6404 26.8155Z" fill="#2BB5B8" />
    <defs>
        <radialGradient id="paint0_angular_0_1" cx="0" cy="0" r="1" gradientUnits="userSpaceOnUse" gradientTransform="translate(19.9348 24) rotate(90) scale(20 14.9348)">
            <stop stop-color="#00CD5E" />
            <stop offset="0.236269" stop-color="#00F3FF" />
            <stop offset="0.455019" stop-color="#C759C9" />
            <stop offset="0.652935" stop-color="#E10000" />
            <stop offset="1" stop-color="#FFE600" />
        </radialGradient>
    </defs>
</svg>
    