<svg width="36" height="37" viewBox="0 0 36 37" fill="none" xmlns="http://www.w3.org/2000/svg">
    <path d="M18 36.3975C27.9411 36.3975 36 28.3386 36 18.3975C36 8.45634 27.9411 0.397461 18 0.397461C8.05888 0.397461 0 8.45634 0 18.3975C0 28.3386 8.05888 36.3975 18 36.3975Z" fill="#F29100" />
    <path d="M19.0005 25.9999C19.0005 25.906 19.0005 25.8298 19.0005 25.7531C19.0005 24.0865 18.9958 22.4194 19.0041 20.7528C19.0057 20.3828 19.0297 20.0102 19.0813 19.6445C19.2238 18.6411 19.7325 18.0968 20.6603 17.9846C21.6851 17.861 22.4021 18.2346 22.6035 19.3397C22.6697 19.7029 22.7031 20.0765 22.7052 20.4454C22.7162 22.2096 22.7115 23.9743 22.7125 25.7385C22.7125 25.8142 22.7125 25.8893 22.7125 25.9686C23.8323 25.9686 24.9255 25.9686 26.0285 25.9686C26.0327 25.9212 26.0395 25.8836 26.0395 25.846C26.0374 23.7886 26.0432 21.7311 26.0291 19.6737C26.0238 18.9312 25.9466 18.1928 25.7306 17.4759C25.4071 16.4031 24.7621 15.6313 23.6664 15.2854C22.9974 15.0741 22.3092 15.0234 21.6157 15.0876C20.821 15.1607 20.1067 15.4482 19.5223 15.9997C19.2854 16.223 19.0923 16.4928 18.8606 16.7626C18.8606 16.2799 18.8606 15.8098 18.8606 15.3323C17.7868 15.3323 16.7395 15.3323 15.6881 15.3323C15.6881 18.8941 15.6881 22.4439 15.6881 25.9999C16.7917 25.9999 17.8796 25.9999 19.0005 25.9999ZM13.5785 25.9958C13.5785 22.4361 13.5785 18.8873 13.5785 15.3308C12.4718 15.3308 11.3786 15.3308 10.2786 15.3308C10.2786 18.8915 10.2786 22.4408 10.2786 25.9958C11.3848 25.9958 12.4775 25.9958 13.5785 25.9958ZM13.8477 11.913C13.8399 10.848 12.9706 9.98915 11.9108 10.0001C10.8589 10.0111 9.99844 10.8778 10 11.9245C10.0016 12.989 10.8829 13.8682 11.9411 13.8614C12.993 13.8541 13.855 12.9733 13.8477 11.913Z" fill="white" />
    <path d="M19.0008 26C17.88 26 16.7921 26 15.6885 26C15.6885 22.444 15.6885 18.8942 15.6885 15.3324C16.7399 15.3324 17.7871 15.3324 18.861 15.3324C18.861 15.8099 18.861 16.28 18.861 16.7627C19.0927 16.4929 19.2857 16.2231 19.5226 15.9998C20.107 15.4477 20.8214 15.1607 21.6161 15.0877C22.3095 15.024 22.9983 15.0746 23.6667 15.2855C24.7625 15.6314 25.4075 16.4037 25.731 17.476C25.947 18.1929 26.0247 18.9312 26.0294 19.6738C26.0435 21.7312 26.0383 23.7886 26.0399 25.8461C26.0399 25.8837 26.0336 25.9212 26.0289 25.9687C24.9258 25.9687 23.8327 25.9687 22.7129 25.9687C22.7129 25.8899 22.7129 25.8143 22.7129 25.7386C22.7119 23.9744 22.7166 22.2097 22.7056 20.4455C22.7035 20.0766 22.6701 19.703 22.6038 19.3398C22.4019 18.2352 21.6855 17.861 20.6607 17.9847C19.7329 18.0969 19.2242 18.6406 19.0817 19.6445C19.0295 20.0103 19.0061 20.3834 19.0045 20.7528C18.9967 22.4195 19.0008 24.0861 19.0008 25.7532C19.0008 25.8294 19.0008 25.9061 19.0008 26Z" fill="white" />
    <path d="M13.5786 25.9958C12.4777 25.9958 11.385 25.9958 10.2788 25.9958C10.2788 22.4408 10.2788 18.8915 10.2788 15.3308C11.3788 15.3308 12.4719 15.3308 13.5786 15.3308C13.5786 18.8869 13.5786 22.4361 13.5786 25.9958Z" fill="white" />
    <path d="M13.8477 11.913C13.855 12.9733 12.993 13.8541 11.9411 13.8614C10.8829 13.8682 10.0016 12.989 10 11.9245C9.99844 10.8778 10.8589 10.0111 11.9108 10.0001C12.9706 9.98915 13.8399 10.848 13.8477 11.913Z" fill="white" />
</svg>
    