<svg width="22" height="22" viewBox="0 0 22 22" fill="none" xmlns="http://www.w3.org/2000/svg">
    <path d="M11 21.9999C12.4033 21.9999 13.541 20.8672 13.541 19.4699C13.541 18.0727 12.4033 16.9399 11 16.9399C9.59663 16.9399 8.45898 18.0727 8.45898 19.4699C8.45898 20.8672 9.59663 21.9999 11 21.9999Z" fill="#1D1D1B" />
    <path d="M2.541 21.9999C3.94435 21.9999 5.08199 20.8672 5.08199 19.4699C5.08199 18.0727 3.94435 16.9399 2.541 16.9399C1.13764 16.9399 0 18.0727 0 19.4699C0 20.8672 1.13764 21.9999 2.541 21.9999Z" fill="#1D1D1B" />
    <path d="M19.459 21.9999C20.8623 21.9999 22 20.8672 22 19.4699C22 18.0727 20.8623 16.9399 19.459 16.9399C18.0556 16.9399 16.918 18.0727 16.918 19.4699C16.918 20.8672 18.0556 21.9999 19.459 21.9999Z" fill="#1D1D1B" />
    <path d="M2.541 13.5297C3.94435 13.5297 5.08199 12.397 5.08199 10.9997C5.08199 9.60244 3.94435 8.46973 2.541 8.46973C1.13764 8.46973 0 9.60244 0 10.9997C0 12.397 1.13764 13.5297 2.541 13.5297Z" fill="#1D1D1B" />
    <path d="M11 13.5297C12.4033 13.5297 13.541 12.397 13.541 10.9997C13.541 9.60244 12.4033 8.46973 11 8.46973C9.59663 8.46973 8.45898 9.60244 8.45898 10.9997C8.45898 12.397 9.59663 13.5297 11 13.5297Z" fill="#1D1D1B" />
    <path d="M19.459 13.5297C20.8623 13.5297 22 12.397 22 10.9997C22 9.60244 20.8623 8.46973 19.459 8.46973C18.0556 8.46973 16.918 9.60244 16.918 10.9997C16.918 12.397 18.0556 13.5297 19.459 13.5297Z" fill="#1D1D1B" />
    <path d="M11 5.05999C12.4033 5.05999 13.541 3.92728 13.541 2.53C13.541 1.13272 12.4033 0 11 0C9.59663 0 8.45898 1.13272 8.45898 2.53C8.45898 3.92728 9.59663 5.05999 11 5.05999Z" fill="#1D1D1B" />
    <path d="M2.541 5.05999C3.94435 5.05999 5.08199 3.92728 5.08199 2.53C5.08199 1.13272 3.94435 0 2.541 0C1.13764 0 0 1.13272 0 2.53C0 3.92728 1.13764 5.05999 2.541 5.05999Z" fill="#1D1D1B" />
    <path d="M19.459 5.05999C20.8623 5.05999 22 3.92728 22 2.53C22 1.13272 20.8623 0 19.459 0C18.0556 0 16.918 1.13272 16.918 2.53C16.918 3.92728 18.0556 5.05999 19.459 5.05999Z" fill="#1D1D1B" />
</svg>
    