<svg width="21" height="21" viewBox="0 0 21 21" fill="none" xmlns="http://www.w3.org/2000/svg">
<path d="M18.7328 14.5903L16.5181 12.3436C16.1263 11.9278 15.6546 11.7119 15.1509 11.7039C14.6551 11.7039 14.1674 11.9118 13.7596 12.3196L12.4724 13.5908C12.3684 13.5349 12.2645 13.4789 12.1606 13.4229C12.0166 13.351 11.8807 13.279 11.7608 13.2071C10.5615 12.4395 9.47408 11.4401 8.43467 10.1448C7.93095 9.49717 7.59514 8.96147 7.34728 8.40979C7.6751 8.10596 7.98692 7.79414 8.29075 7.49031C8.40268 7.37837 8.52262 7.25844 8.63455 7.1465C9.49007 6.29899 9.49806 5.19561 8.65054 4.3401L7.54717 3.22073C7.41924 3.09281 7.29131 2.96488 7.17138 2.83695C6.93152 2.5811 6.67566 2.32524 6.41181 2.07738C6.02004 1.6856 5.5563 1.46973 5.06058 1.46973C4.56486 1.46973 4.08513 1.66961 3.67737 2.06139L3.66937 2.06939L2.27816 3.4526C1.75845 3.96431 1.45463 4.59595 1.38267 5.33153C1.27873 6.51486 1.62253 7.62623 1.88638 8.34582C2.53401 10.1208 3.50946 11.7759 4.96464 13.5429C6.73163 15.6777 8.85842 17.3647 11.297 18.564C12.2245 19.0118 13.4718 19.5395 14.863 19.6434C14.951 19.6514 15.0389 19.6514 15.1189 19.6514C16.0543 19.6594 16.8459 19.3236 17.4695 18.66C17.4775 18.652 17.4855 18.652 17.4855 18.644C17.7014 18.3881 17.9413 18.1563 18.1971 17.9164C18.373 17.7485 18.5489 17.5806 18.7248 17.3967C19.1326 16.9809 19.3405 16.4932 19.3485 15.9975C19.3485 15.4778 19.1406 14.998 18.7328 14.5903Z" stroke="#016F9F" stroke-width="2" stroke-miterlimit="10" stroke-linecap="round" stroke-linejoin="round"/>
<path d="M13.4712 1.09088C16.5654 1.09088 19.068 3.59346 19.068 6.6877" stroke="#016F9F" stroke-width="2" stroke-miterlimit="10" stroke-linecap="round" stroke-linejoin="round"/>
<path d="M13.0073 4.28912C14.5504 4.28912 15.8057 5.54441 15.8057 7.08754" stroke="#016F9F" stroke-width="2" stroke-miterlimit="10" stroke-linecap="round" stroke-linejoin="round"/>
</svg>
