<svg width="44" height="56" viewBox="0 0 44 56" fill="none" xmlns="http://www.w3.org/2000/svg">
    <path d="M9.58861 0C9.71459 0.101574 9.86827 0.182702 9.96193 0.30868C12.1576 3.25565 14.3639 6.19603 16.5313 9.16345C17.7673 10.8566 18.5502 12.7568 18.8068 14.847C19.2711 18.6349 17.6585 21.9539 14.3929 23.9174C10.0371 26.5353 4.39315 25.3039 1.50884 21.1215C0.39746 19.5108 -0.0635819 17.7029 0.00699245 15.7565C0.0887795 13.4935 0.811012 11.4258 2.08003 9.57568C3.25605 7.86145 4.53232 6.21582 5.76836 4.54314C6.79466 3.15474 7.82425 1.76832 8.8611 0.387829C8.97521 0.236127 9.14736 0.127957 9.29312 0C9.3914 0 9.49033 0 9.58861 0ZM16.2114 16.9543C16.2206 16.579 16.0274 16.3317 15.7306 16.2855C15.4014 16.2341 15.1383 16.4135 15.0525 16.7492C15.038 16.8046 15.0347 16.8633 15.0195 16.918C14.8988 17.3435 14.8184 17.786 14.6456 18.1897C14.112 19.4376 13.1833 20.3129 11.973 20.9065C11.6043 21.0872 11.4842 21.4216 11.6498 21.7402C11.8081 22.0443 12.1451 22.1373 12.4986 21.9664C13.6107 21.4289 14.5275 20.6618 15.2141 19.6309C15.7655 18.8025 16.0999 17.8929 16.2114 16.9543Z" fill="#016F9F" />
    <path d="M33.8933 0C34.0193 0.101574 34.173 0.182702 34.2666 0.30868C36.4623 3.25565 38.6686 6.19603 40.836 9.16345C42.072 10.8566 42.8549 12.7568 43.1115 14.847C43.5758 18.6349 41.9632 21.9539 38.6976 23.9174C34.3418 26.5353 28.6978 25.3039 25.8135 21.1215C24.7021 19.5108 24.2411 17.7029 24.3117 15.7565C24.3935 13.4935 25.1157 11.4258 26.3847 9.57568C27.5607 7.86145 28.837 6.21582 30.0731 4.54314C31.0993 3.15474 32.1289 1.76832 33.1658 0.387829C33.2799 0.236127 33.452 0.127957 33.5978 0C33.6961 0 33.795 0 33.8933 0ZM40.5161 16.9543C40.5253 16.579 40.332 16.3317 40.0352 16.2855C39.7061 16.2341 39.4429 16.4135 39.3572 16.7492C39.3427 16.8046 39.3394 16.8633 39.3242 16.918C39.2035 17.3435 39.1231 17.786 38.9502 18.1897C38.4166 19.4376 37.488 20.3129 36.2777 20.9065C35.909 21.0872 35.7889 21.4216 35.9545 21.7402C36.1128 22.0443 36.4498 22.1373 36.8033 21.9664C37.9154 21.4289 38.8322 20.6618 39.5188 19.6309C40.0702 18.8025 40.4046 17.8929 40.5161 16.9543Z" fill="#F29200" />
    <path d="M9.58861 30.7097C9.71459 30.8112 9.86827 30.8924 9.96193 31.0183C12.1576 33.9653 14.3639 36.9057 16.5313 39.8731C17.7673 41.5662 18.5502 43.4665 18.8068 45.5566C19.2711 49.3446 17.6585 52.6635 14.3929 54.6271C10.0371 57.2449 4.39315 56.0135 1.50884 51.8312C0.39746 50.2205 -0.0635819 48.4126 0.00699245 46.4662C0.0887795 44.2032 0.811012 42.1354 2.08003 40.2853C3.25605 38.5711 4.53232 36.9255 5.76836 35.2528C6.79466 33.8644 7.82425 32.478 8.8611 31.0975C8.97521 30.9458 9.14736 30.8376 9.29312 30.7097C9.3914 30.7097 9.49033 30.7097 9.58861 30.7097ZM16.2114 47.664C16.2206 47.2887 16.0274 47.0413 15.7306 46.9952C15.4014 46.9437 15.1383 47.1231 15.0525 47.4589C15.038 47.5143 15.0347 47.573 15.0195 47.6277C14.8988 48.0531 14.8184 48.4957 14.6456 48.8994C14.112 50.1473 13.1833 51.0225 11.973 51.6161C11.6043 51.7969 11.4842 52.1313 11.6498 52.4498C11.8081 52.7539 12.1451 52.8469 12.4986 52.6761C13.6107 52.1385 14.5275 51.3714 15.2141 50.3405C15.7655 49.5121 16.0999 48.6026 16.2114 47.664Z" fill="#2BB5B8" />
    <path d="M33.9758 30.7097C34.1018 30.8112 34.2555 30.8924 34.3491 31.0183C36.5449 33.9653 38.7511 36.9057 40.9185 39.8731C42.1545 41.5662 42.9374 43.4665 43.194 45.5566C43.6583 49.3446 42.0457 52.6635 38.7801 54.6271C34.4243 57.2449 28.7804 56.0135 25.896 51.8312C24.7847 50.2205 24.3236 48.4126 24.3942 46.4662C24.476 44.2032 25.1982 42.1354 26.4672 40.2853C27.6433 38.5711 28.9195 36.9255 30.1556 35.2528C31.1819 33.8644 32.2115 32.478 33.2483 31.0975C33.3624 30.9458 33.5346 30.8376 33.6803 30.7097C33.7786 30.7097 33.8775 30.7097 33.9758 30.7097ZM40.5986 47.664C40.6078 47.2887 40.4146 47.0413 40.1178 46.9952C39.7886 46.9437 39.5255 47.1231 39.4397 47.4589C39.4252 47.5143 39.4219 47.573 39.4067 47.6277C39.286 48.0531 39.2056 48.4957 39.0328 48.8994C38.4992 50.1473 37.5705 51.0225 36.3602 51.6161C35.9915 51.7969 35.8714 52.1313 36.037 52.4498C36.1953 52.7539 36.5323 52.8469 36.8859 52.6761C37.9979 52.1385 38.9147 51.3714 39.6013 50.3405C40.1527 49.5121 40.4871 48.6026 40.5986 47.664Z" fill="#0E2E6B" />
</svg>
    