<svg width="37" height="37" viewBox="0 0 37 37" fill="none" xmlns="http://www.w3.org/2000/svg">
    <path d="M18.665 36.8252C28.6062 36.8252 36.665 28.7663 36.665 18.8252C36.665 8.88407 28.6062 0.825195 18.665 0.825195C8.72391 0.825195 0.665039 8.88407 0.665039 18.8252C0.665039 28.7663 8.72391 36.8252 18.665 36.8252Z" fill="#2BB5B8" />
    <path d="M28.6725 16.1808C28.6725 13.7956 26.7022 11.8252 24.317 11.8252H13.0133C10.6281 11.8252 8.65771 13.7956 8.65771 16.1808V21.4696C8.65771 23.8548 10.6281 25.8252 13.0133 25.8252H24.317C26.7022 25.8252 28.6725 23.8548 28.6725 21.4696V16.1808ZM22.0355 19.1882L16.954 21.677C16.7466 21.7808 16.1244 21.677 16.1244 21.3659V16.2845C16.1244 16.077 16.8503 15.8696 16.954 16.077L21.8281 18.6696C22.0355 18.7733 22.2429 19.0845 22.0355 19.1882Z" fill="white" />
</svg>
    