<svg width="26" height="25" viewBox="0 0 26 25" fill="none" xmlns="http://www.w3.org/2000/svg">
    <path d="M7.70264 7.349C7.70264 4.349 10.1366 1.91504 13.1224 1.91504C16.1224 1.91504 18.5564 4.349 18.5564 7.349C18.5564 10.2499 16.264 12.6415 13.3913 12.783C13.3064 12.783 13.2074 12.783 13.1224 12.783C13.0375 12.783 12.9526 12.783 12.8536 12.783C9.99509 12.6415 7.70264 10.2641 7.70264 7.349Z" fill="white" stroke="#1D1D1B" stroke-width="2" stroke-miterlimit="10" stroke-linecap="round"/>
    <path d="M24.5848 23.0566C23.948 16.5896 19.264 14.4528 19.264 14.4528C17.5801 13.4339 15.6697 12.8821 13.731 12.8396C13.6461 12.8396 13.5612 12.8396 13.4763 12.8396C13.3772 12.8396 13.2923 12.8396 13.2074 12.8396C7.70271 12.967 2.93384 17.2405 1.81592 23.0849" fill="white"/>
    <path d="M24.5848 23.0566C23.948 16.5896 19.264 14.4528 19.264 14.4528C17.5801 13.4339 15.6697 12.8821 13.731 12.8396C13.6461 12.8396 13.5612 12.8396 13.4763 12.8396C13.3772 12.8396 13.2923 12.8396 13.2074 12.8396C7.70271 12.967 2.93384 17.2405 1.81592 23.0849" stroke="#1D1D1B" stroke-width="2" stroke-miterlimit="10" stroke-linecap="round"/>
</svg>
