<svg width="28" height="34" viewBox="0 0 28 34" fill="none" xmlns="http://www.w3.org/2000/svg">
    <path d="M8.69531 6.687C8.69531 4.67316 10.4344 1.31677 13.9127 1.31677" stroke="#1CADB7" stroke-width="2" stroke-linecap="round" />
    <path d="M19.1299 6.687C19.1299 4.67316 17.3908 1.31677 13.9125 1.31677" stroke="#1CADB7" stroke-width="2" stroke-linecap="round" />
    <path d="M2.61587 8.62262C2.64995 8.09653 3.08659 7.68726 3.61378 7.68726H24.2123C24.7395 7.68726 25.1761 8.09653 25.2102 8.62262L26.6902 31.4738C26.7276 32.0503 26.2701 32.5384 25.6923 32.5384H2.13373C1.55601 32.5384 1.09848 32.0503 1.13582 31.4738L2.61587 8.62262Z" stroke="#1CADB7" stroke-width="2" />
    <path d="M19.1306 12.0571C19.1306 15.023 16.7947 17.4274 13.9132 17.4274C11.0317 17.4274 8.6958 15.023 8.6958 12.0571" stroke="#1CADB7" stroke-width="2" stroke-linecap="round" />
</svg>
    