<svg width="40" height="38" viewBox="0 0 40 38" fill="none" xmlns="http://www.w3.org/2000/svg">
    <path opacity="0.8" d="M40 20.1657C40 20.5379 40 25.9918 40 28.1766C40 28.921 39.4263 29.0667 39.0279 29.0667C38.6135 29.0667 34.1036 29.0667 34.1036 29.0667C33.1315 30.329 31.8884 31.4456 30.4542 32.4167V36.8186C30.4542 37.4659 29.9283 38 29.2908 38H25.0518C24.4143 38 23.8884 37.4659 23.8884 36.8186V35.2488C22.1355 35.6696 20.255 35.8961 18.3108 35.8961C16.1753 35.8961 14.1355 35.621 12.239 35.1193V36.8186C12.239 37.4659 11.7131 38 11.0757 38H6.82072C6.18327 38 5.65737 37.4659 5.65737 36.8186V32.0768C2.18327 29.5522 0 26.008 0 22.0915C0 17.0423 3.60159 12.6403 8.97211 10.229H9.01992C10.2311 13.8055 13.5777 16.3949 17.5139 16.3949C21.6414 16.3949 25.1474 13.5466 26.1992 9.66253C27.1076 9.98621 27.9681 10.3584 28.7809 10.7954C29.5936 9.01519 32.3187 7.05698 36.1594 7.88234C36.5896 7.97944 36.8287 8.44877 36.6534 8.86954L34.0398 15.0679C35.1076 16.4111 35.8725 17.9162 36.2709 19.5022C36.2709 19.5022 38.6295 19.5022 39.1713 19.5022C39.6972 19.5022 40 19.6964 40 20.1657ZM10.4382 7.3321C10.4064 3.25383 13.6414 -0.0638029 17.6733 0.000931512C21.498 0.0656659 24.6215 3.23765 24.6853 7.12171C24.749 11.2647 21.4024 14.6147 17.3227 14.4852C13.5299 14.372 10.4701 11.2 10.4382 7.3321ZM18.4861 8.95046C18.4861 9.45215 18.0877 9.80819 17.2749 9.80819C16.51 9.80819 15.7928 9.53307 15.3466 9.3065L14.9801 10.7792C15.3944 11.022 16.255 11.2485 17.0996 11.2485V12.349H18.0877V11.2162C19.5378 10.8925 20.2072 10.0186 20.2072 8.88572C20.2072 7.75287 19.5857 7.05698 18.2311 6.55529C17.243 6.1507 16.7809 5.95649 16.7809 5.4548C16.7809 5.08258 17.1793 4.72654 17.8964 4.72654C18.6135 4.72654 19.1554 4.95311 19.4741 5.09876L19.8725 3.67461C19.4422 3.43185 18.8526 3.27002 18.0239 3.27002V2.13717H17.0359V3.33475C15.7131 3.60987 14.996 4.4676 14.996 5.56809C14.996 6.76567 15.8088 7.4292 17.1155 7.89852C18.1036 8.23838 18.4861 8.44877 18.4861 8.95046Z" fill="url(#paint0_linear_216_2542)" />
    <defs>
        <linearGradient id="paint0_linear_216_2542" x1="20" y1="0" x2="20" y2="38" gradientUnits="userSpaceOnUse">
            <stop stop-color="#79E7CC" />
            <stop offset="0.0001" stop-color="#3ABEBB" />
        </linearGradient>
    </defs>
</svg>
    