<svg width="36" height="37" viewBox="0 0 36 37" fill="none" xmlns="http://www.w3.org/2000/svg">
    <path d="M18 36.3975C27.9411 36.3975 36 28.3386 36 18.3975C36 8.45634 27.9411 0.397461 18 0.397461C8.05888 0.397461 0 8.45634 0 18.3975C0 28.3386 8.05888 36.3975 18 36.3975Z" fill="#F29100" />
    <path d="M18 10.6214C20.4033 10.6214 20.688 10.6305 21.6366 10.6741C22.5141 10.7142 22.9908 10.8605 23.3079 10.9842C23.7277 11.1473 24.0279 11.3428 24.3429 11.6578C24.6579 11.9728 24.8527 12.2723 25.0158 12.6928C25.1388 13.0099 25.2858 13.4866 25.3259 14.3641C25.3695 15.3134 25.3786 15.5981 25.3786 18.0007C25.3786 20.4033 25.3695 20.6887 25.3259 21.6373C25.2858 22.5148 25.1395 22.9915 25.0158 23.3086C24.8527 23.7284 24.6572 24.0286 24.3429 24.3436C24.0279 24.6586 23.7284 24.8534 23.3079 25.0165C22.9908 25.1395 22.5141 25.2865 21.6366 25.3266C20.6873 25.3702 20.4033 25.3793 18 25.3793C15.5967 25.3793 15.312 25.3702 14.3634 25.3266C13.4859 25.2865 13.0092 25.1402 12.6921 25.0165C12.2723 24.8534 11.9721 24.6579 11.6571 24.3436C11.3421 24.0286 11.1473 23.7291 10.9842 23.3086C10.8612 22.9915 10.7142 22.5148 10.6741 21.6373C10.6305 20.688 10.6214 20.4033 10.6214 18.0007C10.6214 15.5981 10.6305 15.3127 10.6741 14.3641C10.7142 13.4866 10.8605 13.0099 10.9842 12.6928C11.1473 12.273 11.3428 11.9728 11.6571 11.6578C11.9714 11.3428 12.2716 11.148 12.6921 10.9842C13.0092 10.8612 13.4859 10.7142 14.3634 10.6741C15.312 10.6305 15.5967 10.6214 18 10.6214ZM18 9C15.5559 9 15.2494 9.01055 14.2896 9.05414C13.3313 9.09773 12.6773 9.25031 12.1043 9.4725C11.5123 9.70242 11.0102 10.0104 10.5103 10.5103C10.0104 11.0102 9.70242 11.513 9.4725 12.105C9.25031 12.6773 9.09773 13.3313 9.05414 14.2896C9.01055 15.2494 9 15.5559 9 18C9 20.4441 9.01055 20.7506 9.05414 21.7104C9.09773 22.668 9.25031 23.3227 9.4725 23.895C9.70242 24.487 10.0104 24.9891 10.5103 25.489C11.0109 25.9896 11.5123 26.2969 12.1043 26.5268C12.6766 26.749 13.3313 26.9016 14.2889 26.9452C15.2494 26.9895 15.5559 27 18 27C20.4441 27 20.7506 26.9895 21.7104 26.9459C22.668 26.9023 23.3227 26.7497 23.895 26.5275C24.487 26.2976 24.9891 25.9896 25.489 25.4897C25.9896 24.9891 26.2969 24.4877 26.5268 23.8957C26.749 23.3234 26.9016 22.6687 26.9452 21.7111C26.9888 20.7513 26.9993 20.4448 26.9993 18.0007C26.9993 15.5566 26.9888 15.2501 26.9452 14.2903C26.9016 13.3327 26.749 12.678 26.5268 12.1057C26.2969 11.5137 25.9889 11.0116 25.489 10.5117C24.9891 10.0118 24.487 9.70242 23.895 9.4725C23.3227 9.25031 22.668 9.09773 21.7104 9.05414C20.7506 9.01055 20.4441 9 18 9ZM18 13.3784C15.4477 13.3784 13.3784 15.4477 13.3784 18C13.3784 20.5523 15.4477 22.6216 18 22.6216C20.5523 22.6216 22.6216 20.5523 22.6216 18C22.6216 15.4477 20.5523 13.3784 18 13.3784ZM18 21.0002C16.3434 21.0002 14.9998 19.6573 14.9998 18C14.9998 16.3427 16.3427 14.9998 18 14.9998C19.6573 14.9998 21.0002 16.3427 21.0002 18C21.0002 19.6573 19.6566 21.0002 18 21.0002ZM23.8845 13.1955C23.8845 13.7918 23.4007 14.2755 22.8045 14.2755C22.2082 14.2755 21.7245 13.7918 21.7245 13.1955C21.7245 12.5993 22.2082 12.1155 22.8045 12.1155C23.4007 12.1155 23.8845 12.5993 23.8845 13.1955Z" fill="white" />
</svg>
