<svg width="46" height="43" viewBox="0 0 46 43" fill="none" xmlns="http://www.w3.org/2000/svg">
    <path d="M12.9395 12.1824C12.9395 6.51397 17.5384 1.91504 23.1801 1.91504C28.8485 1.91504 33.4475 6.51397 33.4475 12.1824C33.4475 17.6637 29.1159 22.1824 23.6881 22.4498C23.5277 22.4498 23.3405 22.4498 23.1801 22.4498C23.0197 22.4498 22.8592 22.4498 22.6721 22.4498C17.271 22.1824 12.9395 17.6904 12.9395 12.1824Z" stroke="#016F9F" stroke-width="2" stroke-miterlimit="10" stroke-linecap="round" />
    <path d="M44.8378 41.8615C43.6346 29.6422 34.7843 25.6048 34.7843 25.6048C31.6025 23.6796 27.9929 22.6369 24.3298 22.5566C24.1693 22.5566 24.0089 22.5566 23.8485 22.5566C23.6613 22.5566 23.5009 22.5566 23.3405 22.5566C12.9394 22.7973 3.92871 30.8721 1.81641 41.9149" stroke="#016F9F" stroke-width="2" stroke-miterlimit="10" stroke-linecap="round" />
</svg>
    