<svg width="32" height="32" viewBox="0 0 32 32" fill="none" xmlns="http://www.w3.org/2000/svg">
    <path d="M6.58888 27.6169C4.73662 27.6169 2.88437 27.6152 1.03295 27.6177C0.386043 27.6186 0.00540845 27.9992 0.00290427 28.6453C-0.000434621 29.4049 0.00123483 30.1645 0.00290427 30.9241C0.00457372 31.6144 0.374356 31.99 1.058 31.99C4.75165 31.9908 8.4453 31.9908 12.139 31.99C12.8059 31.99 13.1832 31.6119 13.1849 30.9466C13.1874 30.2079 13.1857 29.4691 13.1857 28.7304C13.1849 27.9767 12.8301 27.6177 12.083 27.6177C10.2516 27.6169 8.42026 27.6169 6.58888 27.6169ZM9.89772 9.38818C9.91275 9.43493 9.91692 9.46498 9.93194 9.48919C10.5254 10.4433 11.1164 11.3982 11.7216 12.3448C11.7733 12.4266 11.9211 12.4892 12.0238 12.49C14.6682 12.4975 17.3126 12.4984 19.9578 12.4883C20.0738 12.4875 20.2366 12.4007 20.2992 12.303C20.8852 11.3932 21.4536 10.4733 22.0263 9.55513C22.0563 9.50671 22.0747 9.45079 22.1031 9.38818C18.0213 9.38818 13.967 9.38818 9.89772 9.38818ZM12.5605 14.3832C12.5605 15.3214 12.5563 16.2262 12.5622 17.1302C12.5655 17.7304 12.9587 18.1177 13.568 18.1186C15.1907 18.1219 16.8134 18.1227 18.4361 18.1186C19.0413 18.1169 19.4286 17.7271 19.4319 17.1202C19.4369 16.278 19.4336 15.4349 19.4319 14.5927C19.4319 14.5242 19.4169 14.455 19.4086 14.384C17.1256 14.3832 14.8618 14.3832 12.5605 14.3832ZM16.9344 20.0167C16.2892 20.0167 15.6824 20.0167 15.0597 20.0167C15.0597 20.1528 15.0597 20.2663 15.0597 20.3798C15.0597 23.8656 15.0597 27.3514 15.0597 30.8372C15.0597 30.9207 15.0563 31.0042 15.0613 31.0868C15.0897 31.5718 15.462 31.9549 15.9344 31.9883C16.4019 32.0209 16.8343 31.6845 16.9186 31.2095C16.9403 31.0877 16.9336 30.9608 16.9336 30.8364C16.9344 27.3506 16.9344 23.8648 16.9344 20.379C16.9344 20.2655 16.9344 20.1528 16.9344 20.0167ZM9.61058 17.7605C9.10807 17.7496 8.75248 17.9742 8.60807 18.3181C8.44697 18.7029 8.51124 19.0601 8.80006 19.3556C9.37435 19.9449 9.95532 20.5267 10.5438 21.101C10.9411 21.4883 11.5246 21.4892 11.8902 21.1227C12.2583 20.7546 12.255 20.1762 11.8652 19.7772C11.2976 19.1962 10.7283 18.6169 10.1373 18.0601C9.96533 17.899 9.71742 17.8189 9.61058 17.7605ZM23.4812 18.8114C23.4436 18.303 23.2775 18.01 22.9186 17.8464C22.5505 17.6787 22.1682 17.7454 21.8568 18.0518C21.2775 18.6211 20.7024 19.1945 20.1339 19.7747C19.7408 20.1762 19.7341 20.7463 20.1005 21.1194C20.4628 21.4875 21.0496 21.4925 21.447 21.1069C22.0296 20.5409 22.6097 19.9716 23.1648 19.3798C23.3318 19.2012 23.4119 18.9408 23.4812 18.8114ZM8.50039 24.4933C8.89522 24.4933 9.29004 24.4967 9.68487 24.4925C10.265 24.4867 10.6807 24.0969 10.6849 23.5618C10.689 23.0276 10.2717 22.6236 9.69739 22.6202C8.89772 22.6152 8.09806 22.6152 7.29839 22.6202C6.7266 22.6244 6.30841 23.0317 6.31425 23.5651C6.32009 24.086 6.73161 24.4833 7.28587 24.4917C7.69071 24.4975 8.09555 24.4925 8.50039 24.4933ZM23.5263 22.6186C23.1106 22.6186 22.6949 22.6135 22.28 22.6194C21.7266 22.6277 21.3134 23.0259 21.3092 23.5468C21.3051 24.0685 21.7141 24.4842 22.2633 24.49C23.0839 24.4984 23.9044 24.4984 24.7249 24.49C25.2758 24.4842 25.684 24.071 25.6807 23.5476C25.6765 23.0251 25.2658 22.6277 24.7107 22.6194C24.3159 22.6135 23.9211 22.6186 23.5263 22.6186Z" fill="white" />
    <path d="M31.9929 1.18698C31.7442 1.72871 31.3151 1.89315 30.7342 1.88314C29.2258 1.85643 27.7158 1.87396 26.2075 1.87396C25.6232 3.62437 24.4228 4.56677 22.5622 4.7045C22.5622 5.6227 22.5622 6.5434 22.5622 7.4808C18.1816 7.4808 13.8335 7.4808 9.45122 7.4808C9.45122 6.56677 9.45122 5.64607 9.45122 4.70868C7.58812 4.57429 6.37276 3.63606 5.78678 1.87479C4.24672 1.87479 2.70665 1.87562 1.16575 1.87396C1.03053 1.87396 0.892796 1.8798 0.761744 1.85476C0.370259 1.7788 0.0714277 1.4591 0.0104929 1.07095C-0.0479378 0.702837 0.141545 0.322203 0.482112 0.123539C0.551394 0.0826377 0.619841 0.0409015 0.689123 0C10.8945 0 21.0998 0 31.3051 0C31.614 0.149416 31.8435 0.37813 31.9921 0.686978C31.9929 0.853922 31.9929 1.02087 31.9929 1.18698Z" fill="#016F9F" />
    <path d="M31.9929 31.3038C31.7441 31.8455 31.3151 32.0024 30.735 31.9999C27.134 31.9824 23.5321 31.9916 19.9311 31.9908C19.1599 31.9908 18.8093 31.6385 18.8093 30.8655C18.8084 30.1268 18.8068 29.3873 18.8101 28.6485C18.8126 28.0008 19.1916 27.6185 19.8376 27.6185C23.543 27.6168 27.2483 27.621 30.9537 27.6135C31.4712 27.6126 31.7775 27.8781 31.9929 28.3046C31.9929 29.3038 31.9929 30.3038 31.9929 31.3038Z" fill="#016F9F" />
    <path d="M6.58902 27.6169C8.4204 27.6169 10.2518 27.6161 12.0832 27.6169C12.8302 27.6169 13.185 27.9758 13.1858 28.7296C13.1867 29.4683 13.1883 30.207 13.185 30.9458C13.1825 31.6119 12.8052 31.9892 12.1391 31.9892C8.44544 31.9908 4.75179 31.9908 1.05814 31.9892C0.374497 31.9892 0.00471475 31.6127 0.0030453 30.9232C0.00137585 30.1636 0.000541131 29.404 0.0030453 28.6444C0.00554947 27.9984 0.386184 27.6177 1.03309 27.6169C2.88535 27.6161 4.73676 27.6169 6.58902 27.6169Z" fill="#016F9F" />
    <path d="M9.89771 9.38818C13.967 9.38818 18.0221 9.38818 22.1022 9.38818C22.0738 9.45079 22.0563 9.50671 22.0254 9.55513C21.4528 10.4733 20.8843 11.394 20.2984 12.303C20.2358 12.3999 20.0738 12.4875 19.957 12.4883C17.3126 12.4984 14.6682 12.4984 12.0229 12.49C11.9194 12.49 11.7725 12.4266 11.7207 12.3448C11.1156 11.3982 10.5246 10.4424 9.93109 9.48919C9.9169 9.46581 9.91273 9.43493 9.89771 9.38818Z" fill="#016F9F" />
    <path d="M12.5607 14.3831C14.8612 14.3831 17.1258 14.3831 19.4087 14.3831C19.4171 14.4549 19.4321 14.5234 19.4321 14.5918C19.4338 15.434 19.4371 16.2771 19.4321 17.1193C19.4288 17.7262 19.0415 18.116 18.4363 18.1177C16.8136 18.1218 15.1909 18.121 13.5682 18.1177C12.9597 18.116 12.5657 17.7295 12.5623 17.1294C12.5573 16.2262 12.5607 15.3213 12.5607 14.3831Z" fill="#016F9F" />
    <path d="M16.9345 20.0167C16.9345 20.1519 16.9345 20.2655 16.9345 20.379C16.9345 23.8648 16.9345 27.3506 16.9336 30.8364C16.9336 30.9608 16.9403 31.0885 16.9186 31.2095C16.8343 31.6837 16.4028 32.0209 15.9345 31.9883C15.462 31.9549 15.0897 31.5718 15.0614 31.0868C15.0563 31.0042 15.0597 30.9207 15.0597 30.8372C15.0597 27.3514 15.0597 23.8656 15.0597 20.3798C15.0597 20.2663 15.0597 20.1528 15.0597 20.0167C15.6824 20.0167 16.2892 20.0167 16.9345 20.0167Z" fill="#016F9F" />
    <path d="M9.61054 17.7604C9.71738 17.8189 9.96529 17.899 10.1364 18.0609C10.7274 18.6177 11.2967 19.1978 11.8643 19.778C12.2549 20.1778 12.2574 20.7554 11.8893 21.1235C11.5237 21.4892 10.9402 21.4892 10.5429 21.1018C9.95444 20.5276 9.37264 19.9449 8.79918 19.3564C8.5112 19.0609 8.4461 18.7029 8.6072 18.3189C8.75244 17.9741 9.10803 17.7496 9.61054 17.7604Z" fill="#016F9F" />
    <path d="M23.4813 18.8113C23.4121 18.9407 23.3319 19.2003 23.165 19.3789C22.6099 19.9716 22.0298 20.54 21.4471 21.106C21.0498 21.4916 20.463 21.4875 20.1007 21.1185C19.7334 20.7454 19.7409 20.1753 20.1341 19.7738C20.7025 19.1936 21.2777 18.6202 21.857 18.0509C22.1683 17.7454 22.5506 17.6778 22.9187 17.8456C23.2777 18.01 23.4438 18.3038 23.4813 18.8113Z" fill="#016F9F" />
    <path d="M8.50051 24.4933C8.09567 24.4933 7.69 24.4983 7.28516 24.4916C6.7309 24.4833 6.31855 24.0859 6.31354 23.5651C6.30769 23.0317 6.72589 22.6243 7.29768 22.6202C8.09734 22.6143 8.89701 22.6152 9.69667 22.6202C10.271 22.6235 10.6883 23.0275 10.6842 23.5617C10.68 24.096 10.2643 24.4858 9.68415 24.4925C9.29016 24.4966 8.89534 24.4933 8.50051 24.4933Z" fill="#016F9F" />
    <path d="M23.5264 22.6185C23.9212 22.6185 24.316 22.6135 24.7109 22.6193C25.266 22.6277 25.6766 23.025 25.6808 23.5476C25.685 24.0709 25.276 24.4841 24.7251 24.49C23.9045 24.4983 23.084 24.4983 22.2635 24.49C21.7142 24.4841 21.3044 24.0684 21.3094 23.5467C21.3135 23.0267 21.7267 22.6277 22.2802 22.6193C22.6958 22.6135 23.1115 22.6185 23.5264 22.6185Z" fill="#016F9F" />
</svg>
    