<svg width="43" height="43" viewBox="0 0 43 43" fill="none" xmlns="http://www.w3.org/2000/svg">
    <circle cx="21.5" cy="21.5" r="21.5" fill="#EEE8DE" />
    <g filter="url(#filter0_i_888_377)">
        <path d="M21.1237 11C21.2304 11.0843 21.3606 11.1517 21.44 11.2563C23.3002 13.7034 25.1694 16.1449 27.0057 18.6089C28.0529 20.0148 28.7162 21.5927 28.9335 23.3283C29.3269 26.4736 27.9606 29.2296 25.194 30.86C21.5037 33.0338 16.722 32.0112 14.2783 28.5384C13.3367 27.201 12.9461 25.6998 13.0059 24.0836C13.0752 22.2045 13.6871 20.4875 14.7622 18.9512C15.7586 17.5278 16.8399 16.1613 17.8871 14.7724C18.7566 13.6196 19.6289 12.4683 20.5073 11.322C20.604 11.1961 20.7498 11.1063 20.8733 11C20.9566 11 21.0404 11 21.1237 11ZM26.7346 25.0781C26.7425 24.7665 26.5787 24.5611 26.3273 24.5228C26.0484 24.4801 25.8255 24.629 25.7528 24.9078C25.7405 24.9538 25.7377 25.0026 25.7249 25.048C25.6226 25.4013 25.5544 25.7688 25.408 26.104C24.956 27.1402 24.1692 27.8669 23.1438 28.3599C22.8314 28.5099 22.7297 28.7876 22.8699 29.0521C23.0041 29.3046 23.2896 29.3818 23.5891 29.24C24.5313 28.7936 25.308 28.1567 25.8897 27.3006C26.3569 26.6127 26.6402 25.8575 26.7346 25.0781Z" fill="#D9CAB5" />
    </g>
    <path d="M14.6872 28.2506L14.6872 28.2507C16.9796 31.5084 21.4722 32.472 24.9402 30.4292C27.5376 28.8985 28.8056 26.3348 28.4374 23.3904L14.6872 28.2506ZM14.6872 28.2506C13.8148 27.0115 13.4494 25.6204 13.5056 24.102L13.5056 24.102M14.6872 28.2506L13.5056 24.102M13.5056 24.102C13.5711 22.3254 14.1483 20.7006 15.1719 19.238M13.5056 24.102L15.1719 19.238M21.0077 11.5321C21.0331 11.5509 21.0422 11.5598 21.0435 11.561C21.4295 12.0688 21.8157 12.5761 22.2019 13.0832C23.6774 15.0213 25.1512 16.9572 26.6047 18.9076L21.0077 11.5321ZM21.0077 11.5321C21.0023 11.5363 20.9976 11.5401 20.9937 11.5432C20.939 11.5872 20.9155 11.6114 20.904 11.6264C20.0267 12.7712 19.1553 13.9212 18.2863 15.0734L21.0077 11.5321ZM15.1719 19.238C15.8777 18.2296 16.6234 17.2542 17.3764 16.2692M15.1719 19.238L17.3764 16.2692M17.3764 16.2692C17.6792 15.8731 17.9832 15.4754 18.2863 15.0735L17.3764 16.2692ZM27.231 25.1383L27.2339 25.1146L27.2345 25.0907C27.2406 24.8455 27.1797 24.5998 27.028 24.3978C26.8735 24.1919 26.6501 24.0663 26.403 24.0286C26.1548 23.9905 25.9001 24.0349 25.6845 24.1793C25.47 24.3229 25.3322 24.54 25.2693 24.7805C25.2568 24.8276 25.2496 24.8728 25.2463 24.8933C25.246 24.895 25.2458 24.8965 25.2455 24.8978C25.2438 24.9084 25.2428 24.9142 25.2423 24.9169C25.2023 25.0557 25.1707 25.1791 25.1416 25.2929C25.0837 25.5192 25.0356 25.7076 24.9498 25.9038L24.9497 25.904C24.5537 26.8118 23.8644 27.4586 22.9272 27.9092C22.6831 28.0264 22.4733 28.2178 22.3708 28.4825C22.2659 28.7535 22.2977 29.0403 22.4282 29.2863L22.4284 29.2867C22.5581 29.5309 22.7741 29.7072 23.04 29.7774C23.2997 29.8459 23.5673 29.8036 23.8031 29.6919L23.8032 29.6918C24.8187 29.2107 25.6672 28.5176 26.3033 27.5817L26.3034 27.5815C26.8139 26.8298 27.1267 25.9992 27.231 25.1383ZM26.6047 18.9077C27.6036 20.2487 28.2314 21.7459 28.4374 23.3904L26.6047 18.9077Z" stroke="#C5B5A0" />
    <defs>
        <filter id="filter0_i_888_377" x="13" y="11" width="16" height="21" filterUnits="userSpaceOnUse" color-interpolation-filters="sRGB">
            <feFlood flood-opacity="0" result="BackgroundImageFix" />
            <feBlend mode="normal" in="SourceGraphic" in2="BackgroundImageFix" result="shape" />
            <feColorMatrix in="SourceAlpha" type="matrix" values="0 0 0 0 0 0 0 0 0 0 0 0 0 0 0 0 0 0 127 0" result="hardAlpha" />
            <feOffset />
            <feGaussianBlur stdDeviation="1" />
            <feComposite in2="hardAlpha" operator="arithmetic" k2="-1" k3="1" />
            <feColorMatrix type="matrix" values="0 0 0 0 0 0 0 0 0 0 0 0 0 0 0 0 0 0 0.4 0" />
            <feBlend mode="normal" in2="shape" result="effect1_innerShadow_888_377" />
        </filter>
    </defs>
</svg>
    