<svg width="42" height="42" viewBox="0 0 42 42" fill="none" xmlns="http://www.w3.org/2000/svg">
    <g clip-path="url(#clip0_888_385)">
        <path d="M19.8471 0.00012207C14.8644 0.276384 9.96177 2.31688 6.15565 6.12301C-2.05188 14.3305 -2.05188 27.6369 6.15565 35.8438C14.3633 44.052 27.6702 44.052 35.8771 35.8438C39.6839 32.0383 41.7244 27.1344 42 22.153L19.8471 0.00012207Z" fill="#67C5B9" />
        <path d="M7.86499 29.7569L15.3708 17.2471L22.8766 29.7569H7.86499Z" fill="#C4C4C4" />
        <path d="M14.1196 29.7569L24.1273 12.2432L34.1352 29.7569H14.1196Z" fill="url(#paint0_linear_888_385)" />
        <path d="M42 22.153L19.8471 9.15527e-05C19.5279 5.76155 21.5684 11.6287 25.9706 16.0301C30.3708 20.4316 36.2386 22.4715 42 22.153Z" fill="#016F9F" />
    </g>
    <defs>
        <linearGradient id="paint0_linear_888_385" x1="14" y1="21" x2="34" y2="21" gradientUnits="userSpaceOnUse">
            <stop offset="0.0885417" stop-color="#51CF24" />
            <stop offset="0.239583" stop-color="#2CCBD6" />
            <stop offset="0.432292" stop-color="#2F2CD6" />
            <stop offset="0.578125" stop-color="#D22CD6" />
            <stop offset="0.734375" stop-color="#D62C2C" />
            <stop offset="0.869792" stop-color="#D6DA17" />
        </linearGradient>
        <clipPath id="clip0_888_385">
            <rect width="42" height="42" fill="white" />
        </clipPath>
    </defs>
</svg>
    