<svg width="48" height="33" viewBox="0 0 48 33" fill="none" xmlns="http://www.w3.org/2000/svg">
    <path d="M4.9738 0C5.03914 0.0526885 5.11886 0.0947709 5.16744 0.160118C6.3064 1.68877 7.45084 3.214 8.57509 4.75326C9.21625 5.63151 9.62236 6.6172 9.75545 7.70142C9.99631 9.66629 9.15979 11.3879 7.46589 12.4064C5.20645 13.7644 2.27881 13.1256 0.782664 10.9561C0.20617 10.1206 -0.0329811 9.18285 0.00362712 8.17322C0.0460516 6.99936 0.420687 5.92677 1.07895 4.96709C1.68898 4.07789 2.351 3.22426 2.99216 2.35661C3.52452 1.63642 4.05859 0.917259 4.59642 0.201174C4.65561 0.122484 4.74491 0.0663738 4.82052 0C4.8715 0 4.92282 0 4.9738 0ZM8.40915 8.79453C8.41394 8.59986 8.3137 8.47156 8.15974 8.44761C7.98902 8.42092 7.8525 8.51398 7.80803 8.68813C7.8005 8.71687 7.79879 8.74732 7.79092 8.77572C7.72831 8.99639 7.68657 9.22596 7.59693 9.43535C7.32014 10.0827 6.83842 10.5367 6.21061 10.8446C6.01935 10.9383 5.95709 11.1118 6.04296 11.2771C6.12507 11.4348 6.2999 11.483 6.48329 11.3944C7.06012 11.1156 7.53569 10.7177 7.89185 10.1829C8.17787 9.75319 8.35133 9.28139 8.40915 8.79453Z" fill="#016F9F" />
    <path d="M17.581 0C17.6463 0.0526885 17.726 0.0947709 17.7746 0.160118C18.9136 1.68877 20.058 3.214 21.1823 4.75326C21.8234 5.63151 22.2295 6.6172 22.3626 7.70142C22.6035 9.66629 21.767 11.3879 20.0731 12.4064C17.8136 13.7644 14.886 13.1256 13.3898 10.9561C12.8133 10.1206 12.5742 9.18285 12.6108 8.17322C12.6532 6.99936 13.0279 5.92677 13.6861 4.96709C14.2962 4.07789 14.9582 3.22426 15.5993 2.35661C16.1317 1.63642 16.6658 0.917259 17.2036 0.201174C17.2628 0.122484 17.3521 0.0663738 17.4277 0C17.4787 0 17.53 0 17.581 0ZM21.0163 8.79453C21.0211 8.59986 20.9209 8.47156 20.7669 8.44761C20.5962 8.42092 20.4597 8.51398 20.4152 8.68813C20.4077 8.71687 20.406 8.74732 20.3981 8.77572C20.3355 8.99639 20.2937 9.22596 20.2041 9.43535C19.9273 10.0827 19.4456 10.5367 18.8178 10.8446C18.6265 10.9383 18.5643 11.1118 18.6501 11.2771C18.7323 11.4348 18.9071 11.483 19.0905 11.3944C19.6673 11.1156 20.1429 10.7177 20.499 10.1829C20.7851 9.75319 20.9585 9.28139 21.0163 8.79453Z" fill="#F29200" />
    <path d="M30.1777 0C30.243 0.0526885 30.3227 0.0947709 30.3713 0.160118C31.5103 1.68877 32.6547 3.214 33.7789 4.75326C34.4201 5.63151 34.8262 6.6172 34.9593 7.70142C35.2002 9.66629 34.3637 11.3879 32.6698 12.4064C30.4103 13.7644 27.4827 13.1256 25.9865 10.9561C25.41 10.1206 25.1709 9.18285 25.2075 8.17322C25.2499 6.99936 25.6245 5.92677 26.2828 4.96709C26.8928 4.07789 27.5549 3.22426 28.196 2.35661C28.7284 1.63642 29.2624 0.917259 29.8003 0.201174C29.8595 0.122484 29.9488 0.0663738 30.0244 0C30.0754 0 30.1267 0 30.1777 0ZM33.613 8.79453C33.6178 8.59986 33.5176 8.47156 33.3636 8.44761C33.1929 8.42092 33.0564 8.51398 33.0119 8.68813C33.0044 8.71687 33.0026 8.74732 32.9948 8.77572C32.9322 8.99639 32.8904 9.22596 32.8008 9.43535C32.524 10.0827 32.0423 10.5367 31.4145 10.8446C31.2232 10.9383 31.1609 11.1118 31.2468 11.2771C31.3289 11.4348 31.5038 11.483 31.6871 11.3944C32.264 11.1156 32.7395 10.7177 33.0957 10.1829C33.3817 9.75319 33.5552 9.28139 33.613 8.79453Z" fill="#2BB5B8" />
    <path d="M42.9738 0C43.0391 0.0526885 43.1189 0.0947709 43.1674 0.160118C44.3064 1.68877 45.4508 3.214 46.5751 4.75326C47.2162 5.63151 47.6224 6.6172 47.7554 7.70142C47.9963 9.66629 47.1598 11.3879 45.4659 12.4064C43.2064 13.7644 40.2788 13.1256 38.7827 10.9561C38.2062 10.1206 37.967 9.18285 38.0036 8.17322C38.0461 6.99936 38.4207 5.92677 39.079 4.96709C39.689 4.07789 40.351 3.22426 40.9922 2.35661C41.5245 1.63642 42.0586 0.917259 42.5964 0.201174C42.6556 0.122484 42.7449 0.0663738 42.8205 0C42.8715 0 42.9228 0 42.9738 0ZM46.4092 8.79453C46.4139 8.59986 46.3137 8.47156 46.1597 8.44761C45.989 8.42092 45.8525 8.51398 45.808 8.68813C45.8005 8.71687 45.7988 8.74732 45.7909 8.77572C45.7283 8.99639 45.6866 9.22596 45.5969 9.43535C45.3201 10.0827 44.8384 10.5367 44.2106 10.8446C44.0194 10.9383 43.9571 11.1118 44.043 11.2771C44.1251 11.4348 44.2999 11.483 44.4833 11.3944C45.0601 11.1156 45.5357 10.7177 45.8918 10.1829C46.1779 9.75319 46.3513 9.28139 46.4092 8.79453Z" fill="#F200AE" />
    <path d="M4.96547 19C5.03071 19.0526 5.11029 19.0946 5.15879 19.1599C6.29585 20.6859 7.43837 22.2086 8.56074 23.7453C9.20082 24.6221 9.60625 25.6061 9.73912 26.6885C9.97958 28.6501 9.14446 30.3688 7.4534 31.3857C5.19773 32.7413 2.275 32.1036 0.781354 29.9378C0.205825 29.1037 -0.0329259 28.1675 0.00362104 27.1595C0.0459745 25.9876 0.419983 24.9169 1.07715 23.9588C1.68615 23.0711 2.34707 22.2189 2.98715 21.3527C3.51862 20.6337 4.0518 19.9157 4.58873 19.2008C4.64782 19.1223 4.73697 19.0663 4.81245 19C4.86334 19 4.91458 19 4.96547 19ZM8.39508 27.7798C8.39986 27.5855 8.29978 27.4574 8.14608 27.4335C7.97564 27.4068 7.83936 27.4997 7.79496 27.6736C7.78744 27.7023 7.78573 27.7327 7.77788 27.761C7.71537 27.9813 7.6737 28.2105 7.58421 28.4196C7.30789 29.0658 6.82697 29.519 6.20021 29.8264C6.00928 29.92 5.94711 30.0932 6.03285 30.2582C6.11482 30.4156 6.28936 30.4638 6.47243 30.3753C7.04831 30.097 7.52307 29.6997 7.87864 29.1659C8.16418 28.7369 8.33735 28.2659 8.39508 27.7798Z" fill="#0E2E6B" />
    <path d="M17.5409 19.0001C17.6061 19.0527 17.6857 19.0947 17.7342 19.16C18.8713 20.6861 20.0138 22.2087 21.1362 23.7454C21.7763 24.6222 22.1817 25.6062 22.3146 26.6887C22.555 28.6502 21.7199 30.369 20.0288 31.3858C17.7732 32.7414 14.8504 32.1038 13.3568 29.9379C12.7813 29.1038 12.5425 28.1676 12.5791 27.1597C12.6214 25.9878 12.9954 24.917 13.6526 23.9589C14.2616 23.0712 14.9225 22.219 15.5626 21.3528C16.0941 20.6338 16.6272 19.9158 17.1642 19.201C17.2233 19.1224 17.3124 19.0664 17.3879 19.0001C17.4388 19.0001 17.49 19.0001 17.5409 19.0001ZM20.9705 27.7799C20.9753 27.5856 20.8752 27.4575 20.7215 27.4336C20.5511 27.407 20.4148 27.4999 20.3704 27.6737C20.3629 27.7024 20.3612 27.7328 20.3533 27.7612C20.2908 27.9815 20.2491 28.2106 20.1597 28.4197C19.8833 29.0659 19.4024 29.5192 18.7757 29.8266C18.5847 29.9202 18.5226 30.0933 18.6083 30.2583C18.6903 30.4158 18.8648 30.4639 19.0479 30.3755C19.6237 30.0971 20.0985 29.6998 20.4541 29.166C20.7396 28.737 20.9128 28.266 20.9705 27.7799Z" fill="#87D4D6" />
    <path d="M30.1857 19.0001C30.2509 19.0527 30.3305 19.0947 30.379 19.16C31.5161 20.6861 32.6586 22.2087 33.781 23.7454C34.421 24.6222 34.8265 25.6062 34.9593 26.6887C35.1998 28.6502 34.3647 30.369 32.6736 31.3858C30.4179 32.7414 27.4952 32.1038 26.0016 29.9379C25.426 29.1038 25.1873 28.1676 25.2238 27.1597C25.2662 25.9878 25.6402 24.917 26.2974 23.9589C26.9064 23.0712 27.5673 22.219 28.2074 21.3528C28.7388 20.6338 29.272 19.9158 29.8089 19.201C29.868 19.1224 29.9572 19.0664 30.0327 19.0001C30.0836 19.0001 30.1348 19.0001 30.1857 19.0001ZM33.6153 27.7799C33.6201 27.5856 33.52 27.4575 33.3663 27.4336C33.1959 27.407 33.0596 27.4999 33.0152 27.6737C33.0077 27.7024 33.0059 27.7328 32.9981 27.7612C32.9356 27.9815 32.8939 28.2106 32.8044 28.4197C32.5281 29.0659 32.0472 29.5192 31.4204 29.8266C31.2295 29.9202 31.1673 30.0933 31.2531 30.2583C31.335 30.4158 31.5096 30.4639 31.6926 30.3755C32.2685 30.0971 32.7433 29.6998 33.0989 29.166C33.3844 28.737 33.5576 28.266 33.6153 27.7799Z" fill="#A129B5" />
    <path d="M42.9655 19C43.0307 19.0526 43.1103 19.0946 43.1588 19.1599C44.2958 20.6859 45.4384 22.2086 46.5607 23.7453C47.2008 24.6221 47.6063 25.6061 47.7391 26.6885C47.9796 28.6501 47.1445 30.3688 45.4534 31.3857C43.1977 32.7413 40.275 32.1036 38.7814 29.9378C38.2058 29.1037 37.9671 28.1675 38.0036 27.1595C38.046 25.9876 38.42 24.9169 39.0771 23.9588C39.6861 23.0711 40.3471 22.2189 40.9872 21.3527C41.5186 20.6337 42.0518 19.9157 42.5887 19.2008C42.6478 19.1223 42.737 19.0663 42.8125 19C42.8633 19 42.9146 19 42.9655 19ZM46.3951 27.7798C46.3999 27.5855 46.2998 27.4574 46.1461 27.4335C45.9756 27.4068 45.8394 27.4997 45.795 27.6736C45.7874 27.7023 45.7857 27.7327 45.7779 27.761C45.7154 27.9813 45.6737 28.2105 45.5842 28.4196C45.3079 29.0658 44.827 29.519 44.2002 29.8264C44.0093 29.92 43.9471 30.0932 44.0328 30.2582C44.1148 30.4156 44.2894 30.4638 44.4724 30.3753C45.0483 30.097 45.5231 29.6997 45.8786 29.1659C46.1642 28.7369 46.3374 28.2659 46.3951 27.7798Z" fill="#BCCBD2" />
</svg>
    