<svg width="18" height="18" viewBox="0 0 18 18" fill="none" xmlns="http://www.w3.org/2000/svg">
    <path d="M15.9222 11.4231H15.7491C15.0914 11.4231 14.5376 10.8692 14.5376 10.2116V6.23078C14.5376 3.08078 11.9068 0.553859 8.72218 0.692321C5.74525 0.830782 3.46064 3.39232 3.46064 6.40386V10.2462C3.46064 10.9039 2.90679 11.4231 2.2491 11.4231H2.07602C1.31448 11.4231 0.691406 12.0808 0.691406 12.8423V13.3616C0.691406 13.6039 0.933714 13.8462 1.21064 13.8462H16.7876C17.0645 13.8462 17.3068 13.6039 17.3068 13.3269V12.8077C17.3068 12.0462 16.6837 11.4231 15.9222 11.4231Z" fill="#DBE8F1" />
    <path d="M10.696 15.2308H7.30371C7.09602 15.2308 6.92294 15.4385 6.95756 15.6462C7.13063 16.6155 7.99602 17.3078 8.99987 17.3078C10.0037 17.3078 10.8691 16.5808 11.0422 15.6462C11.0768 15.4385 10.9037 15.2308 10.696 15.2308Z" fill="#DBE8F1" />
</svg>
    