<svg width="44" height="49" viewBox="0 0 44 49" fill="none" xmlns="http://www.w3.org/2000/svg">
    <path d="M13.71 8.99993C13.71 5.99996 16.4518 1 21.9355 1" stroke="#016F9F" stroke-width="2" stroke-linecap="round" />
    <path d="M30.1611 8.99993C30.1611 5.99996 27.4193 1 21.9356 1" stroke="#016F9F" stroke-width="2" stroke-linecap="round" />
    <path d="M3.61179 10.9316C3.64774 10.4071 4.08371 10 4.60945 10H39.2601C39.7859 10 40.2218 10.4071 40.2578 10.9316L42.7254 46.9313C42.765 47.5091 42.307 47.9997 41.7278 47.9997H2.14178C1.56258 47.9997 1.10452 47.5091 1.14413 46.9313L3.61179 10.9316Z" stroke="#016F9F" stroke-width="2" />
    <path d="M3.61179 10.9316C3.64774 10.4071 4.08371 10 4.60945 10H39.2601C39.7859 10 40.2218 10.4071 40.2578 10.9316L42.7254 46.9313C42.765 47.5091 42.307 47.9997 41.7278 47.9997H2.14178C1.56258 47.9997 1.10452 47.5091 1.14413 46.9313L3.61179 10.9316Z" stroke="#016F9F" stroke-width="2" />
    <path d="M30.161 17C30.161 21.4182 26.4783 24.9999 21.9355 24.9999C17.3927 24.9999 13.71 21.4182 13.71 17" stroke="#016F9F" stroke-width="2" stroke-linecap="round" />
</svg>
    