<svg width="46" height="40" viewBox="0 0 46 40" fill="none" xmlns="http://www.w3.org/2000/svg">
    <path d="M6.49718 0C6.58254 0.0688261 6.68668 0.123798 6.75014 0.20916C8.23794 2.20601 9.7329 4.19839 11.2015 6.20909C12.039 7.35635 12.5695 8.64393 12.7434 10.0602C13.058 12.6269 11.9653 14.8758 9.75256 16.2063C6.80109 17.9801 2.97677 17.1457 1.02238 14.3118C0.269316 13.2204 -0.0430827 11.9954 0.00473804 10.6765C0.0601564 9.14314 0.549537 7.74204 1.40942 6.48842C2.20628 5.32687 3.07107 4.2118 3.90861 3.0784C4.60402 2.13763 5.30166 1.1982 6.00423 0.26279C6.08154 0.159998 6.19819 0.086703 6.29696 0C6.36355 0 6.43059 0 6.49718 0ZM10.9847 11.4881C10.991 11.2338 10.86 11.0662 10.6589 11.035C10.4359 11.0001 10.2576 11.1217 10.1995 11.3492C10.1897 11.3867 10.1874 11.4265 10.1771 11.4636C10.0954 11.7518 10.0408 12.0517 9.92374 12.3252C9.56218 13.1708 8.93291 13.7639 8.11281 14.1661C7.86298 14.2886 7.78164 14.5152 7.89381 14.731C8.00108 14.937 8.22945 15.0001 8.469 14.8843C9.22251 14.5201 9.84374 14.0003 10.309 13.3018C10.6826 12.7404 10.9092 12.1241 10.9847 11.4881Z" fill="#016F9F" />
    <path d="M22.9657 0C23.051 0.0688261 23.1552 0.123798 23.2186 0.20916C24.7064 2.20601 26.2014 4.19839 27.67 6.20909C28.5075 7.35635 29.038 8.64393 29.2119 10.0602C29.5265 12.6269 28.4338 14.8758 26.2211 16.2063C23.2696 17.9801 19.4453 17.1457 17.4909 14.3118C16.7378 13.2204 16.4254 11.9954 16.4732 10.6765C16.5287 9.14314 17.018 7.74204 17.8779 6.48842C18.6748 5.32687 19.5396 4.2118 20.3771 3.0784C21.0725 2.13763 21.7702 1.1982 22.4727 0.26279C22.55 0.159998 22.6667 0.086703 22.7655 0C22.8321 0 22.8991 0 22.9657 0ZM27.4532 11.4881C27.4595 11.2338 27.3285 11.0662 27.1274 11.035C26.9044 11.0001 26.7261 11.1217 26.668 11.3492C26.6582 11.3867 26.6559 11.4265 26.6456 11.4636C26.5639 11.7518 26.5093 12.0517 26.3922 12.3252C26.0307 13.1708 25.4014 13.7639 24.5813 14.1661C24.3315 14.2886 24.2501 14.5152 24.3623 14.731C24.4696 14.937 24.698 15.0001 24.9375 14.8843C25.691 14.5201 26.3122 14.0003 26.7775 13.3018C27.1511 12.7404 27.3777 12.1241 27.4532 11.4881Z" fill="#F29200" />
    <path d="M39.4205 0C39.5059 0.0688261 39.61 0.123798 39.6735 0.20916C41.1613 2.20601 42.6562 4.19839 44.1248 6.20909C44.9624 7.35635 45.4929 8.64393 45.6667 10.0602C45.9813 12.6269 44.8886 14.8758 42.6759 16.2063C39.7244 17.9801 35.9001 17.1457 33.9457 14.3118C33.1927 13.2204 32.8803 11.9954 32.9281 10.6765C32.9835 9.14314 33.4729 7.74204 34.3328 6.48842C35.1296 5.32687 35.9944 4.2118 36.8319 3.0784C37.5274 2.13763 38.225 1.1982 38.9276 0.26279C39.0049 0.159998 39.1215 0.086703 39.2203 0C39.2869 0 39.3539 0 39.4205 0ZM43.9081 11.4881C43.9143 11.2338 43.7834 11.0662 43.5823 11.035C43.3592 11.0001 43.1809 11.1217 43.1228 11.3492C43.113 11.3867 43.1108 11.4265 43.1005 11.4636C43.0187 11.7518 42.9642 12.0517 42.8471 12.3252C42.4855 13.1708 41.8562 13.7639 41.0361 14.1661C40.7863 14.2886 40.705 14.5152 40.8172 14.731C40.9244 14.937 41.1528 15.0001 41.3923 14.8843C42.1459 14.5201 42.7671 14.0003 43.2323 13.3018C43.6059 12.7404 43.8325 12.1241 43.9081 11.4881Z" fill="#2BB5B8" />
    <path d="M14.7281 22.8634C14.8135 22.9322 14.9176 22.9872 14.9811 23.0726C16.4689 25.0694 17.9639 27.0618 19.4324 29.0725C20.27 30.2197 20.8005 31.5073 20.9743 32.9236C21.289 35.4903 20.1962 37.7392 17.9835 39.0697C15.032 40.8435 11.2077 40.0091 9.25334 37.1752C8.50027 36.0838 8.18787 34.8588 8.2357 33.5399C8.29111 32.0065 8.78049 30.6054 9.64037 29.3518C10.4372 28.1903 11.302 27.0752 12.1396 25.9418C12.835 25.001 13.5326 24.0616 14.2352 23.1262C14.3125 23.0234 14.4291 22.9501 14.5279 22.8634C14.5945 22.8634 14.6615 22.8634 14.7281 22.8634ZM19.2157 34.3515C19.2219 34.0972 19.091 33.9297 18.8899 33.8984C18.6669 33.8635 18.4885 33.9851 18.4304 34.2126C18.4206 34.2501 18.4184 34.2899 18.4081 34.327C18.3263 34.6152 18.2718 34.9151 18.1547 35.1886C17.7931 36.0342 17.1639 36.6273 16.3438 37.0295C16.0939 37.152 16.0126 37.3786 16.1248 37.5944C16.232 37.8004 16.4604 37.8635 16.7 37.7477C17.4535 37.3835 18.0747 36.8637 18.5399 36.1652C18.9136 35.6038 19.1402 34.9875 19.2157 34.3515Z" fill="#0E2E6B" />
    <path d="M31.183 22.8635C31.2683 22.9323 31.3725 22.9873 31.4359 23.0726C32.9237 25.0695 34.4187 27.0619 35.8873 29.0726C36.7248 30.2198 37.2553 31.5074 37.4292 32.9237C37.7438 35.4904 36.6511 37.7393 34.4384 39.0698C31.4869 40.8436 27.6626 40.0092 25.7082 37.1753C24.9551 36.0839 24.6427 34.8589 24.6905 33.54C24.7459 32.0066 25.2353 30.6055 26.0952 29.3519C26.8921 28.1903 27.7569 27.0753 28.5944 25.9419C29.2898 25.0011 29.9875 24.0617 30.69 23.1263C30.7673 23.0235 30.884 22.9502 30.9828 22.8635C31.0493 22.8635 31.1164 22.8635 31.183 22.8635ZM35.6705 34.3516C35.6768 34.0973 35.5458 33.9297 35.3447 33.8984C35.1217 33.8636 34.9434 33.9851 34.8853 34.2126C34.8754 34.2502 34.8732 34.2899 34.8629 34.327C34.7811 34.6153 34.7266 34.9152 34.6095 35.1887C34.248 36.0343 33.6187 36.6273 32.7986 37.0296C32.5488 37.152 32.4674 37.3786 32.5796 37.5945C32.6869 37.8005 32.9152 37.8635 33.1548 37.7478C33.9083 37.3835 34.5295 36.8638 34.9948 36.1652C35.3684 35.6039 35.595 34.9876 35.6705 34.3516Z" fill="#87D4D6" />
</svg>
    