<svg width="44" height="56" viewBox="0 0 44 56" fill="none" xmlns="http://www.w3.org/2000/svg">
    <path d="M9.58861 0C9.71459 0.101574 9.86827 0.182702 9.96193 0.30868C12.1576 3.25565 14.3639 6.19603 16.5313 9.16345C17.7673 10.8566 18.5502 12.7568 18.8068 14.847C19.2711 18.6349 17.6585 21.9539 14.3929 23.9174C10.0371 26.5353 4.39315 25.3039 1.50884 21.1215C0.39746 19.5108 -0.0635819 17.7029 0.00699245 15.7565C0.0887795 13.4935 0.811012 11.4258 2.08003 9.57568C3.25605 7.86145 4.53232 6.21582 5.76836 4.54314C6.79466 3.15474 7.82425 1.76832 8.8611 0.387829C8.97521 0.236127 9.14736 0.127957 9.29312 0C9.3914 0 9.49033 0 9.58861 0ZM16.2114 16.9543C16.2206 16.579 16.0274 16.3317 15.7306 16.2855C15.4014 16.2341 15.1383 16.4135 15.0525 16.7492C15.038 16.8046 15.0347 16.8633 15.0195 16.918C14.8988 17.3435 14.8184 17.786 14.6456 18.1897C14.112 19.4376 13.1833 20.3129 11.973 20.9065C11.6043 21.0872 11.4842 21.4216 11.6498 21.7402C11.8081 22.0443 12.1451 22.1373 12.4986 21.9664C13.6107 21.4289 14.5275 20.6618 15.2141 19.6309C15.7655 18.8025 16.0999 17.8929 16.2114 16.9543Z" fill="#016F9F" />
    <path d="M33.8933 0C34.0193 0.101574 34.173 0.182702 34.2666 0.30868C36.4623 3.25565 38.6686 6.19603 40.836 9.16345C42.072 10.8566 42.8549 12.7568 43.1115 14.847C43.5758 18.6349 41.9632 21.9539 38.6976 23.9174C34.3418 26.5353 28.6978 25.3039 25.8135 21.1215C24.7021 19.5108 24.2411 17.7029 24.3117 15.7565C24.3935 13.4935 25.1157 11.4258 26.3847 9.57568C27.5607 7.86145 28.837 6.21582 30.0731 4.54314C31.0993 3.15474 32.1289 1.76832 33.1658 0.387829C33.2799 0.236127 33.452 0.127957 33.5978 0C33.6961 0 33.795 0 33.8933 0ZM40.5161 16.9543C40.5253 16.579 40.332 16.3317 40.0352 16.2855C39.7061 16.2341 39.4429 16.4135 39.3572 16.7492C39.3427 16.8046 39.3394 16.8633 39.3242 16.918C39.2035 17.3435 39.1231 17.786 38.9502 18.1897C38.4166 19.4376 37.488 20.3129 36.2777 20.9065C35.909 21.0872 35.7889 21.4216 35.9545 21.7402C36.1128 22.0443 36.4498 22.1373 36.8033 21.9664C37.9154 21.4289 38.8322 20.6618 39.5188 19.6309C40.0702 18.8025 40.4046 17.8929 40.5161 16.9543Z" fill="#F29200" />
    <path d="M22.2339 30.7097C22.3599 30.8112 22.5135 30.8924 22.6072 31.0183C24.8029 33.9653 27.0092 36.9057 29.1765 39.8731C30.4126 41.5662 31.1955 43.4665 31.4521 45.5566C31.9164 49.3446 30.3037 52.6635 27.0382 54.6271C22.6824 57.2449 17.0384 56.0135 14.1541 51.8312C13.0427 50.2205 12.5817 48.4126 12.6523 46.4662C12.734 44.2032 13.4563 42.1354 14.7253 40.2853C15.9013 38.5711 17.1776 36.9255 18.4136 35.2528C19.4399 33.8644 20.4695 32.478 21.5064 31.0975C21.6205 30.9458 21.7926 30.8376 21.9384 30.7097C22.0367 30.7097 22.1356 30.7097 22.2339 30.7097ZM28.8566 47.664C28.8659 47.2887 28.6726 47.0413 28.3758 46.9952C28.0467 46.9437 27.7835 47.1231 27.6978 47.4589C27.6833 47.5143 27.68 47.573 27.6648 47.6277C27.5441 48.0531 27.4636 48.4957 27.2908 48.8994C26.7572 50.1473 25.8285 51.0225 24.6182 51.6161C24.2495 51.7969 24.1295 52.1313 24.295 52.4498C24.4533 52.7539 24.7904 52.8469 25.1439 52.6761C26.2559 52.1385 27.1728 51.3714 27.8594 50.3405C28.4108 49.5121 28.7452 48.6026 28.8566 47.664Z" fill="#2BB5B8" />
</svg>
    