<svg width="29" height="30" viewBox="0 0 29 30" fill="none" xmlns="http://www.w3.org/2000/svg">
    <g clip-path="url(#clip0_439_433)">
        <path d="M27.413 21.2064C27.413 21.6273 27.2457 22.0311 26.948 22.3287C26.6504 22.6264 26.2466 22.7937 25.8257 22.7937H24.2384V24.381C24.2384 24.8019 24.0711 25.2057 23.7734 25.5033C23.4758 25.801 23.072 25.9683 22.6511 25.9683C22.2301 25.9683 21.8263 25.801 21.5287 25.5033C21.2311 25.2057 21.0638 24.8019 21.0638 24.381V22.7937H19.4765C19.0555 22.7937 18.6517 22.6264 18.3541 22.3287C18.0565 22.0311 17.8892 21.6273 17.8892 21.2064C17.8892 20.7854 18.0565 20.3816 18.3541 20.084C18.6517 19.7864 19.0555 19.6191 19.4765 19.6191H21.0638V18.0318C21.0638 17.6108 21.2311 17.207 21.5287 16.9094C21.8263 16.6118 22.2301 16.4445 22.6511 16.4445C23.072 16.4445 23.4758 16.6118 23.7734 16.9094C24.0711 17.207 24.2384 17.6108 24.2384 18.0318V19.6191H25.8257C26.2466 19.6191 26.6504 19.7864 26.948 20.084C27.2457 20.3816 27.413 20.7854 27.413 21.2064Z" fill="#29AFB5" />
        <path d="M22.0162 0.571411H4.23843C3.643 0.57853 3.0747 0.821475 2.65813 1.24698C2.24154 1.67247 2.0107 2.24581 2.01621 2.84127V26.873C2.0107 27.4684 2.24154 28.0417 2.65813 28.4673C3.0747 28.8929 3.643 29.1357 4.23843 29.1429H22.0162C22.1226 29.1402 22.2287 29.1295 22.3337 29.1111C20.2611 29.0281 18.304 28.1359 16.8821 26.6259C15.4601 25.1159 14.687 23.1086 14.7286 21.0349C14.7702 18.9613 15.6231 16.9865 17.1043 15.5348C18.5856 14.083 20.577 13.2698 22.6511 13.2698C23.184 13.2739 23.7153 13.327 24.2384 13.4286V2.84127C24.2438 2.24582 24.013 1.67249 23.5965 1.24698C23.1799 0.821475 22.6116 0.578538 22.0162 0.571411Z" fill="#29AFB5" />
        <path d="M6.77822 6.92058C7.65486 6.92058 8.36552 6.20992 8.36552 5.33327C8.36552 4.45663 7.65486 3.74597 6.77822 3.74597C5.90158 3.74597 5.19092 4.45663 5.19092 5.33327C5.19092 6.20992 5.90158 6.92058 6.77822 6.92058Z" fill="white" />
        <path d="M4.19873 18.608L9.45667 14.4016" stroke="white" stroke-linecap="round" />
        <path d="M9.45703 14.4023L14.7151 18.6087" stroke="white" stroke-linecap="round" />
        <path d="M13.1274 16.2119L19.4766 10.6564" stroke="white" stroke-linecap="round" />
        <path d="M19.4766 10.6564L24.2385 14.2959" stroke="white" stroke-linecap="round" />
    </g>
    <defs>
        <clipPath id="clip0_439_433">
            <rect width="28.5714" height="28.5714" fill="white" transform="translate(0.428711 0.571411)" />
        </clipPath>
    </defs>
</svg>
    