<svg width="36" height="50" viewBox="0 0 36 50" fill="none" xmlns="http://www.w3.org/2000/svg">
    <path d="M18.052 0C8.15525 0 0.103516 8.2881 0.103516 18.4757C0.103516 28.3389 16.4662 48.7084 17.1627 49.5706C17.3825 49.8425 17.7083 50 18.052 50C18.3956 50 18.7215 49.8427 18.9413 49.5706C19.638 48.7083 36.0005 28.3389 36.0005 18.4757C36.0005 8.2881 27.9489 0 18.052 0ZM18.052 46.9203C16.6011 45.0554 13.5867 41.0821 10.6036 36.5398C5.24765 28.3844 2.41652 22.1379 2.41652 18.4757C2.41652 9.60095 9.43065 2.38095 18.052 2.38095C26.6734 2.38095 33.6875 9.60095 33.6875 18.4757C33.6875 22.1378 30.8565 28.3843 25.5004 36.5398C22.5172 41.0821 19.5029 45.0554 18.052 46.9203Z" fill="#016F9F" />
    <path d="M23.9359 33.9614C23.4067 33.5933 22.6877 33.7368 22.3303 34.2816C20.7696 36.6597 19.0213 39.1521 17.1338 41.6895C16.7456 42.2116 16.8418 42.9587 17.349 43.3584C17.5587 43.5238 17.8059 43.6038 18.0512 43.6038C18.3988 43.6038 18.7426 43.443 18.9702 43.137C20.8854 40.5624 22.6607 38.0314 24.2468 35.6144C24.6044 35.0697 24.4653 34.3295 23.9359 33.9614Z" fill="#016F9F" />
    <path d="M18.0517 9.12695C12.8226 9.12695 8.56836 13.5062 8.56836 18.8889C8.56836 24.2716 12.8226 28.6508 18.0517 28.6508C23.2808 28.6508 27.535 24.2716 27.535 18.8889C27.535 13.5062 23.2808 9.12695 18.0517 9.12695ZM18.0517 26.2698C14.098 26.2698 10.8814 22.9587 10.8814 18.8889C10.8814 14.819 14.098 11.5079 18.0517 11.5079C22.0056 11.5079 25.222 14.819 25.222 18.8889C25.222 22.9587 22.0056 26.2698 18.0517 26.2698Z" fill="#016F9F" />
</svg>
    