<svg width="33" height="33" viewBox="0 0 33 33" fill="none" xmlns="http://www.w3.org/2000/svg">
    <path d="M2.74512 4.43628V28.5819H16.8223C26.1084 28.5819 30.1353 23.3815 30.1353 16.4854C30.1353 9.61621 26.1084 4.43628 16.8223 4.43628H2.74512Z" fill="white" />
    <path d="M4.2666 5.95923H16.8242C25.3473 5.95923 28.6143 10.6136 28.6143 16.4851C28.6143 23.5255 24.0522 27.0582 16.8242 27.0582H4.2666V5.95923ZM5.48399 7.17661V25.8416H16.8242C23.6707 25.8416 27.3958 22.6513 27.3958 16.4851C27.3958 10.1481 23.3577 7.17624 16.8242 7.17624H5.48399V7.17661Z" fill="black" />
    <path d="M7.00488 17.8577H10.6351V24.3186H7.00488V17.8577Z" fill="black" />
    <path d="M8.8196 16.8584C10.0656 16.8584 11.0757 15.8483 11.0757 14.6023C11.0757 13.3563 10.0656 12.3462 8.8196 12.3462C7.57358 12.3462 6.56348 13.3563 6.56348 14.6023C6.56348 15.8483 7.57358 16.8584 8.8196 16.8584Z" fill="black" />
    <path d="M18.2483 15.6578V16.7039H15.6617V12.5058H18.1657V13.5516H16.7075V14.0377H18.0865V15.0839H16.7075V15.6581L18.2483 15.6578ZM18.7009 16.7047L19.9667 12.5043H21.4546L22.72 16.7047H21.6314L21.394 15.8922H20.0259L19.788 16.7047H18.7009ZM20.3325 14.8472H21.0895L20.7423 13.6607H20.679L20.3325 14.8472ZM23.2459 12.5047H24.2925V15.6581H25.8415C25.4164 9.93632 20.9161 8.69995 16.8244 8.69995H12.4636V12.5069H13.109C14.2858 12.5069 15.0164 13.3049 15.0164 14.5889C15.0164 15.9138 14.3033 16.7047 13.109 16.7047H12.4636V24.3216H16.8248C23.4741 24.3216 25.7897 21.2333 25.8716 16.7039H23.2459V12.5047ZM12.4629 13.5527V15.6581H13.109C13.5567 15.6581 13.9706 15.5286 13.9706 14.5885C13.9706 13.6703 13.5102 13.5527 13.109 13.5527H12.4629Z" fill="#D50072" />
</svg>
    