<svg width="21" height="28" viewBox="0 0 21 28" fill="none" xmlns="http://www.w3.org/2000/svg">
    <path d="M10.616 0C10.7554 0.112457 10.9256 0.202277 11.0293 0.341753C13.4603 3.60447 15.9029 6.85989 18.3025 10.1452C19.671 12.0198 20.5378 14.1236 20.8218 16.4377C21.3359 20.6315 19.5505 24.3061 15.935 26.48C11.1125 29.3783 4.86385 28.015 1.6705 23.3845C0.440045 21.6013 -0.0703942 19.5997 0.00774164 17.4447C0.0982916 14.9393 0.897906 12.65 2.30289 10.6016C3.60491 8.70375 5.01793 6.8818 6.3864 5.0299C7.52266 3.49275 8.66257 1.95778 9.8105 0.429382C9.93684 0.261427 10.1274 0.141667 10.2888 0C10.3976 0 10.5072 0 10.616 0ZM17.9483 18.7709C17.9585 18.3554 17.7446 18.0815 17.416 18.0304C17.0516 17.9734 16.7602 18.1721 16.6653 18.5438C16.6492 18.6051 16.6456 18.6701 16.6288 18.7307C16.4951 19.2017 16.406 19.6917 16.2147 20.1386C15.624 21.5202 14.5958 22.4893 13.2558 23.1465C12.8476 23.3466 12.7147 23.7168 12.898 24.0695C13.0732 24.4061 13.4464 24.5091 13.8378 24.32C15.069 23.7248 16.084 22.8755 16.8442 21.7342C17.4547 20.817 17.8249 19.81 17.9483 18.7709Z" fill="#016F9F" />
</svg>
    