<svg width="49" height="49" viewBox="0 0 49 49" fill="none" xmlns="http://www.w3.org/2000/svg">
    <circle cx="24.5" cy="24.8252" r="24" fill="url(#paint0_linear_216_2280)" />
    <path d="M35.5572 30.1443L32.6337 27.1786C32.1166 26.6298 31.4939 26.3449 30.829 26.3343C30.1746 26.3343 29.5308 26.6087 28.9926 27.147L27.2934 28.8251C27.1562 28.7512 27.019 28.6773 26.8818 28.6034C26.6918 28.5085 26.5124 28.4135 26.3541 28.3185C24.771 27.3053 23.3356 25.986 21.9636 24.2763C21.2987 23.4214 20.8555 22.7143 20.5283 21.9861C20.961 21.585 21.3726 21.1734 21.7737 20.7724C21.9214 20.6246 22.0797 20.4663 22.2275 20.3185C23.3568 19.1998 23.3673 17.7434 22.2486 16.6141L20.7921 15.1365C20.6233 14.9677 20.4544 14.7988 20.2961 14.6299C19.9795 14.2922 19.6417 13.9545 19.2935 13.6273C18.7763 13.1102 18.1642 12.8252 17.5098 12.8252C16.8555 12.8252 16.2222 13.089 15.684 13.6062L15.6734 13.6167L13.837 15.4426C13.151 16.118 12.75 16.9518 12.655 17.9228C12.5178 19.4848 12.9716 20.9518 13.3199 21.9016C14.1748 24.2446 15.4624 26.4293 17.3832 28.7618C19.7156 31.5797 22.523 33.8066 25.742 35.3897C26.9662 35.9807 28.6127 36.6773 30.449 36.8145C30.5651 36.825 30.6812 36.825 30.7868 36.825C32.0216 36.8356 33.0664 36.3923 33.8897 35.5163C33.9002 35.5058 33.9108 35.5058 33.9108 35.4952C34.1957 35.1575 34.5123 34.8514 34.8501 34.5348C35.0823 34.3132 35.3144 34.0915 35.5466 33.8488C36.0849 33.3 36.3593 32.6562 36.3698 32.0018C36.3698 31.3158 36.0954 30.6826 35.5572 30.1443Z" stroke="white" stroke-width="2" stroke-miterlimit="10" stroke-linecap="round" stroke-linejoin="round" />
    <path d="M28.9824 12.8252C33.0668 12.8252 36.3702 16.1286 36.3702 20.213" stroke="white" stroke-width="2" stroke-miterlimit="10" stroke-linecap="round" stroke-linejoin="round" />
    <path d="M28.3691 17.0469C30.4061 17.0469 32.063 18.7039 32.063 20.7408" stroke="white" stroke-width="2" stroke-miterlimit="10" stroke-linecap="round" stroke-linejoin="round" />
    <defs>
        <linearGradient id="paint0_linear_216_2280" x1="48.5" y1="30.5078" x2="0.49983" y2="30.5603" gradientUnits="userSpaceOnUse">
            <stop stop-color="#3ABEBB" />
            <stop offset="1" stop-color="#79E7CC" />
        </linearGradient>
    </defs>
</svg>
    