<svg width="45" height="26" viewBox="0 0 45 26" fill="none" xmlns="http://www.w3.org/2000/svg">
    <path d="M9.85768 0C9.98719 0.104425 10.1452 0.187829 10.2415 0.317342C12.4988 3.34701 14.767 6.3699 16.9952 9.42058C18.2659 11.1612 19.0708 13.1148 19.3345 15.2636C19.8119 19.1578 18.154 22.5699 14.7968 24.5886C10.3188 27.2799 4.51643 26.0139 1.55118 21.7142C0.408613 20.0583 -0.0653661 18.1997 0.00718866 16.1987C0.0912708 13.8722 0.83377 11.7464 2.1384 9.84439C3.34742 8.08205 4.65951 6.39024 5.93023 4.67062C6.98532 3.24326 8.04381 1.81794 9.10975 0.398712C9.22706 0.242753 9.40404 0.131548 9.5539 0C9.65493 0 9.75664 0 9.85768 0ZM16.6663 17.4301C16.6758 17.0443 16.4771 16.79 16.172 16.7425C15.8336 16.6896 15.5631 16.8741 15.4749 17.2192C15.46 17.2762 15.4566 17.3365 15.441 17.3928C15.3169 17.8302 15.2342 18.2851 15.0565 18.7001C14.508 19.9831 13.5532 20.8829 12.3089 21.4931C11.9299 21.6789 11.8065 22.0227 11.9767 22.3502C12.1394 22.6628 12.4859 22.7584 12.8494 22.5828C13.9926 22.0302 14.9352 21.2416 15.641 20.1817C16.2079 19.3301 16.5517 18.395 16.6663 17.4301Z" fill="#016F9F" />
    <path d="M34.9409 0C35.0704 0.104425 35.2284 0.187829 35.3247 0.317342C37.5821 3.34701 39.8502 6.3699 42.0784 9.42058C43.3491 11.1612 44.154 13.1148 44.4178 15.2636C44.8952 19.1578 43.2373 22.5699 39.8801 24.5886C35.402 27.2799 29.5997 26.0139 26.6344 21.7142C25.4919 20.0583 25.0179 18.1997 25.0904 16.1987C25.1745 13.8722 25.917 11.7464 27.2217 9.84439C28.4307 8.08205 29.7428 6.39024 31.0135 4.67062C32.0686 3.24326 33.1271 1.81794 34.193 0.398712C34.3103 0.242753 34.4873 0.131548 34.6371 0C34.7382 0 34.8399 0 34.9409 0ZM41.7495 17.4301C41.759 17.0443 41.5604 16.79 41.2552 16.7425C40.9169 16.6896 40.6463 16.8741 40.5582 17.2192C40.5432 17.2762 40.5398 17.3365 40.5243 17.3928C40.4002 17.8302 40.3174 18.2851 40.1398 18.7001C39.5912 19.9831 38.6365 20.8829 37.3922 21.4931C37.0131 21.6789 36.8897 22.0227 37.0599 22.3502C37.2227 22.6628 37.5692 22.7584 37.9326 22.5828C39.0759 22.0302 40.0184 21.2416 40.7243 20.1817C41.2912 19.3301 41.6349 18.395 41.7495 17.4301Z" fill="#F29200" />
</svg>
    