<svg width="61" height="62" viewBox="0 0 61 62" fill="none" xmlns="http://www.w3.org/2000/svg">
    <path d="M46.0245 14.3009C54.3441 13.5505 60.9885 11.129 60.9885 4.89445C60.9885 2.81323 57.2485 0.0453757 50.8763 1.20295C44.542 2.35142 36.3623 8.01171 34.1009 10.9436C33.5223 9.82859 32.1533 9.04472 30.5537 9.04472C28.9616 9.04472 27.5888 9.82555 27.0064 10.9406C24.745 8.01474 16.569 2.34838 10.231 1.20295C3.86263 0.0484141 0.122559 2.81627 0.122559 4.89748C0.122559 11.132 6.76317 13.5505 15.0904 14.304C15.9526 14.3769 16.7732 14.4346 17.5636 14.4771H1.00747V61.95H25.6299V14.4771H22.1319C24.4463 14.3283 26.1367 13.9272 26.9724 13.2649C27.5321 14.4164 28.92 15.2367 30.5499 15.2367C32.1873 15.2367 33.5752 14.4164 34.1273 13.2649C34.9669 13.9272 36.6573 14.3283 38.9679 14.4771H35.4736V61.95H60.0923V14.4771H43.5399C44.3378 14.4346 45.1622 14.3799 46.0245 14.3009ZM16.1757 13.2952C10.0116 12.7392 5.09545 10.9497 5.09545 6.33154C5.09545 4.79114 7.86742 2.74032 12.5869 3.59711C18.0741 4.59062 25.4635 10.181 25.4635 11.7214C25.4597 13.2618 21.7613 13.8026 16.1757 13.2952ZM35.6513 11.7214C35.6513 10.181 43.0369 4.59062 48.5241 3.59711C53.2361 2.74032 56.0119 4.79114 56.0119 6.33154C56.0119 10.9497 51.0957 12.7392 44.9278 13.2952C39.346 13.8026 35.6513 13.2618 35.6513 11.7214Z" fill="#424242"/>
</svg>
