<svg width="24" height="24" viewBox="0 0 24 24" fill="none" xmlns="http://www.w3.org/2000/svg">
    <path fill-rule="evenodd" clip-rule="evenodd" d="M2 7.375C2 6.47989 2.34768 5.62145 2.96655 4.98851C3.58542 4.35558 4.42479 4 5.3 4H20.7C21.5752 4 22.4146 4.35558 23.0335 4.98851C23.6523 5.62145 24 6.47989 24 7.375V8.5H2V7.375ZM2 10.75V18.625C2 19.5201 2.34768 20.3786 2.96655 21.0115C3.58542 21.6444 4.42479 22 5.3 22H20.7C21.5752 22 22.4146 21.6444 23.0335 21.0115C23.6523 20.3786 24 19.5201 24 18.625V10.75H2ZM7.5 13C7.20826 13 6.92847 13.1185 6.72218 13.3295C6.51589 13.5405 6.4 13.8266 6.4 14.125C6.4 14.4234 6.51589 14.7095 6.72218 14.9205C6.92847 15.1315 7.20826 15.25 7.5 15.25H13C13.2917 15.25 13.5715 15.1315 13.7778 14.9205C13.9841 14.7095 14.1 14.4234 14.1 14.125C14.1 13.8266 13.9841 13.5405 13.7778 13.3295C13.5715 13.1185 13.2917 13 13 13H7.5Z" fill="black" />
</svg>
    