<svg width="21" height="26" viewBox="0 0 21 26" fill="none" xmlns="http://www.w3.org/2000/svg">
    <path d="M6.52197 5.49997C6.52197 3.99998 7.82632 1.5 10.435 1.5" stroke="#F29100" stroke-width="2" stroke-linecap="round"/>
    <path d="M14.3481 5.49997C14.3481 3.99998 13.0438 1.5 10.4351 1.5" stroke="#F29100" stroke-width="2" stroke-linecap="round"/>
    <path d="M2.18028 7.43505C2.21458 6.90914 2.65114 6.50012 3.17816 6.50012H17.6914C18.2184 6.50012 18.655 6.90914 18.6893 7.43504L19.7328 23.4349C19.7704 24.0115 19.3128 24.5 18.7349 24.5H2.13469C1.55679 24.5 1.0992 24.0115 1.1368 23.4349L2.18028 7.43505Z" stroke="#F29100" stroke-width="2"/>
    <path d="M14.3481 9.49988C14.3481 11.709 12.5961 13.4998 10.435 13.4998C8.2739 13.4998 6.52197 11.709 6.52197 9.49988" stroke="#F29100" stroke-width="2" stroke-linecap="round"/>
</svg>
    