<svg width="42" height="42" viewBox="0 0 42 42" fill="none" xmlns="http://www.w3.org/2000/svg">
    <g clip-path="url(#clip0_888_395)">
        <path d="M41.8967 34.839L39.6286 27.8092C39.3445 26.9309 38.5265 26.3209 37.6035 26.3209H31.7656C29.9173 26.3209 28.2718 25.0946 27.7644 23.3182L27.7306 23.2073C27.3341 21.8191 27.7088 20.3165 28.733 19.1815C30.009 17.7671 30.6301 15.8649 30.4368 13.9596C30.1208 10.8432 27.3183 8.13323 24.1897 7.91727C24.0318 7.90635 23.8718 7.90124 23.714 7.90124C19.9875 7.90124 16.9558 10.9332 16.9558 14.6597C16.9558 16.3884 17.6084 18.0333 18.7927 19.2909C19.7514 20.3091 20.0981 21.8126 19.6977 23.2141L19.6639 23.3175C19.1563 25.0947 17.5107 26.3211 15.6625 26.3211H9.82459C8.92018 26.3211 8.11451 26.9075 7.81569 27.7611L5.36039 34.7834C5.13266 35.4344 5.23425 36.1841 5.63353 36.7467C6.03268 37.3093 6.67956 37.6723 7.3693 37.6723H8.37162V40.1554C8.37162 40.7433 8.8952 41.2196 9.48306 41.2196H37.4358C38.0236 41.2196 38.4527 40.7433 38.4527 40.1554V37.6723H39.8716C40.5524 37.6723 41.1921 37.3217 41.5926 36.7711C41.9932 36.2207 42.1063 35.4869 41.8967 34.839ZM36.3243 39.0912H10.5V37.6723H36.3243V39.0912ZM4.68243 4.32769C4.68243 4.95457 4.17418 5.46283 3.5473 5.46283H1.13514C0.508257 5.46283 0 4.95457 0 4.32769V1.91553C0 1.28865 0.508257 0.780396 1.13514 0.780396H3.5473C4.17418 0.780396 4.68243 1.28865 4.68243 1.91553V4.32769ZM9.36487 9.01013C9.36487 9.637 8.85661 10.1453 8.22973 10.1453H5.81757C5.19069 10.1453 4.68243 9.637 4.68243 9.01013V6.59796C4.68243 5.97108 5.19069 5.46283 5.81757 5.46283H8.22973C8.85661 5.46283 9.36487 5.97108 9.36487 6.59796V9.01013ZM14.0473 4.32769C14.0473 4.95457 13.539 5.46283 12.9122 5.46283H10.5C9.87312 5.46283 9.36487 4.95457 9.36487 4.32769V1.91553C9.36487 1.28865 9.87312 0.780396 10.5 0.780396H12.9122C13.539 0.780396 14.0473 1.28865 14.0473 1.91553V4.32769ZM4.68243 13.6926C4.68243 14.3194 4.17418 14.8277 3.5473 14.8277H1.13514C0.508257 14.8277 0 14.3194 0 13.6926V11.2804C0 10.6535 0.508257 10.1453 1.13514 10.1453H3.5473C4.17418 10.1453 4.68243 10.6535 4.68243 11.2804V13.6926ZM14.0473 13.6926C14.0473 14.3194 13.539 14.8277 12.9122 14.8277H10.5C9.87312 14.8277 9.36487 14.3194 9.36487 13.6926V11.2804C9.36487 10.6535 9.87312 10.1453 10.5 10.1453H12.9122C13.539 10.1453 14.0473 10.6535 14.0473 11.2804V13.6926Z" fill="#016F9F" />
    </g>
    <defs>
        <clipPath id="clip0_888_395">
            <rect width="42" height="42" fill="white" />
        </clipPath>
    </defs>
</svg>
    