<svg width="14" height="14" viewBox="0 0 14 14" fill="none" xmlns="http://www.w3.org/2000/svg">
    <path d="M12.7474 9.68215L11.8278 8.76256V6.29911C11.8278 3.94727 10.1461 1.98855 7.9196 1.55913V0.946076C7.9196 0.439016 7.50707 0.0264893 7.00001 0.0264893C6.49295 0.0264893 6.08042 0.439016 6.08042 0.946076V1.55913C3.85395 1.98858 2.17218 3.94727 2.17218 6.29911V8.76256L1.25259 9.68215V10.9083H0.333008V11.8278H1.25259H12.7474H13.667V10.9083H12.7474V9.68215Z" fill="#1D1D1B" />
    <path d="M6.99995 13.9735C7.85584 13.9735 8.59449 13.4723 8.9389 12.7474H5.06104C5.40542 13.4723 6.14406 13.9735 6.99995 13.9735Z" fill="#1D1D1B" />
    <path d="M13.0967 5.13321L13.9999 4.96038C13.8035 3.93388 13.3723 2.94333 12.7531 2.09584C12.1378 1.25368 11.3311 0.544714 10.4205 0.0456543L9.97852 0.852101C11.6107 1.74658 12.7472 3.307 13.0967 5.13321Z" fill="#1D1D1B" />
    <path d="M4.02135 0.852101L3.5794 0.0456543C2.66873 0.544745 1.86213 1.25368 1.24674 2.09584C0.627556 2.94336 0.196393 3.93388 0 4.96042L0.903187 5.13324C1.25263 3.307 2.38915 1.74658 4.02135 0.852101Z" fill="#1D1D1B" />
</svg>
    