<svg width="32" height="33" viewBox="0 0 32 33" fill="none" xmlns="http://www.w3.org/2000/svg">
    <g clip-path="url(#clip0_246_4070)">
        <path d="M31.4667 0.996582H0.533333C0.238933 0.996582 0 1.23498 0 1.52992V32.4633C0 32.7582 0.238933 32.9966 0.533333 32.9966H31.4667C31.7611 32.9966 32 32.7582 32 32.4633V1.52992C32 1.23498 31.7611 0.996582 31.4667 0.996582ZM9.96587 28.1048L7.96267 27.0515L5.95947 28.1048L6.34187 25.8739L4.72107 24.2936L6.96107 23.9683L7.96267 21.9384L8.96427 23.9683L11.2043 24.2936L9.58347 25.8739L9.96587 28.1048ZM9.58293 17.6376L9.96533 19.8686L7.96213 18.8153L5.95893 19.8686L6.34133 17.6376L4.72053 16.0574L6.96053 15.732L7.96213 13.7022L8.96373 15.732L11.2037 16.0574L9.58293 17.6376ZM9.58293 9.59338L9.96533 11.8243L7.96213 10.771L5.95893 11.8243L6.34133 9.59338L4.72053 8.01312L6.96053 7.68778L7.96213 5.65792L8.96373 7.68778L11.2037 8.01312L9.58293 9.59338ZM25.0667 26.5966H12.2667V24.4632H25.0667V26.5966ZM25.0667 18.5966H12.2667V16.4632H25.0667V18.5966ZM25.0667 10.5966H12.2667V8.46325H25.0667V10.5966Z" fill="#C4C4C4" />
    </g>
    <defs>
        <clipPath id="clip0_246_4070">
            <rect y="0.996582" width="32" height="32" rx="3" fill="white" />
        </clipPath>
    </defs>
</svg>
    