<svg width="42" height="33" viewBox="0 0 42 33" fill="none" xmlns="http://www.w3.org/2000/svg">
    <path d="M40.1667 6.83333H11.8333C11.3731 6.83333 11 6.46025 11 6V1.83333C11 1.37308 11.3731 1 11.8333 1H40.1667C40.6269 1 41 1.37308 41 1.83333V6C41 6.46025 40.6269 6.83333 40.1667 6.83333Z" stroke="#06688F" stroke-width="2" stroke-miterlimit="10" stroke-linecap="round" stroke-linejoin="round" />
    <path d="M40.1667 19.3333H11.8333C11.3731 19.3333 11 18.9603 11 18.5V14.3333C11 13.8731 11.3731 13.5 11.8333 13.5H40.1667C40.6269 13.5 41 13.8731 41 14.3333V18.5C41 18.9603 40.6269 19.3333 40.1667 19.3333Z" stroke="#06688F" stroke-width="2" stroke-miterlimit="10" stroke-linecap="round" stroke-linejoin="round" />
    <path d="M40.1667 31.8333H11.8333C11.3731 31.8333 11 31.4602 11 31V26.8333C11 26.3731 11.3731 26 11.8333 26H40.1667C40.6269 26 41 26.3731 41 26.8333V31C41 31.4602 40.6269 31.8333 40.1667 31.8333Z" stroke="#06688F" stroke-width="2" stroke-miterlimit="10" stroke-linecap="round" stroke-linejoin="round" />
    <path d="M6 6.83333H1.83333C1.37308 6.83333 1 6.46025 1 6V1.83333C1 1.37308 1.37308 1 1.83333 1H6C6.46025 1 6.83333 1.37308 6.83333 1.83333V6C6.83333 6.46025 6.46025 6.83333 6 6.83333Z" stroke="#06688F" stroke-width="2" stroke-miterlimit="10" stroke-linecap="round" stroke-linejoin="round" />
    <path d="M6 19.3333H1.83333C1.37308 19.3333 1 18.9603 1 18.5V14.3333C1 13.8731 1.37308 13.5 1.83333 13.5H6C6.46025 13.5 6.83333 13.8731 6.83333 14.3333V18.5C6.83333 18.9603 6.46025 19.3333 6 19.3333Z" stroke="#06688F" stroke-width="2" stroke-miterlimit="10" stroke-linecap="round" stroke-linejoin="round" />
    <path d="M6 31.8333H1.83333C1.37308 31.8333 1 31.4602 1 31V26.8333C1 26.3731 1.37308 26 1.83333 26H6C6.46025 26 6.83333 26.3731 6.83333 26.8333V31C6.83333 31.4602 6.46025 31.8333 6 31.8333Z" stroke="#06688F" stroke-width="2" stroke-miterlimit="10" stroke-linecap="round" stroke-linejoin="round" />
</svg>
    