<svg width="31" height="32" viewBox="0 0 31 32" fill="none" xmlns="http://www.w3.org/2000/svg">
    <path d="M3.02605 32C2.80573 31.8589 2.71143 31.652 2.62547 31.4041C2.06299 29.7793 2.08636 28.091 2.03795 26.4085C1.89441 21.4672 1.74753 16.5267 1.60232 11.5862C1.59564 11.3709 1.60149 11.1548 1.60149 10.9086C2.66469 11.2991 3.71372 11.3075 4.75189 10.9219C4.75189 11.5912 4.76691 12.2238 4.74938 12.8556C4.65842 16.0902 4.55827 19.3258 4.46314 22.5605C4.39721 24.7862 4.37885 27.0153 4.24615 29.2368C4.19775 30.053 3.89398 30.8567 3.67783 31.6578C3.64111 31.7922 3.45501 31.8865 3.33817 31.9991C3.23469 32 3.13037 32 3.02605 32Z" fill="#016F9F" />
    <path d="M19.1943 9.44896C19.1943 9.57915 19.1943 9.69181 19.1943 9.80448C19.1943 11.2407 19.1943 12.6778 19.1943 14.1141C19.1943 14.1975 19.1926 14.281 19.1951 14.3636C19.2085 14.7108 19.4179 14.9394 19.7209 14.9394C20.0188 14.9403 20.2433 14.7074 20.2567 14.3661C20.2667 14.1166 20.2592 13.8662 20.2592 13.6167C20.2592 12.3465 20.2592 11.0763 20.2592 9.80614C20.2592 9.69348 20.2592 9.58082 20.2592 9.3605C20.7173 9.52157 21.1354 9.63089 21.5185 9.81282C21.9207 10.0039 22.2813 10.2802 22.6752 10.4905C23.9211 11.1556 25.178 11.1948 26.4248 10.4921C26.7686 10.2985 27.0932 10.0715 27.4262 9.85789C27.6365 9.72269 27.8435 9.58416 28.053 9.44813C29.3173 8.62944 30.2136 9.27621 30.7969 10.3653C31.0139 10.77 30.9321 11.2032 30.711 11.5921C30.4848 11.9893 30.2361 12.374 29.9874 12.7579C29.4867 13.5307 29.0636 14.3369 28.8742 15.2482C28.7323 15.93 28.8199 16.5735 29.1913 17.1677C29.4225 17.5382 29.6778 17.8937 29.9057 18.2659C30.721 19.5987 30.7218 20.9381 29.9073 22.2717C29.7012 22.6089 29.4717 22.9318 29.2547 23.2615C28.7907 23.9675 28.7106 24.7253 28.9284 25.5331C29.1504 26.3568 29.541 27.097 30.0025 27.8072C30.2462 28.182 30.4915 28.5567 30.7085 28.9472C31.0248 29.5156 30.9647 30.0672 30.5641 30.5779C30.4556 30.7165 30.3363 30.85 30.2086 30.9718C29.6378 31.5168 29.0502 31.6228 28.3567 31.2439C27.8201 30.9501 27.3119 30.6021 26.8003 30.2641C25.5994 29.4705 24.3334 29.3153 23.004 29.8869C22.6627 30.0338 22.3505 30.25 22.0317 30.4461C20.4753 31.405 18.9122 31.4183 17.3516 30.4669C16.7641 30.1089 16.1874 29.7467 15.4931 29.6165C14.4073 29.4129 13.4334 29.6699 12.5271 30.2691C12.0506 30.5846 11.5808 30.9151 11.0809 31.1913C10.0894 31.7396 9.02538 31.324 8.61562 30.2583C8.44037 29.8026 8.52966 29.3695 8.76 28.9698C9.05125 28.4665 9.37672 27.9825 9.68634 27.4893C10.0202 26.9577 10.3122 26.4069 10.3982 25.7743C10.5493 24.6685 10.2622 23.6763 9.62375 22.7699C8.79338 21.5916 8.61479 20.2922 9.04541 18.9377C9.20898 18.4228 9.52778 17.9513 9.81069 17.4814C10.3198 16.6386 10.5309 15.7397 10.3982 14.7633C10.3114 14.1307 10.0202 13.5791 9.68634 13.0483C9.38757 12.5727 9.05626 12.1153 8.78837 11.6238C8.25009 10.6357 8.67654 9.56246 9.73641 9.15937C10.1812 8.98996 10.606 9.07425 10.9957 9.30041C11.5073 9.59834 12.0055 9.92131 12.4971 10.251C13.6905 11.0504 14.9548 11.2366 16.2884 10.6707C16.6873 10.5013 17.0495 10.2459 17.4226 10.0198C18.0618 9.6359 18.6343 9.43978 19.1943 9.44896ZM24.3359 25.6383C24.1982 25.7484 24.0847 25.8252 23.9887 25.9187C23.6825 26.2166 23.3762 26.5137 23.0833 26.8242C22.8629 27.0578 22.8713 27.3766 23.0808 27.5811C23.2836 27.7797 23.579 27.7872 23.8168 27.5911C23.9128 27.5118 23.9979 27.4192 24.0847 27.3291C24.4002 27.0036 24.714 26.6773 25.0361 26.3435C25.4684 26.7757 25.8564 27.1663 26.2487 27.5535C26.4173 27.7196 26.6367 27.8164 26.8412 27.6829C26.9889 27.5869 27.1508 27.3992 27.1633 27.2406C27.1767 27.077 27.0515 26.8692 26.928 26.7332C26.5742 26.3435 26.1911 25.9813 25.8072 25.5957C26.2195 25.1868 26.6134 24.8012 27.0014 24.4098C27.1775 24.2329 27.2743 23.9984 27.1216 23.7914C27.014 23.6454 26.8078 23.5227 26.6284 23.4935C26.5007 23.4726 26.3196 23.5978 26.2053 23.7046C25.8131 24.071 25.44 24.4582 25.052 24.8454C24.6605 24.4549 24.2934 24.086 23.9236 23.7205C23.624 23.4242 23.3119 23.3942 23.0758 23.6312C22.8396 23.8682 22.8713 24.1786 23.1692 24.4783C23.5373 24.8463 23.907 25.211 24.3359 25.6383ZM20.477 20.2655C20.8692 19.8757 21.2464 19.5052 21.6186 19.1297C21.894 18.8526 21.9224 18.5313 21.7021 18.3035C21.4651 18.0589 21.1571 18.0865 20.8567 18.3827C20.4812 18.7541 20.1073 19.1272 19.7251 19.5085C19.6666 19.456 19.6199 19.4167 19.5765 19.3733C19.2152 19.0128 18.863 18.644 18.4916 18.2943C18.2521 18.069 17.9475 18.0882 17.738 18.3076C17.5377 18.5179 17.5344 18.7992 17.7388 19.0404C17.819 19.1355 17.9124 19.2198 18.0009 19.3074C18.323 19.6262 18.6452 19.9442 18.9731 20.268C18.5567 20.6836 18.1711 21.0625 17.7923 21.4489C17.5319 21.7151 17.521 22.0264 17.7497 22.25C17.9692 22.4645 18.2921 22.4428 18.5542 22.1933C18.6518 22.0998 18.7461 22.003 18.8413 21.907C19.1309 21.6158 19.4205 21.3237 19.715 21.0266C20.1415 21.4514 20.5287 21.8436 20.9226 22.2292C21.1246 22.4269 21.3641 22.462 21.607 22.3134C21.8323 22.1766 21.894 21.9538 21.8189 21.7151C21.7805 21.5941 21.6821 21.4839 21.5903 21.3888C21.2314 21.0157 20.8625 20.6519 20.477 20.2655ZM19.71 26.3551C20.1306 26.7732 20.5112 27.158 20.8993 27.5352C21.1571 27.7855 21.4526 27.8006 21.6796 27.5928C21.9091 27.3825 21.9082 27.0453 21.6595 26.7908C21.2748 26.3969 20.8809 26.0138 20.4686 25.604C20.8567 25.2193 21.2272 24.8571 21.5903 24.4866C21.6829 24.3923 21.7805 24.2821 21.8198 24.1611C21.8982 23.9216 21.8314 23.7013 21.6095 23.5619C21.3666 23.41 21.1279 23.4459 20.926 23.6445C20.5262 24.0368 20.134 24.4349 19.7175 24.8513C19.327 24.4582 18.9556 24.081 18.5801 23.7088C18.2955 23.4267 17.9884 23.3967 17.7547 23.6195C17.5077 23.8548 17.5319 24.1661 17.8273 24.4649C18.2003 24.8413 18.5767 25.2143 18.9581 25.5957C18.56 25.9971 18.1703 26.386 17.7864 26.7816C17.5511 27.0244 17.5235 27.2806 17.6913 27.5118C17.8941 27.7922 18.2529 27.8148 18.5317 27.5427C18.9272 27.1588 19.3086 26.7616 19.71 26.3551ZM24.305 20.2772C23.9529 20.6243 23.6266 20.9456 23.3019 21.2669C23.2276 21.3404 23.1509 21.4113 23.0833 21.4898C22.8713 21.7351 22.8721 22.0422 23.0824 22.2475C23.2911 22.452 23.609 22.4595 23.8394 22.2358C24.2424 21.8453 24.6288 21.438 25.0411 21.0199C25.4383 21.4155 25.8114 21.7894 26.1869 22.1607C26.4765 22.4461 26.8095 22.4745 27.0357 22.2383C27.2643 22.0005 27.236 21.7034 26.9497 21.4138C26.5775 21.0374 26.2003 20.6661 25.8114 20.2788C25.9032 20.1829 25.9791 20.1002 26.0592 20.0201C26.3822 19.6955 26.7144 19.38 27.0281 19.0462C27.2535 18.8059 27.2393 18.5021 27.0215 18.2918C26.8128 18.0907 26.5283 18.0856 26.2879 18.2868C26.1928 18.3669 26.1085 18.4604 26.0209 18.5497C25.7029 18.8726 25.3866 19.1973 25.0603 19.5302C24.6597 19.1263 24.295 18.7558 23.9262 18.3894C23.624 18.089 23.3194 18.0589 23.0799 18.2976C22.8429 18.5338 22.8746 18.8459 23.1726 19.1447C23.5364 19.5119 23.9053 19.8774 24.305 20.2772ZM25.0553 14.1817C24.9702 14.1007 24.8951 14.0323 24.8233 13.9605C24.507 13.6442 24.1949 13.3237 23.8744 13.0125C23.614 12.7588 23.2936 12.7479 23.0741 12.9724C22.8529 13.1977 22.873 13.5048 23.1292 13.7744C23.2151 13.8645 23.3044 13.9522 23.3937 14.0389C23.6958 14.3335 23.9979 14.6273 24.3084 14.9286C23.8786 15.3592 23.4838 15.7431 23.1025 16.1403C22.8137 16.4408 22.8846 16.8647 23.2368 17.0216C23.4914 17.1343 23.7008 17.0516 23.8844 16.8655C24.2683 16.4766 24.653 16.0886 25.0461 15.6905C25.4625 16.1078 25.8473 16.5017 26.2428 16.8847C26.5182 17.151 26.8829 17.1276 27.0824 16.8489C27.2485 16.6169 27.2201 16.3623 26.9831 16.1195C26.5992 15.7272 26.2078 15.3433 25.8022 14.9378C26.1986 14.5447 26.5758 14.175 26.9489 13.8003C27.2385 13.509 27.266 13.2178 27.0373 12.9782C26.807 12.7371 26.4815 12.7621 26.1919 13.0492C25.8147 13.4206 25.4408 13.7961 25.0553 14.1817ZM14.4316 26.3067C14.5542 26.462 14.6469 26.6013 14.7604 26.7198C15.0408 27.0119 15.3245 27.3023 15.6208 27.5802C15.8378 27.7839 16.1182 27.7839 16.3293 27.6095C16.5288 27.4442 16.583 27.1588 16.4436 26.9335C16.3844 26.8383 16.2993 26.7574 16.2191 26.6764C15.8653 26.3184 15.5081 25.9621 15.1476 25.5999C15.5615 25.1859 15.9571 24.8021 16.3385 24.4048C16.6206 24.1111 16.5705 23.703 16.2383 23.5369C15.9821 23.4092 15.7585 23.476 15.5607 23.6754C15.1751 24.0643 14.7854 24.4482 14.3882 24.8438C13.9759 24.4315 13.5928 24.0376 13.1964 23.6554C12.906 23.3758 12.4954 23.4251 12.326 23.753C12.1941 24.0084 12.2634 24.2321 12.462 24.4298C12.8501 24.8162 13.2348 25.206 13.6321 25.6057C13.2423 25.9955 12.8643 26.366 12.4962 26.7465C12.4053 26.8408 12.3135 26.9568 12.2809 27.0787C12.215 27.324 12.306 27.5352 12.5313 27.662C12.77 27.7956 12.9961 27.7472 13.1864 27.5585C13.5845 27.1646 13.9759 26.7657 14.4316 26.3067Z" fill="#016F9F" />
    <path d="M0.0132615 5.08012C0.0132615 4.39329 -0.0142785 3.70563 0.0191033 3.02047C0.101723 1.3155 1.52128 0.00359403 3.23627 0.0169467C4.91453 0.0302994 6.3416 1.38643 6.38583 3.06637C6.42089 4.40831 6.42172 5.75193 6.38583 7.09304C6.3416 8.76379 4.93039 10.1166 3.26798 10.1391C1.54298 10.1633 0.11591 8.87395 0.0199378 7.17065C-0.0201203 6.47631 0.0124269 5.77696 0.0132615 5.08012ZM4.79102 5.07428C4.79102 4.49177 4.79519 3.90926 4.78852 3.32758C4.78685 3.15233 4.7785 2.97123 4.73427 2.80349C4.52397 2.00483 3.78707 1.52997 2.94918 1.6393C2.18892 1.73861 1.60557 2.41042 1.59806 3.23161C1.58721 4.44837 1.59055 5.66514 1.59639 6.8819C1.60056 7.8266 2.27738 8.53012 3.17952 8.54431C4.08583 8.5585 4.77934 7.8483 4.79019 6.88524C4.79603 6.28103 4.79019 5.67765 4.79102 5.07428Z" fill="#016F9F" />
    <path d="M20.2233 8.55684C19.8887 8.55684 19.5682 8.55684 19.1943 8.55684C19.1943 8.42749 19.1943 8.30898 19.1943 8.18964C19.1943 6.50387 19.1952 4.81809 19.1935 3.13231C19.1918 1.84461 18.4232 1.081 17.1297 1.08017C16.3803 1.07933 15.6308 1.08017 14.8823 1.08017C13.5812 1.081 12.8435 1.77785 12.7809 3.06889C12.7333 4.03863 12.301 4.79723 11.5182 5.35887C11.0859 5.66932 10.5935 5.85125 10.0653 5.86628C9.21404 5.89131 8.36113 5.87295 7.48486 5.87295C7.48486 5.52996 7.48486 5.19363 7.48486 4.81726C7.85457 4.81726 8.2251 4.81726 8.59564 4.81726C9.01208 4.81726 9.42851 4.82477 9.84412 4.81559C10.8998 4.79222 11.6651 4.04196 11.7177 2.9896C11.7986 1.38394 12.7909 0.222259 14.3198 0.0470049C15.0391 -0.0356149 15.7744 0.0152922 16.5029 0.0177958C16.9286 0.0194649 17.3608 0.00110497 17.7781 0.0661994C19.1726 0.284015 20.2016 1.38311 20.2392 2.79766C20.2893 4.6904 20.2534 6.58482 20.2525 8.4784C20.2534 8.49759 20.2392 8.51595 20.2233 8.55684Z" fill="#016F9F" />
</svg>
    