<svg width="54" height="29" viewBox="0 0 54 29" fill="none" xmlns="http://www.w3.org/2000/svg">
    <path d="M4.37063 0C4.42806 0.0462991 4.49811 0.0832782 4.5408 0.140701C5.54164 1.48398 6.54729 2.82424 7.5352 4.17684C8.09861 4.94859 8.45547 5.81474 8.57242 6.76748C8.78408 8.49408 8.049 10.0069 6.56052 10.9019C4.57507 12.0952 2.00247 11.5339 0.687752 9.6275C0.181168 8.89333 -0.0289816 8.06927 0.00318726 7.18207C0.040467 6.15056 0.369672 5.20805 0.948109 4.36474C1.48416 3.58337 2.0659 2.83326 2.62931 2.07083C3.09711 1.43798 3.56641 0.806025 4.03902 0.176778C4.09103 0.10763 4.1695 0.0583248 4.23594 0C4.28074 0 4.32584 0 4.37063 0ZM7.38939 7.72804C7.3936 7.55697 7.30551 7.44423 7.17022 7.42319C7.0202 7.39974 6.90025 7.48151 6.86116 7.63454C6.85455 7.65979 6.85304 7.68655 6.84613 7.7115C6.79111 7.90542 6.75443 8.10715 6.67566 8.29114C6.43244 8.85996 6.00914 9.25891 5.45746 9.52949C5.2894 9.61187 5.23468 9.76429 5.31014 9.90951C5.3823 10.0481 5.53593 10.0905 5.69707 10.0126C6.20396 9.7676 6.62185 9.41795 6.93482 8.94805C7.18616 8.57044 7.33858 8.15585 7.38939 7.72804Z" fill="#016F9F" />
    <path d="M15.449 0C15.5064 0.0462991 15.5765 0.0832782 15.6192 0.140701C16.62 1.48398 17.6257 2.82424 18.6136 4.17684C19.177 4.94859 19.5338 5.81474 19.6508 6.76748C19.8624 8.49408 19.1274 10.0069 17.6389 10.9019C15.6534 12.0952 13.0808 11.5339 11.7661 9.6275C11.2595 8.89333 11.0494 8.06927 11.0816 7.18207C11.1188 6.15056 11.448 5.20805 12.0265 4.36474C12.5625 3.58337 13.1443 2.83326 13.7077 2.07083C14.1755 1.43798 14.6448 0.806025 15.1174 0.176778C15.1694 0.10763 15.2479 0.0583248 15.3143 0C15.3591 0 15.4042 0 15.449 0ZM18.4678 7.72804C18.472 7.55697 18.3839 7.44423 18.2486 7.42319C18.0986 7.39974 17.9786 7.48151 17.9395 7.63454C17.9329 7.65979 17.9314 7.68655 17.9245 7.7115C17.8695 7.90542 17.8328 8.10715 17.754 8.29114C17.5108 8.85996 17.0875 9.25891 16.5358 9.52949C16.3678 9.61187 16.3131 9.76429 16.3885 9.90951C16.4607 10.0481 16.6143 10.0905 16.7754 10.0126C17.2823 9.7676 17.7002 9.41795 18.0132 8.94805C18.2645 8.57044 18.417 8.15585 18.4678 7.72804Z" fill="#F29200" />
    <path d="M26.5181 0C26.5755 0.0462991 26.6456 0.0832782 26.6883 0.140701C27.6891 1.48398 28.6948 2.82424 29.6827 4.17684C30.2461 4.94859 30.6029 5.81474 30.7199 6.76748C30.9315 8.49408 30.1965 10.0069 28.708 10.9019C26.7225 12.0952 24.1499 11.5339 22.8352 9.6275C22.3286 8.89333 22.1185 8.06927 22.1506 7.18207C22.1879 6.15056 22.5171 5.20805 23.0956 4.36474C23.6316 3.58337 24.2134 2.83326 24.7768 2.07083C25.2446 1.43798 25.7139 0.806025 26.1865 0.176778C26.2385 0.10763 26.317 0.0583248 26.3834 0C26.4282 0 26.4733 0 26.5181 0ZM29.5369 7.72804C29.5411 7.55697 29.453 7.44423 29.3177 7.42319C29.1677 7.39974 29.0477 7.48151 29.0086 7.63454C29.002 7.65979 29.0005 7.68655 28.9936 7.7115C28.9386 7.90542 28.9019 8.10715 28.8231 8.29114C28.5799 8.85996 28.1566 9.25891 27.6049 9.52949C27.4369 9.61187 27.3821 9.76429 27.4576 9.90951C27.5298 10.0481 27.6834 10.0905 27.8445 10.0126C28.3514 9.7676 28.7693 9.41795 29.0823 8.94805C29.3336 8.57044 29.486 8.15585 29.5369 7.72804Z" fill="#2BB5B8" />
    <path d="M37.7625 0C37.8199 0.0462991 37.89 0.0832782 37.9326 0.140701C38.9335 1.48398 39.9391 2.82424 40.9271 4.17684C41.4905 4.94859 41.8473 5.81474 41.9643 6.76748C42.1759 8.49408 41.4408 10.0069 39.9524 10.9019C37.9669 12.0952 35.3943 11.5339 34.0796 9.6275C33.573 8.89333 33.3629 8.06927 33.395 7.18207C33.4323 6.15056 33.7615 5.20805 34.34 4.36474C34.876 3.58337 35.4577 2.83326 36.0212 2.07083C36.489 1.43798 36.9583 0.806025 37.4309 0.176778C37.4829 0.10763 37.5613 0.0583248 37.6278 0C37.6726 0 37.7177 0 37.7625 0ZM40.7812 7.72804C40.7854 7.55697 40.6974 7.44423 40.5621 7.42319C40.412 7.39974 40.2921 7.48151 40.253 7.63454C40.2464 7.65979 40.2449 7.68655 40.238 7.7115C40.183 7.90542 40.1463 8.10715 40.0675 8.29114C39.8243 8.85996 39.401 9.25891 38.8493 9.52949C38.6812 9.61187 38.6265 9.76429 38.702 9.90951C38.7741 10.0481 38.9278 10.0905 39.0889 10.0126C39.5958 9.7676 40.0137 9.41795 40.3267 8.94805C40.578 8.57044 40.7304 8.15585 40.7812 7.72804Z" fill="#F200AE" />
    <path d="M49.3706 0C49.4281 0.0462991 49.4981 0.0832782 49.5408 0.140701C50.5416 1.48398 51.5473 2.82424 52.5352 4.17684C53.0986 4.94859 53.4555 5.81474 53.5724 6.76748C53.7841 8.49408 53.049 10.0069 51.5605 10.9019C49.5751 12.0952 47.0025 11.5339 45.6878 9.6275C45.1812 8.89333 44.971 8.06927 45.0032 7.18207C45.0405 6.15056 45.3697 5.20805 45.9481 4.36474C46.4842 3.58337 47.0659 2.83326 47.6293 2.07083C48.0971 1.43798 48.5664 0.806025 49.039 0.176778C49.091 0.10763 49.1695 0.0583248 49.2359 0C49.2807 0 49.3258 0 49.3706 0ZM52.3894 7.72804C52.3936 7.55697 52.3055 7.44423 52.1702 7.42319C52.0202 7.39974 51.9002 7.48151 51.8612 7.63454C51.8545 7.65979 51.853 7.68655 51.8461 7.7115C51.7911 7.90542 51.7544 8.10715 51.6757 8.29114C51.4324 8.85996 51.0091 9.25891 50.4575 9.52949C50.2894 9.61187 50.2347 9.76429 50.3101 9.90951C50.3823 10.0481 50.5359 10.0905 50.6971 10.0126C51.204 9.7676 51.6219 9.41795 51.9348 8.94805C52.1862 8.57044 52.3386 8.15585 52.3894 7.72804Z" fill="#F2DA00" />
    <path d="M49.3706 16C49.4281 16.0463 49.4981 16.0833 49.5408 16.1407C50.5416 17.484 51.5473 18.8242 52.5352 20.1768C53.0986 20.9486 53.4555 21.8147 53.5724 22.7675C53.7841 24.4941 53.049 26.0069 51.5605 26.9019C49.5751 28.0952 47.0025 27.5339 45.6878 25.6275C45.1812 24.8933 44.971 24.0693 45.0032 23.1821C45.0405 22.1506 45.3697 21.208 45.9481 20.3647C46.4842 19.5834 47.0659 18.8333 47.6293 18.0708C48.0971 17.438 48.5664 16.806 49.039 16.1768C49.091 16.1076 49.1695 16.0583 49.2359 16C49.2807 16 49.3258 16 49.3706 16ZM52.3894 23.728C52.3936 23.557 52.3055 23.4442 52.1702 23.4232C52.0202 23.3997 51.9002 23.4815 51.8612 23.6345C51.8545 23.6598 51.853 23.6865 51.8461 23.7115C51.7911 23.9054 51.7544 24.1071 51.6757 24.2911C51.4324 24.86 51.0091 25.2589 50.4575 25.5295C50.2894 25.6119 50.2347 25.7643 50.3101 25.9095C50.3823 26.0481 50.5359 26.0905 50.6971 26.0126C51.204 25.7676 51.6219 25.418 51.9348 24.948C52.1862 24.5704 52.3386 24.1559 52.3894 23.728Z" fill="#F20000" />
    <path d="M4.36332 16.6959C4.42064 16.7421 4.49058 16.7791 4.5332 16.8364C5.53236 18.1774 6.53633 19.5154 7.52259 20.8658C8.08506 21.6362 8.44132 22.5009 8.55808 23.4521C8.76937 25.1758 8.03553 26.6861 6.54954 27.5796C4.56741 28.7709 1.99911 28.2105 0.686601 26.3073C0.180865 25.5744 -0.0289331 24.7517 0.00318193 23.866C0.0403993 22.8362 0.369053 21.8953 0.946522 21.0534C1.48167 20.2733 2.06244 19.5244 2.62491 18.7633C3.09192 18.1315 3.56044 17.5006 4.03226 16.8724C4.08419 16.8034 4.16252 16.7542 4.22885 16.6959C4.27358 16.6959 4.3186 16.6959 4.36332 16.6959ZM7.37702 24.411C7.38123 24.2402 7.29329 24.1277 7.15822 24.1067C7.00845 24.0833 6.8887 24.1649 6.84968 24.3177C6.84308 24.3429 6.84157 24.3696 6.83467 24.3945C6.77975 24.5881 6.74313 24.7895 6.66449 24.9732C6.42168 25.5411 5.99908 25.9393 5.44832 26.2095C5.28055 26.2917 5.22592 26.4439 5.30126 26.5888C5.37329 26.7272 5.52666 26.7695 5.68754 26.6918C6.19357 26.4472 6.61077 26.0981 6.92321 25.629C7.17413 25.252 7.3263 24.8381 7.37702 24.411Z" fill="#0E2E6B" />
    <path d="M15.4139 16.696C15.4712 16.7422 15.5411 16.7791 15.5837 16.8364C16.5829 18.1775 17.5869 19.5155 18.5731 20.8658C19.1356 21.6363 19.4919 22.501 19.6086 23.4521C19.8199 25.1758 19.0861 26.6861 17.6001 27.5797C15.6179 28.7709 13.0497 28.2106 11.7371 26.3074C11.2314 25.5744 11.0216 24.7517 11.0537 23.866C11.0909 22.8363 11.4196 21.8953 11.9971 21.0534C12.5322 20.2734 13.113 19.5245 13.6754 18.7633C14.1425 18.1316 14.611 17.5007 15.0828 16.8725C15.1347 16.8034 15.2131 16.7542 15.2794 16.696C15.3241 16.696 15.3691 16.696 15.4139 16.696ZM18.4276 24.4111C18.4318 24.2403 18.3438 24.1278 18.2088 24.1067C18.059 24.0833 17.9392 24.165 17.9002 24.3177C17.8936 24.343 17.8921 24.3697 17.8852 24.3946C17.8303 24.5882 17.7937 24.7896 17.715 24.9732C17.4722 25.5411 17.0496 25.9394 16.4989 26.2095C16.3311 26.2918 16.2765 26.4439 16.3518 26.5889C16.4238 26.7273 16.5772 26.7696 16.7381 26.6919C17.2441 26.4472 17.6613 26.0982 17.9737 25.6291C18.2247 25.2521 18.3768 24.8382 18.4276 24.4111Z" fill="#87D4D6" />
    <path d="M26.5252 16.696C26.5825 16.7422 26.6524 16.7791 26.6951 16.8364C27.6942 18.1775 28.6982 19.5155 29.6845 20.8658C30.2469 21.6363 30.6032 22.501 30.7199 23.4521C30.9312 25.1758 30.1974 26.6861 28.7114 27.5797C26.7293 28.7709 24.161 28.2106 22.8485 26.3074C22.3427 25.5744 22.1329 24.7517 22.165 23.866C22.2023 22.8363 22.5309 21.8953 23.1084 21.0534C23.6435 20.2734 24.2243 19.5245 24.7868 18.7633C25.2538 18.1316 25.7223 17.5007 26.1941 16.8725C26.2461 16.8034 26.3244 16.7542 26.3907 16.696C26.4354 16.696 26.4805 16.696 26.5252 16.696ZM29.5389 24.4111C29.5431 24.2403 29.4552 24.1278 29.3201 24.1067C29.1703 24.0833 29.0506 24.165 29.0115 24.3177C29.0049 24.343 29.0034 24.3697 28.9965 24.3946C28.9416 24.5882 28.905 24.7896 28.8264 24.9732C28.5835 25.5411 28.1609 25.9394 27.6102 26.2095C27.4424 26.2918 27.3878 26.4439 27.4631 26.5889C27.5352 26.7273 27.6885 26.7696 27.8494 26.6919C28.3554 26.4472 28.7726 26.0982 29.0851 25.6291C29.336 25.2521 29.4882 24.8382 29.5389 24.4111Z" fill="#A129B5" />
    <path d="M37.7552 16.6959C37.8125 16.7421 37.8824 16.7791 37.925 16.8364C38.9242 18.1774 39.9282 19.5154 40.9144 20.8658C41.4769 21.6362 41.8332 22.5009 41.9499 23.4521C42.1612 25.1758 41.4274 26.6861 39.9414 27.5796C37.9593 28.7709 35.391 28.2105 34.0784 26.3073C33.5727 25.5744 33.3629 24.7517 33.395 23.866C33.4322 22.8362 33.7609 21.8953 34.3384 21.0534C34.8735 20.2733 35.4543 19.5244 36.0168 18.7633C36.4838 18.1315 36.9523 17.5006 37.4241 16.8724C37.476 16.8034 37.5544 16.7542 37.6207 16.6959C37.6654 16.6959 37.7104 16.6959 37.7552 16.6959ZM40.7689 24.411C40.7731 24.2402 40.6851 24.1277 40.5501 24.1067C40.4003 24.0833 40.2805 24.1649 40.2415 24.3177C40.2349 24.3429 40.2334 24.3696 40.2265 24.3945C40.1716 24.5881 40.135 24.7895 40.0563 24.9732C39.8135 25.5411 39.3909 25.9393 38.8402 26.2095C38.6724 26.2917 38.6178 26.4439 38.6931 26.5888C38.7651 26.7272 38.9185 26.7695 39.0794 26.6918C39.5854 26.4472 40.0026 26.0981 40.3151 25.629C40.566 25.252 40.7181 24.8381 40.7689 24.411Z" fill="#BCCBD2" />
</svg>
    