<svg width="18" height="15" viewBox="0 0 18 15" fill="none" xmlns="http://www.w3.org/2000/svg">
<mask id="path-1-outside-1_12_19" maskUnits="userSpaceOnUse" x="0" y="0" width="18" height="15" fill="black">
<rect fill="white" width="18" height="15"/>
<path fill-rule="evenodd" clip-rule="evenodd" d="M15.4593 4.18036C16.1869 3.45281 16.1869 2.27322 15.4593 1.54566C14.7318 0.818113 13.5522 0.818111 12.8246 1.54566L6.63947 7.7308L4.18036 5.27168C3.45281 4.54413 2.27321 4.54413 1.54566 5.27169C0.818112 5.99924 0.818112 7.17883 1.54566 7.90638L6.63607 12.9968L6.63626 12.9966L6.63966 13L15.4593 4.18036Z"/>
</mask>
<path fill-rule="evenodd" clip-rule="evenodd" d="M15.4593 4.18036C16.1869 3.45281 16.1869 2.27322 15.4593 1.54566C14.7318 0.818113 13.5522 0.818111 12.8246 1.54566L6.63947 7.7308L4.18036 5.27168C3.45281 4.54413 2.27321 4.54413 1.54566 5.27169C0.818112 5.99924 0.818112 7.17883 1.54566 7.90638L6.63607 12.9968L6.63626 12.9966L6.63966 13L15.4593 4.18036Z" fill="white"/>
<path d="M15.4593 1.54566L14.7522 2.25277L14.7522 2.25277L15.4593 1.54566ZM15.4593 4.18036L16.1664 4.88747L16.1664 4.88747L15.4593 4.18036ZM12.8246 1.54566L13.5317 2.25277L13.5317 2.25277L12.8246 1.54566ZM6.63947 7.7308L5.93237 8.43791L6.63947 9.14501L7.34658 8.43791L6.63947 7.7308ZM4.18036 5.27168L4.88747 4.56458L4.88747 4.56458L4.18036 5.27168ZM1.54566 7.90638L2.25277 7.19927L2.25277 7.19927L1.54566 7.90638ZM6.63607 12.9968L5.92896 13.7039L6.63607 14.411L7.34318 13.7039L6.63607 12.9968ZM6.63626 12.9966L7.34337 12.2895L6.63626 11.5824L5.92915 12.2895L6.63626 12.9966ZM6.63966 13L5.93256 13.7071L6.63966 14.4142L7.34677 13.7071L6.63966 13ZM14.7522 2.25277C15.0892 2.5898 15.0892 3.13623 14.7522 3.47325L16.1664 4.88747C17.2845 3.76939 17.2845 1.95663 16.1664 0.838557L14.7522 2.25277ZM13.5317 2.25277C13.8687 1.91574 14.4152 1.91574 14.7522 2.25277L16.1664 0.838558C15.0483 -0.279517 13.2356 -0.279521 12.1175 0.838556L13.5317 2.25277ZM7.34658 8.43791L13.5317 2.25277L12.1175 0.838556L5.93237 7.02369L7.34658 8.43791ZM3.47325 5.97879L5.93237 8.43791L7.34658 7.02369L4.88747 4.56458L3.47325 5.97879ZM2.25277 5.97879C2.5898 5.64176 3.13623 5.64176 3.47325 5.97879L4.88747 4.56458C3.76939 3.4465 1.95663 3.4465 0.838556 4.56458L2.25277 5.97879ZM2.25277 7.19927C1.91574 6.86225 1.91574 6.31582 2.25277 5.97879L0.838556 4.56458C-0.279519 5.68265 -0.279519 7.49541 0.838557 8.61349L2.25277 7.19927ZM7.34318 12.2897L2.25277 7.19927L0.838556 8.61349L5.92896 13.7039L7.34318 12.2897ZM5.92915 12.2895L5.92896 12.2897L7.34318 13.7039L7.34337 13.7037L5.92915 12.2895ZM7.34677 12.2929L7.34337 12.2895L5.92915 13.7037L5.93256 13.7071L7.34677 12.2929ZM14.7522 3.47325L5.93256 12.2929L7.34677 13.7071L16.1664 4.88747L14.7522 3.47325Z" fill="#959798" mask="url(#path-1-outside-1_12_19)"/>
</svg>
