<svg width="32" height="32" viewBox="0 0 32 32" fill="none" xmlns="http://www.w3.org/2000/svg">
    <g clip-path="url(#clip0_246_3693)">
        <path d="M28.516 13.027H19.083L13.36 19.719H2.079L5.12 16.136H1.495C0.672 16.136 0 16.823 0 17.667V20.907C0 21.75 0.672 22.438 1.495 22.438H18.74C19.563 22.438 20.688 21.927 21.24 21.298L23.849 18.334L28.473 13.074L28.516 13.027ZM27.016 14.729L26.016 15.869L27.016 14.729ZM30.505 9.56299H13.306C12.483 9.56299 11.359 10.074 10.806 10.698L3.489 18.979H12.885L18.708 12.287H29.937L26.921 15.87H30.505C31.328 15.87 32 15.178 32 14.334V11.099C32 10.255 31.328 9.56299 30.505 9.56299ZM28.011 13.593L27.511 14.161L27.38 14.317L28.011 13.593Z" fill="black" />
    </g>
    <defs>
        <clipPath id="clip0_246_3693">
            <rect width="32" height="32" fill="white" />
        </clipPath>
    </defs>
</svg>
    