<svg width="49" height="49" viewBox="0 0 49 49" fill="none" xmlns="http://www.w3.org/2000/svg">
<circle cx="24.5" cy="24.8252" r="24" fill="url(#paint0_linear_216_2285)"/>
<path d="M32.9917 18.0652C31.0584 14.5185 28.165 12.8252 24.4717 12.8252C20.0317 12.8252 15.165 15.3052 15.165 23.1052C15.165 29.5319 24.4717 36.8252 24.4717 36.8252C24.4717 36.8252 33.8184 29.3852 33.8184 22.9985C33.8317 22.9985 33.9917 19.9185 32.9917 18.0652Z" stroke="white" stroke-width="2" stroke-miterlimit="10" stroke-linecap="round" stroke-linejoin="round"/>
<path d="M24.4977 26.4251C22.2844 26.4251 20.4844 24.6251 20.4844 22.4118C20.4844 20.1984 22.2844 18.3984 24.4977 18.3984C26.711 18.3984 28.511 20.1984 28.511 22.4118C28.511 24.6251 26.711 26.4251 24.4977 26.4251Z" stroke="white" stroke-width="2" stroke-miterlimit="10" stroke-linecap="round" stroke-linejoin="round"/>
<defs>
<linearGradient id="paint0_linear_216_2285" x1="48.5" y1="30.5078" x2="0.49983" y2="30.5603" gradientUnits="userSpaceOnUse">
<stop stop-color="#3ABEBB"/>
<stop offset="1" stop-color="#79E7CC"/>
</linearGradient>
</defs>
</svg>
