<svg width="40" height="27" viewBox="0 0 40 27" fill="none" xmlns="http://www.w3.org/2000/svg">
    <path d="M38.4262 8.46206C38.4323 8.57211 38.4242 8.68411 38.3966 8.79536L35.9293 18.6645C35.8049 19.1617 35.3593 19.5113 34.847 19.514L20.0432 19.5888C20.0413 19.5888 20.0395 19.5888 20.0375 19.5888H5.23364C4.71865 19.5888 4.26991 19.238 4.14549 18.7382L1.67821 8.8317C1.64979 8.71746 1.64157 8.60232 1.64875 8.48942C0.69428 8.18871 0 7.29555 0 6.24299C0 4.9443 1.05645 3.88785 2.35514 3.88785C3.65383 3.88785 4.71028 4.9443 4.71028 6.24299C4.71028 6.97435 4.37518 7.62871 3.85047 8.06101L6.93951 11.1734C7.72022 11.9601 8.80359 12.4111 9.91193 12.4111C11.2224 12.4111 12.4719 11.7887 13.2588 10.746L18.3354 4.01944C17.9089 3.59327 17.6449 3.00441 17.6449 2.35514C17.6449 1.05645 18.7013 0 20 0C21.2987 0 22.3551 1.05645 22.3551 2.35514C22.3551 2.98497 22.1051 3.55664 21.7009 3.97966C21.7023 3.98146 21.7039 3.98295 21.7053 3.9849L26.7451 10.73C27.5317 11.7827 28.7856 12.4112 30.0999 12.4112C31.2184 12.4112 32.2702 11.9756 33.0611 11.1846L36.1696 8.07611C35.6338 7.64396 35.2897 6.98333 35.2897 6.24299C35.2897 4.9443 36.3462 3.88785 37.6449 3.88785C38.9436 3.88785 40 4.9443 40 6.24299C40 7.26744 39.3413 8.13877 38.4262 8.46206ZM35.6885 23.1028C35.6885 22.4834 35.1864 21.9813 34.567 21.9813H5.55768C4.93832 21.9813 4.43619 22.4834 4.43619 23.1028V25.7944C4.43619 26.4138 4.93832 26.9159 5.55768 26.9159H34.567C35.1864 26.9159 35.6885 26.4138 35.6885 25.7944V23.1028Z" fill="#2BB5B8" />
</svg>
    