<svg width="46" height="40" viewBox="0 0 46 40" fill="none" xmlns="http://www.w3.org/2000/svg">
    <path d="M6.49718 0C6.58254 0.0688261 6.68668 0.123798 6.75014 0.20916C8.23794 2.20601 9.7329 4.19839 11.2015 6.20909C12.039 7.35635 12.5695 8.64393 12.7434 10.0602C13.058 12.6269 11.9653 14.8758 9.75256 16.2063C6.80109 17.9801 2.97677 17.1457 1.02238 14.3118C0.269316 13.2204 -0.0430827 11.9954 0.00473804 10.6765C0.0601564 9.14314 0.549537 7.74204 1.40942 6.48842C2.20628 5.32687 3.07107 4.2118 3.90861 3.0784C4.60402 2.13763 5.30166 1.1982 6.00423 0.26279C6.08154 0.159998 6.19819 0.086703 6.29696 0C6.36355 0 6.43059 0 6.49718 0ZM10.9847 11.4881C10.991 11.2338 10.86 11.0662 10.6589 11.035C10.4359 11.0001 10.2576 11.1217 10.1995 11.3492C10.1897 11.3867 10.1874 11.4265 10.1771 11.4636C10.0954 11.7518 10.0408 12.0517 9.92374 12.3252C9.56218 13.1708 8.93291 13.7639 8.11281 14.1661C7.86298 14.2886 7.78164 14.5152 7.89381 14.731C8.00108 14.937 8.22945 15.0001 8.469 14.8843C9.22251 14.5201 9.84374 14.0003 10.309 13.3018C10.6826 12.7404 10.9092 12.1241 10.9847 11.4881Z" fill="#016F9F" />
    <path d="M22.9657 0C23.051 0.0688261 23.1552 0.123798 23.2186 0.20916C24.7064 2.20601 26.2014 4.19839 27.67 6.20909C28.5075 7.35635 29.038 8.64393 29.2119 10.0602C29.5265 12.6269 28.4338 14.8758 26.2211 16.2063C23.2696 17.9801 19.4453 17.1457 17.4909 14.3118C16.7378 13.2204 16.4254 11.9954 16.4732 10.6765C16.5287 9.14314 17.018 7.74204 17.8779 6.48842C18.6748 5.32687 19.5396 4.2118 20.3771 3.0784C21.0725 2.13763 21.7702 1.1982 22.4727 0.26279C22.55 0.159998 22.6667 0.086703 22.7655 0C22.8321 0 22.8991 0 22.9657 0ZM27.4532 11.4881C27.4595 11.2338 27.3285 11.0662 27.1274 11.035C26.9044 11.0001 26.7261 11.1217 26.668 11.3492C26.6582 11.3867 26.6559 11.4265 26.6456 11.4636C26.5639 11.7518 26.5093 12.0517 26.3922 12.3252C26.0307 13.1708 25.4014 13.7639 24.5813 14.1661C24.3315 14.2886 24.2501 14.5152 24.3623 14.731C24.4696 14.937 24.698 15.0001 24.9375 14.8843C25.691 14.5201 26.3122 14.0003 26.7775 13.3018C27.1511 12.7404 27.3777 12.1241 27.4532 11.4881Z" fill="#F29200" />
    <path d="M39.4205 0C39.5059 0.0688261 39.61 0.123798 39.6735 0.20916C41.1613 2.20601 42.6562 4.19839 44.1248 6.20909C44.9624 7.35635 45.4929 8.64393 45.6667 10.0602C45.9813 12.6269 44.8886 14.8758 42.6759 16.2063C39.7244 17.9801 35.9001 17.1457 33.9457 14.3118C33.1927 13.2204 32.8803 11.9954 32.9281 10.6765C32.9835 9.14314 33.4729 7.74204 34.3328 6.48842C35.1296 5.32687 35.9944 4.2118 36.8319 3.0784C37.5274 2.13763 38.225 1.1982 38.9276 0.26279C39.0049 0.159998 39.1215 0.086703 39.2203 0C39.2869 0 39.3539 0 39.4205 0ZM43.9081 11.4881C43.9143 11.2338 43.7834 11.0662 43.5823 11.035C43.3592 11.0001 43.1809 11.1217 43.1228 11.3492C43.113 11.3867 43.1108 11.4265 43.1005 11.4636C43.0187 11.7518 42.9642 12.0517 42.8471 12.3252C42.4855 13.1708 41.8562 13.7639 41.0361 14.1661C40.7863 14.2886 40.705 14.5152 40.8172 14.731C40.9244 14.937 41.1528 15.0001 41.3923 14.8843C42.1459 14.5201 42.7671 14.0003 43.2323 13.3018C43.6059 12.7404 43.8325 12.1241 43.9081 11.4881Z" fill="#2BB5B8" />
    <path d="M6.49718 22.8634C6.58254 22.9322 6.68668 22.9872 6.75014 23.0726C8.23794 25.0694 9.7329 27.0618 11.2015 29.0725C12.039 30.2197 12.5695 31.5073 12.7434 32.9236C13.058 35.4903 11.9653 37.7392 9.75256 39.0697C6.80109 40.8435 2.97677 40.0091 1.02238 37.1752C0.269316 36.0838 -0.0430827 34.8588 0.00473804 33.5399C0.0601564 32.0065 0.549537 30.6054 1.40942 29.3518C2.20628 28.1903 3.07107 27.0752 3.90861 25.9418C4.60402 25.001 5.30166 24.0616 6.00423 23.1262C6.08154 23.0234 6.19819 22.9501 6.29696 22.8634C6.36355 22.8634 6.43059 22.8634 6.49718 22.8634ZM10.9847 34.3515C10.991 34.0972 10.86 33.9297 10.6589 33.8984C10.4359 33.8635 10.2576 33.9851 10.1995 34.2126C10.1897 34.2501 10.1874 34.2899 10.1771 34.327C10.0954 34.6152 10.0408 34.9151 9.92374 35.1886C9.56218 36.0342 8.93291 36.6273 8.11281 37.0295C7.86298 37.152 7.78164 37.3786 7.89381 37.5944C8.00108 37.8004 8.22945 37.8635 8.469 37.7477C9.22251 37.3835 9.84374 36.8637 10.309 36.1652C10.6826 35.6038 10.9092 34.9875 10.9847 34.3515Z" fill="#0E2E6B" />
    <path d="M22.9518 22.8635C23.0371 22.9324 23.1413 22.9873 23.2047 23.0727C24.6925 25.0695 26.1875 27.0619 27.6561 29.0726C28.4936 30.2199 29.0241 31.5075 29.198 32.9238C29.5126 35.4904 28.4199 37.7393 26.2072 39.0698C23.2557 40.8437 19.4314 40.0093 17.477 37.1753C16.7239 36.0839 16.4115 34.8589 16.4593 33.5401C16.5147 32.0067 17.0041 30.6056 17.864 29.3519C18.6609 28.1904 19.5257 27.0753 20.3632 25.9419C21.0586 25.0012 21.7563 24.0617 22.4588 23.1263C22.5361 23.0235 22.6528 22.9502 22.7515 22.8635C22.8181 22.8635 22.8852 22.8635 22.9518 22.8635ZM27.4393 34.3517C27.4456 34.0974 27.3146 33.9298 27.1135 33.8985C26.8905 33.8636 26.7122 33.9852 26.6541 34.2127C26.6442 34.2502 26.642 34.29 26.6317 34.3271C26.5499 34.6154 26.4954 34.9152 26.3783 35.1888C26.0168 36.0343 25.3875 36.6274 24.5674 37.0296C24.3176 37.1521 24.2362 37.3787 24.3484 37.5945C24.4557 37.8006 24.684 37.8636 24.9236 37.7478C25.6771 37.3836 26.2983 36.8638 26.7636 36.1653C27.1372 35.6039 27.3638 34.9876 27.4393 34.3517Z" fill="#87D4D6" />
    <path d="M39.4972 22.8635C39.5825 22.9324 39.6867 22.9873 39.7501 23.0727C41.2379 25.0695 42.7329 27.0619 44.2015 29.0726C45.039 30.2199 45.5695 31.5075 45.7434 32.9238C46.058 35.4904 44.9653 37.7393 42.7526 39.0698C39.8011 40.8437 35.9768 40.0093 34.0224 37.1753C33.2693 36.0839 32.9569 34.8589 33.0047 33.5401C33.0602 32.0067 33.5495 30.6056 34.4094 29.3519C35.2063 28.1904 36.0711 27.0753 36.9086 25.9419C37.604 25.0012 38.3017 24.0617 39.0042 23.1263C39.0815 23.0235 39.1982 22.9502 39.297 22.8635C39.3636 22.8635 39.4306 22.8635 39.4972 22.8635ZM43.9847 34.3517C43.991 34.0974 43.86 33.9298 43.6589 33.8985C43.4359 33.8636 43.2576 33.9852 43.1995 34.2127C43.1897 34.2502 43.1874 34.29 43.1771 34.3271C43.0954 34.6154 43.0408 34.9152 42.9237 35.1888C42.5622 36.0343 41.9329 36.6274 41.1128 37.0296C40.863 37.1521 40.7816 37.3787 40.8938 37.5945C41.0011 37.8006 41.2295 37.8636 41.469 37.7478C42.2225 37.3836 42.8437 36.8638 43.309 36.1653C43.6826 35.6039 43.9092 34.9876 43.9847 34.3517Z" fill="#BCCBD2" />
</svg>
    