<svg width="23" height="18" viewBox="0 0 23 18" fill="none" xmlns="http://www.w3.org/2000/svg">
<path d="M21.2289 0H1.7711C0.795781 0 0 0.830613 0 1.84862V16.1514C0 17.1694 0.795781 18 1.7711 18H21.2289C22.2042 18 23 17.1694 23 16.1514V1.84862C23 0.830613 22.2042 0 21.2289 0ZM20.9717 1.36747L11.6213 9.71412L2.27089 1.36747H20.9717ZM21.6899 16.1514C21.6899 16.4147 21.4812 16.6325 21.2289 16.6325H1.7711C1.51878 16.6325 1.31013 16.4147 1.31013 16.1514V2.30951L11.1943 11.1322C11.1992 11.1373 11.2089 11.1424 11.2137 11.1474C11.2186 11.1525 11.2283 11.1576 11.2331 11.1626C11.2477 11.1728 11.2574 11.1829 11.2719 11.188C11.2768 11.193 11.2816 11.193 11.2865 11.1981C11.3059 11.2082 11.3253 11.2183 11.3447 11.2285C11.3496 11.2285 11.3544 11.2335 11.3593 11.2335C11.3738 11.2386 11.3884 11.2487 11.4078 11.2538C11.4127 11.2538 11.4224 11.2589 11.4272 11.2589C11.4418 11.2639 11.4563 11.269 11.4709 11.269C11.4757 11.269 11.4854 11.2741 11.4903 11.2741C11.5049 11.2791 11.5243 11.2791 11.5388 11.2842C11.5437 11.2842 11.5485 11.2842 11.5534 11.2842C11.5728 11.2842 11.597 11.2893 11.6165 11.2893C11.6359 11.2893 11.6601 11.2893 11.6795 11.2842C11.6844 11.2842 11.6892 11.2842 11.6941 11.2842C11.7086 11.2842 11.7281 11.2791 11.7426 11.2741C11.7475 11.2741 11.7572 11.269 11.762 11.269C11.7766 11.2639 11.7911 11.2589 11.8057 11.2589C11.8105 11.2589 11.8203 11.2538 11.8251 11.2538C11.8397 11.2487 11.8542 11.2437 11.8736 11.2335C11.8785 11.2335 11.8833 11.2285 11.8882 11.2285C11.9076 11.2183 11.927 11.2082 11.9464 11.1981C11.9513 11.193 11.9561 11.193 11.961 11.188C11.9755 11.1778 11.9852 11.1728 11.9998 11.1626C12.0046 11.1576 12.0143 11.1525 12.0192 11.1474C12.0241 11.1424 12.0338 11.1373 12.0386 11.1322L21.6899 2.52729V16.1514Z" fill="#016F9F"/>
</svg>
