<svg width="67" height="62" viewBox="0 0 67 62" fill="none" xmlns="http://www.w3.org/2000/svg">
    <g clip-path="url(#clip0_236_468)">
        <path d="M4.58122 19.5003C2.20087 19.5003 0.263184 21.284 0.263184 23.4797V39.3973C0.263184 41.5929 2.20087 43.3766 4.58122 43.3766C6.96169 43.3766 8.89925 41.5929 8.89925 39.3973V23.4797C8.89938 21.284 6.96169 19.5003 4.58122 19.5003Z" fill="#424242"/>
        <path d="M62.1554 7.56212C59.7729 7.56212 57.8374 9.34581 57.8374 11.5415V51.3355C57.8374 53.5311 59.7729 55.3148 62.1554 55.3148C64.538 55.3148 66.4735 53.5311 66.4735 51.3355V11.5416C66.4735 9.34581 64.538 7.56212 62.1554 7.56212Z" fill="#424242"/>
        <path d="M13.2173 22.7971V40.0801L17.5353 41.2739V44.7953C17.5353 47.4495 19.3908 49.7462 22.1527 50.5078L35.1069 54.0909C37.021 54.6308 39.137 54.3259 40.8334 53.1621C42.4727 52.0398 43.4154 50.315 43.436 48.4348L53.5191 50.8245V12.0526L13.2173 22.7971ZM39.1257 48.3742C39.1257 49.6652 37.7936 50.6669 36.3467 50.2823L23.3925 46.6992C22.4732 46.4426 21.8533 45.6772 21.8533 44.7951V42.4675L39.1256 47.2428V48.3742H39.1257Z" fill="#424242"/>
    </g>
    <defs>
        <clipPath id="clip0_236_468">
        <rect width="66.2104" height="61.0175" fill="white" transform="translate(0.263184 0.92981)"/>
        </clipPath>
    </defs>
</svg>
